<svg height="18in" id="Layer_1" version="1.1" width="32in" x="0px" xml:space="preserve" xmlns="http://www.w3.org/2000/svg" xmlns:xlink="http://www.w3.org/1999/xlink" y="0px"><g transform="translate(93.95971008040976 97.41571008040975) rotate(0 232.7165 229.2605)"><path d="M196.406,319.563c0.46,0.122,0.939,0.238,1.437,0.349c2.938,0.654,6.569,1.111,9.74,1.445  c11.517-1.344,26.883-0.882,44.88,1.444c0.92,0.119,1.846,0.243,2.783,0.371c1.88-1.044,3.181-2.127,3.814-3.208  c1.286-2.199-0.194-4.391-1.704-5.58c-1.51-1.19-3.052-1.378-1.321-2.052c1.731-0.674,6.735-1.835,9.393-4.083  c2.658-2.248,2.97-5.585,2.628-7.637c-0.342-2.052-1.34-2.82-3.336-3.28c-1.996-0.459-4.991-0.61-7.8-0.381  c-2.809,0.229-5.432,0.836-14.995,0.616c-9.563-0.22-26.066-1.269-32.427-0.356c-6.362,0.913-2.582,3.788-2.723,5.183  c-0.141,1.395-4.201,1.312-10.009,0.285c-5.808-1.027-13.363-2.996-16.949-2.012c-0.915,0.251-1.571,0.694-2.014,1.261  c0.321,0.336,0.644,0.67,0.968,1.004c1.134,1.166,2.285,2.315,3.446,3.454c1.09,1.07,2.189,2.13,3.295,3.184  c1.956,1.864,3.932,3.706,5.928,5.527c1.641,1.498,3.296,2.982,4.956,4.459C196.399,319.557,196.402,319.56,196.406,319.563z" style="fill:none;stroke:red;stroke-width:0.0001px"/><path d="M196.406,319.563c0.46,0.122,0.939,0.238,1.437,0.349c2.938,0.654,6.569,1.111,9.74,1.445  c11.517-1.344,26.883-0.882,44.88,1.444c0.92,0.119,1.846,0.243,2.783,0.371c1.88-1.044,3.181-2.127,3.814-3.208  c1.286-2.199-0.194-4.391-1.704-5.58c-1.51-1.19-3.052-1.378-1.321-2.052c1.731-0.674,6.735-1.835,9.393-4.083  c2.658-2.248,2.97-5.585,2.628-7.637c-0.342-2.052-1.34-2.82-3.336-3.28c-1.996-0.459-4.991-0.61-7.8-0.381  c-2.809,0.229-5.432,0.836-14.995,0.616c-9.563-0.22-26.066-1.269-32.427-0.356c-6.362,0.913-2.582,3.788-2.723,5.183  c-0.141,1.395-4.201,1.312-10.009,0.285c-5.808-1.027-13.363-2.996-16.949-2.012c-0.915,0.251-1.571,0.694-2.014,1.261  c0.321,0.336,0.644,0.67,0.968,1.004c1.134,1.166,2.285,2.315,3.446,3.454c1.09,1.07,2.189,2.13,3.295,3.184  c1.956,1.864,3.932,3.706,5.928,5.527c1.641,1.498,3.296,2.982,4.956,4.459C196.399,319.557,196.402,319.56,196.406,319.563z" style="fill:none;stroke:red;stroke-width:0.0001px"/><path d="M196.406,319.563c0.46,0.122,0.939,0.238,1.437,0.349c2.938,0.654,6.569,1.111,9.74,1.445  c11.517-1.344,26.883-0.882,44.88,1.444c0.92,0.119,1.846,0.243,2.783,0.371c1.88-1.044,3.181-2.127,3.814-3.208  c1.286-2.199-0.194-4.391-1.704-5.58c-1.51-1.19-3.052-1.378-1.321-2.052c1.731-0.674,6.735-1.835,9.393-4.083  c2.658-2.248,2.97-5.585,2.628-7.637c-0.342-2.052-1.34-2.82-3.336-3.28c-1.996-0.459-4.991-0.61-7.8-0.381  c-2.809,0.229-5.432,0.836-14.995,0.616c-9.563-0.22-26.066-1.269-32.427-0.356c-6.362,0.913-2.582,3.788-2.723,5.183  c-0.141,1.395-4.201,1.312-10.009,0.285c-5.808-1.027-13.363-2.996-16.949-2.012c-0.915,0.251-1.571,0.694-2.014,1.261  c0.321,0.336,0.644,0.67,0.968,1.004c1.134,1.166,2.285,2.315,3.446,3.454c1.09,1.07,2.189,2.13,3.295,3.184  c1.956,1.864,3.932,3.706,5.928,5.527c1.641,1.498,3.296,2.982,4.956,4.459C196.399,319.557,196.402,319.56,196.406,319.563z" style="fill:none;stroke:red;stroke-width:0.0001px"/><path d="M260.957,313.835c0.26,0.345,0.496,0.708,0.701,1.088c0.183,0.339,0.341,0.69,0.471,1.053  c0.197,0.551,0.327,1.127,0.375,1.71c0.026,0.312,0.029,0.626,0.009,0.939c-0.021,0.324-0.068,0.647-0.139,0.965  c-0.073,0.326-0.173,0.646-0.296,0.957c-0.126,0.317-0.277,0.624-0.449,0.919c-0.172,0.293-0.364,0.574-0.573,0.842  c-0.207,0.265-0.429,0.518-0.664,0.759c-0.236,0.243-0.485,0.474-0.742,0.695c-0.011,0.01-0.022,0.019-0.034,0.029  c4.801,0.702,9.95,1.51,15.802,2.401c0.302-0.355,0.606-0.708,0.911-1.061c0.525-0.607,1.054-1.21,1.586-1.81  c1.093-1.233,2.199-2.455,3.314-3.669c1.196-1.302,2.403-2.595,3.616-3.882c1.966-2.085,3.95-4.153,5.944-6.211  c2.78-2.87,5.581-5.72,8.389-8.562c2.852-2.886,5.712-5.764,8.572-8.642c2.798-2.816,5.596-5.633,8.403-8.441  c1.475-1.475,2.952-2.948,4.435-4.415c-0.509-0.174-1.011-0.368-1.504-0.582c-0.799-0.348-1.574-0.754-2.311-1.221  c-0.497-0.315-0.977-0.659-1.433-1.031c-0.959-0.781-1.817-1.686-2.544-2.686c-0.385-0.53-0.734-1.086-1.047-1.661  c-0.329-0.606-0.618-1.233-0.869-1.875c-0.36-0.92-0.641-1.871-0.857-2.836c-0.362-1.617-0.541-3.271-0.596-4.927  c-0.038-1.12-0.019-2.242,0.039-3.361c0.052-1.021,0.137-2.041,0.243-3.059c0.114-1.091,0.253-2.179,0.409-3.265  c0.297-2.063,0.658-4.117,1.051-6.164c0.243-1.261,0.498-2.52,0.762-3.776c0.4-1.901,0.821-3.798,1.253-5.692  c0.643-2.821,1.31-5.636,1.981-8.45c0.844-3.536,1.694-7.071,2.524-10.61c0.744-3.17,1.471-6.344,2.165-9.526  c-25.85,15.92-31.984,22.165-35.277,26.732c-6.936,9.62-1.262,11.796,4.985,13.906c3.867,1.306,7.954,2.587-42.783,45.215  c0.836-0.007,1.672-0.023,2.507-0.051c0.675-0.023,1.349-0.054,2.023-0.096c0.541-0.034,1.082-0.075,1.622-0.123  c0.453-0.041,0.906-0.086,1.358-0.135c0.47-0.051,0.939-0.105,1.409-0.154c0.497-0.051,0.994-0.096,1.493-0.129  c0.833-0.056,1.669-0.081,2.504-0.077c0.667,0.003,1.334,0.024,2,0.065c0.391,0.024,0.781,0.056,1.171,0.096  c0.374,0.038,0.748,0.084,1.12,0.14c0.354,0.053,0.708,0.115,1.059,0.187c0.34,0.07,0.678,0.15,1.012,0.246  c0.341,0.098,0.678,0.213,1.006,0.349c0.201,0.084,0.399,0.176,0.592,0.276c0.169,0.088,0.335,0.184,0.496,0.286  c0.338,0.215,0.656,0.462,0.944,0.74c0.149,0.143,0.29,0.294,0.423,0.452c0.133,0.158,0.257,0.323,0.373,0.494  c0.228,0.338,0.421,0.699,0.579,1.075c0.154,0.365,0.276,0.744,0.371,1.129c0.047,0.191,0.088,0.383,0.123,0.576  c0.027,0.148,0.05,0.297,0.071,0.446c0.028,0.203,0.05,0.408,0.067,0.612c0.036,0.435,0.047,0.872,0.036,1.308  c-0.013,0.47-0.052,0.939-0.118,1.404c-0.071,0.499-0.174,0.993-0.309,1.479c-0.145,0.521-0.326,1.031-0.545,1.525  c-0.233,0.526-0.508,1.033-0.823,1.514c-0.334,0.509-0.713,0.99-1.131,1.433c-0.218,0.231-0.446,0.452-0.683,0.663  c-0.152,0.134-0.307,0.264-0.466,0.39c-0.252,0.199-0.512,0.387-0.778,0.566c-0.262,0.176-0.53,0.343-0.802,0.503  c-0.268,0.157-0.54,0.306-0.815,0.448c-0.456,0.236-0.921,0.455-1.392,0.661c-0.537,0.234-1.081,0.45-1.63,0.654  C261.418,313.671,261.188,313.754,260.957,313.835z" style="fill:none;stroke:red;stroke-width:0.0001px"/><path d="M260.957,313.835c0.26,0.345,0.496,0.708,0.701,1.088c0.183,0.339,0.341,0.69,0.471,1.053  c0.197,0.551,0.327,1.127,0.375,1.71c0.026,0.312,0.029,0.626,0.009,0.939c-0.021,0.324-0.068,0.647-0.139,0.965  c-0.073,0.326-0.173,0.646-0.296,0.957c-0.126,0.317-0.277,0.624-0.449,0.919c-0.172,0.293-0.364,0.574-0.573,0.842  c-0.207,0.265-0.429,0.518-0.664,0.759c-0.236,0.243-0.485,0.474-0.742,0.695c-0.011,0.01-0.022,0.019-0.034,0.029  c4.801,0.702,9.95,1.51,15.802,2.401c0.302-0.355,0.606-0.708,0.911-1.061c0.525-0.607,1.054-1.21,1.586-1.81  c1.093-1.233,2.199-2.455,3.314-3.669c1.196-1.302,2.403-2.595,3.616-3.882c1.966-2.085,3.95-4.153,5.944-6.211  c2.78-2.87,5.581-5.72,8.389-8.562c2.852-2.886,5.712-5.764,8.572-8.642c2.798-2.816,5.596-5.633,8.403-8.441  c1.475-1.475,2.952-2.948,4.435-4.415c-0.509-0.174-1.011-0.368-1.504-0.582c-0.799-0.348-1.574-0.754-2.311-1.221  c-0.497-0.315-0.977-0.659-1.433-1.031c-0.959-0.781-1.817-1.686-2.544-2.686c-0.385-0.53-0.734-1.086-1.047-1.661  c-0.329-0.606-0.618-1.233-0.869-1.875c-0.36-0.92-0.641-1.871-0.857-2.836c-0.362-1.617-0.541-3.271-0.596-4.927  c-0.038-1.12-0.019-2.242,0.039-3.361c0.052-1.021,0.137-2.041,0.243-3.059c0.114-1.091,0.253-2.179,0.409-3.265  c0.297-2.063,0.658-4.117,1.051-6.164c0.243-1.261,0.498-2.52,0.762-3.776c0.4-1.901,0.821-3.798,1.253-5.692  c0.643-2.821,1.31-5.636,1.981-8.45c0.844-3.536,1.694-7.071,2.524-10.61c0.744-3.17,1.471-6.344,2.165-9.526  c-25.85,15.92-31.984,22.165-35.277,26.732c-6.936,9.62-1.262,11.796,4.985,13.906c3.867,1.306,7.954,2.587-42.783,45.215  c0.836-0.007,1.672-0.023,2.507-0.051c0.675-0.023,1.349-0.054,2.023-0.096c0.541-0.034,1.082-0.075,1.622-0.123  c0.453-0.041,0.906-0.086,1.358-0.135c0.47-0.051,0.939-0.105,1.409-0.154c0.497-0.051,0.994-0.096,1.493-0.129  c0.833-0.056,1.669-0.081,2.504-0.077c0.667,0.003,1.334,0.024,2,0.065c0.391,0.024,0.781,0.056,1.171,0.096  c0.374,0.038,0.748,0.084,1.12,0.14c0.354,0.053,0.708,0.115,1.059,0.187c0.34,0.07,0.678,0.15,1.012,0.246  c0.341,0.098,0.678,0.213,1.006,0.349c0.201,0.084,0.399,0.176,0.592,0.276c0.169,0.088,0.335,0.184,0.496,0.286  c0.338,0.215,0.656,0.462,0.944,0.74c0.149,0.143,0.29,0.294,0.423,0.452c0.133,0.158,0.257,0.323,0.373,0.494  c0.228,0.338,0.421,0.699,0.579,1.075c0.154,0.365,0.276,0.744,0.371,1.129c0.047,0.191,0.088,0.383,0.123,0.576  c0.027,0.148,0.05,0.297,0.071,0.446c0.028,0.203,0.05,0.408,0.067,0.612c0.036,0.435,0.047,0.872,0.036,1.308  c-0.013,0.47-0.052,0.939-0.118,1.404c-0.071,0.499-0.174,0.993-0.309,1.479c-0.145,0.521-0.326,1.031-0.545,1.525  c-0.233,0.526-0.508,1.033-0.823,1.514c-0.334,0.509-0.713,0.99-1.131,1.433c-0.218,0.231-0.446,0.452-0.683,0.663  c-0.152,0.134-0.307,0.264-0.466,0.39c-0.252,0.199-0.512,0.387-0.778,0.566c-0.262,0.176-0.53,0.343-0.802,0.503  c-0.268,0.157-0.54,0.306-0.815,0.448c-0.456,0.236-0.921,0.455-1.392,0.661c-0.537,0.234-1.081,0.45-1.63,0.654  C261.418,313.671,261.188,313.754,260.957,313.835z" style="fill:none;stroke:red;stroke-width:0.0001px"/><path d="M260.957,313.835c0.26,0.345,0.496,0.708,0.701,1.088c0.183,0.339,0.341,0.69,0.471,1.053  c0.197,0.551,0.327,1.127,0.375,1.71c0.026,0.312,0.029,0.626,0.009,0.939c-0.021,0.324-0.068,0.647-0.139,0.965  c-0.073,0.326-0.173,0.646-0.296,0.957c-0.126,0.317-0.277,0.624-0.449,0.919c-0.172,0.293-0.364,0.574-0.573,0.842  c-0.207,0.265-0.429,0.518-0.664,0.759c-0.236,0.243-0.485,0.474-0.742,0.695c-0.011,0.01-0.022,0.019-0.034,0.029  c4.801,0.702,9.95,1.51,15.802,2.401c0.302-0.355,0.606-0.708,0.911-1.061c0.525-0.607,1.054-1.21,1.586-1.81  c1.093-1.233,2.199-2.455,3.314-3.669c1.196-1.302,2.403-2.595,3.616-3.882c1.966-2.085,3.95-4.153,5.944-6.211  c2.78-2.87,5.581-5.72,8.389-8.562c2.852-2.886,5.712-5.764,8.572-8.642c2.798-2.816,5.596-5.633,8.403-8.441  c1.475-1.475,2.952-2.948,4.435-4.415c-0.509-0.174-1.011-0.368-1.504-0.582c-0.799-0.348-1.574-0.754-2.311-1.221  c-0.497-0.315-0.977-0.659-1.433-1.031c-0.959-0.781-1.817-1.686-2.544-2.686c-0.385-0.53-0.734-1.086-1.047-1.661  c-0.329-0.606-0.618-1.233-0.869-1.875c-0.36-0.92-0.641-1.871-0.857-2.836c-0.362-1.617-0.541-3.271-0.596-4.927  c-0.038-1.12-0.019-2.242,0.039-3.361c0.052-1.021,0.137-2.041,0.243-3.059c0.114-1.091,0.253-2.179,0.409-3.265  c0.297-2.063,0.658-4.117,1.051-6.164c0.243-1.261,0.498-2.52,0.762-3.776c0.4-1.901,0.821-3.798,1.253-5.692  c0.643-2.821,1.31-5.636,1.981-8.45c0.844-3.536,1.694-7.071,2.524-10.61c0.744-3.17,1.471-6.344,2.165-9.526  c-25.85,15.92-31.984,22.165-35.277,26.732c-6.936,9.62-1.262,11.796,4.985,13.906c3.867,1.306,7.954,2.587-42.783,45.215  c0.836-0.007,1.672-0.023,2.507-0.051c0.675-0.023,1.349-0.054,2.023-0.096c0.541-0.034,1.082-0.075,1.622-0.123  c0.453-0.041,0.906-0.086,1.358-0.135c0.47-0.051,0.939-0.105,1.409-0.154c0.497-0.051,0.994-0.096,1.493-0.129  c0.833-0.056,1.669-0.081,2.504-0.077c0.667,0.003,1.334,0.024,2,0.065c0.391,0.024,0.781,0.056,1.171,0.096  c0.374,0.038,0.748,0.084,1.12,0.14c0.354,0.053,0.708,0.115,1.059,0.187c0.34,0.07,0.678,0.15,1.012,0.246  c0.341,0.098,0.678,0.213,1.006,0.349c0.201,0.084,0.399,0.176,0.592,0.276c0.169,0.088,0.335,0.184,0.496,0.286  c0.338,0.215,0.656,0.462,0.944,0.74c0.149,0.143,0.29,0.294,0.423,0.452c0.133,0.158,0.257,0.323,0.373,0.494  c0.228,0.338,0.421,0.699,0.579,1.075c0.154,0.365,0.276,0.744,0.371,1.129c0.047,0.191,0.088,0.383,0.123,0.576  c0.027,0.148,0.05,0.297,0.071,0.446c0.028,0.203,0.05,0.408,0.067,0.612c0.036,0.435,0.047,0.872,0.036,1.308  c-0.013,0.47-0.052,0.939-0.118,1.404c-0.071,0.499-0.174,0.993-0.309,1.479c-0.145,0.521-0.326,1.031-0.545,1.525  c-0.233,0.526-0.508,1.033-0.823,1.514c-0.334,0.509-0.713,0.99-1.131,1.433c-0.218,0.231-0.446,0.452-0.683,0.663  c-0.152,0.134-0.307,0.264-0.466,0.39c-0.252,0.199-0.512,0.387-0.778,0.566c-0.262,0.176-0.53,0.343-0.802,0.503  c-0.268,0.157-0.54,0.306-0.815,0.448c-0.456,0.236-0.921,0.455-1.392,0.661c-0.537,0.234-1.081,0.45-1.63,0.654  C261.418,313.671,261.188,313.754,260.957,313.835z" style="fill:none;stroke:red;stroke-width:0.0001px"/><path d="M337.783,48.269c55.313,120.244,51.708,135.22,46.604,137.95c-5.438,2.909-12.576-8.086-11.354,1.866  c1.222,9.952,10.804,40.851,19.025,54.607c8.22,13.756,15.079,10.368,18.299-2.112c2.545-9.867,2.816-25.416,23.966,27.433  c0.043-0.205,0.086-0.411,0.128-0.616c1.461-7.085,2.549-14.247,3.259-21.446c0.71-7.199,1.042-14.436,0.993-21.669  c-0.049-7.174-0.472-14.347-1.268-21.477c-0.792-7.093-1.951-14.145-3.473-21.118c-1.518-6.955-3.396-13.832-5.624-20.594  c-2.228-6.762-4.806-13.408-7.72-19.903c-2.922-6.512-6.181-12.872-9.762-19.046c-3.599-6.207-7.522-12.225-11.748-18.023  c-4.261-5.846-8.83-11.468-13.68-16.835c-4.766-5.273-9.804-10.3-15.088-15.054c-5.241-4.715-10.724-9.162-16.42-13.316  C348.71,55.117,343.324,51.563,337.783,48.269z" style="fill:none;stroke:red;stroke-width:0.0001px"/><path d="M337.783,48.269c55.313,120.244,51.708,135.22,46.604,137.95c-5.438,2.909-12.576-8.086-11.354,1.866  c1.222,9.952,10.804,40.851,19.025,54.607c8.22,13.756,15.079,10.368,18.299-2.112c2.545-9.867,2.816-25.416,23.966,27.433  c0.043-0.205,0.086-0.411,0.128-0.616c1.461-7.085,2.549-14.247,3.259-21.446c0.71-7.199,1.042-14.436,0.993-21.669  c-0.049-7.174-0.472-14.347-1.268-21.477c-0.792-7.093-1.951-14.145-3.473-21.118c-1.518-6.955-3.396-13.832-5.624-20.594  c-2.228-6.762-4.806-13.408-7.72-19.903c-2.922-6.512-6.181-12.872-9.762-19.046c-3.599-6.207-7.522-12.225-11.748-18.023  c-4.261-5.846-8.83-11.468-13.68-16.835c-4.766-5.273-9.804-10.3-15.088-15.054c-5.241-4.715-10.724-9.162-16.42-13.316  C348.71,55.117,343.324,51.563,337.783,48.269z" style="fill:none;stroke:red;stroke-width:0.0001px"/><path d="M337.783,48.269c55.313,120.244,51.708,135.22,46.604,137.95c-5.438,2.909-12.576-8.086-11.354,1.866  c1.222,9.952,10.804,40.851,19.025,54.607c8.22,13.756,15.079,10.368,18.299-2.112c2.545-9.867,2.816-25.416,23.966,27.433  c0.043-0.205,0.086-0.411,0.128-0.616c1.461-7.085,2.549-14.247,3.259-21.446c0.71-7.199,1.042-14.436,0.993-21.669  c-0.049-7.174-0.472-14.347-1.268-21.477c-0.792-7.093-1.951-14.145-3.473-21.118c-1.518-6.955-3.396-13.832-5.624-20.594  c-2.228-6.762-4.806-13.408-7.72-19.903c-2.922-6.512-6.181-12.872-9.762-19.046c-3.599-6.207-7.522-12.225-11.748-18.023  c-4.261-5.846-8.83-11.468-13.68-16.835c-4.766-5.273-9.804-10.3-15.088-15.054c-5.241-4.715-10.724-9.162-16.42-13.316  C348.71,55.117,343.324,51.563,337.783,48.269z" style="fill:none;stroke:red;stroke-width:0.0001px"/><path d="M90.927,376.107c3.118-4.992,10.956-6.017,15.085-7.642c9.725-3.828-1.137-10.984,13.328-7.854  c10.576,2.289,34.691,10.076,53.568,14.97c-10.852-13-30.872-30.315-38.499-34.9c-8.593-5.166-1.455,5.829-6.325,9.612  c-4.431,3.443-18.806,0.914-99.271-89.892c1.41,8.264,3.323,16.443,5.727,24.474c3.556,11.883,8.187,23.445,13.816,34.498  c5.675,11.142,12.366,21.768,19.961,31.701C75.155,360.016,82.725,368.397,90.927,376.107z" style="fill:none;stroke:red;stroke-width:0.0001px"/><path d="M90.927,376.107c3.118-4.992,10.956-6.017,15.085-7.642c9.725-3.828-1.137-10.984,13.328-7.854  c10.576,2.289,34.691,10.076,53.568,14.97c-10.852-13-30.872-30.315-38.499-34.9c-8.593-5.166-1.455,5.829-6.325,9.612  c-4.431,3.443-18.806,0.914-99.271-89.892c1.41,8.264,3.323,16.443,5.727,24.474c3.556,11.883,8.187,23.445,13.816,34.498  c5.675,11.142,12.366,21.768,19.961,31.701C75.155,360.016,82.725,368.397,90.927,376.107z" style="fill:none;stroke:red;stroke-width:0.0001px"/><path d="M90.927,376.107c3.118-4.992,10.956-6.017,15.085-7.642c9.725-3.828-1.137-10.984,13.328-7.854  c10.576,2.289,34.691,10.076,53.568,14.97c-10.852-13-30.872-30.315-38.499-34.9c-8.593-5.166-1.455,5.829-6.325,9.612  c-4.431,3.443-18.806,0.914-99.271-89.892c1.41,8.264,3.323,16.443,5.727,24.474c3.556,11.883,8.187,23.445,13.816,34.498  c5.675,11.142,12.366,21.768,19.961,31.701C75.155,360.016,82.725,368.397,90.927,376.107z" style="fill:none;stroke:red;stroke-width:0.0001px"/><path d="M188.658,350.214c-4.218-8.263-6.482-16.432-1.082-21.828c1.974-1.973,4.971-3.575,8.875-4.801  c-3.621-3.217-8.819-7.801-15.071-13.86c-7.02-6.804-15.37-15.469-23.974-29.091c-8.605-13.622-17.465-32.201-24.51-38.401  c-7.046-6.2-12.278-0.02-12.937,4.702c-0.659,4.722,3.254,7.986,3.246,9.867c-0.009,1.881-3.94,2.379-6.507,4.79  c-2.567,2.412-3.771,6.737-2.727,10.761c1.044,4.024,4.337,7.748,4.507,9.29c0.17,1.543-2.781,0.905-3.825,6.5  c-1.043,5.595-0.178,17.421,5.061,28.038c5.239,10.617,14.85,20.023,20.896,23.68c6.046,3.657,8.525,1.565,9.709,1.867  c1.184,0.302,1.073,2.999,3.967,5.802c2.894,2.804,8.792,5.714,12.589,5.092c3.796-0.622,5.49-4.776,6.182-7.755  c0.691-2.979,0.38-4.781,1.183-4.182c0.803,0.6,2.721,3.602,4.894,5.627c2.174,2.025,4.604,3.073,9.07,3.826  C188.353,350.165,188.504,350.189,188.658,350.214z" style="fill:none;stroke:red;stroke-width:0.0001px"/><path d="M188.658,350.214c-4.218-8.263-6.482-16.432-1.082-21.828c1.974-1.973,4.971-3.575,8.875-4.801  c-3.621-3.217-8.819-7.801-15.071-13.86c-7.02-6.804-15.37-15.469-23.974-29.091c-8.605-13.622-17.465-32.201-24.51-38.401  c-7.046-6.2-12.278-0.02-12.937,4.702c-0.659,4.722,3.254,7.986,3.246,9.867c-0.009,1.881-3.94,2.379-6.507,4.79  c-2.567,2.412-3.771,6.737-2.727,10.761c1.044,4.024,4.337,7.748,4.507,9.29c0.17,1.543-2.781,0.905-3.825,6.5  c-1.043,5.595-0.178,17.421,5.061,28.038c5.239,10.617,14.85,20.023,20.896,23.68c6.046,3.657,8.525,1.565,9.709,1.867  c1.184,0.302,1.073,2.999,3.967,5.802c2.894,2.804,8.792,5.714,12.589,5.092c3.796-0.622,5.49-4.776,6.182-7.755  c0.691-2.979,0.38-4.781,1.183-4.182c0.803,0.6,2.721,3.602,4.894,5.627c2.174,2.025,4.604,3.073,9.07,3.826  C188.353,350.165,188.504,350.189,188.658,350.214z" style="fill:none;stroke:red;stroke-width:0.0001px"/><path d="M188.658,350.214c-4.218-8.263-6.482-16.432-1.082-21.828c1.974-1.973,4.971-3.575,8.875-4.801  c-3.621-3.217-8.819-7.801-15.071-13.86c-7.02-6.804-15.37-15.469-23.974-29.091c-8.605-13.622-17.465-32.201-24.51-38.401  c-7.046-6.2-12.278-0.02-12.937,4.702c-0.659,4.722,3.254,7.986,3.246,9.867c-0.009,1.881-3.94,2.379-6.507,4.79  c-2.567,2.412-3.771,6.737-2.727,10.761c1.044,4.024,4.337,7.748,4.507,9.29c0.17,1.543-2.781,0.905-3.825,6.5  c-1.043,5.595-0.178,17.421,5.061,28.038c5.239,10.617,14.85,20.023,20.896,23.68c6.046,3.657,8.525,1.565,9.709,1.867  c1.184,0.302,1.073,2.999,3.967,5.802c2.894,2.804,8.792,5.714,12.589,5.092c3.796-0.622,5.49-4.776,6.182-7.755  c0.691-2.979,0.38-4.781,1.183-4.182c0.803,0.6,2.721,3.602,4.894,5.627c2.174,2.025,4.604,3.073,9.07,3.826  C188.353,350.165,188.504,350.189,188.658,350.214z" style="fill:none;stroke:red;stroke-width:0.0001px"/><path d="M333.401,45.736c-5.122-2.877-10.366-5.536-15.714-7.966c-6.367-2.893-12.881-5.463-19.509-7.695  c-6.643-2.238-13.4-4.137-20.235-5.687c-5.996-1.36-12.052-2.451-18.145-3.27c5.481,2.932,10.963,5.861,16.447,8.787  c7.104,3.79,14.211,7.575,21.312,11.371c3.218,1.72,6.435,3.442,9.648,5.171c2.599,1.399,5.196,2.803,7.787,4.217  c2.173,1.186,4.342,2.379,6.503,3.588c1.799,1.006,3.593,2.023,5.375,3.059c1.478,0.86,2.948,1.733,4.403,2.632  c1.21,0.748,2.41,1.514,3.588,2.311c0.982,0.665,1.949,1.351,2.892,2.07c0.548,0.419,1.088,0.849,1.616,1.294  c0.481,0.406,0.952,0.824,1.408,1.258c0.551,0.524,1.081,1.071,1.576,1.648c0.339,0.396,0.662,0.807,0.96,1.235  c0.283,0.405,0.543,0.826,0.772,1.263c0.223,0.425,0.416,0.865,0.57,1.32c0.153,0.452,0.266,0.917,0.33,1.39  c0.065,0.474,0.08,0.955,0.041,1.432c-0.039,0.475-0.131,0.945-0.274,1.399c-0.14,0.443-0.329,0.87-0.559,1.274  c-0.222,0.39-0.482,0.757-0.771,1.101c-0.28,0.333-0.588,0.642-0.915,0.93c-0.323,0.285-0.666,0.548-1.02,0.793  c-0.295,0.203-0.598,0.394-0.908,0.574c-0.385,0.223-0.779,0.43-1.18,0.623c-0.414,0.199-0.836,0.384-1.261,0.557  c-0.443,0.18-0.89,0.348-1.341,0.507c-0.957,0.337-1.929,0.63-2.908,0.896c-1.055,0.287-2.118,0.542-3.186,0.778  c-0.315,0.069-0.631,0.137-0.947,0.204c-1.158,0.243-2.32,0.464-3.485,0.667c-2.559,0.446-5.132,0.804-7.714,1.089  c-2.841,0.313-5.691,0.538-8.546,0.683c-3.078,0.156-6.16,0.219-9.242,0.194c-3.268-0.027-6.535-0.153-9.796-0.381  c-3.412-0.238-6.817-0.586-10.207-1.045c-2.328-0.315-4.649-0.681-6.963-1.088c40.472,34.088,51.678,50.742,54.066,72.366  c3.883,35.17-15.56,83.491-15.483,104.341c0.039,10.479,5.008,14.02,10.617,15.497c0.387-0.38,0.775-0.76,1.163-1.139  c1.889-1.846,3.789-3.681,5.71-5.495c1.142-1.078,2.291-2.149,3.45-3.208c1.06-0.968,2.129-1.926,3.212-2.868  c0.528-0.46,1.06-0.916,1.596-1.367c0.919-0.773,1.849-1.532,2.8-2.266c0.825-0.637,1.664-1.255,2.53-1.835  c0.738-0.495,1.495-0.961,2.28-1.378c0.347-0.184,0.699-0.358,1.058-0.518c0.335-0.15,0.674-0.288,1.02-0.41  c0.328-0.116,0.662-0.217,1-0.3c0.19-0.047,0.381-0.087,0.574-0.121c0.33-0.058,0.664-0.095,0.999-0.107  c0.339-0.012,0.679,0.001,1.015,0.044c0.344,0.044,0.684,0.12,1.013,0.229c0.333,0.11,0.654,0.254,0.957,0.431  c0.299,0.174,0.58,0.38,0.836,0.613c0.246,0.224,0.469,0.472,0.666,0.74c0.185,0.25,0.346,0.517,0.485,0.796  c0.129,0.259,0.239,0.528,0.329,0.803c0.085,0.259,0.154,0.523,0.207,0.791c0.067,0.335,0.111,0.675,0.135,1.016  c0.035,0.495,0.028,0.993-0.01,1.488c-0.037,0.48-0.103,0.957-0.193,1.43c-0.156,0.818-0.385,1.622-0.666,2.407  c-0.299,0.833-0.656,1.643-1.052,2.434c-0.369,0.738-0.77,1.458-1.19,2.168c-0.404,0.682-0.825,1.353-1.246,2.024  c-0.173,0.275-0.346,0.549-0.516,0.825c-0.144,0.233-0.286,0.466-0.424,0.702c-0.128,0.218-0.252,0.438-0.367,0.663  c-0.073,0.142-0.142,0.286-0.203,0.434c-0.042,0.1-0.08,0.2-0.11,0.304c-0.018,0.062-0.034,0.125-0.044,0.189  c-0.006,0.04-0.01,0.08-0.01,0.12c0,0.043,0.004,0.086,0.011,0.128c0.005,0.031,0.011,0.061,0.018,0.092  c0.009,0.04,0.021,0.08,0.033,0.12c0.016,0.051,0.033,0.101,0.051,0.151c0.038,0.101,0.081,0.201,0.126,0.299  c0.082,0.176,0.172,0.347,0.266,0.516c0.123,0.22,0.254,0.437,0.388,0.65c0.146,0.23,0.296,0.458,0.447,0.684  c0.216,0.324,0.434,0.646,0.649,0.97c0.257,0.386,0.51,0.775,0.756,1.168c0.215,0.344,0.424,0.692,0.624,1.044  c0.212,0.374,0.414,0.754,0.604,1.14c0.245,0.5,0.469,1.011,0.665,1.532c0.167,0.447,0.314,0.902,0.434,1.363  c0.126,0.483,0.224,0.973,0.289,1.468c0.034,0.256,0.059,0.513,0.074,0.771c0.016,0.264,0.023,0.528,0.019,0.792  c-0.007,0.547-0.058,1.094-0.153,1.633c-0.099,0.564-0.246,1.12-0.437,1.66c-0.097,0.273-0.205,0.542-0.322,0.806  c-0.116,0.26-0.242,0.517-0.375,0.769c-0.264,0.5-0.56,0.983-0.876,1.452c-0.315,0.466-0.65,0.919-1.001,1.359  c-0.329,0.415-0.672,0.819-1.024,1.215c-0.367,0.413-0.745,0.817-1.129,1.213c-0.531,0.547-1.076,1.08-1.628,1.605  c-0.291,0.277-0.585,0.551-0.879,0.824c0.164,0.039,0.328,0.08,0.49,0.125c0.48,0.133,0.952,0.294,1.41,0.488  c0.243,0.103,0.483,0.216,0.717,0.338c0.342,0.178,0.674,0.377,0.993,0.595c0.667,0.455,1.277,0.992,1.819,1.59  c0.554,0.613,1.036,1.291,1.436,2.013c0.415,0.749,0.743,1.547,0.978,2.37c0.122,0.426,0.219,0.859,0.292,1.297  c0.075,0.449,0.124,0.902,0.148,1.357c0.05,0.951-0.009,1.908-0.167,2.848c-0.17,1.009-0.453,1.997-0.825,2.95  c-0.198,0.507-0.422,1.004-0.669,1.489c-0.17,0.336-0.351,0.666-0.542,0.991c-0.292,0.499-0.606,0.985-0.936,1.459  c-0.339,0.487-0.696,0.961-1.066,1.424c-0.379,0.473-0.773,0.935-1.178,1.386c-0.321,0.356-0.649,0.705-0.984,1.048  c-0.435,0.445-0.882,0.879-1.338,1.301c-0.916,0.847-1.873,1.65-2.867,2.405c-0.972,0.739-1.978,1.433-3.022,2.066  c-0.505,0.306-1.018,0.599-1.54,0.874c-0.395,0.209-0.796,0.407-1.202,0.594c-0.507,0.234-1.023,0.449-1.547,0.642  c-0.509,0.186-1.027,0.35-1.552,0.485c-0.516,0.132-1.039,0.236-1.567,0.299c-0.262,0.032-0.525,0.053-0.789,0.065  c-0.257,0.011-0.513,0.011-0.77,0.001c-0.496-0.02-0.991-0.079-1.478-0.181c-0.464-0.098-0.921-0.234-1.363-0.406  c-0.421-0.164-0.828-0.361-1.219-0.586c-0.37-0.214-0.725-0.453-1.063-0.715c-0.32-0.247-0.625-0.513-0.915-0.794  c-0.274-0.266-0.535-0.544-0.783-0.834c-0.234-0.272-0.457-0.554-0.67-0.843c-0.199-0.27-0.39-0.545-0.575-0.825  c-0.258-0.393-0.503-0.795-0.741-1.201c-0.149,0.132-0.299,0.262-0.449,0.391c-0.598,0.513-1.215,1.006-1.848,1.476  c-0.844,0.626-1.719,1.21-2.617,1.754c-0.689,0.418-1.392,0.813-2.104,1.19c-0.901,0.478-1.816,0.927-2.741,1.356  c-0.985,0.457-1.981,0.89-2.985,1.301c-1.033,0.423-2.076,0.822-3.127,1.198c-1.388,0.495-2.791,0.949-4.21,1.345  c-1.012,0.283-2.033,0.538-3.062,0.749c-0.489,0.101-0.98,0.191-1.472,0.27c-0.473,0.075-0.948,0.14-1.424,0.189  c-0.458,0.047-0.917,0.08-1.377,0.095c-0.239,0.007-0.477,0.01-0.716,0.007c-0.221-0.003-0.442-0.012-0.662-0.026  c-0.219-0.014-0.438-0.035-0.656-0.062c-0.218-0.027-0.436-0.061-0.652-0.104c-0.277-0.055-0.552-0.123-0.823-0.206  c-0.293-0.09-0.582-0.198-0.862-0.324c-0.273-0.123-0.538-0.263-0.792-0.421c-0.247-0.153-0.483-0.321-0.708-0.504  c-0.095-0.077-0.188-0.157-0.278-0.239c-9.269,14.557-10.574,36.751,15.541,78.148c12.119-15.708,27.508-32.708,39.406-46.759  c22.747-26.865,32.728-42.949,32.518-49.432c-0.211-6.483-10.613-3.364-14.298-20.202c-2.274-10.391-1.99-28.381,11.635-88.6  c-0.063-0.197-0.125-0.394-0.187-0.591c-0.616-1.953-1.212-3.913-1.783-5.879c-0.493-1.697-0.967-3.399-1.418-5.108  c-0.221-0.838-0.436-1.677-0.644-2.518c-0.193-0.78-0.379-1.561-0.558-2.344c-0.123-0.542-0.243-1.085-0.357-1.628  c-0.14-0.664-0.272-1.329-0.393-1.997c-0.107-0.59-0.206-1.183-0.29-1.777c-0.073-0.517-0.136-1.035-0.179-1.555  c-0.02-0.234-0.035-0.469-0.046-0.704c-0.01-0.222-0.016-0.443-0.015-0.665c0.001-0.421,0.023-0.843,0.08-1.26  c0.029-0.21,0.066-0.419,0.114-0.625c0.05-0.216,0.113-0.429,0.189-0.638c0.082-0.225,0.181-0.445,0.296-0.656  c0.062-0.112,0.128-0.222,0.2-0.329c0.075-0.112,0.155-0.22,0.241-0.324c0.18-0.218,0.382-0.418,0.604-0.594  c0.225-0.178,0.47-0.331,0.729-0.456c0.246-0.118,0.505-0.211,0.77-0.276c0.123-0.03,0.248-0.055,0.373-0.073  c0.119-0.018,0.238-0.03,0.358-0.038c0.217-0.014,0.434-0.011,0.65,0.006c0.191,0.015,0.38,0.041,0.568,0.077  c0.09,0.017,0.181,0.037,0.27,0.058c0.16,0.038,0.32,0.083,0.477,0.133c0.147,0.047,0.292,0.098,0.437,0.154  c0.138,0.053,0.276,0.108,0.412,0.167c0.26,0.111,0.517,0.232,0.771,0.356c0.498,0.244,0.989,0.504,1.483,0.757  c0.228,0.117,0.457,0.232,0.688,0.343c0.218,0.105,0.439,0.206,0.661,0.302c0.323,0.139,0.652,0.266,0.989,0.366  c0.168,0.05,0.338,0.092,0.51,0.124c0.138,0.025,0.277,0.043,0.416,0.05c0.107,0.005,0.214,0.003,0.32-0.01  c0.085-0.01,0.168-0.028,0.25-0.054c0.039-0.013,0.078-0.027,0.116-0.044c0.04-0.018,0.08-0.038,0.118-0.059  c0.034-0.019,0.067-0.039,0.099-0.062c0.03-0.021,0.058-0.044,0.085-0.069c0.031-0.028,0.059-0.057,0.087-0.088  c0.036-0.041,0.069-0.084,0.099-0.13c0.042-0.063,0.08-0.128,0.115-0.196c0.049-0.094,0.092-0.19,0.13-0.289  c0.051-0.131,0.095-0.264,0.134-0.399c0.049-0.172,0.09-0.347,0.125-0.522c0.043-0.218,0.077-0.437,0.104-0.657  c0.033-0.265,0.056-0.532,0.071-0.799c0.019-0.315,0.027-0.631,0.029-0.947c0.001-0.367-0.007-0.733-0.023-1.1  c-0.039-0.898-0.123-1.793-0.232-2.685c-0.066-0.534-0.141-1.066-0.223-1.598c-0.14-0.903-0.302-1.802-0.479-2.699  c-0.282-1.428-0.601-2.847-0.946-4.261c-0.412-1.691-0.86-3.373-1.332-5.049c-0.556-1.973-1.145-3.936-1.758-5.891  c-0.712-2.273-1.456-4.537-2.222-6.792c-0.881-2.594-1.792-5.177-2.725-7.752c-1.069-2.95-2.166-5.889-3.285-8.821  c-1.265-3.314-2.558-6.618-3.872-9.914c-2.47-6.195-5.013-12.361-7.604-18.507c-3.855-9.143-7.816-18.241-11.845-27.309  C343.668,68.332,339.733,59.644,333.401,45.736z" style="fill:none;stroke:red;stroke-width:0.0001px"/><path d="M333.401,45.736c-5.122-2.877-10.366-5.536-15.714-7.966c-6.367-2.893-12.881-5.463-19.509-7.695  c-6.643-2.238-13.4-4.137-20.235-5.687c-5.996-1.36-12.052-2.451-18.145-3.27c5.481,2.932,10.963,5.861,16.447,8.787  c7.104,3.79,14.211,7.575,21.312,11.371c3.218,1.72,6.435,3.442,9.648,5.171c2.599,1.399,5.196,2.803,7.787,4.217  c2.173,1.186,4.342,2.379,6.503,3.588c1.799,1.006,3.593,2.023,5.375,3.059c1.478,0.86,2.948,1.733,4.403,2.632  c1.21,0.748,2.41,1.514,3.588,2.311c0.982,0.665,1.949,1.351,2.892,2.07c0.548,0.419,1.088,0.849,1.616,1.294  c0.481,0.406,0.952,0.824,1.408,1.258c0.551,0.524,1.081,1.071,1.576,1.648c0.339,0.396,0.662,0.807,0.96,1.235  c0.283,0.405,0.543,0.826,0.772,1.263c0.223,0.425,0.416,0.865,0.57,1.32c0.153,0.452,0.266,0.917,0.33,1.39  c0.065,0.474,0.08,0.955,0.041,1.432c-0.039,0.475-0.131,0.945-0.274,1.399c-0.14,0.443-0.329,0.87-0.559,1.274  c-0.222,0.39-0.482,0.757-0.771,1.101c-0.28,0.333-0.588,0.642-0.915,0.93c-0.323,0.285-0.666,0.548-1.02,0.793  c-0.295,0.203-0.598,0.394-0.908,0.574c-0.385,0.223-0.779,0.43-1.18,0.623c-0.414,0.199-0.836,0.384-1.261,0.557  c-0.443,0.18-0.89,0.348-1.341,0.507c-0.957,0.337-1.929,0.63-2.908,0.896c-1.055,0.287-2.118,0.542-3.186,0.778  c-0.315,0.069-0.631,0.137-0.947,0.204c-1.158,0.243-2.32,0.464-3.485,0.667c-2.559,0.446-5.132,0.804-7.714,1.089  c-2.841,0.313-5.691,0.538-8.546,0.683c-3.078,0.156-6.16,0.219-9.242,0.194c-3.268-0.027-6.535-0.153-9.796-0.381  c-3.412-0.238-6.817-0.586-10.207-1.045c-2.328-0.315-4.649-0.681-6.963-1.088c40.472,34.088,51.678,50.742,54.066,72.366  c3.883,35.17-15.56,83.491-15.483,104.341c0.039,10.479,5.008,14.02,10.617,15.497c0.387-0.38,0.775-0.76,1.163-1.139  c1.889-1.846,3.789-3.681,5.71-5.495c1.142-1.078,2.291-2.149,3.45-3.208c1.06-0.968,2.129-1.926,3.212-2.868  c0.528-0.46,1.06-0.916,1.596-1.367c0.919-0.773,1.849-1.532,2.8-2.266c0.825-0.637,1.664-1.255,2.53-1.835  c0.738-0.495,1.495-0.961,2.28-1.378c0.347-0.184,0.699-0.358,1.058-0.518c0.335-0.15,0.674-0.288,1.02-0.41  c0.328-0.116,0.662-0.217,1-0.3c0.19-0.047,0.381-0.087,0.574-0.121c0.33-0.058,0.664-0.095,0.999-0.107  c0.339-0.012,0.679,0.001,1.015,0.044c0.344,0.044,0.684,0.12,1.013,0.229c0.333,0.11,0.654,0.254,0.957,0.431  c0.299,0.174,0.58,0.38,0.836,0.613c0.246,0.224,0.469,0.472,0.666,0.74c0.185,0.25,0.346,0.517,0.485,0.796  c0.129,0.259,0.239,0.528,0.329,0.803c0.085,0.259,0.154,0.523,0.207,0.791c0.067,0.335,0.111,0.675,0.135,1.016  c0.035,0.495,0.028,0.993-0.01,1.488c-0.037,0.48-0.103,0.957-0.193,1.43c-0.156,0.818-0.385,1.622-0.666,2.407  c-0.299,0.833-0.656,1.643-1.052,2.434c-0.369,0.738-0.77,1.458-1.19,2.168c-0.404,0.682-0.825,1.353-1.246,2.024  c-0.173,0.275-0.346,0.549-0.516,0.825c-0.144,0.233-0.286,0.466-0.424,0.702c-0.128,0.218-0.252,0.438-0.367,0.663  c-0.073,0.142-0.142,0.286-0.203,0.434c-0.042,0.1-0.08,0.2-0.11,0.304c-0.018,0.062-0.034,0.125-0.044,0.189  c-0.006,0.04-0.01,0.08-0.01,0.12c0,0.043,0.004,0.086,0.011,0.128c0.005,0.031,0.011,0.061,0.018,0.092  c0.009,0.04,0.021,0.08,0.033,0.12c0.016,0.051,0.033,0.101,0.051,0.151c0.038,0.101,0.081,0.201,0.126,0.299  c0.082,0.176,0.172,0.347,0.266,0.516c0.123,0.22,0.254,0.437,0.388,0.65c0.146,0.23,0.296,0.458,0.447,0.684  c0.216,0.324,0.434,0.646,0.649,0.97c0.257,0.386,0.51,0.775,0.756,1.168c0.215,0.344,0.424,0.692,0.624,1.044  c0.212,0.374,0.414,0.754,0.604,1.14c0.245,0.5,0.469,1.011,0.665,1.532c0.167,0.447,0.314,0.902,0.434,1.363  c0.126,0.483,0.224,0.973,0.289,1.468c0.034,0.256,0.059,0.513,0.074,0.771c0.016,0.264,0.023,0.528,0.019,0.792  c-0.007,0.547-0.058,1.094-0.153,1.633c-0.099,0.564-0.246,1.12-0.437,1.66c-0.097,0.273-0.205,0.542-0.322,0.806  c-0.116,0.26-0.242,0.517-0.375,0.769c-0.264,0.5-0.56,0.983-0.876,1.452c-0.315,0.466-0.65,0.919-1.001,1.359  c-0.329,0.415-0.672,0.819-1.024,1.215c-0.367,0.413-0.745,0.817-1.129,1.213c-0.531,0.547-1.076,1.08-1.628,1.605  c-0.291,0.277-0.585,0.551-0.879,0.824c0.164,0.039,0.328,0.08,0.49,0.125c0.48,0.133,0.952,0.294,1.41,0.488  c0.243,0.103,0.483,0.216,0.717,0.338c0.342,0.178,0.674,0.377,0.993,0.595c0.667,0.455,1.277,0.992,1.819,1.59  c0.554,0.613,1.036,1.291,1.436,2.013c0.415,0.749,0.743,1.547,0.978,2.37c0.122,0.426,0.219,0.859,0.292,1.297  c0.075,0.449,0.124,0.902,0.148,1.357c0.05,0.951-0.009,1.908-0.167,2.848c-0.17,1.009-0.453,1.997-0.825,2.95  c-0.198,0.507-0.422,1.004-0.669,1.489c-0.17,0.336-0.351,0.666-0.542,0.991c-0.292,0.499-0.606,0.985-0.936,1.459  c-0.339,0.487-0.696,0.961-1.066,1.424c-0.379,0.473-0.773,0.935-1.178,1.386c-0.321,0.356-0.649,0.705-0.984,1.048  c-0.435,0.445-0.882,0.879-1.338,1.301c-0.916,0.847-1.873,1.65-2.867,2.405c-0.972,0.739-1.978,1.433-3.022,2.066  c-0.505,0.306-1.018,0.599-1.54,0.874c-0.395,0.209-0.796,0.407-1.202,0.594c-0.507,0.234-1.023,0.449-1.547,0.642  c-0.509,0.186-1.027,0.35-1.552,0.485c-0.516,0.132-1.039,0.236-1.567,0.299c-0.262,0.032-0.525,0.053-0.789,0.065  c-0.257,0.011-0.513,0.011-0.77,0.001c-0.496-0.02-0.991-0.079-1.478-0.181c-0.464-0.098-0.921-0.234-1.363-0.406  c-0.421-0.164-0.828-0.361-1.219-0.586c-0.37-0.214-0.725-0.453-1.063-0.715c-0.32-0.247-0.625-0.513-0.915-0.794  c-0.274-0.266-0.535-0.544-0.783-0.834c-0.234-0.272-0.457-0.554-0.67-0.843c-0.199-0.27-0.39-0.545-0.575-0.825  c-0.258-0.393-0.503-0.795-0.741-1.201c-0.149,0.132-0.299,0.262-0.449,0.391c-0.598,0.513-1.215,1.006-1.848,1.476  c-0.844,0.626-1.719,1.21-2.617,1.754c-0.689,0.418-1.392,0.813-2.104,1.19c-0.901,0.478-1.816,0.927-2.741,1.356  c-0.985,0.457-1.981,0.89-2.985,1.301c-1.033,0.423-2.076,0.822-3.127,1.198c-1.388,0.495-2.791,0.949-4.21,1.345  c-1.012,0.283-2.033,0.538-3.062,0.749c-0.489,0.101-0.98,0.191-1.472,0.27c-0.473,0.075-0.948,0.14-1.424,0.189  c-0.458,0.047-0.917,0.08-1.377,0.095c-0.239,0.007-0.477,0.01-0.716,0.007c-0.221-0.003-0.442-0.012-0.662-0.026  c-0.219-0.014-0.438-0.035-0.656-0.062c-0.218-0.027-0.436-0.061-0.652-0.104c-0.277-0.055-0.552-0.123-0.823-0.206  c-0.293-0.09-0.582-0.198-0.862-0.324c-0.273-0.123-0.538-0.263-0.792-0.421c-0.247-0.153-0.483-0.321-0.708-0.504  c-0.095-0.077-0.188-0.157-0.278-0.239c-9.269,14.557-10.574,36.751,15.541,78.148c12.119-15.708,27.508-32.708,39.406-46.759  c22.747-26.865,32.728-42.949,32.518-49.432c-0.211-6.483-10.613-3.364-14.298-20.202c-2.274-10.391-1.99-28.381,11.635-88.6  c-0.063-0.197-0.125-0.394-0.187-0.591c-0.616-1.953-1.212-3.913-1.783-5.879c-0.493-1.697-0.967-3.399-1.418-5.108  c-0.221-0.838-0.436-1.677-0.644-2.518c-0.193-0.78-0.379-1.561-0.558-2.344c-0.123-0.542-0.243-1.085-0.357-1.628  c-0.14-0.664-0.272-1.329-0.393-1.997c-0.107-0.59-0.206-1.183-0.29-1.777c-0.073-0.517-0.136-1.035-0.179-1.555  c-0.02-0.234-0.035-0.469-0.046-0.704c-0.01-0.222-0.016-0.443-0.015-0.665c0.001-0.421,0.023-0.843,0.08-1.26  c0.029-0.21,0.066-0.419,0.114-0.625c0.05-0.216,0.113-0.429,0.189-0.638c0.082-0.225,0.181-0.445,0.296-0.656  c0.062-0.112,0.128-0.222,0.2-0.329c0.075-0.112,0.155-0.22,0.241-0.324c0.18-0.218,0.382-0.418,0.604-0.594  c0.225-0.178,0.47-0.331,0.729-0.456c0.246-0.118,0.505-0.211,0.77-0.276c0.123-0.03,0.248-0.055,0.373-0.073  c0.119-0.018,0.238-0.03,0.358-0.038c0.217-0.014,0.434-0.011,0.65,0.006c0.191,0.015,0.38,0.041,0.568,0.077  c0.09,0.017,0.181,0.037,0.27,0.058c0.16,0.038,0.32,0.083,0.477,0.133c0.147,0.047,0.292,0.098,0.437,0.154  c0.138,0.053,0.276,0.108,0.412,0.167c0.26,0.111,0.517,0.232,0.771,0.356c0.498,0.244,0.989,0.504,1.483,0.757  c0.228,0.117,0.457,0.232,0.688,0.343c0.218,0.105,0.439,0.206,0.661,0.302c0.323,0.139,0.652,0.266,0.989,0.366  c0.168,0.05,0.338,0.092,0.51,0.124c0.138,0.025,0.277,0.043,0.416,0.05c0.107,0.005,0.214,0.003,0.32-0.01  c0.085-0.01,0.168-0.028,0.25-0.054c0.039-0.013,0.078-0.027,0.116-0.044c0.04-0.018,0.08-0.038,0.118-0.059  c0.034-0.019,0.067-0.039,0.099-0.062c0.03-0.021,0.058-0.044,0.085-0.069c0.031-0.028,0.059-0.057,0.087-0.088  c0.036-0.041,0.069-0.084,0.099-0.13c0.042-0.063,0.08-0.128,0.115-0.196c0.049-0.094,0.092-0.19,0.13-0.289  c0.051-0.131,0.095-0.264,0.134-0.399c0.049-0.172,0.09-0.347,0.125-0.522c0.043-0.218,0.077-0.437,0.104-0.657  c0.033-0.265,0.056-0.532,0.071-0.799c0.019-0.315,0.027-0.631,0.029-0.947c0.001-0.367-0.007-0.733-0.023-1.1  c-0.039-0.898-0.123-1.793-0.232-2.685c-0.066-0.534-0.141-1.066-0.223-1.598c-0.14-0.903-0.302-1.802-0.479-2.699  c-0.282-1.428-0.601-2.847-0.946-4.261c-0.412-1.691-0.86-3.373-1.332-5.049c-0.556-1.973-1.145-3.936-1.758-5.891  c-0.712-2.273-1.456-4.537-2.222-6.792c-0.881-2.594-1.792-5.177-2.725-7.752c-1.069-2.95-2.166-5.889-3.285-8.821  c-1.265-3.314-2.558-6.618-3.872-9.914c-2.47-6.195-5.013-12.361-7.604-18.507c-3.855-9.143-7.816-18.241-11.845-27.309  C343.668,68.332,339.733,59.644,333.401,45.736z" style="fill:none;stroke:red;stroke-width:0.0001px"/><path d="M333.401,45.736c-5.122-2.877-10.366-5.536-15.714-7.966c-6.367-2.893-12.881-5.463-19.509-7.695  c-6.643-2.238-13.4-4.137-20.235-5.687c-5.996-1.36-12.052-2.451-18.145-3.27c5.481,2.932,10.963,5.861,16.447,8.787  c7.104,3.79,14.211,7.575,21.312,11.371c3.218,1.72,6.435,3.442,9.648,5.171c2.599,1.399,5.196,2.803,7.787,4.217  c2.173,1.186,4.342,2.379,6.503,3.588c1.799,1.006,3.593,2.023,5.375,3.059c1.478,0.86,2.948,1.733,4.403,2.632  c1.21,0.748,2.41,1.514,3.588,2.311c0.982,0.665,1.949,1.351,2.892,2.07c0.548,0.419,1.088,0.849,1.616,1.294  c0.481,0.406,0.952,0.824,1.408,1.258c0.551,0.524,1.081,1.071,1.576,1.648c0.339,0.396,0.662,0.807,0.96,1.235  c0.283,0.405,0.543,0.826,0.772,1.263c0.223,0.425,0.416,0.865,0.57,1.32c0.153,0.452,0.266,0.917,0.33,1.39  c0.065,0.474,0.08,0.955,0.041,1.432c-0.039,0.475-0.131,0.945-0.274,1.399c-0.14,0.443-0.329,0.87-0.559,1.274  c-0.222,0.39-0.482,0.757-0.771,1.101c-0.28,0.333-0.588,0.642-0.915,0.93c-0.323,0.285-0.666,0.548-1.02,0.793  c-0.295,0.203-0.598,0.394-0.908,0.574c-0.385,0.223-0.779,0.43-1.18,0.623c-0.414,0.199-0.836,0.384-1.261,0.557  c-0.443,0.18-0.89,0.348-1.341,0.507c-0.957,0.337-1.929,0.63-2.908,0.896c-1.055,0.287-2.118,0.542-3.186,0.778  c-0.315,0.069-0.631,0.137-0.947,0.204c-1.158,0.243-2.32,0.464-3.485,0.667c-2.559,0.446-5.132,0.804-7.714,1.089  c-2.841,0.313-5.691,0.538-8.546,0.683c-3.078,0.156-6.16,0.219-9.242,0.194c-3.268-0.027-6.535-0.153-9.796-0.381  c-3.412-0.238-6.817-0.586-10.207-1.045c-2.328-0.315-4.649-0.681-6.963-1.088c40.472,34.088,51.678,50.742,54.066,72.366  c3.883,35.17-15.56,83.491-15.483,104.341c0.039,10.479,5.008,14.02,10.617,15.497c0.387-0.38,0.775-0.76,1.163-1.139  c1.889-1.846,3.789-3.681,5.71-5.495c1.142-1.078,2.291-2.149,3.45-3.208c1.06-0.968,2.129-1.926,3.212-2.868  c0.528-0.46,1.06-0.916,1.596-1.367c0.919-0.773,1.849-1.532,2.8-2.266c0.825-0.637,1.664-1.255,2.53-1.835  c0.738-0.495,1.495-0.961,2.28-1.378c0.347-0.184,0.699-0.358,1.058-0.518c0.335-0.15,0.674-0.288,1.02-0.41  c0.328-0.116,0.662-0.217,1-0.3c0.19-0.047,0.381-0.087,0.574-0.121c0.33-0.058,0.664-0.095,0.999-0.107  c0.339-0.012,0.679,0.001,1.015,0.044c0.344,0.044,0.684,0.12,1.013,0.229c0.333,0.11,0.654,0.254,0.957,0.431  c0.299,0.174,0.58,0.38,0.836,0.613c0.246,0.224,0.469,0.472,0.666,0.74c0.185,0.25,0.346,0.517,0.485,0.796  c0.129,0.259,0.239,0.528,0.329,0.803c0.085,0.259,0.154,0.523,0.207,0.791c0.067,0.335,0.111,0.675,0.135,1.016  c0.035,0.495,0.028,0.993-0.01,1.488c-0.037,0.48-0.103,0.957-0.193,1.43c-0.156,0.818-0.385,1.622-0.666,2.407  c-0.299,0.833-0.656,1.643-1.052,2.434c-0.369,0.738-0.77,1.458-1.19,2.168c-0.404,0.682-0.825,1.353-1.246,2.024  c-0.173,0.275-0.346,0.549-0.516,0.825c-0.144,0.233-0.286,0.466-0.424,0.702c-0.128,0.218-0.252,0.438-0.367,0.663  c-0.073,0.142-0.142,0.286-0.203,0.434c-0.042,0.1-0.08,0.2-0.11,0.304c-0.018,0.062-0.034,0.125-0.044,0.189  c-0.006,0.04-0.01,0.08-0.01,0.12c0,0.043,0.004,0.086,0.011,0.128c0.005,0.031,0.011,0.061,0.018,0.092  c0.009,0.04,0.021,0.08,0.033,0.12c0.016,0.051,0.033,0.101,0.051,0.151c0.038,0.101,0.081,0.201,0.126,0.299  c0.082,0.176,0.172,0.347,0.266,0.516c0.123,0.22,0.254,0.437,0.388,0.65c0.146,0.23,0.296,0.458,0.447,0.684  c0.216,0.324,0.434,0.646,0.649,0.97c0.257,0.386,0.51,0.775,0.756,1.168c0.215,0.344,0.424,0.692,0.624,1.044  c0.212,0.374,0.414,0.754,0.604,1.14c0.245,0.5,0.469,1.011,0.665,1.532c0.167,0.447,0.314,0.902,0.434,1.363  c0.126,0.483,0.224,0.973,0.289,1.468c0.034,0.256,0.059,0.513,0.074,0.771c0.016,0.264,0.023,0.528,0.019,0.792  c-0.007,0.547-0.058,1.094-0.153,1.633c-0.099,0.564-0.246,1.12-0.437,1.66c-0.097,0.273-0.205,0.542-0.322,0.806  c-0.116,0.26-0.242,0.517-0.375,0.769c-0.264,0.5-0.56,0.983-0.876,1.452c-0.315,0.466-0.65,0.919-1.001,1.359  c-0.329,0.415-0.672,0.819-1.024,1.215c-0.367,0.413-0.745,0.817-1.129,1.213c-0.531,0.547-1.076,1.08-1.628,1.605  c-0.291,0.277-0.585,0.551-0.879,0.824c0.164,0.039,0.328,0.08,0.49,0.125c0.48,0.133,0.952,0.294,1.41,0.488  c0.243,0.103,0.483,0.216,0.717,0.338c0.342,0.178,0.674,0.377,0.993,0.595c0.667,0.455,1.277,0.992,1.819,1.59  c0.554,0.613,1.036,1.291,1.436,2.013c0.415,0.749,0.743,1.547,0.978,2.37c0.122,0.426,0.219,0.859,0.292,1.297  c0.075,0.449,0.124,0.902,0.148,1.357c0.05,0.951-0.009,1.908-0.167,2.848c-0.17,1.009-0.453,1.997-0.825,2.95  c-0.198,0.507-0.422,1.004-0.669,1.489c-0.17,0.336-0.351,0.666-0.542,0.991c-0.292,0.499-0.606,0.985-0.936,1.459  c-0.339,0.487-0.696,0.961-1.066,1.424c-0.379,0.473-0.773,0.935-1.178,1.386c-0.321,0.356-0.649,0.705-0.984,1.048  c-0.435,0.445-0.882,0.879-1.338,1.301c-0.916,0.847-1.873,1.65-2.867,2.405c-0.972,0.739-1.978,1.433-3.022,2.066  c-0.505,0.306-1.018,0.599-1.54,0.874c-0.395,0.209-0.796,0.407-1.202,0.594c-0.507,0.234-1.023,0.449-1.547,0.642  c-0.509,0.186-1.027,0.35-1.552,0.485c-0.516,0.132-1.039,0.236-1.567,0.299c-0.262,0.032-0.525,0.053-0.789,0.065  c-0.257,0.011-0.513,0.011-0.77,0.001c-0.496-0.02-0.991-0.079-1.478-0.181c-0.464-0.098-0.921-0.234-1.363-0.406  c-0.421-0.164-0.828-0.361-1.219-0.586c-0.37-0.214-0.725-0.453-1.063-0.715c-0.32-0.247-0.625-0.513-0.915-0.794  c-0.274-0.266-0.535-0.544-0.783-0.834c-0.234-0.272-0.457-0.554-0.67-0.843c-0.199-0.27-0.39-0.545-0.575-0.825  c-0.258-0.393-0.503-0.795-0.741-1.201c-0.149,0.132-0.299,0.262-0.449,0.391c-0.598,0.513-1.215,1.006-1.848,1.476  c-0.844,0.626-1.719,1.21-2.617,1.754c-0.689,0.418-1.392,0.813-2.104,1.19c-0.901,0.478-1.816,0.927-2.741,1.356  c-0.985,0.457-1.981,0.89-2.985,1.301c-1.033,0.423-2.076,0.822-3.127,1.198c-1.388,0.495-2.791,0.949-4.21,1.345  c-1.012,0.283-2.033,0.538-3.062,0.749c-0.489,0.101-0.98,0.191-1.472,0.27c-0.473,0.075-0.948,0.14-1.424,0.189  c-0.458,0.047-0.917,0.08-1.377,0.095c-0.239,0.007-0.477,0.01-0.716,0.007c-0.221-0.003-0.442-0.012-0.662-0.026  c-0.219-0.014-0.438-0.035-0.656-0.062c-0.218-0.027-0.436-0.061-0.652-0.104c-0.277-0.055-0.552-0.123-0.823-0.206  c-0.293-0.09-0.582-0.198-0.862-0.324c-0.273-0.123-0.538-0.263-0.792-0.421c-0.247-0.153-0.483-0.321-0.708-0.504  c-0.095-0.077-0.188-0.157-0.278-0.239c-9.269,14.557-10.574,36.751,15.541,78.148c12.119-15.708,27.508-32.708,39.406-46.759  c22.747-26.865,32.728-42.949,32.518-49.432c-0.211-6.483-10.613-3.364-14.298-20.202c-2.274-10.391-1.99-28.381,11.635-88.6  c-0.063-0.197-0.125-0.394-0.187-0.591c-0.616-1.953-1.212-3.913-1.783-5.879c-0.493-1.697-0.967-3.399-1.418-5.108  c-0.221-0.838-0.436-1.677-0.644-2.518c-0.193-0.78-0.379-1.561-0.558-2.344c-0.123-0.542-0.243-1.085-0.357-1.628  c-0.14-0.664-0.272-1.329-0.393-1.997c-0.107-0.59-0.206-1.183-0.29-1.777c-0.073-0.517-0.136-1.035-0.179-1.555  c-0.02-0.234-0.035-0.469-0.046-0.704c-0.01-0.222-0.016-0.443-0.015-0.665c0.001-0.421,0.023-0.843,0.08-1.26  c0.029-0.21,0.066-0.419,0.114-0.625c0.05-0.216,0.113-0.429,0.189-0.638c0.082-0.225,0.181-0.445,0.296-0.656  c0.062-0.112,0.128-0.222,0.2-0.329c0.075-0.112,0.155-0.22,0.241-0.324c0.18-0.218,0.382-0.418,0.604-0.594  c0.225-0.178,0.47-0.331,0.729-0.456c0.246-0.118,0.505-0.211,0.77-0.276c0.123-0.03,0.248-0.055,0.373-0.073  c0.119-0.018,0.238-0.03,0.358-0.038c0.217-0.014,0.434-0.011,0.65,0.006c0.191,0.015,0.38,0.041,0.568,0.077  c0.09,0.017,0.181,0.037,0.27,0.058c0.16,0.038,0.32,0.083,0.477,0.133c0.147,0.047,0.292,0.098,0.437,0.154  c0.138,0.053,0.276,0.108,0.412,0.167c0.26,0.111,0.517,0.232,0.771,0.356c0.498,0.244,0.989,0.504,1.483,0.757  c0.228,0.117,0.457,0.232,0.688,0.343c0.218,0.105,0.439,0.206,0.661,0.302c0.323,0.139,0.652,0.266,0.989,0.366  c0.168,0.05,0.338,0.092,0.51,0.124c0.138,0.025,0.277,0.043,0.416,0.05c0.107,0.005,0.214,0.003,0.32-0.01  c0.085-0.01,0.168-0.028,0.25-0.054c0.039-0.013,0.078-0.027,0.116-0.044c0.04-0.018,0.08-0.038,0.118-0.059  c0.034-0.019,0.067-0.039,0.099-0.062c0.03-0.021,0.058-0.044,0.085-0.069c0.031-0.028,0.059-0.057,0.087-0.088  c0.036-0.041,0.069-0.084,0.099-0.13c0.042-0.063,0.08-0.128,0.115-0.196c0.049-0.094,0.092-0.19,0.13-0.289  c0.051-0.131,0.095-0.264,0.134-0.399c0.049-0.172,0.09-0.347,0.125-0.522c0.043-0.218,0.077-0.437,0.104-0.657  c0.033-0.265,0.056-0.532,0.071-0.799c0.019-0.315,0.027-0.631,0.029-0.947c0.001-0.367-0.007-0.733-0.023-1.1  c-0.039-0.898-0.123-1.793-0.232-2.685c-0.066-0.534-0.141-1.066-0.223-1.598c-0.14-0.903-0.302-1.802-0.479-2.699  c-0.282-1.428-0.601-2.847-0.946-4.261c-0.412-1.691-0.86-3.373-1.332-5.049c-0.556-1.973-1.145-3.936-1.758-5.891  c-0.712-2.273-1.456-4.537-2.222-6.792c-0.881-2.594-1.792-5.177-2.725-7.752c-1.069-2.95-2.166-5.889-3.285-8.821  c-1.265-3.314-2.558-6.618-3.872-9.914c-2.47-6.195-5.013-12.361-7.604-18.507c-3.855-9.143-7.816-18.241-11.845-27.309  C343.668,68.332,339.733,59.644,333.401,45.736z" style="fill:none;stroke:red;stroke-width:0.0001px"/><path d="M241.174,119.225c9.244-0.618,19.878-0.916,24.258-2.573c5.174-1.958,1.624-5.815-2.051-8.03  c-3.675-2.215-7.476-2.789-11.269-2.921s-7.579,0.176-7-0.464c0.579-0.64,5.522-2.229,6.271-4.046  c0.748-1.818-2.698-3.864-7.35-5.79c-1.082-0.448-2.23-0.889-3.473-1.294C240.765,102.478,240.969,110.851,241.174,119.225z" style="fill:none;stroke:red;stroke-width:0.0001px"/><path d="M241.174,119.225c9.244-0.618,19.878-0.916,24.258-2.573c5.174-1.958,1.624-5.815-2.051-8.03  c-3.675-2.215-7.476-2.789-11.269-2.921s-7.579,0.176-7-0.464c0.579-0.64,5.522-2.229,6.271-4.046  c0.748-1.818-2.698-3.864-7.35-5.79c-1.082-0.448-2.23-0.889-3.473-1.294C240.765,102.478,240.969,110.851,241.174,119.225z" style="fill:none;stroke:red;stroke-width:0.0001px"/><path d="M241.174,119.225c9.244-0.618,19.878-0.916,24.258-2.573c5.174-1.958,1.624-5.815-2.051-8.03  c-3.675-2.215-7.476-2.789-11.269-2.921s-7.579,0.176-7-0.464c0.579-0.64,5.522-2.229,6.271-4.046  c0.748-1.818-2.698-3.864-7.35-5.79c-1.082-0.448-2.23-0.889-3.473-1.294C240.765,102.478,240.969,110.851,241.174,119.225z" style="fill:none;stroke:red;stroke-width:0.0001px"/><path d="M217.569,93.136c-8.193,1.221-16.895,3.312-19.79,3.784c-3.686,0.602,2.042-1.422,5.922-4.187  c3.881-2.765,5.913-6.272,0.977-7.246c-4.937-0.974-16.844,0.584-28.416,4.51c-11.572,3.926-22.81,10.22-30.839,16.097  c-8.029,5.876-12.848,11.336-13.511,15.463c-0.663,4.127,2.831,6.922,5.791,8.101c2.961,1.179,5.389,0.743,3.175,2.647  c-2.214,1.904-9.072,6.15-11.771,11.012c-2.699,4.863-1.239,10.342,0.463,13.457c1.702,3.115,3.647,3.866,8.488,1.289  c4.841-2.577,12.579-8.481,14.875-9.076c2.297-0.596-0.848,4.117-0.623,5.361c0.225,1.244,3.82-0.98,18.335-5.199  c13.984-4.064,38.105-9.979,47.938-14.429C218.247,120.857,217.908,106.995,217.569,93.136z" style="fill:none;stroke:red;stroke-width:0.0001px"/><path d="M217.569,93.136c-8.193,1.221-16.895,3.312-19.79,3.784c-3.686,0.602,2.042-1.422,5.922-4.187  c3.881-2.765,5.913-6.272,0.977-7.246c-4.937-0.974-16.844,0.584-28.416,4.51c-11.572,3.926-22.81,10.22-30.839,16.097  c-8.029,5.876-12.848,11.336-13.511,15.463c-0.663,4.127,2.831,6.922,5.791,8.101c2.961,1.179,5.389,0.743,3.175,2.647  c-2.214,1.904-9.072,6.15-11.771,11.012c-2.699,4.863-1.239,10.342,0.463,13.457c1.702,3.115,3.647,3.866,8.488,1.289  c4.841-2.577,12.579-8.481,14.875-9.076c2.297-0.596-0.848,4.117-0.623,5.361c0.225,1.244,3.82-0.98,18.335-5.199  c13.984-4.064,38.105-9.979,47.938-14.429C218.247,120.857,217.908,106.995,217.569,93.136z" style="fill:none;stroke:red;stroke-width:0.0001px"/><path d="M217.569,93.136c-8.193,1.221-16.895,3.312-19.79,3.784c-3.686,0.602,2.042-1.422,5.922-4.187  c3.881-2.765,5.913-6.272,0.977-7.246c-4.937-0.974-16.844,0.584-28.416,4.51c-11.572,3.926-22.81,10.22-30.839,16.097  c-8.029,5.876-12.848,11.336-13.511,15.463c-0.663,4.127,2.831,6.922,5.791,8.101c2.961,1.179,5.389,0.743,3.175,2.647  c-2.214,1.904-9.072,6.15-11.771,11.012c-2.699,4.863-1.239,10.342,0.463,13.457c1.702,3.115,3.647,3.866,8.488,1.289  c4.841-2.577,12.579-8.481,14.875-9.076c2.297-0.596-0.848,4.117-0.623,5.361c0.225,1.244,3.82-0.98,18.335-5.199  c13.984-4.064,38.105-9.979,47.938-14.429C218.247,120.857,217.908,106.995,217.569,93.136z" style="fill:none;stroke:red;stroke-width:0.0001px"/><path d="M303.948,419.273c0.217-0.289,0.435-0.579,0.654-0.869c-0.955-1.501-1.896-3.01-2.821-4.529  c-1.594-2.617-3.141-5.262-4.63-7.94c-1.369-2.461-2.689-4.95-3.947-7.469c-1.162-2.327-2.271-4.68-3.314-7.063  c-0.957-2.186-1.859-4.397-2.691-6.634c-0.759-2.042-1.459-4.106-2.088-6.192c-1.112-3.693-2-7.457-2.55-11.274  c-0.473-3.285-0.696-6.61-0.577-9.927c0.105-2.937,0.478-5.868,1.161-8.727c0.623-2.605,1.503-5.15,2.628-7.581  c0.533-1.152,1.121-2.279,1.757-3.378c0.513-0.886,1.058-1.754,1.632-2.602c-0.015-0.035-0.03-0.071-0.044-0.106  c-0.14-0.344-0.261-0.696-0.368-1.052c-0.146,0.111-0.291,0.223-0.435,0.337c-0.149,0.118-0.298,0.236-0.446,0.356  c-0.243,0.197-0.485,0.395-0.725,0.595c-0.532,0.442-1.058,0.891-1.582,1.342c-1.051,0.904-2.095,1.816-3.147,2.718  c-0.599,0.513-1.2,1.022-1.808,1.525c-0.449,0.372-0.902,0.74-1.359,1.102c-0.585,0.463-1.177,0.916-1.782,1.353  c-0.569,0.41-1.149,0.806-1.748,1.172c-0.287,0.176-0.577,0.344-0.873,0.504c-0.284,0.153-0.573,0.298-0.868,0.432  c-0.284,0.129-0.572,0.247-0.865,0.353c-0.156,0.056-0.312,0.108-0.471,0.156c-0.293,0.088-0.592,0.162-0.894,0.215  c-0.314,0.055-0.632,0.089-0.951,0.096c-0.35,0.007-0.7-0.019-1.043-0.084c-0.252-0.048-0.499-0.116-0.739-0.206  c-0.193-0.072-0.381-0.159-0.561-0.259c-0.188-0.104-0.369-0.223-0.539-0.356c-0.174-0.136-0.336-0.285-0.486-0.448  c-0.148-0.161-0.284-0.334-0.404-0.517c-0.073-0.111-0.141-0.226-0.204-0.343c-0.096-0.181-0.179-0.368-0.248-0.56  c-0.129-0.356-0.211-0.729-0.252-1.105c-0.037-0.344-0.04-0.691-0.015-1.037c0.024-0.331,0.073-0.66,0.14-0.985  c0.127-0.613,0.32-1.211,0.549-1.794c0.135-0.344,0.284-0.683,0.441-1.018c0.171-0.364,0.354-0.723,0.544-1.078  c0.433-0.806,0.908-1.589,1.408-2.356c0.592-0.909,1.218-1.795,1.865-2.665c0.632-0.85,1.284-1.684,1.949-2.509  c-3.026-0.463-6.052-0.932-9.078-1.391c-1.962-0.298-3.925-0.592-5.889-0.876c-1.851-0.267-3.703-0.526-5.557-0.769  c-4.413-0.578-8.838-1.068-13.273-1.444c-2.089-0.177-4.18-0.329-6.273-0.452c-1.982-0.116-3.965-0.206-5.95-0.266  c-1.869-0.056-3.739-0.085-5.609-0.081c-1.762,0.003-3.523,0.036-5.284,0.103c-1.635,0.062-3.268,0.155-4.899,0.286  c-0.843,0.067-1.686,0.145-2.528,0.234c-1.416,0.15-2.828,0.333-4.233,0.558c-1.273,0.204-2.541,0.442-3.798,0.727  c-1.123,0.254-2.239,0.544-3.339,0.885c-0.966,0.299-1.921,0.637-2.853,1.028c-0.802,0.337-1.588,0.713-2.343,1.146  c-0.331,0.19-0.657,0.391-0.973,0.605c-0.289,0.195-0.57,0.401-0.841,0.619c-0.247,0.198-0.485,0.407-0.712,0.627  c-0.208,0.203-0.407,0.415-0.594,0.638c-0.175,0.209-0.339,0.426-0.491,0.652c-0.144,0.215-0.277,0.439-0.397,0.669  c-0.118,0.226-0.225,0.458-0.319,0.695c-0.095,0.239-0.178,0.483-0.248,0.73c-0.148,0.519-0.241,1.053-0.291,1.59  c-0.055,0.595-0.058,1.193-0.021,1.789c0.04,0.665,0.129,1.326,0.251,1.98c0.135,0.723,0.311,1.438,0.516,2.145  c0.223,0.768,0.48,1.526,0.76,2.275c0.301,0.803,0.63,1.596,0.979,2.381c0.367,0.826,0.756,1.641,1.161,2.449  c0.419,0.835,0.854,1.662,1.302,2.482c0.886,1.623,1.818,3.22,2.771,4.805c0.497,0.827,1,1.651,1.505,2.473  c0.549,0.894,1.102,1.786,1.653,2.679c0.487,0.789,0.972,1.578,1.451,2.372c0.461,0.764,0.917,1.53,1.362,2.304  c0.423,0.736,0.834,1.478,1.228,2.229c0.371,0.708,0.726,1.425,1.052,2.155c0.156,0.349,0.305,0.701,0.445,1.056  c0.112,0.282,0.218,0.567,0.317,0.853c0.119,0.345,0.229,0.693,0.325,1.044c0.095,0.347,0.178,0.697,0.245,1.051  c0.067,0.353,0.117,0.71,0.146,1.068c0.03,0.365,0.039,0.731,0.023,1.096c-0.017,0.377-0.062,0.753-0.139,1.123  c-0.079,0.385-0.193,0.764-0.342,1.128c-0.154,0.378-0.346,0.74-0.573,1.078c-0.23,0.344-0.497,0.663-0.792,0.953  c-0.293,0.288-0.614,0.547-0.955,0.775c-0.339,0.226-0.698,0.422-1.069,0.591c-0.373,0.169-0.758,0.311-1.151,0.429  c-0.403,0.121-0.814,0.218-1.228,0.294c-0.435,0.081-0.873,0.14-1.313,0.182c-0.551,0.053-1.104,0.08-1.657,0.089  c-0.516,0.008-1.033,0-1.549-0.02c-0.565-0.023-1.129-0.06-1.692-0.109c-0.613-0.053-1.226-0.12-1.837-0.196  c-0.66-0.083-1.318-0.177-1.975-0.28c-0.707-0.111-1.413-0.231-2.117-0.359c-0.752-0.137-1.502-0.282-2.251-0.433  c-1.628-0.329-3.251-0.686-4.868-1.062c-1.765-0.41-3.526-0.841-5.282-1.286c-1.7-0.431-3.398-0.875-5.092-1.328  c-1.938-0.518-3.873-1.048-5.805-1.586c-3.97-1.105-7.93-2.245-11.886-3.396c-3.113-0.906-6.224-1.819-9.335-2.73  c-2.038-0.597-4.076-1.193-6.115-1.784c-2.101-0.609-4.203-1.214-6.309-1.805c-1.51-0.424-3.022-0.842-4.537-1.248  c-1.298-0.347-2.599-0.685-3.905-1.004c-0.559-0.137-1.119-0.27-1.68-0.397c-0.376-0.085-0.753-0.168-1.13-0.247  c-0.459-0.096-0.918-0.187-1.379-0.27c-0.386-0.069-0.772-0.133-1.16-0.188c-0.314-0.045-0.63-0.083-0.946-0.113  c-0.203-0.019-0.407-0.034-0.611-0.042c-0.146-0.006-0.292-0.009-0.438-0.006c-0.027,0.224-0.054,0.448-0.084,0.671  c-0.05,0.37-0.112,0.738-0.195,1.102c-0.102,0.448-0.235,0.889-0.405,1.315c-0.197,0.494-0.442,0.969-0.733,1.414  c-0.323,0.494-0.702,0.951-1.123,1.366c-0.458,0.452-0.966,0.853-1.504,1.208c-0.289,0.191-0.586,0.368-0.89,0.533  c-0.322,0.175-0.651,0.337-0.985,0.488c-0.347,0.156-0.699,0.299-1.055,0.433c-0.344,0.129-0.692,0.25-1.041,0.365  c-0.356,0.117-0.715,0.229-1.074,0.339c-0.365,0.111-0.731,0.22-1.097,0.328c-0.823,0.243-1.646,0.484-2.463,0.744  c-0.735,0.233-1.465,0.481-2.184,0.759c-0.68,0.263-1.351,0.553-2,0.886c-0.586,0.301-1.154,0.637-1.684,1.028  c-0.464,0.342-0.899,0.726-1.276,1.162c-0.173,0.201-0.334,0.413-0.479,0.635c-0.124,0.191-0.236,0.389-0.336,0.594  c0.169,0.154,0.338,0.308,0.507,0.461c9.191,8.33,19.136,15.828,29.672,22.375c10.536,6.547,21.664,12.141,33.203,16.692  c5.798,2.287,11.701,4.311,17.682,6.063c6.019,1.764,12.118,3.253,18.272,4.462c7.098,1.394,14.27,2.415,21.476,3.057  c7.146,0.637,14.326,0.9,21.5,0.789c7.136-0.111,14.267-0.592,21.353-1.441c7.069-0.847,14.093-2.06,21.036-3.632  c6.943-1.572,13.805-3.504,20.549-5.784C300.274,420.603,302.116,419.951,303.948,419.273z" style="fill:none;stroke:red;stroke-width:0.0001px"/><path d="M303.948,419.273c0.217-0.289,0.435-0.579,0.654-0.869c-0.955-1.501-1.896-3.01-2.821-4.529  c-1.594-2.617-3.141-5.262-4.63-7.94c-1.369-2.461-2.689-4.95-3.947-7.469c-1.162-2.327-2.271-4.68-3.314-7.063  c-0.957-2.186-1.859-4.397-2.691-6.634c-0.759-2.042-1.459-4.106-2.088-6.192c-1.112-3.693-2-7.457-2.55-11.274  c-0.473-3.285-0.696-6.61-0.577-9.927c0.105-2.937,0.478-5.868,1.161-8.727c0.623-2.605,1.503-5.15,2.628-7.581  c0.533-1.152,1.121-2.279,1.757-3.378c0.513-0.886,1.058-1.754,1.632-2.602c-0.015-0.035-0.03-0.071-0.044-0.106  c-0.14-0.344-0.261-0.696-0.368-1.052c-0.146,0.111-0.291,0.223-0.435,0.337c-0.149,0.118-0.298,0.236-0.446,0.356  c-0.243,0.197-0.485,0.395-0.725,0.595c-0.532,0.442-1.058,0.891-1.582,1.342c-1.051,0.904-2.095,1.816-3.147,2.718  c-0.599,0.513-1.2,1.022-1.808,1.525c-0.449,0.372-0.902,0.74-1.359,1.102c-0.585,0.463-1.177,0.916-1.782,1.353  c-0.569,0.41-1.149,0.806-1.748,1.172c-0.287,0.176-0.577,0.344-0.873,0.504c-0.284,0.153-0.573,0.298-0.868,0.432  c-0.284,0.129-0.572,0.247-0.865,0.353c-0.156,0.056-0.312,0.108-0.471,0.156c-0.293,0.088-0.592,0.162-0.894,0.215  c-0.314,0.055-0.632,0.089-0.951,0.096c-0.35,0.007-0.7-0.019-1.043-0.084c-0.252-0.048-0.499-0.116-0.739-0.206  c-0.193-0.072-0.381-0.159-0.561-0.259c-0.188-0.104-0.369-0.223-0.539-0.356c-0.174-0.136-0.336-0.285-0.486-0.448  c-0.148-0.161-0.284-0.334-0.404-0.517c-0.073-0.111-0.141-0.226-0.204-0.343c-0.096-0.181-0.179-0.368-0.248-0.56  c-0.129-0.356-0.211-0.729-0.252-1.105c-0.037-0.344-0.04-0.691-0.015-1.037c0.024-0.331,0.073-0.66,0.14-0.985  c0.127-0.613,0.32-1.211,0.549-1.794c0.135-0.344,0.284-0.683,0.441-1.018c0.171-0.364,0.354-0.723,0.544-1.078  c0.433-0.806,0.908-1.589,1.408-2.356c0.592-0.909,1.218-1.795,1.865-2.665c0.632-0.85,1.284-1.684,1.949-2.509  c-3.026-0.463-6.052-0.932-9.078-1.391c-1.962-0.298-3.925-0.592-5.889-0.876c-1.851-0.267-3.703-0.526-5.557-0.769  c-4.413-0.578-8.838-1.068-13.273-1.444c-2.089-0.177-4.18-0.329-6.273-0.452c-1.982-0.116-3.965-0.206-5.95-0.266  c-1.869-0.056-3.739-0.085-5.609-0.081c-1.762,0.003-3.523,0.036-5.284,0.103c-1.635,0.062-3.268,0.155-4.899,0.286  c-0.843,0.067-1.686,0.145-2.528,0.234c-1.416,0.15-2.828,0.333-4.233,0.558c-1.273,0.204-2.541,0.442-3.798,0.727  c-1.123,0.254-2.239,0.544-3.339,0.885c-0.966,0.299-1.921,0.637-2.853,1.028c-0.802,0.337-1.588,0.713-2.343,1.146  c-0.331,0.19-0.657,0.391-0.973,0.605c-0.289,0.195-0.57,0.401-0.841,0.619c-0.247,0.198-0.485,0.407-0.712,0.627  c-0.208,0.203-0.407,0.415-0.594,0.638c-0.175,0.209-0.339,0.426-0.491,0.652c-0.144,0.215-0.277,0.439-0.397,0.669  c-0.118,0.226-0.225,0.458-0.319,0.695c-0.095,0.239-0.178,0.483-0.248,0.73c-0.148,0.519-0.241,1.053-0.291,1.59  c-0.055,0.595-0.058,1.193-0.021,1.789c0.04,0.665,0.129,1.326,0.251,1.98c0.135,0.723,0.311,1.438,0.516,2.145  c0.223,0.768,0.48,1.526,0.76,2.275c0.301,0.803,0.63,1.596,0.979,2.381c0.367,0.826,0.756,1.641,1.161,2.449  c0.419,0.835,0.854,1.662,1.302,2.482c0.886,1.623,1.818,3.22,2.771,4.805c0.497,0.827,1,1.651,1.505,2.473  c0.549,0.894,1.102,1.786,1.653,2.679c0.487,0.789,0.972,1.578,1.451,2.372c0.461,0.764,0.917,1.53,1.362,2.304  c0.423,0.736,0.834,1.478,1.228,2.229c0.371,0.708,0.726,1.425,1.052,2.155c0.156,0.349,0.305,0.701,0.445,1.056  c0.112,0.282,0.218,0.567,0.317,0.853c0.119,0.345,0.229,0.693,0.325,1.044c0.095,0.347,0.178,0.697,0.245,1.051  c0.067,0.353,0.117,0.71,0.146,1.068c0.03,0.365,0.039,0.731,0.023,1.096c-0.017,0.377-0.062,0.753-0.139,1.123  c-0.079,0.385-0.193,0.764-0.342,1.128c-0.154,0.378-0.346,0.74-0.573,1.078c-0.23,0.344-0.497,0.663-0.792,0.953  c-0.293,0.288-0.614,0.547-0.955,0.775c-0.339,0.226-0.698,0.422-1.069,0.591c-0.373,0.169-0.758,0.311-1.151,0.429  c-0.403,0.121-0.814,0.218-1.228,0.294c-0.435,0.081-0.873,0.14-1.313,0.182c-0.551,0.053-1.104,0.08-1.657,0.089  c-0.516,0.008-1.033,0-1.549-0.02c-0.565-0.023-1.129-0.06-1.692-0.109c-0.613-0.053-1.226-0.12-1.837-0.196  c-0.66-0.083-1.318-0.177-1.975-0.28c-0.707-0.111-1.413-0.231-2.117-0.359c-0.752-0.137-1.502-0.282-2.251-0.433  c-1.628-0.329-3.251-0.686-4.868-1.062c-1.765-0.41-3.526-0.841-5.282-1.286c-1.7-0.431-3.398-0.875-5.092-1.328  c-1.938-0.518-3.873-1.048-5.805-1.586c-3.97-1.105-7.93-2.245-11.886-3.396c-3.113-0.906-6.224-1.819-9.335-2.73  c-2.038-0.597-4.076-1.193-6.115-1.784c-2.101-0.609-4.203-1.214-6.309-1.805c-1.51-0.424-3.022-0.842-4.537-1.248  c-1.298-0.347-2.599-0.685-3.905-1.004c-0.559-0.137-1.119-0.27-1.68-0.397c-0.376-0.085-0.753-0.168-1.13-0.247  c-0.459-0.096-0.918-0.187-1.379-0.27c-0.386-0.069-0.772-0.133-1.16-0.188c-0.314-0.045-0.63-0.083-0.946-0.113  c-0.203-0.019-0.407-0.034-0.611-0.042c-0.146-0.006-0.292-0.009-0.438-0.006c-0.027,0.224-0.054,0.448-0.084,0.671  c-0.05,0.37-0.112,0.738-0.195,1.102c-0.102,0.448-0.235,0.889-0.405,1.315c-0.197,0.494-0.442,0.969-0.733,1.414  c-0.323,0.494-0.702,0.951-1.123,1.366c-0.458,0.452-0.966,0.853-1.504,1.208c-0.289,0.191-0.586,0.368-0.89,0.533  c-0.322,0.175-0.651,0.337-0.985,0.488c-0.347,0.156-0.699,0.299-1.055,0.433c-0.344,0.129-0.692,0.25-1.041,0.365  c-0.356,0.117-0.715,0.229-1.074,0.339c-0.365,0.111-0.731,0.22-1.097,0.328c-0.823,0.243-1.646,0.484-2.463,0.744  c-0.735,0.233-1.465,0.481-2.184,0.759c-0.68,0.263-1.351,0.553-2,0.886c-0.586,0.301-1.154,0.637-1.684,1.028  c-0.464,0.342-0.899,0.726-1.276,1.162c-0.173,0.201-0.334,0.413-0.479,0.635c-0.124,0.191-0.236,0.389-0.336,0.594  c0.169,0.154,0.338,0.308,0.507,0.461c9.191,8.33,19.136,15.828,29.672,22.375c10.536,6.547,21.664,12.141,33.203,16.692  c5.798,2.287,11.701,4.311,17.682,6.063c6.019,1.764,12.118,3.253,18.272,4.462c7.098,1.394,14.27,2.415,21.476,3.057  c7.146,0.637,14.326,0.9,21.5,0.789c7.136-0.111,14.267-0.592,21.353-1.441c7.069-0.847,14.093-2.06,21.036-3.632  c6.943-1.572,13.805-3.504,20.549-5.784C300.274,420.603,302.116,419.951,303.948,419.273z" style="fill:none;stroke:red;stroke-width:0.0001px"/><path d="M303.948,419.273c0.217-0.289,0.435-0.579,0.654-0.869c-0.955-1.501-1.896-3.01-2.821-4.529  c-1.594-2.617-3.141-5.262-4.63-7.94c-1.369-2.461-2.689-4.95-3.947-7.469c-1.162-2.327-2.271-4.68-3.314-7.063  c-0.957-2.186-1.859-4.397-2.691-6.634c-0.759-2.042-1.459-4.106-2.088-6.192c-1.112-3.693-2-7.457-2.55-11.274  c-0.473-3.285-0.696-6.61-0.577-9.927c0.105-2.937,0.478-5.868,1.161-8.727c0.623-2.605,1.503-5.15,2.628-7.581  c0.533-1.152,1.121-2.279,1.757-3.378c0.513-0.886,1.058-1.754,1.632-2.602c-0.015-0.035-0.03-0.071-0.044-0.106  c-0.14-0.344-0.261-0.696-0.368-1.052c-0.146,0.111-0.291,0.223-0.435,0.337c-0.149,0.118-0.298,0.236-0.446,0.356  c-0.243,0.197-0.485,0.395-0.725,0.595c-0.532,0.442-1.058,0.891-1.582,1.342c-1.051,0.904-2.095,1.816-3.147,2.718  c-0.599,0.513-1.2,1.022-1.808,1.525c-0.449,0.372-0.902,0.74-1.359,1.102c-0.585,0.463-1.177,0.916-1.782,1.353  c-0.569,0.41-1.149,0.806-1.748,1.172c-0.287,0.176-0.577,0.344-0.873,0.504c-0.284,0.153-0.573,0.298-0.868,0.432  c-0.284,0.129-0.572,0.247-0.865,0.353c-0.156,0.056-0.312,0.108-0.471,0.156c-0.293,0.088-0.592,0.162-0.894,0.215  c-0.314,0.055-0.632,0.089-0.951,0.096c-0.35,0.007-0.7-0.019-1.043-0.084c-0.252-0.048-0.499-0.116-0.739-0.206  c-0.193-0.072-0.381-0.159-0.561-0.259c-0.188-0.104-0.369-0.223-0.539-0.356c-0.174-0.136-0.336-0.285-0.486-0.448  c-0.148-0.161-0.284-0.334-0.404-0.517c-0.073-0.111-0.141-0.226-0.204-0.343c-0.096-0.181-0.179-0.368-0.248-0.56  c-0.129-0.356-0.211-0.729-0.252-1.105c-0.037-0.344-0.04-0.691-0.015-1.037c0.024-0.331,0.073-0.66,0.14-0.985  c0.127-0.613,0.32-1.211,0.549-1.794c0.135-0.344,0.284-0.683,0.441-1.018c0.171-0.364,0.354-0.723,0.544-1.078  c0.433-0.806,0.908-1.589,1.408-2.356c0.592-0.909,1.218-1.795,1.865-2.665c0.632-0.85,1.284-1.684,1.949-2.509  c-3.026-0.463-6.052-0.932-9.078-1.391c-1.962-0.298-3.925-0.592-5.889-0.876c-1.851-0.267-3.703-0.526-5.557-0.769  c-4.413-0.578-8.838-1.068-13.273-1.444c-2.089-0.177-4.18-0.329-6.273-0.452c-1.982-0.116-3.965-0.206-5.95-0.266  c-1.869-0.056-3.739-0.085-5.609-0.081c-1.762,0.003-3.523,0.036-5.284,0.103c-1.635,0.062-3.268,0.155-4.899,0.286  c-0.843,0.067-1.686,0.145-2.528,0.234c-1.416,0.15-2.828,0.333-4.233,0.558c-1.273,0.204-2.541,0.442-3.798,0.727  c-1.123,0.254-2.239,0.544-3.339,0.885c-0.966,0.299-1.921,0.637-2.853,1.028c-0.802,0.337-1.588,0.713-2.343,1.146  c-0.331,0.19-0.657,0.391-0.973,0.605c-0.289,0.195-0.57,0.401-0.841,0.619c-0.247,0.198-0.485,0.407-0.712,0.627  c-0.208,0.203-0.407,0.415-0.594,0.638c-0.175,0.209-0.339,0.426-0.491,0.652c-0.144,0.215-0.277,0.439-0.397,0.669  c-0.118,0.226-0.225,0.458-0.319,0.695c-0.095,0.239-0.178,0.483-0.248,0.73c-0.148,0.519-0.241,1.053-0.291,1.59  c-0.055,0.595-0.058,1.193-0.021,1.789c0.04,0.665,0.129,1.326,0.251,1.98c0.135,0.723,0.311,1.438,0.516,2.145  c0.223,0.768,0.48,1.526,0.76,2.275c0.301,0.803,0.63,1.596,0.979,2.381c0.367,0.826,0.756,1.641,1.161,2.449  c0.419,0.835,0.854,1.662,1.302,2.482c0.886,1.623,1.818,3.22,2.771,4.805c0.497,0.827,1,1.651,1.505,2.473  c0.549,0.894,1.102,1.786,1.653,2.679c0.487,0.789,0.972,1.578,1.451,2.372c0.461,0.764,0.917,1.53,1.362,2.304  c0.423,0.736,0.834,1.478,1.228,2.229c0.371,0.708,0.726,1.425,1.052,2.155c0.156,0.349,0.305,0.701,0.445,1.056  c0.112,0.282,0.218,0.567,0.317,0.853c0.119,0.345,0.229,0.693,0.325,1.044c0.095,0.347,0.178,0.697,0.245,1.051  c0.067,0.353,0.117,0.71,0.146,1.068c0.03,0.365,0.039,0.731,0.023,1.096c-0.017,0.377-0.062,0.753-0.139,1.123  c-0.079,0.385-0.193,0.764-0.342,1.128c-0.154,0.378-0.346,0.74-0.573,1.078c-0.23,0.344-0.497,0.663-0.792,0.953  c-0.293,0.288-0.614,0.547-0.955,0.775c-0.339,0.226-0.698,0.422-1.069,0.591c-0.373,0.169-0.758,0.311-1.151,0.429  c-0.403,0.121-0.814,0.218-1.228,0.294c-0.435,0.081-0.873,0.14-1.313,0.182c-0.551,0.053-1.104,0.08-1.657,0.089  c-0.516,0.008-1.033,0-1.549-0.02c-0.565-0.023-1.129-0.06-1.692-0.109c-0.613-0.053-1.226-0.12-1.837-0.196  c-0.66-0.083-1.318-0.177-1.975-0.28c-0.707-0.111-1.413-0.231-2.117-0.359c-0.752-0.137-1.502-0.282-2.251-0.433  c-1.628-0.329-3.251-0.686-4.868-1.062c-1.765-0.41-3.526-0.841-5.282-1.286c-1.7-0.431-3.398-0.875-5.092-1.328  c-1.938-0.518-3.873-1.048-5.805-1.586c-3.97-1.105-7.93-2.245-11.886-3.396c-3.113-0.906-6.224-1.819-9.335-2.73  c-2.038-0.597-4.076-1.193-6.115-1.784c-2.101-0.609-4.203-1.214-6.309-1.805c-1.51-0.424-3.022-0.842-4.537-1.248  c-1.298-0.347-2.599-0.685-3.905-1.004c-0.559-0.137-1.119-0.27-1.68-0.397c-0.376-0.085-0.753-0.168-1.13-0.247  c-0.459-0.096-0.918-0.187-1.379-0.27c-0.386-0.069-0.772-0.133-1.16-0.188c-0.314-0.045-0.63-0.083-0.946-0.113  c-0.203-0.019-0.407-0.034-0.611-0.042c-0.146-0.006-0.292-0.009-0.438-0.006c-0.027,0.224-0.054,0.448-0.084,0.671  c-0.05,0.37-0.112,0.738-0.195,1.102c-0.102,0.448-0.235,0.889-0.405,1.315c-0.197,0.494-0.442,0.969-0.733,1.414  c-0.323,0.494-0.702,0.951-1.123,1.366c-0.458,0.452-0.966,0.853-1.504,1.208c-0.289,0.191-0.586,0.368-0.89,0.533  c-0.322,0.175-0.651,0.337-0.985,0.488c-0.347,0.156-0.699,0.299-1.055,0.433c-0.344,0.129-0.692,0.25-1.041,0.365  c-0.356,0.117-0.715,0.229-1.074,0.339c-0.365,0.111-0.731,0.22-1.097,0.328c-0.823,0.243-1.646,0.484-2.463,0.744  c-0.735,0.233-1.465,0.481-2.184,0.759c-0.68,0.263-1.351,0.553-2,0.886c-0.586,0.301-1.154,0.637-1.684,1.028  c-0.464,0.342-0.899,0.726-1.276,1.162c-0.173,0.201-0.334,0.413-0.479,0.635c-0.124,0.191-0.236,0.389-0.336,0.594  c0.169,0.154,0.338,0.308,0.507,0.461c9.191,8.33,19.136,15.828,29.672,22.375c10.536,6.547,21.664,12.141,33.203,16.692  c5.798,2.287,11.701,4.311,17.682,6.063c6.019,1.764,12.118,3.253,18.272,4.462c7.098,1.394,14.27,2.415,21.476,3.057  c7.146,0.637,14.326,0.9,21.5,0.789c7.136-0.111,14.267-0.592,21.353-1.441c7.069-0.847,14.093-2.06,21.036-3.632  c6.943-1.572,13.805-3.504,20.549-5.784C300.274,420.603,302.116,419.951,303.948,419.273z" style="fill:none;stroke:red;stroke-width:0.0001px"/><path d="M95.269,71.315c-0.146,1.665-0.189,2.387-0.228,3.11c-0.077,1.412-0.14,2.826-0.186,4.239  c-0.04,1.241-0.066,2.482-0.073,3.723c-0.006,1.082,0.003,2.164,0.032,3.246c0.025,0.926,0.066,1.852,0.129,2.776  c0.053,0.775,0.121,1.549,0.213,2.32c0.076,0.635,0.167,1.269,0.284,1.898c0.093,0.502,0.203,1.002,0.338,1.494  c0.103,0.376,0.22,0.747,0.362,1.109c0.066,0.168,0.137,0.334,0.217,0.495c0.052,0.106,0.108,0.211,0.168,0.312  c0.047,0.08,0.098,0.159,0.152,0.235c0.07,0.099,0.147,0.194,0.236,0.277c0.046,0.043,0.094,0.083,0.148,0.114  c0.041,0.024,0.084,0.043,0.129,0.058c0.029,0.01,0.059,0.018,0.09,0.024c0.04,0.009,0.08,0.016,0.121,0.021  c0.117,0.016,0.235,0.021,0.353,0.02c0.078-0.001,0.156-0.003,0.233-0.008c0.188-0.011,0.374-0.032,0.56-0.058  c0.232-0.032,0.463-0.069,0.693-0.109c0.328-0.056,0.655-0.116,0.982-0.176c0.86-0.159,1.718-0.321,2.581-0.463  c0.754-0.124,1.511-0.233,2.272-0.302c0.754-0.068,1.512-0.098,2.266-0.048c0.397,0.026,0.792,0.074,1.182,0.152  c0.415,0.082,0.824,0.198,1.218,0.354c0.21,0.083,0.416,0.177,0.616,0.283c0.208,0.11,0.409,0.233,0.601,0.368  c0.2,0.14,0.39,0.293,0.569,0.459c0.184,0.17,0.355,0.354,0.513,0.548c0.16,0.197,0.306,0.404,0.436,0.621  c0.13,0.216,0.244,0.442,0.344,0.673c0.098,0.229,0.182,0.465,0.251,0.705c0.069,0.238,0.123,0.48,0.165,0.724  c0.082,0.485,0.113,0.978,0.106,1.47c-0.008,0.507-0.056,1.013-0.132,1.514c-0.082,0.541-0.197,1.076-0.332,1.607  c-0.121,0.472-0.259,0.939-0.409,1.403c-0.207,0.639-0.437,1.27-0.682,1.895c-0.003,0.007-0.005,0.013-0.008,0.02  c36.478-19.079,46.007-24.636,50.624-29.457c8.006-8.361,1.234-14.509-4.501-18.839c-5.735-4.329-10.432-6.84,0.861-5.057  c11.136,1.758,37.82,7.691,61.049,13.604c-0.4-16.32-0.801-32.634-1.201-48.943c-6.124,0.407-12.23,1.087-18.294,2.037  c-6.029,0.945-12.016,2.158-17.937,3.633c-11.79,2.938-23.319,6.92-34.409,11.883c-11.094,4.965-21.748,10.912-31.797,17.749  C108.867,60.006,101.879,65.448,95.269,71.315z" style="fill:none;stroke:red;stroke-width:0.0001px"/><path d="M95.269,71.315c-0.146,1.665-0.189,2.387-0.228,3.11c-0.077,1.412-0.14,2.826-0.186,4.239  c-0.04,1.241-0.066,2.482-0.073,3.723c-0.006,1.082,0.003,2.164,0.032,3.246c0.025,0.926,0.066,1.852,0.129,2.776  c0.053,0.775,0.121,1.549,0.213,2.32c0.076,0.635,0.167,1.269,0.284,1.898c0.093,0.502,0.203,1.002,0.338,1.494  c0.103,0.376,0.22,0.747,0.362,1.109c0.066,0.168,0.137,0.334,0.217,0.495c0.052,0.106,0.108,0.211,0.168,0.312  c0.047,0.08,0.098,0.159,0.152,0.235c0.07,0.099,0.147,0.194,0.236,0.277c0.046,0.043,0.094,0.083,0.148,0.114  c0.041,0.024,0.084,0.043,0.129,0.058c0.029,0.01,0.059,0.018,0.09,0.024c0.04,0.009,0.08,0.016,0.121,0.021  c0.117,0.016,0.235,0.021,0.353,0.02c0.078-0.001,0.156-0.003,0.233-0.008c0.188-0.011,0.374-0.032,0.56-0.058  c0.232-0.032,0.463-0.069,0.693-0.109c0.328-0.056,0.655-0.116,0.982-0.176c0.86-0.159,1.718-0.321,2.581-0.463  c0.754-0.124,1.511-0.233,2.272-0.302c0.754-0.068,1.512-0.098,2.266-0.048c0.397,0.026,0.792,0.074,1.182,0.152  c0.415,0.082,0.824,0.198,1.218,0.354c0.21,0.083,0.416,0.177,0.616,0.283c0.208,0.11,0.409,0.233,0.601,0.368  c0.2,0.14,0.39,0.293,0.569,0.459c0.184,0.17,0.355,0.354,0.513,0.548c0.16,0.197,0.306,0.404,0.436,0.621  c0.13,0.216,0.244,0.442,0.344,0.673c0.098,0.229,0.182,0.465,0.251,0.705c0.069,0.238,0.123,0.48,0.165,0.724  c0.082,0.485,0.113,0.978,0.106,1.47c-0.008,0.507-0.056,1.013-0.132,1.514c-0.082,0.541-0.197,1.076-0.332,1.607  c-0.121,0.472-0.259,0.939-0.409,1.403c-0.207,0.639-0.437,1.27-0.682,1.895c-0.003,0.007-0.005,0.013-0.008,0.02  c36.478-19.079,46.007-24.636,50.624-29.457c8.006-8.361,1.234-14.509-4.501-18.839c-5.735-4.329-10.432-6.84,0.861-5.057  c11.136,1.758,37.82,7.691,61.049,13.604c-0.4-16.32-0.801-32.634-1.201-48.943c-6.124,0.407-12.23,1.087-18.294,2.037  c-6.029,0.945-12.016,2.158-17.937,3.633c-11.79,2.938-23.319,6.92-34.409,11.883c-11.094,4.965-21.748,10.912-31.797,17.749  C108.867,60.006,101.879,65.448,95.269,71.315z" style="fill:none;stroke:red;stroke-width:0.0001px"/><path d="M95.269,71.315c-0.146,1.665-0.189,2.387-0.228,3.11c-0.077,1.412-0.14,2.826-0.186,4.239  c-0.04,1.241-0.066,2.482-0.073,3.723c-0.006,1.082,0.003,2.164,0.032,3.246c0.025,0.926,0.066,1.852,0.129,2.776  c0.053,0.775,0.121,1.549,0.213,2.32c0.076,0.635,0.167,1.269,0.284,1.898c0.093,0.502,0.203,1.002,0.338,1.494  c0.103,0.376,0.22,0.747,0.362,1.109c0.066,0.168,0.137,0.334,0.217,0.495c0.052,0.106,0.108,0.211,0.168,0.312  c0.047,0.08,0.098,0.159,0.152,0.235c0.07,0.099,0.147,0.194,0.236,0.277c0.046,0.043,0.094,0.083,0.148,0.114  c0.041,0.024,0.084,0.043,0.129,0.058c0.029,0.01,0.059,0.018,0.09,0.024c0.04,0.009,0.08,0.016,0.121,0.021  c0.117,0.016,0.235,0.021,0.353,0.02c0.078-0.001,0.156-0.003,0.233-0.008c0.188-0.011,0.374-0.032,0.56-0.058  c0.232-0.032,0.463-0.069,0.693-0.109c0.328-0.056,0.655-0.116,0.982-0.176c0.86-0.159,1.718-0.321,2.581-0.463  c0.754-0.124,1.511-0.233,2.272-0.302c0.754-0.068,1.512-0.098,2.266-0.048c0.397,0.026,0.792,0.074,1.182,0.152  c0.415,0.082,0.824,0.198,1.218,0.354c0.21,0.083,0.416,0.177,0.616,0.283c0.208,0.11,0.409,0.233,0.601,0.368  c0.2,0.14,0.39,0.293,0.569,0.459c0.184,0.17,0.355,0.354,0.513,0.548c0.16,0.197,0.306,0.404,0.436,0.621  c0.13,0.216,0.244,0.442,0.344,0.673c0.098,0.229,0.182,0.465,0.251,0.705c0.069,0.238,0.123,0.48,0.165,0.724  c0.082,0.485,0.113,0.978,0.106,1.47c-0.008,0.507-0.056,1.013-0.132,1.514c-0.082,0.541-0.197,1.076-0.332,1.607  c-0.121,0.472-0.259,0.939-0.409,1.403c-0.207,0.639-0.437,1.27-0.682,1.895c-0.003,0.007-0.005,0.013-0.008,0.02  c36.478-19.079,46.007-24.636,50.624-29.457c8.006-8.361,1.234-14.509-4.501-18.839c-5.735-4.329-10.432-6.84,0.861-5.057  c11.136,1.758,37.82,7.691,61.049,13.604c-0.4-16.32-0.801-32.634-1.201-48.943c-6.124,0.407-12.23,1.087-18.294,2.037  c-6.029,0.945-12.016,2.158-17.937,3.633c-11.79,2.938-23.319,6.92-34.409,11.883c-11.094,4.965-21.748,10.912-31.797,17.749  C108.867,60.006,101.879,65.448,95.269,71.315z" style="fill:none;stroke:red;stroke-width:0.0001px"/><path d="M235.898,19.309c0.439,17.965,0.877,35.936,1.317,53.912c16.473,4.357,31.098,8.184,44.97,9.969  c18.312,2.356,35.311,1.154,47.097-1.335c11.786-2.489,18.359-6.263,6.604-15.212c-8.693-6.618-27.408-16.065-84.109-46.445  C246.497,19.698,241.199,19.402,235.898,19.309z" style="fill:none;stroke:red;stroke-width:0.0001px"/><path d="M235.898,19.309c0.439,17.965,0.877,35.936,1.317,53.912c16.473,4.357,31.098,8.184,44.97,9.969  c18.312,2.356,35.311,1.154,47.097-1.335c11.786-2.489,18.359-6.263,6.604-15.212c-8.693-6.618-27.408-16.065-84.109-46.445  C246.497,19.698,241.199,19.402,235.898,19.309z" style="fill:none;stroke:red;stroke-width:0.0001px"/><path d="M235.898,19.309c0.439,17.965,0.877,35.936,1.317,53.912c16.473,4.357,31.098,8.184,44.97,9.969  c18.312,2.356,35.311,1.154,47.097-1.335c11.786-2.489,18.359-6.263,6.604-15.212c-8.693-6.618-27.408-16.065-84.109-46.445  C246.497,19.698,241.199,19.402,235.898,19.309z" style="fill:none;stroke:red;stroke-width:0.0001px"/></g></svg>