<svg id="Layer_1" style="enable-background:new 0 0 158.7 158.7;" version="1.1" viewBox="0 0 158.7 158.7" x="0px" xml:space="preserve" xmlns="http://www.w3.org/2000/svg" xmlns:xlink="http://www.w3.org/1999/xlink" y="0px"><path d="M112.5,74.9c-2.9-3.8-6-7.4-9.4-10.8c-3.7,5-7.9,9.7-12.5,13.9C98,77.8,105.3,76.8,112.5,74.9z" style="fill:#FFC054;fill-opacity:0.68221617;"/><path d="M82.6,80.8c-8.6-0.6-17-2.3-25.1-5.2C57,81.8,57.2,88,58.1,94.1C66.9,90.9,75.2,86.4,82.6,80.8z" style="fill:#FFC054;fill-opacity:0.68221617;"/><path d="M154.7,54.3c4.8,14.3,5.4,29.7,1.7,44.3c-3.6,14.6-11.4,27.9-22.3,38.3c1.2-21.4-4.7-42.6-16.7-60.3  C131.3,72.1,144.1,64.5,154.7,54.3z" style="fill:#FFC054;fill-opacity:0.68221617;"/><path d="M103.6,155c5.6-1.8,11-4.2,16.1-7.2c-1.2-11.7-8.3-22-18.9-27.3c-10.5-5.3-23-4.8-33.1,1.2  C75.9,136.2,88.5,147.9,103.6,155z" style="fill:#FF9A30;fill-opacity:0.68221617;"/><path d="M2.5,99.2c17.5,4.7,36,4.3,53.3-1.1c1.5,7.9,4.2,15.5,8,22.7c-10.2,7.2-16.2,19-15.9,31.5  C25.4,142.5,8.6,122.9,2.5,99.2z" style="fill:#0D65FF;fill-opacity:0.68221617;"/><path d="M12.5,36.6C22.2,21.4,36.8,10,53.8,4.2s35.5-5.6,52.4,0.4c-16.5,6.7-30.4,18.6-39.7,33.7  C49,32.7,30.3,32.1,12.5,36.6z" style="fill:#FF9AC3;fill-opacity:0.68221617;"/><path d="M114.3,77.5c-8.8,2.5-18,3.6-27.2,3.5c-8.5,7-18.2,12.4-28.5,16.1c1.5,7.7,4,15.1,7.6,22  c10.8-6.4,24-7,35.3-1.5c11.3,5.4,19.1,16.1,20.9,28.5c3-1.9,5.8-4,8.4-6.3C132.8,117.7,126.9,95.7,114.3,77.5z" style="fill:#FF9AC3;fill-opacity:0.68221617;"/><path d="M118.5,10.3c-2.7-1.5-5.4-2.9-8.3-4.1c-17,6.2-31.4,17.8-40.9,33.1c12.3,4.4,23.7,11.3,33.3,20.2  C112.6,45,118.1,27.9,118.5,10.3z" style="fill:#FF5BC7;fill-opacity:0.68221617;"/><path d="M57.8,72.5c9.1,3.3,18.7,5.1,28.3,5.4c5.6-4.7,10.6-10,14.8-15.9c-9.5-8.9-20.8-15.7-33.1-20  C62.5,51.4,59,61.8,57.8,72.5z" style="fill:#D33E8C;fill-opacity:0.68221617;"/><path d="M153.6,51.2c-10.6,10.6-23.7,18.5-38,22.8c-3.2-4.4-6.7-8.5-10.7-12.4C115,47,120.7,29.8,121.5,12.1  C136.1,21.3,147.4,35,153.6,51.2z" style="fill:#D33E8C;fill-opacity:0.68221617;"/><path d="M50.9,153.5c15.5,5.9,32.4,6.9,48.5,2.7c-14.3-7.4-26.2-18.8-34.2-32.8  C55.6,130.3,50.2,141.6,50.9,153.5z" style="fill:#AAD189;fill-opacity:0.68221617;"/><path d="M14.1,39.2c10.2,14.4,24.3,25.6,40.8,32.2c1.4-10.7,4.8-21,10.1-30.4C48.5,35.8,30.9,35.2,14.1,39.2z  " style="fill:#00C868;fill-opacity:0.68221617;"/><path d="M11.1,40c-0.2,0.1-0.5,0.1-0.7,0.2C0.8,57.1-2.3,76.9,1.7,95.9c17.5,5.1,36.2,4.8,53.5-0.8  c-1.1-6.8-1.3-13.7-0.7-20.5C36.9,67.6,21.8,55.6,11.1,40z" style="fill:#F1FF84;fill-opacity:0.68221617;"/></svg>