<svg id="Layer_1" style="enable-background:new 0 0 200 200;" version="1.1" viewBox="0 0 200 200" x="0px" xml:space="preserve" xmlns="http://www.w3.org/2000/svg" xmlns:xlink="http://www.w3.org/1999/xlink" y="0px"><path d="M133.107,95.516c-2.855-3.839-5.956-7.411-9.354-10.778c-3.706,5.024-7.902,9.667-12.525,13.862   C118.618,98.46,125.965,97.424,133.107,95.516z" style="fill:#FF7C00;fill-opacity:1.0;"/><path d="M124.23,175.581c5.602-1.796,10.986-4.209,16.055-7.195c-1.22-11.712-8.329-21.994-18.856-27.271   c-10.527-5.277-23.019-4.821-33.133,1.21C96.533,156.871,109.092,168.493,124.23,175.581z" style="fill:#FFAE22;fill-opacity:1.0;"/><path d="M103.233,101.384c-8.577-0.57-17.037-2.309-25.144-5.168c-0.493,6.169-0.272,12.375,0.656,18.494   C87.542,111.546,95.8,107.052,103.233,101.384z" style="fill:#FFAE22;fill-opacity:1.0;"/><path d="M175.295,74.894c4.77,14.306,5.366,29.675,1.718,44.307c-3.648,14.633-11.39,27.923-22.318,38.315   c1.171-21.395-4.709-42.583-16.739-60.315C151.968,92.773,164.754,85.134,175.295,74.894z" style="fill:#FFAE22;fill-opacity:1.0;"/><path d="M23.137,119.793c17.498,4.742,35.993,4.343,53.27-1.149c1.545,7.907,4.225,15.549,7.958,22.689   c-10.214,7.203-16.165,19.023-15.869,31.518C45.994,163.119,29.251,143.535,23.137,119.793z" style="fill:#279194;fill-opacity:1.0;"/><path d="M33.157,57.202c9.691-15.136,24.233-26.535,41.245-32.331c17.013-5.796,35.489-5.647,52.406,0.424   c-16.484,6.732-30.386,18.555-39.677,33.744C69.668,53.378,50.965,52.742,33.157,57.202z" style="fill:#FF56CA;fill-opacity:1.0;"/><path d="M139.178,30.973c-2.679-1.52-5.423-2.874-8.259-4.073c-16.957,6.151-31.359,17.816-40.898,33.126   c12.339,4.429,23.662,11.292,33.298,20.18C133.236,65.665,138.743,48.569,139.178,30.973z" style="fill:#A36F90;fill-opacity:1.0;"/><path d="M78.392,93.163c9.102,3.292,18.67,5.119,28.344,5.411c5.567-4.695,10.552-10.038,14.85-15.916   c-9.548-8.88-20.823-15.697-33.122-20.027C83.089,72.028,79.664,82.412,78.392,93.163z" style="fill:#F05464;fill-opacity:1.0;"/><path d="M71.528,174.088c15.474,5.947,32.421,6.899,48.464,2.723c-14.33-7.417-26.205-18.826-34.19-32.848   C76.187,150.888,70.798,162.261,71.528,174.088z" style="fill:#72D056;fill-opacity:1.0;"/><path d="M34.763,59.873c10.19,14.448,24.349,25.632,40.764,32.2c1.361-10.688,4.778-21.012,10.061-30.403   C69.125,56.459,51.553,55.838,34.763,59.873z" style="fill:#72D056;fill-opacity:1.0;"/><path d="M134.959,98.095c-8.841,2.476-17.996,3.649-27.176,3.482c-8.497,6.993-18.152,12.446-28.528,16.112   c1.46,7.67,4.027,15.088,7.621,22.02c10.772-6.376,24.016-6.953,35.303-1.539c11.286,5.415,19.124,16.106,20.892,28.498   c2.958-1.911,5.758-3.995,8.437-6.281C153.426,138.328,147.572,116.293,134.959,98.095z" style="fill:#FF69C0;fill-opacity:1.0;"/><path d="M31.689,60.666c-0.249,0.069-0.497,0.139-0.746,0.209c-9.556,16.866-12.608,36.646-8.583,55.608   c17.521,5.082,36.162,4.804,53.524-0.798c-1.075-6.794-1.307-13.694-0.691-20.545C57.566,88.267,42.409,76.257,31.689,60.666z" style="fill:#EEFF60;fill-opacity:1.0;"/><path d="M174.192,71.801c-10.611,10.62-23.673,18.465-38.033,22.842c-3.218-4.432-6.746-8.523-10.656-12.359   c10.089-14.631,15.841-31.813,16.594-49.57C156.772,41.895,168.042,55.621,174.192,71.801z" style="fill:#D26484;fill-opacity:1.0;"/></svg>