<svg id="Layer_1" style="enable-background:new 0 0 200 200;" version="1.1" viewBox="0 0 200 200" x="0px" xml:space="preserve" xmlns="http://www.w3.org/2000/svg" xmlns:xlink="http://www.w3.org/1999/xlink" y="0px"><path d="M78.519,176.407c27.201,7.647,56.417,0.257,76.71-19.405c-11.448-10.2-18.303-14.169-27.428-15.985   C112.313,137.935,90.288,141.052,78.519,176.407z" style="fill:#CE6977;fill-opacity:0.0;"/><path d="M148.678,37.309c-12.347-9.588-27.251-15.316-42.841-16.465c-15.591-1.15-31.174,2.33-44.794,10.003   c-13.62,7.673-24.671,19.197-31.766,33.127c-7.096,13.93-9.92,29.645-8.118,45.174c0.539-1.646,1.09-3.289,1.655-4.927   c0.66-1.915,1.338-3.823,2.037-5.724c0.65-1.768,1.319-3.529,2.008-5.282c0.641-1.628,1.3-3.249,1.981-4.86   c1.216-2.88,2.502-5.731,3.88-8.537c0.614-1.249,1.246-2.489,1.9-3.717c0.605-1.136,1.229-2.262,1.875-3.376   c0.66-1.14,1.344-2.266,2.053-3.376c1.13-1.766,2.326-3.49,3.61-5.148c1.108-1.431,2.281-2.813,3.532-4.121   c1.085-1.135,2.229-2.214,3.438-3.216c1.057-0.876,2.162-1.694,3.315-2.439c1.021-0.661,2.078-1.265,3.165-1.811   c0.97-0.488,1.964-0.928,2.972-1.332c0.461-0.185,0.926-0.362,1.392-0.534c0.712-0.263,1.428-0.515,2.148-0.755   c1.612-0.538,3.243-1.019,4.896-1.414c1.486-0.355,2.989-0.639,4.504-0.831c1.403-0.177,2.816-0.274,4.23-0.276   c0.678-0.001,1.356,0.019,2.032,0.061c0.664,0.041,1.327,0.103,1.988,0.185c1.302,0.162,2.593,0.402,3.869,0.705   c1.288,0.306,2.561,0.678,3.819,1.091c0.648,0.213,1.292,0.437,1.933,0.67c0.657,0.239,1.311,0.487,1.963,0.74   c1.409,0.546,2.809,1.112,4.225,1.638c0.689,0.256,1.382,0.503,2.08,0.736c0.71,0.237,1.424,0.458,2.145,0.661   c0.743,0.209,1.491,0.397,2.245,0.561c0.79,0.171,1.586,0.316,2.386,0.432c0.841,0.122,1.687,0.211,2.535,0.268   c0.902,0.06,1.807,0.083,2.711,0.07c0.973-0.014,1.945-0.071,2.913-0.166c1.052-0.103,2.1-0.252,3.141-0.44   c1.141-0.206,2.273-0.46,3.394-0.755c1.227-0.322,2.441-0.693,3.641-1.104c1.327-0.454,2.637-0.957,3.93-1.499   c0.703-0.295,1.4-0.601,2.093-0.917c0.729-0.333,1.453-0.677,2.172-1.033c1.539-0.761,3.054-1.572,4.539-2.433   c1.618-0.938,3.202-1.936,4.747-2.99c1.678-1.145,3.311-2.358,4.895-3.631C146.352,39.352,147.53,38.347,148.678,37.309z" style="fill:#F76685;fill-opacity:0.0;"/><path d="M174.64,73.009c-2.439-6.744-5.78-13.126-9.933-18.973c-1.777,1.783-3.652,3.502-5.647,5.162   c-3.706,3.083-7.67,5.781-12.055,8.144c-0.17,0.091-0.34,0.182-0.511,0.273c-3.462,1.832-7.062,3.364-10.881,4.656   c-2.375,0.803-4.783,1.498-7.271,2.048c-0.702,0.155-1.409,0.299-2.124,0.431c-4.381,0.809-8.806,1.094-13.413,0.573   c-0.428-0.048-0.858-0.104-1.289-0.166c-3.761-0.544-7.315-1.631-10.898-2.916c-2.897-1.039-5.768-2.129-8.768-2.868   c-4.713-1.161-8.93-1.239-13.294-0.467c-1.518,0.269-3.053,0.639-4.636,1.101c-1.881,0.549-3.723,1.178-5.528,1.928   c-2.267,0.941-4.36,2.091-6.343,3.533c-2.761,2.007-5.082,4.352-7.236,6.974c-2.168,2.64-4.067,5.43-5.811,8.344   c-0.816,1.364-1.597,2.754-2.355,4.166c-6.486,12.094-11.907,27.835-16.25,43.191c2.365,4.316,5.072,8.327,8.189,12.135   c0.998-3.623,2.057-7.229,3.193-10.812c0.666-2.101,1.359-4.194,2.082-6.276c0.717-2.064,1.464-4.117,2.247-6.157   c0.769-2.005,1.573-3.996,2.418-5.97c0.823-1.923,1.685-3.83,2.595-5.714c0.875-1.812,1.794-3.602,2.766-5.363   c0.715-1.294,1.458-2.572,2.233-3.831c0.895-1.453,1.831-2.881,2.821-4.271c0.683-0.96,1.391-1.902,2.126-2.822   c0.74-0.927,1.506-1.833,2.302-2.711c0.797-0.879,1.624-1.731,2.487-2.545c0.867-0.819,1.771-1.599,2.71-2.334   c0.475-0.371,0.959-0.731,1.452-1.078c0.375-0.263,0.755-0.519,1.141-0.767c0.741-0.476,1.502-0.92,2.279-1.334   c0.776-0.413,1.568-0.795,2.374-1.147c0.368-0.161,0.74-0.315,1.113-0.465c0.32-0.128,0.641-0.253,0.964-0.374   c1.284-0.481,2.587-0.91,3.904-1.291c1.103-0.319,2.215-0.604,3.338-0.841c1.387-0.294,2.789-0.515,4.2-0.65   c0.807-0.077,1.616-0.126,2.426-0.146c0.818-0.02,1.637-0.011,2.454,0.029c1.686,0.081,3.365,0.288,5.023,0.606   c1.011,0.193,2.015,0.428,3.01,0.69c1.04,0.274,2.072,0.58,3.099,0.902c1.074,0.338,2.142,0.695,3.212,1.047   c1.178,0.388,2.358,0.772,3.546,1.13c1.156,0.349,2.319,0.673,3.491,0.964c0.577,0.143,1.156,0.278,1.738,0.401   c0.32,0.068,0.641,0.132,0.962,0.193c0.267,0.051,0.534,0.1,0.802,0.146c0.772,0.135,1.547,0.252,2.325,0.352   c1.375,0.176,2.757,0.295,4.142,0.36c1.356,0.064,2.715,0.075,4.072,0.041c0.522-0.013,1.044-0.034,1.565-0.059   c0.442-0.022,0.883-0.047,1.324-0.077c1.519-0.102,3.035-0.254,4.545-0.45c0.854-0.111,1.706-0.236,2.556-0.373   c1.164-0.187,2.324-0.397,3.479-0.634c1.122-0.23,2.239-0.487,3.349-0.771c0.549-0.141,1.096-0.288,1.642-0.443   c0.06-0.017,0.121-0.035,0.181-0.052c0.108-0.031,0.215-0.062,0.323-0.093c0.991-0.289,1.975-0.599,2.953-0.929   c1.301-0.44,2.59-0.918,3.862-1.439c1.238-0.507,2.46-1.053,3.664-1.637c0.746-0.362,1.484-0.737,2.217-1.125   c0.733-0.387,1.459-0.786,2.179-1.197c1.392-0.797,2.757-1.642,4.09-2.533c0.53-0.354,1.055-0.716,1.575-1.085   c0.52-0.369,1.035-0.745,1.544-1.128c0.023-0.017,0.046-0.034,0.069-0.052c0.023-0.017,0.046-0.034,0.069-0.052   c0.551-0.417,1.097-0.841,1.636-1.274c0.539-0.433,1.072-0.873,1.599-1.32C174.247,73.348,174.444,73.179,174.64,73.009z" style="fill:#EEFF60;fill-opacity:0.0;"/><path d="M155.156,132.796c3.109,1.242,6.216,2.493,9.34,3.699c1.653,0.638,3.305,1.281,4.958,1.921   c4.913-8.883,8.077-18.625,9.319-28.7c-1.74,0.463-3.538,0.889-5.4,1.266c-0.031,0.006-0.062,0.013-0.094,0.019   c-3.517,0.708-7.233,1.218-11.31,1.579c-3.17,0.281-6.48,0.382-10.024,0.337c-0.137-0.002-0.275-0.004-0.413-0.006   c-2.79-0.043-5.66-0.219-8.673-0.476c-1.874-0.16-3.778-0.359-5.742-0.61c-0.554-0.071-1.111-0.145-1.673-0.222   c-3.445-0.475-6.953-1.117-10.666-2.016c-0.345-0.083-0.692-0.169-1.041-0.257c-3.043-0.766-6.074-1.702-9.16-2.628   c-2.495-0.748-5.002-1.449-7.574-1.898c-4.039-0.705-7.828-0.679-11.582-0.019c-1.305,0.229-2.607,0.533-3.919,0.905   c-1.559,0.442-3.081,0.955-4.567,1.559c-1.866,0.758-3.618,1.669-5.287,2.771c-2.325,1.534-4.377,3.325-6.298,5.335   c-1.933,2.024-3.682,4.205-5.306,6.522c-0.76,1.085-1.49,2.197-2.196,3.332c-6.701,10.78-11.638,24.926-15.227,38.468   c3.127,2.326,6.38,4.395,9.813,6.239c0.009-0.032,0.018-0.063,0.027-0.095c0.612-2.169,1.266-4.326,1.968-6.467   c0.784-2.389,1.628-4.759,2.544-7.101c0.909-2.323,1.889-4.619,2.956-6.874c1.047-2.214,2.177-4.389,3.409-6.505   c0.604-1.038,1.233-2.062,1.89-3.069c0.362-0.555,0.732-1.105,1.111-1.65c0.936-1.345,1.922-2.655,2.964-3.919   c0.896-1.087,1.834-2.14,2.816-3.15c0.49-0.505,0.99-0.998,1.502-1.481c0.509-0.48,1.03-0.948,1.562-1.403   c1.068-0.912,2.182-1.769,3.343-2.559c0.548-0.373,1.106-0.731,1.674-1.072c0.44-0.264,0.885-0.518,1.337-0.762   c0.903-0.488,1.828-0.934,2.771-1.338c0.429-0.184,0.862-0.36,1.298-0.527c0.38-0.146,0.763-0.287,1.147-0.422   c0.771-0.27,1.549-0.518,2.334-0.744c0.684-0.197,1.373-0.377,2.066-0.539c0.673-0.157,1.349-0.298,2.03-0.42   c1.889-0.338,3.804-0.53,5.722-0.576c2.058-0.049,4.119,0.07,6.16,0.336c1.319,0.172,2.63,0.406,3.931,0.681   c0.642,0.136,1.281,0.282,1.918,0.437c0.668,0.162,1.334,0.335,1.998,0.514c1.514,0.407,3.019,0.847,4.517,1.309   c0.732,0.226,1.463,0.457,2.193,0.691c0.423,0.136,0.844,0.273,1.266,0.411c0.165,0.054,0.329,0.108,0.494,0.162   c0.082,0.027,0.163,0.054,0.245,0.081c0.609,0.203,1.217,0.408,1.825,0.616c1.664,0.57,3.32,1.16,4.972,1.764   c0.8,0.293,1.6,0.589,2.398,0.888c0.208,0.078,0.416,0.156,0.624,0.234c0.258,0.098,0.516,0.195,0.774,0.294   c0.605,0.231,1.209,0.463,1.813,0.697c0.878,0.34,1.756,0.683,2.633,1.028c0.509,0.2,1.018,0.401,1.526,0.603   c0.682,0.271,1.364,0.544,2.045,0.818C151.877,131.472,153.514,132.14,155.156,132.796z" style="fill:#7ECC5C;fill-opacity:0.0;"/><path d="M162.917,51.615c-3.504-4.556-7.492-8.719-11.895-12.414c-6.941,6.341-13.799,10.502-19.843,13.378   c-21.383,10.175-32.591,4.277-41.635,0.836c-9.045-3.441-15.927-4.424-28.068-0.049c-9.872,3.557-23.22,10.656-39.279,62.323   c1.296,6.427,3.383,12.668,6.214,18.582c0.981-3.365,2.006-6.717,3.088-10.05c0.875-2.696,1.786-5.379,2.743-8.047   c0.938-2.615,1.918-5.215,2.952-7.793c1-2.494,2.05-4.968,3.166-7.413c1.064-2.334,2.188-4.641,3.388-6.908   c0.393-0.742,0.793-1.479,1.203-2.212c0.901-1.614,1.842-3.206,2.839-4.763c0.807-1.261,1.65-2.498,2.533-3.707   c0.798-1.092,1.629-2.16,2.496-3.197c0.971-1.162,1.989-2.287,3.065-3.353c1.095-1.086,2.252-2.111,3.469-3.058   c0.311-0.242,0.626-0.479,0.945-0.711c0.462-0.335,0.932-0.659,1.41-0.97c0.943-0.613,1.918-1.176,2.918-1.69   c0.497-0.256,1.001-0.499,1.51-0.73c0.255-0.116,0.512-0.229,0.769-0.339c0.231-0.098,0.462-0.194,0.695-0.289   c0.812-0.33,1.633-0.638,2.461-0.927c0.822-0.287,1.65-0.554,2.484-0.805c0.381-0.115,0.763-0.226,1.146-0.333   c0.349-0.098,0.699-0.192,1.049-0.282c0.694-0.179,1.393-0.342,2.095-0.488c0.825-0.171,1.655-0.318,2.489-0.437   c1.004-0.142,2.013-0.243,3.025-0.297c1.013-0.055,2.028-0.064,3.041-0.025c1.034,0.039,2.065,0.128,3.091,0.262   c1.061,0.139,2.116,0.327,3.161,0.558c0.796,0.176,1.585,0.378,2.369,0.599c0.662,0.187,1.32,0.387,1.975,0.598   c1.276,0.41,2.54,0.858,3.801,1.313c0.785,0.284,1.57,0.57,2.357,0.848c0.73,0.258,1.463,0.508,2.2,0.746   c1.435,0.464,2.885,0.882,4.353,1.224c0.723,0.168,1.451,0.319,2.182,0.447c0.441,0.077,0.883,0.146,1.326,0.207   c0.456,0.063,0.914,0.118,1.372,0.164c0.899,0.091,1.801,0.15,2.704,0.178c0.887,0.027,1.774,0.024,2.66-0.007   c1.768-0.063,3.531-0.241,5.279-0.512c0.905-0.141,1.806-0.306,2.702-0.492c0.348-0.072,0.695-0.147,1.041-0.225   c1.002-0.226,1.998-0.479,2.988-0.755c0.988-0.276,1.969-0.574,2.944-0.893c0.629-0.205,1.256-0.419,1.879-0.641   c0.761-0.271,1.518-0.553,2.271-0.848c1.49-0.584,2.96-1.218,4.406-1.904c0.721-0.342,1.437-0.697,2.146-1.064   c0.196-0.101,0.391-0.204,0.585-0.307c0.171-0.09,0.341-0.182,0.511-0.273c1.754-0.949,3.469-1.971,5.136-3.066   c1.645-1.081,3.244-2.233,4.792-3.45c0.847-0.667,1.679-1.353,2.497-2.055c0.95-0.816,1.882-1.655,2.792-2.516   C161.589,52.939,162.259,52.283,162.917,51.615z" style="fill:#55A7A4;fill-opacity:0.0;"/><path d="M179.1,106.541c0.851-10.292-0.314-20.651-3.431-30.497c-1.016,0.854-2.06,1.687-3.135,2.497   c-0.032,0.024-0.064,0.048-0.096,0.072c-3.602,2.705-7.501,5.112-11.923,7.276c-3.438,1.682-7.075,3.081-11.04,4.241   c-0.154,0.045-0.308,0.089-0.462,0.134c-3.126,0.894-6.361,1.573-9.777,2.09c-2.125,0.322-4.281,0.569-6.506,0.719   c-0.628,0.042-1.26,0.077-1.899,0.104c-3.913,0.167-7.879-0.012-12.039-0.721c-0.387-0.066-0.775-0.136-1.165-0.212   c-3.402-0.655-6.695-1.666-10.029-2.772c-2.696-0.894-5.385-1.789-8.171-2.383c-4.376-0.933-8.379-0.959-12.438-0.243   c-1.412,0.249-2.83,0.586-4.277,1.003c-1.72,0.496-3.402,1.067-5.048,1.743c-2.067,0.85-3.989,1.88-5.815,3.152   c-2.543,1.771-4.73,3.839-6.767,6.155c-2.051,2.332-3.875,4.818-5.558,7.433c-0.788,1.224-1.544,2.475-2.275,3.749   c-6.885,11.989-12.262,27.835-16.321,42.927c2.826,3.149,5.855,6.028,9.144,8.69c0.908-3.358,1.884-6.698,2.946-10.01   c0.585-1.824,1.195-3.64,1.835-5.445c1.262-3.559,2.638-7.078,4.168-10.531c0.744-1.679,1.524-3.341,2.348-4.982   c0.804-1.601,1.649-3.181,2.543-4.734c0.437-0.76,0.886-1.513,1.348-2.258c0.143-0.231,0.287-0.461,0.432-0.69   c0.261-0.411,0.525-0.82,0.793-1.227c0.732-1.109,1.493-2.199,2.288-3.263c1.246-1.67,2.575-3.278,3.995-4.802   c0.709-0.761,1.441-1.501,2.2-2.213c0.765-0.718,1.556-1.409,2.376-2.064c0.83-0.665,1.689-1.295,2.576-1.883   c0.651-0.432,1.317-0.842,1.996-1.226c1.324-0.748,2.703-1.398,4.114-1.965c1.125-0.452,2.27-0.851,3.427-1.211   c0.551-0.171,1.104-0.334,1.661-0.486c0.491-0.134,0.984-0.259,1.478-0.376c0.492-0.116,0.987-0.224,1.483-0.323   c0.592-0.117,1.187-0.221,1.785-0.31c1.447-0.215,2.907-0.344,4.37-0.381c1.492-0.037,2.986,0.021,4.471,0.168   c0.761,0.076,1.52,0.175,2.275,0.297c0.919,0.147,1.833,0.327,2.742,0.531c0.937,0.21,1.867,0.445,2.793,0.697   c0.907,0.247,1.81,0.511,2.711,0.779c1.242,0.37,2.481,0.748,3.724,1.117c1.057,0.314,2.116,0.622,3.178,0.917   c0.525,0.146,1.051,0.288,1.578,0.426c0.284,0.074,0.567,0.146,0.851,0.218c0.119,0.03,0.238,0.06,0.357,0.089   c0.704,0.174,1.411,0.342,2.118,0.502c1.225,0.277,2.454,0.531,3.688,0.763c1.194,0.224,2.392,0.428,3.593,0.61   c0.525,0.08,1.051,0.156,1.577,0.228c0.097,0.013,0.194,0.027,0.291,0.04c0.194,0.026,0.388,0.052,0.581,0.078   c0.193,0.025,0.386,0.051,0.579,0.076c0.542,0.07,1.084,0.137,1.627,0.2c1.311,0.153,2.624,0.283,3.939,0.399   c1.98,0.174,3.962,0.313,5.947,0.401c0.912,0.041,1.826,0.07,2.739,0.084c0.095,0.001,0.19,0.003,0.285,0.004   c0.806,0.01,1.613,0.014,2.419,0.009c1.152-0.007,2.304-0.033,3.455-0.08c1.104-0.045,2.206-0.11,3.307-0.198   c0.285-0.023,0.571-0.048,0.856-0.073c0.347-0.031,0.693-0.064,1.04-0.098c0.677-0.067,1.354-0.138,2.029-0.216   c2.529-0.292,5.05-0.67,7.547-1.167c0.294-0.059,0.589-0.119,0.882-0.181c1.034-0.218,2.065-0.454,3.091-0.708   C177.374,107.011,178.239,106.782,179.1,106.541z" style="fill:#004CAE;fill-opacity:0.0;"/><path d="M157.331,154.888c4.038-4.217,7.597-8.867,10.615-13.865c-1.478-0.573-2.983-1.158-4.522-1.752   c-2.902-1.12-5.886-2.318-9.009-3.566c-0.121-0.048-0.242-0.097-0.363-0.145c-2.454-0.98-4.959-2.01-7.569-3.042   c-1.624-0.642-3.276-1.288-4.977-1.939c-0.48-0.184-0.962-0.367-1.448-0.549c-2.977-1.117-6.027-2.223-9.292-3.311   c-0.303-0.101-0.609-0.202-0.917-0.303c-2.684-0.877-5.454-1.738-8.291-2.483c-2.294-0.603-4.62-1.109-6.977-1.413   c-3.702-0.477-7.277-0.399-10.726,0.205c-1.2,0.21-2.384,0.48-3.561,0.807c-1.399,0.388-2.76,0.844-4.087,1.375   c-1.665,0.667-3.246,1.458-4.759,2.39c-2.107,1.298-4.025,2.812-5.829,4.516c-1.816,1.716-3.489,3.592-5.054,5.612   c-0.732,0.945-1.437,1.918-2.117,2.915c-5.977,8.764-10.247,19.933-13.312,30.964c3.417,1.671,6.91,3.078,10.53,4.245   c0.156-0.468,0.314-0.936,0.476-1.402c0.765-2.201,1.604-4.377,2.532-6.516c0.85-1.961,1.774-3.89,2.783-5.773   c0.928-1.733,1.929-3.428,3.012-5.069c1.001-1.518,2.071-2.99,3.218-4.4c1.067-1.313,2.199-2.573,3.398-3.766   c1.124-1.118,2.308-2.176,3.549-3.162c1.173-0.932,2.397-1.798,3.668-2.591c1.21-0.754,2.461-1.441,3.749-2.053   c1.234-0.587,2.5-1.106,3.79-1.553c1.244-0.431,2.511-0.796,3.794-1.095c1.241-0.289,2.497-0.516,3.76-0.683   c2.413-0.318,4.854-0.415,7.287-0.318c2.275,0.091,4.542,0.352,6.783,0.757c1.058,0.191,2.111,0.414,3.155,0.673   c1.027,0.254,2.046,0.543,3.052,0.87c1.01,0.328,2.008,0.696,2.989,1.101c1.005,0.415,1.993,0.869,2.964,1.359   c1.012,0.511,2.005,1.06,2.98,1.641c1.034,0.616,2.047,1.267,3.041,1.945c1.072,0.73,2.123,1.492,3.157,2.275   c1.128,0.854,2.236,1.734,3.329,2.633c1.203,0.988,2.387,1.998,3.56,3.022C156.242,153.922,156.787,154.404,157.331,154.888z" style="fill:#9891A4;fill-opacity:0.0;"/></svg>