<?xml version="1.0" encoding="utf-8"?>
<!-- Generator: Adobe Illustrator 24.3.0, SVG Export Plug-In . SVG Version: 6.00 Build 0)  -->
<svg version="1.1" id="Layer_1" xmlns="http://www.w3.org/2000/svg" xmlns:xlink="http://www.w3.org/1999/xlink" x="0px" y="0px"
	 viewBox="0 0 1280 1024" style="enable-background:new 0 0 1280 1024;" xml:space="preserve">
<path style="fill:#732D00;stroke:#FF3200;stroke-width:1.8564;stroke-miterlimit:10;" d="M807.9,580.3
	c0,46.2-49.2,124.6-168.6,127.6c-0.1,0-0.1,0-0.2,0c-0.1,0-0.1,0-0.2,0c-119.4-3-168.6-81.4-168.6-127.6c0,0,0.2-26.6,3-40.1
	c2.8-13.5,8.4-26.3,16.9-45.2c8.5-18.9,20.1-35,30.2-48.3c10.1-13.3,20.5-30.6,26.8-40.7c6.3-10.1,9.4-30.2,9.4-30.2
	s4.7,13.2,4.8,27c0.2,16.9-3.1,27.3-6.7,36.2c-4.2,10.4-17.7,37-23.4,50.8c-0.3,0.8-0.7,1.5-1.1,2.3c-1.4,2.5-4.9,10-5.5,21.2
	c-0.7,13.5-0.4,17.1,1.3,29.1c2.5,42.7,44.8,69.1,91.6,68.7c0,0,0,0,0,0c-18.7-13.9-35.1-41.8-43.3-70.8
	c-3.5-12.5-5.6-25.3-5.6-37.2c0-11.7,2.1-24.4,5.7-37.1c5.8-20.5,15.6-41,27.1-57c0,0,0,0,0-0.1c0,0,0,0,0,0
	c0.9-1.7,15.6-29.6,24.2-46.7c7.4-14.7,11.8-35.1,13-41.5c0.1-0.4,0.1-0.7,0.2-0.9c0.1,0.3,0.1,0.6,0.2,0.9
	c1.3,6.4,5.6,26.7,13,41.5c8.6,17.2,23.2,45,24.2,46.7c0,0,0,0,0,0c0,0.1,0,0.1,0,0.1c11.5,16,21.2,36.5,27.1,57
	c3.6,12.7,5.7,25.5,5.7,37.1c0,7.6-0.1,15.4-1.1,23.3c-5.2-1.6-11.8-2.4-20.4-2.4c-21.2,0-38.4,17.2-38.4,38.4
	c0,31.3,20.5,48,38.4,48c0.5,0,1.1,0,1.6-0.1h0c34.2,5.2,60.2-24.8,62.5-52.9c1.7-12,2.5-13.1,1.8-26.6c-0.6-11.2-2.7-17.2-7.7-31.2
	c-0.3-0.8-3.9-10.5-7.7-21.7c-2.8-8.3-3.5-10.3-7.1-30.2c-2.4-13.3-2.1-22.3-1.3-35.8c0.8-13.7,8.1-31.8,8.1-31.8s2.8,21.6,7.4,32.6
	c6,14,12.6,28.8,22.3,44.6c5.6,9.2,13,22.5,20.3,37.7c9,18.7,14.1,31.7,16.9,45.2C810.9,569,807.9,580.3,807.9,580.3z"/>
<g>
	<path style="fill:#2A0073;stroke:#FF3200;stroke-width:1.2432;stroke-miterlimit:10;" d="M609.2,408.6c-0.8,0-1.2,0.5-1,1.3
		c1.2,4.1,6.8,12.6,7.8,18.4c2,12.7,3.9,28.9,3.8,42.4c-0.1,16-2.7,42-5.5,54.9c-3.1,14.2-7.9,31-11.5,39.5s-13.3,21.7-25.2,33
		c-16.1,15.3-17.7,16.4-21.6,19.7c-13,10.9-29.6,7.1-29.6,7.1s6,7.6,10.3,7.5c9.3-0.3,20.3-3.6,34.6-7.8
		c14.9-4.3,25.2-15.4,32.8-22.9c10.6-10.4,14.2-24.4,18.1-33.2c3.9-8.8,6.3-19.2,6.3-19.2s18.9,19.2,27,29.6
		c9.1,11.7,17.3,24.5,27.4,35.6c10.1,11.1,15.6,16.3,23.1,19.2c7.5,2.9,21.2,2,34.2,0c13-2,25.1-6.5,28-7.8c2.9-1.3,2.6-2.6,0-4.6
		c-2.6-2-23.5-11.7-34.9-16.9c-11.4-5.2-29.3-12.4-39.1-20.2c-9.8-7.8-26.1-20.2-34.5-28c-8.5-7.8-21.2-19.9-23.8-22.2
		s-5.2-3.6,0.5-5.7c7.2-2.6,17.9-6.8,30.8-12.9c8.7-4.1,18.3-10.8,24.1-14.2c7.3-4.3,13.6-10.6,12.8-16.1c-0.7-5-3.3-7.7-6.3-10.4
		c-6.3-5.7-12.8-9.2-17.5-10.7c-6.8-2.3-11.4-3.3-11.7-1c-0.3,2.3,1.9,3.2,1.9,8.7c0,5.5-4.2,12.1-5.2,13.7
		c-4.5,7.5-8.3,14.5-12.8,21c-5.5,7.8-14.3,17.5-15.9,17.5s-3.6,4.6-2-5.5s4.6-29.3,7.5-47.6c2.9-18.3,5.6-27.8,2.9-37
		c-1.9-6.6-6.2-12-10.9-15.3C627,413.5,616.2,408.5,609.2,408.6z"/>
	<path style="fill:#2A0073;stroke:#FF3200;stroke-width:1.2432;stroke-miterlimit:10;" d="M581.8,495.8c-0.1-0.2-0.4-0.1-0.4,0.1
		c-0.7,3.4-3.7,19.8-4.5,25.9c-0.7,5.5-1.7,9.1,4,16.3c5.2,6.7,7,9.4,11.4,11.4c2.8,1.3,6.9,0.6,8.9-1.3c3.7-3.4,3.7-2.7,3.9-9.3
		c0.2-6.9,7-28,8.5-32.6c0.1-0.3-0.3-0.6-0.6-0.4l-13.6,9.6c-0.1,0.1-0.2,0.1-0.3,0L581.8,495.8z"/>
</g>
</svg>
