<?xml version="1.0" encoding="utf-8"?>
<!-- Generator: Adobe Illustrator 25.4.1, SVG Export Plug-In . SVG Version: 6.00 Build 0)  -->
<svg version="1.1" id="Layer_1" xmlns="http://www.w3.org/2000/svg" xmlns:xlink="http://www.w3.org/1999/xlink" x="0px" y="0px"
	 width="612px" height="612px" viewBox="0 0 612 612" style="enable-background:new 0 0 612 612;" xml:space="preserve">
<path style="fill:#ECFE60;" d="M241.3,393.5c2.7,0.3,5.4,0.5,8.1,0.7c5.4,0.5,11,1.1,16.5,1.6c1.7,0.1,3.4,0.3,5.1,0.4
	c1.3,0.1,1.9-0.4,2.1-1.8c0.6-8.2,1.4-16.3,2-24.5c0.6-7.8,1.1-15.7,1.7-23.5c0.1-2,0.5-2.3,2.5-2.2c6.5,0.3,13.2,0.7,19.7,1
	c1.2,0.1,1.6,0.6,1.6,1.8c-0.2,5.6-0.4,11.2-0.7,16.8c-0.2,3.9,1.8,6.4,5.7,6.7c0.4,0,0.8,0,1.2,0.4c1.9,2.8,4.9,2.7,7.8,3
	c1.1,0.1,1.8,0.1,2.3,1.2c0.7,1.3,1.8,2.1,3.4,1.3c1.2-0.6,2.1,0.2,3,0.8c1.4,0.8,2.6,1.6,4-0.1c0.8-1,2.1-0.4,2.9,0.4
	c1.6,1.3,3,1,4.7,0.4c3.8-1.3,7.6-2.1,11.2,0.9c1.3,1.1,2.8,1.8,4.6,1.6c1-0.1,1,0.6,1,1.3c0.1,4,0.2,8,0.2,12
	c0,2.3,0.4,4.2,1.4,6.1c1.3,2.5,2.2,5.2,3.2,7.8c0.6,1.6,0.5,3-0.4,4.6c-0.8,1.3-1.1,2.6-0.7,4.1c0.5,1.9-0.6,3.6-1.2,5.4
	c-0.7,2-2.1,2.9-3.9,3.3c-0.9,0.2-1.7,0.1-1.9-1.1c-0.2-1.3-0.9-1.6-2.3-1.1c-2.2,1.1-3.2,2.2-2.1,4.5c0.4,0.5,0.1,1-0.3,1.3
	c-1,0.8-1.6,2-2.3,3c-1.9,2.8-6.9,4.6-10.1,3.7c-0.9-0.2-2-1.1-2.7,0.1c-0.8,1.2,0.1,2.1,0.9,2.9c0.1,0.1,0,0.1,0.1,0.5
	c-1-0.7-1.7-1.6-2.8-1.6c-0.3,2.4-0.6,2.8-2.6,4.3c-1.8,1.3-1.9,1.6-0.8,3.1c-2.1-0.2-3.7,0.5-5.4,1.5c1,0.1,1.9,0.4,2.8,0.7
	c0.7,0.1,1.2,0.6,1.3,1.4c0.1,0.8-0.1,1.6-0.8,2.1c-0.5,0.4-1,0.4-1.5-0.1c-0.3-0.4-0.7-0.7-1.1-1.1c-0.3-0.3-0.7-0.7-1.1-0.4
	c-0.5,0.4-0.3,0.8-0.2,1.2c0.6,1.4-0.3,1.4-1.3,1.4c-0.7,0-1.4,0-2.5,0c1.9,0.9,3.5,1.6,5.1,2c1.2,0.4,1.6,0.9,1.1,2
	c-0.5,1.1-0.5,2.3-0.1,3.4c0.8,2.3,1,4.9,2.1,7.1c0.2,0.4,0.3,0.6,0,0.8c-0.4,0.3-0.7,0.3-1-0.1c-0.9-1.2-2.1-1.4-3.5-1.3
	c-1.4,0.1-2.8-0.5-4-1.1c-0.9-0.4-1.6-1-2.5-1.3c-6-2.3-7-7.6-7.7-12.9c-0.2-1.3-0.3-2.5-1.6-3.2c-0.6-0.3-1.1-0.8-1.4-1.4
	c-2.3-4.6-6.4-8.3-7-13.8c-0.3-2.5-2.3-4.2-3.9-6.2c-0.6-0.7-1.2-1.3-1.8-2.2c-1.5-2.1-3.8-2.5-6.2-2.7c-0.7-0.1-1.6,0-2.1-0.2
	c-3.8-1-6.6,0.4-7.9,4.2c-0.4,1-0.8,2.1-1.5,3c-1.2,1.5-1.9,1.5-3.4,0.3c-2.3-1.8-4.9-3.1-7.1-5.2c-1.6-1.5-2.7-3.1-2.7-5.4
	c-0.1-2.6-0.9-5-1.9-7.4c-0.2-0.4-0.5-0.9-0.9-1.2c-2.9-2.1-4.6-5.2-7-7.7C244.5,398.6,242.8,396.2,241.3,393.5z"/>
<path style="fill:#ECFE60;" d="M118.6,296.7c-1.1-1-1.3-1.9-1.3-2.8c0.2-2.2-0.5-4.2-1.6-6c-1.8-3-2-6.1-0.7-9.2
	c1.4-3.4,1.1-6.7-0.5-10c-0.9-1.8-0.6-3.2,0.5-4.7c3-3.9,5.2-8.2,5.1-13.4c0-1.4,0.9-0.9,1.6-0.7c3.9,1.1,7.9,2.3,11.7,3.4
	c4.5,1.2,8.8,2.9,13.6,3.6c2.3,0.3,2.8,1.3,2.1,3.7c-2.8,9.3-4.9,18.8-7.6,28.2c-0.5,1.8-0.3,3.4,0.7,5.1
	c10.1,16.8,20.2,33.6,30.3,50.4c1.2,2.1,1.8,4.1,2.4,6.4c0.3,1.4,0.3,3,1.4,4.2c0.7,0.7,0.1,1.4-0.6,1.7c-2.1,0.9-2.8,2.6-3.2,4.7
	c-0.2,1.1-0.6,2-1.4,2.7c-1.8,1.7-2.1,4-0.8,6.1c0.4,0.5,0.9,0.8,0.5,1.5c-0.4,0.7-1.1,0.5-1.7,0.4c-6.1-0.6-12.1-1.3-18.1-2
	c-1.6-0.2-2.3-1.2-2.3-2.7c0.4-5.7-2.1-10-6.4-13.5c-0.2-0.2-0.5-0.5-0.6-0.8c-0.1-2.4-2.1-3.2-3.9-3.7c-1.2-0.4-2-1-2.5-2.2
	c-1.2-2.9-3.8-4.2-6.6-5.1c-0.6-0.2-1.3-0.4-1.9-0.6c-1.5-0.4-2-1.1-1.6-2.7c0.5-1.2,0.4-2.6,0.8-3.8c0.2-0.4,0.1-0.9,0-1.1
	c-1.8-2.7-1.9-5.9-3.5-8.7c-1.4-2.4-2-5.4-2.9-8.1c-0.3-0.8,0.4-1.5,1-2.1c2.1-2.1,2-3.4-0.4-5.3c-2-1.6-2.2-2.6-1.3-5.3
	c1.4,1.6,3.1,1.6,5.1,1c-3-0.9-2.4-3.4-2.8-5.4c-0.1-1,0.4-1.2,1.2-1.1c1,0.3,2,0.7,3,0.9c0.9,0.2,1.6-0.1,2.2-0.8
	c0.5-0.8,0.2-1.5-0.2-2.2c-0.5-0.8-1.1-1.2-1.9-0.4c-0.5,0.5-1.1,0.7-1.6,0.2c-1.7-1.3-4.1-1.6-5.7-3.5
	C118.6,294.3,118.6,295.3,118.6,296.7z"/>
<path style="fill:#ECFE60;" d="M278.7,198.7c-0.6,5.8-1.1,11.7-1.6,17.5c-0.4,4.4-0.7,8.8-1.1,13.2c-0.3,3.3-0.5,6.6-0.7,9.9
	c-0.1,1.3-0.6,1.9-2,1.8c-4.6-0.5-9.3-0.9-13.9-1.5c-6.5-0.8-13.2-1.7-19.6-2.5c-4.5-0.6-9-1.2-13.5-1.9c-2.3-0.3-2.6-0.1-3,2.1
	c-0.1,0.6-0.1,1.3-1.1,0.7c-0.9-0.5-1.6-0.2-2.1,0.6c-0.4,0.7-0.8,1-1.6,0.8c-2.2-0.6-4.4-0.3-6.6-0.3c-1.1,0-1.8-0.3-1.8-1.5
	c0-1.4-0.4-2.5-1.7-3.1c-0.3-0.1-0.3-0.4-0.3-0.7c0.1-2.9-1.8-5.3-1.4-8.3c0.2-1.2-0.9-1.8-2.2-1.5c-0.5,0.1-1,0.4-1.6,0.6
	c-0.4,0.2-0.8,0.2-1-0.1c-0.2-0.4-0.2-0.8,0.1-1.1c1.3-1,1.3-2.4,1.3-3.9c0-1.3,0.6-2.5,1.1-3.6c1.1-2.5,0.8-3.6-1.4-5.1
	c-0.4-0.2-0.8-0.5-0.8-0.8c-0.8-3.4-3.5-6-4.3-9.4c-1.2-5.2-1.2-10.3,0.8-15.3c0.3-0.8,0.7-0.8,1.4-0.7c6.3,1.3,12.6,2.5,19,3.8
	c8,1.3,16,2.8,24.1,3.7c6.4,0.8,12.7,1.8,19.1,2.5c4.8,0.6,9.6,0.8,14.4,1.4C278.8,196.2,278.8,196.3,278.7,198.7z"/>
<path style="fill:#86F4D9;" d="M269.8,394.2c-5.9-0.6-12-1.2-17.8-1.8c-3.5-0.4-7.1-0.4-10.5-1.1c-1.1-0.2-2.2,0.2-2.5,1.4
	c-0.3,0.8-0.8,1-1.7,0.8c-3-0.5-6.3-0.5-9.4-1.2c-2.3-0.5-3.6,0.5-3.6,2.9c0,1.6-0.7,1.8-2,1.7c-3.7-0.4-3.8-0.6-3.2-4.2
	c0.8-6.1,1.6-12.3,2.5-18.4c0.6-4.1,1.2-8.1,1.8-12.3c0.8-6,1.7-11.9,2.5-17.9c0.4-2.9,0.6-5.8,0.9-8.7c0.4-2.2,1.1-2.8,3.3-2.3
	c2,0.4,4,0.9,6,1.1c5.5,0.6,11,1.3,16.5,1.9c5.1,0.6,10.2,1.1,15.3,1.5c2.1,0.2,4.3,0.4,6.5,0.4c1.1,0,1.5,0.5,1.4,1.6
	c-0.5,4.5-0.8,8.9-1.2,13.4c-0.6,5.8-1.1,11.6-1.6,17.3c-0.4,4.5-0.7,9.1-1.1,13.6c-0.2,3-0.4,6.1-0.6,9.1
	C271,393.8,270.7,394.3,269.8,394.2z"/>
<path style="fill:#ECFE60;" d="M215.2,396c-5.2-0.8-10.4-1.5-15.6-2.5c-1.3-0.3-2.5-1.3-3.7-2.1c-8.4-5.2-16.9-10.5-25.3-15.7
	c-0.4-0.2-0.9-0.4-0.9-0.9c0-0.6,0.6-0.5,1-0.7c3.1-1.3,3.6-2.6,1.8-5.4c-0.6-0.9-0.5-1.9,0.2-2.6c1.3-1.5,2.1-3.2,2.4-5.2
	c0.3-1.3,1.1-2.2,2.4-2.8c1.8-0.9,2.1-1.9,1.3-3.7c-0.4-1.1-1-2.1-1.5-3.2c-0.6-1.5-0.8-3.1-0.2-4.7c0.6-1.4,0.8-2.8,0.7-4.2
	c-0.2-1.8,0.2-3.6,0.4-5.5c0.1-1,0.4-1.3,1.6-0.7c2.3,1.3,3.3,0.9,4.5-1.5c0.9-1.8,0.9-3.9,1.3-5.8c0.4-2.2,0.8-2.5,3-2.1
	c3.8,0.7,7.6,1.5,11.4,2.1c7.7,1.3,15.4,2.7,23.1,3.6c2.2,0.2,2.1,0.2,1.9,2.2c-1.7,12.4-3.4,24.7-5.1,37.1c-1,7.5-2.1,14.9-3,22.4
	C216.6,394.8,216.9,396.2,215.2,396z"/>
<path style="fill:#7AFE00;" d="M175.4,344.4c-0.5-0.9-1.1-1.7-1.6-2.6c-9.7-16.2-19.4-32.4-29.2-48.4c-1-1.6-1.1-3.1-0.7-4.9
	c2.4-9.3,4.8-18.5,7.1-27.8c0.6-2.1,0.8-2.3,3-1.7c12.7,3.3,25.5,6,38.4,8.6c2.4,0.6,2.4,0.4,1.9,2.9c-3.5,18-7,36-10.5,53.9
	c-0.6,2.4-0.8,4.9-1.2,7.4c-0.1,0.6-0.3,1.3-0.5,1.9c-0.1,0.7-0.5,0.9-1.1,0.3c-1.1-1-2.4-1.1-3.7-0.5c-1.3,0.5-1.3,1.8-1.3,3
	c-0.1,2.7-0.8,5.4-0.2,8.1C175.8,344.3,175.6,344.3,175.4,344.4z"/>
<path style="fill:#ECFE60;" d="M286.3,295.6c-0.6,9.2-1.3,19.3-1.9,29.5c-0.1,3.4-0.5,6.9-0.7,10.3c-0.1,0.9-0.2,1.1-1.3,1
	c-3.5-0.4-7-0.5-10.4-0.8c-8.7-0.6-17.4-1.4-26.1-2.6c-5.5-0.8-11-1.5-16.5-2c-1.7-0.1-1.9-0.9-1.7-2.3c0.7-4.8,1.4-9.5,2-14.3
	c1.1-7,1.8-14,2.9-21c0.4-1.9,0.5-3.7,0.7-5.8c0.1-1.1,0.6-1.5,1.8-1.3c9.5,1.2,19.2,2.5,28.8,3.5c5.9,0.7,11.9,1,17.9,1.3
	c0.6,0,1.2,0.1,1.8,0.2C286.5,291.9,286.5,291.9,286.3,295.6z"/>
<path style="fill:#7AFE00;" d="M274.8,245.3c-0.8,9.7-1.7,19.4-2.5,29.1c-0.4,3.9-0.9,7.7-0.8,11.6c0,2.3-0.3,2.3-2.6,2.1
	c-8.5-0.8-17.1-1.7-25.6-2.8c-7.6-1-15.3-2.1-22.9-3.1c-1.5-0.2-1.8-0.8-1.6-2.3c2.2-13.5,4.2-27,6.5-40.4c0.4-1.9,0.7-2.3,2.6-1.9
	c14.9,2.3,29.8,4.3,44.9,5.4C274.8,243.2,274.8,243.2,274.8,245.3z"/>
<path style="fill:#86F4D9;" d="M138.5,203c2,0,3.2,1.1,3.3,3.2c0.1,1,0,2,0.1,3c0.2,2.2,1.6,3.4,3.7,3.5c0.8,0,1.7,0.1,2.5-0.1
	c1.9-0.5,3.5-0.2,4.8,1.3c0.3,0.4,0.8,0.5,1.3,0.5c4.2,0,8.6,0.5,12.7-0.2c2.9-0.5,5.7,0.4,8.6,1.2c2.1,0.6,4.2,0.9,6.3,1.3
	c2.2,0.5,3,2.4,3.9,4.2c0.2,0.5-0.2,0.8-0.4,1.2c-2.6,3.5-4.6,7.6-7.5,10.7c-1,1.1-1.1,2.5,0,3.5c0.7,0.8,0.9,1.6,0.6,2.4
	c-2.5,5.7-3,11.9-4.5,17.8c-1.1,4.3-0.2,4.5-5.2,3.4c-15.2-3.5-30.2-7.8-45.2-12c-0.7-0.1-1.5-0.4-2.2-0.8c-1.1-0.5-1.5-1.3-1.1-2.6
	c0.6-1.7,0.8-3.4,1.1-5.2c0.4-2.3,1.2-4.3,2.7-6.2c2.9-3.7,4.6-8.1,6.2-12.5c1.3-3.7,3-7.1,4.3-10.8c0.5-1.5,0.8-3,1.2-4.5
	C136,203.9,137,203.1,138.5,203z"/>
<path style="fill:#7AFE00;" d="M224.2,330.5c-7.7-1.2-15.4-2.5-23.1-3.7c-4.2-0.7-8.4-1.5-12.7-2.2c-2.1-0.4-2.3-0.7-1.9-2.8
	c3.4-17.3,6.8-34.6,10.2-52c0.1-1,0.4-1.6,1.7-1.4c6,1.1,12,2.2,18,3.2c1.2,0.2,1.4,0.6,1.2,1.8c-0.5,2.8-0.7,5.5-1.4,8.2
	c-0.3,1.4,0.2,2.3,1.7,2.5c3.9,0.5,7.8,1.2,11.7,1.6c1.6,0.2,2.1,0.8,1.8,2.4c-1.3,9-2.5,18.1-3.9,27.1c-0.6,4.6-1.2,9.1-1.9,13.6
	C225.7,329.6,225.7,330.6,224.2,330.5z"/>
<path style="fill:#7AFE00;" d="M342.7,306.6c-1.3,2.9-1.2,4,1.1,6.3c1.4,1.6,2,3,2,4.9c0,6.1,0.2,12.2,0.4,18.3c0,1.6-0.5,2.1-2,2
	c-10.5-0.1-21.1-0.1-31.6-0.4c-8.4-0.2-16.7-0.7-25.1-0.9c-1.1,0-1.5-0.5-1.4-1.6c0.6-10,1.3-20,1.8-30c0.1-1.7,1-1.7,2.2-1.6
	c8.8,0.3,17.6,0.6,26.4,1c6.4,0.2,12.7,0.5,19.2,0.5C338.1,305.1,340.4,305,342.7,306.6z"/>
<path style="fill:#86F4D9;" d="M342.4,195.2c0.8,0.6,0.5,1.3,0.6,1.9c0.3,3.5,1.6,4.9,5,5.6c0.5,0.1,1.1,0.1,1.4,0.4
	c1.4,1.6,2.7,1.1,4.3,0.4c2.4-1.1,3.7-0.6,5.2,1.6c0.4,0.6,0.7,1.1,1.1,1.6c0.5,0.6,1.2,0.8,1.7,0.1c0.7-0.8,1.2-0.5,1.8,0.1
	c0.4,0.4,0.8,0.7,1.3,1.1c1.7,1.3,3,1.4,4.7,0.1c0.8-0.6,1.4-0.7,2.3-0.1c0.6,0.5,1.6,0.3,2.4,0.1c0.6-0.1,1.2-0.2,1.8-0.2
	s1,0.3,1.1,0.8c0.1,0.6-0.6,0.6-0.8,0.7c-3.4,1.4-5.9,3.9-8,6.9c-1.5,2.1-3,4.1-5.2,5.5c-1.4,0.8-2,2.3-2.1,4c0,0.8-0.1,1.7,0,2.5
	c0.2,1.9,0,3.5-2,4.5c-1.2,0.6-1.1,2.1-1.7,3.1c-0.7,1.3,0.1,2.2,1,3c0.5,0.5,0.1,1,0.1,1.5c-0.9,2.5-0.1,5.1,0,7.6
	c0,1,1,1.6,1.9,1.9c2.1,0.7,3.7,2.2,5.1,3.8c1.1,1.2,2.1,2.4,3.5,3.3c0.4,0.2,0.8,0.4,0.8,0.7c0.2,0.8,0.5,1.8,0.4,2.6
	c-0.2,0.6-1.2,0.4-1.8,0.3c-8.2,0.6-16.4,0.6-24.6,0.8c-2.9,0.1-5.8,0.1-8.6,0.2c-1.6,0.1-2.1-0.4-2.1-2c0.1-5.6,0-11.2,0.1-16.8
	c0-1.6-0.4-2.9-1.7-4c-0.8-0.5-0.9-1.1-0.2-1.9c1.7-1.7,2.1-3.9,1.2-6c-1.8-4.9-1.5-10-2.1-15.1c-0.2-1.9-0.2-3.7-0.8-5.6
	c-0.8-2.7-1.1-5.5-0.6-8.3c0.1-0.6,0-1.1-0.3-1.6c-0.7-1.3,0-1.7,1.2-1.8c3,0,5.8,0,8.8,0C341.9,198.8,342.2,198.6,342.4,195.2z"/>
<path style="fill:#ECFE60;" d="M204.6,228.4c0.4,3.2,1.2,6.3,2.7,9.2c0.4,0.8,0.8,1.7,1,2.5c0.3,1.4,1.1,2,2.5,1.5
	c1.3-0.5,2.8-0.4,4.3-0.2c1.9,0.4,3.7,0.5,5.6-0.2c1-0.4,1.3,0.1,1.5,0.8c0.2,0.6,0.2,1.3,0.1,2c-1.3,8.1-2.6,16.3-3.9,24.4
	c-0.2,1.1-0.7,1.3-1.6,1.1c-13.4-2.4-26.9-4.7-40.2-7.7c-1.3-0.3-1.7-0.8-1.3-2.2c1.2-5.3,2.4-10.6,3.5-15.9
	c0.4-1.2,0.8-2.3,1.3-3.4c0.8-1.8,1-3.5-0.3-5.2c-0.6-0.8-0.5-1.6,0.2-2.2c3.6-2.9,4.9-7.3,7.7-10.8c0.8-1,0.6-2.2-0.3-3.1
	c-2-2-2-4.4-1.6-6.8c2-9.3,4.1-18.7,6.2-27.8c0.4-1.2,0.6-1.7,2.1-1.2c2.6,0.9,2.7,0.8,2.1,3.5c-0.4,1.9-0.8,3.9-1.1,5.8
	c-0.4,1.9-0.2,3.6,0.5,5.4c0.1,0.3,0.3,0.8,0.2,1.1c-0.7,2.3,0.4,4,1.6,5.6c1.1,1.3,1.6,2.9,2.2,4.5c0.6,1.4,1.3,2.8,2.4,4
	c0.7,0.8,0.8,1.5,0.1,2.4c-1.6,2.8-1.6,6.1-2.8,9c-0.5,1.3,1.1,1.9,1.8,2.8c0.4,0.5,1,0.4,1.6,0
	C204.6,226.5,204.6,226.5,204.6,228.4z"/>
<path style="fill:#86F4D9;" d="M275.5,261.6c0.7-6.6,1-13.9,1.9-21c0.3-2.1,0.5-4.2,0.5-6.3c0-1.7,0.4-2.1,2.1-1.9
	c6.6,0.7,13.2,1,19.9,1.4c5.1,0.3,10.3,0.4,15.4,0.7c4.5,0.2,8.8,0.2,13.2,0.3c0.6,0,1.1-0.2,1.4,0.3c0.3,0.6-0.4,0.8-0.6,1.2
	c-1,1.4-1,2.7,0.6,4.1c1.2,1.1,1.6,2.3,1.5,3.7c-0.2,4.5,0.6,8.7,0,13.2c-0.5,3.5-0.3,6.6-0.4,10.1c0,0.7-0.2,1.3-0.4,1.9
	c-0.4,1.3-1.1,1.8-2.4,0.8c-2.1-1.3-4.5-1.6-6.9-0.8c-0.8,0.3-1.7,0.3-2.3-0.3c-1.6-1.8-3.8-2-6-2.1c-4.8,0-9.5-0.1-14.3-0.4
	c-6.9-0.4-13.8-0.9-20.6-1.4C275.3,265.1,275.3,265,275.5,261.6z"/>
<path style="fill:#86F4D9;" d="M328.2,303c-5.1,0.1-11.3-0.3-17.4-0.4c-6.8-0.1-13.5-0.6-20.2-0.9c-1.9-0.1-2.5-0.9-2.2-2.8
	c0.4-2.5,0.5-5,0.5-7.4c0-1.1-0.6-1.7-1.6-1.7c-4-0.3-7.9-0.7-12-0.9c-1.6-0.1-2.1-0.6-1.9-2.1c0.5-5.2,0.8-10.2,1.3-15.4
	c0.1-0.8,0.1-1.7,0.1-2.5c0-1.3,0.6-1.8,1.8-1.7c7.6,0.6,15.2,1.3,22.8,1.9c2.1,0.2,4,0.1,6,0.1c2.8,0.1,5.4,0.2,8.3,0.3
	c1.6,0.1,2.9,0.9,4.2,1.8c1.2,0.6,2.3,1,3.7,0.5c3.2-1.3,7.6,1.6,9,3.9c0.7,1.1,1.4,2.3,1.7,3.5c1,4.1,2.5,8.1,3.1,12.4
	c0,0.3,0.1,0.7,0.1,1c-0.4,3.5,0.9,6.4,2.8,9.2c0.8,1.1,0.4,1.4-0.8,1.4C334.7,302.9,331.9,302.9,328.2,303z"/>
<path style="fill:#86F4D9;" d="M326.7,201.9c-0.8,3.8,0.1,7.7,1.5,11.5c0.2,0.5,0.2,1.2,0.2,1.8c0,5.2,0,10.6,1.8,15.7
	c0.4,1.1-0.2,1.8-1.3,1.7c-5.6-0.4-11.3,0.1-16.9-0.5c-1.2-0.1-2.3-0.1-3.5-0.1c-8.6-0.3-17.3-0.7-25.8-1.6c-0.9-0.1-1.8-0.1-2.7,0
	c-1.5,0.1-2-0.7-1.9-2.1c0.7-8.1,1.4-16,2.3-23.9c0.2-2.1,0.3-4.2,0.4-6.3c0-1.3,0.6-1.8,1.8-1.7c4.4,0.4,8.8,0.6,13.2,1.1
	c2.4,0.3,4.8,0.3,7.1,0.4c6.5,0.3,13,0.6,19.4,0.5c0.6,0,1.1,0,1.8,0.1C326.5,198.9,326.7,199.2,326.7,201.9z"/>
<path style="fill:#00D48B;" d="M385.4,348.4c0.4-0.5,0.3-0.7,0.4-0.8c0.8-1.1,1.2-2.2,0.4-3.5c-0.8-1.3-2.1-1.5-3.3-1.4
	c-5.7,0.3-11.4,0.6-17.1,0.8c-5.4,0.2-10.7,0.4-16.1,0.6c-1.4,0.1-1.8-0.8-1.8-2c0-3.4,0-6.9-0.1-10.3c0-5.1-0.1-10.2-0.1-15.3
	c0-1.8-0.1-3.4-2.1-4.5c-1.3-0.7-1.6-2.9-0.9-4.7c0.8-2.4,0.7-2.5-1.7-3.1c-0.5-0.1-0.8-0.3-1.1-0.7c-0.9-1.5-1.9-3-2.8-4.6
	c-0.7-1.3,0.4-1.1,1-1c7.2,0.6,14.4-0.3,21.6-0.5c1.8,0,3.8-0.3,5.6-0.4c1.8-0.1,2.8,0.8,2.7,2.5c-0.3,4.5,1.6,8,4.9,10.7
	c1.3,1.2,2.2,2.5,2.4,4.2c0.2,2.1,1,2.5,3,1.7c1.2-0.4,1.5-0.2,1.3,1c-0.2,1.3-0.4,2.8-0.7,4.2c-0.4,2.2,0.5,3.9,2.3,5.1
	c0.7,0.4,1.3,0.9,2.1,1.2c2.3,1.1,3.3,3.1,3.3,5.5c0,2.1,0.7,3.8,2.7,4.7c1.2,0.6,0.9,1.6,0.1,2.1c-2,1.3-2.7,3.3-3.7,5.2
	c-0.2,0.4-0.4,0.7-0.3,0.8C388.8,349.1,386.8,348,385.4,348.4z"/>
<path style="fill:#ECFE60;" d="M302.1,361.6c0.3-4.9,0.5-10.1,0.7-15.1c0.1-2.7-0.5-3.2-3.1-3.3c-6.6-0.3-13.4-0.7-20.1-1
	c-1.5-0.1-1.9-0.9-1.9-2.3c0.1-1.5,0.8-1.8,2-1.7c9.2,0.8,18.5,1.2,27.5,1.6c12.3,0.6,24.5,0.5,36.8,0.4c1.6,0,2.1,0.5,2,2.1
	c-0.2,3,0.5,5.9,1,8.9c1.2,7,0.9,14.1,1,21.2c0,1.1,0,2.3,0,3.3c0,1.3-0.6,1.3-1.4,0.7c-0.8-0.7-1.8-1.4-2.8-2.1
	c-0.9-0.6-1.8-1-2.7-0.1c-0.3,0.3-0.7,0.4-1.1,0.2c-2.1-0.7-4-0.1-5.9,0.9c-0.8,0.4-1.3,0.5-2.3-0.1c-1.3-0.9-3.2-0.6-4.7-1.7
	c-0.2-0.2-0.6,0.1-0.8,0.3c-1.3,1.4-2.7,1-4.1,0.1c-0.9-0.6-1.8-0.8-2.8-0.2c-0.9,0.6-1.3-0.1-1.6-0.7c-0.4-1.6-1.5-1.8-2.9-1.8
	c-3,0.2-5.8,0.1-7.5-3c-0.3-0.6-1-0.6-1.6-0.6c-3.6-0.2-4.2-0.9-4.2-4.4C301.9,362.9,302,362.2,302.1,361.6
	C301.9,361.6,301.9,361.6,302.1,361.6z"/>
<path style="fill:#ECFE60;" d="M139,176.9c1.7,1.7,3.4,3.3,5.6,4.2c0.5,0.2,1,0.4,1.6,0.5c2.9,0.8,3.2,1.5,1.2,3.7
	c-1.6,1.7-2.4,3.7-3.1,5.8c-0.7,1.8,0.3,3.3,2.3,3.2c2.8,0,5.3-2.1,5.6-4.9c0.1-1.1,0.4-2.2,1.2-3c0.7-0.8,1.2-1.8,1.1-2.7
	c-0.4-3.4,1.4-6.6,0.6-10.4c3.4,0.8,6.7,1.8,9.9,2.7c7.8,2.1,15.7,4.1,23.7,5.9c1.7,0.4,1.9,1.2,1.5,2.6c-1.8,8.2-3.8,16.4-5.7,24.6
	c-0.3,1.4-0.7,2.7-0.6,4.1c0.1,1.5-0.7,1.7-1.9,1.3c-2.5-0.6-5-1.1-7.4-1.8c-3.4-0.8-6.8-0.8-10.2-0.7c-4.1,0.3-8.3,0.8-12.2-1.4
	c-1.4-0.8-3.1-0.6-4.7-0.2c-2.7,0.6-3.8-0.4-3.4-3.1c0.3-2.5-0.3-4.5-2.7-5.7c-0.1,0-0.2-0.1-0.4-0.2c-2.1-1.2-3.8-2.4-2.3-5.1
	c0.2-0.4,0.1-0.8,0-1.1c-0.3-1,0-1.6,1.1-1.6c0.6,0,1.1-0.5,1.2-1.1c0.1-0.5-0.6-0.5-1-0.7c-1.4-0.7-1.6-1.9-1.5-3.2
	c0.3-3,0.5-6.2-0.3-9.1C138,178.6,138.4,177.9,139,176.9z"/>
<path style="fill:#86F4D9;" d="M468.6,387.1c-1.2-0.4-1.8,0-2.4,0.8c-0.5,0.9-0.2,1.6,0.5,2.3c1.2,1.2,0.7,2.8,0.3,4.4
	c-0.4,1.7-1.6,3.4-0.6,5.3c0.5,1.2,0.1,1.5-1.1,1.2c-2.3-0.6-3-0.1-3.2,2.2c-0.1,0.7-0.2,0.8-0.9,0.8c-6.2,0.3-12.5,0.6-18.7,1.2
	c-4.2,0.4-4.7,0.3-6.2-3.6c-1.2-3-1.9-6.3-1.2-9.7c0.5-2.6,0.1-5.2-1.1-7.6c-2.2-4.6-3.3-9.6-4.4-14.6c-0.8-3.1-1.6-6.2-2.5-9.3
	c-0.4-1.4,0-1.8,1.4-2.1c4.7-0.5,9.5-0.9,14.2-1.6c1-0.1,1.7,0,1.6,1.3c-0.2,1.8,1.1,2.6,2.4,3.1c1.7,0.6,3,1.8,3.7,3.3
	c0.8,1.7,2.2,2.8,3.5,3.9c3.2,2.8,6.6,5.5,9,9c1.7,2.4,3.7,4.6,4.7,7.5C467.5,385.7,468.1,386.3,468.6,387.1z"/>
<path style="fill:#ECFE60;" d="M342.7,263.7c8.8,0,17.4-0.3,26.1-0.9c1.7-0.1,2.6,0.6,2.5,2.3c-0.4,3.4,1.1,5.9,3.7,7.7
	c0.9,0.6,1.6,1.4,2,2.4c0.2,0.5,0.5,1.1,0.8,1.4c1.1,1,2.1,2,1.6,3.7c-0.6,1.9-1.5,3.5-3.3,4.4c-0.6,0.3-1.1,0.5-1.7,0.7
	c-1.4,0.6-2.1,1.6-1.3,3c1.6,3,0.2,5.2-1.8,7.2c-0.3,0.3-0.5,0.5-0.8,0.2c-1.6-1.2-3.4-0.8-5.1-0.7c-7.2,0.6-14.4,1-21.6,0.9
	c-1.6,0-3.1-0.1-4.6-0.2c-1.1,0-1.6-0.6-1.6-1.6c0.1-3.3-1.1-6.4-1.7-9.5c-0.9-4.3-2.5-8.2-3.5-12.4c-0.2-0.9-0.3-1.8-0.1-2.6
	c0.5-1.6,0.7-3.1,0.4-4.7c-0.1-1,0.6-1.2,1.3-1.2C337.1,263.7,339.8,263.6,342.7,263.7z"/>
<path style="fill:#86F4D9;" d="M371.4,222.5c-0.3,1.7-0.5,2.8-0.8,4.1c0.8-0.3,1.3-0.4,1.9-0.6c1.5-0.6,2.9-0.2,3.7,1
	c1,1.6,2.4,2,4,2.4c3.3,0.9,6.6,1.8,9.9,2.5c2.1,0.5,4,2.2,3.9,4.6c0,1,0.4,1.9,1,2.7c0.8,1.1,1.1,2.2,0,3.3c-0.8,1-1.1,2.4-1.4,3.7
	c-0.1,0.7-0.2,1.5,0.5,1.9c0.8,0.4,1.6,0.2,2.3-0.3c0.8-0.6,0.8-1.7,1.8-2.4c-1.1,2.5-0.9,5.2-1.2,7.8c-0.5,3.7-1.3,7.5-0.9,11.4
	c0.2,1.3,0.6,2.8,1.1,4.2c0.5,1.3,0,2-1.4,2.1c-3.6,0.2-7.3,0.5-10.9,0.7c-1.9,0.1-3.8,0.3-5.6,0.4c-4,0.1-6.4-2.9-5.7-6.8
	c0.1-1,0.1-1.7-0.6-2.4c-0.8-0.9-0.7-2.1-0.8-3.1c-0.2-1.8-0.5-3.5-2.3-4.3c-1.2-0.6-2.1-1.9-2.9-2.9c-1.6-1.7-3.3-3.4-5.5-4.1
	c-0.7-0.1-1.3-0.7-1.3-1.6c0.1-1.9-0.4-3.9,0.3-5.8c0.5-1.3,0.3-2.4-0.5-3.5c-1.1-1.2-0.8-2.4,0.6-3c2.7-1.4,3-3.6,2.5-6.2
	c-0.3-1.3,0-2.5,1.3-2.8C366.8,224.8,369,223.8,371.4,222.5z"/>
<path style="fill:#86F4D9;" d="M402.7,307.6c0,0.1-0.1,0.7-0.3,1.3c-0.5,1.3-0.4,2.5,0.3,3.7c1,1.8,1.1,3.6-0.1,5.2
	c-2.3,3.4-2.8,7.2-2.9,11.1c0,1-0.6,1.7-1.4,2c-1,0.4-1.4,1-1.3,2c0.1,1-0.4,1.2-1.2,0.9c-1.2-0.4-2.4-0.3-3.4,0.6
	c-0.9,0.9-1.2,0.4-1.3-0.6c-0.1-0.9,0-1.8-0.2-2.6c-0.7-2.8-2.5-4.4-4.9-5.7c-2.8-1.7-3-2.1-2.2-5.2c0.1-0.7,0.4-1.4,0.6-2.1
	c0.7-2.4-0.4-4.1-3-4.1c-1.1,0-1.6-0.3-1.8-1.5c-0.4-1.9-1.8-3.1-3.2-4.3c-1.6-1.4-3-2.9-3.4-5.1c-0.6-2.7,0-5.1,1.5-7.3
	c1.6-2.4,2.9-4.7,1-7.6c-0.5-0.6-0.1-1,0.6-1.2c3.8-0.8,5.1-3.7,5.9-7c0.3-1.4-0.1-2.7-1.3-3.7c-0.4-0.3-0.6-0.8-0.9-1.2
	c-0.5-0.6-0.4-1,0.5-1.1c1.8,0,3.7-0.2,5.6-0.4c3.4-0.3,6.7-0.4,10.1-0.6c0.9-0.1,1.3,0.4,1.6,1.1c1.6,2.9,2.6,6,2.9,9.3
	c0.9,7.7,1.1,15.4,2,23.1C402.6,306.7,402.7,306.9,402.7,307.6z"/>
<path style="fill:#00D48B;" d="M387.6,350.3c0.2,0.8-0.4,1.2-0.7,1.6c-1.4,1.8-2.2,3.7-1.7,5.9c0.2,0.8-0.2,1.3-0.6,1.8
	c-1.5,2.1-3,4.2-2.8,6.9c0,0.4-0.2,0.6-0.5,0.8c-1.5,1.2-2.1,2.9-2.7,4.7c-0.4,1.3-0.8,2.6-1.5,3.7c-0.7,1.3-0.6,2.6,0.2,3.9
	c1.3,2.1,0.4,3.9-2.1,4c-6.5,0.1-13,0.4-19.4,0.6c-1.3,0-1.8-0.4-1.6-1.7c0.1-0.6,0-1.1,0-1.8c0-2.3-0.6-3-2.8-2.9
	c-1.1,0-1.2-0.6-1.2-1.5c0-5.9,0-11.9,0-17.8c0-3.3-0.7-6.6-1.1-9.9c-0.4-2.4-0.2-2.6,2.1-2.7c9.9-0.4,19.7-0.3,29.5-1.2
	c0.4,0,0.8-0.1,1.2-0.1c0.9,0.1,2.2-0.6,2.8,0.5c0.5,1.1-0.8,1.4-1.2,2.1c-0.2,0.4-0.4,0.6-0.6,1c-0.7,1.7-0.1,2.4,1.6,2.2
	C385.3,350.6,386.4,350.4,387.6,350.3z"/>
<path style="fill:#ECFE60;" d="M406.3,412.6c-0.5-3.7-1.1-7-1.3-10.4c-0.5-5.4-1.1-10.9-0.7-16.4c0.5-6,0.6-12.1,0.6-18.1
	c0-1.8-0.2-3.5-0.2-5.3c0-1.3,0.5-1.9,1.8-2c5.1-0.4,10.3-0.5,15.3-1.2c1.7-0.1,2.4,0.1,2.9,2.1c1.6,6.6,3.5,13.1,5.3,19.7
	c0.5,1.9,1.2,3.7,2.3,5.3c0.6,0.9,0.9,2.1,0.6,3c-1.1,3.5-0.1,6.9,0.5,10.3c0.5,2.8,0.5,2.9-2.3,3.3c-5.8,0.8-11.5,1.4-17.3,1.7
	c-1.1,0.1-2.4,0-2.8,1.3c-0.4,1.3-0.3,2.7,1.1,3.5c1.3,0.8,0.8,1.9,0.8,3c0,0.6-0.5,0.6-1,0.7c-0.6,0.1-0.9-0.4-1-0.8
	c-0.4-1.2-0.6-2.5-1.6-3.4c-1.1-1.1-1.6-1-2.1,0.5C407.1,410.2,407.5,411.4,406.3,412.6z"/>
<path style="fill:#7AFE00;" d="M464,403.3c2.1-0.5,2.8,0.3,3.3,2c1.6,5.1,3.8,9.9,6.8,14.4c2.1,3.1,2.9,6.7,4.7,9.9
	c2.1,3.9,3.9,8,6.5,11.6c1.8,2.6,2.1,5.6,2.7,8.6c0.8,4.1-0.4,7.9-0.7,11.9c-0.1,0.9-0.9,1.1-1.8,1.2c-2.1,0.2-4.9-1.7-5.1-3.7
	c-0.2-1.9-1.2-2.6-2.8-2.7c-2.4-0.1-3.6-1.3-4.1-3.5c-0.1-1-0.8-1.8-1.7-2.4c-1.4-1-1.9-2.3-1.4-4.1c0.1-0.7,0.6-1.5-0.2-2.2
	c-0.7-0.6-1.2,0.1-1.8,0.4c-1.2,0.6-2.1,0.3-2.8-0.8c-1.2-2.1-1.8-4-0.6-6.2c0.8-1.7,0.1-3.1-1.8-3.4c-1.7-0.3-2-1-1.6-2.5
	c0.6-2.3,0.4-4.6-0.5-6.9c-0.7-2-1.8-3.5-4-4c-1.4-0.4-2.3-1.6-3.2-2.6c-1.7-2-3.4-4.1-5.8-5.5c-2.1-1.1-6.1-0.7-7.7,0.8
	c-0.1,0.1-0.2,0.4-0.2,0.6c0.3,1.7-0.9,2.1-2.1,2.4c-0.9,0.2-1.6,1.4-2.5,0.9c-0.8-0.4-0.9-1.6-1.4-2.4c-0.4-0.6-0.8-1.2-1.4-1.6
	c-0.4-0.2-0.6-0.3-0.6-0.7c0.1-1.7-0.4-1.9-2-1.3c-1.3,0.5-2.8,0.9-3.8-0.8c-0.5-0.9-1.6-0.9-2.6-0.6c-0.8,0.2-1.6,0.5-2.4,0.8
	c-1.2,0.5-2.2,0.5-3.2-0.4c-0.9-0.8-1.9-0.8-2.9,0.4c-0.2-1.1-0.7-1.8-1.4-2.3c-0.4-0.2-0.8-0.5-0.6-1c0.2-0.5,0.7-0.4,1.1-0.4
	c4.2-0.4,8.5-0.8,12.7-1.2c2.2-0.2,4.5-0.5,6.6-0.8c0.8-0.1,1.3,0,1.6,1c0.3,1.6,1.4,2.1,3,2c6.8-0.4,13.5-0.6,20.3-1.1
	c1.2-0.1,2.2-0.1,2.7,1.3c0.3,0.8,1.2,0.8,2,0.7s1.1-0.7,1.1-1.4C464.4,405.7,464.6,404.5,464,403.3z"/>
<path style="fill:#7AFE00;" d="M402.7,372.4c0.1,6.9-0.7,14.6-0.3,22.3c0.3,5.4,0.9,10.7,1.6,16c0.3,2.3,0.1,2.4-2.1,2.2
	c-2.2-0.2-4.2,0.1-6,1.5c-0.6,0.5-0.9,0.4-1.3-0.3c-1.1-1.9-1.9-3.7-1.1-6c0.5-1.3-0.6-1.7-1.7-1.7c-3.4,0.1-6.7,0.4-10.1,0.6
	c-1.2,0.1-2.4,0.1-3.6,0.2c-1.3,0.1-1.5-0.4-1.2-1.6c0.8-2.9,1.7-5.7,3.2-8.4c1.3-2.2,1.2-4.5,0.7-6.9c-1.1-4.6-1.6-9.3-1.1-14
	c0.1-1.2,0.7-2.3,1.2-3.5c1.4-2.5,3-5.1,3.7-8.1c0.4-1.7,1.7-2.5,3.5-2.8c4.4-0.3,8.8-0.7,13.2-1c1.1-0.1,1.4,0.3,1.4,1.4
	C402.6,365.6,402.6,368.7,402.7,372.4z"/>
<path style="fill:#86F4D9;" d="M459.5,268.6c0.7,1.8,2.1,1.9,3.7,1.6c9.8-1.7,19.5-3.8,29.3-5.8c2-0.4,3.3,0.3,4.1,2.3
	c0.4,1.1,0.9,2.1,2.3,2.4c0.8,0.2,0.9,0.9,0.6,1.6c-0.4,1-0.8,2.1-1.1,3.1c-1.1,3.4,0.3,6.1,2.9,8.1c1.1,0.9,1,1.6,0.4,2.6
	c-1.8,2.7-4.4,4-7.4,4.8c-9,2.2-18.2,3.8-27.3,5.4c-1.3,0.2-2.8,0.6-4.2,0.9c-1.9,0.4-2.3,0.2-2.5-1.7c-1.1-6.2-2.1-12.4-3-18.6
	c0-0.1,0-0.3-0.1-0.5C456,272,456.4,269.9,459.5,268.6z"/>
<path style="fill:#86F4D9;" d="M472.1,252.4c1.8,0.7,4.6,0.4,7.4-0.7c1.3-0.5,2.5-1.2,3.1-2.5c0-0.1,0-0.1,0.1-0.1
	c3.3-1.7,2-4.7,2-7.4c0-0.1,0-0.4,0-0.6c-1.3-1.7,0.1-2.9,0.8-4.3c0.7-1.3,1.2-2.6,1.8-3.9c1.4-3,3.7-4.6,6.8-5.2
	c1.5-0.4,2.9-0.6,4.3-1.1c1.3-0.5,2-0.4,2.4,1.3c0.6,2.7,1.5,5.4,1.6,8.2c0.1,2.1,1.1,4.2,2.4,5.9c1.5,2.1,1.3,4.4,1.7,6.6
	c0.8,4.5,0.6,9,1.3,13.5c0.3,1.6,1,3.3,1,4.9c0,0.4,0,0.8,0,1.1c-0.1,2.3-0.5,2.6-2.6,2.1c-2.5-0.7-4.6-2.3-7-3.5
	c-0.5-0.2-0.5-0.8-0.7-1.3c-1-2.8-3.3-4-6.2-3.4c-9.5,1.9-19.2,3.8-28.8,5.7c-0.6,0.1-1.4,0.4-1.8-0.3c-0.5-0.8,0.1-1.4,0.6-1.9
	c1.3-1.5,2.5-3,3.5-4.6c1.3-2.1,1.3-3.5-0.3-5.5c-0.8-1-0.6-1.5,0.5-1.9C467.8,253.1,469.4,252.1,472.1,252.4z"/>
<path style="fill:#ECFE60;" d="M500.2,336.4c1.5,0.6,2.6,1.1,3.8,1.7c0.3,0.1,0.8,0,0.7,0.7c-0.1,0.5-0.4,0.9-1,1
	c-0.5,0.1-0.8,0-1.1-0.5c-0.1-0.3-0.2-0.6-0.4-0.9c-0.8-1.1-1.8-1.1-2.3,0.1c-0.6,1.2-1.3,1.2-2.4,0.8c-1-0.1-2-0.6-3.3-0.3
	c1.1,1.6,2.3,3.1,4.2,3.4c0.6,0.1,1.1,0.1,1.4,0.7c0.2,0.4,0.5,1.1,0.2,1.3c-0.3,0.3-0.7,0-1-0.1c-1.6-0.4-2.8,0.2-3.3,1.8
	c1.7,0.3,3.2,1.3,5.1,1.6c-1.4,1.1-2.7,0.1-4.2,0c0.4,2.2-1.1,3.5-2.3,4.9c-1.4,1.6-2.7,3.3-2.9,5.6c-0.1,1.7-2.9,2.5-4.6,1.2
	c-2-1.4-4.1-2.7-5.7-4.5c-2.8-3.1-6.3-3.9-10.3-2.8c-2,0.6-3.6,0.5-4.7-1.5c-0.5-0.9-1.4-1.1-2.5-1.1c-5.9,0.3-11.8,0.6-17,3.9
	c-2.5,1.6-5.7,1.2-8.6,1.5c-0.1,0-0.5-0.1-0.6-0.2c-0.2-0.4,0-0.6,0.3-0.6c0.8-0.3,1-0.8,1.3-1.6c0.9-1.9,2.8-2.9,4.5-3.9
	c1.7-1,3-2.4,4.6-3.5c1.9-1.2,3.2-3.2,5.7-3.7c1.9-0.4,2.8-2.4,3-4.2c0.2-1.3,0.8-1.8,2.1-1.9c8.3-0.7,16.4-2.3,24.6-3.7
	c2.1-0.4,4.3-0.8,6.3-1.3c2.3-0.7,4.1,0.1,6.1,0.8c0.8,0.3,0.8,1,1.1,1.6c1.1,3.2,1.6,3.4,4.9,2.5c0.4-0.1,1.1-0.8,1.3,0
	c0.1,0.7-0.6,0.5-1.1,0.6C501.5,336.1,501,336.3,500.2,336.4z"/>
<path style="fill:#7AFE00;" d="M389.4,427.1c-1.6-0.8-3.1-1.3-4.5,0.2c-0.2,0.2-0.5,0.2-0.7,0c-1.4-1.1-3.1-1.6-4.6-2.3
	c-1-0.6-2-1.4-2.7-2.4c-1-1.3-3.5-1.9-5-1.2c-0.7,0.3-1.5,0.9-1.5,1.6c0.1,1.9-1,1.6-2.1,1.2c-1.3-0.4-2.7-0.7-4-1.2
	c-2.1-0.7-4.2-1.2-6.3-0.8c-1,0.1-1.3-0.1-0.8-1c0-0.1,0.1-0.2,0.1-0.3c0.1-3.7,0.6-7.3,1.6-11c0.6-2.4-0.7-4.7-1.8-6.9
	c-2.3-4.6-3.7-9.5-3.3-14.7c0.1-1.2,0.5-1.8,1.8-1.8c6.5,0.1,13,0,19.4-0.5c1.9-0.2,2.4,0.4,2.5,2.3c0,1.4,0.5,2.5,0.8,3.8
	c0.5,1.5-0.3,3.1-0.9,4.5c-0.8,1.8-1.7,3.5-2.5,5.4c-0.5,1.1-0.8,2.2-0.8,3.4c-0.1,1.5,0.1,3.1-1.3,4.4c3.7-0.2,7.3-0.5,11-0.7
	c1.9-0.1,3.8-0.3,5.6-0.5c1.2-0.1,1.9,0.1,1.3,1.6c-0.6,1.4,0,2.5,0.9,3.6c0.3,0.4,0.9,0.8,0.6,1.2c-0.4,0.5-0.9-0.1-1.3-0.3
	c-2.4-1.4-4.2-0.7-5.2,1.9c-0.5,1.3,0.4,2.7,2.1,2.9c1.7,0.1,3.5,0,5,1.3c0.8,0.7,1,1,0.1,1.7c-0.9,0.6-1.7,0.8-2.9,0.6
	c-0.8-0.2-1.3,0.1-1.7,0.7s-0.4,1.2,0.2,1.6C389.3,425.9,389.7,426.2,389.4,427.1z"/>
<path style="fill:#86F4D9;" d="M456.2,287.9c0.1,3.4,0.1,6.4-0.6,9.3c-0.5,1.8-1.2,3.5-3.3,4.1c-0.7,0.1-1.2,0.6-1.5,1.3
	c-0.8,1.6-1.9,3-2.9,4.5c-1,1.4-1.5,2.8-1.3,4.5c0.1,0.7,0.2,1.5-0.6,1.8c-0.7,0.3-1.3-0.3-1.8-0.7c-0.4-0.2-0.5-0.6-0.7-0.8
	c-0.8-1.1-1.6-1.4-2.9-0.6c-2.5,1.7-7.3,0.8-9.1-1.5c-0.8-0.9-1.6-1.9-3-1.7c-0.9,0.1-1.3-0.3-1.3-1.2c-0.4-2.6-0.6-5.1-0.9-7.7
	c-0.5-4.7-1.1-9.5-1.6-14.3c-0.1-0.5-0.1-1.1-0.1-1.7c-0.1-3.5,0-3.5,3.5-4.1c2.2-0.4,4.3-1.2,6.5-0.3c0.3,0.1,0.8,0,0.7,0.6
	c-0.5,1.3,0.6,1.4,1.4,1.6c0.6,0.2,1.3,0.2,2,0.1c3.1-0.4,6.2-1.2,8.8-2.6c0.7-0.4,1.3-0.9,1.8-1.7c1-1.6,2.5-2.5,3.9-3.5
	c1-0.6,1.3-0.3,1.6,0.7C455.5,278.7,456.6,283.5,456.2,287.9z"/>
<path style="fill:#ECFE60;" d="M454.9,336c-1.2,2.8-3.1,4.4-5.7,5.1c-1.8,0.5-3,1.4-3.9,3c-1.1,2.1-3,3.4-5.2,4.1
	c-1.1,0.3-2,0.8-2.4,2.1c-0.3,0.8-1.1,1.4-1.6,2.1c-0.3,0.3-0.7,0.7-0.8,1.1c-0.3,2.3-1.8,2.4-3.7,2.6c-5,0.4-9.9,1-14.9,1.5
	c-6.9,0.7-13.9,1.3-20.9,1.9c-2.5,0.2-4.9,0.3-7.5,0.6c-0.8,0.1-0.8-0.3-1.1-1c-0.4-1.2-0.4-2.3,0.3-3.4c1.9-2.8,2.6-6,3.1-9.2
	c0.3-2,1.4-2.4,3-2.5c2.8-0.2,5.3-0.4,7.9-0.6c0.9-0.1,1.6-0.3,1.8-1.4c0.1-0.7,0.6-0.6,1.1-0.7c8.7-0.6,17.4-1.4,26.1-2.1
	C438.8,338.4,446.9,337.6,454.9,336z"/>
<path style="fill:#86F4D9;" d="M414.6,239.4c-0.5-1.5,0.3-2.4,2-3c1.2-0.4,1.4-1.3,0.3-2.1c-0.6-0.5-0.8-1-0.4-1.7
	c0.4-0.7,0.8-0.7,1.5-0.5c3,0.8,5.4,2.7,8.3,3.7c0.6,0.2,0.6,0.8,0.5,1.3c-0.1,1,0.2,2.1,0.6,2.9c1.8,3.9,1,7.4-1.7,10.5
	c-1.1,1.2-0.8,3.8,0.4,4.9c1.2,1.1,2.9,0.8,3.7-0.6c0.6-1,1.1-2.2,1.7-3.3c0.4-0.7,1.1-1.2,1.8-1.3c0.8,0,1,0.8,1.2,1.3
	c1.1,3.5,2.1,7,3.1,10.5c0.2,0.9,0.6,2.1-1.1,2.1c-0.4,0-0.7,0.4-0.7,0.8c-0.3,1.8-1.3,3.3-1.9,4.9c-0.4,0.9-0.6,1.8-0.7,2.7
	c-0.1,2.4-1.2,3.5-3.6,3.7c-2.6,0.4-5.3,0.6-7.9,0.7c-3.9,0.2-7.7,0.5-11.6,0.8c-1.3,0.2-0.8-0.6-0.6-1.2c1.1-3.1,2.1-6.3,1.7-9.8
	c-0.2-2.1-0.5-3.9-1.6-5.7c-2.3-3.7-2.1-7.7-1.3-11.8c0.3-2.1,0.5-4.3,1.3-6.3c0.2-0.4,0.3-1,0.9-1.1c0.6,0,0.5,0.6,0.7,1
	c0.3,0.6,0.9,0.9,1.5,0.9c0.7,0,1.1-0.5,1.3-1.1C414.6,242.2,414.8,241,414.6,239.4z"/>
<path style="fill:#ECFE60;" d="M404.3,339.2c-0.7,0-1.3,0-2,0c-0.6,0-1.1,0.1-1,0.8c0.1,1.2-0.6,1.3-1.5,1.3
	c-1.3,0.1-2.6,0.4-3.9,0.5c-1.1,0.2-1.7-0.1-1.6-1.4c0.1-1.2,0.1-2.3,0-3.5c0-1.1,0.4-1.3,1.3-0.9c0.5,0.2,0.8,0.3,1.3,0.5
	c0.7,0.3,1.4,0.4,2.1-0.2c0.6-0.6,0.8-1.4,0.6-2.1c-0.6-1.3-0.1-1.8,1.1-2.2c1.2-0.4,2.1-1.1,1.3-2.6c-0.5-1.1,0.4-1.5,0.9-1.9
	c1.6-1.1,3.3-1.1,5.1-0.6c1,0.3,1.9,0.4,2.4-0.8c0.5-1.2,1-0.3,1.3,0.2c0.7,1,1.1,1.1,1.7-0.1c0.2-0.5,0.7-0.8,0.8-1.4
	c0.4-1.1,0.9-1.3,2.1-0.8c1.6,0.7,2.6-0.1,2.9-1.8c0.1-1,0.8-1.8,1.4-2.5c1.1-1.2,2-2.4,2.2-4c0.1-0.7,0.6-0.7,1.1-0.8
	c1-0.3,1.8-0.7,2.8-1.2s1.1-1.2,0.8-2.2c-0.1-0.4-0.8-0.8,0-1.3c0.6-0.4,1.3-0.2,1.6,0.4c2.1,3.2,5.4,3.3,8.6,3.7
	c1,0.1,1.9-0.2,2.8-0.5c1.6-0.5,3.7,0.6,3.8,2.3c0.1,3.4,1.9,5.7,4.2,7.8c1.5,1.3,1.5,1.5,0,2.8c-1.3,1.2-2.5,2.7-3.6,4.3
	c-2.7,4.2-6.7,5.6-11.4,6c-9.1,0.7-18,1.1-27,2.3C405.7,339.2,405,339.2,404.3,339.2L404.3,339.2z"/>
<path style="fill:#86F4D9;" d="M444.5,335.4c1.9-3,3.7-5.9,6.4-8.1c0.4-0.2,0.4-0.9,1-0.3c2,2.1,4.4,1.4,6.6,0.5
	c2.3-0.9,4.2-2.4,6.5-3.3c1.1-0.4,1.3-1.6,1.5-2.6c0.5-3.2,1.7-6.2,2.9-9.3c0.3-0.8,0.5-1.1,1.6-1c1.7,0.1,2.5-0.5,2.6-2.2
	c0.1-1.3,0.6-2.3,1.6-3.1c2.1-1.8,2.7-4.4,3.6-6.9c0.8,0.4,1.6,0.8,2.3,1.3c0.6,0.3,1.3,0.4,1.7-0.1c0.6-0.8,1-0.7,1.6,0
	c0.7,0.8,1.8,1.1,2.8,1.5c0.9,0.4,1.4,0.8,0.5,1.9c-1.1,1.2-0.9,2.8-0.7,4.2c0.1,0.8,0.6,1.2,1.3,1.2c1.8,0,3.5,0.9,5.1,1.8
	c-1.6,1.5-1.5,1.5,0,3.3c0.6,0.7,1.4,1.6,1.3,2.2c0,0.8-0.2,2.1-1.1,2.5c-0.7,0.4-0.8,1-0.7,1.7c0,0.7,0.5,0.8,1.1,1
	c1.5,0.5,2.4,1.7,3.5,2.7c1,0.8,2,1.4,3.3,0.3c0.4-0.2,0.4-0.7,0.9-0.6c0.4,0.1,0.3,0.6,0.3,0.8c0,0.6-0.1,0.9-0.6,1
	c-1.4,0.3-2.8,0.7-4.2,1c-8.1,1.7-16.1,3.4-24.2,4.8c-4.7,0.8-9.4,1.3-14.1,1.9c-4.2,0.5-8.3,1.2-12.5,1.8
	C445.6,335.6,445.1,335.6,444.5,335.4z"/>
<path style="fill:#ECFE60;" d="M417.2,321.9c-3.3-1.7-3.3-1.7-4.7,1.6c-1-0.8-1.8-0.8-2.8,0.2c-1,1.1-2.2,0.8-3.4,0.4
	c-1.1-0.3-2-0.6-2.8,0.4c-0.5,0.6-0.8,0.3-0.9-0.4c0-1.3,0.4-2.6,1.1-3.6c2-2.7,2.3-5.7,1.2-8.8c-0.5-1.3-0.4-2.7-0.3-4.1
	c0.3-3.8-0.6-7.5-0.8-11.2c-0.3-4-0.7-8.1-1.1-12.1c-0.1-0.9,0.5-1.3,1.2-1.8c2.1-1.2,4.3-1.8,6.6-2.1c3.2-0.4,6.5-0.3,9.8-1
	c1-0.1,1.6,0.1,1.8,1.2c1,9.6,2.1,19.1,3,28.7c0.3,3.3,0.1,3.3-3.1,3.7c-0.9,0.1-1.3,0.5-1.3,1.4c0.4,1.9-0.7,3.3-1.9,4.5
	C417.8,319.5,417.3,320.6,417.2,321.9z"/>
<path style="fill:#86F4D9;" d="M534.4,216.3c-0.7,0.8-0.5,1.5-0.6,2.3c-0.2,2.5,0.3,4.9-0.3,7.5c-0.3,1.1-0.7,2-1.6,2.7
	c-0.2,0.2-0.4,0.6-0.8,0.5c-0.4-0.1-0.4-0.5-0.4-0.8c-0.1-0.9-0.3-1.8-1.1-2.9c-0.5,2.9-1.9,5.2-2.8,7.7c-0.3,0.8-0.6,1.9-0.5,2.9
	c0.1,0.7-0.1,1.3-0.3,2c-0.2,0.5-0.4,1.2-1,1.1c-0.6,0-0.8-0.6-1.1-1.2c-0.7-2.3-1.4-4.7-2.1-7c-1.1-3.6-2.3-7.2-3.5-10.7
	c-0.6-1.7-0.1-3,1.2-3.9c0.6-0.5,1-0.8,0.4-1.6c-0.6-0.7-0.3-1.4,0.1-2c1.1-1.9,1.1-4,0.8-6.1c-0.8-5.4,0.5-10.4,2.1-15.5
	c2.3,1.6,2.3,1.6,4.5,0.1c2.8-2,4.6-1.3,5.6,1.9c1.3,3.8,2.4,7.6,3.5,11.6c0.4,1.5,1.1,2.8,2.8,3.2c1.1,0.2,1.3,1.1,1.5,2.1
	c0.4,1.5,0.9,2.5,2.7,2.5c1.6,0,1.1,1.7,1.6,2.6c0.4,0.8-0.6,0.6-1.1,0.8c-0.8,0.3-1.3,0.8-1.7,1.6c-1.2,2.5-4.1,2.3-5.9,3.8
	c-0.3,0.3-0.5-0.4-0.6-0.6C535.5,219.3,534.8,217.8,534.4,216.3z"/>
<path style="fill:#ECFE60;" d="M470.1,385c-2.5-3.2-3.7-6.7-6.2-9.4c-2.7-2.8-5.1-5.8-8.2-8.2c-1.7-1.4-3.4-2.8-4.4-4.8
	c-0.8-1.6-1.9-2.5-3.5-3.1c-2-0.8-2.2-2.1-0.5-3.5c1.6-1.4,3.5-2.1,5.4-2.8c3-1.1,6.1-0.8,9.2-1.3c1.5-0.1,2.6,0.8,3.3,2.1
	c0.5,1.1,1.2,1.3,2.3,1.2c2-0.4,4-0.4,5.9-0.9c1.5-0.4,2.8-0.1,4.1,0.8c2.4,2,4.9,3.9,7.4,5.8c0.6,0.5,1.2,1.1,0.4,1.9
	c-2.1,2.2-2.6,5.2-3.6,8c-0.3,0.8-0.6,1.5-1.6,1.4c-0.6-0.1-1,0.4-1.4,0.8c-0.3,0.3-0.4,0.8-0.8,0.8c-2.4-0.1-1.3,1.2-1.1,2.3
	c0.3,0.8,0.5,1.6-0.5,2.1c-1.1,0.6-1.4-0.4-1.8-0.9c-0.8-1.1-1.5-2.3-2.5-3.4c0.3,1,0.6,2,1.1,2.9c0.3,0.7,0.3,1.4-0.3,2
	c-0.7,0.8-1.4,1.6-2.3,0.1c-0.3-0.4-0.8-0.6-1.4-0.7C469,380.5,470.4,382.5,470.1,385z"/>
<path style="fill:#86F4D9;" d="M458.1,296c1.1,2.4,3.2,2.1,4.8,1.6c4.9-1.2,4-0.2,4.7,3.5c0.1,0.7,0.2,1.6,0.9,1.9
	c0.7,0.3,1.1-0.6,1.6-1c1-1,1.9-2.1,2.9-3c0.3-0.3,0.5-0.6,0.8-0.8c0.7-0.6,1.6-0.5,2.4-0.1c0.8,0.3,0.2,1.1,0.2,1.6
	c-0.1,2-0.8,3.8-2.8,4.7c-1.1,0.5-1.4,1.3-1.6,2.4c-0.1,0.9-0.3,1.7-0.5,2.5c-0.3,0-0.4,0.1-0.4,0.1c-2.3-1.7-3.1-1.6-3.5,1.4
	c-0.5,2.9-1.3,5.6-2.7,8.2c-0.2,0.5-0.5,1.1-0.5,1.6c0.4,1.9-1,2.5-2.4,3c-0.5,0.2-1.2,0.1-1.5,0.6c-0.8,1.2-1.6,2-3.2,1.3
	c-0.5-0.2-0.9,0.5-1.3,0.9c-0.8,0.9-1.6,0.9-2.1-0.1c-0.7-1.4-1.9-2.2-3.2-3c-2.1-1.3-3.2-3.5-4.1-5.7c-0.3-0.7,0.1-1.3,0.7-1.7
	c1.4-1.1,2.1-2.6,1.9-4.5c-0.1-0.8,0.2-1.2,1-1.4c1.5-0.4,2.1-1.5,2-3c-0.2-1.5,0.5-2.5,1.7-3.1C456.6,301.8,458.1,299.4,458.1,296z
	"/>
<path style="fill:#87F4D9;" d="M420.4,227c-1.5-0.2-2.8-0.7-3.9,0.6c-0.5,0.5-0.8,0-1.3-0.2c-1.2-0.8-2.4-0.8-3.6-0.2
	c-1.4,0.6-3,0.9-4.2,1.7c-2.1,1.2-4.1,2.4-6.4,3.3c-1.8,0.7-2.6,2.5-3,4.4c-0.1,0.4,0,1-0.6,0.9c-0.6,0-0.6-0.5-0.7-1
	c-0.7-4-2.5-5.8-6.5-6.6c-3.5-0.7-6.9-1.6-10.3-2.7c-1.8-0.6-2.1-1.5-0.8-2.9c0.7-0.8,1.6-1.2,2.5-1.5c1.9-0.5,3.4-1.6,4.7-3
	c0.3-0.4,0.8-0.9,1.4-0.7c0.5,0.2,0.6,0.9,0.7,1.4c0.4,2.3,0.7,2.5,2.8,1.4c1.9-1.1,3.1-1.1,3.8,0.6c1.2,2.9,3.5,2.8,5.9,3.1
	c1.7,0.3,3,0.1,4-1.6c0.6-1.2,2.2-1.6,3.6-1.8c1.3-0.2,2.5-0.2,3.7-0.9c0.7-0.4,0.9,0.1,1.2,0.6c0.9,2.2,1.4,2.7,3.5,2.1
	c1.6-0.4,2.3,0,2.5,1.4C419.5,225.9,420.1,226.3,420.4,227z"/>
<path style="fill:#87F4D9;" d="M504.2,234.9c1.1-2.3-0.4-4.6-1.2-7c-0.7-1.8-0.5-2.2,1.6-2.7c2.5-0.6,4.9-1.2,7.4-1.9
	c1.1-0.3,1.9-0.4,1.8,1.2c0,0.1-0.1,0.4,0,0.6c1.1,2,0.6,3.5-1.2,4.7c-0.6,0.5-0.6,1.5-0.4,2.2c0.6,1.8,0.2,3.6-0.1,5.4
	c-0.4,1.8-0.4,3.5,0.1,5.3c0.6,1.7,0.3,3.5,0.4,5.3c0,1.6-1.5,1.2-2.4,1.6s-1.2-0.4-1.3-1.2c-0.6-3.4-1.3-6.8-3.3-9.8
	C504.6,237.4,504.2,236.4,504.2,234.9z"/>
<path style="fill:#87F4D9;" d="M515.6,219.5c0.6,0.2,0.6,0.5,0.8,0.9c1.8,5.9,3.6,11.8,5.4,17.8c0.3,1,0.7,1.8,1.4,2.8
	c1.1,1.2,0.1,5.1-1.5,5.7c-1.9,0.8-4,1.2-6.2,1.5c-1.1,0.2-1.8-0.1-1.3-1.5c0.1-0.2,0.1-0.5,0-0.7c-1.6-4.5,0-9.1-0.3-13.7
	c0-0.6,0-1.1,0.5-1.5c1.8-1.6,1.7-3.5,1.3-5.7C515.8,223.3,515.3,221.4,515.6,219.5z"/>
<path style="fill:#87F4D9;" d="M509.2,255.1c0.1-3.3,0.3-3.7,3.5-4.3c2.6-0.5,5.2-1,7.8-1.5c1.6-0.3,3-1.1,4.1-2.3
	c0.3-0.3,0.5-0.9,1.1-0.5c0.5,0.4,0.5,0.9,0.4,1.4c-0.1,0.5-0.4,0.9-0.6,1.4c-1,2.3-0.5,3.3,1.9,3.7c0.9,0.1,1.3,0.5,1.7,1.3
	c0.6,1.4,0.2,4-0.7,4.1c-1.4,0.1-2.3-1-2.8-2.2c-0.7-1.6-1.8-1.6-3.1-1.3c-3.5,0.8-7.1,1.7-10.6,2.5
	C509.2,258.1,509.1,257.9,509.2,255.1z"/>
<path style="fill:#87F4D9;" d="M507.2,273.8c0.1,0.7-0.4,1.1-0.7,1.7c-1.3,2.2-1,3.4,1.3,4.4c0.6,0.3,0.8,0.7,0.6,1.3
	c-0.4,1.4-0.3,2.7,0,4.1c0.2,0.9-0.1,1.8-0.4,2.6c-0.6,1.8-1.6,3.4-2.1,5.3c-0.2,0.8-0.8,0.9-1.4,0.7c-1.3-0.3-2.5-0.9-3.5-1.7
	c-1.2-0.9-1.2-2.5,0-3.5c1.6-1.4,2.3-3.4,3.7-4.9c0.5-0.5,0.3-1.1-0.2-1.6c-1-0.8-2.1-1.9-3-2.8c-0.4-0.4-0.8-0.7-1.1-1.2
	c-0.4-1,0.4-6,0.8-6.8c0.4-0.5,0.9-0.4,1.3-0.2c1.3,0.5,2.5,1,3.9,1.5C507.2,272.8,507.1,273.3,507.2,273.8z"/>
<path style="fill:#87F4D9;" d="M521.5,261.8c0,2.3-0.4,2.7-2.3,2.2c-0.4-0.1-1.1-0.4-1.2,0.1c-0.4,1.6-1.7,1.6-2.9,1.8
	c-1.1,0.3-1.6,1.3-2.3,2c-0.8,0.9-1.1,0.7-1.5-0.4c-0.7-2.3-1-4.4-1.5-6.6c-0.2-0.8,0.3-1.1,1.1-1.2c2.7-0.6,5.5-1.3,8.2-1.8
	c0.8-0.2,1.3,0.1,1.6,0.8C521.1,259.8,521.6,260.8,521.5,261.8z"/>
<path style="fill:#87F4D9;" d="M494.5,291.7c-0.2,1.3-1.1,1.9-1.7,2.5c-1.5,1.8-1.6,2.7-0.5,4.5c0.2,0.4,0.4,0.7,0.2,1.1
	c-0.5,1.3-0.1,2.7,0.1,4.1c0.1,0.4,0.2,0.9-0.3,0.8c-1,0-1.4,1.6-2.5,1c-0.5-0.2-0.1-0.7,0-1c0.4-0.9,0.7-1.7,0.8-2.7
	c0.4-1.5-0.4-2.2-1.7-2.5c-3.1-0.6-4.7-3-6.8-4.9c-0.4-0.4-0.1-0.7,0.3-0.8C486.4,293.2,490.3,292.4,494.5,291.7z"/>
</svg>
