<?xml version="1.0" encoding="iso-8859-1"?>
<!-- Generator: Adobe Illustrator 24.3.0, SVG Export Plug-In . SVG Version: 6.00 Build 0)  -->
<svg version="1.1" xmlns="http://www.w3.org/2000/svg" xmlns:xlink="http://www.w3.org/1999/xlink" x="0px" y="0px"
	 viewBox="0 0 1153.891 1080" style="enable-background:new 0 0 1153.891 1080;" xml:space="preserve">
<g id="Layer_1">
	<path d="M0,0v1080h1153.891V0H0z M807.705,375.397c0.965,0.276,2.053,1.714,2.269,2.779c3.309,16.334,6.506,32.69,9.641,49.059
		c0.238,1.241,0.146,2.757-0.356,3.896c-7.094,16.093-14.287,32.142-21.541,48.393c-12.306-0.95-24.487-1.89-36.668-2.831
		c-0.268-0.021-0.534-0.062-0.802-0.092c-12.143-1.353-12.143-1.353-18.092-13.112c8.506-3.61,16.878-7.506,25.512-10.695
		c4.998-1.846,7.014-4.723,7.902-9.978c4.052-23.98,8.612-47.873,13.091-72.353C795.266,372.138,801.525,373.629,807.705,375.397z
		 M815.581,490.092c0.847-1.514,1.99-2.863,2.996-4.288c0.503,0.157,1.005,0.313,1.508,0.47
		c-1.201,21.221-2.402,42.441-3.616,63.884c-19.898,3.889-31.023,17.482-38.616,35.039c-3.243-1.354-3.543-3.139-2.663-5.989
		c3.252-10.528,6.099-21.181,9.292-31.728c0.847-2.797,2.219-5.477,3.64-8.05C797.223,522.955,806.392,506.518,815.581,490.092z
		 M525.901,279.258c18.03-9.002,35.97-18.185,54.027-27.133c1.497-0.742,3.987-0.835,5.447-0.099
		c63.106,31.806,126.144,63.75,189.218,95.619c1.924,0.972,2.899,1.855,2.462,4.228c-5.237,28.423-10.361,56.868-15.643,85.282
		c-0.217,1.167-1.496,2.581-2.63,3.069c-20.229,8.714-40.506,17.317-60.8,25.879c-1.024,0.432-2.473,0.71-3.427,0.325
		c-10.054-4.066-20.048-8.281-30.918-12.813c15.494-9.467,30.312-18.521,45.457-27.774c-6.906-8.287-13.59-16.334-20.302-24.357
		c-15.281-18.266-30.626-36.477-45.807-54.826c-2.209-2.67-4.341-3.481-7.841-3.22c-21.851,1.628-43.723,2.993-65.599,4.266
		c-2.802,0.163-4.292,1.185-5.579,3.559c-5.952,10.981-12.063,21.875-18.685,33.824c-3.144-11.119-5.691-21.408-8.969-31.458
		c-7.397-22.678-9.286-46.33-12.927-69.679C523.02,281.598,523.718,280.348,525.901,279.258z M494.166,495.698
		c11.983-17.042,23.789-33.832,35.784-50.891c17.643,15.681,34.982,31.093,52.57,46.725c-15.31,14.058-30.344,27.864-45.744,42.005
		C522.569,520.921,508.459,508.39,494.166,495.698z M532.154,546.897c-4.432,4.318-8.76,8.13-12.617,12.371
		c-10.131,11.139-21.843,19.779-36.295,24.504c-2.564,0.838-4.436,0.694-6.652-0.915c-6.414-4.656-12.945-9.159-19.569-13.512
		c-2.041-1.341-2.582-2.787-2.104-5.012c1.41-6.565,2.8-13.135,4.095-19.724c0.983-5.001,3.198-9.189,6.647-13.04
		c6.63-7.402,12.844-15.176,19.721-23.381c10.634,9.284,20.951,18.279,31.252,27.292c2.732,2.39,5.292,4.997,8.165,7.197
		C526.821,544.228,529.243,545.259,532.154,546.897z M498.201,422.665c0.514-6.434,1.048-12.867,1.716-19.286
		c0.126-1.21,0.585-2.786,1.457-3.457c8.723-6.721,17.564-13.288,26.938-20.322c2.238,7.937,4.366,15.128,6.215,22.391
		c0.312,1.225-0.301,2.91-0.963,4.122c-5.856,10.734-11.88,21.376-17.714,32.121c-1.807,3.327-3.79,4.372-7.328,2.323
		c-3.571-2.068-8.971-2.766-10.692-5.735C496.1,431.842,497.871,426.797,498.201,422.665z M543.082,436.75
		c-1.901-1.667-4.466-2.578-7.23-4.122c10.934-19.706,22.686-39.793,33.258-60.483c4.139-8.1,9.136-10.826,17.913-10.896
		c14.23-0.113,28.454-1.618,42.668-2.689c2.356-0.177,3.99,0.154,5.594,2.083c16.955,20.385,34.003,40.692,51.275,61.319
		c-1.035,0.727-1.937,1.439-2.912,2.034c-29.504,18-59.04,35.949-88.484,54.046c-2.545,1.564-4.023,1.417-6.198-0.539
		C573.757,463.825,558.462,450.238,543.082,436.75z M510.167,295.737c1.967,13.772,3.935,27.543,5.902,41.315
		c1.255,8.787,2.419,17.589,3.822,26.352c0.411,2.568-0.049,4.211-2.28,5.763c-5.063,3.521-9.92,7.34-15.793,11.736
		c2.57-29.079,5.05-57.132,7.53-85.185C509.62,295.724,509.894,295.731,510.167,295.737z M472.736,93.725
		c0.75-6.328,5.074-9.748,11.443-9.26c4.692,0.36,9.383,0.8,14.052,1.384c4.643,0.58,8.365,3.924,8.361,8.408
		c-0.007,6.399-0.794,12.798-1.262,19.399c-11.573-1.045-22.624-2.042-33.984-3.068C471.837,104.439,472.104,99.06,472.736,93.725z
		 M434.311,419.492c2.546-28.821,5.011-57.648,7.554-86.469c2.815-31.905,5.691-63.804,8.513-95.708
		c2.562-28.954,5.083-57.912,7.634-86.868c0.472-5.362,0.94-10.726,1.52-16.078c0.599-5.525,4.521-9.239,10.055-8.891
		c10.199,0.641,20.39,1.52,30.55,2.615c5.242,0.565,8.692,5.253,8.231,10.725c-1.513,17.969-3.133,35.929-4.725,53.891
		c-2.293,25.871-4.601,51.742-6.896,77.613c-2.604,29.356-5.207,58.712-7.799,88.069c-2.261,25.604-4.504,51.209-6.759,76.814
		c-1.735,19.706-3.47,39.412-5.224,59.117c-0.185,2.076,0.008,4.367-3.056,4.778c-0.71,0.095-1.299,1.269-1.9,1.984
		c-5.804,6.903-11.381,14.012-17.461,20.66c-5.17,5.653-8.463,12.017-9.898,19.478c-0.838,4.355-1.614,8.754-2.902,12.985
		c-2.329,7.645-1.743,14.845,2.579,21.571c1.47,2.288,3.147,4.65,5.27,6.27c5.234,3.996,10.82,7.528,16.167,11.382
		c0.941,0.678,2.07,2.06,1.999,3.035c-0.903,12.337-2.011,24.658-3.102,37.395c-16.538-1.47-32.438-2.884-48.855-4.343
		c0.406-5.303,0.743-10.352,1.188-15.391c3.17-35.926,6.354-71.851,9.551-107.774C429.124,477.396,431.752,448.447,434.311,419.492z
		 M420.127,694.847c-0.855-0.086-2.243-1.327-2.288-2.094c-0.926-15.936-1.693-31.881-2.522-48.445
		c16.169,1.44,31.78,2.83,47.958,4.271c-3.618,16.563-7.155,32.758-10.746,49.198C441.49,696.807,430.8,695.914,420.127,694.847z
		 M443.096,711.794c-0.356,5.663,0.219,11.232-5.494,14.434c-3.674,2.06-7.261,1.694-10.514-0.856
		c-5.165-4.05-3.916-9.443-2.938-15.225C430.694,710.715,436.775,711.244,443.096,711.794z M423.293,364.406
		c0.312,0.057,0.624,0.114,0.936,0.171c-0.895,10.432-1.79,20.865-2.74,31.943c-6.754-3.044-12.964-5.843-19.67-8.865
		C409.14,379.729,416.217,372.068,423.293,364.406z M394.272,399.877c1.59,0.944,2.975,1.936,4.493,2.636
		c6.213,2.866,12.503,5.568,18.672,8.524c1.069,0.512,2.48,2.019,2.404,2.958c-1.505,18.583-3.207,37.15-4.913,56.212
		c-14.949-1.453-29.592-2.876-44.851-4.359C378.256,443.548,386.268,421.701,394.272,399.877z M366.032,480.279
		c16.047,1.586,31.642,3.127,47.62,4.706c-2.47,27.913-4.906,55.442-7.387,83.474c-6.862-0.491-13.527-0.819-20.144-1.578
		c-1.207-0.138-2.46-1.875-3.273-3.142c-7.914-12.34-12.158-25.728-12.885-40.514c-0.666-13.537-2.574-27.012-3.923-40.515
		C365.976,482.069,366.032,481.417,366.032,480.279z M364.946,853.568c19.153-37.887,38.167-75.5,57.262-113.275
		c15.268,3.749,22.392,1.647,31.624-9.314c29.115,11.242,58.372,22.538,88.066,34.003C518.872,818.29,495.942,871.376,472.78,925
		C436.731,901.12,400.94,877.412,364.946,853.568z M502.414,893.777c6.734-15.612,13.268-30.785,19.821-45.948
		c10.291-23.812,20.631-47.604,30.836-71.453c1.048-2.45,2.486-3.833,4.973-4.696c7.105-2.465,14.161-5.084,21.164-7.826
		c1.656-0.648,3.35-1.75,4.483-3.099c17.648-21.013,35.279-42.042,52.757-63.196c9.598-11.617,18.883-23.493,28.355-35.215
		c2.367-2.93,5.088-5.583,7.346-8.59c11.211-14.929,27.461-21.967,44.06-28.551c2.046-0.812,3.879-2.269,5.662-3.623
		c10.26-7.795,20.454-15.679,30.734-23.448c1.369-1.034,3.067-1.667,4.672-2.346c6.265-2.651,11.394-1.079,13.766,5.329
		c1.925,5.201,3.13,10.904,3.387,16.444c0.757,16.339-2.83,32.062-8.052,47.454c-2.58,7.604-8.267,12.853-13.927,18
		c-9.256,8.419-18.79,16.532-28.154,24.834c-1.17,1.037-2.348,2.291-2.967,3.69c-6.544,14.794-12.014,29.94-14.279,46.062
		c-0.437,3.113-1.403,6.399,2.377,8.534c0.488,0.276,0.176,2.468-0.171,3.653c-10.883,37.148-21.815,74.282-32.745,111.416
		c-1.745,5.93-3.382,11.899-5.384,17.742c-0.432,1.261-2.169,2.87-3.393,2.949C612.509,905.431,557.533,903.603,502.414,893.777z
		 M683.34,1010.5c-2.064,7.049-6.849,9.707-13.884,7.761c-3.106-0.859-6.179-1.841-9.261-2.785
		c-7.147-2.191-9.727-6.776-7.688-13.854c15.502-53.832,31.002-107.664,46.545-161.484c8.24-28.53,16.533-57.045,24.868-85.548
		c3.317-11.343,6.716-22.664,10.32-33.918c0.601-1.876,2.24-3.578,3.754-4.976c10.472-9.667,21.074-19.194,31.56-28.846
		c5.883-5.416,9.337-12.371,11.814-19.886c0.378,0.055,0.756,0.11,1.134,0.165c-0.208,1.468-0.243,2.985-0.648,4.396
		c-5.423,18.855-10.886,37.699-16.363,56.538c-22.239,76.5-44.486,152.998-66.732,229.496
		C693.625,975.208,688.505,992.86,683.34,1010.5z M862.192,732.578c-6.325,23.9-13.529,47.566-20.078,71.408
		c-3.452,12.565-5.963,25.392-9.506,37.929c-2.404,8.509-5.718,16.776-8.9,25.045c-2.143,5.567-6.276,8.979-12.111,10.874
		c-20.389,6.622-41.298,10.926-62.363,14.596c-6.728,1.172-13.486,2.176-20.923,3.368c8.413-28.973,16.622-57.234,24.824-85.496
		c3.934-13.554,7.931-27.09,11.72-40.684c0.806-2.89,2.026-4.83,5.108-5.337c2.913-0.479,4.433-2.368,5.693-5.016
		c8.198-17.235,16.49-34.427,24.957-51.531c1.594-3.222,1.833-6.252,1.317-9.661c-3.04-20.087-6.494-40.13-8.775-60.305
		c-1.462-12.925-1.239-26.049-1.6-39.089c-0.426-15.365,8.293-25.142,20.847-31.756c9.227-4.862,17.607-1.374,21.968,8.109
		c5.668,12.325,8.803,25.462,10.635,38.767c2.846,20.669,10.477,40.009,15.462,60.07c2.009,8.084,3.881,16.224,5.296,24.428
		C867.779,709.99,865.138,721.443,862.192,732.578z M881.449,475.984c-1.055,3.744-2.077,7.502-3.276,11.201
		c-1.198,3.698-3.417,4.963-7.073,3.927c-11.87-3.364-23.717-6.809-35.549-10.304c-1.079-0.319-2.213-1.019-2.942-1.867
		c-5.202-6.053-6.736-6.964-14.785-8.015c2.773-6.237,5.37-12.077,8.125-18.272c7.724,2.242,15.286,4.433,22.845,6.631
		c9.273,2.696,18.549,5.379,27.813,8.102C881.805,468.914,882.891,470.865,881.449,475.984z M900.793,425.563
		c-0.87,2.964-1.665,5.953-2.612,8.892c-1.127,3.501-3.485,5.006-7.146,3.942c-18.441-5.355-36.888-10.688-55.282-16.201
		c-1.146-0.344-2.395-2.04-2.672-3.308c-1.576-7.215-2.872-14.491-4.412-22.522c13.64,3.941,26.758,7.723,39.871,11.523
		c9.029,2.616,18.05,5.258,27.075,7.884C901.582,417.508,902.596,419.423,900.793,425.563z"/>
</g>
<g id="Layer_3">
</g>
<g id="Layer_4">
</g>
<g id="Layer_2">
</g>
</svg>
