<?xml version="1.0" encoding="iso-8859-1"?>
<!-- Generator: Adobe Illustrator 25.3.1, SVG Export Plug-In . SVG Version: 6.00 Build 0)  -->
<svg version="1.1" xmlns="http://www.w3.org/2000/svg" xmlns:xlink="http://www.w3.org/1999/xlink" x="0px" y="0px"
	 viewBox="0 0 1545.531 2365.772" style="enable-background:new 0 0 1545.531 2365.772;" xml:space="preserve">
<g id="Layer_3">
</g>
<g id="Layer_1">
</g>
<g id="Layer_4">
</g>
<g id="Layer_6">
</g>
<g id="Layer_2">
</g>
<g id="Layer_7">
</g>
<g id="Layer_13">
</g>
<g id="Layer_12">
</g>
<g id="Layer_11">
</g>
<g id="Layer_10">
</g>
<g id="Layer_9">
</g>
<g id="Layer_8">
	<path style="fill:#C68C87;" d="M543.305,1968.539c-14.653,0.721-26.184-7.954-37.021-18.127c-6.642-6.236-11.655-16.64-23.72-7.87
		c-2.636,1.916-7.753,1.186-10.191-2.419c-7.471-11.049-17.794-20.306-20.741-34.245c-0.974-4.608-3.206-8.003,4.431-7.112
		c5.386,0.629,8.637-3.385,11.688-7.474c18.111-24.278,44.08-37.413,71.93-44.827c21.079-5.611,39.246,8.44,57.009,18.494
		c14.48,8.195,20.782,23.052,28.018,36.936c4.806,9.222,7.158,19.735,14.247,27.746c3.46,3.91-0.329,5.99-1.735,8.67
		c-1.782,3.398-3.85,1.722-6.465,0.666c-22.625-9.137-39.232-6.142-51.312,14.557
		C570.385,1969.057,558.537,1969.018,543.305,1968.539z M521.84,1908.661c-0.04,15.197,16.152,32.292,30.271,31.418
		c11.136-0.689,30.203-17.864,29.327-28.531c-1.261-15.345-19.057-30.72-37.844-30.577
		C531.099,1881.066,521.882,1892.799,521.84,1908.661z"/>
	<path style="fill:#C68C87;" d="M965.039,1845.307c8.53,0.158,15.553,4.027,22.563,7.362c21.664,10.307,43.499,20.449,57.602,41.426
		c1.556,2.314,4.736,5.183,7.035,5.075c13.513-0.635,7.317,7.116,5.647,12.67c-3.33,11.076-12.08,18.778-18.141,28.158
		c-3.072,4.754-8.982,5.662-12.996,2.481c-7.073-5.606-11.187-1.857-16.112,2.691c-7.166,6.617-14.346,12.576-23.294,17.614
		c-8.807,4.959-16.426,6.757-25.371,7.107c-11.863,0.465-21.07-1.823-28.135-14.286c-11.751-20.73-30.063-25.179-51.941-15.995
		c-2.915,1.224-5.526,3.232-7.44-0.691c-1.325-2.715-5.041-4.894-2.14-8.898c10.36-14.297,14.315-31.969,24.391-46.455
		C913.376,1859.602,939.032,1852.184,965.039,1845.307z M989.313,1909.407c-0.099-20.383-8.771-26.415-29.919-26.192
		c-8.693,0.092-12.72,3.36-17.908,8.243c-5.528,5.203-10.122,10.705-10.797,18.471c-1.1,12.646,15.127,29.91,28.656,30.753
		C973.39,1941.557,989.388,1924.862,989.313,1909.407z"/>
	<path style="fill:#C68C87;" d="M1019.098,1983.076c23.106,28.959,25.5,59.711,14.714,92.481c-1.694,5.146-4.178,6.669-8.014,1.572
		c-1.117-1.484-2.594-2.694-3.883-4.052c-8.506-8.953-20.261-16.579-24.619-27.233c-4.619-11.29,9.386-20.294,13.306-31.29
		C1014.112,2004.706,1016.199,1994.602,1019.098,1983.076z"/>
	<path style="fill:#C68C87;" d="M480.602,2081.629c-14.975-36.59-12.503-69.162,12.003-100.551
		c1.881,20.434,8.945,37.79,19.572,53.506c4.545,6.722,3.56,10.54-2.042,15.876C500.137,2059.982,491.063,2070.475,480.602,2081.629
		z"/>
	<path style="fill:#C68C87;" d="M626.988,2131.093c13.586,5.6,27.32,6.367,41.146,5.803c5.553-0.227,7.882,1.026,7.829,7.267
		c-0.302,35.118,1.568,27.895-27.626,28.643c-4.854,0.124-9.717,0.001-14.573-0.121c-12.335-0.311-14.918-3.2-11.252-15.009
		C625.168,2149.125,627.075,2140.619,626.988,2131.093z"/>
	<path style="fill:#C68C87;" d="M883.14,2132.331c0.556,9.744,3.325,18.953,6.236,28.213c2.598,8.263,0.852,13.516-9.891,12.756
		c-11.568-0.818-23.245-0.391-34.863-0.085c-6.162,0.162-8.486-1.983-8.836-8.366c-1.489-27.161-1.682-27.345,24.584-27.75
		c8.038-0.124,15.427-2.314,22.918-4.565L883.14,2132.331z"/>
	<path style="fill:#C68C87;" d="M777.239,2150.983c-0.006-17.448,0.008-17.618,14.891-16.377c6.246,0.521,15.701-2.832,18.009,2.031
		c3.055,6.438,0.797,15.357,1.018,23.203c0.096,3.4-1.754,4.686-4.621,5.092c-8.509,1.205-17.023,2.382-25.548,3.466
		c-3.993,0.508-3.889-2.173-3.787-5.016C777.349,2159.255,777.239,2155.117,777.239,2150.983z"/>
	<path style="fill:#C68C87;" d="M733.611,2151.962c0-1.893,0.008-1.146-0.001-0.398c-0.192,16.921-0.27,17.317-17.076,13.98
		c-5.235-1.039-13.584,1.536-15.229-3.711c-2.365-7.543-1.098-16.266-1.116-24.486c-0.007-3.41,3.07-2.436,5.026-2.639
		c3.71-0.385,7.496-0.207,11.162-0.806C734.38,2130.958,734.37,2130.896,733.611,2151.962z"/>
	<path style="fill:#C68C87;" d="M883.289,2132.532c0.172-0.274,0.308-0.585,0.531-0.807c0.096-0.095,0.373-0.008,0.567-0.003
		c-0.415,0.204-0.83,0.408-1.246,0.611C883.14,2132.331,883.289,2132.532,883.289,2132.532z"/>
	<path style="fill:#C68C87;" d="M579.824,869.97c-0.9,0.195-2.434,0.78-2.594,0.52c-0.81-1.317,0.506-1.436,1.352-1.755
		C579.005,869.137,579.419,869.549,579.824,869.97z"/>
	<path style="fill:#00C163;" d="M1127.619,1793.621c-19.577,1.019-36.596-6.49-52.599-16.525
		c-13.007-8.156-24.632-18.307-37.692-26.52c-26.115-16.423-53.942-17.367-83.304-12.481c-48.313,8.04-87.019,33.628-120.115,67.432
		c-21.364,21.821-34.073,49.073-27.537,81.54c0.818,4.063,0.501,6.677-4.822,5.607c-31.63-6.357-63.231-5.144-94.811,0.507
		c-0.971,0.174-2.095-0.506-2.876-0.715c8.546-37.227-5.779-66.942-31.061-91.971c-23.809-23.569-50.807-43.66-82.851-54.441
		c-28.381-9.549-57.818-15.531-88.096-8.366c-19.884,4.706-35.708,16.845-51.684,28.66c-12.03,8.896-23.669,18.512-39.037,21.257
		c-6.792-0.332-13.488-0.19-19.258,4.199c0,0-0.615,0.189-0.603,0.185c-3.668-0.063-7.348-0.121-11.028-0.18
		c0,0,0.181,0.099,0.181,0.099c-7.044-5.887-15.358-7.096-24.145-6.566c-5.276-1.373-5.263-5.489-5.276-9.793
		c-0.042-14.654-0.009-29.315-0.457-43.959c-0.157-5.122,1.311-6.345,6.474-7.68c11.459-2.964,22.53-7.538,33.609-11.843
		c28.843-11.21,59.614-17.368,87.657-29.853c18.608-8.285,37.337-5.339,55.533-9.821c6.958-1.714,9.471,5.088,14.744,6.549
		c23.834,6.606,46.379,16.624,69.084,26.262c20.467,8.688,36.796,22.012,51.245,38.99c17.676,20.77,36.072,41.057,64.895,47.711
		c37.354,8.624,67.276-2.644,93.13-29.806c12.891-13.544,23.273-29.608,39.01-40.358c28.144-19.225,61.011-27.812,91.732-41.264
		c21.3-9.326,41.813-5.606,62.381-3.044c10.305,1.284,20.663,7.284,30.89,11.321c23.268,9.185,47.631,14.847,71.068,23.533
		c12.321,4.566,23.508,13.318,37.657,12.797c2.599-0.096,2.533,2.245,2.272,4.13c-2.237,16.091-0.879,32.27-1.144,48.406
		c-0.063,3.856-1.37,6.483-4.898,7.973C1145.779,1785.844,1136.169,1787.869,1127.619,1793.621z"/>
	<path style="fill:#00C163;" d="M1045.378,2224.697c25.991-15.917,40.479-39.864,48.387-68.626
		c3.888-14.14,3.03-28.107,0.058-42.134c-1.606-7.581-5.206-14.511-5.235-22.716c-0.027-7.891-6.982-11.79-13.704-12.804
		c-8.886-1.34-8.165-6.091-6.314-12.161c8.016-26.281,7.071-52.213-2.381-78.029c-3.387-9.251-7.875-17.78-13.45-25.8
		c-2.571-3.699-4.076-6.986,0.205-10.719c15.144-13.209,21.7-32.845,35.091-47.437c1.831-1.995,2.812-4.48,5.95-3.885
		c25.209,4.78,44.707-7.195,64.164-22.795c0,15.629,1.032,30.123-0.231,44.414c-2.125,24.026-0.579,48.088-1.935,72.056
		c-2.366,41.814-2.783,84.057-11.604,125.034c-10.068,46.774-39.062,80.832-80.397,104.46c-5.54,3.167-11.891,0.23-17.598,2.238
		C1046.049,2225.426,1045.713,2225.061,1045.378,2224.697z"/>
	<path style="fill:#00C163;" d="M465.977,2225.144c-10.226,1.196-18.677-2.504-27.226-8.037
		c-48.967-31.694-72.099-76.956-76.92-134.683c-5.441-65.147-6.473-130.367-8.632-195.592c-0.085-2.576-0.011-5.158-0.011-8.991
		c6.544,4.414,12.231,8.353,18.021,12.134c10.606,6.925,22.273,12.155,34.899,9.952c14.589-2.545,21.849,6.781,27.14,16.291
		c6.819,12.259,14.34,23.634,24.17,33.456c3.856,3.852,4.445,6.685,1.215,11.456c-21.921,32.378-26.741,67.609-16.016,104.952
		c1.998,6.957,0.719,9.562-6.42,11.503c-9.259,2.517-15.408,7.943-14.319,19.55c0.754,8.033-4.669,15.367-5.926,23.625
		c-5.404,35.5,14.195,80.273,44.47,99.135c2.212,1.378,4.722,2.214,5.974,4.74L465.977,2225.144z"/>
	<path style="fill:#00C163;" d="M749.404,1333.536c-25.859,0-51.719,0.194-77.576-0.051c-30.031-0.284-59.939,0.797-89.494,6.614
		c-6.493,1.278-8.273-0.881-8.604-7.442c-1.472-29.183-3.571-58.334-5.418-87.498c-0.132-2.077-1.414-5.271,1.464-5.682
		c3.952-0.564,8.628-0.614,10.934,3.763c9.153,17.381,24.602,30.068,34.59,46.82c9.335,15.656,24.326,22.941,41.447,22.772
		c21.986-0.217,42.614,7.266,64.416,8.256c27.041,1.228,53.827-0.611,80.652-2.291c20.118-1.26,39.79-6.633,60.027-7.769
		c12.05-0.677,22.493-5.942,30.069-15.579c12.943-16.465,25.598-33.158,38.276-49.829c1.825-2.4,3.271-5.271,6.284-6.145
		c4.26-1.237,7.745-2.027,7.183,5.175c-2.302,29.49-4.192,59.016-5.746,88.555c-0.315,5.989-2.142,8.15-7.923,7.38
		c-11.85-1.578-23.676-3.641-35.583-4.434c-45.656-3.041-91.404-3.69-137.141-4.495c-2.622-0.046-5.24-0.373-7.86-0.569
		C749.403,1331.902,749.404,1332.719,749.404,1333.536z"/>
	<path style="fill:#00C163;" d="M1000.916,1192.428c3.403-7.821,3.488-17.988,16.381-17.185c2.397,0.149,5.626-2.422,7.4-4.608
		c12.016-14.809,25.997-27.997,36.206-44.308c6.844-10.935,7.694-20.616,1.185-33.089c-8.815-16.89-6.373-35.511-0.739-53.644
		c2.745-8.835,3.714-18.222,5.485-27.363c0.731,0.135,1.49,0.195,2.192,0.427c27.466,9.07,28.237,9.014,30.387,37.573
		c3.199,42.485-5.879,82.526-28.289,118.984C1055.183,1195.144,1036.734,1200.952,1000.916,1192.428z"/>
	<path style="fill:#00C163;" d="M445.063,1011.569c3.688,17.438,5.632,35.322,11.379,52.348c1.356,4.017,0.054,7.349-1.842,10.65
		c-5.218,9.081-4.972,19.942-10.25,29.286c-3.388,5.998,1.289,13.125,4.614,18.965c10.108,17.758,25.48,31.386,37.856,47.382
		c1.696,2.192,5.225,4.712,7.536,4.393c13.188-1.816,12.772,8.82,16.265,16.212c-35.855,11.329-56.087,3.112-74.106-29.134
		c-23.223-41.562-28.492-86.022-22.291-132.487c0.848-6.352,4.925-9.905,10.299-12.213c3.404-1.462,7.028-2.468,10.624-3.414
		C438.329,1012.719,441.607,1012.246,445.063,1011.569z"/>
	<path style="fill:#00C163;" d="M521.794,1989.991c12.8,3.865,24.854,2.682,36.793,2.851c4.603,0.065,7.038,0.946,6.798,6.141
		c-0.333,7.198,2.72,13.879,3.826,20.833c3.438,21.617,13.862,37.625,34.587,46.156c1.954,0.804,3.546,2.488,5.559,3.947
		c-21.586,5.058-25.857,3.921-41.285-10.111c-17.675-16.075-31.733-34.867-42.551-56.126
		C523.518,1999.748,521.559,1995.771,521.794,1989.991z"/>
	<path style="fill:#00C163;" d="M903.525,2070.403c1.976-1.572,2.962-2.821,4.237-3.302c29.742-11.243,34.566-37.698,38.318-64.203
		c0.983-6.946,2.693-8.606,9.254-8.554c8.932,0.07,18.035-0.335,26.769-2.046c9.43-1.848,8.158,2.104,5.565,7.84
		c-7.271,16.082-16.794,30.769-28.484,43.917c-6.694,7.528-14.226,14.322-21.524,21.295
		C927.962,2074.614,916.809,2076.135,903.525,2070.403z"/>
	<path style="fill:#00C163;" d="M706.218,1679.435c31.653-4.029,63.365-2.535,95.028-2.603c7.723-0.016,5.929,4.255,2.862,7.699
		c-8.146,9.147-18.356,14.982-30.35,17.897c-23.308,5.664-43.81-0.462-62.542-14.378
		C708.522,1686.049,706.245,1683.577,706.218,1679.435z"/>
	<path style="fill:#00C163;" d="M466.396,2224.634c1.488,0.509,2.976,1.019,4.464,1.528c-0.239,0.248-0.444,0.657-0.724,0.718
		c-1.766,0.382-3.431,0.411-4.158-1.738C465.977,2225.144,466.396,2224.634,466.396,2224.634z"/>
	<path style="fill:#00C163;" d="M1046.383,2225.792c-1.427,1.33-2.912,1.951-4.579,0.38c1.192-0.491,2.383-0.983,3.574-1.475
		C1045.713,2225.061,1046.049,2225.426,1046.383,2225.792z"/>
	<path style="fill:#C0C276;" d="M366.69,1543.556c9.111-13.576,19.861-24.498,30.362-35.5
		c35.498-37.189,71.53-73.795,114.622-102.574c8.364-5.586,15.702-12.819,23.074-19.759c14.276-13.437,32.015-15.734,50.458-18.434
		c41.043-6.009,82.36-3.373,123.499-5.719c26.255-1.497,52.71,0.84,79.077,0.898c51.8,0.115,103.55,0.941,155.033,7.453
		c18.972,2.4,32.878,13.518,44.92,27.219c2.437,2.773,4.383,5.682,7.668,7.694c58.716,35.974,103.928,86.534,150.892,139.046
		c-14.416-1.866-26.411-2.88-38.19-5.062c-21.454-3.973-43.224-4.173-64.834-6.163c-51.845-4.774-103.989-5.193-155.799-11.07
		c-27.157-3.08-54.725-2.471-81.916-5.341c-24.358-2.571-48.723-2.858-72.946-1.623c-40.733,2.076-81.518,3.829-122.127,8.262
		c-21.221,2.317-42.61,3.124-63.935,4.437C486.841,1530.998,427.001,1533.144,366.69,1543.556z"/>
	<path style="fill:#BFC176;" d="M871.048,599.304c-40.502-9.543-81.42-16.035-123.161-14.153
		c-33.937,1.53-68.033,2.381-101.002,12.339c-3.076,0.929-6.632,0.268-9.965,0.345l0.26,0.174c-0.17-5.048-3.896-2.331-5.733-2.227
		c-42.807,2.421-82.241,13.653-115.042,43.166c-33.911,30.511-66.234,62.537-85.635,104.512
		c-15.622,33.797-27.707,69.057-31.011,108.348c-6.646-11.591-8.717-22.912-8.243-34.701c2.285-56.827,17.858-110.231,44.4-160.119
		c27.927-52.492,59.777-102.654,96.401-149.624c7.445-9.548,17.116-15.49,27.833-21.702c10.927-6.333,21.92-13.097,33.315-19.116
		c27.573-14.566,57.121-21.354,87.9-23.814c30.251-2.418,60.505-7.927,90.857-4.465c42.5,4.847,86.155,3.136,126.703,20.176
		c13.048,5.483,25.757,11.771,38.761,17.365c3.974,1.71,7.005,4.075,9.583,7.445c1.549,2.025,3.603,5.041,5.572,5.154
		c18.36,1.058,25.035,16.855,33.763,28.329c26.931,35.402,52.766,72.009,72.51,111.795c20.288,40.884,42.225,81.543,52.495,126.674
		c4.456,19.581,8.647,39.301,8.968,59.609c0.21,13.223-1.712,25.775-8.396,39.705c-3.352-40.592-16.038-76.403-31.598-111.145
		c-16.392-36.601-44.458-64.516-72.448-92.203c-7.444-7.364-15.852-13.781-24.035-20.363
		c-30.877-24.836-67.926-31.07-105.762-34.803c-2.154-0.213-4.579-0.552-6.008,1.887
		C871.891,598.354,871.464,598.824,871.048,599.304z"/>
	<path style="fill:#BFC176;" d="M1163.04,1682.917c-32.497-10.749-62.974-23.362-95.174-29.539
		c-43.445-8.335-87.361-13.006-131.798-11.4c-39.402,1.424-78.812,0.256-118.231-0.16c-46.15-0.487-92.362-2.215-138.543,0.329
		c-27.028,1.489-54.075,0.363-81.107-0.933c-83.617-4.009-164.744,7.695-242.729,38.935c-1.717,0.688-3.563,1.055-5.384,1.582
		c-3.593-6.826-0.501-20.714-15.843-14.731c-0.464,0.181-2.184-2.682-3.226-4.19c-9.783-14.168-19.597-28.316-29.26-42.566
		c-1.539-2.269-5.765-4.388-0.57-7.806c15.937-10.486,26.548-26.4,39.584-39.843c3.139-3.237,5.702-4.232,10.447-4.079
		c16.064,0.517,31.565-4.735,47.711-5.398c25.06-1.03,50.022-4.235,75.067-5.899c50.485-3.354,101.058-4.559,151.569-8.38
		c70.764-5.353,141.819-3.83,212.811-1.77c51.768,1.502,103.201,7.648,155.064,8.474c38.087,0.606,76.288,4.336,114.398,7.376
		c18.834,1.502,37.172,8.414,56.389,5.414c3.126-0.488,4.48,2.373,6.2,4.209c13.064,13.951,24.584,29.439,40.332,40.71
		c3.771,2.699,1.785,4.947,0.012,7.505c-10.011,14.453-19.957,28.953-30,43.384c-0.998,1.435-3,3.818-3.689,3.553
		c-4.551-1.747-8.831-3.07-11.526,2.462C1163.744,1673.846,1162.736,1677.876,1163.04,1682.917z"/>
	<path style="fill:#BFC176;" d="M435.535,898.473c-9.813-10.902-16.238-20.47-13.659-35.609
		c4.331-25.427,11.499-49.853,18.874-74.494c10.514-35.129,30.375-63.707,54.845-89.82c8.991-9.595,18.311-18.905,27.858-27.948
		c13.424-12.716,28.552-21.874,46.712-27.55c42.237-13.201,85.596-20.941,129.197-25.693c33.44-3.644,67.516-1.661,101.322-0.418
		c38.708,1.423,76.226,11.045,113.831,18.36c30.591,5.951,60.171,18.553,82.441,43.535c16.736,18.774,34.255,36.831,49.303,57.05
		c17.53,23.554,23.026,52.214,33.093,78.903c6.605,17.511,8.148,36.285,11.198,54.616c2.046,12.294-6.455,20.483-14.058,30.919
		c-5.281-18.046-8.038-34.734-13.605-50.69c-11.817-33.873-34.188-60.407-58.691-85.302c-36.09-36.666-77.174-66.435-124.941-86.258
		c-18.82-7.81-39.314-8.05-58.986-12.029c-1.823-0.369-4.247,0.231-5.479-0.758c-19.465-15.63-41.994-6.139-63.096-7.446
		c-6.534-0.405-13.366,0.602-20.112,0.016c-10.529-0.915-20.434-0.419-30.477,4.946c-9.85,5.261-21.788,4.798-32.886,6.02
		c-35.319,3.887-65.09,20.874-93.919,39.706c-38.668,25.26-71.979,56.567-99.98,93.294c-19.134,25.096-29.414,54.141-35.255,84.9
		c-0.42,2.212-0.722,4.451-1.243,6.638C437.57,894.425,436.937,895.396,435.535,898.473z"/>
	<path style="fill:#BFC176;" d="M312.631,932.281c18.482,6.696,35.7,16.315,53.819,23.709c19.603,7.999,37.148,19.399,55.501,29.497
		c3.571,1.965,7.883,2.031,14.077,1.325c-9.488,9.934-20.169,13.694-31.098,13.965c-6.913,0.172-9.137,2.76-11.1,7.927
		c-8.29,21.827-9.838,44.701-7.395,67.401c1.04,9.665-3.186,18.724,0.346,28.538c14.218,39.501,24.385,80.963,58.349,109.985
		c19.952,17.049,41.758,25.851,68.327,17.879c5.983-1.795,10.268-5.544,15.721-9.737c5.337,9.816,10.328,19.346,15.652,28.685
		c4.933,8.652,4.035,15.308-4.714,21.209c-12.642,8.527-25.822,12.9-41.242,10.012c-21.581-4.041-43.664-4.687-64.841-11.765
		c-28.685-9.588-48.465-28.563-62.714-54.461c-10.624-19.309-18.946-39.446-25.111-60.659c-9.211-31.69-17.235-63.808-32.586-94.839
		c7.559,0,13.47,0.654,19.187-0.124c16.362-2.227,23.025-16.704,14.431-30.83c-3.294-5.415-6.523-10.966-10.54-15.827
		c-19.814-23.978-22.587-52.794-23.843-82.1L312.631,932.281z"/>
	<path style="fill:#BFC176;" d="M1124.942,1092.964c-0.107-16.853,1.534-33.667-0.109-50.584
		c-0.763-7.855-1.871-15.539-3.718-23.136c-2.434-10.011-5.153-18.378-19.116-18.191c-8.117,0.109-17.191-4.135-22.38-9.271
		c38.204-22.73,77.781-42.359,119.544-59.117c-1.439,32.812-7.3,63.703-29.042,89.706c-7.379,8.825-14.24,18.798-6.553,30.445
		c7.427,11.254,19.234,11.418,31,8.69c0.573,0.998,1.376,1.803,1.21,2.193c-16.699,39.029-25.216,80.777-39.934,120.426
		c-8.061,21.717-19.006,42.175-34.725,59.64c-21.347,23.718-49.755,31.722-79.862,35.831c-12.575,1.716-25.2,3.066-37.802,4.588
		c-6.128,0.74-11.976-0.82-17.635-2.695c-22.284-7.383-25.612-15.582-15.074-36.278c1.018-2,2.069-3.982,3.102-5.974
		c4.509-8.692,6.344-16.14,20.61-7.785c19.306,11.307,40.622,5.822,59.416-6.42c31.511-20.526,47.292-51.935,59.359-85.887
		c2.62-7.373,4.83-14.892,7.228-22.342c1.755-1.039,1.888-2.662,1.593-4.44c0,0,0.036,0.289,0.035,0.288
		C1125.702,1106.475,1133.12,1100.851,1124.942,1092.964z"/>
	<path style="fill:#BFC176;" d="M921.852,440.135c-1.88,1.26-3.653,0.374-5.226-0.516c-28.696-16.234-60.74-19.534-92.474-24.031
		c-11.015-1.561-22.327-1.553-32.455-7.386c-2.417-1.392-5.757-1.538-8.691-1.621c-30.361-0.861-60.413,0.974-90.291,7.389
		c-25.067,5.382-51.203,5.615-75.432,15.191c-8.808,3.481-17.384,7.547-27.862,12.133c5.208-15.254,12.522-27.162,19.64-39.148
		c4.568-7.692,9.392-15.231,14.049-22.87c3.833-6.287,6.691-13.747,16.784-8.431c2.595,1.367,7.14,0,9.274-2.765
		c15.795-20.465,40-20.972,62.073-26.931c45.543-12.295,88.816,0.519,132.352,11.03c6.594,1.592,10.05,7.535,14.856,11.553
		c5.374,4.493,10.649,8.901,18.058,5.45c4.042-1.883,5.903,0.702,7.281,3.065c13.073,22.42,29.439,43.018,37.834,68.038
		L921.852,440.135z"/>
	<path style="fill:#BFC176;" d="M755.804,78.014c11.092,79.033,33.263,154.792,59.218,230.127
		c-39.761-5.359-79.154-2.64-119.013,0.686C722.602,233.379,744.388,157.148,755.804,78.014z"/>
	<path style="fill:#BFC176;" d="M607.404,2118.883c-9.341,4.69-12.02,12.531-15.249,20.091c-3.162,7.402-8.141,13.42-17.035,11.438
		c-26.903-5.993-54.259-11.177-72.954-34.774c-5.194-6.556-7.898-11.26,0.52-17.918c9.944-7.866,18.442-17.544,27.812-26.17
		c1.743-1.605,4.444-5.808,7.182-1.552C553.924,2095.247,581.991,2103.506,607.404,2118.883z"/>
	<path style="fill:#BFC176;" d="M903.073,2119.59c15.899-8.264,30.408-15.041,44.105-23.186
		c9.552-5.681,17.787-13.619,24.265-22.732c3.325-4.677,5.703-5.129,9.484-1.497c11.094,10.657,22.159,21.344,33.223,32.031
		c4.167,4.026-0.864,5.911-2.293,8.173c-13.948,22.074-37.274,28.653-60.155,35.799c-4.955,1.547-10.095,2.293-15.375,2.724
		c-8.937,0.728-14.057-3.061-17.295-10.98C915.93,2132.333,913.249,2124.287,903.073,2119.59z"/>
	<path style="fill:#BFC176;" d="M872.329,597.894c1.224,0.539,2.448,1.078,3.672,1.617c-1.721,1.575-3.346,0.953-4.95-0.212
		C871.464,598.824,871.891,598.354,872.329,597.894z"/>
	<path style="fill:#BFC176;" d="M312.856,932.072c-0.325-0.048-0.691-0.024-0.956-0.176c-0.122-0.07-0.047-0.485-0.061-0.744
		c0.264,0.376,0.529,0.753,0.793,1.129C312.631,932.281,312.856,932.072,312.856,932.072z"/>
	<path style="fill:#BFC176;" d="M636.92,597.835c0.149,0.538,0.298,1.076,0.447,1.613c-0.439-0.004-0.877-0.008-1.316-0.013
		c0.384-0.471,0.768-0.941,1.141-1.419C637.18,598.009,636.92,597.835,636.92,597.835z"/>
	<path style="fill:#BFC176;" d="M921.62,440.283c0.415,0.428,0.829,0.855,1.244,1.283c-1.217,0.151-1.956-0.038-1.016-1.429
		C921.852,440.135,921.62,440.283,921.62,440.283z"/>
	<path style="fill:#A4CD12;" d="M847.237,2060.921c-25.291-1.13-50.444,0.012-75.083-7.145c-17.014-4.942-34.119-0.931-50.989,2.707
		c-22.193,4.786-44.772,3.007-67.196,3.76c-6.818,0.229-11.209-5.457-16.705-8.272c-11.624-5.953-22.385-13.579-33.624-20.312
		c-3.136-1.879-5.506-4.519-6.161-7.7c-2.543-12.356-8.059-24.019-8.035-36.997c0.019-10.244,5.395-15.358,15.664-15.865
		c17.551-0.867,34.382-5.426,50.786-11.724c13.692-5.257,24.077-14.896,33.784-25.261c10.891-11.627,25.771-10.836,39.453-13.583
		c24.681-4.955,49.249-1.16,73.687,2.406c8.223,1.2,16.007,4.993,21.139,11.839c20.562,27.429,50.793,33.537,81.911,37.351
		c9.698,1.189,14.896,5.401,15.768,15.065c1.284,14.233-4.736,26.943-8.301,40.165c-0.191,0.709-0.457,1.69-0.99,1.973
		C891.021,2040.652,873.678,2060.348,847.237,2060.921z M676.838,2012.912c6.577-1.166,11.675,1.614,16.202,5.952
		c5.135,4.92,10.195,9.925,15.468,14.693c7.804,7.055,16.837,4.873,20.314-5.085c2.357-6.75,1.762-13.427-3.516-18.809
		c-6.551-6.681-13.057-13.459-20.125-19.567c-9.931-8.582-21.783-7.832-33.995-6.551c-9.198,0.964-7.915,8.312-10.499,13.541
		c-0.95,1.922-2.867,3.385-4.414,4.987c-2.259,2.339-5.601,4.146-3.116,8.348c2.182,3.689,5.384,5.007,9.449,4.614
		C667.406,2014.571,671.852,2011.852,676.838,2012.912z M847.68,2015.469c6.142,0.46,9.176-1.071,11.367-4.717
		c2.968-4.94-1.96-5.494-4.008-7.517c-3.012-2.974-5.737-6.14-5.916-10.5c-0.212-5.145-3.19-6.6-7.647-7.81
		c-19.765-5.363-53.644,13.062-58.978,32.686c-2.015,7.412-0.413,14.503,6.284,18.984c7.199,4.818,12.618,0.459,17.604-4.667
		c3.918-4.028,7.997-7.899,12.022-11.822c6.366-6.205,13.694-8.788,22.518-6.158C843.776,2014.799,846.74,2015.262,847.68,2015.469z
		"/>
	<path style="fill:#2D9EC9;" d="M1159.625,1809.069c6.883,33.245-17.251,58.969-42.342,65.06c-8.136,1.975-15.783-0.38-23.325-1.558
		c-7.412-1.158-13.921-2.16-20.178,2.635c-4.234,3.245-4.995-0.856-6.309-3.159c-18.511-32.439-50.791-45.006-82.991-57.732
		c-10.457-4.133-20.814-1.905-30.874,0.917c-47.177,13.235-83.499,39.379-101.76,86.741c-1.101,2.855-0.765,8.464-5.686,7.395
		c-6.482-1.407-3.003-6.276-2.063-10.009c1.981-7.865-1.354-15.097-4.18-21.714c-8.573-20.078-2.204-37.842,10.593-51.911
		c24.622-27.068,53.422-48.831,90.583-56.569c13.846-2.884,27.268-6.483,41.917-5.661c21.08,1.183,38.337,10.23,53.864,22.748
		c24.717,19.929,51.685,32.994,84.004,32.479C1134.374,1818.516,1147.286,1814.951,1159.625,1809.069z"/>
	<path style="fill:#2D9EC9;" d="M351.829,1809c44.123,18.129,83.212,7.783,119.017-21.115c21.088-17.02,44.524-28.776,72.279-25.145
		c29.013,3.796,57.072,11.712,80.776,30.161c12.097,9.415,25.521,17.354,35.206,29.619c13.249,16.778,19.947,34.916,11.371,56.217
		c-2.952,7.332-5.728,15.084-2.56,22.876c1.818,4.47,0.096,6.986-3.148,7.984c-3.982,1.226-3.785-3.258-4.593-5.455
		c-18.616-50.572-56.538-78.133-107.287-90.595c-10.878-2.671-21.678-2.704-31.936,1.745c-11.99,5.199-23.692,11.085-35.383,16.944
		c-17.493,8.765-31.979,20.895-41.336,38.442c-2.407,4.513-4.799,6.401-9.609,2.404c-4.019-3.34-9.299-3.081-14.051-1.726
		C377.663,1883.585,343.249,1846.168,351.829,1809z"/>
	<path style="fill:#B03CAF;" d="M911.819,2229.633c-49.335,0.476-92.565-5.983-136.1-6.849c-48.4-0.962-96.547,2.391-144.769,6.121
		c-31.685,2.451-63.43,0.598-95.143-4.688c-24.076-4.013-46.137-11.457-66.818-23.879c-22.417-13.465-41.674-60.272-21.137-91.893
		c4.193-6.456,5.596-8.343,11.994-0.586c11.306,13.706,9.07,30.147,12.437,45.258c7.189,32.262,24.329,40.372,54.521,37.194
		c8.819-0.928,17.616-3.318,26.08-6.088c15.054-4.927,30.667,2.322,45.593-2.752c2.61-0.887,4.163,0.394,5.379,2.627
		c5.021,9.218,14.188,10.592,23.146,11.282c15.703,1.209,31.461,1.752,47.205,2.35c7.001,0.266,14.363,1.69,19.749-5.112
		c1.999-2.525,4.703-0.556,7.251-0.102c35.575,6.338,71.2,8.9,106.944,1.069c3.802-0.833,7.734-2.29,11.355,1.733
		c3.222,3.579,8.076,3.294,12.693,3.045c18.358-0.99,36.723-1.852,55.088-2.719c6.163-0.291,12.39-1.456,16.338-6.233
		c4.329-5.238,8.562-5.386,15.255-6.28c25.652-3.422,49.181,7.519,73.95,7.975c28.248,0.52,40.991-10.179,46.04-37.964
		c1.647-9.063,3.923-17.899,3.86-27.463c-0.056-8.523,7.519-15.231,12.768-21.706c2.668-3.292,6.125,2.102,7.773,5.18
		c8.824,16.485,10.735,33.334,5.773,51.865c-8.083,30.185-29.603,45.296-56.847,54.934c-7.349,2.6-14.796,5.559-22.435,6.583
		C962.003,2226.256,934.41,2232.491,911.819,2229.633z"/>
	<path style="fill:#B03CAF;" d="M605.004,1675.414c25.41,0.279,50.798-4.103,75.751,3.254c4.199,1.238,4.023,3.689,4.711,6.304
		c7.938,30.182,31.721,43.178,58.523,49.631c28.422,6.843,51.689-6.573,71.274-26.61c6.515-6.665,8.916-15.522,11.134-24.172
		c1.003-3.91,2.298-5.57,6.33-6.184c24.496-3.729,49.079-3.395,75.777-2.899c-6.236,6.401-12.973,7.523-18.776,9.99
		c-19.879,8.45-37.997,18.821-52.069,36.067c-9.447,11.578-20.507,22.095-32.04,31.641c-11.128,9.211-24.334,14.375-39.49,10.783
		c-10.764-2.551-21.592,0.992-32.488-0.286c-11.626-1.364-20.945-6.165-30.038-13.4c-18.61-14.807-31.424-35.488-50.822-49.312
		C638.159,1689.8,621.104,1683.982,605.004,1675.414z"/>
	<path style="fill:#B03CAF;" d="M629.773,2095.977c85.3-20.136,167.829-16.342,252.208,0.386
		c-6.959,3.916-12.286,6.672-14.901,12.557c-2.279,5.131-7.089,3.545-10.904,3.298c-22.836-1.484-45.776-2.3-68.449-5.172
		c-32.708-4.142-65.089-0.389-97.571,1.701c-11.949,0.769-23.857,2.198-35.771,3.451c-5.333,0.561-9.359-0.474-11.66-6.105
		C640.815,2101.418,635.882,2099.489,629.773,2095.977z"/>
	<path style="fill:#BFC176;" d="M349.833,2161.26c-11.095-23.681-15.502-49.011-16.669-74.893
		c-0.263-5.857-0.392-9.947-0.951-13.001l-3.533-48.311c-0.962-11.208-2.098-22.455-2.083-33.684
		c0.057-40.97-0.989-81.91-2.44-122.846c-0.433-12.202,0.479-22.824-10.721-33.746c-13.239-12.91-22.568-30.229-35.551-44.214
		c-18.349-19.764-32.407-42.917-50.459-66.34c0,5.757-0.309,9.108,0.048,12.385c3.338,30.624,17.729,56.513,35.354,80.836
		c19.883,27.439,30.206,57.49,29.924,91.772c-0.217,26.339-4.937,52.254-4.968,78.568c-0.022,18.702,6.411,28.28,16.815,34.87
		l-2.934,31.478c-19.537-10.954-32.239-27.966-38.062-50.993c-5.258-20.788-1.768-41.783,0.726-62.608
		c2.222-18.554,5.23-36.957,4.676-55.81c-0.715-24.339-12.196-44.189-24.992-63.481c-16.414-24.745-30.563-50.438-33.96-80.46
		c-1.369-12.102-5.637-24.191-1.721-36.671c4.208-13.414,13.595-16.198,23.138-6.16c5.66,5.953,10.9,12.423,15.551,19.197
		c18.443,26.862,36.864,53.729,59.212,77.584c5.12,5.464,8.907,12.842,20.276,14.938c0-28.536-0.45-55.963,0.187-83.365
		c0.326-13.996,3.424-25.847-10.29-38.394c-15.983-14.623-28.072-33.964-43.348-50.028c-11.267-11.849-24.294-22.352-34.779-34.365
		c-28.188-32.294-29.179-70.781-16.194-109.976c8.239-24.869,5.988-50.914,12.272-78.66
		c-32.102,32.629-58.576,64.805-60.367,112.062c-27.447-23.383-52.033-46.673-77.472-72.155
		c-0.747,15.689-0.906,29.124-2.155,42.567c-1.731,18.628-0.867,37.482,4.765,55.625c6.876,22.154,17.551,42.613,28.167,63.164
		c17.253,33.4,25.733,68.081,14.584,105.828c-4.127,13.973-5.082,29.255-2.132,43.545c7.807,37.825,26.546,68.547,61.488,87.767
		c11.428,6.285,15.926,18.217,12.305,29.701c-3.148,9.979-10.923,13.976-25.606,13.072c-26.508-1.631-52.223-7.293-77.345-15.975
		c-0.338,1.286-0.861,2.111-0.642,2.609c12.387,28.12,18.988,57.84,24.716,87.85c4.514,23.655,17.865,38.917,42.624,42.339
		c9.752,1.348,21.624,1.739,24.304,12.589c2.413,9.768,11.773,15.505,11.977,25.686c0.619,30.974,14.371,56.565,32.3,80.703
		c26.413,35.561,57.766,45.261,99.37,39.552C353.479,2170.276,352.619,2167.204,349.833,2161.26z"/>
	<path style="fill:#BFC176;" d="M1390.181,1606.039c9.554-17.316,17.373-35.432,23.027-54.426
		c9.245-31.056,1.829-62.396,2.113-95.826c-24.866,26.665-51.292,48.022-76.731,72.623c-7.044-45.169-26.715-81.503-59.927-110.506
		c2.033,19.946,3.072,39.735,6.351,59.145c2.396,14.18,5.296,28.665,9.64,42.139c3.434,10.653,4.558,20.485,2.374,30.406
		c-5.695,25.866-13.627,49.647-37.334,67.081c-17.476,12.852-29.972,32.42-44.963,48.741c-9.381,10.212-15.32,23.406-26.491,31.809
		c-3.962,2.98-5.299,5.252-4.851,9.714c3.113,31.051,2.739,62.264,4.265,93.39c0.151,3.067-1.97,7.654,1.921,8.9
		c3.326,1.065,5.656-3.07,7.874-5.389c21.292-22.266,40.333-46.345,57.391-72c7.878-11.849,15.616-23.894,25.825-33.87
		c9.505-9.288,18.53-6.303,22.456,6.515c1.237,4.039,2.109,8.066,1.554,12.18c-1.642,12.18-3.28,24.371-5.386,36.476
		c-4.856,27.913-20.091,50.988-35.275,73.983c-15.694,23.767-24.86,49.19-21.597,78.147c2.642,23.442,6.107,46.838,7.529,70.356
		c1.235,20.44-3.135,39.975-15.363,57.351c-1.412,2.006-2.905,3.884-4.464,5.66l-6.659-62.722
		c-2.147-20.512-3.906-41.009-4.653-61.63c-1.201-33.173,6.738-63.569,26.249-90.598c10.069-13.948,18.775-28.726,26.937-43.795
		c8.823-16.289,10.57-34.314,11.505-52.564c-9.212,10.775-17.493,21.791-25.16,33.22c-15.661,23.344-37.506,41.662-52.64,65.481
		c-3.497,5.504-5.956,12.537-12.526,15.516c-5.046,2.288-5.58,5.976-5.57,10.777c0.099,44.306-3.207,88.549-2.347,132.88
		c0.304,15.663-3.851,31.239-1.557,47.031l-4.615,41.024c-0.249,1.055-0.396,2.219-0.399,3.541
		c-0.079,32.445-5.806,63.784-20.799,94.059c27.984,5.162,54.746,5.209,78.127-9.897c28.208-18.224,45.397-46.271,56.855-77.159
		c6.05-16.31,3.809-34.736,13.525-50.964c5.679-9.487,10.132-16.224,21.705-17.915c31.621-4.62,42.08-14.523,49.076-46.237
		c5.845-26.499,10.783-53.195,21.83-78.23c1.03-2.335,2.046-5.454,0.002-7.421c-2.326-2.239-4.857,0.604-7.13,1.311
		c-22.959,7.15-46.433,11.539-70.377,13.325c-11.091,0.827-20.118-2.492-23.809-14.294c-3.281-10.491,0.478-22.775,11.314-27.935
		c15.739-7.494,26.734-20.47,37.277-32.698c21.13-24.506,27.541-54.976,25.331-86.944c-1.179-17.062-8.296-33.372-7.217-50.824
		C1366.163,1656.428,1376.551,1630.743,1390.181,1606.039z"/>
	<path style="fill:#00C263;" d="M1020.611,835.848c-30.812-44.26-111.416-99.337-106.977-100.818
		c-32.851-24.897-76.09-39.386-120.836-44.621c0.253,1.431,0.4,2.911,0.465,4.415c-0.357,2.634-0.519,4.415-0.847,6.164
		c-4.73,25.246-25.6,55.35-37.453,54.061c-13.043-1.419-33.957-34.192-36.931-57.544c-0.34-2.669-0.332-5.136-0.03-7.408
		c-46.412,5.057-88.929,19.869-116.886,43.082c2.484,0.383-45.648,24.193-65.071,45.685c-18.958,20.978-39.305,41.455-50.963,67.979
		c-13.067,29.726-19.096,64.174-15.294,82.197c3.933-7.454,5.983,4.853,4.672,19.304c-3.271,36.07,2.421,71.069,12.857,105.126
		c13.594,44.363,36.533,85.061,52.891,128.393c1.47,3.894,3.836,4.513,7.521,5.124c17.36,2.879,32.369,13.933,50.947,13.815
		c5.698-0.036,11.031,7.681,17.228,9.907c34.055,12.229,66.88,27.768,103.768,31.779c42.749,4.649,84.389,3.143,125.071-11.632
		c38.256-13.894,75.071-31.841,114.253-42.88c11.823-3.331,14.753-10.217,18.454-19.047c7.656-18.266,15.087-36.651,23.504-54.568
		c26.679-56.791,42.772-115.55,35.948-179.089c-1.085-10.101,1.13-13.538,5.997-5.016
		C1044.675,899.618,1036.667,858.912,1020.611,835.848z M752.661,930.041c14.781,0.129,28.482,5.04,42.079,10.002
		c4.203,1.534,6.217,6.137,8.646,9.981c4.576,7.241,10.127,13.879,14.523,21.217c5.472,9.131,3.635,12.297-6.526,12.014
		c-2.223-0.062-2.012,0.767-2.551,2.072c-5.137,12.442-14.522,16.795-27.875,17.416c-14.954,0.696-29.954,0.948-44.849,1.977
		c-15.77,1.089-24.998-6.755-32.745-18.363c-1.227-1.838-0.902-3.67-4.391-2.656c-9.041,2.627-8.379-3.976-6.975-9.134
		C698.418,950.992,727.612,929.777,752.661,930.041z M538.246,812.857c-3.836-3.858-2.282-8.252-0.044-12.449
		c3.08-5.775,8.01-9.826,12.694-14.176c25.746-23.912,57.122-34.214,91.127-39.313c21.044-3.155,41.516-5.607,61.318,4.889
		c6.8,3.604,11.887,7.855,10.819,16.501c-0.219,1.77-0.399,4.466,0.608,5.329c16.221,13.911,9.631,34.431,15.096,48.968
		c0.12,16.478-10.292,26.687-24.35,26.21c-8.549-0.29-10.989-7.192-11.005-13.296c-0.068-25.578-18.333-42.778-28.131-63.833
		c-1.007-2.166-3.093-1.991-4.832-1.753c-32.606,4.455-65.397,8.463-93.514,27.841c-6.153,4.241-11.419,9.763-17.534,14.069
		C546.959,814.336,542.4,817.034,538.246,812.857z M566.04,902.997c-7.014,2.637-14.789,6.249-20.637-1.104
		c-5.945-7.477-0.319-13.934,2.794-21.355c9.256-22.067,24.929-37.818,44.555-50.201c34.45-21.739,57.355-15.384,89.429,3.569
		c6.101,3.605,4.096,9.941,6.418,14.205c-1.206,14.753-9.767,23.536-22.39,28.539c-13.857,5.492-28.1,10.167-42.944,11.953
		C603.53,890.976,584.576,896.026,566.04,902.997z M876.898,1067.144c-1.962,7.903-9.535,10.033-16.903,9.551
		c-17.385-1.138-34.713-4.474-51.545-7.908c-17.098-3.488-33.354-0.367-49.939-1.112c-23.333-1.048-46.9-2.851-69.886,2.421
		c-10.884,2.496-21.759,4.012-32.747,5.35c-2.201,0.268-4.578,1.491-6.528,0.972c-5.616-1.495-12.426-2.506-14.021-9.177
		c-1.494-6.249,2.203-11.642,8.215-12.932c21.431-4.6,42.94-8.848,61.302-13.96c27.837,4.099,53.091,1.595,77.782,1.154
		c29.534-0.529,56.277,9.389,84.505,12.792C873.685,1055.083,878.547,1060.503,876.898,1067.144z M966.333,903.478
		c-4.183,4.072-9.11,4.381-14.574,2.275c-17.409-6.71-35.176-12.822-53.613-15.302c-15.266-2.053-29.978-5.533-44.511-10.225
		c-8.588-2.774-16.806-6.398-22.97-13.342c-11.949-13.463-10.23-26.727,4.576-36.254c10.469-6.736,32.558-13.689,48.074-13.485
		c22.798,1.872,43.535,17.055,62.687,35.638c10.519,10.206,14.539,24.159,22.085,36.059
		C970.747,893.038,970.715,899.212,966.333,903.478z M973.781,812.314c-7.209,8.524-14.703-0.928-19.802-5.658
		c-21.966-20.377-49.685-25.677-77.269-32.809c-21.505-5.56-34.446,0.215-44.09,19.978c-6.087,12.474-13.248,24.272-14.616,38.326
		c-0.716,7.358-1.036,16.164-9.391,17.057c-8.093,0.865-17.2-1.511-22.535-9.509c-2.72-4.079-4.449-8.894-3.876-13.826
		c1.335-11.5,2.666-23.043,4.932-34.381c2.198-10.993,9.075-20.346,13.213-30.694c4.836-12.095,20.334-13.662,32.95-15.769
		c3.65-0.609,7.488-0.094,11.24-0.094c45.014,3.763,88.219,12.361,121.512,46.624C971.671,797.344,980.566,804.291,973.781,812.314z
		"/>
	<path style="fill:#B03CAF;" d="M779.271,694.017c-0.224,1.658-0.327,2.778-0.533,3.879c-2.977,15.887-16.11,34.833-23.569,34.021
		c-8.208-0.893-21.37-21.518-23.241-36.213c-1.04-8.168,2.828-13.511,10.354-14.727c9.596-1.551,19.42-1.052,28.947,1.529
		C777.341,684.162,779.047,688.863,779.271,694.017z"/>
</g>
</svg>
