<?xml version="1.0" encoding="iso-8859-1"?>
<!-- Generator: Adobe Illustrator 25.3.1, SVG Export Plug-In . SVG Version: 6.00 Build 0)  -->
<svg version="1.1" xmlns="http://www.w3.org/2000/svg" xmlns:xlink="http://www.w3.org/1999/xlink" x="0px" y="0px"
	 viewBox="0 0 1483.394 2141.166" style="enable-background:new 0 0 1483.394 2141.166;" xml:space="preserve">
<g id="Layer_3">
</g>
<g id="Layer_1">
</g>
<g id="Layer_4">
</g>
<g id="Layer_6">
</g>
<g id="Layer_2">
</g>
<g id="Layer_7">
</g>
<g id="Layer_13">
</g>
<g id="Layer_12">
</g>
<g id="Layer_11">
</g>
<g id="Layer_10">
</g>
<g id="Layer_9">
</g>
<g id="Layer_8">
	<path style="fill:#C68C87;" d="M977.857,1634.176c-1.573,0.798-2.766,1.772-4.092,2.009c-4.339,0.775-7.827,2.472-10.734,6.098
		c-2.551,3.184-6.952,3.09-10.703,3.136c-9.625,0.117-19.202,0.984-28.888,0.625c-8.887-0.329-17.959,1.675-26.759-0.469
		c-12.455-3.036-23.809-0.32-34.85,5.2c-3.414,1.707-4.98,1.384-4.961-3.063c0.032-7.506-1.831-14.764-4.334-21.81
		c-1.972-5.553-2.677-11.716-7.66-15.888c-1.391-1.165-1.972-2.953-1.894-4.947c0.594-15.241,3.274-29.696,11.609-43.063
		c6.65-10.665,16.958-15.359,27.426-20.206c9.447-4.374,19.065-8.709,29.166-11.021c16.117-3.689,31.972-4.269,47.509,4.406
		c14.301,7.985,24.709,19.265,33.54,32.517c4.784,7.178,11.131,12.698,18.149,17.567c4.121,2.859,6.168,8.375,4.12,13.044
		c-2.775,6.325-6.28,12.329-9.423,18.495c-1.117,2.191-2.318,1.627-3.844,0.439c-4.377-3.405-9.514-5.383-14.593-7.398
		c-5.419-2.151-10.336-0.576-13.598,4.05c-3.374,4.785-3.315,11.078,0.215,15.274
		C974.638,1630.81,976.157,1632.334,977.857,1634.176z M916.138,1644.049c15.857-0.896,29.379-7.172,39.882-18.871
		c12.93-14.403,13.178-32.065,10.11-49.782c-1.858-10.731-7.068-19.902-17.371-25.372c-12.509-6.64-25.631-8.217-39.535-6.327
		c-16.628,2.261-31.922,16.765-34.278,33.325c-0.86,6.045-1.063,12.197-2.175,18.187c-1.008,5.427-0.273,10.621,1.08,15.713
		c2.21,8.318,6.988,14.748,13.269,20.976C895.513,1640.223,905.049,1643.286,916.138,1644.049z"/>
	<path style="fill:#C68C87;" d="M473.336,1592.191c-0.697-2.91,0.741-5.22,4.082-7.18c12.282-7.205,19.303-19.34,27.895-30.08
		c11.42-14.276,25.884-23.733,44.485-26.491c16.608-2.463,31.579,2.521,46.381,8.751c8.06,3.393,16.198,6.752,23.825,10.986
		c10.404,5.776,15.646,16.007,20.003,26.499c4.053,9.759,4.039,20.347,5.067,30.686c0.192,1.927-1.243,3.475-2.353,4.806
		c-2.78,3.332-4.585,6.755-5.833,11.154c-2.444,8.61-5.358,17.004-5.681,26.067c-0.148,4.162-2.712,3.837-5.558,2.547
		c-7.905-3.585-15.984-6.672-24.848-6.178c-6.574,0.366-12.977,2.526-19.619,2.312c-16.936-0.545-33.911,0.148-50.808-1.55
		c-1.275-0.128-2.888-0.526-3.662-1.401c-3.828-4.33-8.699-6.427-14.104-8.147c-4.068-1.295-0.633-3.44,0.592-4.536
		c4.43-3.967,5.368-8.657,3.356-14.013c-2.513-6.691-8.643-9.453-15.342-6.898c-4.952,1.888-9.924,3.812-14.167,7.123
		c-1.708,1.333-3.172,1.831-4.364-0.563c-2.862-5.753-5.683-11.528-8.65-17.226C473.022,1596.917,473.476,1594.966,473.336,1592.191
		z M566.952,1542.802c-2.158,0-4.347-0.241-6.468,0.038c-16.718,2.205-30.603,8.495-36.921,25.732
		c-3.337,9.105-2.939,18.305-2.466,27.86c0.779,15.772,7.279,27.77,20.117,36.331c11.707,7.808,24.317,13.018,38.878,9.877
		c8.269-1.784,14.935-5.87,21.326-11.792c6.996-6.483,11.278-13.786,13.195-22.672c2.503-11.596-0.167-23.227-2.357-34.367
		C608.325,1553.811,588.773,1541.187,566.952,1542.802z"/>
	<path style="fill:#C68C87;" d="M483.174,1798.712c-9.47-11.853-17.785-24.04-21.999-38.418
		c-5.774-19.702-9.891-39.814-4.623-60.191c4.332-16.756,11.372-32.519,22.956-45.815c0.766-0.879,1.528-1.842,2.892-1.539
		c1.398,0.31,1.031,1.508,1.03,2.413c-0.019,20.956,8.074,39.232,18.44,56.847c7.904,13.432,17.009,26.058,25.593,39.031
		c1.815,2.743,2.147,3.686-1.416,5.065c-12.956,5.017-21.048,15.915-29.811,25.858
		C491.651,1787.167,487.67,1792.904,483.174,1798.712z"/>
	<path style="fill:#C68C87;" d="M1004.46,1799.112c-8.114-11.858-17.081-22.543-27.122-32.332
		c-4.579-4.463-9.573-8.348-15.683-10.316c-3.313-1.067-3.088-2.297-1.464-4.696c7.614-11.249,15.457-22.361,22.591-33.91
		c8.251-13.357,16.088-27.002,19.501-42.632c1.623-7.432,2.028-15.009,2.668-22.747
		C1035.816,1679.779,1049.515,1745.632,1004.46,1799.112z"/>
	<path style="fill:#C68C87;" d="M649.453,837.461c-6.491,0.319-11.599-3.523-16.399-8.03c-2.942-2.762-5.163-7.371-10.508-3.486
		c-1.168,0.849-3.434,0.525-4.514-1.072c-3.309-4.894-7.882-8.995-9.188-15.17c-0.432-2.041-1.42-3.545,1.963-3.15
		c2.386,0.279,3.826-1.499,5.177-3.311c8.023-10.755,19.526-16.573,31.864-19.857c9.338-2.486,17.385,3.739,25.254,8.192
		c6.414,3.63,9.206,10.211,12.411,16.362c2.129,4.085,3.171,8.742,6.311,12.291c1.533,1.732-0.146,2.654-0.768,3.841
		c-0.789,1.505-1.706,0.763-2.864,0.295c-10.022-4.047-17.379-2.721-22.73,6.448C661.449,837.691,656.201,837.674,649.453,837.461z
		 M639.945,810.937c-0.018,6.732,7.155,14.305,13.409,13.917c4.933-0.305,13.38-7.913,12.991-12.639
		c-0.559-6.797-8.442-13.608-16.764-13.545C644.047,798.712,639.963,803.91,639.945,810.937z"/>
	<path style="fill:#C68C87;" d="M836.272,782.872c3.779,0.07,6.89,1.784,9.995,3.261c9.596,4.566,19.269,9.058,25.517,18.351
		c0.689,1.025,2.098,2.296,3.116,2.248c5.986-0.281,3.241,3.152,2.501,5.612c-1.475,4.906-5.351,8.318-8.036,12.473
		c-1.361,2.106-3.979,2.508-5.757,1.099c-3.133-2.483-4.955-0.823-7.137,1.192c-3.174,2.931-6.355,5.571-10.319,7.803
		c-3.901,2.197-7.276,2.993-11.239,3.148c-5.255,0.206-9.334-0.808-12.463-6.328c-5.205-9.183-13.317-11.154-23.009-7.086
		c-1.291,0.542-2.448,1.432-3.296-0.306c-0.587-1.203-2.233-2.168-0.948-3.942c4.589-6.333,6.341-14.162,10.805-20.579
		C813.387,789.205,824.752,785.919,836.272,782.872z M847.025,811.267c-0.044-9.029-3.885-11.701-13.254-11.603
		c-3.851,0.041-5.635,1.488-7.933,3.651c-2.449,2.305-4.484,4.742-4.783,8.182c-0.487,5.602,6.701,13.249,12.694,13.623
		C839.971,825.509,847.058,818.113,847.025,811.267z"/>
	<path style="fill:#C68C87;" d="M767.082,1852.454c-3.157,0-6.354-0.317-9.459,0.083c-3.604,0.464-4.743-0.837-5.351-4.317
		c-3.148-18.027,11.99-30.615,27.579-28.794c8.533,0.997,17.213,0.768,25.267,4.403c6.993,3.155,14.653,10.244,11.223,21.036
		c-0.474,1.493-0.186,3.305,0.04,4.929c0.742,5.321,0.075,6.233-5.335,6.818c-7.048,0.763-13.89-0.731-20.711-2.072
		C782.638,1853.026,774.914,1852.279,767.082,1852.454z"/>
	<path style="fill:#C68C87;" d="M706.314,1819.527c6.678-0.817,12.965,0.87,19,3.879c4.276,2.132,10.699,13.781,10.092,18.495
		c-0.042,0.327-0.149,0.651-0.155,0.977c-0.154,8.733-0.152,8.79-8.867,8.869c-13.464,0.122-26.775,1.599-39.939,4.388
		c-2.644,0.56-5.291,0.612-7.923,0.332c-6.66-0.707-7.144-1.42-6.519-8.079c0.121-1.293,0.064-2.674-0.253-3.927
		c-2.591-10.263,1.792-15.983,10.261-20.588c2.442-1.328,5.151-2.407,7.867-2.94
		C695.242,1819.879,700.696,1819.257,706.314,1819.527z"/>
	<path style="fill:#C68C87;" d="M520.542,1855.149c-8.022,7.909-43.185,25.026-54.884,26.922c-0.769-9.924-1.47-19.849-2.354-29.759
		c-0.223-2.501,0.356-3.824,2.849-4.861c7.199-2.994,14.238-6.39,20.802-10.629c2.229-1.44,3.725-1.1,5.731,0.404
		C501.431,1843.777,509.864,1850.835,520.542,1855.149z"/>
	<path style="fill:#C68C87;" d="M966.728,1855.889c11.593-4.899,20.252-12.12,29.248-18.828c1.523-1.136,2.747-1.234,4.383-0.192
		c7.01,4.465,14.482,8.075,22.113,11.317c1.908,0.811,2.514,1.743,2.382,3.648c-0.664,9.589-2.26,19.11-2.052,28.762
		c0.041,1.908-1.09,2.203-2.638,1.654c-3.268-1.16-6.562-2.254-9.783-3.534c-11.868-4.718-23.272-10.408-34.362-16.723
		C973.162,1860.367,970.506,1858.388,966.728,1855.889z"/>
	<path style="fill:#C68C87;" d="M603.64,1846.811c4.976-4.775,7.778-10.073,10.147-15.976c3.505-8.731,15.049-13.319,24.825-11.114
		c6.733,1.518,13.579,11.734,13.512,20.161c-0.076,9.636-0.076,9.637-9.736,9.626c-10.471-0.012-20.953,0.564-31.398-0.798
		C608.705,1848.412,606.422,1848.345,603.64,1846.811z"/>
	<path style="fill:#C68C87;" d="M856.367,1849.695c-5.479,0-10.977-0.288-16.429,0.095c-4.031,0.283-5.174-1.959-4.993-4.976
		c0.482-8.029,2.459-15.615,8.657-21.351c7.757-7.178,22.602-4.434,28.77,5.79c3.308,5.483,5.974,11.308,10.429,16.059
		c1.891,2.018,0.956,2.916-1.602,3.339C872.953,1850.016,864.654,1849.62,856.367,1849.695z"/>
	<path style="fill:#C68C87;" d="M860.219,843.901c10.235,12.828,11.296,26.451,6.518,40.967c-0.75,2.279-1.851,2.954-3.55,0.696
		c-0.495-0.657-1.149-1.193-1.72-1.795c-3.768-3.966-8.975-7.344-10.906-12.064c-2.046-5.001,4.158-8.99,5.894-13.861
		C858.011,853.483,858.935,849.007,860.219,843.901z"/>
	<path style="fill:#C68C87;" d="M621.677,887.558c-6.633-16.209-5.538-30.637,5.317-44.542c0.833,9.052,3.962,16.74,8.67,23.702
		c2.013,2.978,1.577,4.669-0.904,7.033C630.331,877.968,626.311,882.617,621.677,887.558z"/>
	<path style="fill:#C68C87;" d="M686.523,909.469c6.018,2.481,12.102,2.82,18.227,2.571c2.46-0.1,3.492,0.455,3.468,3.219
		c-0.134,15.556,0.694,12.357-12.238,12.688c-2.15,0.055-4.304,0.001-6.455-0.054c-5.464-0.138-6.608-1.417-4.984-6.649
		C685.717,917.457,686.561,913.689,686.523,909.469z"/>
	<path style="fill:#C68C87;" d="M799.993,910.018c0.246,4.317,1.473,8.396,2.763,12.498c1.151,3.66,0.377,5.987-4.381,5.651
		c-5.124-0.362-10.297-0.173-15.443-0.038c-2.73,0.072-3.759-0.879-3.914-3.706c-0.66-12.032-0.745-12.113,10.89-12.293
		c3.561-0.055,6.834-1.025,10.152-2.022L799.993,910.018z"/>
	<path style="fill:#C68C87;" d="M753.081,918.28c-0.003-7.729,0.004-7.805,6.597-7.255c2.767,0.231,6.955-1.254,7.977,0.9
		c1.353,2.852,0.353,6.803,0.451,10.279c0.042,1.506-0.777,2.076-2.047,2.256c-3.769,0.534-7.541,1.055-11.317,1.535
		c-1.769,0.225-1.723-0.963-1.678-2.222C753.13,921.944,753.081,920.111,753.081,918.28z"/>
	<path style="fill:#C68C87;" d="M733.755,918.714c0-0.839,0.003-0.507,0-0.176c-0.085,7.496-0.12,7.671-7.564,6.193
		c-2.319-0.46-6.017,0.68-6.746-1.644c-1.048-3.341-0.487-7.205-0.494-10.846c-0.003-1.511,1.36-1.079,2.227-1.169
		c1.643-0.171,3.32-0.092,4.944-0.357C734.095,909.409,734.091,909.382,733.755,918.714z"/>
	<path style="fill:#C68C87;" d="M800.059,910.107c0.076-0.122,0.136-0.259,0.235-0.357c0.042-0.042,0.165-0.003,0.251-0.001
		c-0.184,0.09-0.368,0.181-0.552,0.27C799.993,910.018,800.059,910.107,800.059,910.107z"/>
	<path style="fill:#C68C87;" d="M665.63,350.819c-0.399,0.086-1.078,0.346-1.149,0.23c-0.359-0.583,0.224-0.636,0.599-0.777
		C665.268,350.45,665.451,350.633,665.63,350.819z"/>
	<path style="fill:#00C263;" d="M1009.274,1365.378c1.958-4.571,3.356-8.042,4.922-11.434c1.743-3.776,3.196-7.649,4.164-11.685
		c1.61-6.708-1.151-11.695-7.902-13.177c-12.258-2.69-24.246-1.147-36.305,2.21c-17.846,4.969-33.021,15.062-49.082,23.634
		c-36.454,19.457-70.873,42.409-107.358,61.776c-4.391,2.33-8.956,4.33-13.406,6.55c-1.778,0.886-2.943,1.052-3.64-1.339
		c-5.547-19.018-20.086-26.736-38.063-29.672c-17.156-2.802-34.068-1.468-50.609,4.122c-11.893,4.02-19.694,12.201-23.637,23.855
		c-1.392,4.114-3.045,3.703-6,2.269c-16.263-7.897-32.48-16.042-47.512-25.997c-23.57-15.61-48.878-28.08-73.152-42.392
		c-11.699-6.898-23.02-14.555-35.948-19.089c-14.103-4.946-28.244-9.653-43.643-7.215c-11.643,1.843-14.983,6.649-11.526,17.831
		c0.974,3.151,2.397,6.167,3.687,9.215c1.286,3.039,2.664,6.039,4.212,9.532c-5.518-0.385-10.426-2.155-15.564-2.62
		c-11.737-1.064-23.564-0.586-35.26-2.571c-6.738-1.143-13.638-0.342-20.285,1.289c-12.942,3.175-18.256,12.013-15.537,25.021
		c1.351,6.466,3.546,12.754,3.842,19.453c0.163,3.675-0.876,6.746-2.862,9.8c-8.117,12.486-19.903,19.224-34.17,22.004
		c-5.353,1.043-10.745,2.016-16.248,2.16c-2.053,0.054-3.135-0.449-3.194-2.639c-0.031-1.151-0.488-2.296-0.485-3.443
		c0.047-15.962-2.219-31.889-1.059-47.844c0.483-6.639,0.866-13.254,0.929-19.905c0.039-4.235-3.152-8.023-1.215-12.648
		c0.729-1.742,0.978-3.321,2.863-4.135c0.745-0.322,1.441-0.862,2.023-1.441c8.242-8.204,18.318-10.969,29.725-10.927
		c10.35,0.039,20.208-3.169,30.064-6.091c11.966-3.548,24.454-4.041,36.685-6.042c7.324-1.198,14.733-2.483,21.378-6.125
		c2.271-1.245,4.554-0.729,6.821-0.597c25.439,1.486,50.876,1.181,76.315,0.054c17.269-0.765,34.535-1.61,51.81-2.236
		c11.971-0.433,23.967-0.293,35.928-0.881c14.053-0.692,27.745,2.527,41.655,3.32c3.139,0.179,6.288,0.521,9.439,0.524
		c27.464,0.023,54.929,0.016,82.393,0.005c13.998-0.006,28.005,0.261,41.992-0.146c12.924-0.377,25.702-2.97,38.686-2.987
		c23.793-0.032,47.622-0.489,71.34,1.343c20.588,1.59,41.208,1.339,61.792,2.482c14.803,0.823,29.587-0.948,44.393-1.003
		c1.323-0.005,2.647-0.363,3.916,0.231c10.196,4.776,21.076,6.655,32.171,7.665c14.234,1.295,27.947,5.115,41.66,8.851
		c9.233,2.515,18.743,2.276,28.125,3.258c2.984,0.312,5.356,1.204,7.605,3.122c2.522,2.15,5.275,4.032,7.975,5.965
		c6.458,4.625,6.816,8.102,4.936,15.824c-1.381,5.672-0.649,11.899,0.054,17.87c1.21,10.283,0.933,20.62,0.182,30.882
		c-0.32,4.374,0.677,8.523,0.552,12.831c-0.131,4.515-1.196,8.877-1.323,13.351c-0.037,1.32-0.265,2.083-2.012,1.946
		c-12.485-0.982-24.762-2.962-35.867-9.079c-7.611-4.192-12.737-11.063-17.298-18.294c-2.795-4.432-0.948-9.074-0.199-13.561
		c0.789-4.723,2.152-9.346,3.151-14.037c2.475-11.618-3.405-20.718-15.074-23.501c-9.365-2.233-18.824-1.932-28.205-0.548
		c-4.478,0.66-8.946,0.514-13.409,0.949C1029.784,1362.229,1019.795,1361.563,1009.274,1365.378z"/>
	<path style="fill:#00C263;" d="M810.382,1562.193c-1.547-19.438-2.376-38.857,0.658-58.194c0.942-6.004,3.855-11.278,7.76-15.879
		c14.03-16.533,28.687-32.363,48.271-42.636c4.573-2.399,9.274-4.492,14.143-6.094c22.49-7.4,44.945-15.35,68.707-17.292
		c28.643-2.341,55.582,3.679,79.355,20.444c7.896,5.569,14.022,13.141,17.679,22.406c3.623,9.178,8.619,17.472,15.049,25.072
		c10.354,12.237,23.855,17.704,39.069,20.929c8.522,1.806,17.33,1.835,25.64,4.614c1.476,0.493,2.563-0.163,3.621-1.052
		c0.869-0.73,1.549-2.078,2.811-1.834c2.997,0.578,7.483-1.635,8.745,1.141c1.785,3.925,1.078,8.807,0.483,13.274
		c-0.052,0.394-1.332,0.707-2.082,0.911c-4.603,1.25-8.372,3.968-10.171,8.211c-4.172,9.839-13.304,13.259-21.962,15.162
		c-16.426,3.609-33.124,3.599-49.644-1.509c-7.842-2.425-14.752-6.594-22.204-9.7c-8.663-3.611-13.931-11.097-18.435-18.998
		c-11.16-19.576-27.623-33.443-47.243-43.812c-14.725-7.782-30.626-9.074-46.966-8.071c-27.095,1.662-48.686,15.44-70.129,30.361
		C831.201,1515.186,817.041,1535.806,810.382,1562.193z"/>
	<path style="fill:#00C263;" d="M678.325,1563.656c-6.872-28.499-22.269-50.12-46.452-66.205
		c-17.334-11.53-34.367-22.958-55.389-26.863c-30.686-5.7-57.926,0.709-81.706,21.336c-10.28,8.917-19.178,18.792-25.828,30.764
		c-5.143,9.258-12.815,15.253-22.878,19.632c-9.165,3.989-18.17,7.697-27.939,9.73c-9.405,1.958-18.733,1.902-28.187,0.364
		c-5.996-0.975-11.972-1.028-17.733-3.941c-6.548-3.311-12.109-6.979-15.277-13.907c-1.643-3.594-4.987-5.9-8.91-6.63
		c-2.276-0.424-2.603-1.52-2.502-3.375c0.09-1.661-0.049-3.342,0.132-4.99c0.278-2.537,0.233-7.268,1.601-7.057
		c3.4,0.523,7.4-1.834,10.358,1.559c0.721,0.827,1.716,1.618,3.039,1.361c11.781-2.292,23.686-4.088,35.313-6.993
		c20.155-5.035,34.376-18.335,41.759-36.959c10.456-26.377,30.974-38.339,56.293-45.765c27.967-8.202,55.259-4.068,82.292,3.659
		c9.833,2.811,19.644,5.915,29.391,9.137c23.974,7.924,41.261,24.652,57.994,42.495c10.538,11.237,15.29,23.939,14.74,39.251
		C677.918,1534.707,678.325,1549.188,678.325,1563.656z"/>
	<path style="fill:#00C163;" d="M502.709,1650.979c6.831,2.169,12.938,5.649,19.779,6.937c1.618,0.305,3.324,0.948,4.871,0.699
		c10.863-1.752,21.22,2.58,31.951,2.538c3.073-0.012,6.204,0.05,9.971-0.088c-5.158,8.208-6.774,16.666-6.028,25.706
		c0.373,4.523,1.281,8.916,3.153,12.949c6.529,14.069,13.328,27.974,28.041,35.685c3.537,1.854,6.952,3.776,10.969,4.465
		c12.616,2.161,23.873,8.821,36.479,11.093c4.248,0.766,8.453,1.839,12.794,1.604c11.122-0.601,22.2,0.791,33.362,0.337
		c9.361-0.381,18.439-1.85,27.594-3.346c12.015-1.964,24.112-1.598,36.249-1.562c15.563,0.045,30.465,4.989,45.945,5.148
		c23.867,0.246,47.844,1.591,70.38-8.94c3.552-1.66,7.522-2.556,11.389-3.384c15.199-3.254,26.363-11.834,33.952-25.264
		c2.448-4.333,5.24-8.524,7.197-13.072c5.803-13.488,6.394-26.97-1.805-40.797c8.971,0.135,17.259-0.733,25.527-1.925
		c12.897-1.859,26.372-0.61,38.28-7.625c2.605-1.535,2.972,0.625,3.141,2.657c0.787,9.418-0.332,18.61-4.151,27.246
		c-9.038,20.441-21.795,38.707-34.001,57.286c-1.385,2.108-3.547,2.786-5.817,3.42c-15.604,4.356-31.659,6.52-47.486,9.784
		c-20.039,4.133-40.316,6.433-60.782,5.004c-13.304-0.929-26.59-0.806-39.886-0.779c-20.099,0.041-40.16,3.144-60.243,1.743
		c-21.916-1.529-43.822-2.03-65.762-1.808c-9.969,0.101-19.908,0.999-29.896,1.04c-14.522,0.059-28.672-2.617-42.812-5.203
		c-16.382-2.996-32.859-5.6-48.984-9.896c-2.444-0.651-4.577-1.669-6.06-3.956c-11.732-18.091-24.226-35.739-33.004-55.568
		C502.528,1672.972,500.34,1662.416,502.709,1650.979z"/>
	<path style="fill:#00C163;" d="M908.291,759.976c-8.672,0.451-16.211-2.875-23.3-7.32c-5.762-3.613-10.911-8.109-16.697-11.748
		c-11.568-7.275-23.895-7.693-36.902-5.529c-21.402,3.561-38.547,14.896-53.208,29.871c-9.464,9.666-15.094,21.738-12.198,36.121
		c0.362,1.8,0.222,2.958-2.136,2.484c-14.011-2.816-28.01-2.279-41.999,0.225c-0.43,0.077-0.928-0.224-1.274-0.317
		c3.786-16.491-2.56-29.654-13.759-40.741c-10.547-10.441-22.506-19.341-36.701-24.116c-12.572-4.23-25.612-6.88-39.024-3.706
		c-8.808,2.085-15.818,7.462-22.895,12.696c-5.329,3.941-10.485,8.2-17.293,9.416c-3.009-0.147-5.975-0.084-8.531,1.86
		c0,0-0.272,0.084-0.267,0.082c-1.625-0.028-3.255-0.054-4.885-0.08c0,0,0.08,0.044,0.08,0.044
		c-3.12-2.608-6.803-3.143-10.696-2.909c-2.337-0.608-2.332-2.431-2.337-4.338c-0.019-6.492-0.004-12.986-0.202-19.473
		c-0.069-2.269,0.581-2.811,2.868-3.402c5.076-1.313,9.98-3.339,14.888-5.246c12.777-4.966,26.408-7.693,38.83-13.224
		c8.243-3.67,16.54-2.365,24.6-4.351c3.082-0.759,4.195,2.254,6.531,2.901c10.558,2.926,20.545,7.364,30.603,11.633
		c9.066,3.848,16.3,9.751,22.7,17.272c7.83,9.201,15.979,18.187,28.747,21.135c16.547,3.82,29.802-1.171,41.255-13.204
		c5.711-6,10.31-13.116,17.281-17.878c12.467-8.516,27.026-12.32,40.635-18.279c9.435-4.131,18.522-2.484,27.633-1.348
		c4.565,0.569,9.153,3.227,13.684,5.015c10.307,4.069,21.1,6.577,31.482,10.425c5.458,2.023,10.413,5.9,16.681,5.669
		c1.152-0.042,1.122,0.994,1.006,1.829c-0.991,7.128-0.389,14.295-0.507,21.443c-0.028,1.708-0.607,2.872-2.17,3.532
		C916.336,756.532,912.079,757.428,908.291,759.976z"/>
	<path style="fill:#00C163;" d="M871.86,950.933c11.513-7.051,17.931-17.659,21.434-30.4c1.722-6.264,1.342-12.451,0.026-18.664
		c-0.711-3.358-2.306-6.428-2.319-10.062c-0.012-3.496-3.093-5.223-6.071-5.672c-3.936-0.594-3.617-2.698-2.797-5.387
		c3.551-11.642,3.132-23.129-1.055-34.565c-1.5-4.098-3.488-7.876-5.958-11.429c-1.139-1.638-1.805-3.094,0.091-4.749
		c6.708-5.851,9.613-14.55,15.544-21.013c0.811-0.884,1.245-1.984,2.636-1.721c11.167,2.118,19.804-3.187,28.423-10.098
		c0,6.923,0.457,13.344-0.103,19.674c-0.941,10.643-0.256,21.302-0.857,31.919c-1.048,18.523-1.233,37.235-5.14,55.387
		c-4.46,20.72-17.304,35.807-35.614,46.273c-2.454,1.403-5.268,0.102-7.796,0.991C872.158,951.257,872.009,951.095,871.86,950.933z"
		/>
	<path style="fill:#00C163;" d="M615.199,951.131c-4.53,0.53-8.274-1.109-12.06-3.56c-21.691-14.04-31.938-34.09-34.074-59.662
		c-2.41-28.859-2.867-57.75-3.824-86.643c-0.038-1.141-0.005-2.285-0.005-3.983c2.899,1.956,5.418,3.7,7.983,5.375
		c4.698,3.068,9.867,5.384,15.459,4.408c6.462-1.128,9.679,3.004,12.022,7.216c3.021,5.43,6.352,10.469,10.707,14.82
		c1.708,1.706,1.969,2.961,0.538,5.075c-9.711,14.343-11.846,29.949-7.095,46.492c0.885,3.082,0.318,4.236-2.844,5.096
		c-4.102,1.115-6.825,3.518-6.343,8.66c0.334,3.559-2.068,6.807-2.625,10.465c-2.394,15.726,6.288,35.559,19.699,43.915
		c0.98,0.61,2.092,0.981,2.646,2.1L615.199,951.131z"/>
	<path style="fill:#00C163;" d="M740.751,556.169c-11.455,0-22.911,0.086-34.364-0.022c-13.303-0.126-26.552,0.353-39.644,2.93
		c-2.876,0.566-3.665-0.39-3.811-3.297c-0.652-12.927-1.582-25.841-2.4-38.76c-0.058-0.92-0.626-2.335,0.648-2.517
		c1.751-0.25,3.822-0.272,4.843,1.667c4.055,7.699,10.898,13.319,15.323,20.74c4.135,6.935,10.776,10.162,18.36,10.088
		c9.739-0.096,18.877,3.219,28.535,3.657c11.978,0.544,23.844-0.271,35.727-1.015c8.912-0.558,17.626-2.938,26.591-3.442
		c5.338-0.3,9.964-2.632,13.32-6.901c5.733-7.294,11.339-14.688,16.956-22.073c0.809-1.063,1.449-2.335,2.784-2.722
		c1.887-0.548,3.431-0.898,3.182,2.293c-1.02,13.063-1.857,26.143-2.545,39.228c-0.14,2.653-0.949,3.61-3.51,3.269
		c-5.249-0.699-10.488-1.613-15.762-1.964c-20.225-1.347-40.49-1.635-60.75-1.991c-1.162-0.02-2.321-0.165-3.482-0.252
		C740.75,555.445,740.75,555.807,740.751,556.169z"/>
	<path style="fill:#00C163;" d="M756.213,1504.396c-1.383,23.017-2.947,46.036-3.154,69.113c-0.039,4.308,0.194,8.623,0.452,12.926
		c0.062,1.039,0.523,2.144-0.971,2.138c-4.312-0.019-8.036,3.433-13.116,0.518c-3.359-1.928-4.572-2.682-4.482-6.839
		c0.491-22.583-0.737-45.124-2.651-67.635c-0.93-10.942-0.209-21.867,1.904-32.661c0.474-2.422,7.16-5.133,11.21-4.737
		c4.883,0.477,7.921,3.526,8.926,8.441C755.596,1491.85,756.586,1498.041,756.213,1504.396z"/>
	<path style="fill:#00C163;" d="M852.165,493.661c1.507-3.465,1.545-7.968,7.257-7.613c1.062,0.066,2.492-1.073,3.278-2.041
		c5.323-6.56,11.516-12.402,16.038-19.627c3.032-4.844,3.408-9.132,0.525-14.658c-3.905-7.482-2.823-15.731-0.327-23.763
		c1.216-3.914,1.645-8.072,2.43-12.121c0.324,0.06,0.66,0.087,0.971,0.189c12.167,4.018,12.508,3.993,13.461,16.644
		c1.417,18.82-2.604,36.557-12.532,52.707C876.204,494.864,868.032,497.437,852.165,493.661z"/>
	<path style="fill:#00C163;" d="M605.935,413.545c1.634,7.724,2.495,15.647,5.041,23.189c0.601,1.779,0.024,3.255-0.816,4.717
		c-2.311,4.023-2.203,8.834-4.541,12.973c-1.501,2.657,0.571,5.814,2.044,8.401c4.478,7.866,11.287,13.903,16.769,20.989
		c0.751,0.971,2.315,2.087,3.338,1.946c5.842-0.804,5.658,3.907,7.205,7.182c-15.883,5.018-24.846,1.378-32.827-12.906
		c-10.287-18.411-12.622-38.106-9.875-58.689c0.375-2.814,2.182-4.388,4.562-5.41c1.508-0.648,3.113-1.093,4.706-1.512
		C602.951,414.054,604.403,413.845,605.935,413.545z"/>
	<path style="fill:#00C163;" d="M639.924,846.964c5.67,1.712,11.01,1.188,16.299,1.263c2.039,0.029,3.118,0.419,3.011,2.72
		c-0.147,3.189,1.205,6.148,1.695,9.229c1.523,9.576,6.14,16.667,15.321,20.446c0.865,0.356,1.571,1.102,2.463,1.748
		c-9.562,2.241-11.454,1.737-18.289-4.479c-7.83-7.121-14.057-15.445-18.849-24.862C640.688,851.286,639.82,849.524,639.924,846.964
		z"/>
	<path style="fill:#00C163;" d="M809.023,882.585c0.875-0.696,1.312-1.249,1.877-1.463c13.175-4.981,15.312-16.699,16.974-28.441
		c0.436-3.077,1.193-3.812,4.099-3.789c3.957,0.031,7.989-0.149,11.858-0.906c4.177-0.818,3.614,0.932,2.465,3.473
		c-3.221,7.124-7.439,13.63-12.618,19.454c-2.965,3.335-6.302,6.344-9.535,9.433C819.848,884.45,814.908,885.124,809.023,882.585z"
		/>
	<path style="fill:#00C163;" d="M721.62,709.394c14.021-1.785,28.069-1.123,42.095-1.153c3.421-0.007,2.626,1.885,1.268,3.411
		c-3.609,4.052-8.131,6.637-13.444,7.928c-10.325,2.509-19.407-0.205-27.705-6.369C722.641,712.324,721.632,711.229,721.62,709.394z
		"/>
	<path style="fill:#00C163;" d="M615.384,950.906c0.659,0.226,1.318,0.451,1.977,0.677c-0.106,0.11-0.197,0.291-0.321,0.318
		c-0.782,0.169-1.52,0.182-1.842-0.77C615.199,951.131,615.384,950.906,615.384,950.906z"/>
	<path style="fill:#00C163;" d="M872.306,951.419c-0.632,0.589-1.29,0.864-2.029,0.169c0.528-0.218,1.056-0.435,1.583-0.654
		C872.009,951.095,872.158,951.257,872.306,951.419z"/>
	<path style="fill:#C0C276;" d="M973.022,1009.655c41.897,15.961,82.253,34.89,117.981,62.453
		c9.211,7.106,17.969,14.891,25.795,23.545c19.152,21.176,40.716,39.713,62.477,58.068c14.315,12.075,26.109,26.44,37.09,41.822
		c-1.891,0.952-3.748,1.42-5.691,1.252c-13.938-1.203-27.97,1.508-41.857-0.871c-10.61-1.818-21.262-3.093-31.975-4.15
		c-10.944-1.079-21.923-1.573-32.856-1.56c-47.774,0.061-95.543,0.911-143.322,1.035c-24.888,0.065-49.792,1.694-74.611,4.461
		c-19.018,2.12-38.129,0.985-57.12-1.61c-4.115-0.562-8.37-0.901-12.2,1.292c-1.746,0.999-2.699,0.491-3.652-0.98
		c-8.757-13.517-20.741-24.239-31.274-36.221c-5.261-5.985-9.982-12.443-15.109-18.551c-2.883-3.434-6-6.687-9.191-9.84
		c-2.544-2.514-5.655-4.428-9.356-3.998c-6.68,0.775-14.337-2.619-19.642,4.461c-1.187,1.584-2.995,2.71-4.146,4.313
		c-12.959,18.04-29.085,33.327-43.426,50.162c-0.968,1.137-1.998,2.258-2.757,3.531c-3.055,5.122-5.721,7.566-13.225,5.734
		c-7.958-1.943-17.078,0.499-25.637,1.49c-17.131,1.985-34.116,0.534-51.147-1.261c-10.57-1.114-21.204-1.712-31.825-2.22
		c-32.269-1.544-64.568-0.792-96.853-1.096c-21.805-0.205-43.606-0.794-65.411-0.927c-25.088-0.153-50.128,0.58-74.816,5.822
		c-2.408,0.511-4.977,0.339-7.472,0.345c-13.478,0.029-26.957,0.014-41.289,0.014c4.494-6.917,9.148-12.802,13.941-18.578
		c11.212-13.51,24.308-24.992,37.865-36.093c12.484-10.222,24.769-20.875,35.406-33.006c33.451-38.15,75.277-63.926,120.937-84.631
		c28.668-13,58.463-22.507,88.382-31.898c17.463-5.482,34.668-11.792,51.936-17.884c4.498-1.587,8.84-0.045,13.16,0.25
		c6.319,0.432,12.625,0.725,18.941,0.655c18.788-0.209,37.578-0.873,56.359-0.656c6.534,0.075,13.165,0.667,19.747,1.497
		c11.195,1.411,22.474,0.565,33.717-0.42c6.116-0.536,12.279-0.731,18.421-0.721c18.645,0.029,37.29,0.239,55.935,0.364
		c8.649,0.058,17.324,0.289,25.891-1.092c3.086-0.497,5.762,0.085,8.604,1.044c30.312,10.232,60.455,20.981,91.149,30.055
		c0.613,0.181,1.156,0.601,1.723,0.903c-0.841,3.624,0.148,5.044,4.118,3.93C968.699,1009.338,970.919,1009.704,973.022,1009.655z"
		/>
	<path style="fill:#C0C276;" d="M571.217,649.203c4.036-6.014,8.798-10.852,13.45-15.726c15.725-16.474,31.686-32.689,50.775-45.438
		c3.705-2.474,6.956-5.679,10.221-8.753c6.324-5.952,14.182-6.97,22.352-8.166c18.181-2.662,36.484-1.494,54.707-2.533
		c11.63-0.663,23.349,0.372,35.029,0.398c22.946,0.051,45.87,0.417,68.676,3.302c8.404,1.063,14.564,5.988,19.899,12.057
		c1.08,1.228,1.942,2.517,3.397,3.408c26.01,15.936,46.038,38.333,66.842,61.594c-6.386-0.827-11.7-1.276-16.918-2.242
		c-9.504-1.76-19.147-1.849-28.72-2.73c-22.966-2.115-46.065-2.301-69.015-4.904c-12.03-1.365-24.242-1.095-36.287-2.366
		c-10.79-1.139-21.583-1.266-32.313-0.719c-18.044,0.92-36.111,1.696-54.1,3.66c-9.4,1.026-18.875,1.384-28.322,1.965
		C624.441,643.64,597.933,644.591,571.217,649.203z"/>
	<path style="fill:#BFC176;" d="M1159.892,1333.735c-0.132-1.189-0.196-1.519-0.201-1.849c-0.212-13.955-1.611-15.592-15.432-19.027
		c-14.665-3.644-29.55-5.182-44.619-6.249c-22.08-1.563-44.147-2.742-66.274-2.594c-9.479,0.063-18.955,0.57-28.433,0.861
		c-18.651,0.573-37.361,0.089-55.88-1.315c-38.511-2.921-77.037-3.915-115.61-3.902c-13.121,0.004-26.252,0.874-39.356,1.701
		c-5.323,0.336-10.631,0.461-15.952,0.513c-10.148,0.099-20.294,0.47-30.43,0.681c-15.443,0.322-30.917-0.541-46.37-1.092
		c-22.099-0.788-44.163-2.511-66.312-1.82c-11.808,0.369-23.634,0.138-35.452,0.259c-20.952,0.215-41.778,2.824-62.691,3.501
		c-19.945,0.646-39.895,1.797-59.876,1.047c-20.954-0.786-41.91-1.167-62.86,0.27c-15.9,1.091-31.858,1.611-47.693,3.301
		c-10.279,1.097-20.604,2.93-30.339,6.816c-8.156,3.255-8.479,3.86-8.555,12.412c-0.015,1.658-0.002,3.315-0.784,5.226
		c-2.795-6.38-6.004-12.615-8.297-19.171c-4.409-12.606-11.464-24.052-15.626-36.746c-3.173-9.678-3.227-9.661,6.951-9.663
		c5.993-0.001,11.986,0.043,17.977-0.018c2.852-0.029,5.556,0.053,8.121,1.711c2.031,1.312,4.878,1.782,6.675,0.322
		c5.498-4.469,12.09-3.326,18.136-3.597c14.944-0.668,29.822-2.854,44.724-2.913c16.501-0.065,33.008-0.99,49.546,0.096
		c17.767,1.167,35.482-0.656,53.141-2.853c11.836-1.473,23.749-2.326,35.583-3.805c7.775-0.971,15.559-0.796,23.329-0.836
		c9.632-0.05,19.055,2.28,28.586,3.434c22.311,2.701,44.598,4.477,67.081,1.969c8.908-0.993,17.927-1.099,26.877,0.248
		c1.309,0.197,2.798,0.556,3.959,0.146c6.006-2.123,9.673,1.428,13.724,4.92c8.059,6.947,16.422,13.54,24.631,20.313
		c6.258,5.164,17.289,5.434,23.53,0.347c9.02-7.352,18.123-14.618,26.817-22.342c3.357-2.983,6.674-3.035,10.732-3.131
		c10.805-0.255,21.608-1.161,32.398-0.047c15.952,1.646,31.907,1.273,47.819-0.076c11.382-0.966,22.693-2.763,34.036-4.189
		c5.542-0.696,11.182-0.637,16.653-1.063c9.753-0.761,19.186,0.672,28.703,1.468c13.346,1.117,26.608,3.215,39.947,4.437
		c13.247,1.214,26.548,1.904,39.865,1.336c10.974-0.469,22.089-1.243,32.903-0.443c14.268,1.055,28.602-0.211,42.842,2.145
		c8.636,1.429,17.574,1.104,26.382,1.371c2.912,0.089,5.478,0.388,7.846,2.401c2.626,2.233,6.043,2.742,8.84,0.763
		c3.179-2.25,6.504-2.122,9.977-2.115c7.323,0.013,14.647,0.073,21.968-0.03c2.912-0.041,3.959,0.16,2.964,3.804
		c-2.935,10.747-8.203,20.464-12.507,30.606C1169.128,1311.833,1164.677,1322.405,1159.892,1333.735z"/>
	<path style="fill:#BFC176;" d="M794.636,230.92c-17.941-4.227-36.067-7.103-54.558-6.269c-15.033,0.678-30.137,1.055-44.742,5.466
		c-1.363,0.412-2.938,0.119-4.414,0.153l0.115,0.077c-0.075-2.236-1.726-1.033-2.539-0.987
		c-18.963,1.073-36.431,6.048-50.961,19.122c-15.022,13.516-29.34,27.703-37.934,46.297c-6.92,14.971-12.274,30.591-13.737,47.996
		c-2.944-5.135-3.861-10.15-3.651-15.372c1.012-25.173,7.911-48.83,19.668-70.929c12.371-23.253,26.48-45.474,42.703-66.28
		c3.298-4.229,7.582-6.862,12.329-9.613c4.84-2.805,9.71-5.802,14.758-8.468c12.214-6.452,25.303-9.459,38.938-10.549
		c13.4-1.071,26.803-3.512,40.248-1.978c18.827,2.147,38.165,1.389,56.126,8.938c5.78,2.429,11.41,5.214,17.17,7.692
		c1.76,0.757,3.103,1.805,4.245,3.298c0.686,0.897,1.596,2.233,2.468,2.283c8.133,0.469,11.09,7.467,14.956,12.549
		c11.93,15.682,23.374,31.899,32.12,49.523c8.987,18.111,18.705,36.122,23.254,56.114c1.974,8.674,3.83,17.41,3.973,26.406
		c0.093,5.858-0.758,11.418-3.719,17.588c-1.485-17.981-7.105-33.845-13.997-49.235c-7.261-16.214-19.694-28.579-32.093-40.844
		c-3.298-3.262-7.022-6.105-10.647-9.02c-13.678-11.002-30.09-13.763-46.85-15.417c-0.954-0.094-2.028-0.244-2.661,0.836
		C795.01,230.499,794.821,230.708,794.636,230.92z"/>
	<path style="fill:#BFC176;" d="M923.982,710.937c-14.395-4.761-27.896-10.349-42.16-13.085c-19.245-3.692-38.699-5.761-58.384-5.05
		c-17.454,0.631-34.912,0.113-52.374-0.071c-20.443-0.216-40.914-0.981-61.372,0.146c-11.973,0.66-23.954,0.161-35.928-0.413
		c-37.04-1.776-72.978,3.409-107.524,17.247c-0.761,0.305-1.578,0.467-2.385,0.701c-1.592-3.024-0.222-9.176-7.018-6.526
		c-0.206,0.08-0.968-1.188-1.429-1.856c-4.333-6.276-8.681-12.543-12.961-18.856c-0.682-1.005-2.554-1.944-0.253-3.458
		c7.06-4.645,11.76-11.695,17.535-17.649c1.39-1.434,2.526-1.875,4.628-1.807c7.116,0.229,13.983-2.097,21.135-2.391
		c11.101-0.456,22.159-1.876,33.253-2.613c22.364-1.486,44.767-2.02,67.142-3.712c31.347-2.371,62.823-1.697,94.271-0.784
		c22.932,0.665,45.716,3.388,68.69,3.754c16.872,0.269,33.794,1.921,50.676,3.268c8.343,0.665,16.466,3.727,24.979,2.398
		c1.385-0.216,1.984,1.051,2.746,1.865c5.787,6.18,10.89,13.041,17.866,18.033c1.671,1.196,0.791,2.191,0.005,3.325
		c-4.435,6.403-8.841,12.825-13.289,19.218c-0.442,0.635-1.329,1.691-1.634,1.574c-2.016-0.774-3.912-1.36-5.106,1.091
		C924.294,706.919,923.848,708.704,923.982,710.937z"/>
	<path style="fill:#BFC176;" d="M601.714,363.445c-4.347-4.829-7.193-9.068-6.051-15.774c1.919-11.264,5.094-22.084,8.361-32.999
		c4.658-15.562,13.455-28.221,24.295-39.788c3.983-4.25,8.112-8.375,12.341-12.38c5.947-5.633,12.648-9.69,20.692-12.204
		c18.71-5.848,37.917-9.277,57.232-11.381c14.813-1.614,29.908-0.736,44.884-0.185c17.147,0.631,33.766,4.893,50.425,8.133
		c13.551,2.636,26.654,8.219,36.52,19.285c7.414,8.316,15.174,16.315,21.84,25.272c7.765,10.434,10.2,23.13,14.659,34.952
		c2.926,7.757,3.609,16.074,4.961,24.194c0.906,5.446-2.86,9.073-6.227,13.696c-2.339-7.994-3.561-15.386-6.027-22.455
		c-5.235-15.005-15.144-26.759-25.999-37.787c-15.987-16.242-34.186-29.429-55.346-38.21c-8.337-3.46-17.415-3.566-26.13-5.328
		c-0.807-0.163-1.881,0.102-2.427-0.336c-8.622-6.924-18.602-2.72-27.95-3.299c-2.894-0.179-5.921,0.267-8.909,0.007
		c-4.664-0.405-9.052-0.185-13.5,2.191c-4.363,2.331-9.652,2.125-14.568,2.667c-15.645,1.722-28.833,9.247-41.604,17.589
		c-17.129,11.19-31.885,25.058-44.289,41.327c-8.476,11.117-13.03,23.983-15.617,37.609c-0.186,0.98-0.32,1.972-0.55,2.94
		C602.615,361.652,602.335,362.083,601.714,363.445z"/>
	<path style="fill:#BFC176;" d="M547.27,378.422c8.187,2.966,15.814,7.227,23.841,10.502c8.684,3.543,16.456,8.593,24.586,13.066
		c1.582,0.87,3.492,0.9,6.236,0.587c-4.203,4.401-8.934,6.066-13.776,6.186c-3.062,0.076-4.048,1.223-4.917,3.511
		c-3.672,9.669-4.358,19.801-3.276,29.857c0.461,4.281-1.411,8.295,0.153,12.642c6.298,17.498,10.802,35.865,25.847,48.721
		c8.839,7.552,18.498,11.451,30.268,7.92c2.651-0.795,4.548-2.456,6.964-4.313c2.364,4.348,4.575,8.57,6.934,12.707
		c2.185,3.833,1.787,6.781-2.088,9.395c-5.6,3.777-11.439,5.714-18.269,4.435c-9.56-1.79-19.342-2.076-28.723-5.211
		c-12.707-4.247-21.469-12.653-27.781-24.125c-4.706-8.553-8.393-17.474-11.124-26.871c-4.08-14.038-7.635-28.266-14.435-42.012
		c3.349,0,5.967,0.29,8.499-0.055c7.248-0.986,10.199-7.399,6.393-13.657c-1.459-2.399-2.89-4.858-4.669-7.011
		c-8.777-10.622-10.005-23.386-10.562-36.368L547.27,378.422z"/>
	<path style="fill:#BFC176;" d="M907.106,449.601c-0.047-7.466,0.679-14.914-0.048-22.408c-0.338-3.48-0.829-6.883-1.647-10.249
		c-1.078-4.435-2.283-8.141-8.468-8.058c-3.596,0.048-7.615-1.832-9.914-4.107c16.923-10.069,34.455-18.764,52.955-26.188
		c-0.638,14.535-3.234,28.219-12.865,39.738c-3.269,3.909-6.308,8.327-2.903,13.487c3.29,4.985,8.52,5.058,13.733,3.85
		c0.254,0.442,0.61,0.799,0.536,0.971c-7.397,17.289-11.17,35.782-17.69,53.346c-3.571,9.62-8.419,18.682-15.383,26.419
		c-9.456,10.506-22.04,14.052-35.377,15.872c-5.57,0.76-11.163,1.358-16.746,2.032c-2.714,0.328-5.305-0.363-7.812-1.194
		c-9.871-3.271-11.346-6.902-6.677-16.071c0.451-0.886,0.917-1.764,1.374-2.646c1.997-3.85,2.81-7.15,9.13-3.449
		c8.552,5.009,17.995,2.579,26.32-2.844c13.958-9.092,20.949-23.006,26.295-38.046c1.161-3.266,2.139-6.597,3.202-9.897
		c0.777-0.46,0.836-1.179,0.706-1.967c0,0,0.016,0.128,0.015,0.128C907.443,455.586,910.728,453.095,907.106,449.601z"/>
	<path style="fill:#BFC176;" d="M557.392,1846.516c-4.638,0.839-8.959-1.453-13.55-1.976c-18.478-2.102-30.476-14.459-42.475-26.872
		c-2.199-2.274-2.044-4.022-0.242-6.353c8.362-10.812,17.729-20.672,27.723-29.972c4.587-4.269,10.24-5.021,16.081-5.539
		c1.766-0.157,2.286,1.025,3.107,1.989c3.779,4.442,7.771,8.621,13.201,11.1c6.592,3.01,11.06,8.732,15.155,14.086
		c5.105,6.675,11.674,11.167,18.019,16.147c3.712,2.914,4.155,7.477,0.73,10.826c-3.564,3.484-7.144,6.971-10.948,10.184
		c-4.358,3.682-10.213,3.538-15.342,5.195C565.36,1846.46,561.406,1847.096,557.392,1846.516z"/>
	<path style="fill:#BFC176;" d="M891.074,1824.261c-0.866-2.533,0.941-4.055,3.003-5.248c9.82-5.683,16.578-14.575,23.903-22.842
		c3.172-3.58,7.08-6.05,11.143-8.227c3.323-1.78,5.98-4.084,8.316-6.945c4.027-4.932,7.588-5.8,13.839-3.695
		c3.368,1.134,6.397,2.88,8.923,5.286c9.521,9.067,18.512,18.626,26.582,29.041c1.812,2.339,2.072,3.954-0.093,6.283
		c-9.086,9.777-18.397,20.048-31.139,24.103c-13.575,4.32-27.614,7.492-42.585,2.276c-9.042-3.15-14.506-9.404-21.011-15.09
		C890.406,1827.849,890.893,1826.215,891.074,1824.261z"/>
	<path style="fill:#BFC176;" d="M817.142,160.412c-0.833,0.558-1.618,0.166-2.315-0.229c-12.712-7.191-26.907-8.653-40.964-10.645
		c-4.879-0.691-9.89-0.688-14.377-3.272c-1.071-0.617-2.55-0.681-3.85-0.718c-13.449-0.382-26.762,0.431-39.997,3.273
		c-11.104,2.384-22.682,2.487-33.415,6.729c-3.902,1.542-7.701,3.343-12.342,5.374c2.307-6.757,5.547-12.032,8.7-17.341
		c2.024-3.407,4.16-6.747,6.223-10.131c1.698-2.785,2.964-6.09,7.435-3.735c1.15,0.605,3.163,0,4.108-1.225
		c6.997-9.066,17.719-9.29,27.497-11.93c20.174-5.446,39.344,0.23,58.629,4.886c2.921,0.705,4.452,3.338,6.581,5.118
		c2.381,1.99,4.717,3.943,7.999,2.414c1.79-0.834,2.615,0.311,3.225,1.358c5.791,9.931,13.041,19.056,16.759,30.139L817.142,160.412
		z"/>
	<path style="fill:#BFC176;" d="M1110.789,1204.908c12.305-0.152,24.515,1.429,36.78,1.979c3.364,0.151,2.177,2.119,1.778,3.709
		c-2.688,10.703-5.45,21.387-8.165,32.083c-0.485,1.913-0.78,3.876-1.301,5.778c-2.321,8.456-2.373,8.276-11.015,7.418
		c-11.865-1.178-23.758-2.113-35.654-2.921c-6.19-0.42-6.394-0.42-5.474-6.197c1.557-9.777,3.797-19.401,6.423-28.941
		c0.525-1.908,1.164-3.812,1.422-5.761c0.297-2.237-0.519-5.977,0.473-6.486c2.133-1.097,5.114-0.584,7.75-0.651
		C1106.132,1204.858,1108.461,1204.905,1110.789,1204.908z"/>
	<path style="fill:#BFC176;" d="M374.174,1204.767c4.828,0,9.656-0.025,14.483,0.016c1.397,0.012,3.136-0.437,2.955,2.085
		c-0.649,9.004,3.874,16.992,5.145,25.639c0.839,5.709,2.041,11.38,3.398,16.99c0.583,2.41-0.655,2.193-2.194,2.635
		c-5.037,1.447-10.244,0.779-15.358,1.442c-9.85,1.278-19.825,1.569-29.74,2.368c-2.571,0.207-3.747-0.503-4.408-3.251
		c-3.432-14.271-7.117-28.481-10.761-42.7c-0.628-2.449,0.228-2.978,2.644-3.2C351.598,1205.754,362.844,1204.636,374.174,1204.767z
		"/>
	<path style="fill:#BFC176;" d="M1076.566,1205.184c-3.062,9.281-7.077,18.185-9.038,27.735c-1.097,5.342-2.16,10.695-3.048,16.074
		c-0.31,1.877-0.641,2.974-2.941,2.959c-18.106-0.122-36.224,0.294-54.521-1.312c3.08-9.36,6.061-18.609,9.179-27.812
		c1.493-4.408,3.183-8.757,2.54-13.531c-0.508-3.776,2.458-3.021,4.275-3.08c13.64-0.442,27.286-0.732,40.931-1.019
		C1068.078,1205.11,1072.216,1205.184,1076.566,1205.184z"/>
	<path style="fill:#BFC176;" d="M410.56,1205.153c18.579-1.004,36.493,0.761,54.437,0.853c1.522,0.008,3.68-0.435,3.431,2.291
		c-0.852,9.34,4.134,17.226,6.427,25.775c1.487,5.542,3.55,10.93,5.469,16.732c-18.338,0.245-36.373,1.556-54.453,1.004
		c-1.538-0.047-2.897,0.076-3.141-2.134C421.038,1234.315,416.475,1219.709,410.56,1205.153z"/>
	<path style="fill:#BFC176;" d="M743.586,0c4.914,35.01,14.735,68.569,26.232,101.941c-17.613-2.374-35.063-1.169-52.72,0.304
		C728.878,68.824,738.529,35.055,743.586,0z"/>
	<path style="fill:#BFC176;" d="M985.635,1248.579c-16.225-1.982-32.368-3.954-48.518-5.927c2.1-8.496,4.161-16.791,6.19-25.095
		c0.273-1.119,0.488-2.271,0.552-3.418c0.393-7.064,0.376-7.144,7.282-7.167c15.417-0.052,30.835-0.016,46.366-0.016
		C993.726,1220.946,986.295,1233.644,985.635,1248.579z"/>
	<path style="fill:#BFC176;" d="M550.168,1242.432c-14.444,1.822-28.714,3.617-42.982,5.425c-3.703,0.469-5.816,0.624-6.259-4.833
		c-0.83-10.225-5.728-19.588-8.91-29.316c-0.714-2.184-1.535-4.333-2.393-6.74c17.286,0,34.238-0.003,51.19,0.008
		c1.183,0.001,2.524,0.039,2.462,1.71C542.836,1220.504,547.994,1231.201,550.168,1242.432z"/>
	<path style="fill:#BFC176;" d="M1175.13,1257.91c-4.978-0.047-11.554,1.661-14.422-1.291c-2.576-2.651,1.233-8.783,2.138-13.376
		c2.13-10.809,6.058-21.239,7.034-32.307c0.166-1.886,1.247-2.003,2.69-2.04c11.783-0.305,23.567-0.597,35.347-0.998
		c3.2-0.109,3.265,1.377,2.242,3.661c-6.586,14.713-13.197,29.415-19.752,44.142c-0.782,1.756-1.902,2.333-3.815,2.252
		C1182.776,1257.792,1178.951,1257.906,1175.13,1257.91z"/>
	<path style="fill:#BFC176;" d="M290.86,1207.924c7.203-0.662,15.432,1.449,23.752,0.891c1.952-0.131,2.479,0.759,2.726,2.583
		c1.95,14.401,6.675,28.192,9.479,42.415c0.446,2.263,0.873,3.228-2.009,3.277c-7.968,0.138-15.936,0.444-23.894,0.865
		c-2.393,0.127-3.441-0.796-4.357-2.908c-6.352-14.639-12.749-29.261-19.362-43.783c-1.304-2.864-0.791-3.46,2.073-3.367
		C282.753,1208.01,286.246,1207.924,290.86,1207.924z"/>
	<path style="fill:#BFC176;" d="M887.596,1239.889c-5.171,0-8.997,0.025-12.823-0.014c-1.244-0.013-2.919,0.401-2.806-1.751
		c0.378-7.142-1.813-14.173-0.837-21.352c0.377-2.773,1.23-4.489,4.463-4.708c14.721-0.995,29.435-2.122,44.139-3.34
		c2.749-0.228,3.722,0.339,2.845,3.18c-2.625,8.503-5.176,17.029-7.711,25.559c-0.538,1.81-1.962,1.571-3.224,1.512
		C903.151,1238.577,894.758,1240.797,887.596,1239.889z"/>
	<path style="fill:#BFC176;" d="M603.358,1239.697c-9.987,0.903-18.881-1.396-27.881-0.797c-1.247,0.083-2.793,0.361-3.097-1.602
		c-1.323-8.547-5.654-16.181-7.417-24.634c-0.731-3.507-1.077-4.302,3.251-4.095c14.266,0.682,28.36,3.466,42.667,3.329
		c3.38-0.032,4.301,1.255,4.709,4.591c0.881,7.204-1.206,14.264-0.44,21.418c0.222,2.077-1.518,1.769-2.793,1.78
		C609.029,1239.716,605.7,1239.697,603.358,1239.697z"/>
	<path style="fill:#BFC176;" d="M680.247,1240.448c-4.272,0-8.36-0.152-12.433,0.031c-8.782,0.395-17.576,0.75-26.327,1.543
		c-4.916,0.446-6.873-2.324-7.129-6.17c-0.418-6.285-0.018-12.622-0.014-18.938c0.001-1.984,1.256-2.01,2.678-1.95
		c8.304,0.35,16.615,0.591,24.91,1.091c2.833,0.171,4.921,1.262,6.034,4.63c1.828,5.532,5.694,10.051,9.214,14.671
		C678.251,1236.76,679.745,1237.906,680.247,1240.448z"/>
	<path style="fill:#BFC176;" d="M805.981,1241.031c5.766-7.778,11.773-14.085,14.283-22.596c0.501-1.699,1.982-1.361,3.244-1.646
		c9.008-2.033,18.217-0.035,27.252-1.411c1.144-0.174,2.122,0.231,2.018,1.504c-0.592,7.226,1.59,14.552-0.833,21.713
		c-0.837,2.473-2.169,3.697-5.047,3.529C833.547,1241.347,820.203,1240.295,805.981,1241.031z"/>
	<path style="fill:#BFC176;" d="M677.848,904.06c-4.138,2.078-5.325,5.551-6.755,8.9c-1.401,3.279-3.606,5.945-7.546,5.067
		c-11.918-2.655-24.036-4.951-32.317-15.404c-2.301-2.904-3.499-4.988,0.23-7.937c4.405-3.484,8.17-7.771,12.32-11.593
		c0.772-0.711,1.968-2.573,3.181-0.687C654.157,893.59,666.59,897.249,677.848,904.06z"/>
	<path style="fill:#BFC176;" d="M808.823,904.373c7.043-3.661,13.47-6.663,19.538-10.271c4.232-2.516,7.879-6.033,10.749-10.07
		c1.473-2.072,2.526-2.272,4.201-0.663c4.914,4.721,9.816,9.455,14.717,14.189c1.846,1.783-0.383,2.618-1.016,3.62
		c-6.179,9.778-16.511,12.693-26.647,15.858c-2.195,0.685-4.472,1.016-6.811,1.206c-3.959,0.323-6.227-1.356-7.661-4.864
		C814.518,910.018,813.33,906.454,808.823,904.373z"/>
	<path style="fill:#BFC176;" d="M333.578,1677.654c0.875,0.136,0.867,0.776,0.78,1.426c-0.016,0.123-0.227,0.22-0.348,0.329
		c-0.159-0.572-0.317-1.145-0.476-1.717C333.534,1677.692,333.578,1677.654,333.578,1677.654z"/>
	<path style="fill:#BFC176;" d="M795.204,230.295c0.542,0.239,1.084,0.478,1.627,0.717c-0.763,0.698-1.482,0.422-2.193-0.094
		C794.821,230.708,795.01,230.499,795.204,230.295z"/>
	<path style="fill:#BFC176;" d="M301.573,1771.64c-0.212-0.068-0.424-0.136-0.636-0.204c0.055-0.136,0.109-0.271,0.164-0.407
		c0.161,0.199,0.322,0.399,0.482,0.598C301.584,1771.628,301.573,1771.64,301.573,1771.64z"/>
	<path style="fill:#BFC176;" d="M547.369,378.329c-0.144-0.021-0.306-0.01-0.424-0.078c-0.054-0.031-0.021-0.215-0.027-0.33
		c0.117,0.167,0.234,0.333,0.351,0.5C547.27,378.422,547.369,378.329,547.369,378.329z"/>
	<path style="fill:#BFC176;" d="M690.923,230.27c0.066,0.238,0.132,0.476,0.198,0.715c-0.194-0.002-0.389-0.004-0.583-0.006
		c0.17-0.208,0.34-0.417,0.505-0.629C691.038,230.347,690.923,230.27,690.923,230.27z"/>
	<path style="fill:#BFC176;" d="M817.039,160.477c0.184,0.189,0.367,0.379,0.551,0.568c-0.539,0.067-0.867-0.017-0.45-0.633
		C817.142,160.412,817.039,160.477,817.039,160.477z"/>
	<path style="fill:#A4CD12;" d="M817.102,1736.486c-2.798,0.197-5.599,0.431-9.131-0.593c4.472-5.584,9.917-8.995,16.152-11.097
		c3.312-1.116,6.688-2.028,9.582-4.007c6.038-4.127,12.561-5.122,19.446-2.969c4.444,1.389,7.911,0.245,10.591-3.273
		c2.825-3.708,3.451-7.933,1.558-12.241c-1.822-4.146-5.411-5.541-9.729-5.649c-9.991-0.248-19.255,1.391-27.83,7.327
		c-7.324,5.07-15.833,8.419-22.456,14.601c-4.484,4.186-8.982,8.443-10.347,14.844c-0.658,3.084-2.648,2.163-4.633,1.605
		c-12.829-3.606-25.815-5.682-39.24-5.617c-13.904,0.068-27.827-1.155-41.535,2.274c-4.328,1.083-8.672,2.103-13.016,3.122
		c-1.559,0.365-2.81,0.433-3.355-1.71c-1.953-7.682-7.186-13.108-13.431-17.312c-10.672-7.185-21.004-15.27-33.775-18.448
		c-5.048-1.256-10.456-2.01-15.786-0.856c-6.416,1.389-9.507,6.189-8.119,12.537c1.443,6.595,6.071,10.027,12.292,8.506
		c7.494-1.832,14.216-1.044,20.84,3.26c6.191,4.024,14.263,4.421,19.912,9.746c1.549,1.46,3.207,2.804,4.684,5.388
		c-2.848,0-5.696,0-8.544,0c-2.333-1.976-4.725-2.983-8.057-2.416c-6.294,1.071-12.692,1.528-19.046,2.241
		c-5.162-0.238-10.245-1.284-14.941-3.23c-7.82-3.241-15.802-5.788-24.079-7.423c-4.481-0.885-8.484-2.755-11.99-5.573
		c-2.81-2.258-5.511-4.103-5.419-8.954c0.069-3.657-1.585-8.115-4.293-11.366c-5.164-6.201-4.1-21.195,3.191-26.046
		c9.863-6.561,20.13-10.039,31.615-3.899c5.698,3.046,11.457,5.986,17.259,8.83c8.232,4.035,15.088,0.091,15.767-9.095
		c0.574-7.766-0.449-15.525,0.78-23.36c2.872-18.307,18.155-38.249,44.23-36.36c12.104,0.877,24.08,2.791,36.179,3.556
		c3.324,0.21,6.647,0.512,9.818-0.961c0.567-0.264,1.391-0.538,1.881-0.321c10.707,4.725,21.239,0.05,31.843-0.51
		c8.604-0.454,17.114-1.85,25.842-0.974c15.624,1.568,31.266,16.931,34.241,35.533c1.058,6.613,1.217,13.182,0.591,19.843
		c-0.228,2.422,0.099,5.031,0.781,7.377c1.909,6.569,7.879,9.176,14.21,6.181c6.282-2.972,12.474-6.148,18.601-9.429
		c10.762-5.763,20.613-2.635,30.058,3.106c7.819,4.752,10.295,18.211,4.342,26.986c-2.389,3.521-4.983,7.552-3.235,12.582
		c0.303,0.871-1.295,2.586-2.269,3.686c-4.424,4.996-9.975,8.31-16.47,9.583c-7.325,1.436-14.488,3.314-21.301,6.325
		c-5.672,2.507-11.739,3.256-17.688,4.538c-5.739-0.661-11.524-1.085-17.214-2.062
		C822.873,1733.692,819.583,1732.956,817.102,1736.486z"/>
	<path style="fill:#A4CD12;" d="M784.089,878.385c-11.203-0.5-22.346,0.005-33.26-3.165c-7.537-2.189-15.114-0.412-22.587,1.199
		c-9.831,2.12-19.833,1.332-29.767,1.665c-3.02,0.101-4.965-2.417-7.4-3.664c-5.149-2.637-9.916-6.015-14.895-8.998
		c-1.389-0.832-2.439-2.002-2.729-3.411c-1.127-5.473-3.57-10.64-3.559-16.389c0.009-4.538,2.39-6.803,6.939-7.028
		c7.775-0.384,15.23-2.404,22.497-5.193c6.065-2.329,10.665-6.599,14.966-11.19c4.824-5.151,11.416-4.8,17.477-6.017
		c10.933-2.195,21.816-0.514,32.642,1.066c3.643,0.531,7.091,2.212,9.364,5.244c9.109,12.15,22.5,14.856,36.285,16.546
		c4.296,0.527,6.599,2.392,6.985,6.674c0.569,6.305-2.098,11.935-3.677,17.792c-0.085,0.314-0.202,0.749-0.439,0.874
		C803.484,869.406,795.801,878.131,784.089,878.385z M708.605,857.118c2.913-0.517,5.172,0.715,7.177,2.637
		c2.275,2.18,4.516,4.397,6.852,6.509c3.457,3.125,7.459,2.159,8.999-2.253c1.044-2.99,0.78-5.948-1.557-8.332
		c-2.902-2.959-5.784-5.962-8.915-8.668c-4.399-3.802-9.65-3.469-15.059-2.902c-4.074,0.427-3.506,3.682-4.651,5.998
		c-0.421,0.851-1.27,1.499-1.955,2.209c-1.001,1.036-2.481,1.837-1.38,3.698c0.966,1.634,2.385,2.218,4.186,2.044
		C704.428,857.852,706.397,856.648,708.605,857.118z M784.285,858.25c2.721,0.204,4.065-0.475,5.035-2.09
		c1.315-2.188-0.868-2.434-1.775-3.33c-1.334-1.317-2.541-2.72-2.621-4.651c-0.094-2.279-1.413-2.924-3.388-3.46
		c-8.755-2.375-23.763,5.786-26.126,14.479c-0.892,3.283-0.183,6.424,2.784,8.41c3.189,2.134,5.59,0.203,7.798-2.067
		c1.735-1.784,3.543-3.499,5.326-5.237c2.82-2.748,6.066-3.893,9.975-2.728C782.555,857.953,783.868,858.159,784.285,858.25z"/>
	<path style="fill:#2D9EC9;" d="M830.725,1592.959c-7.353-6.587-8.744-14.519-7.552-22.814c2.324-16.166,7.35-31.823,19.203-43.251
		c12.688-12.233,26.784-23.102,43.844-29.324c7.616-2.778,15.06-6.044,22.999-7.781c29.526-6.46,55.051,1.117,77.118,21.682
		c7.376,6.874,13.988,14.109,18.813,23.023c3.506,6.477,8.229,12.08,14.028,16.724c6.49,5.198,14.252,6.534,22.147,8.004
		c11.997,2.234,23.549,6.365,35.603,8.579c21.58,3.963,41.062-0.084,59.236-14.665c-4.566,18.604-11.478,34.624-24.653,47.307
		c-6.168,5.938-14.196,7.423-22.398,8.116c-11.581,0.977-23.082,1.669-34.285-2.77c-6.934-2.748-13.053-6.515-18.145-11.947
		c-2.498-2.665-5.193-4.968-8.271-7.061c-2.743-1.865-4.649-5.234-6.348-8.263c-1.006-1.792-1.888-3.585-3.626-4.58
		c-11.365-6.504-18.329-17.086-25.784-27.301c-12.325-16.889-28.885-27.616-49.216-32.25c-6.159-1.404-12.471-0.226-18.787,0.278
		c-15.161,1.211-28.593,7.462-42.577,12.432C851.056,1538.121,835.556,1560.915,830.725,1592.959z"/>
	<path style="fill:#2D9EC9;" d="M352.716,1554.215c19.591,14.938,41.037,17.369,64.336,12.256
		c12.735-2.795,25.077-6.992,38.009-9.181c13.005-2.2,21.523-11.636,27.513-22.786c7.156-13.321,17.963-22.948,29.683-31.832
		c23.405-17.742,49.294-18.625,76.196-10.582c16.31,4.876,30.494,13.639,44.566,23.384c19.891,13.774,28.134,33.089,31.968,55.366
		c1.384,8.042-1.196,15.372-7.569,21.449c-0.784-3.509-1.488-6.701-2.212-9.888c-4.136-18.218-12.349-34.476-28.081-44.776
		c-16.493-10.798-34.969-18.283-54.409-22.089c-9.764-1.912-19.981-4.001-30.08-1.157c-18.391,5.179-34.092,14.687-45.689,30.077
		c-8.2,10.882-15.399,22.606-27.79,29.474c-2.723,1.509-3.055,4.619-4.608,6.875c-3.974,5.769-9.983,9.165-14.757,13.967
		c-10.777,10.839-24.309,14.948-39.429,14.07c-4.313-0.25-8.617-0.957-12.924-0.955c-10.323,0.004-18.697-4.085-25.155-11.888
		C362.22,1583.841,355.685,1569.929,352.716,1554.215z"/>
	<path style="fill:#2D9EC9;" d="M717.013,1504.675c1.255,25.579,3.031,51.135,3.198,76.76c0.023,3.512-0.093,5.38-4.615,4.489
		c-5.842-1.151-11.865-1.405-17.819-1.945c-1.9-0.172-3.32-0.272-2.286-2.845c2.544-6.334,2.256-13.104,2.366-19.703
		c0.26-15.466,0.681-30.921-0.535-46.412c-1.083-13.782,2.533-27.396,3.045-41.172c0.408-10.967,1.313-21.917,1.711-32.884
		c0.183-5.02,1.967-9.062,5.838-12.056c4.597-3.556,9.157-7.261,14.153-10.183c13.195-7.717,27.1-7.093,40.646-1.403
		c7.148,3.003,13.288,8.137,19.04,13.485c2.54,2.361,4.082,5.292,4.278,8.708c0.755,13.117,1.266,26.249,2.084,39.362
		c0.413,6.616,1.516,13.19,1.913,19.806c1.326,22.085-0.909,44.179,0.026,66.277c0.24,5.681,0.362,11.341,2.435,16.669
		c1.064,2.734,0.079,3.108-2.266,3.143c-6.323,0.095-12.6,0.785-18.824,1.888c-2.607,0.462-3.448-0.37-3.409-3.104
		c0.317-22.286,1.157-44.537,2.831-66.773c1.035-13.753,0.628-27.537-2.723-41.075c-3.366-13.601-21.69-22.596-35.681-14.941
		c-9.918,5.426-12.906,13.941-14.233,24.031C717.317,1491.408,716.933,1498.016,717.013,1504.675z"/>
	<path style="fill:#2D9EC9;" d="M922.469,766.82c3.049,14.727-7.642,26.122-18.757,28.82c-3.604,0.875-6.992-0.168-10.333-0.69
		c-3.283-0.513-6.167-0.957-8.939,1.167c-1.876,1.437-2.213-0.379-2.795-1.399c-8.2-14.37-22.499-19.937-36.763-25.574
		c-4.632-1.831-9.22-0.844-13.676,0.406c-20.898,5.863-36.988,17.444-45.078,38.424c-0.488,1.265-0.339,3.749-2.519,3.276
		c-2.872-0.624-1.33-2.78-0.914-4.434c0.877-3.484-0.6-6.688-1.852-9.619c-3.798-8.894-0.976-16.763,4.693-22.995
		c10.907-11.991,23.665-21.631,40.126-25.059c6.133-1.277,12.079-2.872,18.568-2.508c9.338,0.524,16.982,4.531,23.86,10.077
		c10.949,8.828,22.895,14.615,37.212,14.387C911.284,771.004,917.004,769.425,922.469,766.82z"/>
	<path style="fill:#2D9EC9;" d="M564.633,766.789c19.546,8.031,36.861,3.448,52.722-9.353c9.342-7.54,19.723-12.747,32.018-11.139
		c12.852,1.681,25.282,5.188,35.782,13.361c5.359,4.171,11.305,7.687,15.596,13.12c5.869,7.432,8.836,15.467,5.037,24.903
		c-1.307,3.248-2.537,6.682-1.134,10.134c0.805,1.98,0.043,3.094-1.395,3.537c-1.764,0.543-1.677-1.443-2.035-2.416
		c-8.246-22.402-25.045-34.611-47.526-40.131c-4.819-1.183-9.603-1.198-14.147,0.773c-5.311,2.303-10.495,4.91-15.674,7.506
		c-7.749,3.883-14.166,9.256-18.311,17.029c-1.066,1.999-2.126,2.836-4.257,1.065c-1.78-1.48-4.119-1.365-6.224-0.765
		C576.078,799.828,560.833,783.254,564.633,766.789z"/>
	<path style="fill:#B03CAF;" d="M1007.949,1932.672c-20.662,0.578-38.863-4.637-55.585-15.946
		c-24.552-16.605-51.725-26.613-81.046-31.235c-14.139-2.229-28.387-2.998-42.554-4.711c-14.742-1.782-29.581-1.661-44.368-1
		c-10.762,0.482-21.562,0.697-32.268,2.56c-5.327,0.927-10.924,0.83-16.336-0.503c-6.515-1.605-13.228-1.568-19.839-1.882
		c-17.918-0.851-35.807-1.906-53.792,0.287c-14.155,1.726-28.522,1.848-42.594,4.407c-10.099,1.836-20.087,4.295-30.118,6.502
		c-21.533,4.737-39.715,16.572-58.063,27.877c-21.034,12.961-43.796,15.469-67.603,12.342c-4.861-0.639-8.849-3.751-12.282-7.222
		c-14.619-14.782-27.333-31.004-33.354-51.205c-5.191-17.418-9.845-35.234-8.488-53.612c0.971-13.141,2.658-26.377,6.848-39.009
		c3.517-10.604,9.916-19.04,20.089-24.303c2.521-1.304,3.825-1.477,4.913,1.755c6.703,19.908,16.68,38.202,28.174,55.689
		c2.025,3.081,2.056,4.775-1.589,6.351c-4.252,1.838-8.212,4.348-12.452,6.217c-5.335,2.352-7.812,6.214-8.003,12.028
		c-0.371,11.346,1.802,22.492,2.393,33.763c0.249,4.741,1.239,9.537,2.579,14.108c3.455,11.788,11.82,16.483,23.698,13.559
		c19.231-4.733,36.637-13.604,53.392-23.889c4.444-2.728,8.201-6.315,11.148-10.596c1.334-1.938,2.606-2.373,4.908-2.183
		c12.076,1,24.14,0.315,36.052-1.704c4.157-0.704,7.486-0.026,11.371,1.337c9.549,3.349,19.539,5.306,29.649,5.98
		c10.616,0.708,21.368,0.819,31.894,0.347c6.066-0.272,10.074,1.67,14.686,4.042c8.761,4.506,18.056,4.055,27.295,2.392
		c14.339-2.581,28.71-2.891,43.211-2.048c8.96,0.521,17.974,0.494,26.951,0.256c9.212-0.245,18.215,1.122,27.247,2.498
		c11.041,1.682,21.566,0.853,30.698-6.49c0.948-0.762,1.794-1.03,3.122-0.922c22.126,1.806,44.268,1.724,65.497-5.323
		c6.311-2.095,11.549-1.731,17.555-0.803c10.424,1.609,20.993,1.149,31.511,1.031c1.978-0.022,3.439,0.115,4.64,1.952
		c3.443,5.264,8.227,9.224,13.607,12.262c15.182,8.574,30.655,16.359,47.544,21.391c16.795,5.005,25.214-2.112,28.058-16.609
		c2.927-14.923,4.199-30.16,3.658-45.474c-0.177-5.003-2.623-8.002-6.831-10.076c-4.612-2.273-9.157-4.682-13.787-6.916
		c-2.615-1.261-3.37-2.577-1.561-5.334c11.752-17.914,21.995-36.621,28.89-56.998c1.024-3.025,2.474-2.219,4.477-1.259
		c11.302,5.413,17.99,14.848,21.085,26.42c3.934,14.709,7.339,29.849,6.326,45.093c-2.418,36.372-13.377,69.401-40.645,95.41
		c-6.348,6.055-13.288,9.741-22.164,9.413C1012.967,1932.584,1010.134,1932.672,1007.949,1932.672z"/>
	<path style="fill:#B03CAF;" d="M805.581,1475.388c-0.509-10.108-0.983-20.218-1.56-30.322c-0.098-1.716,0.862-2.347,2.111-2.891
		c32.935-14.365,62.375-34.952,93.541-52.465c18.334-10.302,36.171-21.482,54.774-31.274c12.489-6.573,25.771-11.236,40.142-11.705
		c5.152-0.168,5.276,0.063,3.013,4.837c-2.903,6.126-6.069,12.14-7.934,18.702c-2.327,8.188,1.007,12.513,9.392,12.698
		c7.238,0.159,14.04-2.181,21.045-3.297c8.75-1.394,17.605-0.386,26.336-1.792c6.731-1.084,13.547-1.351,20.369-1.05
		c1.487,0.066,3.003,0.085,4.448,0.396c8.327,1.788,9.383,3.382,7.331,11.486c-1.746,6.898-3.697,13.723-4.036,20.914
		c-0.278,5.888,1.236,11.068,4.444,15.994c9.825,15.09,23.836,23.705,41.269,27.099c8.303,1.616,16.666,2.985,25.149,2.929
		c2.706-0.018,3.494,0.824,3.296,3.362c-0.726,9.267-1.376,18.541-2.014,27.814c-0.074,1.073-0.351,2.077-1.226,2.596
		c-8.549,5.071-16.514,12.148-27.773,7.428c-4.741-1.987-9.899-2.599-14.935-3.597c-18.878-3.743-32.05-15.35-38.559-32.701
		c-10.936-29.148-32.822-44.087-61.103-52.767c-24.178-7.42-48.162-7.228-72.723-2.195c-17.914,3.671-35.07,9.573-52.341,15.177
		c-18.331,5.948-33.734,16.883-47.52,30.146c-8.246,7.933-16.187,16.175-23.651,24.878
		C806.437,1475.655,806.009,1475.522,805.581,1475.388z"/>
	<path style="fill:#B03CAF;" d="M682.427,1476.777c-2.787-3.073-4.687-5.087-6.498-7.178c-23.215-26.795-50.23-47.197-85.657-55.81
		c-16.371-3.98-32.448-9.191-49.228-11.323c-34.473-4.382-65.99,3.739-94.106,23.925c-9.702,6.966-16.039,17.188-20.51,28.361
		c-5.359,13.391-12.82,25.086-25.735,32.536c-4.226,2.438-8.765,3.965-13.398,5.172c-7.361,1.917-14.812,3.487-22.217,5.236
		c-6.07,1.434-10.723-1.722-15.776-4.313c-5.531-2.836-8.425-6.114-8.05-12.942c0.387-7.051-1.052-14.203-1.705-21.309
		c-0.239-2.599-0.023-3.729,3.514-3.834c13.288-0.394,26.339-2.365,38.917-7.194c12.98-4.983,21.736-14.459,28.682-25.861
		c5.341-8.768,2.34-18.048,0.493-27.121c-0.625-3.068-1.513-6.085-2.368-9.101c-1.247-4.4,0.436-7.083,4.725-8.249
		c7.699-2.093,15.586-1.509,23.286-0.658c6.451,0.713,12.948,1.189,19.363,1.365c9.047,0.247,17.733,2.151,26.504,3.771
		c2.498,0.462,4.947,0.623,7.421,0.527c6.58-0.254,9.903-4.599,8.591-11.035c-1.409-6.906-5.03-12.931-7.69-19.337
		c-0.808-1.944-1.727-3.843-2.799-6.214c5.643-0.572,10.665,0.324,15.603,1.354c16.054,3.35,30.328,10.757,44.547,18.753
		c39.279,22.089,77.114,46.665,116.984,67.717c5.268,2.782,10.724,5.211,16.114,7.759c1.533,0.725,2.922,1.292,2.782,3.493
		C683.575,1455.323,683.06,1465.388,682.427,1476.777z"/>
	<path style="fill:#B03CAF;" d="M553.66,1757.003c11.104,3.276,21.16,4.962,31.112,7.12c27.506,5.964,55.109,9.065,83.381,6.859
		c17.527-1.367,35.211-0.755,52.792,1.327c17.03,2.017,34.067,1.102,51.147-0.35c16.22-1.379,32.51-1.568,48.834-0.711
		c22.56,1.185,45.094,0.959,67.35-4.054c14.914-3.36,30.147-5.229,45.074-9.804c-3.87,7.367-16.759,19.631-23.529,22.806
		c-19.696,9.236-40.358,13.799-62.146,13.507c-15.807-0.212-31.689,0.885-47.411-0.286c-16.733-1.247-33.233-0.307-49.655,2.063
		c-9.415,1.359-18.185-1.418-27.239-2.154c-9.988-0.812-19.952-1.245-29.888-0.53c-20.296,1.461-40.553,0.483-60.84,0.104
		c-18.944-0.354-36.543-5.346-53.747-12.811c-6.043-2.622-10.645-6.593-14.864-11.325
		C560.861,1765.209,557.729,1761.62,553.66,1757.003z"/>
	<path style="fill:#B03CAF;" d="M812.697,953.12c-21.854,0.211-41.004-2.651-60.289-3.034c-21.44-0.426-42.768,1.059-64.13,2.711
		c-14.036,1.086-28.098,0.265-42.146-2.077c-10.665-1.778-20.438-5.075-29.599-10.578c-9.93-5.965-18.461-26.699-9.363-40.707
		c1.857-2.86,2.479-3.695,5.313-0.26c5.008,6.071,4.018,13.354,5.51,20.048c3.184,14.291,10.777,17.884,24.152,16.476
		c3.907-0.411,7.804-1.47,11.553-2.697c6.669-2.183,13.585,1.029,20.197-1.219c1.156-0.393,1.844,0.175,2.383,1.164
		c2.224,4.083,6.285,4.692,10.253,4.998c6.956,0.535,13.937,0.776,20.911,1.041c3.101,0.118,6.362,0.749,8.748-2.265
		c0.885-1.118,2.083-0.246,3.212-0.045c15.759,2.808,31.54,3.943,47.374,0.474c1.684-0.369,3.426-1.014,5.03,0.768
		c1.427,1.586,3.578,1.459,5.623,1.349c8.132-0.439,16.268-0.82,24.403-1.204c2.73-0.129,5.489-0.645,7.237-2.761
		c1.918-2.32,3.793-2.386,6.758-2.782c11.363-1.516,21.786,3.331,32.758,3.533c12.513,0.23,18.158-4.509,20.395-16.817
		c0.73-4.015,1.738-7.929,1.71-12.166c-0.025-3.776,3.331-6.747,5.656-9.615c1.182-1.458,2.713,0.931,3.443,2.295
		c3.909,7.302,4.755,14.766,2.557,22.975c-3.581,13.371-13.113,20.065-25.182,24.335c-3.255,1.152-6.554,2.462-9.938,2.916
		C834.927,951.624,822.704,954.386,812.697,953.12z"/>
	<path style="fill:#B03CAF;" d="M676.785,707.614c11.256,0.123,22.503-1.818,33.556,1.441c1.86,0.548,1.782,1.634,2.087,2.793
		c3.516,13.37,14.052,19.127,25.924,21.985c12.59,3.031,22.897-2.911,31.573-11.788c2.886-2.952,3.95-6.876,4.932-10.707
		c0.444-1.732,1.018-2.467,2.804-2.739c10.851-1.652,21.741-1.504,33.568-1.284c-2.763,2.836-5.747,3.333-8.317,4.425
		c-8.806,3.743-16.832,8.337-23.065,15.977c-4.185,5.129-9.084,9.788-14.193,14.016c-4.929,4.08-10.779,6.368-17.493,4.777
		c-4.768-1.13-9.565,0.44-14.392-0.127c-5.15-0.604-9.278-2.731-13.306-5.936c-8.244-6.559-13.92-15.721-22.513-21.844
		C691.471,713.986,683.916,711.409,676.785,707.614z"/>
	<path style="fill:#B03CAF;" d="M687.757,893.913c37.786-8.92,74.344-7.239,111.723,0.171c-3.083,1.735-5.443,2.955-6.601,5.562
		c-1.01,2.273-3.14,1.571-4.83,1.461c-10.116-0.657-20.278-1.019-30.321-2.291c-14.489-1.835-28.833-0.172-43.222,0.753
		c-5.293,0.34-10.568,0.974-15.846,1.529c-2.362,0.248-4.146-0.21-5.165-2.704C692.648,896.324,690.463,895.469,687.757,893.913z"/>
	<path style="fill:#00C263;" d="M1142.406,1578.335c-10.871,21.948-24.768,39.441-50.805,44.663
		c-24.462,4.906-47.054,4.235-67.468-12.469c-1.246,4.923-3.326,9.153-6.578,12.429c-2.778,2.798-1.824,4.091,0.464,6.516
		c27.002,28.608,39.938,62.209,35.282,101.794c-0.297,2.523,0.505,3.153,2.348,3.956c13.474,5.872,22.492,16.06,28.622,29.227
		c4.825,10.364,6.663,21.451,8.381,32.55c1.544,9.979,3.995,20,2.889,30.135c-1.703,15.608-4.255,31.123-8.59,46.256
		c-7.756,27.074-23.071,49.466-43.34,68.604c-8.021,7.573-17.895,11.343-28.962,11.535c-7.984,0.138-16.022,0.53-23.95-0.167
		c-14.115-1.24-28.131-3.809-40.383-11.37c-11.639-7.182-24.073-12.751-36.053-19.224c-5.256-2.84-10.866-4.969-16.728-6.301
		c-16.308-3.705-32.479-7.872-49.272-9.328c-19.7-1.708-39.311-4.129-59.161-3.68c-17.777,0.402-35.467,3.164-53.3,1.835
		c-24.362-1.814-48.705-3.864-73.146-0.844c-14.312,1.768-28.751,2.177-42.988,4.991c-20.749,4.102-41.115,8.805-59.629,19.817
		c-7.246,4.309-14.789,8.231-22.221,12.279c-21.053,11.466-43.932,13.17-67.282,11.467c-10.3-0.751-19.124-5.118-26.809-11.924
		c-3.877-3.434-7.066-7.502-10.582-11.268c-27.738-29.705-37.64-66.396-40.402-105.48c-1.098-15.538,2.757-30.977,6.373-46.119
		c4.608-19.297,14.438-34.92,33.284-43.378c2.564-1.151,2.312-2.941,2.055-4.905c-1.432-10.96-1.708-22.001,0.471-32.796
		c5.299-26.263,16.236-49.789,35.612-68.811c2.069-2.031,1.792-3.22,0.14-5.26c-3.079-3.8-5.966-7.799-6.583-13.157
		c-20.183,16.95-42.694,17.606-66.984,13.04c-26.119-4.91-40.293-22.354-51.296-44.3c-0.418,20.446-0.939,40.542,1.532,60.613
		c2.166,17.596,3.459,35.299,5.292,52.938c1.85,17.799,3.869,35.58,5.853,53.365c1.708,15.31,3.333,30.631,5.245,45.916
		c2.097,16.756,4.431,33.483,6.754,50.21c2.751,19.813,4.738,39.816,10.19,59.098c5.024,17.77,9.555,35.938,21.011,51.092
		c10.116,13.383,19.715,27.3,33.058,37.81c21.624,17.033,46.461,28.334,72.02,37.605c27.206,9.868,55.393,16.614,83.812,22.357
		c23.801,4.81,47.749,7.843,71.979,8.853c24.139,1.007,48.228-1.313,72.359-1.151c5.395,0.036,10.675,0.883,16.206,0.405
		c13.764-1.191,27.615,0.135,41.371,1.086c23.029,1.591,45.846-0.648,68.675-2.72c14.847-1.347,29.476-4.468,43.997-7.735
		c30.33-6.824,60.78-13.51,89.43-25.998c30.691-13.377,60.999-27.457,81.184-56.238c6.46-9.212,14.277-17.479,18.937-27.914
		c14.715-32.949,19.206-68.274,23.991-103.522c1.938-14.276,3.72-28.572,5.532-42.865c1.521-11.993,3.076-23.983,4.444-35.993
		c1.519-13.337,2.825-26.698,4.253-40.045c1.569-14.662,3.255-29.313,4.739-43.984c1.518-15.011,2.773-30.048,4.289-45.059
		C1143.589,1610.715,1142.761,1594.647,1142.406,1578.335z"/>
	<path style="fill:#C0C276;" d="M799.23,1210.184c-18.643-20.57-37.859-40.628-55.204-62.844c-3.613,3.681-7.049,6.442-9.57,9.875
		c-13.353,18.184-29.855,33.554-44.649,50.446c-4.545,5.19-4.627,4.958-0.072,10.452c14.056,16.948,31.873,29.623,48.871,43.227
		c3.95,3.161,7.763,2.997,11.49-0.689c1.997-1.975,4.392-3.551,6.627-5.281c15.274-11.829,30.274-23.936,42.612-39.005
		C801.365,1213.885,801.335,1212.506,799.23,1210.184z"/>
	<path style="fill:#BFC176;" d="M358.617,1882.067l-1.74-12.004c-0.144-1.175-0.289-2.35-0.414-3.528
		c-0.042-0.397-0.135-0.746-0.253-1.073l-3.538-24.4c0.198,0.09,0.379,0.188,0.581,0.277c-0.387-0.938-0.679-1.839-0.935-2.724
		l-1.607-11.085c0-0.001,0-0.001,0-0.002c-2.285-18.048-4.178-36.146-6.169-54.23c-0.282-2.558-1.202-3.453-3.88-2.564
		c-4.762,1.581-9.733,1.798-14.737,1.921c-8.146,0.201-16.241-0.353-24.34-1.027l-0.01,0.012c-0.366,3.677,1.806,6.602,3.085,9.726
		c7.205,17.587,14.544,35.095,29.84,47.414l1.292,22.98c-16.674-12.341-29.463-28.422-38.677-47.837
		c-6.649-14.01-12.733-28.285-16.888-43.292c-1.136-4.103-0.945-8.045,2.131-11.189c3.03-3.096,6.734-2.086,10.272-0.859
		c12.667,4.392,25.839,3.964,38.938,3.969c2.575,0.001,5.127-1.259,7.731-1.688c1.998-0.33,2.347-1.337,2.109-3.118
		c-1.717-12.819-3.041-25.676-4.038-38.575c-0.165-2.13,0.528-5.282-2.551-6.432c-4.846-1.81-7.621-5.749-10.218-9.823
		c-9.182-14.403-20.162-27.151-33.628-37.763c-14.304-11.272-27.661-23.643-36.195-39.989
		c-11.751-22.507-21.093-46.228-33.924-68.214c-1.081-1.852-1.315-4.076-1.195-6.292c0.313-5.765,4.388-8.867,9.835-7.008
		c4.053,1.384,7.993,3.188,11.818,5.132c6.206,3.153,12.601,5.747,19.293,7.646c17.277,4.9,33.848,11.332,49.265,20.324v20.02
		c-19.645-12.291-41.656-18.699-64.289-25.257c6.453,11.804,11.528,23.566,16.447,35.4c6.231,14.99,15.888,27.436,28.134,37.969
		c10.567,9.089,21.857,17.378,30.807,28.248c4.073,4.948,8.37,9.713,12.565,14.561l0.044-0.038c0.042-0.653,0.171-1.315,0.112-1.959
		c-1.825-19.98-4.192-39.913-4.96-59.985l0.102-3.483c0.277-3.569,0.897-7.271,0.305-10.43l1.235-42.184
		c0.194-3.626,0.337-7.241,0.318-10.867c-0.034-6.629,0.418-13.322,1.382-19.88c1.506-10.255,2.42-20.475-1.722-30.21
		c-1.448-3.404-0.475-7.75-4.013-10.302c-4.885-3.524-7.575-9.617-13.958-11.53c-1.619-0.485-3.117-2.605-3.934-4.324
		c-3.558-7.486-6.94-15.251-6.729-23.634c0.387-15.389-1.644-30.388-5.084-45.322c-7.1-30.828-20.618-57.851-45.262-78.562
		c-4.549-3.823-8.956-7.362-15.569-6.038c-0.041,0.559-0.141,1.373-0.155,2.188c-0.157,9.46,0.493,18.922-0.909,28.374
		c-0.829,5.592-3.229,11.051-1.351,17.018c0.669,2.125-1.458,4.499-3.586,4.757c-3.44,0.417-3.121,2.874-3.335,5.659
		c-29.368-28.007-50.649-60.839-68.507-96.242c-0.333,0.738-0.872,1.458-0.979,2.238c-1.778,12.94-4.217,25.84-5.068,38.844
		c-1.214,18.553-2.251,37.188,0.793,55.737c2.243,13.669,4.206,27.372,8.954,40.494c1.864,5.153,4.868,8.358,10.59,9.024
		c4.76,0.554,9.406,2.087,14.166,2.646c42.059,4.934,64.867,32.636,80.731,68.396c1.793,4.042,1.27,8.672-2.545,11.927
		c-3.827,3.266-7.462,1.334-10.978-0.828c-4.693-2.885-9.697-5.074-15.049-6.344c-13.727-3.257-27.785-4.599-41.649-7.075
		c-4.942-0.883-9.885-2.061-15.4-1.8c4.688,11.923,7.825,23.675,9.388,35.848c1.559,12.146,2.836,24.355,5.066,36.382
		c4.781,25.786,11.779,51.002,20.729,75.675c3.945,10.876,9.295,20.487,19.965,26.205c13.198,7.074,25.049,16.181,37.121,24.942
		c7.586,5.505,8.698,15.647,2.416,21.989c-6.177,6.235-10.969,14.212-13.591,22.89c-6.874,22.751-7.571,45.763-0.98,68.647
		c5.611,19.483,13.365,38.203,27.027,53.527c20.113,22.559,47.552,33.513,74.326,45.567
		C361.437,1897.617,359.9,1889.822,358.617,1882.067z"/>
	<path style="fill:#BFC176;" d="M1333.315,1298.667c-0.902-5.788-0.72-11.818-2.91-17.643
		c-17.979,35.626-39.301,68.385-68.901,96.187c1.104-3.659-0.71-4.644-3.263-5.552c-3.052-1.085-4.481-3.75-3.386-6.815
		c0.981-2.747,0.394-5.085-0.2-7.694c-1.171-5.145-1.804-10.369-2.189-15.667c-0.472-6.497-0.546-12.926,0.053-19.4
		c0.108-1.167,0.866-3.729-1.655-3.085c-3.273,0.836-6.781,0.373-9.828,2.831c-10.295,8.303-19.524,17.556-26.894,28.561
		c-18.281,27.297-26.773,57.667-27.406,90.266c-0.2,10.295-1.924,20.024-5.757,29.504c-1.366,3.38-3.344,6.189-6.459,7.967
		c-7.728,4.411-14.064,9.935-16.189,19.058c-1.521,6.531-4.542,12.789-3.56,19.779c1.852,13.173,2.918,26.405,2.903,39.714
		c-0.003,3.215,0.28,6.416,0.546,9.697l0.434,7.717c0.031,1.751,0.01,3.538-0.125,5.386c0.146-0.088,0.275-0.167,0.414-0.251
		l1.126,19.992c-0.447,0.879-0.648,1.908-0.588,3.257c0.53,11.822-0.424,23.63-1.203,35.401
		c-0.877,13.253-2.695,26.445-4.154,40.137c0.868-0.506,1.36-0.644,1.622-0.968c10.142-12.55,20.556-24.804,33.501-34.677
		c10.728-8.182,20.553-17.379,27.969-28.763c10.49-16.101,15.331-34.974,25.841-52.518c-6.834,3.007-12.843,4.635-18.85,6.242
		c-17.661,4.726-33.802,12.607-49.356,21.766v-19.771c7.992-4.926,16.147-9.558,24.98-13.017
		c19.067-7.465,39.186-12.153,57.406-21.869c2.733-1.458,5.891-1.617,8.472,0.56c2.837,2.392,3.315,5.723,2.528,9.138
		c-0.783,3.396-2.427,6.49-4.165,9.5c-8.18,14.161-15.764,28.626-21.858,43.82c-8.19,20.419-20.466,37.939-37.67,51.622
		c-17.052,13.562-32.139,28.739-43.487,47.471c-1.168,1.929-2.947,4.034-4.931,4.815c-5.094,2.006-5.129,6.017-5.51,10.403
		c-1.003,11.557-2.133,23.113-3.657,34.61c-0.461,3.475,0.295,4.944,3.627,5.376c14.947,1.942,29.758,1.913,44.314-2.695
		c10.086-3.193,15.228,1.554,12.822,11.844c-2.718,11.624-7.725,22.428-12.233,33.401c-9.751,23.736-23.897,43.597-43.889,58.243
		l1.783-23.393c4.31-3.699,8.257-7.701,11.784-12.143c9.994-12.586,14.896-27.879,21.146-42.422
		c1.419-3.301-0.486-3.017-2.853-2.634c-11.922,1.928-23.896,1.929-35.66-0.723c-4-0.902-3.888,0.427-4.188,3.404
		c-1.061,10.546-2.416,21.062-3.682,31.588c-0.528,4.389-1.06,8.779-1.6,13.22l0,0l-6.6,47.217
		c-0.032,0.179-0.063,0.359-0.087,0.555c-0.034,0.28-0.073,0.558-0.108,0.838l-1.234,8.831c-1.276,8.205-2.893,16.352-4.787,24.445
		c-0.293,1.254-1.5,2.625-0.481,3.719c1.312,1.408,2.901-0.183,4.018-0.645c19.775-8.171,38.616-18.126,55.961-30.703
		c8.387-6.082,15.754-13.384,21.253-22.228c18.162-29.21,28.295-60.407,23.376-95.364c-2.134-15.168-7.273-29.216-17.618-40.329
		c-6.449-6.928-5.192-17.001,2.246-22.412c12.07-8.78,24.016-17.722,37.113-24.99c8.916-4.948,14.975-12.376,18.238-22.087
		c2.102-6.252,4.214-12.506,6.529-18.681c8.02-21.396,12.688-43.631,16.47-66.068c2.226-13.203,3.915-26.495,5.952-39.731
		c1.426-9.267,4.668-18.061,7.75-27.148c-8.98-0.526-17.202,1.868-25.486,3.243c-16.734,2.778-34.042,3.479-49.075,13.063
		c-4.306,2.745-8.985,0.687-10.658-3.814c-1.258-3.385-1.212-6.9,0.437-10.202c4.208-8.425,8.295-16.916,13.548-24.772
		c11.788-17.628,27.067-30.959,47.338-37.88c10.391-3.548,21.365-4.613,32.138-6.442c6.28-1.066,10.201-3.854,12.306-10.328
		c6.601-20.299,9.731-41.161,10.504-62.343C1338.066,1336.253,1336.231,1317.379,1333.315,1298.667z"/>
	<path style="fill:#BFC176;" d="M563.75,922.833c-4.915-10.49-6.867-21.711-7.384-33.176c-0.117-2.595-0.174-4.406-0.421-5.759
		l-1.565-21.401c-0.426-4.965-0.929-9.947-0.923-14.921c0.025-18.149-0.438-36.284-1.081-54.418
		c-0.192-5.405,0.212-10.11-4.749-14.949c-5.865-5.719-9.997-13.391-15.749-19.586c-8.128-8.755-14.355-19.011-22.352-29.387
		c0,2.55-0.137,4.034,0.021,5.486c1.479,13.566,7.854,25.034,15.661,35.809c8.808,12.155,13.381,25.467,13.256,40.653
		c-0.096,11.668-2.187,23.147-2.201,34.804c-0.01,8.284,2.84,12.528,7.449,15.447l-1.3,13.944
		c-8.654-4.852-14.281-12.388-16.861-22.589c-2.329-9.208-0.783-18.509,0.322-27.734c0.984-8.219,2.317-16.371,2.071-24.723
		c-0.317-10.782-5.402-19.575-11.071-28.121c-7.271-10.962-13.539-22.343-15.043-35.642c-0.606-5.361-2.497-10.716-0.762-16.244
		c1.864-5.942,6.022-7.175,10.25-2.729c2.507,2.637,4.829,5.503,6.889,8.504c8.17,11.899,16.33,23.801,26.23,34.368
		c2.268,2.421,3.946,5.689,8.982,6.617c0-12.641-0.199-24.79,0.083-36.929c0.144-6.2,1.517-11.45-4.558-17.008
		c-7.08-6.478-12.435-15.045-19.202-22.161c-4.991-5.249-10.762-9.901-15.406-15.223c-12.487-14.306-12.926-31.354-7.174-48.717
		c3.65-11.016,2.653-22.554,5.436-34.844c-14.22,14.454-25.948,28.707-26.741,49.641c-12.158-10.358-23.05-20.675-34.318-31.963
		c-0.331,6.95-0.401,12.901-0.955,18.856c-0.767,8.252-0.384,16.604,2.111,24.641c3.046,9.814,7.775,18.877,12.477,27.98
		c7.643,14.796,11.399,30.158,6.46,46.879c-1.828,6.19-2.251,12.959-0.945,19.289c3.458,16.755,11.759,30.365,27.238,38.879
		c5.062,2.784,7.055,8.07,5.451,13.157c-1.394,4.42-4.839,6.191-11.343,5.791c-11.743-0.723-23.134-3.231-34.262-7.077
		c-0.15,0.57-0.381,0.935-0.284,1.156c5.487,12.457,8.411,25.622,10.948,38.916c2,10.479,7.914,17.24,18.881,18.755
		c4.32,0.597,9.579,0.771,10.766,5.577c1.069,4.327,5.215,6.868,5.305,11.378c0.274,13.721,6.366,25.057,14.308,35.75
		c11.7,15.753,25.589,20.05,44.019,17.521C565.364,926.827,564.984,925.466,563.75,922.833z"/>
	<path style="fill:#BFC176;" d="M1024.601,676.882c4.232-7.671,7.696-15.696,10.201-24.109c4.095-13.757,0.81-27.64,0.936-42.449
		c-11.015,11.812-22.721,21.273-33.99,32.17c-3.12-20.009-11.834-36.104-26.546-48.952c0.9,8.836,1.361,17.602,2.813,26.2
		c1.062,6.281,2.346,12.698,4.27,18.667c1.521,4.719,2.019,9.075,1.052,13.469c-2.523,11.458-6.037,21.993-16.538,29.716
		c-7.742,5.693-13.277,14.361-19.918,21.591c-4.156,4.524-6.786,10.369-11.735,14.091c-1.755,1.32-2.347,2.327-2.149,4.303
		c1.379,13.755,1.213,27.582,1.889,41.37c0.067,1.359-0.873,3.391,0.851,3.943c1.473,0.472,2.506-1.36,3.488-2.387
		c9.432-9.863,17.866-20.53,25.423-31.895c3.49-5.249,6.918-10.585,11.44-15.003c4.211-4.115,8.208-2.792,9.948,2.886
		c0.548,1.789,0.934,3.573,0.688,5.396c-0.728,5.395-1.453,10.796-2.386,16.158c-2.151,12.365-8.9,22.587-15.626,32.773
		c-6.952,10.528-11.012,21.79-9.567,34.617c1.17,10.384,2.705,20.748,3.335,31.166c0.547,9.054-1.389,17.708-6.805,25.405
		c-0.625,0.889-1.287,1.721-1.977,2.507l-2.95-27.785c-0.951-9.086-1.73-18.166-2.061-27.301
		c-0.532-14.695,2.985-28.16,11.628-40.133c4.46-6.178,8.317-12.725,11.932-19.4c3.908-7.216,4.682-15.2,5.097-23.285
		c-4.081,4.773-7.749,9.653-11.146,14.716c-6.938,10.341-16.614,18.456-23.318,29.007c-1.549,2.438-2.638,5.553-5.549,6.873
		c-2.235,1.014-2.472,2.647-2.467,4.774c0.044,19.626-1.421,39.225-1.04,58.863c0.135,6.938-1.706,13.838-0.69,20.834l-2.044,18.173
		c-0.11,0.467-0.175,0.983-0.177,1.568c-0.035,14.372-2.572,28.255-9.214,41.666c12.396,2.287,24.251,2.307,34.609-4.384
		c12.495-8.073,20.11-20.497,25.186-34.18c2.68-7.225,1.687-15.387,5.991-22.576c2.516-4.203,4.488-7.187,9.615-7.936
		c14.008-2.047,18.641-6.433,21.74-20.482c2.589-11.739,4.777-23.564,9.67-34.654c0.456-1.034,0.906-2.416,0.001-3.287
		c-1.03-0.992-2.151,0.267-3.158,0.581c-10.17,3.167-20.569,5.112-31.175,5.903c-4.913,0.366-8.912-1.104-10.547-6.332
		c-1.454-4.647,0.212-10.089,5.012-12.375c6.972-3.32,11.843-9.068,16.513-14.484c9.36-10.856,12.2-24.353,11.221-38.514
		c-0.522-7.558-3.675-14.783-3.197-22.514C1013.962,699.203,1018.563,687.825,1024.601,676.882z"/>
	<path style="fill:#00C263;" d="M860.89,335.704c-13.649-19.606-49.355-44.004-47.389-44.66
		c-14.552-11.029-33.706-17.447-53.528-19.766c0.112,0.634,0.177,1.289,0.206,1.956c-0.158,1.167-0.23,1.956-0.375,2.731
		c-2.095,11.183-11.34,24.519-16.591,23.948c-5.778-0.629-15.042-15.146-16.36-25.491c-0.151-1.182-0.147-2.275-0.013-3.281
		c-20.559,2.24-39.394,8.801-51.778,19.084c1.1,0.17-20.221,10.717-28.825,20.238c-8.398,9.293-17.411,18.364-22.576,30.113
		c-5.788,13.168-8.459,28.428-6.775,36.412c1.742-3.302,2.65,2.15,2.07,8.551c-1.449,15.978,1.072,31.482,5.695,46.569
		c6.022,19.652,16.183,37.68,23.429,56.875c0.651,1.725,1.699,1.999,3.332,2.27c7.69,1.275,14.339,6.172,22.568,6.12
		c2.524-0.016,4.886,3.403,7.632,4.388c15.085,5.417,29.626,12.301,45.967,14.077c18.937,2.059,37.382,1.392,55.404-5.153
		c16.947-6.155,33.255-14.105,50.612-18.995c5.238-1.475,6.535-4.526,8.175-8.437c3.392-8.091,6.683-16.236,10.412-24.172
		c11.818-25.157,18.947-51.186,15.924-79.333c-0.481-4.475,0.501-5.997,2.656-2.222C871.549,363.953,868.002,345.921,860.89,335.704
		z M742.193,377.429c6.548,0.057,12.617,2.233,18.64,4.431c1.862,0.679,2.754,2.719,3.83,4.421c2.027,3.208,4.486,6.148,6.434,9.399
		c2.424,4.045,1.61,5.447-2.891,5.322c-0.985-0.027-0.891,0.34-1.13,0.918c-2.276,5.512-6.433,7.44-12.348,7.715
		c-6.624,0.308-13.269,0.42-19.867,0.876c-6.986,0.482-11.073-2.992-14.505-8.134c-0.543-0.814-0.399-1.626-1.945-1.177
		c-4.005,1.164-3.712-1.761-3.09-4.046C718.165,386.71,731.097,377.312,742.193,377.429z M647.213,325.519
		c-1.699-1.709-1.011-3.656-0.019-5.514c1.364-2.558,3.548-4.353,5.623-6.28c11.405-10.593,25.304-15.156,40.367-17.415
		c9.322-1.398,18.391-2.484,27.162,2.166c3.012,1.597,5.266,3.48,4.792,7.31c-0.097,0.784-0.177,1.978,0.269,2.361
		c7.186,6.162,4.266,15.252,6.687,21.692c0.053,7.3-4.559,11.822-10.786,11.61c-3.787-0.129-4.868-3.186-4.875-5.89
		c-0.03-11.331-8.121-18.95-12.461-28.277c-0.446-0.959-1.37-0.882-2.141-0.777c-14.444,1.973-28.969,3.749-41.425,12.333
		c-2.726,1.879-5.059,4.325-7.767,6.232C651.072,326.175,649.053,327.37,647.213,325.519z M659.525,365.449
		c-3.107,1.168-6.551,2.768-9.142-0.489c-2.634-3.312-0.141-6.172,1.238-9.46c4.1-9.775,11.043-16.752,19.737-22.238
		c15.261-9.63,25.407-6.815,39.615,1.581c2.702,1.597,1.814,4.404,2.843,6.292c-0.534,6.535-4.326,10.426-9.918,12.642
		c-6.138,2.433-12.448,4.504-19.023,5.295C676.132,360.125,667.735,362.362,659.525,365.449z M797.228,438.163
		c-0.869,3.501-4.224,4.444-7.488,4.231c-7.701-0.504-15.377-1.982-22.833-3.503c-7.574-1.545-14.775-0.163-22.122-0.493
		c-10.336-0.464-20.776-1.263-30.958,1.073c-4.821,1.106-9.639,1.777-14.506,2.37c-0.975,0.119-2.028,0.66-2.892,0.43
		c-2.488-0.662-5.504-1.11-6.211-4.065c-0.662-2.768,0.976-5.157,3.639-5.729c9.494-2.038,19.021-3.919,27.155-6.184
		c12.331,1.816,23.518,0.707,34.456,0.511c13.083-0.234,24.929,4.159,37.434,5.666C795.805,432.82,797.958,435.221,797.228,438.163z
		 M836.845,365.663c-1.853,1.804-4.036,1.941-6.456,1.008c-7.712-2.972-15.582-5.68-23.75-6.778
		c-6.762-0.909-13.28-2.451-19.718-4.53c-3.804-1.229-7.445-2.834-10.175-5.91c-5.293-5.964-4.532-11.839,2.027-16.06
		c4.637-2.984,14.423-6.064,21.296-5.973c10.099,0.829,19.285,7.555,27.769,15.787c4.66,4.521,6.441,10.702,9.783,15.973
		C838.801,361.038,838.787,363.773,836.845,365.663z M840.145,325.279c-3.193,3.776-6.513-0.411-8.772-2.506
		c-9.73-9.027-22.01-11.374-34.228-14.534c-9.526-2.463-15.259,0.095-19.531,8.85c-2.696,5.526-5.868,10.752-6.474,16.977
		c-0.317,3.259-0.459,7.16-4.16,7.556c-3.585,0.383-7.619-0.669-9.983-4.212c-1.205-1.807-1.971-3.94-1.717-6.125
		c0.592-5.094,1.181-10.207,2.185-15.23c0.974-4.87,4.02-9.013,5.853-13.597c2.142-5.358,9.007-6.052,14.596-6.985
		c1.617-0.27,3.317-0.041,4.979-0.041c19.94,1.667,39.079,5.476,53.827,20.653C839.21,318.647,843.151,321.725,840.145,325.279z"/>
	<path style="fill:#B03CAF;" d="M753.981,272.876c-0.099,0.734-0.145,1.231-0.236,1.718c-1.319,7.038-7.136,15.43-10.441,15.071
		c-3.636-0.396-9.466-9.532-10.295-16.042c-0.461-3.618,1.253-5.985,4.587-6.524c4.251-0.687,8.602-0.466,12.823,0.677
		C753.126,268.511,753.882,270.593,753.981,272.876z"/>
</g>
</svg>
