<svg id="Layer_1" style="enable-background:new 0 0 200 200;" version="1.1" viewBox="0 0 200 200" x="0px" xml:space="preserve" xmlns="http://www.w3.org/2000/svg" xmlns:xlink="http://www.w3.org/1999/xlink" y="0px"><path d="M134.959,98.095c-8.841,2.476-17.996,3.649-27.176,3.482c-8.497,6.993-18.152,12.446-28.528,16.112   c1.46,7.67,4.027,15.088,7.621,22.02c10.772-6.376,24.016-6.953,35.303-1.539c11.286,5.415,19.124,16.106,20.892,28.498   c2.958-1.911,5.758-3.995,8.437-6.281C153.426,138.328,147.572,116.293,134.959,98.095z" style="fill:none;stroke:red;stroke-width:0.0001px"/><path d="M124.23,175.581c5.602-1.796,10.986-4.209,16.055-7.195c-1.22-11.712-8.329-21.994-18.856-27.271   c-10.527-5.277-23.019-4.821-33.133,1.21C96.533,156.871,109.092,168.493,124.23,175.581z" style="fill:none;stroke:red;stroke-width:0.0001px"/><path d="M103.233,101.384c-8.577-0.57-17.037-2.309-25.144-5.168c-0.493,6.169-0.272,12.375,0.656,18.494   C87.542,111.546,95.8,107.052,103.233,101.384z" style="fill:none;stroke:red;stroke-width:0.0001px"/><path d="M175.295,74.894c4.77,14.306,5.366,29.675,1.718,44.307c-3.648,14.633-11.39,27.923-22.318,38.315   c1.171-21.395-4.709-42.583-16.739-60.315C151.968,92.773,164.754,85.134,175.295,74.894z" style="fill:none;stroke:red;stroke-width:0.0001px"/><path d="M23.137,119.793c17.498,4.742,35.993,4.343,53.27-1.149c1.545,7.907,4.225,15.549,7.958,22.689   c-10.214,7.203-16.165,19.023-15.869,31.518C45.994,163.119,29.251,143.535,23.137,119.793z" style="fill:none;stroke:red;stroke-width:0.0001px"/></svg>