<svg id="Layer_1" style="enable-background:new 0 0 200 200;" version="1.1" viewBox="0 0 200 200" x="0px" xml:space="preserve" xmlns="http://www.w3.org/2000/svg" xmlns:xlink="http://www.w3.org/1999/xlink" y="0px"><path d="M31.689,60.666c-0.249,0.069-0.497,0.139-0.746,0.209c-9.556,16.866-12.608,36.646-8.583,55.608   c17.521,5.082,36.162,4.804,53.524-0.798c-1.075-6.794-1.307-13.694-0.691-20.545C57.566,88.267,42.409,76.257,31.689,60.666z" style="fill:none;stroke:red;stroke-width:0.0001px"/><path d="M71.528,174.088c15.474,5.947,32.421,6.899,48.464,2.723c-14.33-7.417-26.205-18.826-34.19-32.848   C76.187,150.888,70.798,162.261,71.528,174.088z" style="fill:none;stroke:red;stroke-width:0.0001px"/><path d="M34.763,59.873c10.19,14.448,24.349,25.632,40.764,32.2c1.361-10.688,4.778-21.012,10.061-30.403   C69.125,56.459,51.553,55.838,34.763,59.873z" style="fill:none;stroke:red;stroke-width:0.0001px"/><path d="M139.178,30.973c-2.679-1.52-5.423-2.874-8.259-4.073c-16.957,6.151-31.359,17.816-40.898,33.126   c12.339,4.429,23.662,11.292,33.298,20.18C133.236,65.665,138.743,48.569,139.178,30.973z" style="fill:none;stroke:red;stroke-width:0.0001px"/><path d="M23.137,119.793c17.498,4.742,35.993,4.343,53.27-1.149c1.545,7.907,4.225,15.549,7.958,22.689   c-10.214,7.203-16.165,19.023-15.869,31.518C45.994,163.119,29.251,143.535,23.137,119.793z" style="fill:none;stroke:red;stroke-width:0.0001px"/></svg>