<svg id="Layer_1" style="enable-background:new 0 0 200 200;" version="1.1" viewBox="0 0 200 200" x="0px" xml:space="preserve" xmlns="http://www.w3.org/2000/svg" xmlns:xlink="http://www.w3.org/1999/xlink" y="0px"><path d="M133.107,95.516c-2.855-3.839-5.956-7.411-9.354-10.778c-3.706,5.024-7.902,9.667-12.525,13.862   C118.618,98.46,125.965,97.424,133.107,95.516z" style="fill:none;stroke:red;stroke-width:0.0001px"/><path d="M33.157,57.202c9.691-15.136,24.233-26.535,41.245-32.331c17.013-5.796,35.489-5.647,52.406,0.424   c-16.484,6.732-30.386,18.555-39.677,33.744C69.668,53.378,50.965,52.742,33.157,57.202z" style="fill:none;stroke:red;stroke-width:0.0001px"/><path d="M124.23,175.581c5.602-1.796,10.986-4.209,16.055-7.195c-1.22-11.712-8.329-21.994-18.856-27.271   c-10.527-5.277-23.019-4.821-33.133,1.21C96.533,156.871,109.092,168.493,124.23,175.581z" style="fill:none;stroke:red;stroke-width:0.0001px"/><path d="M103.233,101.384c-8.577-0.57-17.037-2.309-25.144-5.168c-0.493,6.169-0.272,12.375,0.656,18.494   C87.542,111.546,95.8,107.052,103.233,101.384z" style="fill:none;stroke:red;stroke-width:0.0001px"/><path d="M175.295,74.894c4.77,14.306,5.366,29.675,1.718,44.307c-3.648,14.633-11.39,27.923-22.318,38.315   c1.171-21.395-4.709-42.583-16.739-60.315C151.968,92.773,164.754,85.134,175.295,74.894z" style="fill:none;stroke:red;stroke-width:0.0001px"/><path d="M139.178,30.973c-2.679-1.52-5.423-2.874-8.259-4.073c-16.957,6.151-31.359,17.816-40.898,33.126   c12.339,4.429,23.662,11.292,33.298,20.18C133.236,65.665,138.743,48.569,139.178,30.973z" style="fill:none;stroke:red;stroke-width:0.0001px"/><path d="M78.392,93.163c9.102,3.292,18.67,5.119,28.344,5.411c5.567-4.695,10.552-10.038,14.85-15.916   c-9.548-8.88-20.823-15.697-33.122-20.027C83.089,72.028,79.664,82.412,78.392,93.163z" style="fill:none;stroke:red;stroke-width:0.0001px"/></svg>