<svg style="enable-background:new 0 0 158.7 159.6;" version="1.1" viewBox="0 0 158.7 159.6" x="0px" xml:space="preserve" xmlns="http://www.w3.org/2000/svg" xmlns:xlink="http://www.w3.org/1999/xlink" y="0px"><path d="M69.4,40.2c12.3,4.4,23.7,11.3,33.3,20.2c9.9-14.5,15.4-31.6,15.9-49.2c-2.7-1.5-5.4-2.9-8.3-4.1   C93.3,13.3,78.9,24.9,69.4,40.2z" style="fill:none;stroke:red;stroke-width:0.0001px"/><path d="M122.4,146.9c-1.8-12.4-9.6-23.1-20.9-28.5c-11.3-5.4-24.5-4.8-35.3,1.5c-3.6-6.9-6.2-14.3-7.6-22   c10.4-3.7,20-9.1,28.5-16.1c9.2,0.2,18.3-1,27.2-3.5c12.6,18.2,18.5,40.2,16.5,62.3" style="fill:none;stroke:red;stroke-width:0.0001px"/></svg>