<svg style="enable-background:new 0 0 158.7 159.6;" version="1.1" viewBox="0 0 158.7 159.6" x="0px" xml:space="preserve" xmlns="http://www.w3.org/2000/svg" xmlns:xlink="http://www.w3.org/1999/xlink" y="0px"><path d="M112.5,75.7c-2.9-3.8-6-7.4-9.4-10.8c-3.7,5-7.9,9.7-12.5,13.9C98,78.7,105.3,77.6,112.5,75.7z" style="fill:none;stroke:red;stroke-width:0.0001px"/><path d="M82.6,81.6c-8.6-0.6-17-2.3-25.1-5.2c-0.5,6.2-0.3,12.4,0.7,18.5C66.9,91.8,75.2,87.3,82.6,81.6z" style="fill:none;stroke:red;stroke-width:0.0001px"/><path d="M117.3,77.4c14-4.4,26.8-12.1,37.3-22.3c1.8,5.5,3.1,11.2,3.7,17.1c2.5,24.4-6.5,48.6-24.3,65.5   C135.2,116.3,129.4,95.1,117.3,77.4z" style="fill:none;stroke:red;stroke-width:0.0001px"/><path d="M12.5,37.4c9.7-15.1,24.2-26.5,41.2-32.3c17-5.8,35.5-5.6,52.4,0.4c-16.5,6.7-30.4,18.6-39.7,33.7   C49,33.6,30.3,33,12.5,37.4z" style="fill:none;stroke:red;stroke-width:0.0001px"/><path d="M103.6,155.8c5.6-1.8,11-4.2,16.1-7.2c-1.2-11.7-8.3-22-18.9-27.3s-23-4.8-33.1,1.2   C75.9,137.1,88.5,148.7,103.6,155.8z" style="fill:none;stroke:red;stroke-width:0.0001px"/></svg>