<svg height="18in" version="1.1" width="32in" x="0px" xml:space="preserve" xmlns="http://www.w3.org/2000/svg" xmlns:xlink="http://www.w3.org/1999/xlink" y="0px"><g transform="translate(32.832496406525024 32.88249640652502) rotate(0 79.35 79.3)"><path d="M32,143c3.1,2.3,6.4,4.4,9.8,6.2c0,0,0-0.1,0-0.1c0.6-2.2,1.3-4.3,2-6.5c0.8-2.4,1.6-4.8,2.5-7.1   c0.9-2.3,1.9-4.6,3-6.9c1-2.2,2.2-4.4,3.4-6.5c0.6-1,1.2-2.1,1.9-3.1c0.4-0.6,0.7-1.1,1.1-1.6c0.9-1.3,1.9-2.7,3-3.9   c0.9-1.1,1.8-2.1,2.8-3.2c0.5-0.5,1-1,1.5-1.5c0.5-0.5,1-0.9,1.6-1.4c1.1-0.9,2.2-1.8,3.3-2.6c0.5-0.4,1.1-0.7,1.7-1.1   c0.4-0.3,0.9-0.5,1.3-0.8c0.9-0.5,1.8-0.9,2.8-1.3c0.4-0.2,0.9-0.4,1.3-0.5c0.4-0.1,0.8-0.3,1.1-0.4c0.8-0.3,1.5-0.5,2.3-0.7   c0.7-0.2,1.4-0.4,2.1-0.5c0.7-0.2,1.3-0.3,2-0.4c1.9-0.3,3.8-0.5,5.7-0.6c2.1,0,4.1,0.1,6.2,0.3c1.3,0.2,2.6,0.4,3.9,0.7   c0.6,0.1,1.3,0.3,1.9,0.4c0.7,0.2,1.3,0.3,2,0.5c1.5,0.4,3,0.8,4.5,1.3c0.7,0.2,1.5,0.5,2.2,0.7c0.4,0.1,0.8,0.3,1.3,0.4   c0.2,0.1,0.3,0.1,0.5,0.2c0.1,0,0.2,0.1,0.2,0.1c0.6,0.2,1.2,0.4,1.8,0.6c1.7,0.6,3.3,1.2,5,1.8c0.8,0.3,1.6,0.6,2.4,0.9   c0.2,0.1,0.4,0.2,0.6,0.2c0.3,0.1,0.5,0.2,0.8,0.3c0.6,0.2,1.2,0.5,1.8,0.7c0.9,0.3,1.8,0.7,2.6,1c0.5,0.2,1,0.4,1.5,0.6   c0.7,0.3,1.4,0.5,2,0.8c1.6,0.7,3.3,1.3,4.9,2c3.1,1.2,6.2,2.5,9.3,3.7c1.7,0.6,3.3,1.3,5,1.9c4.9-8.9,8.1-18.6,9.3-28.7   c-1.7,0.5-3.5,0.9-5.4,1.3c0,0-0.1,0-0.1,0c-3.5,0.7-7.2,1.2-11.3,1.6c-3.2,0.3-6.5,0.4-10,0.3c-0.1,0-0.3,0-0.4,0   c-2.8,0-5.7-0.2-8.7-0.5c-1.9-0.2-3.8-0.4-5.7-0.6c-0.6-0.1-1.1-0.1-1.7-0.2c-3.4-0.5-7-1.1-10.7-2c-0.3-0.1-0.7-0.2-1-0.3   c-3-0.8-6.1-1.7-9.2-2.6c-2.5-0.7-5-1.4-7.6-1.9c-4-0.7-7.8-0.7-11.6,0c-1.3,0.2-2.6,0.5-3.9,0.9c-1.6,0.4-3.1,1-4.6,1.6   c-1.9,0.8-3.6,1.7-5.3,2.8c-2.3,1.5-4.4,3.3-6.3,5.3c-1.9,2-3.7,4.2-5.3,6.5c-0.8,1.1-1.5,2.2-2.2,3.3   C40.5,115.3,35.6,129.4,32,143z" style="fill:none;stroke:red;stroke-width:0.0001px"/><path d="M32,143c3.1,2.3,6.4,4.4,9.8,6.2c0,0,0-0.1,0-0.1c0.6-2.2,1.3-4.3,2-6.5c0.8-2.4,1.6-4.8,2.5-7.1   c0.9-2.3,1.9-4.6,3-6.9c1-2.2,2.2-4.4,3.4-6.5c0.6-1,1.2-2.1,1.9-3.1c0.4-0.6,0.7-1.1,1.1-1.6c0.9-1.3,1.9-2.7,3-3.9   c0.9-1.1,1.8-2.1,2.8-3.2c0.5-0.5,1-1,1.5-1.5c0.5-0.5,1-0.9,1.6-1.4c1.1-0.9,2.2-1.8,3.3-2.6c0.5-0.4,1.1-0.7,1.7-1.1   c0.4-0.3,0.9-0.5,1.3-0.8c0.9-0.5,1.8-0.9,2.8-1.3c0.4-0.2,0.9-0.4,1.3-0.5c0.4-0.1,0.8-0.3,1.1-0.4c0.8-0.3,1.5-0.5,2.3-0.7   c0.7-0.2,1.4-0.4,2.1-0.5c0.7-0.2,1.3-0.3,2-0.4c1.9-0.3,3.8-0.5,5.7-0.6c2.1,0,4.1,0.1,6.2,0.3c1.3,0.2,2.6,0.4,3.9,0.7   c0.6,0.1,1.3,0.3,1.9,0.4c0.7,0.2,1.3,0.3,2,0.5c1.5,0.4,3,0.8,4.5,1.3c0.7,0.2,1.5,0.5,2.2,0.7c0.4,0.1,0.8,0.3,1.3,0.4   c0.2,0.1,0.3,0.1,0.5,0.2c0.1,0,0.2,0.1,0.2,0.1c0.6,0.2,1.2,0.4,1.8,0.6c1.7,0.6,3.3,1.2,5,1.8c0.8,0.3,1.6,0.6,2.4,0.9   c0.2,0.1,0.4,0.2,0.6,0.2c0.3,0.1,0.5,0.2,0.8,0.3c0.6,0.2,1.2,0.5,1.8,0.7c0.9,0.3,1.8,0.7,2.6,1c0.5,0.2,1,0.4,1.5,0.6   c0.7,0.3,1.4,0.5,2,0.8c1.6,0.7,3.3,1.3,4.9,2c3.1,1.2,6.2,2.5,9.3,3.7c1.7,0.6,3.3,1.3,5,1.9c4.9-8.9,8.1-18.6,9.3-28.7   c-1.7,0.5-3.5,0.9-5.4,1.3c0,0-0.1,0-0.1,0c-3.5,0.7-7.2,1.2-11.3,1.6c-3.2,0.3-6.5,0.4-10,0.3c-0.1,0-0.3,0-0.4,0   c-2.8,0-5.7-0.2-8.7-0.5c-1.9-0.2-3.8-0.4-5.7-0.6c-0.6-0.1-1.1-0.1-1.7-0.2c-3.4-0.5-7-1.1-10.7-2c-0.3-0.1-0.7-0.2-1-0.3   c-3-0.8-6.1-1.7-9.2-2.6c-2.5-0.7-5-1.4-7.6-1.9c-4-0.7-7.8-0.7-11.6,0c-1.3,0.2-2.6,0.5-3.9,0.9c-1.6,0.4-3.1,1-4.6,1.6   c-1.9,0.8-3.6,1.7-5.3,2.8c-2.3,1.5-4.4,3.3-6.3,5.3c-1.9,2-3.7,4.2-5.3,6.5c-0.8,1.1-1.5,2.2-2.2,3.3   C40.5,115.3,35.6,129.4,32,143z" style="fill:none;stroke:red;stroke-width:0.0001px"/><path d="M32,143c3.1,2.3,6.4,4.4,9.8,6.2c0,0,0-0.1,0-0.1c0.6-2.2,1.3-4.3,2-6.5c0.8-2.4,1.6-4.8,2.5-7.1   c0.9-2.3,1.9-4.6,3-6.9c1-2.2,2.2-4.4,3.4-6.5c0.6-1,1.2-2.1,1.9-3.1c0.4-0.6,0.7-1.1,1.1-1.6c0.9-1.3,1.9-2.7,3-3.9   c0.9-1.1,1.8-2.1,2.8-3.2c0.5-0.5,1-1,1.5-1.5c0.5-0.5,1-0.9,1.6-1.4c1.1-0.9,2.2-1.8,3.3-2.6c0.5-0.4,1.1-0.7,1.7-1.1   c0.4-0.3,0.9-0.5,1.3-0.8c0.9-0.5,1.8-0.9,2.8-1.3c0.4-0.2,0.9-0.4,1.3-0.5c0.4-0.1,0.8-0.3,1.1-0.4c0.8-0.3,1.5-0.5,2.3-0.7   c0.7-0.2,1.4-0.4,2.1-0.5c0.7-0.2,1.3-0.3,2-0.4c1.9-0.3,3.8-0.5,5.7-0.6c2.1,0,4.1,0.1,6.2,0.3c1.3,0.2,2.6,0.4,3.9,0.7   c0.6,0.1,1.3,0.3,1.9,0.4c0.7,0.2,1.3,0.3,2,0.5c1.5,0.4,3,0.8,4.5,1.3c0.7,0.2,1.5,0.5,2.2,0.7c0.4,0.1,0.8,0.3,1.3,0.4   c0.2,0.1,0.3,0.1,0.5,0.2c0.1,0,0.2,0.1,0.2,0.1c0.6,0.2,1.2,0.4,1.8,0.6c1.7,0.6,3.3,1.2,5,1.8c0.8,0.3,1.6,0.6,2.4,0.9   c0.2,0.1,0.4,0.2,0.6,0.2c0.3,0.1,0.5,0.2,0.8,0.3c0.6,0.2,1.2,0.5,1.8,0.7c0.9,0.3,1.8,0.7,2.6,1c0.5,0.2,1,0.4,1.5,0.6   c0.7,0.3,1.4,0.5,2,0.8c1.6,0.7,3.3,1.3,4.9,2c3.1,1.2,6.2,2.5,9.3,3.7c1.7,0.6,3.3,1.3,5,1.9c4.9-8.9,8.1-18.6,9.3-28.7   c-1.7,0.5-3.5,0.9-5.4,1.3c0,0-0.1,0-0.1,0c-3.5,0.7-7.2,1.2-11.3,1.6c-3.2,0.3-6.5,0.4-10,0.3c-0.1,0-0.3,0-0.4,0   c-2.8,0-5.7-0.2-8.7-0.5c-1.9-0.2-3.8-0.4-5.7-0.6c-0.6-0.1-1.1-0.1-1.7-0.2c-3.4-0.5-7-1.1-10.7-2c-0.3-0.1-0.7-0.2-1-0.3   c-3-0.8-6.1-1.7-9.2-2.6c-2.5-0.7-5-1.4-7.6-1.9c-4-0.7-7.8-0.7-11.6,0c-1.3,0.2-2.6,0.5-3.9,0.9c-1.6,0.4-3.1,1-4.6,1.6   c-1.9,0.8-3.6,1.7-5.3,2.8c-2.3,1.5-4.4,3.3-6.3,5.3c-1.9,2-3.7,4.2-5.3,6.5c-0.8,1.1-1.5,2.2-2.2,3.3   C40.5,115.3,35.6,129.4,32,143z" style="fill:none;stroke:red;stroke-width:0.0001px"/><path d="M32,143c3.1,2.3,6.4,4.4,9.8,6.2c0,0,0-0.1,0-0.1c0.6-2.2,1.3-4.3,2-6.5c0.8-2.4,1.6-4.8,2.5-7.1   c0.9-2.3,1.9-4.6,3-6.9c1-2.2,2.2-4.4,3.4-6.5c0.6-1,1.2-2.1,1.9-3.1c0.4-0.6,0.7-1.1,1.1-1.6c0.9-1.3,1.9-2.7,3-3.9   c0.9-1.1,1.8-2.1,2.8-3.2c0.5-0.5,1-1,1.5-1.5c0.5-0.5,1-0.9,1.6-1.4c1.1-0.9,2.2-1.8,3.3-2.6c0.5-0.4,1.1-0.7,1.7-1.1   c0.4-0.3,0.9-0.5,1.3-0.8c0.9-0.5,1.8-0.9,2.8-1.3c0.4-0.2,0.9-0.4,1.3-0.5c0.4-0.1,0.8-0.3,1.1-0.4c0.8-0.3,1.5-0.5,2.3-0.7   c0.7-0.2,1.4-0.4,2.1-0.5c0.7-0.2,1.3-0.3,2-0.4c1.9-0.3,3.8-0.5,5.7-0.6c2.1,0,4.1,0.1,6.2,0.3c1.3,0.2,2.6,0.4,3.9,0.7   c0.6,0.1,1.3,0.3,1.9,0.4c0.7,0.2,1.3,0.3,2,0.5c1.5,0.4,3,0.8,4.5,1.3c0.7,0.2,1.5,0.5,2.2,0.7c0.4,0.1,0.8,0.3,1.3,0.4   c0.2,0.1,0.3,0.1,0.5,0.2c0.1,0,0.2,0.1,0.2,0.1c0.6,0.2,1.2,0.4,1.8,0.6c1.7,0.6,3.3,1.2,5,1.8c0.8,0.3,1.6,0.6,2.4,0.9   c0.2,0.1,0.4,0.2,0.6,0.2c0.3,0.1,0.5,0.2,0.8,0.3c0.6,0.2,1.2,0.5,1.8,0.7c0.9,0.3,1.8,0.7,2.6,1c0.5,0.2,1,0.4,1.5,0.6   c0.7,0.3,1.4,0.5,2,0.8c1.6,0.7,3.3,1.3,4.9,2c3.1,1.2,6.2,2.5,9.3,3.7c1.7,0.6,3.3,1.3,5,1.9c4.9-8.9,8.1-18.6,9.3-28.7   c-1.7,0.5-3.5,0.9-5.4,1.3c0,0-0.1,0-0.1,0c-3.5,0.7-7.2,1.2-11.3,1.6c-3.2,0.3-6.5,0.4-10,0.3c-0.1,0-0.3,0-0.4,0   c-2.8,0-5.7-0.2-8.7-0.5c-1.9-0.2-3.8-0.4-5.7-0.6c-0.6-0.1-1.1-0.1-1.7-0.2c-3.4-0.5-7-1.1-10.7-2c-0.3-0.1-0.7-0.2-1-0.3   c-3-0.8-6.1-1.7-9.2-2.6c-2.5-0.7-5-1.4-7.6-1.9c-4-0.7-7.8-0.7-11.6,0c-1.3,0.2-2.6,0.5-3.9,0.9c-1.6,0.4-3.1,1-4.6,1.6   c-1.9,0.8-3.6,1.7-5.3,2.8c-2.3,1.5-4.4,3.3-6.3,5.3c-1.9,2-3.7,4.2-5.3,6.5c-0.8,1.1-1.5,2.2-2.2,3.3   C40.5,115.3,35.6,129.4,32,143z" style="fill:none;stroke:red;stroke-width:0.0001px"/><path d="M32,143c3.1,2.3,6.4,4.4,9.8,6.2c0,0,0-0.1,0-0.1c0.6-2.2,1.3-4.3,2-6.5c0.8-2.4,1.6-4.8,2.5-7.1   c0.9-2.3,1.9-4.6,3-6.9c1-2.2,2.2-4.4,3.4-6.5c0.6-1,1.2-2.1,1.9-3.1c0.4-0.6,0.7-1.1,1.1-1.6c0.9-1.3,1.9-2.7,3-3.9   c0.9-1.1,1.8-2.1,2.8-3.2c0.5-0.5,1-1,1.5-1.5c0.5-0.5,1-0.9,1.6-1.4c1.1-0.9,2.2-1.8,3.3-2.6c0.5-0.4,1.1-0.7,1.7-1.1   c0.4-0.3,0.9-0.5,1.3-0.8c0.9-0.5,1.8-0.9,2.8-1.3c0.4-0.2,0.9-0.4,1.3-0.5c0.4-0.1,0.8-0.3,1.1-0.4c0.8-0.3,1.5-0.5,2.3-0.7   c0.7-0.2,1.4-0.4,2.1-0.5c0.7-0.2,1.3-0.3,2-0.4c1.9-0.3,3.8-0.5,5.7-0.6c2.1,0,4.1,0.1,6.2,0.3c1.3,0.2,2.6,0.4,3.9,0.7   c0.6,0.1,1.3,0.3,1.9,0.4c0.7,0.2,1.3,0.3,2,0.5c1.5,0.4,3,0.8,4.5,1.3c0.7,0.2,1.5,0.5,2.2,0.7c0.4,0.1,0.8,0.3,1.3,0.4   c0.2,0.1,0.3,0.1,0.5,0.2c0.1,0,0.2,0.1,0.2,0.1c0.6,0.2,1.2,0.4,1.8,0.6c1.7,0.6,3.3,1.2,5,1.8c0.8,0.3,1.6,0.6,2.4,0.9   c0.2,0.1,0.4,0.2,0.6,0.2c0.3,0.1,0.5,0.2,0.8,0.3c0.6,0.2,1.2,0.5,1.8,0.7c0.9,0.3,1.8,0.7,2.6,1c0.5,0.2,1,0.4,1.5,0.6   c0.7,0.3,1.4,0.5,2,0.8c1.6,0.7,3.3,1.3,4.9,2c3.1,1.2,6.2,2.5,9.3,3.7c1.7,0.6,3.3,1.3,5,1.9c4.9-8.9,8.1-18.6,9.3-28.7   c-1.7,0.5-3.5,0.9-5.4,1.3c0,0-0.1,0-0.1,0c-3.5,0.7-7.2,1.2-11.3,1.6c-3.2,0.3-6.5,0.4-10,0.3c-0.1,0-0.3,0-0.4,0   c-2.8,0-5.7-0.2-8.7-0.5c-1.9-0.2-3.8-0.4-5.7-0.6c-0.6-0.1-1.1-0.1-1.7-0.2c-3.4-0.5-7-1.1-10.7-2c-0.3-0.1-0.7-0.2-1-0.3   c-3-0.8-6.1-1.7-9.2-2.6c-2.5-0.7-5-1.4-7.6-1.9c-4-0.7-7.8-0.7-11.6,0c-1.3,0.2-2.6,0.5-3.9,0.9c-1.6,0.4-3.1,1-4.6,1.6   c-1.9,0.8-3.6,1.7-5.3,2.8c-2.3,1.5-4.4,3.3-6.3,5.3c-1.9,2-3.7,4.2-5.3,6.5c-0.8,1.1-1.5,2.2-2.2,3.3   C40.5,115.3,35.6,129.4,32,143z" style="fill:none;stroke:red;stroke-width:0.0001px"/></g></svg>