<svg style="enable-background:new 0 0 158.7 158.6;" version="1.1" viewBox="0 0 158.7 158.6" x="0px" xml:space="preserve" xmlns="http://www.w3.org/2000/svg" xmlns:xlink="http://www.w3.org/1999/xlink" y="0px"><path d="M55,154.8c-3.6-1.2-7.1-2.6-10.5-4.2c3.1-11,7.3-22.2,13.3-31c0.7-1,1.4-2,2.1-2.9   c1.6-2,3.2-3.9,5.1-5.6c1.8-1.7,3.7-3.2,5.8-4.5c1.5-0.9,3.1-1.7,4.8-2.4c1.3-0.5,2.7-1,4.1-1.4c1.2-0.3,2.4-0.6,3.6-0.8   c3.4-0.6,7-0.7,10.7-0.2c2.4,0.3,4.7,0.8,7,1.4c2.8,0.7,5.6,1.6,8.3,2.5c0.3,0.1,0.6,0.2,0.9,0.3c3.3,1.1,6.3,2.2,9.3,3.3   c0.5,0.2,1,0.4,1.4,0.5c1.7,0.7,3.4,1.3,5,1.9c2.6,1,5.1,2.1,7.6,3c0.1,0,0.2,0.1,0.4,0.1c3.1,1.2,6.1,2.4,9,3.6   c1.5,0.6,3,1.2,4.5,1.8c-3,5-6.6,9.6-10.6,13.9c-0.5-0.5-1.1-1-1.6-1.4c-1.2-1-2.4-2-3.6-3c-1.1-0.9-2.2-1.8-3.3-2.6   c-1-0.8-2.1-1.5-3.2-2.3c-1-0.7-2-1.3-3-1.9c-1-0.6-2-1.1-3-1.6c-1-0.5-2-0.9-3-1.4c-1-0.4-2-0.8-3-1.1c-1-0.3-2-0.6-3.1-0.9   c-1-0.3-2.1-0.5-3.2-0.7c-2.2-0.4-4.5-0.7-6.8-0.8c-2.4-0.1-4.9,0-7.3,0.3c-1.3,0.2-2.5,0.4-3.8,0.7c-1.3,0.3-2.5,0.7-3.8,1.1   c-1.3,0.4-2.6,1-3.8,1.6c-1.3,0.6-2.5,1.3-3.7,2.1c-1.3,0.8-2.5,1.7-3.7,2.6c-1.2,1-2.4,2-3.5,3.2c-1.2,1.2-2.3,2.5-3.4,3.8   c-1.1,1.4-2.2,2.9-3.2,4.4c-1.1,1.6-2.1,3.3-3,5.1c-1,1.9-1.9,3.8-2.8,5.8c-0.9,2.1-1.8,4.3-2.5,6.5   C55.4,153.9,55.2,154.4,55,154.8z" style="fill:none;stroke:red;stroke-width:0.0001px"/></svg>