<svg style="enable-background:new 0 0 158.7 158.6;" version="1.1" viewBox="0 0 158.7 158.6" x="0px" xml:space="preserve" xmlns="http://www.w3.org/2000/svg" xmlns:xlink="http://www.w3.org/1999/xlink" y="0px"><path d="M9.8,117.4c2.4,4.3,5.1,8.3,8.2,12.1c1-3.6,2.1-7.2,3.2-10.8c0.7-2.1,1.4-4.2,2.1-6.3   c0.7-2.1,1.5-4.1,2.2-6.2c0.8-2,1.6-4,2.4-6c0.8-1.9,1.7-3.8,2.6-5.7c0.9-1.8,1.8-3.6,2.8-5.4c0.7-1.3,1.5-2.6,2.2-3.8   c0.9-1.5,1.8-2.9,2.8-4.3c0.7-1,1.4-1.9,2.1-2.8c0.7-0.9,1.5-1.8,2.3-2.7c0.8-0.9,1.6-1.7,2.5-2.5c0.9-0.8,1.8-1.6,2.7-2.3   c0.5-0.4,1-0.7,1.5-1.1c0.4-0.3,0.8-0.5,1.1-0.8c0.7-0.5,1.5-0.9,2.3-1.3c0.8-0.4,1.6-0.8,2.4-1.1c0.4-0.2,0.7-0.3,1.1-0.5   c0.3-0.1,0.6-0.3,1-0.4c1.3-0.5,2.6-0.9,3.9-1.3c1.1-0.3,2.2-0.6,3.3-0.8c1.4-0.3,2.8-0.5,4.2-0.6c0.8-0.1,1.6-0.1,2.4-0.1   c0.8,0,1.6,0,2.5,0c1.7,0.1,3.4,0.3,5,0.6c1,0.2,2,0.4,3,0.7c1,0.3,2.1,0.6,3.1,0.9c1.1,0.3,2.1,0.7,3.2,1c1.2,0.4,2.4,0.8,3.5,1.1   c1.2,0.3,2.3,0.7,3.5,1c0.6,0.1,1.2,0.3,1.7,0.4c0.3,0.1,0.6,0.1,1,0.2c0.3,0.1,0.5,0.1,0.8,0.1c0.8,0.1,1.5,0.3,2.3,0.4   c1.4,0.2,2.8,0.3,4.1,0.4c1.4,0.1,2.7,0.1,4.1,0c0.5,0,1,0,1.6-0.1c0.4,0,0.9,0,1.3-0.1c1.5-0.1,3-0.3,4.5-0.4   c0.9-0.1,1.7-0.2,2.6-0.4c1.2-0.2,2.3-0.4,3.5-0.6c1.1-0.2,2.2-0.5,3.3-0.8c0.5-0.1,1.1-0.3,1.6-0.4c0.1,0,0.1,0,0.2-0.1   c0.1,0,0.2-0.1,0.3-0.1c1-0.3,2-0.6,3-0.9c1.3-0.4,2.6-0.9,3.9-1.4c1.2-0.5,2.5-1.1,3.7-1.6c0.7-0.4,1.5-0.7,2.2-1.1   c0.7-0.4,1.5-0.8,2.2-1.2c1.4-0.8,2.8-1.6,4.1-2.5c0.5-0.4,1.1-0.7,1.6-1.1c0.5-0.4,1-0.7,1.5-1.1c0,0,0,0,0.1-0.1s0,0,0.1-0.1   c0.6-0.4,1.1-0.8,1.6-1.3c0.5-0.4,1.1-0.9,1.6-1.3c0.2-0.2,0.4-0.3,0.6-0.5c-2.4-6.7-5.8-13.1-9.9-19c-1.8,1.8-3.7,3.5-5.6,5.2   c-3.7,3.1-7.7,5.8-12.1,8.1c-0.2,0.1-0.3,0.2-0.5,0.3c-3.5,1.8-7.1,3.4-10.9,4.7c-2.4,0.8-4.8,1.5-7.3,2c-0.7,0.2-1.4,0.3-2.1,0.4   c-4.4,0.8-8.8,1.1-13.4,0.6c-0.4,0-0.9-0.1-1.3-0.2c-3.8-0.5-7.3-1.6-10.9-2.9c-2.9-1-5.8-2.1-8.8-2.9c-4.7-1.2-8.9-1.2-13.3-0.5   c-1.5,0.3-3.1,0.6-4.6,1.1c-1.9,0.5-3.7,1.2-5.5,1.9c-2.3,0.9-4.4,2.1-6.3,3.5c-2.8,2-5.1,4.4-7.2,7c-2.2,2.6-4.1,5.4-5.8,8.3   c-0.8,1.4-1.6,2.8-2.4,4.2C19.5,86.3,14.1,102.1,9.8,117.4z" style="fill:none;stroke:red;stroke-width:0.0001px"/></svg>