<svg height="18in" version="1.1" width="32in" x="0px" xml:space="preserve" xmlns="http://www.w3.org/2000/svg" xmlns:xlink="http://www.w3.org/1999/xlink" y="0px"><g transform="translate(32.832496406525024 32.88249640652502) rotate(0 79.35 79.3)"><path d="M134.6,136.3c-11.4-10.2-18.3-14.2-27.4-16c-15.5-3.1-37.5,0-49.3,35.4   C85.1,163.3,114.3,155.9,134.6,136.3z" style="fill:none;stroke:red;stroke-width:0.0001px"/><path d="M134.6,136.3c-11.4-10.2-18.3-14.2-27.4-16c-15.5-3.1-37.5,0-49.3,35.4   C85.1,163.3,114.3,155.9,134.6,136.3z" style="fill:none;stroke:red;stroke-width:0.0001px"/><path d="M134.6,136.3c-11.4-10.2-18.3-14.2-27.4-16c-15.5-3.1-37.5,0-49.3,35.4   C85.1,163.3,114.3,155.9,134.6,136.3z" style="fill:none;stroke:red;stroke-width:0.0001px"/><path d="M134.6,136.3c-11.4-10.2-18.3-14.2-27.4-16c-15.5-3.1-37.5,0-49.3,35.4   C85.1,163.3,114.3,155.9,134.6,136.3z" style="fill:none;stroke:red;stroke-width:0.0001px"/></g></svg>