<svg id="Layer_1" style="enable-background:new 0 0 1280 1024;" version="1.1" viewBox="0 0 1280 1024" x="0px" xml:space="preserve" xmlns="http://www.w3.org/2000/svg" xmlns:xlink="http://www.w3.org/1999/xlink" y="0px"><path d="M807.9,580.3  c0,46.2-49.2,124.6-168.6,127.6c-0.1,0-0.1,0-0.2,0c-0.1,0-0.1,0-0.2,0c-119.4-3-168.6-81.4-168.6-127.6c0,0,0.2-26.6,3-40.1  c2.8-13.5,8.4-26.3,16.9-45.2c8.5-18.9,20.1-35,30.2-48.3c10.1-13.3,20.5-30.6,26.8-40.7c6.3-10.1,9.4-30.2,9.4-30.2  s4.7,13.2,4.8,27c0.2,16.9-3.1,27.3-6.7,36.2c-4.2,10.4-17.7,37-23.4,50.8c-0.3,0.8-0.7,1.5-1.1,2.3c-1.4,2.5-4.9,10-5.5,21.2  c-0.7,13.5-0.4,17.1,1.3,29.1c2.5,42.7,44.8,69.1,91.6,68.7c0,0,0,0,0,0c-18.7-13.9-35.1-41.8-43.3-70.8  c-3.5-12.5-5.6-25.3-5.6-37.2c0-11.7,2.1-24.4,5.7-37.1c5.8-20.5,15.6-41,27.1-57c0,0,0,0,0-0.1c0,0,0,0,0,0  c0.9-1.7,15.6-29.6,24.2-46.7c7.4-14.7,11.8-35.1,13-41.5c0.1-0.4,0.1-0.7,0.2-0.9c0.1,0.3,0.1,0.6,0.2,0.9  c1.3,6.4,5.6,26.7,13,41.5c8.6,17.2,23.2,45,24.2,46.7c0,0,0,0,0,0c0,0.1,0,0.1,0,0.1c11.5,16,21.2,36.5,27.1,57  c3.6,12.7,5.7,25.5,5.7,37.1c0,7.6-0.1,15.4-1.1,23.3c-5.2-1.6-11.8-2.4-20.4-2.4c-21.2,0-38.4,17.2-38.4,38.4  c0,31.3,20.5,48,38.4,48c0.5,0,1.1,0,1.6-0.1h0c34.2,5.2,60.2-24.8,62.5-52.9c1.7-12,2.5-13.1,1.8-26.6c-0.6-11.2-2.7-17.2-7.7-31.2  c-0.3-0.8-3.9-10.5-7.7-21.7c-2.8-8.3-3.5-10.3-7.1-30.2c-2.4-13.3-2.1-22.3-1.3-35.8c0.8-13.7,8.1-31.8,8.1-31.8s2.8,21.6,7.4,32.6  c6,14,12.6,28.8,22.3,44.6c5.6,9.2,13,22.5,20.3,37.7c9,18.7,14.1,31.7,16.9,45.2C810.9,569,807.9,580.3,807.9,580.3z" style="fill:#732D00;stroke:#FF3200;stroke-width:1.8564;stroke-miterlimit:10;"/><path d="M807.9,580.3  c0,46.2-49.2,124.6-168.6,127.6c-0.1,0-0.1,0-0.2,0c-0.1,0-0.1,0-0.2,0c-119.4-3-168.6-81.4-168.6-127.6c0,0,0.2-26.6,3-40.1  c2.8-13.5,8.4-26.3,16.9-45.2c8.5-18.9,20.1-35,30.2-48.3c10.1-13.3,20.5-30.6,26.8-40.7c6.3-10.1,9.4-30.2,9.4-30.2  s4.7,13.2,4.8,27c0.2,16.9-3.1,27.3-6.7,36.2c-4.2,10.4-17.7,37-23.4,50.8c-0.3,0.8-0.7,1.5-1.1,2.3c-1.4,2.5-4.9,10-5.5,21.2  c-0.7,13.5-0.4,17.1,1.3,29.1c2.5,42.7,44.8,69.1,91.6,68.7c0,0,0,0,0,0c-18.7-13.9-35.1-41.8-43.3-70.8  c-3.5-12.5-5.6-25.3-5.6-37.2c0-11.7,2.1-24.4,5.7-37.1c5.8-20.5,15.6-41,27.1-57c0,0,0,0,0-0.1c0,0,0,0,0,0  c0.9-1.7,15.6-29.6,24.2-46.7c7.4-14.7,11.8-35.1,13-41.5c0.1-0.4,0.1-0.7,0.2-0.9c0.1,0.3,0.1,0.6,0.2,0.9  c1.3,6.4,5.6,26.7,13,41.5c8.6,17.2,23.2,45,24.2,46.7c0,0,0,0,0,0c0,0.1,0,0.1,0,0.1c11.5,16,21.2,36.5,27.1,57  c3.6,12.7,5.7,25.5,5.7,37.1c0,7.6-0.1,15.4-1.1,23.3c-5.2-1.6-11.8-2.4-20.4-2.4c-21.2,0-38.4,17.2-38.4,38.4  c0,31.3,20.5,48,38.4,48c0.5,0,1.1,0,1.6-0.1h0c34.2,5.2,60.2-24.8,62.5-52.9c1.7-12,2.5-13.1,1.8-26.6c-0.6-11.2-2.7-17.2-7.7-31.2  c-0.3-0.8-3.9-10.5-7.7-21.7c-2.8-8.3-3.5-10.3-7.1-30.2c-2.4-13.3-2.1-22.3-1.3-35.8c0.8-13.7,8.1-31.8,8.1-31.8s2.8,21.6,7.4,32.6  c6,14,12.6,28.8,22.3,44.6c5.6,9.2,13,22.5,20.3,37.7c9,18.7,14.1,31.7,16.9,45.2C810.9,569,807.9,580.3,807.9,580.3z" style="fill:#732D00;stroke:#FF3200;stroke-width:1.8564;stroke-miterlimit:10;"/></svg>