<svg height="18in" id="Layer_1" version="1.1" width="32in" x="0px" xml:space="preserve" xmlns="http://www.w3.org/2000/svg" xmlns:xlink="http://www.w3.org/1999/xlink" y="0px"><g transform="translate(41.42135623730951 41.42135623730951) rotate(-45 100.0 100.0)"><path d="M60.771,31.009c5.73,7.004,10.347,14.848,13.69,23.257c20.919,9.21,36.825,27.027,43.613,48.852   c20.923-1.858,41.3-7.69,60.038-17.184c-4.566-25.342-21.143-46.895-44.465-57.811C110.326,17.205,83.157,18.281,60.771,31.009z" style="fill:none;stroke:red;stroke-width:0.0001px"/><path d="M60.771,31.009c5.73,7.004,10.347,14.848,13.69,23.257c20.919,9.21,36.825,27.027,43.613,48.852   c20.923-1.858,41.3-7.69,60.038-17.184c-4.566-25.342-21.143-46.895-44.465-57.811C110.326,17.205,83.157,18.281,60.771,31.009z" style="fill:none;stroke:red;stroke-width:0.0001px"/><path d="M60.771,31.009c5.73,7.004,10.347,14.848,13.69,23.257c20.919,9.21,36.825,27.027,43.613,48.852   c20.923-1.858,41.3-7.69,60.038-17.184c-4.566-25.342-21.143-46.895-44.465-57.811C110.326,17.205,83.157,18.281,60.771,31.009z" style="fill:none;stroke:red;stroke-width:0.0001px"/><path d="M60.771,31.009c5.73,7.004,10.347,14.848,13.69,23.257c20.919,9.21,36.825,27.027,43.613,48.852   c20.923-1.858,41.3-7.69,60.038-17.184c-4.566-25.342-21.143-46.895-44.465-57.811C110.326,17.205,83.157,18.281,60.771,31.009z" style="fill:none;stroke:red;stroke-width:0.0001px"/><path d="M101.434,179.364c20.256-0.366,39.605-8.464,54.083-22.634c-7.354-12.09-20.421-19.533-34.57-19.693   C118.846,152.787,112.046,167.537,101.434,179.364z" style="fill:none;stroke:red;stroke-width:0.0001px"/><path d="M101.434,179.364c20.256-0.366,39.605-8.464,54.083-22.634c-7.354-12.09-20.421-19.533-34.57-19.693   C118.846,152.787,112.046,167.537,101.434,179.364z" style="fill:none;stroke:red;stroke-width:0.0001px"/><path d="M101.434,179.364c20.256-0.366,39.605-8.464,54.083-22.634c-7.354-12.09-20.421-19.533-34.57-19.693   C118.846,152.787,112.046,167.537,101.434,179.364z" style="fill:none;stroke:red;stroke-width:0.0001px"/><path d="M101.434,179.364c20.256-0.366,39.605-8.464,54.083-22.634c-7.354-12.09-20.421-19.533-34.57-19.693   C118.846,152.787,112.046,167.537,101.434,179.364z" style="fill:none;stroke:red;stroke-width:0.0001px"/><path d="M58.182,32.546c-6.638,4.115-12.632,9.186-17.788,15.051c10.294-0.29,20.546,1.435,30.178,5.078   C67.398,45.423,63.228,38.648,58.182,32.546z" style="fill:none;stroke:red;stroke-width:0.0001px"/><path d="M58.182,32.546c-6.638,4.115-12.632,9.186-17.788,15.051c10.294-0.29,20.546,1.435,30.178,5.078   C67.398,45.423,63.228,38.648,58.182,32.546z" style="fill:none;stroke:red;stroke-width:0.0001px"/><path d="M58.182,32.546c-6.638,4.115-12.632,9.186-17.788,15.051c10.294-0.29,20.546,1.435,30.178,5.078   C67.398,45.423,63.228,38.648,58.182,32.546z" style="fill:none;stroke:red;stroke-width:0.0001px"/><path d="M58.182,32.546c-6.638,4.115-12.632,9.186-17.788,15.051c10.294-0.29,20.546,1.435,30.178,5.078   C67.398,45.423,63.228,38.648,58.182,32.546z" style="fill:none;stroke:red;stroke-width:0.0001px"/></g></svg>