<svg height="18in" id="Layer_1" version="1.1" width="32in" x="0px" xml:space="preserve" xmlns="http://www.w3.org/2000/svg" xmlns:xlink="http://www.w3.org/1999/xlink" y="0px"><g transform="translate(41.42135623730951 41.42135623730951) rotate(-45 100.0 100.0)"><path d="M78.816,104.924c12.274,1.819,24.712,2.274,37.086,1.356c2.482,8.958,3.301,18.295,2.416,27.549   c-10.85,0.804-21.113,5.449-28.828,13.142c-7.716,7.694-12.381,17.949-12.931,28.865c-11.712-3.62-22.426-9.904-31.302-18.359   C62.473,144.633,74.406,125.945,78.816,104.924z" style="fill:none;stroke:red;stroke-width:0.0001px"/><path d="M78.816,104.924c12.274,1.819,24.712,2.274,37.086,1.356c2.482,8.958,3.301,18.295,2.416,27.549   c-10.85,0.804-21.113,5.449-28.828,13.142c-7.716,7.694-12.381,17.949-12.931,28.865c-11.712-3.62-22.426-9.904-31.302-18.359   C62.473,144.633,74.406,125.945,78.816,104.924z" style="fill:none;stroke:red;stroke-width:0.0001px"/></g></svg>