<svg id="Layer_1" style="enable-background:new 0 0 200 200;" version="1.1" viewBox="0 0 200 200" x="0px" xml:space="preserve" xmlns="http://www.w3.org/2000/svg" xmlns:xlink="http://www.w3.org/1999/xlink" y="0px"><path d="M139.178,30.973c-2.679-1.52-5.423-2.874-8.259-4.073c-16.957,6.151-31.359,17.816-40.898,33.126   c12.339,4.429,23.662,11.292,33.298,20.18C133.236,65.665,138.743,48.569,139.178,30.973z" style="fill:#8F4F9E;"/><path d="M31.689,60.666c-0.249,0.069-0.497,0.139-0.746,0.209c-9.556,16.866-12.608,36.646-8.583,55.608   c17.521,5.082,36.162,4.804,53.524-0.798c-1.075-6.794-1.307-13.694-0.691-20.545C57.566,88.267,42.409,76.257,31.689,60.666z" style="fill:#F9EE6B;"/><path d="M174.192,71.801c-10.611,10.62-23.673,18.465-38.033,22.842c-3.218-4.432-6.746-8.523-10.656-12.359   c10.089-14.631,15.841-31.813,16.594-49.57C156.772,41.895,168.042,55.621,174.192,71.801z" style="fill:#DD6688;"/></svg>