<svg id="Layer_1" style="enable-background:new 0 0 200 200;" version="1.1" viewBox="0 0 200 200" x="0px" xml:space="preserve" xmlns="http://www.w3.org/2000/svg" xmlns:xlink="http://www.w3.org/1999/xlink" y="0px"><path d="M78.392,93.163c9.102,3.292,18.67,5.119,28.344,5.411c5.567-4.695,10.552-10.038,14.85-15.916   c-9.548-8.88-20.823-15.697-33.122-20.027C83.089,72.028,79.664,82.412,78.392,93.163z" style="fill:#EF5C3F;"/><path d="M134.959,98.095c-8.841,2.476-17.996,3.649-27.176,3.482c-8.497,6.993-18.152,12.446-28.528,16.112   c1.46,7.67,4.027,15.088,7.621,22.02c10.772-6.376,24.016-6.953,35.303-1.539c11.286,5.415,19.124,16.106,20.892,28.498   c2.958-1.911,5.758-3.995,8.437-6.281C153.426,138.328,147.572,116.293,134.959,98.095z" style="fill:#EF6FCE;"/><path d="M23.137,119.793c17.498,4.742,35.993,4.343,53.27-1.149c1.545,7.907,4.225,15.549,7.958,22.689   c-10.214,7.203-16.165,19.023-15.869,31.518C45.994,163.119,29.251,143.535,23.137,119.793z" style="fill:#2C84CE;"/></svg>