<svg id="Layer_1" style="enable-background:new 0 0 465.433 458.521;" version="1.1" viewBox="0 0 465.433 458.521" x="0px" xml:space="preserve" xmlns="http://www.w3.org/2000/svg" xmlns:xlink="http://www.w3.org/1999/xlink" y="0px"><path d="M92.072,74.213c-1.45,1.342-2.881,2.705-4.291,4.088c-8.929,8.755-17.061,18.322-24.26,28.547  c-7.142,10.142-13.367,20.93-18.574,32.188c-5.208,11.258-9.398,22.987-12.503,34.997c-1.56,6.035-2.846,12.14-3.854,18.291  c-1.014,6.189-1.745,12.425-2.192,18.681c-0.446,6.256-0.607,12.532-0.482,18.802c0.124,6.232,0.53,12.458,1.218,18.652  c0.24,2.161,0.514,4.319,0.822,6.471c4.915,5.564,7.568,8.545,10.228,11.519c3.481,3.892,6.977,7.771,10.49,11.635  c3.2,3.52,6.415,7.026,9.647,10.517c1.2,1.296,2.402,2.589,3.607,3.88c5.15-16.229,15.989-7.844,21.754-8.268  c7.713-0.567,6.341-16.905,2.237-37.862c-1.376-7.028-3.06-14.576-4.489-22.49c-0.164-0.563-0.311-1.131-0.44-1.703  c-0.202-0.895-0.359-1.8-0.474-2.711c-0.092-0.731-0.157-1.466-0.197-2.202c-2.126-13.827-3.059-28.596-0.004-43.539  c5.338-26.11,22.85-52.755,28.165-65.086c5.315-12.331-1.568-10.349-8.452-9.121C95.324,100.339,90.622,100.826,92.072,74.213z" style="fill:none;stroke:red;stroke-width:0.0001px"/><path d="M303.948,419.273c0.217-0.289,0.435-0.579,0.654-0.869c-0.955-1.501-1.896-3.01-2.821-4.529  c-1.594-2.617-3.141-5.262-4.63-7.94c-1.369-2.461-2.689-4.95-3.947-7.469c-1.162-2.327-2.271-4.68-3.314-7.063  c-0.957-2.186-1.859-4.397-2.691-6.634c-0.759-2.042-1.459-4.106-2.088-6.192c-1.112-3.693-2-7.457-2.55-11.274  c-0.473-3.285-0.696-6.61-0.577-9.927c0.105-2.937,0.478-5.868,1.161-8.727c0.623-2.605,1.503-5.15,2.628-7.581  c0.533-1.152,1.121-2.279,1.757-3.378c0.513-0.886,1.058-1.754,1.632-2.602c-0.015-0.035-0.03-0.071-0.044-0.106  c-0.14-0.344-0.261-0.696-0.368-1.052c-0.146,0.111-0.291,0.223-0.435,0.337c-0.149,0.118-0.298,0.236-0.446,0.356  c-0.243,0.197-0.485,0.395-0.725,0.595c-0.532,0.442-1.058,0.891-1.582,1.342c-1.051,0.904-2.095,1.816-3.147,2.718  c-0.599,0.513-1.2,1.022-1.808,1.525c-0.449,0.372-0.902,0.74-1.359,1.102c-0.585,0.463-1.177,0.916-1.782,1.353  c-0.569,0.41-1.149,0.806-1.748,1.172c-0.287,0.176-0.577,0.344-0.873,0.504c-0.284,0.153-0.573,0.298-0.868,0.432  c-0.284,0.129-0.572,0.247-0.865,0.353c-0.156,0.056-0.312,0.108-0.471,0.156c-0.293,0.088-0.592,0.162-0.894,0.215  c-0.314,0.055-0.632,0.089-0.951,0.096c-0.35,0.007-0.7-0.019-1.043-0.084c-0.252-0.048-0.499-0.116-0.739-0.206  c-0.193-0.072-0.381-0.159-0.561-0.259c-0.188-0.104-0.369-0.223-0.539-0.356c-0.174-0.136-0.336-0.285-0.486-0.448  c-0.148-0.161-0.284-0.334-0.404-0.517c-0.073-0.111-0.141-0.226-0.204-0.343c-0.096-0.181-0.179-0.368-0.248-0.56  c-0.129-0.356-0.211-0.729-0.252-1.105c-0.037-0.344-0.04-0.691-0.015-1.037c0.024-0.331,0.073-0.66,0.14-0.985  c0.127-0.613,0.32-1.211,0.549-1.794c0.135-0.344,0.284-0.683,0.441-1.018c0.171-0.364,0.354-0.723,0.544-1.078  c0.433-0.806,0.908-1.589,1.408-2.356c0.592-0.909,1.218-1.795,1.865-2.665c0.632-0.85,1.284-1.684,1.949-2.509  c-3.026-0.463-6.052-0.932-9.078-1.391c-1.962-0.298-3.925-0.592-5.889-0.876c-1.851-0.267-3.703-0.526-5.557-0.769  c-4.413-0.578-8.838-1.068-13.273-1.444c-2.089-0.177-4.18-0.329-6.273-0.452c-1.982-0.116-3.965-0.206-5.95-0.266  c-1.869-0.056-3.739-0.085-5.609-0.081c-1.762,0.003-3.523,0.036-5.284,0.103c-1.635,0.062-3.268,0.155-4.899,0.286  c-0.843,0.067-1.686,0.145-2.528,0.234c-1.416,0.15-2.828,0.333-4.233,0.558c-1.273,0.204-2.541,0.442-3.798,0.727  c-1.123,0.254-2.239,0.544-3.339,0.885c-0.966,0.299-1.921,0.637-2.853,1.028c-0.802,0.337-1.588,0.713-2.343,1.146  c-0.331,0.19-0.657,0.391-0.973,0.605c-0.289,0.195-0.57,0.401-0.841,0.619c-0.247,0.198-0.485,0.407-0.712,0.627  c-0.208,0.203-0.407,0.415-0.594,0.638c-0.175,0.209-0.339,0.426-0.491,0.652c-0.144,0.215-0.277,0.439-0.397,0.669  c-0.118,0.226-0.225,0.458-0.319,0.695c-0.095,0.239-0.178,0.483-0.248,0.73c-0.148,0.519-0.241,1.053-0.291,1.59  c-0.055,0.595-0.058,1.193-0.021,1.789c0.04,0.665,0.129,1.326,0.251,1.98c0.135,0.723,0.311,1.438,0.516,2.145  c0.223,0.768,0.48,1.526,0.76,2.275c0.301,0.803,0.63,1.596,0.979,2.381c0.367,0.826,0.756,1.641,1.161,2.449  c0.419,0.835,0.854,1.662,1.302,2.482c0.886,1.623,1.818,3.22,2.771,4.805c0.497,0.827,1,1.651,1.505,2.473  c0.549,0.894,1.102,1.786,1.653,2.679c0.487,0.789,0.972,1.578,1.451,2.372c0.461,0.764,0.917,1.53,1.362,2.304  c0.423,0.736,0.834,1.478,1.228,2.229c0.371,0.708,0.726,1.425,1.052,2.155c0.156,0.349,0.305,0.701,0.445,1.056  c0.112,0.282,0.218,0.567,0.317,0.853c0.119,0.345,0.229,0.693,0.325,1.044c0.095,0.347,0.178,0.697,0.245,1.051  c0.067,0.353,0.117,0.71,0.146,1.068c0.03,0.365,0.039,0.731,0.023,1.096c-0.017,0.377-0.062,0.753-0.139,1.123  c-0.079,0.385-0.193,0.764-0.342,1.128c-0.154,0.378-0.346,0.74-0.573,1.078c-0.23,0.344-0.497,0.663-0.792,0.953  c-0.293,0.288-0.614,0.547-0.955,0.775c-0.339,0.226-0.698,0.422-1.069,0.591c-0.373,0.169-0.758,0.311-1.151,0.429  c-0.403,0.121-0.814,0.218-1.228,0.294c-0.435,0.081-0.873,0.14-1.313,0.182c-0.551,0.053-1.104,0.08-1.657,0.089  c-0.516,0.008-1.033,0-1.549-0.02c-0.565-0.023-1.129-0.06-1.692-0.109c-0.613-0.053-1.226-0.12-1.837-0.196  c-0.66-0.083-1.318-0.177-1.975-0.28c-0.707-0.111-1.413-0.231-2.117-0.359c-0.752-0.137-1.502-0.282-2.251-0.433  c-1.628-0.329-3.251-0.686-4.868-1.062c-1.765-0.41-3.526-0.841-5.282-1.286c-1.7-0.431-3.398-0.875-5.092-1.328  c-1.938-0.518-3.873-1.048-5.805-1.586c-3.97-1.105-7.93-2.245-11.886-3.396c-3.113-0.906-6.224-1.819-9.335-2.73  c-2.038-0.597-4.076-1.193-6.115-1.784c-2.101-0.609-4.203-1.214-6.309-1.805c-1.51-0.424-3.022-0.842-4.537-1.248  c-1.298-0.347-2.599-0.685-3.905-1.004c-0.559-0.137-1.119-0.27-1.68-0.397c-0.376-0.085-0.753-0.168-1.13-0.247  c-0.459-0.096-0.918-0.187-1.379-0.27c-0.386-0.069-0.772-0.133-1.16-0.188c-0.314-0.045-0.63-0.083-0.946-0.113  c-0.203-0.019-0.407-0.034-0.611-0.042c-0.146-0.006-0.292-0.009-0.438-0.006c-0.027,0.224-0.054,0.448-0.084,0.671  c-0.05,0.37-0.112,0.738-0.195,1.102c-0.102,0.448-0.235,0.889-0.405,1.315c-0.197,0.494-0.442,0.969-0.733,1.414  c-0.323,0.494-0.702,0.951-1.123,1.366c-0.458,0.452-0.966,0.853-1.504,1.208c-0.289,0.191-0.586,0.368-0.89,0.533  c-0.322,0.175-0.651,0.337-0.985,0.488c-0.347,0.156-0.699,0.299-1.055,0.433c-0.344,0.129-0.692,0.25-1.041,0.365  c-0.356,0.117-0.715,0.229-1.074,0.339c-0.365,0.111-0.731,0.22-1.097,0.328c-0.823,0.243-1.646,0.484-2.463,0.744  c-0.735,0.233-1.465,0.481-2.184,0.759c-0.68,0.263-1.351,0.553-2,0.886c-0.586,0.301-1.154,0.637-1.684,1.028  c-0.464,0.342-0.899,0.726-1.276,1.162c-0.173,0.201-0.334,0.413-0.479,0.635c-0.124,0.191-0.236,0.389-0.336,0.594  c0.169,0.154,0.338,0.308,0.507,0.461c9.191,8.33,19.136,15.828,29.672,22.375c10.536,6.547,21.664,12.141,33.203,16.692  c5.798,2.287,11.701,4.311,17.682,6.063c6.019,1.764,12.118,3.253,18.272,4.462c7.098,1.394,14.27,2.415,21.476,3.057  c7.146,0.637,14.326,0.9,21.5,0.789c7.136-0.111,14.267-0.592,21.353-1.441c7.069-0.847,14.093-2.06,21.036-3.632  c6.943-1.572,13.805-3.504,20.549-5.784C300.274,420.603,302.116,419.951,303.948,419.273z" style="fill:none;stroke:red;stroke-width:0.0001px"/><path d="M337.783,48.269c55.313,120.244,51.708,135.22,46.604,137.95c-5.438,2.909-12.576-8.086-11.354,1.866  c1.222,9.952,10.804,40.851,19.025,54.607c8.22,13.756,15.079,10.368,18.299-2.112c2.545-9.867,2.816-25.416,23.966,27.433  c0.043-0.205,0.086-0.411,0.128-0.616c1.461-7.085,2.549-14.247,3.259-21.446c0.71-7.199,1.042-14.436,0.993-21.669  c-0.049-7.174-0.472-14.347-1.268-21.477c-0.792-7.093-1.951-14.145-3.473-21.118c-1.518-6.955-3.396-13.832-5.624-20.594  c-2.228-6.762-4.806-13.408-7.72-19.903c-2.922-6.512-6.181-12.872-9.762-19.046c-3.599-6.207-7.522-12.225-11.748-18.023  c-4.261-5.846-8.83-11.468-13.68-16.835c-4.766-5.273-9.804-10.3-15.088-15.054c-5.241-4.715-10.724-9.162-16.42-13.316  C348.71,55.117,343.324,51.563,337.783,48.269z" style="fill:none;stroke:red;stroke-width:0.0001px"/><path d="M95.269,71.315c-0.146,1.665-0.189,2.387-0.228,3.11c-0.077,1.412-0.14,2.826-0.186,4.239  c-0.04,1.241-0.066,2.482-0.073,3.723c-0.006,1.082,0.003,2.164,0.032,3.246c0.025,0.926,0.066,1.852,0.129,2.776  c0.053,0.775,0.121,1.549,0.213,2.32c0.076,0.635,0.167,1.269,0.284,1.898c0.093,0.502,0.203,1.002,0.338,1.494  c0.103,0.376,0.22,0.747,0.362,1.109c0.066,0.168,0.137,0.334,0.217,0.495c0.052,0.106,0.108,0.211,0.168,0.312  c0.047,0.08,0.098,0.159,0.152,0.235c0.07,0.099,0.147,0.194,0.236,0.277c0.046,0.043,0.094,0.083,0.148,0.114  c0.041,0.024,0.084,0.043,0.129,0.058c0.029,0.01,0.059,0.018,0.09,0.024c0.04,0.009,0.08,0.016,0.121,0.021  c0.117,0.016,0.235,0.021,0.353,0.02c0.078-0.001,0.156-0.003,0.233-0.008c0.188-0.011,0.374-0.032,0.56-0.058  c0.232-0.032,0.463-0.069,0.693-0.109c0.328-0.056,0.655-0.116,0.982-0.176c0.86-0.159,1.718-0.321,2.581-0.463  c0.754-0.124,1.511-0.233,2.272-0.302c0.754-0.068,1.512-0.098,2.266-0.048c0.397,0.026,0.792,0.074,1.182,0.152  c0.415,0.082,0.824,0.198,1.218,0.354c0.21,0.083,0.416,0.177,0.616,0.283c0.208,0.11,0.409,0.233,0.601,0.368  c0.2,0.14,0.39,0.293,0.569,0.459c0.184,0.17,0.355,0.354,0.513,0.548c0.16,0.197,0.306,0.404,0.436,0.621  c0.13,0.216,0.244,0.442,0.344,0.673c0.098,0.229,0.182,0.465,0.251,0.705c0.069,0.238,0.123,0.48,0.165,0.724  c0.082,0.485,0.113,0.978,0.106,1.47c-0.008,0.507-0.056,1.013-0.132,1.514c-0.082,0.541-0.197,1.076-0.332,1.607  c-0.121,0.472-0.259,0.939-0.409,1.403c-0.207,0.639-0.437,1.27-0.682,1.895c-0.003,0.007-0.005,0.013-0.008,0.02  c36.478-19.079,46.007-24.636,50.624-29.457c8.006-8.361,1.234-14.509-4.501-18.839c-5.735-4.329-10.432-6.84,0.861-5.057  c11.136,1.758,37.82,7.691,61.049,13.604c-0.4-16.32-0.801-32.634-1.201-48.943c-6.124,0.407-12.23,1.087-18.294,2.037  c-6.029,0.945-12.016,2.158-17.937,3.633c-11.79,2.938-23.319,6.92-34.409,11.883c-11.094,4.965-21.748,10.912-31.797,17.749  C108.867,60.006,101.879,65.448,95.269,71.315z" style="fill:none;stroke:red;stroke-width:0.0001px"/><path d="M235.898,19.309c0.439,17.965,0.877,35.936,1.317,53.912c16.473,4.357,31.098,8.184,44.97,9.969  c18.312,2.356,35.311,1.154,47.097-1.335c11.786-2.489,18.359-6.263,6.604-15.212c-8.693-6.618-27.408-16.065-84.109-46.445  C246.497,19.698,241.199,19.402,235.898,19.309z" style="fill:none;stroke:red;stroke-width:0.0001px"/><path d="M241.174,119.225c9.244-0.618,19.878-0.916,24.258-2.573c5.174-1.958,1.624-5.815-2.051-8.03  c-3.675-2.215-7.476-2.789-11.269-2.921s-7.579,0.176-7-0.464c0.579-0.64,5.522-2.229,6.271-4.046  c0.748-1.818-2.698-3.864-7.35-5.79c-1.082-0.448-2.23-0.889-3.473-1.294C240.765,102.478,240.969,110.851,241.174,119.225z" style="fill:none;stroke:red;stroke-width:0.0001px"/><path d="M218.664,137.936c-0.591,0.249-1.187,0.487-1.785,0.719c-1.577,0.61-3.171,1.173-4.773,1.712  c-1.466,0.493-2.939,0.966-4.416,1.426c-1.966,0.613-3.939,1.203-5.916,1.78c-2.076,0.606-4.157,1.198-6.24,1.781  c-2.102,0.589-4.207,1.17-6.313,1.747c-2.062,0.565-4.125,1.127-6.188,1.69c-1.954,0.533-3.908,1.068-5.86,1.609  c-1.759,0.487-3.516,0.98-5.269,1.487c-1.495,0.432-2.986,0.876-4.474,1.332c-1.244,0.382-2.485,0.773-3.723,1.173  c-1.019,0.33-2.036,0.666-3.051,1.008c-0.966,0.326-1.93,0.656-2.895,0.986c-0.421,0.144-0.842,0.287-1.264,0.428  c-0.269,0.09-0.539,0.178-0.809,0.264c-0.195,0.062-0.39,0.122-0.586,0.18c-0.226,0.067-0.453,0.13-0.681,0.187  c-0.222,0.055-0.446,0.105-0.671,0.143c-0.119,0.021-0.239,0.038-0.36,0.052c-0.132,0.015-0.265,0.025-0.398,0.029  c-0.181,0.006-0.363,0.001-0.544-0.016c-0.193-0.018-0.384-0.051-0.572-0.099c-0.231-0.059-0.456-0.141-0.67-0.246  c-0.122-0.06-0.241-0.127-0.355-0.201c-0.121-0.079-0.236-0.166-0.346-0.259c-0.113-0.096-0.219-0.2-0.318-0.31  c-0.098-0.11-0.189-0.227-0.272-0.349c-0.152-0.225-0.278-0.469-0.371-0.725c-0.075-0.205-0.131-0.417-0.167-0.632  c-0.021-0.126-0.036-0.253-0.044-0.38c-0.303,0.199-0.606,0.398-0.909,0.598c-0.958,0.633-1.912,1.27-2.871,1.901  c-0.763,0.502-1.528,1.001-2.298,1.491c-0.086,0.055-0.172,0.109-0.258,0.164c0.529,1.276,0.954,2.594,1.3,3.931  c0.417,1.611,0.717,3.25,0.931,4.9c0.175,1.356,0.292,2.719,0.36,4.084c0.065,1.31,0.086,2.623,0.068,3.935  c-0.018,1.277-0.072,2.554-0.15,3.829c-0.082,1.337-0.19,2.672-0.293,4.008c-0.056,0.732-0.111,1.464-0.16,2.196  c-0.078,1.173-0.141,2.348-0.175,3.523c-0.038,1.292-0.041,2.585-0.008,3.877c0.022,0.862,0.061,1.724,0.112,2.585  c0.095,1.593,0.232,3.183,0.4,4.769c0.071,0.669,0.147,1.337,0.228,2.004c46.593-9.639,56.707-14.541,62.19-18.464  c9.645-6.901,4.964-10.775-0.282-14.77c-2.124-1.617-4.34-3.255,11.64-10.961C218.991,151.345,218.828,144.64,218.664,137.936z" style="fill:none;stroke:red;stroke-width:0.0001px"/><path d="M240.484,90.966c0.095,0.028,0.19,0.057,0.285,0.086c0.67,0.205,1.334,0.427,1.994,0.664  c1.003,0.36,1.994,0.754,2.975,1.171c0.548,0.233,1.093,0.474,1.633,0.725c0.711,0.33,1.414,0.679,2.1,1.057  c0.458,0.252,0.909,0.518,1.348,0.802c0.419,0.272,0.827,0.562,1.215,0.878c0.192,0.156,0.379,0.319,0.558,0.489  c0.091,0.086,0.18,0.174,0.267,0.264c0.088,0.091,0.175,0.185,0.258,0.28c0.174,0.199,0.336,0.408,0.483,0.627  c0.105,0.155,0.202,0.315,0.291,0.479c0.144,0.267,0.265,0.547,0.358,0.836c0.102,0.318,0.169,0.647,0.199,0.979  c0.031,0.354,0.018,0.712-0.039,1.062c-0.055,0.34-0.152,0.673-0.285,0.99c-0.066,0.157-0.141,0.31-0.224,0.459  c0.988,0.072,1.973,0.182,2.949,0.345c0.873,0.145,1.739,0.333,2.592,0.568c0.714,0.197,1.419,0.429,2.111,0.695  c0.719,0.277,1.424,0.593,2.109,0.946c0.354,0.182,0.704,0.375,1.047,0.577c0.174,0.102,0.346,0.207,0.517,0.314  c0.175,0.109,0.349,0.221,0.521,0.335c0.696,0.463,1.364,0.967,1.992,1.518c0.36,0.316,0.707,0.647,1.034,0.997  c0.145,0.155,0.286,0.315,0.423,0.478c0.138,0.165,0.271,0.333,0.399,0.506c0.263,0.356,0.501,0.731,0.704,1.124  c0.129,0.249,0.244,0.504,0.342,0.767c0.176,0.474,0.297,0.969,0.345,1.472c0.026,0.273,0.031,0.547,0.014,0.821  c-0.018,0.285-0.06,0.569-0.125,0.847c-0.067,0.284-0.16,0.563-0.276,0.831c-0.116,0.268-0.255,0.526-0.415,0.771  c-0.079,0.121-0.163,0.239-0.251,0.354c-0.088,0.113-0.18,0.224-0.276,0.33c-0.189,0.21-0.394,0.406-0.61,0.588  c-0.129,0.108-0.262,0.212-0.398,0.31c-0.226,0.164-0.462,0.315-0.704,0.453c-0.5,0.286-1.029,0.52-1.57,0.719  c-0.576,0.212-1.166,0.384-1.761,0.532c-0.316,0.079-0.633,0.151-0.951,0.218c-0.333,0.07-0.667,0.135-1.002,0.195  c-0.717,0.129-1.437,0.238-2.158,0.336c-0.777,0.105-1.555,0.196-2.335,0.277c-0.828,0.087-1.658,0.163-2.487,0.233  c-0.868,0.073-1.737,0.139-2.607,0.2c-0.897,0.063-1.794,0.122-2.691,0.178c-2.183,0.136-4.367,0.259-6.551,0.392  c-0.86,0.052-1.721,0.106-2.581,0.164c0.211,8.63,0.422,17.261,0.633,25.894c9.668-3.985,21.836-8.802,37.106-14.65  c-0.236-0.436-0.468-0.874-0.695-1.315c-0.525-1.016-1.026-2.044-1.499-3.085c-0.513-1.13-0.991-2.276-1.422-3.44  c-0.329-0.889-0.631-1.788-0.895-2.699c-0.241-0.83-0.45-1.67-0.616-2.518c-0.152-0.776-0.266-1.56-0.327-2.349  c-0.029-0.371-0.046-0.743-0.048-1.114c-0.003-0.363,0.008-0.726,0.036-1.087c0.053-0.703,0.167-1.402,0.365-2.078  c0.211-0.719,0.516-1.411,0.922-2.041c0.184-0.286,0.389-0.558,0.612-0.815c0.219-0.252,0.456-0.488,0.708-0.706  c0.247-0.213,0.508-0.41,0.782-0.588c0.267-0.174,0.544-0.33,0.83-0.468c0.517-0.25,1.061-0.443,1.618-0.584  c0.575-0.145,1.164-0.234,1.756-0.277c0.582-0.042,1.166-0.04,1.747-0.003c0.579,0.037,1.156,0.11,1.728,0.212  c0.571,0.101,1.137,0.231,1.697,0.386c0.558,0.154,1.109,0.332,1.652,0.532c1.065,0.392,2.1,0.866,3.091,1.42  c0.478,0.267,0.945,0.553,1.398,0.86c0.8,0.544,1.555,1.155,2.256,1.822c0.327,0.311,0.642,0.633,0.947,0.965  c0.281,0.306,0.554,0.62,0.82,0.94c0.24,0.29,0.475,0.584,0.706,0.881c0.22,0.282,0.436,0.565,0.655,0.848  c0.178,0.229,0.356,0.458,0.54,0.682c0.146,0.177,0.295,0.352,0.451,0.52c0.12,0.128,0.244,0.252,0.376,0.368  c0.093,0.081,0.19,0.158,0.294,0.225c0.039,0.025,0.08,0.049,0.121,0.071c0.036,0.019,0.073,0.037,0.111,0.053  c0.077,0.032,0.157,0.055,0.238,0.072c0.05,0.01,0.101,0.018,0.152,0.024c0.071,0.008,0.142,0.015,0.213,0.019  c0.198,0.013,0.397,0.013,0.595,0.007c0.266-0.007,0.532-0.023,0.797-0.042c0.366-0.026,0.731-0.059,1.096-0.091  c0.392-0.034,0.785-0.068,1.177-0.098c0.425-0.032,0.85-0.059,1.276-0.077c0.136-0.006,0.272-0.011,0.409-0.015  c-0.043-0.048-0.085-0.096-0.128-0.144c-2.984-3.35-6.111-6.57-9.316-9.71c-1.711-1.677-3.445-3.33-5.196-4.965  c-1.926-1.798-3.873-3.573-5.835-5.331c-2.13-1.908-4.279-3.797-6.441-5.669c-2.343-2.029-4.703-4.039-7.074-6.035  c-1.287-1.084-2.578-2.163-3.872-3.238c-2.783-0.567-5.556-1.181-8.323-1.826c-3.753-0.875-7.493-1.806-11.226-2.763  c-3.656-0.937-7.307-1.898-10.956-2.863c0.037,1.499,0.073,2.997,0.11,4.496c0.945-0.023,1.889-0.046,2.834-0.069  c0.024,0.992,0.048,1.984,0.073,2.976C240.366,86.137,240.425,88.551,240.484,90.966z" style="fill:none;stroke:red;stroke-width:0.0001px"/><path d="M217.569,93.136c-8.193,1.221-16.895,3.312-19.79,3.784c-3.686,0.602,2.042-1.422,5.922-4.187  c3.881-2.765,5.913-6.272,0.977-7.246c-4.937-0.974-16.844,0.584-28.416,4.51c-11.572,3.926-22.81,10.22-30.839,16.097  c-8.029,5.876-12.848,11.336-13.511,15.463c-0.663,4.127,2.831,6.922,5.791,8.101c2.961,1.179,5.389,0.743,3.175,2.647  c-2.214,1.904-9.072,6.15-11.771,11.012c-2.699,4.863-1.239,10.342,0.463,13.457c1.702,3.115,3.647,3.866,8.488,1.289  c4.841-2.577,12.579-8.481,14.875-9.076c2.297-0.596-0.848,4.117-0.623,5.361c0.225,1.244,3.82-0.98,18.335-5.199  c13.984-4.064,38.105-9.979,47.938-14.429C218.247,120.857,217.908,106.995,217.569,93.136z" style="fill:none;stroke:red;stroke-width:0.0001px"/><path d="M124.79,151.531c0.004,0.03,0.008,0.06,0.012,0.09c0.113,0.829,0.283,1.65,0.504,2.457  c0.204,0.745,0.452,1.477,0.741,2.192c0.263,0.649,0.56,1.284,0.894,1.899c0.16,0.295,0.33,0.586,0.51,0.87  c0.178,0.28,0.368,0.553,0.571,0.815c0.208,0.269,0.431,0.527,0.67,0.77c0.249,0.252,0.516,0.488,0.799,0.701  c0.295,0.222,0.609,0.419,0.938,0.587c0.338,0.173,0.693,0.314,1.057,0.422c0.365,0.108,0.739,0.183,1.117,0.225  c0.375,0.041,0.753,0.051,1.13,0.032c0.375-0.018,0.749-0.064,1.118-0.132c0.374-0.069,0.743-0.16,1.108-0.268  c0.377-0.112,0.749-0.242,1.116-0.385c0.388-0.151,0.77-0.317,1.147-0.493c0.405-0.189,0.804-0.39,1.199-0.6  c0.333-0.177,0.663-0.36,0.991-0.547c1.888,4.826,2.352,10.638,2.257,15.618c-0.113,5.947-1.023,10.706-0.752,18.027  c0.271,7.321,1.722,17.204,3.705,25.065c1.983,7.86,4.499,13.698,4.509,20.207c0.008,5.196-1.581,10.82-5.323,14.168  c-0.001-0.001-0.002-0.003-0.003-0.004c-0.642-1.052-1.293-2.098-1.959-3.134c-0.628-0.976-1.27-1.944-1.931-2.898  c-0.62-0.896-1.258-1.781-1.922-2.645c-0.312-0.406-0.63-0.808-0.954-1.204c-0.313-0.382-0.633-0.759-0.96-1.129  c-0.614-0.693-1.256-1.362-1.939-1.986c-0.32-0.293-0.65-0.575-0.99-0.845c-0.326-0.259-0.661-0.505-1.006-0.738  c-0.33-0.222-0.669-0.432-1.016-0.626c-0.333-0.185-0.673-0.356-1.022-0.51c-0.667-0.294-1.362-0.527-2.074-0.678  c-0.678-0.144-1.371-0.216-2.064-0.205c-0.334,0.005-0.668,0.029-0.999,0.072c-0.326,0.042-0.649,0.102-0.968,0.18  c-0.615,0.151-1.213,0.37-1.782,0.647c-0.546,0.266-1.065,0.585-1.552,0.948c-0.469,0.35-0.908,0.741-1.314,1.163  c-0.394,0.41-0.757,0.849-1.088,1.311c-0.323,0.451-0.616,0.923-0.878,1.412c-0.256,0.478-0.483,0.972-0.678,1.478  c-0.191,0.496-0.352,1.003-0.478,1.519c-0.062,0.254-0.116,0.51-0.161,0.767c-0.02,0.116-0.039,0.232-0.055,0.349  c-1.481-3.225-1.752-6.481-2.182-8.222c-0.666-2.697-1.711-1.758-3.966-0.089c-2.255,1.669-5.719,4.068-11.635,1.701  c-5.917-2.366-14.286-9.497-15.748-20.673c-1.463-11.177,3.982-26.4,9.864-30.412c5.883-4.012,12.204,3.186,14.708,5.702  c2.504,2.516,1.19,0.349,0.143-4.423c-1.047-4.772-1.826-12.149,1.143-19.99C112.277,162.335,118.873,154.132,124.79,151.531z" style="fill:none;stroke:red;stroke-width:0.0001px"/><path d="M219.888,71.765c-3.639-0.929-7.282-1.839-10.93-2.732c-4.428-1.084-8.862-2.143-13.302-3.179  c-3.962-0.924-7.928-1.83-11.899-2.713c-3.818-0.849-7.64-1.677-11.469-2.473c-2.112-0.439-4.226-0.868-6.344-1.281  c-1.169-0.228-2.34-0.45-3.512-0.665c-0.638-0.117-1.276-0.231-1.914-0.342c0.968,0.75,1.915,1.528,2.817,2.356  c0.7,0.643,1.372,1.316,1.999,2.029c0.529,0.603,1.027,1.234,1.476,1.898c0.46,0.681,0.87,1.397,1.207,2.146  c0.35,0.777,0.623,1.59,0.798,2.424c0.091,0.431,0.155,0.868,0.192,1.307c0.038,0.451,0.046,0.904,0.025,1.355  c-0.021,0.464-0.072,0.927-0.152,1.384c-0.083,0.471-0.197,0.936-0.338,1.393c-0.146,0.472-0.322,0.935-0.524,1.387  c-0.21,0.47-0.447,0.928-0.706,1.373c-0.272,0.466-0.569,0.919-0.885,1.356c-0.335,0.463-0.692,0.911-1.065,1.344  c-0.378,0.438-0.774,0.862-1.184,1.272c-0.397,0.397-0.807,0.782-1.228,1.155c-0.463,0.41-0.937,0.806-1.421,1.191  c-0.54,0.429-1.091,0.845-1.65,1.249c-0.632,0.458-1.273,0.902-1.921,1.337c-0.738,0.495-1.485,0.979-2.237,1.453  c-0.861,0.543-1.728,1.076-2.6,1.6c-0.998,0.601-2.002,1.191-3.01,1.775c-1.151,0.667-2.307,1.326-3.466,1.978  c-1.319,0.743-2.643,1.478-3.969,2.208c-3.198,1.761-6.411,3.494-9.631,5.216c-4.056,2.168-8.122,4.317-12.192,6.457  c-3.673,1.931-7.35,3.856-11.028,5.777c-0.404,0.832-0.818,1.659-1.238,2.483c-0.459,0.9-0.924,1.797-1.394,2.691  c-0.505,0.962-1.013,1.922-1.523,2.881c-1.178,2.215-2.364,4.427-3.538,6.645c-1.219,2.302-2.426,4.61-3.609,6.931  c-1.26,2.472-2.493,4.959-3.686,7.465c-1.235,2.595-2.427,5.211-3.56,7.853c-1.145,2.667-2.229,5.36-3.235,8.083  c-1.001,2.712-1.924,5.454-2.743,8.227c-0.803,2.719-1.505,5.467-2.073,8.244c-0.554,2.711-0.979,5.449-1.284,8.199  c-0.3,2.71-0.484,5.433-0.564,8.158c-0.08,2.697-0.059,5.396,0.048,8.092c0.07,1.779,0.178,3.556,0.319,5.331  c0.354-1.396,0.766-2.778,1.236-4.14c0.305-0.882,0.634-1.755,0.99-2.617c0.344-0.833,0.713-1.656,1.109-2.465  c0.38-0.775,0.785-1.538,1.221-2.283c0.414-0.709,0.855-1.402,1.329-2.073c0.45-0.636,0.93-1.251,1.446-1.835  c0.493-0.558,1.02-1.087,1.587-1.568c0.278-0.235,0.565-0.459,0.863-0.669c0.294-0.207,0.597-0.399,0.91-0.576  c0.604-0.34,1.242-0.618,1.903-0.822c0.319-0.099,0.644-0.18,0.973-0.243c0.321-0.061,0.645-0.106,0.97-0.133  c0.629-0.053,1.263-0.042,1.89,0.028c0.599,0.067,1.192,0.188,1.771,0.354c0.557,0.159,1.103,0.36,1.633,0.593  c0.513,0.225,1.012,0.481,1.498,0.76c0.557,0.32,1.097,0.671,1.62,1.044c-0.234-1.64-0.372-3.294-0.406-4.951  c-0.033-1.615,0.035-3.233,0.21-4.839c0.182-1.669,0.48-3.324,0.896-4.951c0.221-0.865,0.476-1.721,0.763-2.566  c0.298-0.874,0.632-1.736,0.996-2.584c0.753-1.753,1.637-3.449,2.621-5.084c0.996-1.653,2.094-3.244,3.289-4.76  c1.16-1.471,2.412-2.87,3.767-4.164c0.602-0.575,1.224-1.128,1.869-1.654c0.337-0.275,0.68-0.542,1.03-0.8  c0.681-0.503,1.387-0.974,2.121-1.397c0.71-0.41,1.446-0.777,2.208-1.083c0.198-0.079,0.398-0.155,0.599-0.225  c0.04-0.755,0.133-1.507,0.281-2.248c0.198-0.984,0.494-1.95,0.886-2.874c0.203-0.479,0.431-0.947,0.684-1.401  c0.13-0.234,0.267-0.465,0.409-0.692c0.562-0.898,1.209-1.74,1.905-2.538c0.432-0.495,0.883-0.974,1.348-1.439  c0.726-0.726,1.487-1.417,2.268-2.084c0.646-0.552,1.307-1.087,1.976-1.611c0.555-0.434,1.116-0.861,1.68-1.284  c-0.544-0.24-1.074-0.512-1.586-0.815c-0.608-0.359-1.192-0.762-1.74-1.208c-0.312-0.254-0.612-0.521-0.898-0.804  c-0.268-0.264-0.524-0.541-0.765-0.83c-0.274-0.328-0.529-0.672-0.761-1.031c-0.241-0.372-0.457-0.759-0.644-1.16  c-0.195-0.416-0.359-0.847-0.489-1.288c-0.135-0.458-0.233-0.927-0.293-1.401c-0.062-0.491-0.082-0.988-0.062-1.483  c0.021-0.513,0.085-1.023,0.188-1.526c0.104-0.511,0.248-1.014,0.422-1.505c0.178-0.503,0.388-0.995,0.622-1.474  c0.334-0.685,0.717-1.347,1.133-1.986c0.323-0.497,0.666-0.981,1.025-1.454c0.379-0.499,0.775-0.986,1.183-1.461  c0.89-1.036,1.838-2.02,2.823-2.965c0.535-0.514,1.081-1.016,1.635-1.508c0.585-0.519,1.179-1.027,1.781-1.525  c1.297-1.073,2.631-2.102,3.99-3.097c0.999-0.731,2.012-1.444,3.036-2.139c1.078-0.732,2.168-1.445,3.27-2.141  c2.333-1.473,4.716-2.867,7.14-4.185c1.262-0.686,2.535-1.351,3.819-1.994c1.306-0.654,2.623-1.285,3.951-1.892  c2.687-1.229,5.419-2.361,8.194-3.375c1.386-0.506,2.783-0.983,4.189-1.429c1.384-0.438,2.777-0.846,4.178-1.226  c1.36-0.368,2.726-0.71,4.1-1.023c1.313-0.299,2.632-0.572,3.956-0.818c1.716-0.318,3.441-0.591,5.173-0.803  c1.115-0.136,2.233-0.248,3.354-0.325c0.78-0.054,1.561-0.091,2.343-0.106c0.471-0.009,0.941-0.01,1.412,0  c0.44,0.009,0.88,0.028,1.319,0.058c0.411,0.029,0.821,0.068,1.229,0.122c0.386,0.051,0.77,0.115,1.15,0.198  c0.362,0.078,0.721,0.173,1.072,0.289c0.504,0.166,0.994,0.377,1.452,0.645c0.321,0.188,0.626,0.404,0.906,0.649  c0.145,0.127,0.283,0.262,0.412,0.404c0.133,0.146,0.257,0.299,0.371,0.459c0.116,0.163,0.222,0.333,0.317,0.509  c0.095,0.177,0.179,0.36,0.25,0.548c0.071,0.186,0.13,0.377,0.176,0.571c0.046,0.189,0.079,0.382,0.1,0.575  c0.041,0.367,0.039,0.739-0.002,1.106c-0.043,0.381-0.128,0.757-0.247,1.122c-0.098,0.299-0.218,0.591-0.357,0.873  c-0.122,0.247-0.258,0.487-0.404,0.72c-0.103,0.165-0.212,0.326-0.325,0.484c2.116-0.409,4.237-0.794,6.365-1.135  c0.642-0.103,1.285-0.202,1.929-0.296c-0.048-1.952-0.095-3.903-0.143-5.855c-0.024-0.992-0.048-1.983-0.073-2.975  c0.947-0.023,1.894-0.046,2.84-0.07C220.043,78.081,219.966,74.923,219.888,71.765z" style="fill:none;stroke:red;stroke-width:0.0001px"/></svg>