<svg style="enable-background:new 0 0 158.7 159.6;" version="1.1" viewBox="0 0 158.7 159.6" x="0px" xml:space="preserve" xmlns="http://www.w3.org/2000/svg" xmlns:xlink="http://www.w3.org/1999/xlink" y="0px"><path d="M79.4,0C35.5,0,0,35.7,0,79.8c0,44.1,35.5,79.8,79.4,79.8c43.8,0,79.4-35.7,79.4-79.8C158.7,35.7,123.2,0,79.4,0z    M144.8,64.2c-10.9,8-21.7,15.9-32.6,23.9c-3,2.2-4.2,6-3.1,9.5c4.1,12.8,8.2,25.7,12.4,38.5c0.4,1.2,0,2.4-1,3.2   c-1,0.7-2.3,0.7-3.3,0c-10.9-7.9-21.8-15.8-32.8-23.6c-3-2.1-7-2.1-10,0c-10.9,7.9-21.8,15.8-32.8,23.6c-1,0.7-2.3,0.7-3.3,0   c-1-0.7-1.4-2-1-3.2c4.1-12.8,8.2-25.7,12.4-38.5c1.1-3.5-0.1-7.3-3.1-9.5c-10.9-8-21.7-15.9-32.6-23.9c-1-0.7-1.4-2-1-3.2   c0.4-1.2,1.5-2,2.7-2C29.1,59.1,42.5,59,56,59c3.7,0,6.9-2.4,8-5.8c4.2-12.8,8.4-25.6,12.6-38.4c0.4-1.2,1.5-1.9,2.7-1.9   c1.2,0,2.3,0.8,2.7,1.9c4.2,12.8,8.4,25.6,12.6,38.4c1.1,3.5,4.4,5.8,8,5.8c13.5,0,26.9,0.1,40.4,0.1c1.2,0,2.3,0.8,2.7,2   C146.2,62.2,145.8,63.5,144.8,64.2z" style="fill:#000000;fill-opacity:0.23749587;"/></svg>