<svg id="Layer_1" style="enable-background:new 0 0 158.7 158.7;" version="1.1" viewBox="0 0 158.7 158.7" x="0px" xml:space="preserve" xmlns="http://www.w3.org/2000/svg" xmlns:xlink="http://www.w3.org/1999/xlink" y="0px"><path d="M112.5,74.9c-2.9-3.8-6-7.4-9.4-10.8c-3.7,5-7.9,9.7-12.5,13.9C98,77.8,105.3,76.8,112.5,74.9z" style="fill:#724313;fill-opacity:0.6326426;"/><path d="M82.6,80.8c-8.6-0.6-17-2.3-25.1-5.2C57,81.8,57.2,88,58.1,94.1C66.9,90.9,75.2,86.4,82.6,80.8z" style="fill:#724313;fill-opacity:0.6326426;"/><path d="M154.7,54.3c4.8,14.3,5.4,29.7,1.7,44.3c-3.6,14.6-11.4,27.9-22.3,38.3c1.2-21.4-4.7-42.6-16.7-60.3  C131.3,72.1,144.1,64.5,154.7,54.3z" style="fill:#724313;fill-opacity:0.6326426;"/><path d="M103.6,155c5.6-1.8,11-4.2,16.1-7.2c-1.2-11.7-8.3-22-18.9-27.3c-10.5-5.3-23-4.8-33.1,1.2  C75.9,136.2,88.5,147.9,103.6,155z" style="fill:#6E3203;fill-opacity:0.6326426;"/><path d="M2.5,99.2c17.5,4.7,36,4.3,53.3-1.1c1.5,7.9,4.2,15.5,8,22.7c-10.2,7.2-16.2,19-15.9,31.5  C25.4,142.5,8.6,122.9,2.5,99.2z" style="fill:#001B64;fill-opacity:0.6326426;"/><path d="M12.5,36.6C22.2,21.4,36.8,10,53.8,4.2s35.5-5.6,52.4,0.4c-16.5,6.7-30.4,18.6-39.7,33.7  C49,32.7,30.3,32.1,12.5,36.6z" style="fill:#673244;fill-opacity:0.6326426;"/><path d="M114.3,77.5c-8.8,2.5-18,3.6-27.2,3.5c-8.5,7-18.2,12.4-28.5,16.1c1.5,7.7,4,15.1,7.6,22  c10.8-6.4,24-7,35.3-1.5c11.3,5.4,19.1,16.1,20.9,28.5c3-1.9,5.8-4,8.4-6.3C132.8,117.7,126.9,95.7,114.3,77.5z" style="fill:#673244;fill-opacity:0.6326426;"/><path d="M118.5,10.3c-2.7-1.5-5.4-2.9-8.3-4.1c-17,6.2-31.4,17.8-40.9,33.1c12.3,4.4,23.7,11.3,33.3,20.2  C112.6,45,118.1,27.9,118.5,10.3z" style="fill:#6D1646;fill-opacity:0.6326426;"/><path d="M57.8,72.5c9.1,3.3,18.7,5.1,28.3,5.4c5.6-4.7,10.6-10,14.8-15.9c-9.5-8.9-20.8-15.7-33.1-20  C62.5,51.4,59,61.8,57.8,72.5z" style="fill:#4B092C;fill-opacity:0.6326426;"/><path d="M153.6,51.2c-10.6,10.6-23.7,18.5-38,22.8c-3.2-4.4-6.7-8.5-10.7-12.4C115,47,120.7,29.8,121.5,12.1  C136.1,21.3,147.4,35,153.6,51.2z" style="fill:#4B092C;fill-opacity:0.6326426;"/><path d="M50.9,153.5c15.5,5.9,32.4,6.9,48.5,2.7c-14.3-7.4-26.2-18.8-34.2-32.8  C55.6,130.3,50.2,141.6,50.9,153.5z" style="fill:#394A2A;fill-opacity:0.6326426;"/><path d="M14.1,39.2c10.2,14.4,24.3,25.6,40.8,32.2c1.4-10.7,4.8-21,10.1-30.4C48.5,35.8,30.9,35.2,14.1,39.2z  " style="fill:#00461C;fill-opacity:0.6326426;"/><path d="M11.1,40c-0.2,0.1-0.5,0.1-0.7,0.2C0.8,57.1-2.3,76.9,1.7,95.9c17.5,5.1,36.2,4.8,53.5-0.8  c-1.1-6.8-1.3-13.7-0.7-20.5C36.9,67.6,21.8,55.6,11.1,40z" style="fill:#586128;fill-opacity:0.6326426;"/><svg id="Layer_1" style="enable-background:new 0 0 158.7 158.7;" version="1.1" viewBox="0 0 158.7 158.7" x="0px" xml:space="preserve" xmlns="http://www.w3.org/2000/svg" xmlns:xlink="http://www.w3.org/1999/xlink" y="0px"><svg id="Layer_1" style="enable-background:new 0 0 158.7 158.7;" version="1.1" viewBox="0 0 158.7 158.7" x="0px" xml:space="preserve" xmlns="http://www.w3.org/2000/svg" xmlns:xlink="http://www.w3.org/1999/xlink" y="0px"><path d="M112.5,74.9c-2.9-3.8-6-7.4-9.4-10.8c-3.7,5-7.9,9.7-12.5,13.9C98,77.8,105.3,76.8,112.5,74.9z" style="fill:#724313;fill-opacity:0.6326426;"/><path d="M82.6,80.8c-8.6-0.6-17-2.3-25.1-5.2C57,81.8,57.2,88,58.1,94.1C66.9,90.9,75.2,86.4,82.6,80.8z" style="fill:#724313;fill-opacity:0.6326426;"/><path d="M154.7,54.3c4.8,14.3,5.4,29.7,1.7,44.3c-3.6,14.6-11.4,27.9-22.3,38.3c1.2-21.4-4.7-42.6-16.7-60.3  C131.3,72.1,144.1,64.5,154.7,54.3z" style="fill:#724313;fill-opacity:0.6326426;"/><path d="M103.6,155c5.6-1.8,11-4.2,16.1-7.2c-1.2-11.7-8.3-22-18.9-27.3c-10.5-5.3-23-4.8-33.1,1.2  C75.9,136.2,88.5,147.9,103.6,155z" style="fill:#6E3203;fill-opacity:0.6326426;"/><path d="M2.5,99.2c17.5,4.7,36,4.3,53.3-1.1c1.5,7.9,4.2,15.5,8,22.7c-10.2,7.2-16.2,19-15.9,31.5  C25.4,142.5,8.6,122.9,2.5,99.2z" style="fill:#001B64;fill-opacity:0.6326426;"/><path d="M12.5,36.6C22.2,21.4,36.8,10,53.8,4.2s35.5-5.6,52.4,0.4c-16.5,6.7-30.4,18.6-39.7,33.7  C49,32.7,30.3,32.1,12.5,36.6z" style="fill:#673244;fill-opacity:0.6326426;"/><path d="M114.3,77.5c-8.8,2.5-18,3.6-27.2,3.5c-8.5,7-18.2,12.4-28.5,16.1c1.5,7.7,4,15.1,7.6,22  c10.8-6.4,24-7,35.3-1.5c11.3,5.4,19.1,16.1,20.9,28.5c3-1.9,5.8-4,8.4-6.3C132.8,117.7,126.9,95.7,114.3,77.5z" style="fill:#673244;fill-opacity:0.6326426;"/><path d="M118.5,10.3c-2.7-1.5-5.4-2.9-8.3-4.1c-17,6.2-31.4,17.8-40.9,33.1c12.3,4.4,23.7,11.3,33.3,20.2  C112.6,45,118.1,27.9,118.5,10.3z" style="fill:#6D1646;fill-opacity:0.6326426;"/><path d="M57.8,72.5c9.1,3.3,18.7,5.1,28.3,5.4c5.6-4.7,10.6-10,14.8-15.9c-9.5-8.9-20.8-15.7-33.1-20  C62.5,51.4,59,61.8,57.8,72.5z" style="fill:#4B092C;fill-opacity:0.6326426;"/><path d="M153.6,51.2c-10.6,10.6-23.7,18.5-38,22.8c-3.2-4.4-6.7-8.5-10.7-12.4C115,47,120.7,29.8,121.5,12.1  C136.1,21.3,147.4,35,153.6,51.2z" style="fill:#4B092C;fill-opacity:0.6326426;"/><path d="M50.9,153.5c15.5,5.9,32.4,6.9,48.5,2.7c-14.3-7.4-26.2-18.8-34.2-32.8  C55.6,130.3,50.2,141.6,50.9,153.5z" style="fill:#394A2A;fill-opacity:0.6326426;"/><path d="M14.1,39.2c10.2,14.4,24.3,25.6,40.8,32.2c1.4-10.7,4.8-21,10.1-30.4C48.5,35.8,30.9,35.2,14.1,39.2z  " style="fill:#00461C;fill-opacity:0.6326426;"/><path d="M11.1,40c-0.2,0.1-0.5,0.1-0.7,0.2C0.8,57.1-2.3,76.9,1.7,95.9c17.5,5.1,36.2,4.8,53.5-0.8  c-1.1-6.8-1.3-13.7-0.7-20.5C36.9,67.6,21.8,55.6,11.1,40z" style="fill:#586128;fill-opacity:0.6326426;"/><svg id="Layer_1" style="enable-background:new 0 0 158.7 158.7;" version="1.1" viewBox="0 0 158.7 158.7" x="0px" xml:space="preserve" xmlns="http://www.w3.org/2000/svg" xmlns:xlink="http://www.w3.org/1999/xlink" y="0px"/></svg><svg id="Layer_1" style="enable-background:new 0 0 158.7 158.7;" version="1.1" viewBox="0 0 158.7 158.7" x="0px" xml:space="preserve" xmlns="http://www.w3.org/2000/svg" xmlns:xlink="http://www.w3.org/1999/xlink" y="0px"><path d="M57.9,155.8c27.2,7.6,56.4,0.3,76.7-19.4c-11.4-10.2-18.3-14.2-27.4-16  C91.7,117.3,69.7,120.4,57.9,155.8z" style="fill:#FFB1A8;fill-opacity:0.36735755;"/><path d="M128,16.7C115.7,7.1,100.8,1.4,85.2,0.2C69.6-0.9,54,2.5,40.4,10.2S15.7,29.4,8.6,43.3  S-1.3,73,0.5,88.5c0.5-1.6,1.1-3.3,1.7-4.9c0.7-1.9,1.3-3.8,2-5.7c0.6-1.8,1.3-3.5,2-5.3c0.6-1.6,1.3-3.2,2-4.9  c1.2-2.9,2.5-5.7,3.9-8.5c0.6-1.2,1.2-2.5,1.9-3.7c0.6-1.1,1.2-2.3,1.9-3.4c0.7-1.1,1.3-2.3,2.1-3.4c1.1-1.8,2.3-3.5,3.6-5.1  c1.1-1.4,2.3-2.8,3.5-4.1c1.1-1.1,2.2-2.2,3.4-3.2c1.1-0.9,2.2-1.7,3.3-2.4c1-0.7,2.1-1.3,3.2-1.8c1-0.5,2-0.9,3-1.3  c0.5-0.2,0.9-0.4,1.4-0.5c0.7-0.3,1.4-0.5,2.1-0.8c1.6-0.5,3.2-1,4.9-1.4c1.5-0.4,3-0.6,4.5-0.8c1.4-0.2,2.8-0.3,4.2-0.3  c0.7,0,1.4,0,2,0.1c0.7,0,1.3,0.1,2,0.2c1.3,0.2,2.6,0.4,3.9,0.7c1.3,0.3,2.6,0.7,3.8,1.1c0.6,0.2,1.3,0.4,1.9,0.7  c0.7,0.2,1.3,0.5,2,0.7c1.4,0.5,2.8,1.1,4.2,1.6c0.7,0.3,1.4,0.5,2.1,0.7s1.4,0.5,2.1,0.7s1.5,0.4,2.2,0.6c0.8,0.2,1.6,0.3,2.4,0.4  c0.8,0.1,1.7,0.2,2.5,0.3c0.9,0.1,1.8,0.1,2.7,0.1c1,0,1.9-0.1,2.9-0.2c1.1-0.1,2.1-0.3,3.1-0.4c1.1-0.2,2.3-0.5,3.4-0.8  c1.2-0.3,2.4-0.7,3.6-1.1c1.3-0.5,2.6-1,3.9-1.5c0.7-0.3,1.4-0.6,2.1-0.9s1.5-0.7,2.2-1c1.5-0.8,3.1-1.6,4.5-2.4  c1.6-0.9,3.2-1.9,4.7-3c1.7-1.1,3.3-2.4,4.9-3.6C125.7,18.7,126.9,17.7,128,16.7z" style="fill:#FFB1A8;fill-opacity:0.36735755;"/><path d="M154,52.4c-2.4-6.7-5.8-13.1-9.9-19c-1.8,1.8-3.7,3.5-5.6,5.2c-3.7,3.1-7.7,5.8-12.1,8.1  c-0.2,0.1-0.3,0.2-0.5,0.3c-3.5,1.8-7.1,3.4-10.9,4.7c-2.4,0.8-4.8,1.5-7.3,2c-0.7,0.2-1.4,0.3-2.1,0.4c-4.4,0.8-8.8,1.1-13.4,0.6  c-0.4,0-0.9-0.1-1.3-0.2c-3.8-0.5-7.3-1.6-10.9-2.9c-2.9-1-5.8-2.1-8.8-2.9c-4.7-1.2-8.9-1.2-13.3-0.5c-1.5,0.3-3.1,0.6-4.6,1.1  c-1.9,0.5-3.7,1.2-5.5,1.9c-2.3,0.9-4.4,2.1-6.3,3.5c-2.8,2-5.1,4.4-7.2,7c-2.2,2.6-4.1,5.4-5.8,8.3c-0.8,1.4-1.6,2.8-2.4,4.2  C19.6,86.3,14.2,102,9.9,117.4c2.4,4.3,5.1,8.3,8.2,12.1c1-3.6,2.1-7.2,3.2-10.8c0.7-2.1,1.4-4.2,2.1-6.3c0.7-2.1,1.5-4.1,2.2-6.2  c0.8-2,1.6-4,2.4-6c0.8-1.9,1.7-3.8,2.6-5.7c0.9-1.8,1.8-3.6,2.8-5.4c0.7-1.3,1.5-2.6,2.2-3.8c0.9-1.5,1.8-2.9,2.8-4.3  c0.7-1,1.4-1.9,2.1-2.8c0.7-0.9,1.5-1.8,2.3-2.7c0.8-0.9,1.6-1.7,2.5-2.5s1.8-1.6,2.7-2.3c0.5-0.4,1-0.7,1.5-1.1  c0.4-0.3,0.8-0.5,1.1-0.8c0.7-0.5,1.5-0.9,2.3-1.3s1.6-0.8,2.4-1.1c0.4-0.2,0.7-0.3,1.1-0.5c0.3-0.1,0.6-0.3,1-0.4  c1.3-0.5,2.6-0.9,3.9-1.3c1.1-0.3,2.2-0.6,3.3-0.8c1.4-0.3,2.8-0.5,4.2-0.7c0.8-0.1,1.6-0.1,2.4-0.1s1.6,0,2.5,0  c1.7,0.1,3.4,0.3,5,0.6c1,0.2,2,0.4,3,0.7s2.1,0.6,3.1,0.9c1.1,0.3,2.1,0.7,3.2,1c1.2,0.4,2.4,0.8,3.5,1.1c1.2,0.3,2.3,0.7,3.5,1  c0.6,0.1,1.2,0.3,1.7,0.4c0.3,0.1,0.6,0.1,1,0.2c0.3,0.1,0.5,0.1,0.8,0.1c0.8,0.1,1.5,0.3,2.3,0.4c1.4,0.2,2.8,0.3,4.1,0.4  c1.4,0.1,2.7,0.1,4.1,0c0.5,0,1,0,1.6-0.1c0.4,0,0.9,0,1.3-0.1c1.5-0.1,3-0.3,4.5-0.4c0.9-0.1,1.7-0.2,2.6-0.4  c1.2-0.2,2.3-0.4,3.5-0.6c1.1-0.2,2.2-0.5,3.3-0.8c0.5-0.1,1.1-0.3,1.6-0.4c0.1,0,0.1,0,0.2-0.1c0.1,0,0.2-0.1,0.3-0.1  c1-0.3,2-0.6,3-0.9c1.3-0.4,2.6-0.9,3.9-1.4c1.2-0.5,2.5-1.1,3.7-1.6c0.7-0.4,1.5-0.7,2.2-1.1c0.7-0.4,1.5-0.8,2.2-1.2  c1.4-0.8,2.8-1.6,4.1-2.5c0.5-0.4,1.1-0.7,1.6-1.1c0.5-0.4,1-0.7,1.5-1.1c0,0,0,0,0.1-0.1c0,0,0,0,0.1-0.1c0.6-0.4,1.1-0.8,1.6-1.3  c0.5-0.4,1.1-0.9,1.6-1.3C153.6,52.7,153.8,52.6,154,52.4z" style="fill:#FFE69F;fill-opacity:0.36735755;"/><path d="M134.5,112.2c3.1,1.2,6.2,2.5,9.3,3.7c1.7,0.6,3.3,1.3,5,1.9c4.9-8.9,8.1-18.6,9.3-28.7  c-1.7,0.5-3.5,0.9-5.4,1.3h-0.1c-3.5,0.7-7.2,1.2-11.3,1.6c-3.2,0.3-6.5,0.4-10,0.3c-0.1,0-0.3,0-0.4,0c-2.8,0-5.7-0.2-8.7-0.5  c-1.9-0.2-3.8-0.4-5.7-0.6c-0.6-0.1-1.1-0.1-1.7-0.2c-3.4-0.5-7-1.1-10.7-2c-0.3-0.1-0.7-0.2-1-0.3c-3-0.8-6.1-1.7-9.2-2.6  c-2.5-0.7-5-1.4-7.6-1.9c-4-0.7-7.8-0.7-11.6,0c-1.3,0.2-2.6,0.5-3.9,0.9c-1.6,0.4-3.1,1-4.6,1.6c-1.9,0.8-3.6,1.7-5.3,2.8  c-2.3,1.5-4.4,3.3-6.3,5.3c-1.9,2-3.7,4.2-5.3,6.5c-0.8,1.1-1.5,2.2-2.2,3.3C40.5,115.4,35.6,129.5,32,143c3.1,2.3,6.4,4.4,9.8,6.2  v-0.1c0.6-2.2,1.3-4.3,2-6.5c0.8-2.4,1.6-4.8,2.5-7.1s1.9-4.6,3-6.9c1-2.2,2.2-4.4,3.4-6.5c0.6-1,1.2-2.1,1.9-3.1  c0.4-0.6,0.7-1.1,1.1-1.6c0.9-1.3,1.9-2.7,3-3.9c0.9-1.1,1.8-2.1,2.8-3.1c0.5-0.5,1-1,1.5-1.5s1-0.9,1.6-1.4  c1.1-0.9,2.2-1.8,3.3-2.6c0.5-0.4,1.1-0.7,1.7-1.1c0.4-0.3,0.9-0.5,1.3-0.8c0.9-0.5,1.8-0.9,2.8-1.3c0.4-0.2,0.9-0.4,1.3-0.5  s0.8-0.3,1.1-0.4c0.8-0.3,1.5-0.5,2.3-0.7c0.7-0.2,1.4-0.4,2.1-0.5c0.7-0.2,1.3-0.3,2-0.4c1.9-0.3,3.8-0.5,5.7-0.6  c2.1,0,4.1,0.1,6.2,0.3c1.3,0.2,2.6,0.4,3.9,0.7c0.6,0.1,1.3,0.3,1.9,0.4c0.7,0.2,1.3,0.3,2,0.5c1.5,0.4,3,0.8,4.5,1.3  c0.7,0.2,1.5,0.5,2.2,0.7c0.4,0.1,0.8,0.3,1.3,0.4c0.2,0.1,0.3,0.1,0.5,0.2c0.1,0,0.2,0.1,0.2,0.1c0.6,0.2,1.2,0.4,1.8,0.6  c1.7,0.6,3.3,1.2,5,1.8c0.8,0.3,1.6,0.6,2.4,0.9c0.2,0.1,0.4,0.2,0.6,0.2c0.3,0.1,0.5,0.2,0.8,0.3c0.6,0.2,1.2,0.5,1.8,0.7  c0.9,0.3,1.8,0.7,2.6,1c0.5,0.2,1,0.4,1.5,0.6c0.7,0.3,1.4,0.5,2,0.8C131.2,110.8,132.9,111.5,134.5,112.2z" style="fill:#8EB6A0;fill-opacity:0.36735755;"/><path d="M142.3,31c-3.5-4.6-7.5-8.7-11.9-12.4c-6.9,6.3-13.8,10.5-19.8,13.4C89.2,42.1,78,36.2,68.9,32.8  c-9-3.4-15.9-4.4-28.1,0C31,36.3,17.6,43.4,1.6,95.1c1.3,6.4,3.4,12.7,6.2,18.6c1-3.4,2-6.7,3.1-10.1c0.9-2.7,1.8-5.4,2.7-8  s1.9-5.2,3-7.8c1-2.5,2.1-5,3.2-7.4c1.1-2.3,2.2-4.6,3.4-6.9c0.4-0.7,0.8-1.5,1.2-2.2c0.9-1.6,1.8-3.2,2.8-4.8  c0.8-1.3,1.7-2.5,2.5-3.7c0.8-1.1,1.6-2.2,2.5-3.2c1-1.2,2-2.3,3.1-3.4c1.1-1.1,2.3-2.1,3.5-3.1c0.3-0.2,0.6-0.5,0.9-0.7  c0.5-0.3,0.9-0.7,1.4-1c0.9-0.6,1.9-1.2,2.9-1.7c0.5-0.3,1-0.5,1.5-0.7c0.3-0.1,0.5-0.2,0.8-0.3c0.2-0.1,0.5-0.2,0.7-0.3  c0.8-0.3,1.6-0.6,2.5-0.9c0.8-0.3,1.7-0.6,2.5-0.8c0.4-0.1,0.8-0.2,1.1-0.3s0.7-0.2,1-0.3c0.7-0.2,1.4-0.3,2.1-0.5  c0.8-0.2,1.7-0.3,2.5-0.4c1-0.1,2-0.2,3-0.3s2-0.1,3,0c1,0,2.1,0.1,3.1,0.3c1.1,0.1,2.1,0.3,3.2,0.6c0.8,0.2,1.6,0.4,2.4,0.6  c0.7,0.2,1.3,0.4,2,0.6c1.3,0.4,2.5,0.9,3.8,1.3c0.8,0.3,1.6,0.6,2.4,0.8c0.7,0.3,1.5,0.5,2.2,0.7c1.4,0.5,2.9,0.9,4.4,1.2  c0.7,0.2,1.5,0.3,2.2,0.4c0.4,0.1,0.9,0.1,1.3,0.2c0.5,0.1,0.9,0.1,1.4,0.2c0.9,0.1,1.8,0.2,2.7,0.2c0.9,0,1.8,0,2.7,0  c1.8-0.1,3.5-0.2,5.3-0.5c0.9-0.1,1.8-0.3,2.7-0.5c0.3-0.1,0.7-0.1,1-0.2c1-0.2,2-0.5,3-0.8s2-0.6,2.9-0.9c0.6-0.2,1.3-0.4,1.9-0.6  c0.8-0.3,1.5-0.6,2.3-0.8c1.5-0.6,3-1.2,4.4-1.9c0.7-0.3,1.4-0.7,2.1-1.1c0.2-0.1,0.4-0.2,0.6-0.3s0.3-0.2,0.5-0.3  c1.8-0.9,3.5-2,5.1-3.1s3.2-2.2,4.8-3.4c0.8-0.7,1.7-1.4,2.5-2.1c0.9-0.8,1.9-1.7,2.8-2.5C141,32.3,141.6,31.7,142.3,31z" style="fill:#85B2B4;fill-opacity:0.36735755;"/><path d="M158.5,85.9c0.9-10.3-0.3-20.7-3.4-30.5c-1,0.9-2.1,1.7-3.1,2.5c0,0-0.1,0-0.1,0.1  c-3.6,2.7-7.5,5.1-11.9,7.3c-3.4,1.7-7.1,3.1-11,4.2c-0.2,0-0.3,0.1-0.5,0.1c-3.1,0.9-6.4,1.6-9.8,2.1c-2.1,0.3-4.3,0.6-6.5,0.7  c-0.6,0-1.3,0.1-1.9,0.1c-3.9,0.2-7.9,0-12-0.7c-0.4-0.1-0.8-0.1-1.2-0.2c-3.4-0.7-6.7-1.7-10-2.8c-2.7-0.9-5.4-1.8-8.2-2.4  c-4.4-0.9-8.4-1-12.4-0.2c-1.4,0.2-2.8,0.6-4.3,1c-1.7,0.5-3.4,1.1-5,1.7c-2.1,0.8-4,1.9-5.8,3.2c-2.5,1.8-4.7,3.8-6.8,6.2  c-2.1,2.3-3.9,4.8-5.6,7.4c-0.8,1.2-1.5,2.5-2.3,3.7c-6.9,12-12.3,27.8-16.3,42.9c2.8,3.1,5.9,6,9.1,8.7c0.9-3.4,1.9-6.7,2.9-10  c0.6-1.8,1.2-3.6,1.8-5.4c1.3-3.6,2.6-7.1,4.2-10.5c0.7-1.7,1.5-3.3,2.3-5c0.8-1.6,1.6-3.2,2.5-4.7c0.4-0.8,0.9-1.5,1.3-2.3  c0.1-0.2,0.3-0.5,0.4-0.7c0.3-0.4,0.5-0.8,0.8-1.2c0.7-1.1,1.5-2.2,2.3-3.3c1.2-1.7,2.6-3.3,4-4.8c0.7-0.8,1.4-1.5,2.2-2.2  s1.6-1.4,2.4-2.1c0.8-0.7,1.7-1.3,2.6-1.9c0.7-0.4,1.3-0.8,2-1.2c1.3-0.7,2.7-1.4,4.1-2c1.1-0.5,2.3-0.9,3.4-1.2  c0.6-0.2,1.1-0.3,1.7-0.5c0.5-0.1,1-0.3,1.5-0.4s1-0.2,1.5-0.3c0.6-0.1,1.2-0.2,1.8-0.3c1.4-0.2,2.9-0.3,4.4-0.4c1.5,0,3,0,4.5,0.2  c0.8,0.1,1.5,0.2,2.3,0.3c0.9,0.1,1.8,0.3,2.7,0.5c0.9,0.2,1.9,0.4,2.8,0.7c0.9,0.2,1.8,0.5,2.7,0.8c1.2,0.4,2.5,0.7,3.7,1.1  c1.1,0.3,2.1,0.6,3.2,0.9c0.5,0.1,1.1,0.3,1.6,0.4c0.3,0.1,0.6,0.1,0.9,0.2c0.1,0,0.2,0.1,0.4,0.1c0.7,0.2,1.4,0.3,2.1,0.5  c1.2,0.3,2.5,0.5,3.7,0.8c1.2,0.2,2.4,0.4,3.6,0.6c0.5,0.1,1.1,0.2,1.6,0.2c0.1,0,0.2,0,0.3,0c0.2,0,0.4,0.1,0.6,0.1  s0.4,0.1,0.6,0.1c0.5,0.1,1.1,0.1,1.6,0.2c1.3,0.2,2.6,0.3,3.9,0.4c2,0.2,4,0.3,5.9,0.4c0.9,0,1.8,0.1,2.7,0.1c0.1,0,0.2,0,0.3,0  c0.8,0,1.6,0,2.4,0c1.2,0,2.3,0,3.5-0.1c1.1,0,2.2-0.1,3.3-0.2c0.3,0,0.6,0,0.9-0.1c0.3,0,0.7-0.1,1-0.1c0.7-0.1,1.4-0.1,2-0.2  c2.5-0.3,5.1-0.7,7.5-1.2c0.3-0.1,0.6-0.1,0.9-0.2c1-0.2,2.1-0.5,3.1-0.7C156.7,86.4,157.6,86.2,158.5,85.9z" style="fill:#7866FD;fill-opacity:0.36735755;"/><path d="M136.7,134.3c4-4.2,7.6-8.9,10.6-13.9c-1.5-0.6-3-1.2-4.5-1.8c-2.9-1.1-5.9-2.3-9-3.6  c-0.1,0-0.2-0.1-0.4-0.1c-2.5-1-5-2-7.6-3c-1.6-0.6-3.3-1.3-5-1.9c-0.5-0.2-1-0.4-1.4-0.5c-3-1.1-6-2.2-9.3-3.3  c-0.3-0.1-0.6-0.2-0.9-0.3c-2.7-0.9-5.5-1.7-8.3-2.5c-2.3-0.6-4.6-1.1-7-1.4c-3.7-0.5-7.3-0.4-10.7,0.2c-1.2,0.2-2.4,0.5-3.6,0.8  c-1.4,0.4-2.8,0.8-4.1,1.4c-1.7,0.7-3.2,1.5-4.8,2.4c-2.1,1.3-4,2.8-5.8,4.5c-1.8,1.7-3.5,3.6-5.1,5.6c-0.7,0.9-1.4,1.9-2.1,2.9  c-6,8.8-10.2,19.9-13.3,31c3.4,1.7,6.9,3.1,10.5,4.2c0.2-0.5,0.3-0.9,0.5-1.4c0.8-2.2,1.6-4.4,2.5-6.5c0.8-2,1.8-3.9,2.8-5.8  c0.9-1.7,1.9-3.4,3-5.1c1-1.5,2.1-3,3.2-4.4c1.1-1.3,2.2-2.6,3.4-3.8c1.1-1.1,2.3-2.2,3.5-3.2c1.2-0.9,2.4-1.8,3.7-2.6  c1.2-0.8,2.5-1.4,3.7-2.1c1.2-0.6,2.5-1.1,3.8-1.6c1.2-0.4,2.5-0.8,3.8-1.1c1.2-0.3,2.5-0.5,3.8-0.7c2.4-0.3,4.9-0.4,7.3-0.3  c2.3,0.1,4.5,0.4,6.8,0.8c1.1,0.2,2.1,0.4,3.2,0.7c1,0.3,2,0.5,3.1,0.9c1,0.3,2,0.7,3,1.1s2,0.9,3,1.4s2,1.1,3,1.6  c1,0.6,2,1.3,3,1.9c1.1,0.7,2.1,1.5,3.2,2.3c1.1,0.9,2.2,1.7,3.3,2.6c1.2,1,2.4,2,3.6,3C135.6,133.3,136.2,133.8,136.7,134.3z" style="fill:#FF93C7;fill-opacity:0.36735755;"/></svg><svg style="enable-background:new 0 0 158.7 159.6;" version="1.1" viewBox="0 0 158.7 159.6" x="0px" xml:space="preserve" xmlns="http://www.w3.org/2000/svg" xmlns:xlink="http://www.w3.org/1999/xlink" y="0px"><path d="M79.4,0C35.5,0,0,35.7,0,79.8c0,44.1,35.5,79.8,79.4,79.8c43.8,0,79.4-35.7,79.4-79.8C158.7,35.7,123.2,0,79.4,0z    M144.8,64.2c-10.9,8-21.7,15.9-32.6,23.9c-3,2.2-4.2,6-3.1,9.5c4.1,12.8,8.2,25.7,12.4,38.5c0.4,1.2,0,2.4-1,3.2   c-1,0.7-2.3,0.7-3.3,0c-10.9-7.9-21.8-15.8-32.8-23.6c-3-2.1-7-2.1-10,0c-10.9,7.9-21.8,15.8-32.8,23.6c-1,0.7-2.3,0.7-3.3,0   c-1-0.7-1.4-2-1-3.2c4.1-12.8,8.2-25.7,12.4-38.5c1.1-3.5-0.1-7.3-3.1-9.5c-10.9-8-21.7-15.9-32.6-23.9c-1-0.7-1.4-2-1-3.2   c0.4-1.2,1.5-2,2.7-2C29.1,59.1,42.5,59,56,59c3.7,0,6.9-2.4,8-5.8c4.2-12.8,8.4-25.6,12.6-38.4c0.4-1.2,1.5-1.9,2.7-1.9   c1.2,0,2.3,0.8,2.7,1.9c4.2,12.8,8.4,25.6,12.6,38.4c1.1,3.5,4.4,5.8,8,5.8c13.5,0,26.9,0.1,40.4,0.1c1.2,0,2.3,0.8,2.7,2   C146.2,62.2,145.8,63.5,144.8,64.2z" style="fill:#000000;fill-opacity:0.018138586;"/></svg><svg id="Layer_1" style="enable-background:new 0 0 158.7 158.7;" version="1.1" viewBox="0 0 158.7 158.7" x="0px" xml:space="preserve" xmlns="http://www.w3.org/2000/svg" xmlns:xlink="http://www.w3.org/1999/xlink" y="0px"><svg id="Layer_1" style="enable-background:new 0 0 158.7 158.7;" version="1.1" viewBox="0 0 158.7 158.7" x="0px" xml:space="preserve" xmlns="http://www.w3.org/2000/svg" xmlns:xlink="http://www.w3.org/1999/xlink" y="0px"><path d="M112.5,74.9c-2.9-3.8-6-7.4-9.4-10.8c-3.7,5-7.9,9.7-12.5,13.9C98,77.8,105.3,76.8,112.5,74.9z" style="fill:#724313;fill-opacity:0.6326426;"/><path d="M82.6,80.8c-8.6-0.6-17-2.3-25.1-5.2C57,81.8,57.2,88,58.1,94.1C66.9,90.9,75.2,86.4,82.6,80.8z" style="fill:#724313;fill-opacity:0.6326426;"/><path d="M154.7,54.3c4.8,14.3,5.4,29.7,1.7,44.3c-3.6,14.6-11.4,27.9-22.3,38.3c1.2-21.4-4.7-42.6-16.7-60.3  C131.3,72.1,144.1,64.5,154.7,54.3z" style="fill:#724313;fill-opacity:0.6326426;"/><path d="M103.6,155c5.6-1.8,11-4.2,16.1-7.2c-1.2-11.7-8.3-22-18.9-27.3c-10.5-5.3-23-4.8-33.1,1.2  C75.9,136.2,88.5,147.9,103.6,155z" style="fill:#6E3203;fill-opacity:0.6326426;"/><path d="M2.5,99.2c17.5,4.7,36,4.3,53.3-1.1c1.5,7.9,4.2,15.5,8,22.7c-10.2,7.2-16.2,19-15.9,31.5  C25.4,142.5,8.6,122.9,2.5,99.2z" style="fill:#001B64;fill-opacity:0.6326426;"/><path d="M12.5,36.6C22.2,21.4,36.8,10,53.8,4.2s35.5-5.6,52.4,0.4c-16.5,6.7-30.4,18.6-39.7,33.7  C49,32.7,30.3,32.1,12.5,36.6z" style="fill:#673244;fill-opacity:0.6326426;"/><path d="M114.3,77.5c-8.8,2.5-18,3.6-27.2,3.5c-8.5,7-18.2,12.4-28.5,16.1c1.5,7.7,4,15.1,7.6,22  c10.8-6.4,24-7,35.3-1.5c11.3,5.4,19.1,16.1,20.9,28.5c3-1.9,5.8-4,8.4-6.3C132.8,117.7,126.9,95.7,114.3,77.5z" style="fill:#673244;fill-opacity:0.6326426;"/><path d="M118.5,10.3c-2.7-1.5-5.4-2.9-8.3-4.1c-17,6.2-31.4,17.8-40.9,33.1c12.3,4.4,23.7,11.3,33.3,20.2  C112.6,45,118.1,27.9,118.5,10.3z" style="fill:#6D1646;fill-opacity:0.6326426;"/><path d="M57.8,72.5c9.1,3.3,18.7,5.1,28.3,5.4c5.6-4.7,10.6-10,14.8-15.9c-9.5-8.9-20.8-15.7-33.1-20  C62.5,51.4,59,61.8,57.8,72.5z" style="fill:#4B092C;fill-opacity:0.6326426;"/><path d="M153.6,51.2c-10.6,10.6-23.7,18.5-38,22.8c-3.2-4.4-6.7-8.5-10.7-12.4C115,47,120.7,29.8,121.5,12.1  C136.1,21.3,147.4,35,153.6,51.2z" style="fill:#4B092C;fill-opacity:0.6326426;"/><path d="M50.9,153.5c15.5,5.9,32.4,6.9,48.5,2.7c-14.3-7.4-26.2-18.8-34.2-32.8  C55.6,130.3,50.2,141.6,50.9,153.5z" style="fill:#394A2A;fill-opacity:0.6326426;"/><path d="M14.1,39.2c10.2,14.4,24.3,25.6,40.8,32.2c1.4-10.7,4.8-21,10.1-30.4C48.5,35.8,30.9,35.2,14.1,39.2z  " style="fill:#00461C;fill-opacity:0.6326426;"/><path d="M11.1,40c-0.2,0.1-0.5,0.1-0.7,0.2C0.8,57.1-2.3,76.9,1.7,95.9c17.5,5.1,36.2,4.8,53.5-0.8  c-1.1-6.8-1.3-13.7-0.7-20.5C36.9,67.6,21.8,55.6,11.1,40z" style="fill:#586128;fill-opacity:0.6326426;"/><svg id="Layer_1" style="enable-background:new 0 0 158.7 158.7;" version="1.1" viewBox="0 0 158.7 158.7" x="0px" xml:space="preserve" xmlns="http://www.w3.org/2000/svg" xmlns:xlink="http://www.w3.org/1999/xlink" y="0px"/></svg><svg id="Layer_1" style="enable-background:new 0 0 158.7 158.7;" version="1.1" viewBox="0 0 158.7 158.7" x="0px" xml:space="preserve" xmlns="http://www.w3.org/2000/svg" xmlns:xlink="http://www.w3.org/1999/xlink" y="0px"><path d="M57.9,155.8c27.2,7.6,56.4,0.3,76.7-19.4c-11.4-10.2-18.3-14.2-27.4-16  C91.7,117.3,69.7,120.4,57.9,155.8z" style="fill:#FFB1A8;fill-opacity:0.36735755;"/><path d="M128,16.7C115.7,7.1,100.8,1.4,85.2,0.2C69.6-0.9,54,2.5,40.4,10.2S15.7,29.4,8.6,43.3  S-1.3,73,0.5,88.5c0.5-1.6,1.1-3.3,1.7-4.9c0.7-1.9,1.3-3.8,2-5.7c0.6-1.8,1.3-3.5,2-5.3c0.6-1.6,1.3-3.2,2-4.9  c1.2-2.9,2.5-5.7,3.9-8.5c0.6-1.2,1.2-2.5,1.9-3.7c0.6-1.1,1.2-2.3,1.9-3.4c0.7-1.1,1.3-2.3,2.1-3.4c1.1-1.8,2.3-3.5,3.6-5.1  c1.1-1.4,2.3-2.8,3.5-4.1c1.1-1.1,2.2-2.2,3.4-3.2c1.1-0.9,2.2-1.7,3.3-2.4c1-0.7,2.1-1.3,3.2-1.8c1-0.5,2-0.9,3-1.3  c0.5-0.2,0.9-0.4,1.4-0.5c0.7-0.3,1.4-0.5,2.1-0.8c1.6-0.5,3.2-1,4.9-1.4c1.5-0.4,3-0.6,4.5-0.8c1.4-0.2,2.8-0.3,4.2-0.3  c0.7,0,1.4,0,2,0.1c0.7,0,1.3,0.1,2,0.2c1.3,0.2,2.6,0.4,3.9,0.7c1.3,0.3,2.6,0.7,3.8,1.1c0.6,0.2,1.3,0.4,1.9,0.7  c0.7,0.2,1.3,0.5,2,0.7c1.4,0.5,2.8,1.1,4.2,1.6c0.7,0.3,1.4,0.5,2.1,0.7s1.4,0.5,2.1,0.7s1.5,0.4,2.2,0.6c0.8,0.2,1.6,0.3,2.4,0.4  c0.8,0.1,1.7,0.2,2.5,0.3c0.9,0.1,1.8,0.1,2.7,0.1c1,0,1.9-0.1,2.9-0.2c1.1-0.1,2.1-0.3,3.1-0.4c1.1-0.2,2.3-0.5,3.4-0.8  c1.2-0.3,2.4-0.7,3.6-1.1c1.3-0.5,2.6-1,3.9-1.5c0.7-0.3,1.4-0.6,2.1-0.9s1.5-0.7,2.2-1c1.5-0.8,3.1-1.6,4.5-2.4  c1.6-0.9,3.2-1.9,4.7-3c1.7-1.1,3.3-2.4,4.9-3.6C125.7,18.7,126.9,17.7,128,16.7z" style="fill:#FFB1A8;fill-opacity:0.36735755;"/><path d="M154,52.4c-2.4-6.7-5.8-13.1-9.9-19c-1.8,1.8-3.7,3.5-5.6,5.2c-3.7,3.1-7.7,5.8-12.1,8.1  c-0.2,0.1-0.3,0.2-0.5,0.3c-3.5,1.8-7.1,3.4-10.9,4.7c-2.4,0.8-4.8,1.5-7.3,2c-0.7,0.2-1.4,0.3-2.1,0.4c-4.4,0.8-8.8,1.1-13.4,0.6  c-0.4,0-0.9-0.1-1.3-0.2c-3.8-0.5-7.3-1.6-10.9-2.9c-2.9-1-5.8-2.1-8.8-2.9c-4.7-1.2-8.9-1.2-13.3-0.5c-1.5,0.3-3.1,0.6-4.6,1.1  c-1.9,0.5-3.7,1.2-5.5,1.9c-2.3,0.9-4.4,2.1-6.3,3.5c-2.8,2-5.1,4.4-7.2,7c-2.2,2.6-4.1,5.4-5.8,8.3c-0.8,1.4-1.6,2.8-2.4,4.2  C19.6,86.3,14.2,102,9.9,117.4c2.4,4.3,5.1,8.3,8.2,12.1c1-3.6,2.1-7.2,3.2-10.8c0.7-2.1,1.4-4.2,2.1-6.3c0.7-2.1,1.5-4.1,2.2-6.2  c0.8-2,1.6-4,2.4-6c0.8-1.9,1.7-3.8,2.6-5.7c0.9-1.8,1.8-3.6,2.8-5.4c0.7-1.3,1.5-2.6,2.2-3.8c0.9-1.5,1.8-2.9,2.8-4.3  c0.7-1,1.4-1.9,2.1-2.8c0.7-0.9,1.5-1.8,2.3-2.7c0.8-0.9,1.6-1.7,2.5-2.5s1.8-1.6,2.7-2.3c0.5-0.4,1-0.7,1.5-1.1  c0.4-0.3,0.8-0.5,1.1-0.8c0.7-0.5,1.5-0.9,2.3-1.3s1.6-0.8,2.4-1.1c0.4-0.2,0.7-0.3,1.1-0.5c0.3-0.1,0.6-0.3,1-0.4  c1.3-0.5,2.6-0.9,3.9-1.3c1.1-0.3,2.2-0.6,3.3-0.8c1.4-0.3,2.8-0.5,4.2-0.7c0.8-0.1,1.6-0.1,2.4-0.1s1.6,0,2.5,0  c1.7,0.1,3.4,0.3,5,0.6c1,0.2,2,0.4,3,0.7s2.1,0.6,3.1,0.9c1.1,0.3,2.1,0.7,3.2,1c1.2,0.4,2.4,0.8,3.5,1.1c1.2,0.3,2.3,0.7,3.5,1  c0.6,0.1,1.2,0.3,1.7,0.4c0.3,0.1,0.6,0.1,1,0.2c0.3,0.1,0.5,0.1,0.8,0.1c0.8,0.1,1.5,0.3,2.3,0.4c1.4,0.2,2.8,0.3,4.1,0.4  c1.4,0.1,2.7,0.1,4.1,0c0.5,0,1,0,1.6-0.1c0.4,0,0.9,0,1.3-0.1c1.5-0.1,3-0.3,4.5-0.4c0.9-0.1,1.7-0.2,2.6-0.4  c1.2-0.2,2.3-0.4,3.5-0.6c1.1-0.2,2.2-0.5,3.3-0.8c0.5-0.1,1.1-0.3,1.6-0.4c0.1,0,0.1,0,0.2-0.1c0.1,0,0.2-0.1,0.3-0.1  c1-0.3,2-0.6,3-0.9c1.3-0.4,2.6-0.9,3.9-1.4c1.2-0.5,2.5-1.1,3.7-1.6c0.7-0.4,1.5-0.7,2.2-1.1c0.7-0.4,1.5-0.8,2.2-1.2  c1.4-0.8,2.8-1.6,4.1-2.5c0.5-0.4,1.1-0.7,1.6-1.1c0.5-0.4,1-0.7,1.5-1.1c0,0,0,0,0.1-0.1c0,0,0,0,0.1-0.1c0.6-0.4,1.1-0.8,1.6-1.3  c0.5-0.4,1.1-0.9,1.6-1.3C153.6,52.7,153.8,52.6,154,52.4z" style="fill:#FFE69F;fill-opacity:0.36735755;"/><path d="M134.5,112.2c3.1,1.2,6.2,2.5,9.3,3.7c1.7,0.6,3.3,1.3,5,1.9c4.9-8.9,8.1-18.6,9.3-28.7  c-1.7,0.5-3.5,0.9-5.4,1.3h-0.1c-3.5,0.7-7.2,1.2-11.3,1.6c-3.2,0.3-6.5,0.4-10,0.3c-0.1,0-0.3,0-0.4,0c-2.8,0-5.7-0.2-8.7-0.5  c-1.9-0.2-3.8-0.4-5.7-0.6c-0.6-0.1-1.1-0.1-1.7-0.2c-3.4-0.5-7-1.1-10.7-2c-0.3-0.1-0.7-0.2-1-0.3c-3-0.8-6.1-1.7-9.2-2.6  c-2.5-0.7-5-1.4-7.6-1.9c-4-0.7-7.8-0.7-11.6,0c-1.3,0.2-2.6,0.5-3.9,0.9c-1.6,0.4-3.1,1-4.6,1.6c-1.9,0.8-3.6,1.7-5.3,2.8  c-2.3,1.5-4.4,3.3-6.3,5.3c-1.9,2-3.7,4.2-5.3,6.5c-0.8,1.1-1.5,2.2-2.2,3.3C40.5,115.4,35.6,129.5,32,143c3.1,2.3,6.4,4.4,9.8,6.2  v-0.1c0.6-2.2,1.3-4.3,2-6.5c0.8-2.4,1.6-4.8,2.5-7.1s1.9-4.6,3-6.9c1-2.2,2.2-4.4,3.4-6.5c0.6-1,1.2-2.1,1.9-3.1  c0.4-0.6,0.7-1.1,1.1-1.6c0.9-1.3,1.9-2.7,3-3.9c0.9-1.1,1.8-2.1,2.8-3.1c0.5-0.5,1-1,1.5-1.5s1-0.9,1.6-1.4  c1.1-0.9,2.2-1.8,3.3-2.6c0.5-0.4,1.1-0.7,1.7-1.1c0.4-0.3,0.9-0.5,1.3-0.8c0.9-0.5,1.8-0.9,2.8-1.3c0.4-0.2,0.9-0.4,1.3-0.5  s0.8-0.3,1.1-0.4c0.8-0.3,1.5-0.5,2.3-0.7c0.7-0.2,1.4-0.4,2.1-0.5c0.7-0.2,1.3-0.3,2-0.4c1.9-0.3,3.8-0.5,5.7-0.6  c2.1,0,4.1,0.1,6.2,0.3c1.3,0.2,2.6,0.4,3.9,0.7c0.6,0.1,1.3,0.3,1.9,0.4c0.7,0.2,1.3,0.3,2,0.5c1.5,0.4,3,0.8,4.5,1.3  c0.7,0.2,1.5,0.5,2.2,0.7c0.4,0.1,0.8,0.3,1.3,0.4c0.2,0.1,0.3,0.1,0.5,0.2c0.1,0,0.2,0.1,0.2,0.1c0.6,0.2,1.2,0.4,1.8,0.6  c1.7,0.6,3.3,1.2,5,1.8c0.8,0.3,1.6,0.6,2.4,0.9c0.2,0.1,0.4,0.2,0.6,0.2c0.3,0.1,0.5,0.2,0.8,0.3c0.6,0.2,1.2,0.5,1.8,0.7  c0.9,0.3,1.8,0.7,2.6,1c0.5,0.2,1,0.4,1.5,0.6c0.7,0.3,1.4,0.5,2,0.8C131.2,110.8,132.9,111.5,134.5,112.2z" style="fill:#8EB6A0;fill-opacity:0.36735755;"/><path d="M142.3,31c-3.5-4.6-7.5-8.7-11.9-12.4c-6.9,6.3-13.8,10.5-19.8,13.4C89.2,42.1,78,36.2,68.9,32.8  c-9-3.4-15.9-4.4-28.1,0C31,36.3,17.6,43.4,1.6,95.1c1.3,6.4,3.4,12.7,6.2,18.6c1-3.4,2-6.7,3.1-10.1c0.9-2.7,1.8-5.4,2.7-8  s1.9-5.2,3-7.8c1-2.5,2.1-5,3.2-7.4c1.1-2.3,2.2-4.6,3.4-6.9c0.4-0.7,0.8-1.5,1.2-2.2c0.9-1.6,1.8-3.2,2.8-4.8  c0.8-1.3,1.7-2.5,2.5-3.7c0.8-1.1,1.6-2.2,2.5-3.2c1-1.2,2-2.3,3.1-3.4c1.1-1.1,2.3-2.1,3.5-3.1c0.3-0.2,0.6-0.5,0.9-0.7  c0.5-0.3,0.9-0.7,1.4-1c0.9-0.6,1.9-1.2,2.9-1.7c0.5-0.3,1-0.5,1.5-0.7c0.3-0.1,0.5-0.2,0.8-0.3c0.2-0.1,0.5-0.2,0.7-0.3  c0.8-0.3,1.6-0.6,2.5-0.9c0.8-0.3,1.7-0.6,2.5-0.8c0.4-0.1,0.8-0.2,1.1-0.3s0.7-0.2,1-0.3c0.7-0.2,1.4-0.3,2.1-0.5  c0.8-0.2,1.7-0.3,2.5-0.4c1-0.1,2-0.2,3-0.3s2-0.1,3,0c1,0,2.1,0.1,3.1,0.3c1.1,0.1,2.1,0.3,3.2,0.6c0.8,0.2,1.6,0.4,2.4,0.6  c0.7,0.2,1.3,0.4,2,0.6c1.3,0.4,2.5,0.9,3.8,1.3c0.8,0.3,1.6,0.6,2.4,0.8c0.7,0.3,1.5,0.5,2.2,0.7c1.4,0.5,2.9,0.9,4.4,1.2  c0.7,0.2,1.5,0.3,2.2,0.4c0.4,0.1,0.9,0.1,1.3,0.2c0.5,0.1,0.9,0.1,1.4,0.2c0.9,0.1,1.8,0.2,2.7,0.2c0.9,0,1.8,0,2.7,0  c1.8-0.1,3.5-0.2,5.3-0.5c0.9-0.1,1.8-0.3,2.7-0.5c0.3-0.1,0.7-0.1,1-0.2c1-0.2,2-0.5,3-0.8s2-0.6,2.9-0.9c0.6-0.2,1.3-0.4,1.9-0.6  c0.8-0.3,1.5-0.6,2.3-0.8c1.5-0.6,3-1.2,4.4-1.9c0.7-0.3,1.4-0.7,2.1-1.1c0.2-0.1,0.4-0.2,0.6-0.3s0.3-0.2,0.5-0.3  c1.8-0.9,3.5-2,5.1-3.1s3.2-2.2,4.8-3.4c0.8-0.7,1.7-1.4,2.5-2.1c0.9-0.8,1.9-1.7,2.8-2.5C141,32.3,141.6,31.7,142.3,31z" style="fill:#85B2B4;fill-opacity:0.36735755;"/><path d="M158.5,85.9c0.9-10.3-0.3-20.7-3.4-30.5c-1,0.9-2.1,1.7-3.1,2.5c0,0-0.1,0-0.1,0.1  c-3.6,2.7-7.5,5.1-11.9,7.3c-3.4,1.7-7.1,3.1-11,4.2c-0.2,0-0.3,0.1-0.5,0.1c-3.1,0.9-6.4,1.6-9.8,2.1c-2.1,0.3-4.3,0.6-6.5,0.7  c-0.6,0-1.3,0.1-1.9,0.1c-3.9,0.2-7.9,0-12-0.7c-0.4-0.1-0.8-0.1-1.2-0.2c-3.4-0.7-6.7-1.7-10-2.8c-2.7-0.9-5.4-1.8-8.2-2.4  c-4.4-0.9-8.4-1-12.4-0.2c-1.4,0.2-2.8,0.6-4.3,1c-1.7,0.5-3.4,1.1-5,1.7c-2.1,0.8-4,1.9-5.8,3.2c-2.5,1.8-4.7,3.8-6.8,6.2  c-2.1,2.3-3.9,4.8-5.6,7.4c-0.8,1.2-1.5,2.5-2.3,3.7c-6.9,12-12.3,27.8-16.3,42.9c2.8,3.1,5.9,6,9.1,8.7c0.9-3.4,1.9-6.7,2.9-10  c0.6-1.8,1.2-3.6,1.8-5.4c1.3-3.6,2.6-7.1,4.2-10.5c0.7-1.7,1.5-3.3,2.3-5c0.8-1.6,1.6-3.2,2.5-4.7c0.4-0.8,0.9-1.5,1.3-2.3  c0.1-0.2,0.3-0.5,0.4-0.7c0.3-0.4,0.5-0.8,0.8-1.2c0.7-1.1,1.5-2.2,2.3-3.3c1.2-1.7,2.6-3.3,4-4.8c0.7-0.8,1.4-1.5,2.2-2.2  s1.6-1.4,2.4-2.1c0.8-0.7,1.7-1.3,2.6-1.9c0.7-0.4,1.3-0.8,2-1.2c1.3-0.7,2.7-1.4,4.1-2c1.1-0.5,2.3-0.9,3.4-1.2  c0.6-0.2,1.1-0.3,1.7-0.5c0.5-0.1,1-0.3,1.5-0.4s1-0.2,1.5-0.3c0.6-0.1,1.2-0.2,1.8-0.3c1.4-0.2,2.9-0.3,4.4-0.4c1.5,0,3,0,4.5,0.2  c0.8,0.1,1.5,0.2,2.3,0.3c0.9,0.1,1.8,0.3,2.7,0.5c0.9,0.2,1.9,0.4,2.8,0.7c0.9,0.2,1.8,0.5,2.7,0.8c1.2,0.4,2.5,0.7,3.7,1.1  c1.1,0.3,2.1,0.6,3.2,0.9c0.5,0.1,1.1,0.3,1.6,0.4c0.3,0.1,0.6,0.1,0.9,0.2c0.1,0,0.2,0.1,0.4,0.1c0.7,0.2,1.4,0.3,2.1,0.5  c1.2,0.3,2.5,0.5,3.7,0.8c1.2,0.2,2.4,0.4,3.6,0.6c0.5,0.1,1.1,0.2,1.6,0.2c0.1,0,0.2,0,0.3,0c0.2,0,0.4,0.1,0.6,0.1  s0.4,0.1,0.6,0.1c0.5,0.1,1.1,0.1,1.6,0.2c1.3,0.2,2.6,0.3,3.9,0.4c2,0.2,4,0.3,5.9,0.4c0.9,0,1.8,0.1,2.7,0.1c0.1,0,0.2,0,0.3,0  c0.8,0,1.6,0,2.4,0c1.2,0,2.3,0,3.5-0.1c1.1,0,2.2-0.1,3.3-0.2c0.3,0,0.6,0,0.9-0.1c0.3,0,0.7-0.1,1-0.1c0.7-0.1,1.4-0.1,2-0.2  c2.5-0.3,5.1-0.7,7.5-1.2c0.3-0.1,0.6-0.1,0.9-0.2c1-0.2,2.1-0.5,3.1-0.7C156.7,86.4,157.6,86.2,158.5,85.9z" style="fill:#7866FD;fill-opacity:0.36735755;"/><path d="M136.7,134.3c4-4.2,7.6-8.9,10.6-13.9c-1.5-0.6-3-1.2-4.5-1.8c-2.9-1.1-5.9-2.3-9-3.6  c-0.1,0-0.2-0.1-0.4-0.1c-2.5-1-5-2-7.6-3c-1.6-0.6-3.3-1.3-5-1.9c-0.5-0.2-1-0.4-1.4-0.5c-3-1.1-6-2.2-9.3-3.3  c-0.3-0.1-0.6-0.2-0.9-0.3c-2.7-0.9-5.5-1.7-8.3-2.5c-2.3-0.6-4.6-1.1-7-1.4c-3.7-0.5-7.3-0.4-10.7,0.2c-1.2,0.2-2.4,0.5-3.6,0.8  c-1.4,0.4-2.8,0.8-4.1,1.4c-1.7,0.7-3.2,1.5-4.8,2.4c-2.1,1.3-4,2.8-5.8,4.5c-1.8,1.7-3.5,3.6-5.1,5.6c-0.7,0.9-1.4,1.9-2.1,2.9  c-6,8.8-10.2,19.9-13.3,31c3.4,1.7,6.9,3.1,10.5,4.2c0.2-0.5,0.3-0.9,0.5-1.4c0.8-2.2,1.6-4.4,2.5-6.5c0.8-2,1.8-3.9,2.8-5.8  c0.9-1.7,1.9-3.4,3-5.1c1-1.5,2.1-3,3.2-4.4c1.1-1.3,2.2-2.6,3.4-3.8c1.1-1.1,2.3-2.2,3.5-3.2c1.2-0.9,2.4-1.8,3.7-2.6  c1.2-0.8,2.5-1.4,3.7-2.1c1.2-0.6,2.5-1.1,3.8-1.6c1.2-0.4,2.5-0.8,3.8-1.1c1.2-0.3,2.5-0.5,3.8-0.7c2.4-0.3,4.9-0.4,7.3-0.3  c2.3,0.1,4.5,0.4,6.8,0.8c1.1,0.2,2.1,0.4,3.2,0.7c1,0.3,2,0.5,3.1,0.9c1,0.3,2,0.7,3,1.1s2,0.9,3,1.4s2,1.1,3,1.6  c1,0.6,2,1.3,3,1.9c1.1,0.7,2.1,1.5,3.2,2.3c1.1,0.9,2.2,1.7,3.3,2.6c1.2,1,2.4,2,3.6,3C135.6,133.3,136.2,133.8,136.7,134.3z" style="fill:#FF93C7;fill-opacity:0.36735755;"/></svg><svg style="enable-background:new 0 0 158.7 159.6;" version="1.1" viewBox="0 0 158.7 159.6" x="0px" xml:space="preserve" xmlns="http://www.w3.org/2000/svg" xmlns:xlink="http://www.w3.org/1999/xlink" y="0px"><path d="M79.4,0C35.5,0,0,35.7,0,79.8c0,44.1,35.5,79.8,79.4,79.8c43.8,0,79.4-35.7,79.4-79.8C158.7,35.7,123.2,0,79.4,0z    M144.8,64.2c-10.9,8-21.7,15.9-32.6,23.9c-3,2.2-4.2,6-3.1,9.5c4.1,12.8,8.2,25.7,12.4,38.5c0.4,1.2,0,2.4-1,3.2   c-1,0.7-2.3,0.7-3.3,0c-10.9-7.9-21.8-15.8-32.8-23.6c-3-2.1-7-2.1-10,0c-10.9,7.9-21.8,15.8-32.8,23.6c-1,0.7-2.3,0.7-3.3,0   c-1-0.7-1.4-2-1-3.2c4.1-12.8,8.2-25.7,12.4-38.5c1.1-3.5-0.1-7.3-3.1-9.5c-10.9-8-21.7-15.9-32.6-23.9c-1-0.7-1.4-2-1-3.2   c0.4-1.2,1.5-2,2.7-2C29.1,59.1,42.5,59,56,59c3.7,0,6.9-2.4,8-5.8c4.2-12.8,8.4-25.6,12.6-38.4c0.4-1.2,1.5-1.9,2.7-1.9   c1.2,0,2.3,0.8,2.7,1.9c4.2,12.8,8.4,25.6,12.6,38.4c1.1,3.5,4.4,5.8,8,5.8c13.5,0,26.9,0.1,40.4,0.1c1.2,0,2.3,0.8,2.7,2   C146.2,62.2,145.8,63.5,144.8,64.2z" style="fill:#000000;fill-opacity:0.018138586;"/></svg></svg></svg></svg>