<svg height="612px" id="Layer_1" style="enable-background:new 0 0 612 612;" version="1.1" viewBox="0 0 612 612" width="612px" x="0px" xml:space="preserve" xmlns="http://www.w3.org/2000/svg" xmlns:xlink="http://www.w3.org/1999/xlink" y="0px"><path d="M387.5,348.7c0.2-0.4,0.5-0.7,0.7-1.1c1.3-2.3,0.1-4.5-2.6-4.4c-7,0.3-14.1,0.6-21.1,0.9  c-4,0.2-8,0.3-12,0.4c-2.1,0-2.6-0.5-2.6-2.5c-0.1-6.7-0.1-13.4-0.2-20.1c0-2.2-0.1-4.3-0.1-6.5c0-1.1-0.4-1.9-1.3-2.5  c-1.9-1.3-2.4-2.9-1.6-5.2c0.8-2.5,0.8-2.5-1.7-3.1c-0.3-0.1-0.6-0.2-0.7-0.4c-1.2-2-2.4-3.9-3.6-6c1.7-0.2,3.1,0,4.6,0  c7.7,0.1,15.3-0.1,22.9-0.6c0.7,0,1.4-0.1,2.1,0c1.3,0.2,2.1,1,2,2.4c-0.4,4.4,1.5,7.8,4.8,10.6c1.4,1.2,2.4,2.7,2.6,4.7  c0.2,1.9,1.2,2.4,2.8,1.5c1.3-0.7,1.6-0.2,1.5,1s-0.4,2.3-0.6,3.4c-0.6,3.2-0.2,4.3,2.6,6.2c0.6,0.4,1.1,0.8,1.7,1.1  c2.2,1.2,3.1,3,3.2,5.4c0.1,2,0.6,3.8,2.6,4.8c1.2,0.6,0.7,1.7-0.1,2.4c-2.1,1.9-3.3,4-3.4,6.9C390.1,349.4,388.5,348.3,387.5,348.7  z" style="fill:#001A92;"/><path d="M350,367.5c0,3.2,0,5.9,0,8.6c0,0.4,0.1,0.8-0.3,1c-0.5,0.2-0.9,0-1.2-0.4c-0.6-0.9-1.6-1.1-2.4-1.8  c-1-0.9-2.1-1.1-3.3-0.3c-0.5,0.4-1.1,0.5-1.8,0.4c-1.9-0.2-3.6-0.2-5.3,0.9c-1,0.6-1.9,0.1-2.7-0.6c-1.5-1.2-3.1-1.7-5-0.5  c-0.9,0.6-2.3,0-3.5-0.3c-1-0.3-1.9-0.7-2.9-0.5c-0.5,0.1-0.7-0.2-0.9-0.5c-1.1-1.5-2.7-1.8-4.3-1.7c-1.5,0.1-3-0.2-4.4-0.6  c-0.9-0.2-1.5-0.7-1.8-1.5c-0.4-1.2-1.3-1.5-2.4-1.5c-3.3-0.1-4.1-1.2-3.9-4.5c0.3-5.7,0.6-11.5,0.8-17.3c0.1-2.1-0.6-2.7-2.9-2.9  c-6.6-0.4-13.3-0.8-19.9-1.1c-2.9-0.1-2.4-0.7-2.3-3.1c0-1,0.9-0.8,1.5-0.8c6.2,0.4,12.5,0.8,18.7,1.1c15.4,0.7,30.8,1,46.2,0.8  c1.5,0,2,0.2,2,1.8c0.1,5.3,1.2,10.5,1.8,15.8C350.2,361.4,350.2,364.7,350,367.5z" style="fill:#001A92;"/><path d="M406.9,378c0-5.4,0-10.2,0-14.9c0-1.5,0.4-2.2,2-2.3c5.3-0.3,10.5-0.8,15.7-1.3  c1.3-0.1,1.7,0.1,2.1,1.5c1.8,7.1,3.7,14.1,5.7,21.2c0.4,1.5,1.1,3,2,4.4c0.6,0.9,0.9,2,0.6,3c-1,3.6-0.2,7,0.4,10.5  c0.5,2.8,0.5,2.9-2.3,3.3c-5.8,0.8-11.7,1.3-17.5,1.7c-1,0.1-2.1-0.1-2.5,1.1c-0.4,1.3-0.4,2.7,1,3.6c1,0.6,1.1,1.4,1,2.4  c0,0.7-0.1,1.3-0.9,1.4s-1.2-0.4-1.3-1.2c-0.2-1.3-0.6-2.4-1.6-3.4c-0.8-0.8-1.4-1.1-1.7,0.4c-0.2,0.9-0.3,1.7-0.5,2.6  c-0.1,0.3,0.1,0.9-0.5,0.8c-0.5-0.1-0.5-0.6-0.5-0.9c-0.3-2.4-0.5-4.8-0.8-7.3C406.3,395.5,406.3,386.4,406.9,378z" style="fill:#001A92;"/><path d="M457,336.7c-0.8,3.1-3.3,4.3-5.9,5.1c-1.2,0.4-2.3,0.8-2.9,2c-1.3,2.6-3.4,4.2-6.1,5  c-1,0.3-1.8,0.8-2.1,1.9c-0.2,0.9-1.1,1.4-1.6,2.1c-0.4,0.5-1,1.1-1,1.7c-0.1,1.9-1.4,1.9-2.7,2c-10.1,1.1-20.3,2-30.5,2.7  c-4.4,0.3-8.8,0.8-13.2,1.1c-1.5,0.1-1.7-0.4-1.6-1.6c0.1-1,0.4-1.9,0.9-2.8c1.5-3.3,2.8-6.6,3-10.3c0.1-0.9,0.5-1,1.2-1.1  c3.1-0.2,6.2-0.4,9.3-0.7c1-0.1,1.9-0.1,2-1.4c0.1-0.9,0.9-0.5,1.3-0.6c5.7-0.5,11.5-1.1,17.2-1.5c10.4-0.8,20.9-1.7,31.2-3.6  C455.9,336.6,456.4,336.4,457,336.7z" style="fill:#001A92;"/><path d="M414.3,329.6c0.3-0.8,0.4-1.6,0.8-2.3c1-1.6,1.5-4,4.4-2.9c1.2,0.4,2.1-0.5,2.1-1.7s0.6-2.1,1.4-2.9  c0.4-0.4,0.9-0.9,0.9-1.3c0.4-2.6,2.4-3.3,4.4-4.1c1.1-0.4,1.5-1.2,1.3-2.3c-0.1-0.4-0.7-1-0.1-1.3s1.6-0.2,2,0.4  c2.9,4.5,7.4,3.3,11.5,3.2c1.8,0,3.1,0.4,3.2,2.3c0.2,3.3,1.9,5.7,4.3,7.8c1.5,1.3,1.5,1.5-0.1,2.7c-1.5,1.1-2.6,2.6-3.6,4.1  c-2.4,4-6.1,5.7-10.5,6c-7.3,0.6-14.7,1.1-22,1.7c-3.3,0.2-6.5,0.9-9.8,0.7c-0.7-0.1-1.3,0.3-1.3,1c0.1,1.2-0.6,1.3-1.5,1.3  c-1.4,0.1-2.9,0.1-4.3,0.3c-1,0.1-1.4-0.2-1.3-1.3c0.1-1,0.1-2.1,0.1-3.2c0.1-1.8,0.2-1.9,1.8-1.2c0.9,0.4,1.8,1.3,2.9,0.4  c1-0.9,0.8-1.9,0.3-3c-0.3-0.8,0.3-0.9,0.8-1.1c1.4-0.6,3-1.1,1.8-3.2c-0.3-0.6,0.3-1,0.7-1.3c1.6-1.1,3.3-1.6,5.2-0.9  c1.2,0.5,2.1,0.6,2.6-0.9c0.1-0.3,0.3-0.7,0.7-0.6c0.4,0.1,0.7,0.5,0.7,0.8c0.1,0.9,0,1.9,0,2.8C414,329.6,414.1,329.6,414.3,329.6z  " style="fill:#001A92;"/><path d="M471.9,378c-1,2.4,0.4,4.7,0.5,7.1c-0.1,0.1-0.3,0.1-0.4,0.2c-0.6-1-1.3-1.9-1.9-3  c-2.9-6-7.7-10.3-12.6-14.6c-1.9-1.7-3.7-3.4-4.7-5.7c-0.6-1.4-1.9-1.4-2.9-1.9c-2-1.1-2.3-2.4-0.3-3.7c2.2-1.5,4.5-2.9,7.2-3.3  c2.5-0.3,5-0.8,7.6-0.5c1.5,0.2,2.8,0.5,3.2,2.3c0.2,0.8,0.7,1,1.5,0.9c2.1-0.4,4.3-0.5,6.4-1.1c1.5-0.4,2.8-0.1,4.1,0.9  c2.6,2,5.1,4.1,7.7,6.1c0.5,0.4,0.9,0.8,0.3,1.5c-2,2.1-2.8,4.8-3.6,7.6c-0.3,1-0.5,1.7-1.8,2c-1.2,0.3-2,1.7-3.4,2  c-0.4,0.1-0.2,0.8-0.2,1.2c0,0.7,0.1,1.3,0.1,2c0,0.6-0.5,0.9-1,1s-0.5-0.4-0.8-0.7c-0.4-0.5-0.4-1.7-1.2-1.5  c-0.9,0.2-0.7,1.1-0.6,1.9c0.1,1-1.1,1.1-1.7,1.5c-0.5,0.3-0.6-0.6-0.9-0.9C472.4,378.7,472.4,378.2,471.9,378z" style="fill:#001A92;"/><path d="M460.4,296.1c0.9,1.8,2.2,2,3.6,1.8c0.8-0.1,1.5-0.2,2.3-0.3c2.9-0.5,2.8-1.1,3.4,2.7  c0.2,1.2,0.4,2.4,0.7,3.9c1.7-1.9,3.3-3.6,4.8-5.3c0.7-0.8,1.5-1.2,2.6-1c0.7,0.1,1,0.3,0.9,1c-0.4,2.4-0.7,4.8-3.4,5.8  c-0.9,0.3-1,1.3-1.1,2.1c-0.1,0.9-0.3,1.8-0.7,2.7c-0.4,0.1-0.5-0.2-0.7-0.3c-1.5-1.3-2.7-0.9-3,1.1c-0.5,3.1-1.3,6-2.8,8.8  c-0.3,0.5-0.5,1.1-0.5,1.6c0.3,1.8-0.8,2.4-2.1,2.8c-1.1,0.4-2.1,0.7-2.6,1.9c-0.3,0.7-0.9,0.6-1.4,0.3c-0.9-0.5-1.6-0.1-2.1,0.7  c-0.7,1-1.4,1.2-2.1-0.1c-0.8-1.5-2.2-2.5-3.6-3.3c-1.9-1.2-2.8-3.1-3.7-5c-0.4-0.9,0-1.7,0.8-2.3c1.6-1.2,2.2-2.7,1.6-4.6  c-0.2-0.6,0-0.8,0.7-0.9c1.6-0.2,2.5-1.1,2.2-2.9c-0.2-1.3,0.4-2.4,1.4-3C458.4,302.4,460,299.9,460.4,296.1z" style="fill:#001A92;"/><path d="M389.9,350.8c-0.8,1.2-1.4,1.9-1.9,2.8c-0.5,0.7-1,1.6-0.9,2.5c0.4,2.8-1.3,4.8-2.4,7  c-0.6,1.3-1.3,2.5-1.1,3.9c0,0.4,0,0.8-0.4,1c-1.6,0.7-1.9,2.2-2.4,3.6c-0.7,1.9-1.2,3.9-2.2,5.7c-0.4,0.6-0.3,1.3,0,1.9  c0.2,0.5,0.5,1,0.7,1.5c0.9,2.2,0,3.7-2.4,3.7c-3,0.1-6,0.1-9,0.2c-3.5,0.1-7,0.1-10.5,0.3c-1.2,0-1.7-0.3-1.5-1.5  c0.1-0.5,0-1,0-1.5c0.1-2.9-0.2-3.3-3-3.4c-1.2-0.1-1-0.8-1-1.5c0-4.6-0.1-9.2,0-13.8c0.1-4.6-0.4-9.2-1.1-13.7  c-0.5-2.8-0.5-2.8,2.4-2.9c10.4-0.4,20.8-0.6,31.2-1.3c0.7,0,1.5-0.4,1.9,0.5c0.3,0.8-0.4,1.2-0.8,1.7c-0.2,0.3-0.4,0.5-0.6,0.8  c-0.5,0.9-1.2,2-0.8,2.8c0.4,0.7,1.6,0.1,2.5,0C387.7,350.9,388.6,350.9,389.9,350.8z" style="fill:#001A92;"/><path d="M472,444.1c-2,2.3-3,2.2-4.6-0.4c-0.9-1.4-1.3-2.9-0.6-4.6c0.1-0.4,0.2-0.7,0.3-1.1  c0.6-2.2,0.3-2.9-1.9-3.3c-1.7-0.3-1.8-1-1.5-2.5c0.7-2.8,0.2-5.5-1-8.1c-0.5-1.1-1.2-2.1-2.4-2.4c-2.2-0.6-3.5-2.2-4.9-3.8  c-1.1-1.4-2.2-2.9-3.7-3.8c-2.5-1.6-5.1-3-7.8-0.5c-0.3,0.3-0.6,0.2-0.9,0.1c-0.7-0.1-1.3,0-1.8,0.5c0.1,0.5,0.5,0.6,0.8,0.8  c0.7,0.4,0.5,0.8,0,1.1c-1.1,0.6-2.3,1.1-3.4,1.7c-0.6,0.3-1,0-1.2-0.5c-0.6-1.4-1.5-2.6-2.6-3.7c-0.8-0.8-0.3-1.8-0.2-2.7  c-0.5-0.1-0.8,0.2-1.1,0.4c-0.9,0.5-1.9,0.4-2.9,0.8c-1.4,0.6-1.4-0.9-2-1.4c-1.1-0.9-2.2-0.8-3.3-0.4c-2,0.9-3.8,1.4-5.7-0.2  c-1-0.8-1.6,0.2-2.2,1.1c0.2-1.4-0.5-2.2-1.4-2.8c-0.3-0.2-0.6-0.5-0.5-0.9c0.1-0.5,0.6-0.5,1-0.5c6.4-0.3,12.7-1.1,19-1.9  c1.2-0.1,2.1,0,2.4,1.5c0.3,1.3,1.3,1.5,2.5,1.4c6.9-0.4,13.8-0.8,20.8-1.2c1.1-0.1,2-0.1,2.4,1.2c0.3,0.9,1,0.9,1.8,0.8  s1.2-0.5,1.3-1.3c0.1-1,0.4-2,0.1-3c-0.4-1.1,0.2-1.1,0.9-1c1.1,0.1,1.7,0.8,2,1.7c1.7,6,4.7,11.3,8,16.5c1.7,2.7,2.4,5.9,3.9,8.8  c1.9,3.6,3.7,7.1,5.9,10.6c3,4.9,3.6,10.4,2.9,16c-0.2,1.4-0.5,2.8-0.7,4.3c-0.2,1.6-1.2,2.4-2.7,1.9c-1.8-0.6-3.6-1.6-3.9-3.5  c-0.5-2.7-2.2-3.2-4.4-3.3c-0.6-0.1-1.1-0.1-1.4-0.8c-0.6-1.7-1.8-3-2.9-4.4c-1.2-1.5-1.9-3.1-1.4-5.1  C472.9,445.5,472.5,444.8,472,444.1z" style="fill:#001A92;"/><path d="M397.2,415.1c-1.3-2.1-2.6-4-1.6-6.7c0.5-1.4-0.8-1.6-1.9-1.6c-2.1,0.1-4.2,0.2-6.3,0.4  c-2.4,0.1-4.9,0.2-7.3,0.4c-1.2,0.1-1.5-0.2-1.2-1.4c0.7-3,1.7-5.9,3.1-8.5c1.2-2.2,1.3-4.3,0.7-6.7c-1.1-4.3-1.2-8.6-1.3-13  c-0.1-2.1,1-4.1,2.1-5.9c1.2-2,2.3-4,2.8-6.3c0.5-2.1,1.9-3.3,4.1-3.4c4.3-0.3,8.5-0.6,12.8-1c1.5-0.1,1.5,0.7,1.5,1.7  c-0.1,7.4,0.1,14.7-0.3,22.1c-0.5,8.8,0.4,17.6,1.7,26.3c0.2,1.5-0.3,1.7-1.5,1.7c-0.9,0-1.9,0-2.8,0  C399.5,413.3,399,413.5,397.2,415.1z" style="fill:#001A92;"/><path d="M375.6,410.1c4.4-0.3,8.8-0.6,13.2-0.8c0.4,0,0.8-0.1,1.2-0.1c0.9,0,2.1-0.4,2.8,0  c0.7,0.4,0,1.6,0.2,2.4c0.2,0.6,0.3,1.3,0.6,1.9c0.2,0.6,0.6,1.2,0.9,1.9c-0.8,0.3-1.4-0.3-1.9-0.6c-1-0.5-2.1-0.8-2.9,0.1  c-0.9,1-2,2-1.6,3.6c0.3,1.2,1.2,1.9,2.3,1.7c2.3-0.5,3.9,0.7,5.6,1.9c-0.4,0.8-1.6,1-1.8,2.1c-0.1,0.6-0.8,0.2-1.1,0  c-0.8-0.6-1.6-1.1-2.4,0c-0.8,1-0.2,1.7,0.6,2.4c0.3,0.2,0.4,0.5,0.2,0.9c-1.7-0.6-3.4-1-4.9,0.5c-0.3,0.3-0.5,0-0.7-0.1  c-1.3-1.1-2.9-1.6-4.4-2.3c-1.1-0.5-2-1.1-2.6-2.2c-0.9-1.5-2.4-1.8-4.1-1.5c-1.5,0.2-2.5,0.9-2.5,2.5c0,0.8-0.7,0.6-1.1,0.5  c-1.5-0.2-3-0.7-4.5-1.2c-2.2-0.8-4.4-1.5-6.8-0.9c-0.9,0.2-1.1-0.2-0.8-1c0.8-1.7,0.6-3.5,0.3-5.2c-0.1-0.7-0.2-1.4,0.2-2.1  c2.1-3.4,1.7-6.8-0.1-10.1c-2.6-4.8-3.9-9.9-3.7-15.3c0-1.6,0.6-2.1,2.1-2.1c6.5-0.1,13-0.2,19.5-0.5c1.4-0.1,2.1,0.5,2.2,1.8  c0.1,1.5,0.2,3,1.1,4.3c0.1,0.1,0.2,0.4,0.1,0.4c-1.8,1.9-0.9,4.7-2.6,6.7s-2.4,4.6-1.9,7.3C376.6,408.2,375.5,408.9,375.6,410.1z" style="fill:#001A92;"/><path d="M288.4,295.4c-0.7,11.1-1.4,22.1-2.2,33.2c-0.1,2-0.2,4-0.4,6c-0.2,2-0.8,2.5-2.7,2.3  c-7.2-0.8-14.3-1.4-21.5-2c-10.3-0.8-20.5-2.1-30.7-3.5c-1.4-0.2-1.5-0.6-1.3-1.8c1.5-11,3-21.9,4.5-32.9c0.4-2.7,0.7-5.4,1.3-8  c0.4-1.4,1.2-2,2.7-1.8c8.1,1.1,16.2,2.3,24.4,3c6.1,0.5,12.3,1,18.4,1.5c1.9,0.2,3.9,0.4,5.8,0.5c1.6,0,2,0.7,1.8,2.2  C288.5,294.4,288.5,294.9,288.4,295.4C288.5,295.4,288.5,295.4,288.4,295.4z" style="fill:#001A92;"/><path d="M344.5,195.2c0.8,0.7,0.6,1.5,0.6,2.3c0.1,3.1,1.3,4.6,4.2,5.3c1.1,0.3,2.2,0.4,3.1,1.3  c0.6,0.7,1.6,0.3,2.3,0c4-1.6,4.7-1.3,6.8,2.5c0.6,1.1,1.5,1.2,2.3,0.4c0.6-0.6,0.9-0.4,1.4,0s1,0.7,1.5,1.1c2.3,1.7,3,1.7,5.2-0.1  c0.6-0.4,0.9-0.9,1.5,0c0.3,0.6,1,0.6,1.6,0.4c1.1-0.2,2.2-0.4,3.3-0.1c0.4,0.1,0.8,0.3,0.8,0.7s-0.4,0.4-0.7,0.6  c-3.5,1.4-6.1,3.9-8.3,7c-1.8,2.6-3.9,4.9-6.4,6.7c-0.8,0.6-1.2,1.3-1,2.4c0.3,1.5,0.3,3,0.4,4.5c0.1,0.8-0.2,1.5-1,1.9  c-2.1,0.9-2.5,3-3.1,4.9c-0.2,0.6,0.1,1,0.5,1.3c1.2,1.1,1.2,2.5,0.9,4c-0.2,1-0.5,2.1-0.5,3.1c-0.1,2.5,0.9,4.1,3.1,5.1  c1.6,0.7,2.8,2,3.9,3.3c1.2,1.3,2.4,2.6,3.9,3.6c0.2,0.1,0.5,0.3,0.6,0.5c0.5,0.8,0.8,1.8,0.5,2.7c-0.2,0.8-1.2,0.4-1.9,0.4  c-11.1,0.6-22.2,0.9-33.3,0.8c-2.1,0-2.1,0-2-2.1c0.1-5.4,0.1-10.8,0.2-16.1c0-1.8-0.3-3.4-2-4.4c-0.8-0.5-0.7-1.2-0.2-1.8  c2.2-2.6,2-5.4,0.9-8.3c-0.8-2.1-1-4.3-1.1-6.5c-0.3-4.4-0.3-8.8-1.7-13.1c-0.7-2.2-0.4-4.6-0.3-6.9c0-0.8,0.1-1.5-0.3-2.3  c-0.5-1.1,0.1-1.6,1.2-1.5c2.9,0.3,5.9,0.2,8.8,0.2C343.9,199,344.3,198.7,344.5,195.2z" style="fill:#001A92;"/><path d="M333.1,250.4c0.2,3.5,0.1,7.1-0.5,10.6c-0.3,1.6,0.2,3.1,0.2,4.6c0,0.9,0.1,1.9-0.1,2.8  c-0.4,2.3-1.1,2.7-3.2,1.7c-2.2-1-4.6-1.4-6.9-0.5c-0.9,0.4-1.6,0.1-2.1-0.5c-1.2-1.3-2.6-1.7-4.3-1.8c-10-0.2-20-0.7-30-1.5  c-2.5-0.2-5-0.5-7.5-0.6c-1.3-0.1-1.7-0.7-1.6-1.9c0.5-5.5,1-10.9,1.5-16.4c0.3-3.8,0.6-7.5,0.9-11.3c0.2-3,0.5-3.3,3.5-3.1  c11.8,1,23.5,1.6,35.3,2c4,0.1,8.1,0.4,12.1,0.2c0.5,0,1.1-0.3,1.4,0.3c0.2,0.5-0.4,0.7-0.7,1c-1.2,1.4-1.3,3,0.3,4.2  c1.4,1.2,1.8,2.5,1.7,4.2C333,246.5,333.1,248.5,333.1,250.4z" style="fill:#001A92;"/><path d="M341.2,303.2c-13.1-0.2-25.9-0.1-38.7-0.9c-3.4-0.2-6.9-0.3-10.3-0.4c-2-0.1-2.2-0.3-2-2.3  c0.2-2.2,0.4-4.3,0.6-6.4c0.2-2.2-0.7-3.4-2.9-3.5c-3.7-0.2-7.3-0.5-11-0.6c-1.4-0.1-1.9-0.6-1.7-2c0.7-5.7,1-11.5,1.5-17.2  c0.2-2.4,0.7-2.7,2.9-2.4c9.7,1.2,19.4,1.5,29.2,2c1.9,0.1,3.8,0.1,5.6,0c1.7-0.1,3.4,0.3,4.8,1.4c1.5,1.1,3.1,1.5,4.9,0.8  c2.2-0.8,4.1-0.1,5.9,1.3c2.3,1.8,3.8,4.2,4.5,7c1.1,4.6,2.9,9,3.2,13.9C337.8,297.2,339.3,300.1,341.2,303.2z" style="fill:#001A92;"/><path d="M324.8,232.7c-12.7-0.4-25.4-0.7-38-1.8c-1.4-0.1-2.9,0.1-4.3,0c-2.1-0.1-2.9-1.1-2.5-3.2  c1.4-7.8,1.4-15.7,2.2-23.5c0.2-2.1,0.4-4.2,0.5-6.3c0.1-1,0.5-1.4,1.6-1.3c11.5,1.1,23,1.5,34.5,2c2.4,0.1,4.8,0.1,7.2,0.1  c2.3,0,3,0.7,2.8,2.9c-0.5,4.2,0,8.2,1.5,12.1c0.4,1.1,0.4,2.3,0.4,3.5c-0.2,4.8,0.4,9.5,1.8,14.1c0.3,1.1-0.1,1.5-1.2,1.5  C329,232.7,326.9,232.7,324.8,232.7z" style="fill:#001A92;"/><path d="M348.8,263.8c6.2-0.2,12.4-0.3,18.6-0.5c1.2,0,2.3-0.2,3.5-0.3c1.8-0.1,2.7,0.6,2.5,2.4  c-0.4,3.2,1,5.4,3.5,7.4c2,1.6,3.4,3.9,4.9,6c0.9,1.3-1.5,5.3-3.4,6.1c-0.4,0.2-0.9,0.2-1.3,0.4c-1.9,0.6-2.6,1.8-1.9,3.7  c1.1,2.7,0.7,4.9-1.7,6.8c-0.3,0.2-0.4,0.6-0.9,0.3c-1.5-1.1-3.2-0.8-4.8-0.6c-7.2,0.8-14.4,0.7-21.6,0.9c-1.7,0-3.3-0.1-5-0.1  c-0.9,0-1.4-0.3-1.4-1.2c-0.6-7.6-3-14.7-5.4-21.8c-0.4-1.1-0.5-2,0-3.2c0.7-1.4,0.7-2.9,0.2-4.4c-0.4-1.2,0-1.6,1.2-1.6  C340.2,263.9,344.5,263.9,348.8,263.8C348.8,263.9,348.8,263.9,348.8,263.8z" style="fill:#001A92;"/><path d="M373.5,222.6c-0.1,0.6-0.1,0.9-0.2,1.2c-0.6,2.4-0.5,2.5,1.8,2.2c1.5-0.2,2.7,0.3,3.6,1.6  c0.5,0.7,1,1.4,1.9,1.5c2.9,0.4,5.6,1.6,8.4,2.4c0.9,0.2,1.7,0.5,2.6,0.5c1.2,0.1,1.8,0.9,2.7,1.4c2,1.2,2.3,2.7,2,4.6  c2.3,2.2,1.3,4.4,0,6.6c-0.3,0.6-0.3,1.4-0.5,2.1c-0.2,0.8-0.1,1.5,0.7,1.8c0.8,0.3,1.5,0.3,2.1-0.4c0.4-0.5,0.8-1.1,1.4-1.9  c-0.9,5.3-1.1,10.4-1.8,15.5c-0.3,2.4,0.1,4.7,1.1,7c0.8,1.7,0.3,2.5-1.6,2.6c-5.5,0.3-10.9,0.7-16.4,0.9c-3.6,0.2-6.2-2.8-5.7-6.4  c0.1-0.6,0.3-1.4,0-1.8c-1.1-1.8-1.1-3.9-1.6-5.9c-0.4-1.5-1.2-2.6-2.6-3.2c-1-0.5-1.7-1.2-2.2-2.2c-0.9-1.8-2.5-2.8-4.3-3.5  c-1.9-0.8-2.8-2-2.6-4.3c0.2-1.6,0-3.2,0.5-4.8c0.4-1.1-0.2-1.9-0.9-2.7c-0.8-0.9-0.8-2,0.3-2.5c3.3-1.7,3.4-4.5,3-7.5  c-0.2-1.4,0.2-2,1.7-2.1c2.1-0.2,3.8-1.5,5.6-2.4C372.8,222.9,373,222.8,373.5,222.6z" style="fill:#001A92;"/><path d="M399.1,334.6c-1.9-0.8-3.5-1-5,0.4c-1,0.8-1-0.3-1-0.9c0-2.3-0.6-4.3-2.2-5.9c-1-1-2.2-1.7-3.4-2.4  c-2.5-1.4-2.8-2.1-2-4.9c0.3-1.1,0.7-2.1,0.8-3.2c0.1-2.1-0.4-2.9-2.5-3.1c-1.3-0.1-2.3-0.2-2.4-2c-0.1-1.7-1.6-2.7-2.8-3.8  c-2.3-2-4.1-4.2-4-7.5c0.1-1.8,0.6-3.4,1.6-4.8s1.7-3,1.9-4.7c0.1-1,0.1-1.9-0.5-2.7c-1-1.3-0.3-1.6,0.9-1.9  c3.3-0.8,6.1-5.2,5.5-8.6c-0.2-1.2-1-1.8-1.8-2.5c-0.4-0.4-0.9-0.9-0.7-1.4c0.2-0.5,0.9-0.3,1.3-0.3c4.9-0.3,9.8-0.6,14.8-0.9  c1.2-0.1,2.2-0.1,2.2,1.6c0,0.5,0.3,1,0.5,1.4c2.1,3.3,2.5,7.1,2.7,10.8c0.3,5.9,1.1,11.7,1.6,17.5c0.1,1.6,0.3,3.1-0.2,4.6  c-0.4,1.3-0.2,2.5,0.4,3.7c0.9,1.6,0.9,3.3,0,4.7c-2.3,3.5-2.8,7.4-3,11.4c0,0.9-0.2,1.5-1.2,1.8C399,331.5,398.9,332.9,399.1,334.6  z" style="fill:#001A92;"/><path d="M511.3,268.6c0,0.3,0,0.7-0.1,1.1c-0.2,1.2-0.6,1.8-2,1.2c-2.4-1.2-4.9-2.2-7.4-3.3  c-0.6-0.3-0.7-0.8-1-1.3c-1.5-3.4-3.2-4.3-6.8-3.6c-9.4,1.9-18.9,3.8-28.3,5.6c-0.5,0.1-1.3,0.8-1.7-0.1c-0.3-0.7-0.1-1.5,0.5-2.1  c1.3-1.4,2.5-2.9,3.5-4.4c1.4-2.2,1.4-3.6-0.2-5.6c-0.8-1-0.6-1.5,0.4-1.9c2.4-1,4.8-1.7,7.4-1.4c3.5,0.5,6.3-0.7,9-3  c2.8-2.4,2.2-5,2.1-7.8c0-0.2,0-0.4-0.1-0.5c-1.3-1.3-0.3-2.3,0.4-3.4c0.9-1.6,1.6-3.3,2.4-4.9c1.4-2.8,3.6-4.4,6.7-5  c1.4-0.2,2.8-0.7,4.1-1.2c1.8-0.7,2.4-0.4,3,1.5c0.7,2.2,0.8,4.6,1.2,6.9c0.3,1.5,0.5,2.9,0.8,4.4c0.1,0.6,0.3,1.4,0.7,1.8  c2.1,2.2,2.3,5,2.7,7.7c0.7,6.2,0.8,12.5,2.5,18.6C511.3,267.9,511.3,268.2,511.3,268.6z" style="fill:#001A92;"/><path d="M458.5,272.3c0-0.8,2.1-3.2,2.9-3.3c0.3,0,0.4,0.1,0.5,0.3c0.4,1.5,1.6,1.5,2.8,1.3  c9.8-1.9,19.5-3.8,29.3-5.8c2.9-0.6,3.7-0.2,4.9,2.6c0.4,1,0.9,1.9,2.1,2.1c0.9,0.1,1,0.7,0.5,1.5c-1.4,2.3-1.4,4.9-1.3,7.4  c0,1.9,1.8,2.9,3.1,3.9c1,0.9,1.1,1.4,0.5,2.5c-1,1.6-2.2,2.7-3.9,3.4c-6.7,2.7-13.8,4-20.9,5.2c-5,0.8-10,1.5-14.9,2.6  c-0.9,0.2-1.6,0.1-1.8-1c-1.2-7.2-2.4-14.4-3.7-21.6C458.6,272.9,458.6,272.6,458.5,272.3z" style="fill:#001A92;"/><path d="M458.6,290.9c-0.1,2.5-0.2,5.3-1,8c-0.4,1.4-1,2.5-2.7,2.4c-0.7-0.1-1.1,0.4-1.4,0.9  c-1.4,2.3-2.8,4.6-4.2,6.9c-0.5,0.7-0.6,1.5-0.5,2.4c0,0.8,0,1.9-0.7,2.2c-0.7,0.3-1.5-0.6-2-1.1c-1.9-1.9-1.8-1.9-4.2-0.4  c-0.6,0.4-1.2,0.5-1.9,0.4c-1.5-0.2-2.9-0.5-4.4-0.8c-1.2-0.2-2-1-2.4-2.1c-0.5-1.2-1.2-1.9-2.7-1.5c-1.2,0.3-1.4-0.5-1.5-1.4  c-0.6-5.8-1.3-11.6-1.9-17.3c-0.3-2.6-0.6-5.3-1-7.9c-0.2-1.2,0.2-1.9,1.5-2c2.2-0.2,4.4-0.6,6.6-0.9c1.4-0.2,2.6,0.1,3.6,1.2  c1.1,1.3,2.6,1.7,4.4,1.3c4.2-0.9,8-2.3,10.8-5.7c0.9-1.1,2.1-2.4,3.3-2.2c0.9,0.2,0.6,2.1,1,3.3  C458.4,281.1,458.4,285.8,458.6,290.9z" style="fill:#001A92;"/><path d="M412.9,242.2c0.2,0.6,0.3,0.9,0.3,1.2c0.2,0.7,0.7,0.9,1.3,1c0.7,0.1,1.3-0.2,1.6-0.9  c0.6-1.3,0.6-2.6,0.5-3.9c-0.2-1.5,0.3-2.4,1.8-2.9s1.7-1.3,0.4-2.3c-0.6-0.4-0.7-0.8-0.4-1.4c0.3-0.6,0.8-1,1.5-0.7  c2.9,1.2,5.7,2.4,8.5,3.7c0.8,0.3,1,1,0.6,1.8c-0.4,1-0.1,1.8,0.5,2.6c1.5,1.9,1.5,4,0.5,6.1c-0.8,1.7-1.3,3.5-2.6,4.9  c-1.1,1.2-0.4,3.4,1,4.3s2.6,0.7,3.6-1c0.6-0.9,1-2,1.5-2.9c0.4-0.7,1-1.3,1.8-1.3c0.9-0.1,1.2,0.8,1.4,1.5c1,3.7,2.5,7.2,3,11  c0.1,0.7,0.2,1.4-0.9,1.3c-0.5,0-0.9,0.4-1,1c-0.7,3-2.6,5.5-2.8,8.6c-0.1,1.8-1.5,2.7-3.9,2.9c-3.2,0.3-6.4,0.5-9.6,0.7  c-2.8,0.2-5.6,0.4-8.4,0.7c-2.1,0.2-2.1,0.3-1.4-1.7c1.4-3.8,1.9-7.6,1.2-11.6c-0.1-0.6-0.2-1.4-0.6-1.9c-1.7-2.6-2.1-5.6-2.4-8.5  c-0.2-1.5-0.2-2.9,0.6-4.3c0.8-1.5,0.2-3.2,0.6-4.7C411.6,244.4,411.8,243.3,412.9,242.2z" style="fill:#001A92;"/><path d="M446.3,335.9c2.2-2.7,3.9-5.5,6.3-7.9c0.6-0.6,1.1-0.9,1.9-0.1c0.8,0.9,1.9,1,3.1,0.8  c3.6-0.6,6.6-2.5,9.7-4.2c1.4-0.8,1.8-2.2,1.7-3.7c0-0.7-0.2-1.4,0.2-2c1.1-2,1.8-4.2,2.5-6.3c0.2-0.7,0.5-1.1,1.4-0.7  c1.2,0.5,2.2,0.1,2.4-1.4c0.2-1.4,0.9-2.6,1.9-3.6c1.8-2.1,3.4-4.2,3.5-7.1c1.8-0.2,3.1,3.6,5.1,0.3c0.5,1.1,1.7,1.4,2.7,1.9  c1.8,0.7,2,1.1,1,2.7c-0.8,1.3-0.7,2.7-0.3,4.2c0.1,0.5,0.5,0.9,1,0.9c2-0.1,3.7,0.9,5.6,1.8c-0.5,0.5-1.4,0.5-1.5,1.3  c-0.1,0.9,0.6,1.3,1.1,1.8c0.9,0.9,1.9,1.8,3,2.8c-1.1,0.2-2.3,0.1-2,1.6c0.1,0.5-0.5,0.3-0.7,0.5c-0.5,0.5-0.8,1.1-0.7,1.8  c0.1,0.7,0.7,0.8,1.2,0.9c1.6,0.4,2.5,1.8,3.7,2.8c1,0.9,2.1,1.3,3.2,0.1c0.2-0.3,0.4-0.8,0.8-0.6c0.4,0.2,0.4,0.7,0.4,1  c0,0.5-0.1,0.8-0.7,1c-1.3,0.3-2.6,0.6-3.9,0.8c-10.4,2-20.7,4.5-31.2,5.8c-7.1,0.9-14.2,1.7-21.2,2.8  C447,335.9,446.7,335.9,446.3,335.9z" style="fill:#001A92;"/><path d="M525.5,191.3c1.9,2,2.6,2,4.4,0.3c2.1-2,4.6-1.4,5.5,1.4c1.3,4.2,2.6,8.3,3.8,12.5  c0.4,1.2,0.8,2.1,2.2,2.4c1.3,0.3,1.7,1.5,2,2.7c0.4,1.4,0.9,2.5,2.7,2.1c0.4-0.1,0.6,0.1,0.8,0.4c0.3,0.8,0.6,1.5,0.9,2.3  c0.2,0.6-1.1,0.8-1.6,1.3c-2,2.2-4.4,3.8-7.3,4.7c-0.1-0.1-0.3-0.6-0.6-1c-0.5-0.5-1.1-0.8-1.8-0.4c-0.6,0.3-0.3,0.9-0.4,1.4  c-0.1,1.9-0.2,3.9-0.1,5.8c0,0.3,0,0.7-0.5,0.7c-1.3-0.1-1.5,0.8-1.6,1.8c-0.1,0-0.3,0-0.4,0c-1.8-1.7-2.1-1.6-3,0.6  c-1.2,3.1-1.7,6.4-2.7,9.6c-1-0.4-1.3-1.3-1.5-2.1c-1.8-5.8-3.4-11.7-5.5-17.4c-0.6-1.6,0.2-2.8,1.5-3.7c0.6-0.4,0.8-0.8,0.3-1.5  c-0.6-0.7-0.4-1.4,0-2.2c0.9-1.7,1.1-3.4,0.8-5.3C522.6,202.1,523.6,196.7,525.5,191.3z" style="fill:#001A92;"/><path d="M422.6,227c-1.6,0.3-3.1-0.6-4.1,0.9c-0.3,0.4-0.7-0.1-1-0.3c-1.3-0.8-2.5-1-3.9-0.2  c-1.6,0.9-3.6,0.9-5.1,2s-3,1.9-4.8,2.4c-2.1,0.7-3.1,2.5-3.7,4.6c-0.1,0.4,0.1,1-0.6,0.9c-0.6,0-0.8-0.4-0.9-1  c-1.2-4.6-2.8-6-7.5-6.7c-3.4-0.5-6.6-2-9.9-2.7c-0.7-0.2-0.8-0.8-0.6-1.5c0.4-1.2,1.2-2,2.4-2.4c2.4-0.8,4.7-1.7,6.2-4  c0.5-0.7,1,0.2,1.2,0.7c0.3,0.7,0,1.5,0.4,2.3c0.3,0.6,0.6,0.9,1.2,0.4c0.1-0.1,0.3-0.2,0.4-0.3c2.7-1.6,3.3-1.5,5.2,1  c2.3,3.1,6.7,3.5,9.4,0.7c0.9-0.9,1.9-1.4,3.2-1.6c0.7-0.1,1.5-0.1,2.1-0.3c1.7-0.6,3.2-1.2,3.9,1.4c0.2,0.9,1.3,0.8,2.2,0.8  c1,0,2.2-0.8,3,0C421.9,224.8,421.9,226,422.6,227z" style="fill:#001A92;"/><path d="M506.8,233.4c0.2-0.8-0.3-2.2-0.9-3.6c-0.3-0.7-0.6-1.4-0.8-2.2c-0.3-1.2-0.1-2,1.4-2.3  c2.7-0.5,5.3-1.3,7.9-2c0.9-0.3,1.6-0.4,1.5,1c0,0.1,0,0.2,0,0.3c0.6,1.7,0.9,3.3-0.8,4.7c-0.4,0.3-0.7,1.1-0.6,1.7  c0.4,3.7-0.9,7.3-0.4,11.1c0.2,1.9,0.6,3.7,0.7,5.6c0,2.2-1.7,1.6-2.8,1.9c-1.3,0.3-1-1-1.1-1.5c-0.3-3.4-1.4-6.6-3.1-9.5  C506.8,237.2,506.4,235.7,506.8,233.4z" style="fill:#001A92;"/><path d="M518.3,219.5c1.3,4,2.6,7.9,3.9,11.9c0.7,2.1,1.2,4.1,1.8,6.2c0.4,1.4,1,2.5,1.9,3.6  c1.5,1.6,1.2,2,0,3.7c-2.1,2.9-5.4,2.5-8.2,3.3c-0.6,0.2-0.8-0.2-0.9-0.8c-1.2-5.1-0.5-10.2-0.1-15.3c0.1-1.2,0.6-2.2,1.5-3.1  c0.7-0.7,1.2-1.7,0.7-2.6C517.5,224.3,518,221.9,518.3,219.5z" style="fill:#001A92;"/><path d="M511.6,255.3c0.1-3.3,0.4-3.6,3.6-4.3c2.9-0.6,5.7-1.2,8.6-1.8c1.3-0.3,2.3-1,3.1-2  c0.3-0.3,0.4-1,0.9-0.8c0.6,0.2,0.7,0.9,0.6,1.4c-0.2,0.8-0.6,1.6-0.9,2.3c-0.7,1.8-0.1,2.6,1.8,2.8c1.1,0.1,3.1,2,3.1,3.2  c0.1,1.1-1.1,1.6-1.7,2.3c-0.4,0.5-0.7,0.1-0.9-0.1c-0.6-0.5-1.2-1.1-1.6-1.9c-0.8-1.4-2-1.8-3.5-1.4c-3.4,0.8-6.9,1.6-10.3,2.4  C511.6,258.2,511.6,258.2,511.6,255.3z" style="fill:#001A92;"/><path d="M508.9,274.3c-0.2,1-0.5,2.1-0.8,3.3c-0.3,1.3-0.1,2.3,1.5,2.5c1,0.1,1.3,0.6,1,1.6  c0,0.1,0,0.1,0,0.2c0.8,4.2-0.7,7.9-2.2,11.7c-0.2,0.4-0.2,0.9-0.8,0.7c-1.1-0.3-2.2-0.4-3.2-0.9c-2.3-1.3-2.5-2.8-0.6-4.5  c1.5-1.4,1.8-3.6,3.6-4.7c0.4-0.3,0-0.6-0.2-0.8c-0.9-1.1-1.6-2.3-2.7-3.1c-1.6-1.2-2-2.6-1.7-4.4c0.2-1.3,0.3-2.5,0.7-3.7  c0.3-0.8,0.7-1,1.5-0.6c1,0.5,2,0.9,3,1.3C508.5,272.9,508.9,273.4,508.9,274.3z" style="fill:#001A92;"/><path d="M513.9,269c-0.6-2.5-1.1-4.9-1.6-7.3c-0.2-1.1,0.3-1.8,1.3-1.9c2.6-0.3,5.2-1,7.7-1.8  c1-0.3,1.7,0,1.8,1.2c0.2,1.1,0.5,2.3,0.7,3.4c0.1,0.7,0.2,1.6-0.8,1.7c-3.4,0.5-6.3,1.9-8.6,4.4C514.3,268.8,514.1,268.9,513.9,269  z" style="fill:#001A92;"/><path d="M494.9,307.2c-0.7-0.4-1.1-0.8-1.5-0.8c-2.1,0.2-1.5-1-1.1-2.1c0.1-0.4,0.2-0.7,0.4-1.1  c0.8-2.3,0.5-2.7-1.8-3.2c-0.5-0.1-1-0.2-1.4-0.5c-1.8-1.2-3.3-2.8-4.9-4.3c-0.3-0.3-0.8-0.8,0.2-1c3.9-0.7,7.8-1.5,11.9-2.2  c-0.7,1.7-1.9,2.6-2.7,3.8c-0.7,1-0.9,1.9,0,3c1.1,1.3,1.1,3,0.9,4.6C494.8,304.6,494.7,305.8,494.9,307.2z" style="fill:#001A92;"/></svg>