<svg height="612px" id="Layer_1" style="enable-background:new 0 0 612 612;" version="1.1" viewBox="0 0 612 612" width="612px" x="0px" xml:space="preserve" xmlns="http://www.w3.org/2000/svg" xmlns:xlink="http://www.w3.org/1999/xlink" y="0px"><path d="M389.9,350.8c-0.8,1.2-1.4,1.9-1.9,2.8c-0.5,0.7-1,1.6-0.9,2.5c0.4,2.8-1.3,4.8-2.4,7  c-0.6,1.3-1.3,2.5-1.1,3.9c0,0.4,0,0.8-0.4,1c-1.6,0.7-1.9,2.2-2.4,3.6c-0.7,1.9-1.2,3.9-2.2,5.7c-0.4,0.6-0.3,1.3,0,1.9  c0.2,0.5,0.5,1,0.7,1.5c0.9,2.2,0,3.7-2.4,3.7c-3,0.1-6,0.1-9,0.2c-3.5,0.1-7,0.1-10.5,0.3c-1.2,0-1.7-0.3-1.5-1.5  c0.1-0.5,0-1,0-1.5c0.1-2.9-0.2-3.3-3-3.4c-1.2-0.1-1-0.8-1-1.5c0-4.6-0.1-9.2,0-13.8c0.1-4.6-0.4-9.2-1.1-13.7  c-0.5-2.8-0.5-2.8,2.4-2.9c10.4-0.4,20.8-0.6,31.2-1.3c0.7,0,1.5-0.4,1.9,0.5c0.3,0.8-0.4,1.2-0.8,1.7c-0.2,0.3-0.4,0.5-0.6,0.8  c-0.5,0.9-1.2,2-0.8,2.8c0.4,0.7,1.6,0.1,2.5,0C387.7,350.9,388.6,350.9,389.9,350.8z" style="fill:none;stroke:red;stroke-width:0.0001px"/><path d="M472,444.1c-2,2.3-3,2.2-4.6-0.4c-0.9-1.4-1.3-2.9-0.6-4.6c0.1-0.4,0.2-0.7,0.3-1.1  c0.6-2.2,0.3-2.9-1.9-3.3c-1.7-0.3-1.8-1-1.5-2.5c0.7-2.8,0.2-5.5-1-8.1c-0.5-1.1-1.2-2.1-2.4-2.4c-2.2-0.6-3.5-2.2-4.9-3.8  c-1.1-1.4-2.2-2.9-3.7-3.8c-2.5-1.6-5.1-3-7.8-0.5c-0.3,0.3-0.6,0.2-0.9,0.1c-0.7-0.1-1.3,0-1.8,0.5c0.1,0.5,0.5,0.6,0.8,0.8  c0.7,0.4,0.5,0.8,0,1.1c-1.1,0.6-2.3,1.1-3.4,1.7c-0.6,0.3-1,0-1.2-0.5c-0.6-1.4-1.5-2.6-2.6-3.7c-0.8-0.8-0.3-1.8-0.2-2.7  c-0.5-0.1-0.8,0.2-1.1,0.4c-0.9,0.5-1.9,0.4-2.9,0.8c-1.4,0.6-1.4-0.9-2-1.4c-1.1-0.9-2.2-0.8-3.3-0.4c-2,0.9-3.8,1.4-5.7-0.2  c-1-0.8-1.6,0.2-2.2,1.1c0.2-1.4-0.5-2.2-1.4-2.8c-0.3-0.2-0.6-0.5-0.5-0.9c0.1-0.5,0.6-0.5,1-0.5c6.4-0.3,12.7-1.1,19-1.9  c1.2-0.1,2.1,0,2.4,1.5c0.3,1.3,1.3,1.5,2.5,1.4c6.9-0.4,13.8-0.8,20.8-1.2c1.1-0.1,2-0.1,2.4,1.2c0.3,0.9,1,0.9,1.8,0.8  s1.2-0.5,1.3-1.3c0.1-1,0.4-2,0.1-3c-0.4-1.1,0.2-1.1,0.9-1c1.1,0.1,1.7,0.8,2,1.7c1.7,6,4.7,11.3,8,16.5c1.7,2.7,2.4,5.9,3.9,8.8  c1.9,3.6,3.7,7.1,5.9,10.6c3,4.9,3.6,10.4,2.9,16c-0.2,1.4-0.5,2.8-0.7,4.3c-0.2,1.6-1.2,2.4-2.7,1.9c-1.8-0.6-3.6-1.6-3.9-3.5  c-0.5-2.7-2.2-3.2-4.4-3.3c-0.6-0.1-1.1-0.1-1.4-0.8c-0.6-1.7-1.8-3-2.9-4.4c-1.2-1.5-1.9-3.1-1.4-5.1  C472.9,445.5,472.5,444.8,472,444.1z" style="fill:none;stroke:red;stroke-width:0.0001px"/><path d="M397.2,415.1c-1.3-2.1-2.6-4-1.6-6.7c0.5-1.4-0.8-1.6-1.9-1.6c-2.1,0.1-4.2,0.2-6.3,0.4  c-2.4,0.1-4.9,0.2-7.3,0.4c-1.2,0.1-1.5-0.2-1.2-1.4c0.7-3,1.7-5.9,3.1-8.5c1.2-2.2,1.3-4.3,0.7-6.7c-1.1-4.3-1.2-8.6-1.3-13  c-0.1-2.1,1-4.1,2.1-5.9c1.2-2,2.3-4,2.8-6.3c0.5-2.1,1.9-3.3,4.1-3.4c4.3-0.3,8.5-0.6,12.8-1c1.5-0.1,1.5,0.7,1.5,1.7  c-0.1,7.4,0.1,14.7-0.3,22.1c-0.5,8.8,0.4,17.6,1.7,26.3c0.2,1.5-0.3,1.7-1.5,1.7c-0.9,0-1.9,0-2.8,0  C399.5,413.3,399,413.5,397.2,415.1z" style="fill:none;stroke:red;stroke-width:0.0001px"/><path d="M375.6,410.1c4.4-0.3,8.8-0.6,13.2-0.8c0.4,0,0.8-0.1,1.2-0.1c0.9,0,2.1-0.4,2.8,0  c0.7,0.4,0,1.6,0.2,2.4c0.2,0.6,0.3,1.3,0.6,1.9c0.2,0.6,0.6,1.2,0.9,1.9c-0.8,0.3-1.4-0.3-1.9-0.6c-1-0.5-2.1-0.8-2.9,0.1  c-0.9,1-2,2-1.6,3.6c0.3,1.2,1.2,1.9,2.3,1.7c2.3-0.5,3.9,0.7,5.6,1.9c-0.4,0.8-1.6,1-1.8,2.1c-0.1,0.6-0.8,0.2-1.1,0  c-0.8-0.6-1.6-1.1-2.4,0c-0.8,1-0.2,1.7,0.6,2.4c0.3,0.2,0.4,0.5,0.2,0.9c-1.7-0.6-3.4-1-4.9,0.5c-0.3,0.3-0.5,0-0.7-0.1  c-1.3-1.1-2.9-1.6-4.4-2.3c-1.1-0.5-2-1.1-2.6-2.2c-0.9-1.5-2.4-1.8-4.1-1.5c-1.5,0.2-2.5,0.9-2.5,2.5c0,0.8-0.7,0.6-1.1,0.5  c-1.5-0.2-3-0.7-4.5-1.2c-2.2-0.8-4.4-1.5-6.8-0.9c-0.9,0.2-1.1-0.2-0.8-1c0.8-1.7,0.6-3.5,0.3-5.2c-0.1-0.7-0.2-1.4,0.2-2.1  c2.1-3.4,1.7-6.8-0.1-10.1c-2.6-4.8-3.9-9.9-3.7-15.3c0-1.6,0.6-2.1,2.1-2.1c6.5-0.1,13-0.2,19.5-0.5c1.4-0.1,2.1,0.5,2.2,1.8  c0.1,1.5,0.2,3,1.1,4.3c0.1,0.1,0.2,0.4,0.1,0.4c-1.8,1.9-0.9,4.7-2.6,6.7s-2.4,4.6-1.9,7.3C376.6,408.2,375.5,408.9,375.6,410.1z" style="fill:none;stroke:red;stroke-width:0.0001px"/></svg>