<svg height="612px" id="Layer_1" style="enable-background:new 0 0 612 612;" version="1.1" viewBox="0 0 612 612" width="612px" x="0px" xml:space="preserve" xmlns="http://www.w3.org/2000/svg" xmlns:xlink="http://www.w3.org/1999/xlink" y="0px"><path d="M387.5,348.7c0.2-0.4,0.5-0.7,0.7-1.1c1.3-2.3,0.1-4.5-2.6-4.4c-7,0.3-14.1,0.6-21.1,0.9  c-4,0.2-8,0.3-12,0.4c-2.1,0-2.6-0.5-2.6-2.5c-0.1-6.7-0.1-13.4-0.2-20.1c0-2.2-0.1-4.3-0.1-6.5c0-1.1-0.4-1.9-1.3-2.5  c-1.9-1.3-2.4-2.9-1.6-5.2c0.8-2.5,0.8-2.5-1.7-3.1c-0.3-0.1-0.6-0.2-0.7-0.4c-1.2-2-2.4-3.9-3.6-6c1.7-0.2,3.1,0,4.6,0  c7.7,0.1,15.3-0.1,22.9-0.6c0.7,0,1.4-0.1,2.1,0c1.3,0.2,2.1,1,2,2.4c-0.4,4.4,1.5,7.8,4.8,10.6c1.4,1.2,2.4,2.7,2.6,4.7  c0.2,1.9,1.2,2.4,2.8,1.5c1.3-0.7,1.6-0.2,1.5,1s-0.4,2.3-0.6,3.4c-0.6,3.2-0.2,4.3,2.6,6.2c0.6,0.4,1.1,0.8,1.7,1.1  c2.2,1.2,3.1,3,3.2,5.4c0.1,2,0.6,3.8,2.6,4.8c1.2,0.6,0.7,1.7-0.1,2.4c-2.1,1.9-3.3,4-3.4,6.9C390.1,349.4,388.5,348.3,387.5,348.7  z" style="fill:none;stroke:red;stroke-width:0.0001px"/><path d="M350,367.5c0,3.2,0,5.9,0,8.6c0,0.4,0.1,0.8-0.3,1c-0.5,0.2-0.9,0-1.2-0.4c-0.6-0.9-1.6-1.1-2.4-1.8  c-1-0.9-2.1-1.1-3.3-0.3c-0.5,0.4-1.1,0.5-1.8,0.4c-1.9-0.2-3.6-0.2-5.3,0.9c-1,0.6-1.9,0.1-2.7-0.6c-1.5-1.2-3.1-1.7-5-0.5  c-0.9,0.6-2.3,0-3.5-0.3c-1-0.3-1.9-0.7-2.9-0.5c-0.5,0.1-0.7-0.2-0.9-0.5c-1.1-1.5-2.7-1.8-4.3-1.7c-1.5,0.1-3-0.2-4.4-0.6  c-0.9-0.2-1.5-0.7-1.8-1.5c-0.4-1.2-1.3-1.5-2.4-1.5c-3.3-0.1-4.1-1.2-3.9-4.5c0.3-5.7,0.6-11.5,0.8-17.3c0.1-2.1-0.6-2.7-2.9-2.9  c-6.6-0.4-13.3-0.8-19.9-1.1c-2.9-0.1-2.4-0.7-2.3-3.1c0-1,0.9-0.8,1.5-0.8c6.2,0.4,12.5,0.8,18.7,1.1c15.4,0.7,30.8,1,46.2,0.8  c1.5,0,2,0.2,2,1.8c0.1,5.3,1.2,10.5,1.8,15.8C350.2,361.4,350.2,364.7,350,367.5z" style="fill:none;stroke:red;stroke-width:0.0001px"/><path d="M406.9,378c0-5.4,0-10.2,0-14.9c0-1.5,0.4-2.2,2-2.3c5.3-0.3,10.5-0.8,15.7-1.3  c1.3-0.1,1.7,0.1,2.1,1.5c1.8,7.1,3.7,14.1,5.7,21.2c0.4,1.5,1.1,3,2,4.4c0.6,0.9,0.9,2,0.6,3c-1,3.6-0.2,7,0.4,10.5  c0.5,2.8,0.5,2.9-2.3,3.3c-5.8,0.8-11.7,1.3-17.5,1.7c-1,0.1-2.1-0.1-2.5,1.1c-0.4,1.3-0.4,2.7,1,3.6c1,0.6,1.1,1.4,1,2.4  c0,0.7-0.1,1.3-0.9,1.4s-1.2-0.4-1.3-1.2c-0.2-1.3-0.6-2.4-1.6-3.4c-0.8-0.8-1.4-1.1-1.7,0.4c-0.2,0.9-0.3,1.7-0.5,2.6  c-0.1,0.3,0.1,0.9-0.5,0.8c-0.5-0.1-0.5-0.6-0.5-0.9c-0.3-2.4-0.5-4.8-0.8-7.3C406.3,395.5,406.3,386.4,406.9,378z" style="fill:none;stroke:red;stroke-width:0.0001px"/><path d="M457,336.7c-0.8,3.1-3.3,4.3-5.9,5.1c-1.2,0.4-2.3,0.8-2.9,2c-1.3,2.6-3.4,4.2-6.1,5  c-1,0.3-1.8,0.8-2.1,1.9c-0.2,0.9-1.1,1.4-1.6,2.1c-0.4,0.5-1,1.1-1,1.7c-0.1,1.9-1.4,1.9-2.7,2c-10.1,1.1-20.3,2-30.5,2.7  c-4.4,0.3-8.8,0.8-13.2,1.1c-1.5,0.1-1.7-0.4-1.6-1.6c0.1-1,0.4-1.9,0.9-2.8c1.5-3.3,2.8-6.6,3-10.3c0.1-0.9,0.5-1,1.2-1.1  c3.1-0.2,6.2-0.4,9.3-0.7c1-0.1,1.9-0.1,2-1.4c0.1-0.9,0.9-0.5,1.3-0.6c5.7-0.5,11.5-1.1,17.2-1.5c10.4-0.8,20.9-1.7,31.2-3.6  C455.9,336.6,456.4,336.4,457,336.7z" style="fill:none;stroke:red;stroke-width:0.0001px"/><path d="M414.3,329.6c0.3-0.8,0.4-1.6,0.8-2.3c1-1.6,1.5-4,4.4-2.9c1.2,0.4,2.1-0.5,2.1-1.7s0.6-2.1,1.4-2.9  c0.4-0.4,0.9-0.9,0.9-1.3c0.4-2.6,2.4-3.3,4.4-4.1c1.1-0.4,1.5-1.2,1.3-2.3c-0.1-0.4-0.7-1-0.1-1.3s1.6-0.2,2,0.4  c2.9,4.5,7.4,3.3,11.5,3.2c1.8,0,3.1,0.4,3.2,2.3c0.2,3.3,1.9,5.7,4.3,7.8c1.5,1.3,1.5,1.5-0.1,2.7c-1.5,1.1-2.6,2.6-3.6,4.1  c-2.4,4-6.1,5.7-10.5,6c-7.3,0.6-14.7,1.1-22,1.7c-3.3,0.2-6.5,0.9-9.8,0.7c-0.7-0.1-1.3,0.3-1.3,1c0.1,1.2-0.6,1.3-1.5,1.3  c-1.4,0.1-2.9,0.1-4.3,0.3c-1,0.1-1.4-0.2-1.3-1.3c0.1-1,0.1-2.1,0.1-3.2c0.1-1.8,0.2-1.9,1.8-1.2c0.9,0.4,1.8,1.3,2.9,0.4  c1-0.9,0.8-1.9,0.3-3c-0.3-0.8,0.3-0.9,0.8-1.1c1.4-0.6,3-1.1,1.8-3.2c-0.3-0.6,0.3-1,0.7-1.3c1.6-1.1,3.3-1.6,5.2-0.9  c1.2,0.5,2.1,0.6,2.6-0.9c0.1-0.3,0.3-0.7,0.7-0.6c0.4,0.1,0.7,0.5,0.7,0.8c0.1,0.9,0,1.9,0,2.8C414,329.6,414.1,329.6,414.3,329.6z  " style="fill:none;stroke:red;stroke-width:0.0001px"/><path d="M471.9,378c-1,2.4,0.4,4.7,0.5,7.1c-0.1,0.1-0.3,0.1-0.4,0.2c-0.6-1-1.3-1.9-1.9-3  c-2.9-6-7.7-10.3-12.6-14.6c-1.9-1.7-3.7-3.4-4.7-5.7c-0.6-1.4-1.9-1.4-2.9-1.9c-2-1.1-2.3-2.4-0.3-3.7c2.2-1.5,4.5-2.9,7.2-3.3  c2.5-0.3,5-0.8,7.6-0.5c1.5,0.2,2.8,0.5,3.2,2.3c0.2,0.8,0.7,1,1.5,0.9c2.1-0.4,4.3-0.5,6.4-1.1c1.5-0.4,2.8-0.1,4.1,0.9  c2.6,2,5.1,4.1,7.7,6.1c0.5,0.4,0.9,0.8,0.3,1.5c-2,2.1-2.8,4.8-3.6,7.6c-0.3,1-0.5,1.7-1.8,2c-1.2,0.3-2,1.7-3.4,2  c-0.4,0.1-0.2,0.8-0.2,1.2c0,0.7,0.1,1.3,0.1,2c0,0.6-0.5,0.9-1,1s-0.5-0.4-0.8-0.7c-0.4-0.5-0.4-1.7-1.2-1.5  c-0.9,0.2-0.7,1.1-0.6,1.9c0.1,1-1.1,1.1-1.7,1.5c-0.5,0.3-0.6-0.6-0.9-0.9C472.4,378.7,472.4,378.2,471.9,378z" style="fill:none;stroke:red;stroke-width:0.0001px"/><path d="M460.4,296.1c0.9,1.8,2.2,2,3.6,1.8c0.8-0.1,1.5-0.2,2.3-0.3c2.9-0.5,2.8-1.1,3.4,2.7  c0.2,1.2,0.4,2.4,0.7,3.9c1.7-1.9,3.3-3.6,4.8-5.3c0.7-0.8,1.5-1.2,2.6-1c0.7,0.1,1,0.3,0.9,1c-0.4,2.4-0.7,4.8-3.4,5.8  c-0.9,0.3-1,1.3-1.1,2.1c-0.1,0.9-0.3,1.8-0.7,2.7c-0.4,0.1-0.5-0.2-0.7-0.3c-1.5-1.3-2.7-0.9-3,1.1c-0.5,3.1-1.3,6-2.8,8.8  c-0.3,0.5-0.5,1.1-0.5,1.6c0.3,1.8-0.8,2.4-2.1,2.8c-1.1,0.4-2.1,0.7-2.6,1.9c-0.3,0.7-0.9,0.6-1.4,0.3c-0.9-0.5-1.6-0.1-2.1,0.7  c-0.7,1-1.4,1.2-2.1-0.1c-0.8-1.5-2.2-2.5-3.6-3.3c-1.9-1.2-2.8-3.1-3.7-5c-0.4-0.9,0-1.7,0.8-2.3c1.6-1.2,2.2-2.7,1.6-4.6  c-0.2-0.6,0-0.8,0.7-0.9c1.6-0.2,2.5-1.1,2.2-2.9c-0.2-1.3,0.4-2.4,1.4-3C458.4,302.4,460,299.9,460.4,296.1z" style="fill:none;stroke:red;stroke-width:0.0001px"/></svg>