<svg id="Layer_1" style="enable-background:new 0 0 465.433 458.521;" version="1.1" viewBox="0 0 465.433 458.521" x="0px" xml:space="preserve" xmlns="http://www.w3.org/2000/svg" xmlns:xlink="http://www.w3.org/1999/xlink" y="0px"><path d="M218.664,137.936c-0.591,0.249-1.187,0.487-1.785,0.719c-1.577,0.61-3.171,1.173-4.773,1.712  c-1.466,0.493-2.939,0.966-4.416,1.426c-1.966,0.613-3.939,1.203-5.916,1.78c-2.076,0.606-4.157,1.198-6.24,1.781  c-2.102,0.589-4.207,1.17-6.313,1.747c-2.062,0.565-4.125,1.127-6.188,1.69c-1.954,0.533-3.908,1.068-5.86,1.609  c-1.759,0.487-3.516,0.98-5.269,1.487c-1.495,0.432-2.986,0.876-4.474,1.332c-1.244,0.382-2.485,0.773-3.723,1.173  c-1.019,0.33-2.036,0.666-3.051,1.008c-0.966,0.326-1.93,0.656-2.895,0.986c-0.421,0.144-0.842,0.287-1.264,0.428  c-0.269,0.09-0.539,0.178-0.809,0.264c-0.195,0.062-0.39,0.122-0.586,0.18c-0.226,0.067-0.453,0.13-0.681,0.187  c-0.222,0.055-0.446,0.105-0.671,0.143c-0.119,0.021-0.239,0.038-0.36,0.052c-0.132,0.015-0.265,0.025-0.398,0.029  c-0.181,0.006-0.363,0.001-0.544-0.016c-0.193-0.018-0.384-0.051-0.572-0.099c-0.231-0.059-0.456-0.141-0.67-0.246  c-0.122-0.06-0.241-0.127-0.355-0.201c-0.121-0.079-0.236-0.166-0.346-0.259c-0.113-0.096-0.219-0.2-0.318-0.31  c-0.098-0.11-0.189-0.227-0.272-0.349c-0.152-0.225-0.278-0.469-0.371-0.725c-0.075-0.205-0.131-0.417-0.167-0.632  c-0.021-0.126-0.036-0.253-0.044-0.38c-0.303,0.199-0.606,0.398-0.909,0.598c-0.958,0.633-1.912,1.27-2.871,1.901  c-0.763,0.502-1.528,1.001-2.298,1.491c-0.086,0.055-0.172,0.109-0.258,0.164c0.529,1.276,0.954,2.594,1.3,3.931  c0.417,1.611,0.717,3.25,0.931,4.9c0.175,1.356,0.292,2.719,0.36,4.084c0.065,1.31,0.086,2.623,0.068,3.935  c-0.018,1.277-0.072,2.554-0.15,3.829c-0.082,1.337-0.19,2.672-0.293,4.008c-0.056,0.732-0.111,1.464-0.16,2.196  c-0.078,1.173-0.141,2.348-0.175,3.523c-0.038,1.292-0.041,2.585-0.008,3.877c0.022,0.862,0.061,1.724,0.112,2.585  c0.095,1.593,0.232,3.183,0.4,4.769c0.071,0.669,0.147,1.337,0.228,2.004c46.593-9.639,56.707-14.541,62.19-18.464  c9.645-6.901,4.964-10.775-0.282-14.77c-2.124-1.617-4.34-3.255,11.64-10.961C218.991,151.345,218.828,144.64,218.664,137.936z" style="fill:none;stroke:red;stroke-width:0.0001px"/><path d="M240.484,90.966c0.095,0.028,0.19,0.057,0.285,0.086c0.67,0.205,1.334,0.427,1.994,0.664  c1.003,0.36,1.994,0.754,2.975,1.171c0.548,0.233,1.093,0.474,1.633,0.725c0.711,0.33,1.414,0.679,2.1,1.057  c0.458,0.252,0.909,0.518,1.348,0.802c0.419,0.272,0.827,0.562,1.215,0.878c0.192,0.156,0.379,0.319,0.558,0.489  c0.091,0.086,0.18,0.174,0.267,0.264c0.088,0.091,0.175,0.185,0.258,0.28c0.174,0.199,0.336,0.408,0.483,0.627  c0.105,0.155,0.202,0.315,0.291,0.479c0.144,0.267,0.265,0.547,0.358,0.836c0.102,0.318,0.169,0.647,0.199,0.979  c0.031,0.354,0.018,0.712-0.039,1.062c-0.055,0.34-0.152,0.673-0.285,0.99c-0.066,0.157-0.141,0.31-0.224,0.459  c0.988,0.072,1.973,0.182,2.949,0.345c0.873,0.145,1.739,0.333,2.592,0.568c0.714,0.197,1.419,0.429,2.111,0.695  c0.719,0.277,1.424,0.593,2.109,0.946c0.354,0.182,0.704,0.375,1.047,0.577c0.174,0.102,0.346,0.207,0.517,0.314  c0.175,0.109,0.349,0.221,0.521,0.335c0.696,0.463,1.364,0.967,1.992,1.518c0.36,0.316,0.707,0.647,1.034,0.997  c0.145,0.155,0.286,0.315,0.423,0.478c0.138,0.165,0.271,0.333,0.399,0.506c0.263,0.356,0.501,0.731,0.704,1.124  c0.129,0.249,0.244,0.504,0.342,0.767c0.176,0.474,0.297,0.969,0.345,1.472c0.026,0.273,0.031,0.547,0.014,0.821  c-0.018,0.285-0.06,0.569-0.125,0.847c-0.067,0.284-0.16,0.563-0.276,0.831c-0.116,0.268-0.255,0.526-0.415,0.771  c-0.079,0.121-0.163,0.239-0.251,0.354c-0.088,0.113-0.18,0.224-0.276,0.33c-0.189,0.21-0.394,0.406-0.61,0.588  c-0.129,0.108-0.262,0.212-0.398,0.31c-0.226,0.164-0.462,0.315-0.704,0.453c-0.5,0.286-1.029,0.52-1.57,0.719  c-0.576,0.212-1.166,0.384-1.761,0.532c-0.316,0.079-0.633,0.151-0.951,0.218c-0.333,0.07-0.667,0.135-1.002,0.195  c-0.717,0.129-1.437,0.238-2.158,0.336c-0.777,0.105-1.555,0.196-2.335,0.277c-0.828,0.087-1.658,0.163-2.487,0.233  c-0.868,0.073-1.737,0.139-2.607,0.2c-0.897,0.063-1.794,0.122-2.691,0.178c-2.183,0.136-4.367,0.259-6.551,0.392  c-0.86,0.052-1.721,0.106-2.581,0.164c0.211,8.63,0.422,17.261,0.633,25.894c9.668-3.985,21.836-8.802,37.106-14.65  c-0.236-0.436-0.468-0.874-0.695-1.315c-0.525-1.016-1.026-2.044-1.499-3.085c-0.513-1.13-0.991-2.276-1.422-3.44  c-0.329-0.889-0.631-1.788-0.895-2.699c-0.241-0.83-0.45-1.67-0.616-2.518c-0.152-0.776-0.266-1.56-0.327-2.349  c-0.029-0.371-0.046-0.743-0.048-1.114c-0.003-0.363,0.008-0.726,0.036-1.087c0.053-0.703,0.167-1.402,0.365-2.078  c0.211-0.719,0.516-1.411,0.922-2.041c0.184-0.286,0.389-0.558,0.612-0.815c0.219-0.252,0.456-0.488,0.708-0.706  c0.247-0.213,0.508-0.41,0.782-0.588c0.267-0.174,0.544-0.33,0.83-0.468c0.517-0.25,1.061-0.443,1.618-0.584  c0.575-0.145,1.164-0.234,1.756-0.277c0.582-0.042,1.166-0.04,1.747-0.003c0.579,0.037,1.156,0.11,1.728,0.212  c0.571,0.101,1.137,0.231,1.697,0.386c0.558,0.154,1.109,0.332,1.652,0.532c1.065,0.392,2.1,0.866,3.091,1.42  c0.478,0.267,0.945,0.553,1.398,0.86c0.8,0.544,1.555,1.155,2.256,1.822c0.327,0.311,0.642,0.633,0.947,0.965  c0.281,0.306,0.554,0.62,0.82,0.94c0.24,0.29,0.475,0.584,0.706,0.881c0.22,0.282,0.436,0.565,0.655,0.848  c0.178,0.229,0.356,0.458,0.54,0.682c0.146,0.177,0.295,0.352,0.451,0.52c0.12,0.128,0.244,0.252,0.376,0.368  c0.093,0.081,0.19,0.158,0.294,0.225c0.039,0.025,0.08,0.049,0.121,0.071c0.036,0.019,0.073,0.037,0.111,0.053  c0.077,0.032,0.157,0.055,0.238,0.072c0.05,0.01,0.101,0.018,0.152,0.024c0.071,0.008,0.142,0.015,0.213,0.019  c0.198,0.013,0.397,0.013,0.595,0.007c0.266-0.007,0.532-0.023,0.797-0.042c0.366-0.026,0.731-0.059,1.096-0.091  c0.392-0.034,0.785-0.068,1.177-0.098c0.425-0.032,0.85-0.059,1.276-0.077c0.136-0.006,0.272-0.011,0.409-0.015  c-0.043-0.048-0.085-0.096-0.128-0.144c-2.984-3.35-6.111-6.57-9.316-9.71c-1.711-1.677-3.445-3.33-5.196-4.965  c-1.926-1.798-3.873-3.573-5.835-5.331c-2.13-1.908-4.279-3.797-6.441-5.669c-2.343-2.029-4.703-4.039-7.074-6.035  c-1.287-1.084-2.578-2.163-3.872-3.238c-2.783-0.567-5.556-1.181-8.323-1.826c-3.753-0.875-7.493-1.806-11.226-2.763  c-3.656-0.937-7.307-1.898-10.956-2.863c0.037,1.499,0.073,2.997,0.11,4.496c0.945-0.023,1.889-0.046,2.834-0.069  c0.024,0.992,0.048,1.984,0.073,2.976C240.366,86.137,240.425,88.551,240.484,90.966z" style="fill:none;stroke:red;stroke-width:0.0001px"/></svg>