<svg id="Layer_1" style="enable-background:new 0 0 465.433 458.521;" version="1.1" viewBox="0 0 465.433 458.521" x="0px" xml:space="preserve" xmlns="http://www.w3.org/2000/svg" xmlns:xlink="http://www.w3.org/1999/xlink" y="0px"><path d="M190.403,353.459c-0.712-0.084-1.422-0.182-2.13-0.293c-0.82-0.129-1.637-0.275-2.448-0.45  c-0.654-0.141-1.304-0.301-1.947-0.487c-0.599-0.174-1.192-0.371-1.772-0.598c-0.554-0.217-1.098-0.461-1.625-0.736  c-0.512-0.267-1.009-0.563-1.487-0.888c-0.47-0.319-0.921-0.666-1.352-1.035c-0.388-0.332-0.76-0.682-1.118-1.044  c-0.322-0.325-0.633-0.661-0.937-1.003c-0.133,0.44-0.281,0.877-0.444,1.307c-0.076,0.199-0.155,0.398-0.237,0.594  c-0.098,0.234-0.202,0.465-0.31,0.694c-0.226,0.475-0.475,0.939-0.751,1.387c-0.328,0.534-0.694,1.045-1.101,1.522  c-0.379,0.444-0.793,0.858-1.243,1.23c-0.475,0.393-0.989,0.74-1.535,1.028c-0.284,0.15-0.577,0.284-0.877,0.401  c-0.308,0.12-0.622,0.222-0.942,0.306c-0.327,0.086-0.659,0.152-0.994,0.199c-0.333,0.047-0.669,0.075-1.005,0.087  c-0.332,0.012-0.664,0.007-0.996-0.011c-0.33-0.018-0.659-0.049-0.987-0.091c-0.328-0.043-0.654-0.097-0.979-0.162  c-0.631-0.125-1.254-0.287-1.868-0.478c-0.64-0.199-1.27-0.43-1.889-0.686c-0.619-0.256-1.227-0.537-1.824-0.841  c-0.589-0.3-1.166-0.622-1.73-0.966c-0.368-0.224-0.729-0.457-1.085-0.7c-0.516-0.352-1.018-0.724-1.502-1.12  c-0.507-0.415-0.994-0.857-1.448-1.329c-0.552-0.574-1.056-1.194-1.504-1.852c-0.194-0.285-0.377-0.576-0.549-0.874  c-0.147-0.253-0.286-0.51-0.419-0.77c-0.152-0.3-0.296-0.604-0.435-0.91c-0.262,0.041-0.526,0.074-0.791,0.097  c-0.31,0.028-0.621,0.044-0.932,0.046c-0.357,0.003-0.714-0.012-1.07-0.044c-0.332-0.03-0.664-0.074-0.992-0.131  c1.244,1.003,2.477,2.022,3.699,3.053c1.529,1.289,3.042,2.598,4.54,3.922c1.575,1.391,3.134,2.801,4.678,4.227  c1.582,1.462,3.148,2.942,4.695,4.441c1.533,1.486,3.048,2.991,4.54,4.518c1.077,1.103,2.142,2.219,3.192,3.348  c1.328,1.428,2.631,2.879,3.898,4.362c1.13,1.322,2.23,2.669,3.281,4.054c5.016,1.218,9.489,2.151,13.002,2.61  c17.079,2.232,11.444-6.72,4.434-18.064C193.544,358.792,191.91,356.139,190.403,353.459z" style="fill:none;stroke:red;stroke-width:0.0001px"/><path d="M64.293,295.01c0.924,0.985,1.851,1.969,2.779,2.951c2.65,2.804,5.314,5.594,7.995,8.368  c1.689,1.747,3.386,3.487,5.091,5.219c2.272,2.308,4.56,4.602,6.866,6.877c2.047,2.019,4.108,4.023,6.189,6.006  c1.824,1.738,3.662,3.461,5.52,5.163c1.623,1.486,3.261,2.957,4.919,4.404c1.434,1.252,2.882,2.487,4.35,3.698  c1.255,1.034,2.525,2.051,3.815,3.041c1.086,0.834,2.187,1.649,3.308,2.436c0.927,0.651,1.868,1.282,2.829,1.882  c0.412,0.257,0.828,0.509,1.249,0.752c0.375,0.217,0.753,0.428,1.136,0.632c0.338,0.18,0.679,0.354,1.024,0.519  c0.302,0.145,0.606,0.284,0.915,0.414c0.355,0.15,0.716,0.29,1.082,0.412c0.217,0.072,0.436,0.138,0.657,0.196  c0.183,0.048,0.367,0.09,0.552,0.124c0.149,0.027,0.299,0.049,0.449,0.064c0.117,0.011,0.235,0.018,0.353,0.018  c0.088,0,0.177-0.004,0.265-0.013c0.064-0.006,0.128-0.016,0.191-0.029c0.046-0.01,0.092-0.023,0.137-0.038  c0.035-0.012,0.07-0.026,0.104-0.042c0.065-0.031,0.127-0.071,0.185-0.115c0.066-0.051,0.128-0.107,0.183-0.17  c0.055-0.063,0.104-0.132,0.147-0.204c0.054-0.091,0.098-0.186,0.136-0.284c0.05-0.128,0.09-0.26,0.122-0.393  c0.04-0.166,0.07-0.334,0.093-0.503c0.016-0.116,0.028-0.233,0.038-0.349c0.018-0.215,0.028-0.431,0.032-0.647  c0.009-0.486-0.008-0.972-0.033-1.458c-0.029-0.566-0.069-1.131-0.091-1.698c-0.011-0.275-0.017-0.551-0.015-0.826  c0.001-0.143,0.004-0.286,0.01-0.429c0.007-0.15,0.016-0.299,0.03-0.448c0.015-0.158,0.035-0.316,0.061-0.473  c0.018-0.112,0.039-0.223,0.063-0.334c0.039-0.18,0.087-0.357,0.145-0.532c0.065-0.197,0.142-0.389,0.232-0.575  c0.103-0.212,0.223-0.416,0.359-0.608c0.152-0.214,0.326-0.414,0.517-0.594c0.204-0.192,0.428-0.361,0.668-0.505  c0.24-0.143,0.495-0.261,0.76-0.35c0.127-0.043,0.257-0.08,0.388-0.11c0.126-0.029,0.254-0.053,0.382-0.07  c0.24-0.033,0.482-0.045,0.724-0.039c0.047,0.001,0.093,0.003,0.14,0.005c-0.105-0.098-0.209-0.197-0.313-0.296  c-0.847-0.805-1.674-1.631-2.481-2.476c-0.807-0.845-1.593-1.71-2.359-2.592c-1.637-1.885-3.182-3.852-4.612-5.898  c-0.733-1.048-1.435-2.117-2.104-3.207c-0.668-1.09-1.302-2.202-1.894-3.335c-0.582-1.116-1.124-2.253-1.623-3.409  c-0.5-1.155-0.957-2.329-1.375-3.516c-0.791-2.246-1.44-4.542-1.952-6.867c-0.241-1.094-0.451-2.194-0.63-3.3  c-0.169-1.047-0.311-2.099-0.422-3.154c-0.104-0.986-0.182-1.976-0.231-2.966c-0.038-0.778-0.058-1.557-0.057-2.336  c0.001-0.842,0.028-1.684,0.086-2.524c0.052-0.752,0.129-1.502,0.244-2.247c0.062-0.399,0.134-0.797,0.221-1.192  c0.098-0.449,0.214-0.894,0.352-1.333c0.125-0.399,0.269-0.792,0.434-1.176c0.077-0.18,0.159-0.358,0.246-0.533  c0.083-0.168,0.171-0.334,0.263-0.497c0.173-0.305,0.361-0.601,0.566-0.885c0.16-0.222,0.331-0.437,0.512-0.642  c0.253-0.287,0.525-0.556,0.812-0.809c-0.1-0.171-0.202-0.341-0.304-0.511c-0.148-0.246-0.298-0.492-0.446-0.738  c-0.297-0.491-0.592-0.983-0.877-1.481c-0.319-0.558-0.624-1.123-0.91-1.699c-0.308-0.622-0.593-1.256-0.841-1.904  c-0.266-0.695-0.489-1.408-0.656-2.133c-0.178-0.773-0.292-1.561-0.342-2.353c-0.05-0.775-0.039-1.553,0.031-2.326  c0.069-0.761,0.197-1.516,0.382-2.258c0.182-0.73,0.42-1.447,0.715-2.139c0.291-0.684,0.637-1.344,1.038-1.969  c0.4-0.624,0.855-1.214,1.364-1.753c0.42-0.445,0.877-0.855,1.362-1.228c0.405-0.312,0.83-0.598,1.266-0.865  c0.391-0.239,0.79-0.463,1.195-0.676c0.323-0.17,0.648-0.333,0.975-0.496c0.276-0.138,0.553-0.275,0.827-0.417  c-0.083-0.143-0.168-0.286-0.252-0.428c-0.156-0.262-0.311-0.524-0.464-0.787c-0.147-0.255-0.291-0.511-0.431-0.77  c-0.198-0.369-0.387-0.743-0.561-1.124c-0.413-0.395-0.805-0.811-1.175-1.246c-0.509-0.599-0.976-1.234-1.398-1.896  c-0.395-0.62-0.75-1.264-1.068-1.926c-0.298-0.619-0.562-1.254-0.797-1.9c-0.218-0.6-0.411-1.21-0.583-1.825  c-0.155-0.559-0.293-1.122-0.417-1.688c-0.091-0.415-0.174-0.831-0.253-1.248c-0.035-0.187-0.07-0.374-0.104-0.561  c-0.342,0.249-0.689,0.492-1.043,0.724c-0.443,0.29-0.899,0.561-1.368,0.807c-0.611,0.321-1.245,0.598-1.897,0.823  c-0.356,0.122-0.718,0.229-1.084,0.318c-0.386,0.095-0.777,0.17-1.171,0.227c-0.85,0.123-1.713,0.157-2.57,0.108  c-0.953-0.055-1.898-0.213-2.823-0.451c-1.042-0.268-2.056-0.638-3.038-1.078c-0.538-0.241-1.066-0.504-1.585-0.785  c-0.548-0.296-1.085-0.613-1.611-0.947c-0.553-0.351-1.094-0.721-1.622-1.109c-0.552-0.405-1.091-0.829-1.615-1.271  c-1.11-0.935-2.154-1.949-3.121-3.031c-0.499-0.558-0.978-1.134-1.435-1.727c0.36,1.762,0.724,3.522,1.088,5.283  c0.481,2.333,0.961,4.667,1.419,7.005c0.437,2.231,0.855,4.465,1.244,6.704c0.365,2.102,0.705,4.209,1.006,6.321  c0.186,1.306,0.357,2.614,0.509,3.924c0.213,1.841,0.387,3.686,0.499,5.535c0.052,0.851,0.09,1.702,0.111,2.554  c0.02,0.803,0.024,1.606,0.008,2.41c-0.015,0.754-0.047,1.509-0.104,2.261c-0.053,0.707-0.128,1.412-0.231,2.113  c-0.108,0.735-0.247,1.465-0.429,2.185c-0.156,0.615-0.344,1.223-0.573,1.815c-0.223,0.575-0.486,1.135-0.798,1.668  c-0.312,0.532-0.672,1.037-1.085,1.495c-0.209,0.232-0.432,0.452-0.667,0.658c-0.239,0.209-0.491,0.404-0.755,0.581  c-0.534,0.358-1.115,0.646-1.724,0.852c-0.613,0.208-1.253,0.333-1.898,0.384c-0.317,0.025-0.635,0.032-0.953,0.024  c-0.305-0.008-0.61-0.029-0.913-0.06c-0.589-0.061-1.174-0.159-1.754-0.277c-0.286-0.058-0.57-0.12-0.854-0.186  c-0.281-0.065-0.56-0.132-0.84-0.2c-0.628-0.154-1.255-0.313-1.885-0.462c-0.528-0.125-1.058-0.243-1.592-0.342  c-0.501-0.094-1.005-0.171-1.512-0.221c-0.463-0.045-0.928-0.068-1.393-0.053c-0.418,0.013-0.837,0.056-1.246,0.142  c-0.385,0.08-0.763,0.197-1.123,0.356c-0.184,0.081-0.363,0.173-0.537,0.274c-0.186,0.108-0.366,0.228-0.538,0.357  c-0.19,0.142-0.372,0.296-0.545,0.458c-0.195,0.182-0.379,0.376-0.554,0.577c-0.2,0.23-0.387,0.471-0.563,0.719  c-0.202,0.285-0.391,0.579-0.568,0.88c-0.202,0.344-0.389,0.697-0.564,1.056c-0.199,0.408-0.382,0.824-0.552,1.245  c-0.193,0.476-0.369,0.958-0.532,1.444C64.686,293.601,64.479,294.303,64.293,295.01z" style="fill:none;stroke:red;stroke-width:0.0001px"/><path d="M348.383,280.305c1.775,2.807,5.388,7.104,3.633,11.773c-1.755,4.669-8.877,9.711-10.077,11.512  s3.522,0.363,6.992,2.213c3.471,1.85,5.69,6.989,2.452,12.909c-3.238,5.92-11.933,12.62-17.204,12.987  c-5.271,0.366-7.116-5.602-8.41-7.092c-1.293-1.49-2.034,1.498-8.243,5.104c-6.209,3.606-17.887,7.831-22.645,6.767  c-4.758-1.064-2.598-7.418-5.46-6.442s-10.747,9.28-15.668,12.1c-4.921,2.82-6.88,0.157-0.208-8.86  c6.672-9.017,21.973-24.388,36.399-38.906c14.426-14.518,27.977-28.185,35.298-33.039c7.32-4.854,8.41-0.896,7.62,2.828  c-0.79,3.724-3.461,7.214-4.828,9.618C346.669,276.181,346.607,277.498,348.383,280.305z" style="fill:none;stroke:red;stroke-width:0.0001px"/><path d="M337.783,48.269c55.313,120.244,51.708,135.22,46.604,137.95c-5.438,2.909-12.576-8.086-11.354,1.866  c1.222,9.952,10.804,40.851,19.025,54.607c8.22,13.756,15.079,10.368,18.299-2.112c2.545-9.867,2.816-25.416,23.966,27.433  c0.043-0.205,0.086-0.411,0.128-0.616c1.461-7.085,2.549-14.247,3.259-21.446c0.71-7.199,1.042-14.436,0.993-21.669  c-0.049-7.174-0.472-14.347-1.268-21.477c-0.792-7.093-1.951-14.145-3.473-21.118c-1.518-6.955-3.396-13.832-5.624-20.594  c-2.228-6.762-4.806-13.408-7.72-19.903c-2.922-6.512-6.181-12.872-9.762-19.046c-3.599-6.207-7.522-12.225-11.748-18.023  c-4.261-5.846-8.83-11.468-13.68-16.835c-4.766-5.273-9.804-10.3-15.088-15.054c-5.241-4.715-10.724-9.162-16.42-13.316  C348.71,55.117,343.324,51.563,337.783,48.269z" style="fill:none;stroke:red;stroke-width:0.0001px"/><path d="M124.79,151.531c0.004,0.03,0.008,0.06,0.012,0.09c0.113,0.829,0.283,1.65,0.504,2.457  c0.204,0.745,0.452,1.477,0.741,2.192c0.263,0.649,0.56,1.284,0.894,1.899c0.16,0.295,0.33,0.586,0.51,0.87  c0.178,0.28,0.368,0.553,0.571,0.815c0.208,0.269,0.431,0.527,0.67,0.77c0.249,0.252,0.516,0.488,0.799,0.701  c0.295,0.222,0.609,0.419,0.938,0.587c0.338,0.173,0.693,0.314,1.057,0.422c0.365,0.108,0.739,0.183,1.117,0.225  c0.375,0.041,0.753,0.051,1.13,0.032c0.375-0.018,0.749-0.064,1.118-0.132c0.374-0.069,0.743-0.16,1.108-0.268  c0.377-0.112,0.749-0.242,1.116-0.385c0.388-0.151,0.77-0.317,1.147-0.493c0.405-0.189,0.804-0.39,1.199-0.6  c0.333-0.177,0.663-0.36,0.991-0.547c1.888,4.826,2.352,10.638,2.257,15.618c-0.113,5.947-1.023,10.706-0.752,18.027  c0.271,7.321,1.722,17.204,3.705,25.065c1.983,7.86,4.499,13.698,4.509,20.207c0.008,5.196-1.581,10.82-5.323,14.168  c-0.001-0.001-0.002-0.003-0.003-0.004c-0.642-1.052-1.293-2.098-1.959-3.134c-0.628-0.976-1.27-1.944-1.931-2.898  c-0.62-0.896-1.258-1.781-1.922-2.645c-0.312-0.406-0.63-0.808-0.954-1.204c-0.313-0.382-0.633-0.759-0.96-1.129  c-0.614-0.693-1.256-1.362-1.939-1.986c-0.32-0.293-0.65-0.575-0.99-0.845c-0.326-0.259-0.661-0.505-1.006-0.738  c-0.33-0.222-0.669-0.432-1.016-0.626c-0.333-0.185-0.673-0.356-1.022-0.51c-0.667-0.294-1.362-0.527-2.074-0.678  c-0.678-0.144-1.371-0.216-2.064-0.205c-0.334,0.005-0.668,0.029-0.999,0.072c-0.326,0.042-0.649,0.102-0.968,0.18  c-0.615,0.151-1.213,0.37-1.782,0.647c-0.546,0.266-1.065,0.585-1.552,0.948c-0.469,0.35-0.908,0.741-1.314,1.163  c-0.394,0.41-0.757,0.849-1.088,1.311c-0.323,0.451-0.616,0.923-0.878,1.412c-0.256,0.478-0.483,0.972-0.678,1.478  c-0.191,0.496-0.352,1.003-0.478,1.519c-0.062,0.254-0.116,0.51-0.161,0.767c-0.02,0.116-0.039,0.232-0.055,0.349  c-1.481-3.225-1.752-6.481-2.182-8.222c-0.666-2.697-1.711-1.758-3.966-0.089c-2.255,1.669-5.719,4.068-11.635,1.701  c-5.917-2.366-14.286-9.497-15.748-20.673c-1.463-11.177,3.982-26.4,9.864-30.412c5.883-4.012,12.204,3.186,14.708,5.702  c2.504,2.516,1.19,0.349,0.143-4.423c-1.047-4.772-1.826-12.149,1.143-19.99C112.277,162.335,118.873,154.132,124.79,151.531z" style="fill:none;stroke:red;stroke-width:0.0001px"/></svg>