<svg id="Layer_1" style="enable-background:new 0 0 200 200;" version="1.1" viewBox="0 0 200 200" x="0px" xml:space="preserve" xmlns="http://www.w3.org/2000/svg" xmlns:xlink="http://www.w3.org/1999/xlink" y="0px"><path d="M20.632,100.717c0.035,3.882,0.35,7.71,0.95,11.546c29.056-27.094,44.022-22.671,63.41-21.198   c21.419,1.628,48.235-0.342,79.254-37.669c-4.782-6.592-10.55-12.41-17.102-17.247c-0.327,0.409-0.655,0.816-0.987,1.221   c-0.831,1.018-1.677,2.024-2.538,3.017c-1.634,1.886-3.322,3.724-5.07,5.505c-3.138,3.197-6.469,6.208-10.014,8.946   c-3.109,2.402-6.384,4.593-9.814,6.508c-3.07,1.714-6.266,3.206-9.556,4.448c-1.533,0.578-3.087,1.103-4.657,1.573   c-1.507,0.452-3.029,0.854-4.562,1.209c-2.378,0.55-4.783,0.986-7.2,1.325c-1.413,0.198-2.83,0.364-4.25,0.503   c-1.387,0.136-2.776,0.246-4.166,0.338c-1.344,0.088-2.688,0.159-4.033,0.221c-1.089,0.049-2.178,0.093-3.267,0.134   c-1.46,0.056-2.921,0.109-4.381,0.176c-2.384,0.109-4.767,0.254-7.139,0.517c-1.164,0.129-2.326,0.286-3.482,0.48   c-1.162,0.195-2.318,0.427-3.464,0.701c-1.175,0.281-2.339,0.607-3.488,0.98c-1.203,0.39-2.389,0.831-3.556,1.319   c-1.246,0.522-2.469,1.098-3.666,1.722c-1.301,0.678-2.573,1.412-3.816,2.192c-1.368,0.859-2.7,1.774-4,2.732   c-1.443,1.064-2.847,2.181-4.216,3.339c-1.527,1.291-3.011,2.633-4.458,4.012c-1.618,1.541-3.19,3.128-4.726,4.75   c-1.716,1.811-3.386,3.665-5.019,5.551C21.288,99.951,20.959,100.333,20.632,100.717z" style="fill:#5EDD78;"/></svg>