<svg id="Layer_1" style="enable-background:new 0 0 200 200;" version="1.1" viewBox="0 0 200 200" x="0px" xml:space="preserve" xmlns="http://www.w3.org/2000/svg" xmlns:xlink="http://www.w3.org/1999/xlink" y="0px"><path d="M22.209,115.761c0.664,3.277,1.526,6.48,2.596,9.647c32.473-23.873,47.456-15.081,67.67-11.378   c22.017,4.033,50.238,2.029,84.61-32.93c-2.199-8.971-5.948-17.488-11.076-25.17c-0.579,0.69-1.163,1.376-1.753,2.058   c-1.817,2.101-3.684,4.158-5.606,6.163c-0.943,0.983-1.899,1.954-2.87,2.91c-1.832,1.805-3.713,3.56-5.649,5.253   c-1.807,1.581-3.661,3.108-5.564,4.571c-1.782,1.37-3.608,2.683-5.478,3.931c-1.757,1.172-3.553,2.286-5.388,3.333   c-1.731,0.988-3.496,1.915-5.294,2.776c-1.704,0.816-3.436,1.571-5.195,2.261c-1.674,0.657-3.372,1.254-5.089,1.789   c-1.642,0.511-3.302,0.966-4.976,1.361c-1.607,0.38-3.227,0.706-4.855,0.979c-2.533,0.424-5.088,0.72-7.651,0.898   c-1.507,0.105-3.017,0.169-4.528,0.197c-1.448,0.027-2.896,0.021-4.343-0.014c-1.4-0.033-2.8-0.093-4.199-0.174   c-1.151-0.067-2.3-0.148-3.449-0.239c-1.319-0.105-2.636-0.223-3.954-0.344c-1.453-0.133-2.906-0.27-4.359-0.392   c-1.227-0.103-2.456-0.195-3.686-0.265c-1.207-0.069-2.416-0.116-3.625-0.13c-1.202-0.014-2.404,0.003-3.604,0.063   c-1.213,0.06-2.423,0.163-3.628,0.314c-1.242,0.156-2.478,0.364-3.702,0.625c-1.29,0.275-2.568,0.609-3.828,0.999   c-1.356,0.419-2.693,0.903-4.006,1.441c-1.438,0.59-2.849,1.246-4.232,1.956c-1.534,0.787-3.033,1.641-4.501,2.545   c-1.64,1.01-3.241,2.084-4.807,3.206c-1.757,1.258-3.47,2.577-5.148,3.939c-1.883,1.53-3.72,3.115-5.52,4.742   C24.405,113.694,23.301,114.721,22.209,115.761z" style="fill:#E85938;"/></svg>