<svg id="Layer_1" style="enable-background:new 0 0 200 200;" version="1.1" viewBox="0 0 200 200" x="0px" xml:space="preserve" xmlns="http://www.w3.org/2000/svg" xmlns:xlink="http://www.w3.org/1999/xlink" y="0px"><path d="M25.857,128.332c1.171,3.064,2.518,6.027,4.058,8.924c34.575-18.982,49.393-6.113,70.043-0.262   c20.003,5.668,45.477,4.753,77.146-18.17c2.742-11.233,2.997-22.93,0.747-34.271c-1.443,1.438-2.909,2.854-4.4,4.243   c-1.918,1.787-3.878,3.531-5.881,5.222c-1.884,1.59-3.807,3.135-5.771,4.625c-1.831,1.389-3.698,2.731-5.602,4.017   c-1.798,1.215-3.628,2.38-5.493,3.489c-1.783,1.06-3.596,2.069-5.44,3.018c-2.348,1.209-4.745,2.323-7.188,3.326   c-3.323,1.364-6.73,2.523-10.202,3.443c-3.194,0.847-6.443,1.491-9.719,1.921c-1.983,0.26-3.977,0.441-5.974,0.544   c-2.945,0.152-5.898,0.135-8.841-0.038c-2.777-0.164-5.546-0.466-8.296-0.884c-1.181-0.18-2.358-0.381-3.533-0.6   c-0.638-0.119-1.275-0.244-1.911-0.374c-1.248-0.254-2.493-0.524-3.736-0.803c-1.382-0.31-2.762-0.629-4.143-0.943   c-2.326-0.529-4.656-1.042-7.005-1.458c-1.151-0.204-2.307-0.386-3.466-0.534s-2.324-0.263-3.49-0.338   c-1.184-0.075-2.371-0.109-3.557-0.095c-1.224,0.014-2.449,0.079-3.668,0.196c-1.283,0.123-2.56,0.303-3.827,0.538   c-1.365,0.253-2.718,0.571-4.055,0.943c-1.456,0.406-2.894,0.879-4.311,1.406c-1.552,0.578-3.079,1.223-4.582,1.921   c-1.667,0.774-3.303,1.613-4.912,2.503c-1.792,0.991-3.549,2.045-5.276,3.146c-1.926,1.229-3.814,2.516-5.67,3.848   C27.217,127.328,26.535,127.827,25.857,128.332z" style="fill:#B95BBC;"/></svg>