<svg id="Layer_1" style="enable-background:new 0 0 200 200;" version="1.1" viewBox="0 0 200 200" x="0px" xml:space="preserve" xmlns="http://www.w3.org/2000/svg" xmlns:xlink="http://www.w3.org/1999/xlink" y="0px"><path d="M39.248,151.079c12.425,14.778,29.812,24.52,48.903,27.402c19.091,2.882,38.579-1.294,54.813-11.746   c-0.158,0.021-0.316,0.042-0.475,0.062c-3.54,0.453-7.109,0.682-10.678,0.658c-3.342-0.023-6.683-0.266-9.991-0.74   c-3.123-0.447-6.216-1.098-9.255-1.948c-1.464-0.409-2.914-0.864-4.349-1.363c-1.018-0.354-2.028-0.731-3.03-1.128   c-1.37-0.543-2.726-1.124-4.069-1.731c-2.613-1.182-5.178-2.464-7.737-3.756c-2.664-1.345-5.323-2.701-8.031-3.957   c-1.255-0.582-2.52-1.142-3.799-1.669c-1.273-0.524-2.559-1.015-3.861-1.463c-1.315-0.452-2.645-0.859-3.989-1.213   c-1.376-0.362-2.767-0.668-4.169-0.911c-1.459-0.253-2.929-0.438-4.406-0.555c-1.563-0.124-3.133-0.171-4.701-0.144   c-1.689,0.028-3.377,0.141-5.056,0.329c-1.845,0.207-3.679,0.503-5.497,0.875c-2.009,0.411-4,0.914-5.968,1.49   C42.337,150.03,40.786,150.535,39.248,151.079z" style="fill:#EA6C8D;"/></svg>