<svg id="Layer_1" style="enable-background:new 0 0 200 200;" version="1.1" viewBox="0 0 200 200" x="0px" xml:space="preserve" xmlns="http://www.w3.org/2000/svg" xmlns:xlink="http://www.w3.org/1999/xlink" y="0px"><path d="M31.361,139.857c1.778,3.062,3.739,5.973,5.908,8.771c34.993-12.784,49.502,3.532,70.172,11.33   c11.665,4.401,25.293,6.089,41.149,2.799c12.931-10.013,22.454-23.776,27.266-39.407c-1.463,1.008-2.943,1.992-4.441,2.947   c-3.57,2.277-7.243,4.397-11.02,6.311c-3.428,1.738-6.943,3.307-10.538,4.665c-3.29,1.243-6.648,2.309-10.06,3.166   c-3.17,0.796-6.385,1.412-9.627,1.825c-3.027,0.386-6.077,0.594-9.128,0.617c-2.861,0.021-5.724-0.121-8.569-0.424   c-2.706-0.288-5.396-0.721-8.057-1.291c-2.158-0.462-4.296-1.012-6.41-1.642c-1.209-0.36-2.41-0.745-3.606-1.147   c-1.168-0.393-2.33-0.801-3.489-1.218c-2.427-0.873-4.84-1.784-7.27-2.648c-2.186-0.777-4.386-1.517-6.618-2.151   c-1.108-0.315-2.224-0.604-3.347-0.859c-1.131-0.257-2.27-0.481-3.415-0.664c-1.168-0.187-2.342-0.332-3.521-0.431   c-1.219-0.102-2.442-0.156-3.665-0.158c-1.285-0.003-2.57,0.05-3.851,0.156c-1.374,0.114-2.743,0.288-4.103,0.518   c-1.47,0.248-2.929,0.561-4.374,0.93c-1.569,0.4-3.121,0.865-4.654,1.383c-1.687,0.57-3.351,1.204-4.994,1.89   c-1.814,0.757-3.601,1.578-5.364,2.448C34.26,138.303,32.803,139.065,31.361,139.857z" style="fill:#33A8CC;"/></svg>