<svg id="Layer_1" style="enable-background:new 0 0 200 200;" version="1.1" viewBox="0 0 200 200" x="0px" xml:space="preserve" xmlns="http://www.w3.org/2000/svg" xmlns:xlink="http://www.w3.org/1999/xlink" y="0px"><path d="M23.73,78.03c-1.693,5.878-2.701,11.932-3.004,18.041C44.984,68.684,59.544,68.8,77.508,68.101   c19.152-0.745,42.172-2.416,67.205-33.677c-6.692-4.563-14.043-8.075-21.798-10.413c-0.721,0.763-1.455,1.514-2.202,2.251   c-1.552,1.531-3.161,3.003-4.832,4.403c-1.554,1.303-3.16,2.543-4.817,3.711c-1.553,1.094-3.151,2.125-4.79,3.084   c-1.547,0.906-3.132,1.749-4.748,2.525c-1.536,0.738-3.101,1.415-4.689,2.033c-1.518,0.591-3.058,1.128-4.612,1.614   c-1.494,0.467-3.002,0.888-4.52,1.269c-1.463,0.367-2.936,0.697-4.414,0.999c-1.427,0.291-2.86,0.556-4.296,0.804   c-1.387,0.24-2.776,0.465-4.166,0.685c-1.548,0.245-3.098,0.485-4.645,0.738c-1.284,0.21-2.566,0.429-3.845,0.669   c-1.254,0.235-2.504,0.489-3.747,0.773c-1.228,0.281-2.45,0.592-3.661,0.941c-1.217,0.351-2.422,0.741-3.612,1.174   c-1.22,0.445-2.422,0.936-3.603,1.475c-1.237,0.565-2.45,1.182-3.636,1.848c-1.269,0.713-2.506,1.481-3.711,2.297   c-1.312,0.889-2.586,1.834-3.823,2.825c-1.365,1.093-2.685,2.241-3.966,3.431c-1.426,1.324-2.802,2.701-4.138,4.116   c-1.493,1.581-2.934,3.211-4.334,4.875C26.604,74.341,25.147,76.171,23.73,78.03z" style="fill:#4040E2;"/></svg>