<svg height="18in" id="Layer_1" version="1.1" width="32in" x="0px" xml:space="preserve" xmlns="http://www.w3.org/2000/svg" xmlns:xlink="http://www.w3.org/1999/xlink" y="0px"><g transform="translate(99.12106361566362 114.83156361566364) rotate(0 265.7105 250.0)"><path d="M225.799,178.134c9.763,8.67,23.553,11.155,35.728,6.438c12.175-4.717,20.691-15.844,22.065-28.828   c1.374-12.984-4.626-25.647-15.545-32.807c-10.919-7.16-24.923-7.616-36.284-1.18c9.007-1.413,18.16,1.441,24.767,7.724   c6.607,6.283,9.918,15.281,8.958,24.348s-6.079,17.173-13.855,21.934C243.859,180.525,234.312,181.401,225.799,178.134z" style="fill:none;stroke:red;stroke-width:0.0001px"/><path d="M225.799,178.134c9.763,8.67,23.553,11.155,35.728,6.438c12.175-4.717,20.691-15.844,22.065-28.828   c1.374-12.984-4.626-25.647-15.545-32.807c-10.919-7.16-24.923-7.616-36.284-1.18c9.007-1.413,18.16,1.441,24.767,7.724   c6.607,6.283,9.918,15.281,8.958,24.348s-6.079,17.173-13.855,21.934C243.859,180.525,234.312,181.401,225.799,178.134z" style="fill:none;stroke:red;stroke-width:0.0001px"/></g></svg>