<svg height="18in" id="Layer_1" version="1.1" width="32in" x="0px" xml:space="preserve" xmlns="http://www.w3.org/2000/svg" xmlns:xlink="http://www.w3.org/1999/xlink" y="0px"><g transform="translate(99.12106361566362 114.83156361566364) rotate(0 265.7105 250.0)"><polygon points="318.977,335.221 314.387,330.309 314.386,323.585 307.837,325.104 302.014,321.742    300.054,328.174 294.232,331.536 298.822,336.449 298.822,343.172 305.372,341.654 311.195,345.015 313.154,338.583  " style="fill:none;stroke:red;stroke-width:0.0001px"/><polygon points="318.977,335.221 314.387,330.309 314.386,323.585 307.837,325.104 302.014,321.742    300.054,328.174 294.232,331.536 298.822,336.449 298.822,343.172 305.372,341.654 311.195,345.015 313.154,338.583  " style="fill:none;stroke:red;stroke-width:0.0001px"/><polygon points="318.977,335.221 314.387,330.309 314.386,323.585 307.837,325.104 302.014,321.742    300.054,328.174 294.232,331.536 298.822,336.449 298.822,343.172 305.372,341.654 311.195,345.015 313.154,338.583  " style="fill:none;stroke:red;stroke-width:0.0001px"/><circle cx="271.199" cy="359.388" r="6.029" style="fill:none;stroke:red;stroke-width:0.0001px"/><circle cx="271.199" cy="359.388" r="6.029" style="fill:none;stroke:red;stroke-width:0.0001px"/><circle cx="271.199" cy="359.388" r="6.029" style="fill:none;stroke:red;stroke-width:0.0001px"/><polygon points="434.637,151.101 430.143,150.802 427.062,147.515 424.556,151.258 420.169,152.282    422.157,156.324 420.851,160.635 425.346,160.934 428.426,164.221 430.932,160.478 435.319,159.454 433.331,155.412  " style="fill:none;stroke:red;stroke-width:0.0001px"/><polygon points="434.637,151.101 430.143,150.802 427.062,147.515 424.556,151.258 420.169,152.282    422.157,156.324 420.851,160.635 425.346,160.934 428.426,164.221 430.932,160.478 435.319,159.454 433.331,155.412  " style="fill:none;stroke:red;stroke-width:0.0001px"/><polygon points="434.637,151.101 430.143,150.802 427.062,147.515 424.556,151.258 420.169,152.282    422.157,156.324 420.851,160.635 425.346,160.934 428.426,164.221 430.932,160.478 435.319,159.454 433.331,155.412  " style="fill:none;stroke:red;stroke-width:0.0001px"/><circle cx="156.789" cy="170.674" r="6.029" style="fill:none;stroke:red;stroke-width:0.0001px"/><circle cx="156.789" cy="170.674" r="6.029" style="fill:none;stroke:red;stroke-width:0.0001px"/><circle cx="156.789" cy="170.674" r="6.029" style="fill:none;stroke:red;stroke-width:0.0001px"/><polygon points="163.113,281.745 158.523,276.832 158.523,270.108 151.973,271.627 146.15,268.266    144.191,274.697 138.368,278.059 142.958,282.972 142.958,289.696 149.508,288.177 155.331,291.538 157.291,285.107  " style="fill:none;stroke:red;stroke-width:0.0001px"/><polygon points="163.113,281.745 158.523,276.832 158.523,270.108 151.973,271.627 146.15,268.266    144.191,274.697 138.368,278.059 142.958,282.972 142.958,289.696 149.508,288.177 155.331,291.538 157.291,285.107  " style="fill:none;stroke:red;stroke-width:0.0001px"/><polygon points="163.113,281.745 158.523,276.832 158.523,270.108 151.973,271.627 146.15,268.266    144.191,274.697 138.368,278.059 142.958,282.972 142.958,289.696 149.508,288.177 155.331,291.538 157.291,285.107  " style="fill:none;stroke:red;stroke-width:0.0001px"/><polygon points="342.993,210.752 339.158,213.116 334.742,212.226 334.873,216.729 331.894,220.108    335.859,222.247 337.296,226.516 341.13,224.152 345.546,225.042 345.416,220.539 348.395,217.159 344.43,215.021  " style="fill:none;stroke:red;stroke-width:0.0001px"/><polygon points="342.993,210.752 339.158,213.116 334.742,212.226 334.873,216.729 331.894,220.108    335.859,222.247 337.296,226.516 341.13,224.152 345.546,225.042 345.416,220.539 348.395,217.159 344.43,215.021  " style="fill:none;stroke:red;stroke-width:0.0001px"/><polygon points="342.993,210.752 339.158,213.116 334.742,212.226 334.873,216.729 331.894,220.108    335.859,222.247 337.296,226.516 341.13,224.152 345.546,225.042 345.416,220.539 348.395,217.159 344.43,215.021  " style="fill:none;stroke:red;stroke-width:0.0001px"/></g></svg>