<svg xmlns="http://www.w3.org/2000/svg" xmlns:xlink="http://www.w3.org/1999/xlink" version="1.1" id="Layer_1" x="0px" y="0px" xml:space="preserve" width="32in" height="18in"><g transform="translate(41.42135623730951 41.42135623730951) rotate(0 100.0 100.0)"><path style="fill:none;stroke:red;stroke-width:0.0001px" d="M179.1,106.5c0.9-10.3-0.3-20.7-3.4-30.5c-1,0.9-2.1,1.7-3.1,2.5c0,0-0.1,0-0.1,0.1  c-3.6,2.7-7.5,5.1-11.9,7.3c-3.4,1.7-7.1,3.1-11,4.2c-0.2,0-0.3,0.1-0.5,0.1c-3.1,0.9-6.4,1.6-9.8,2.1c-2.1,0.3-4.3,0.6-6.5,0.7  c-0.6,0-1.3,0.1-1.9,0.1c-3.9,0.2-7.9,0-12-0.7c-0.4-0.1-0.8-0.1-1.2-0.2c-3.4-0.7-6.7-1.7-10-2.8c-2.7-0.9-5.4-1.8-8.2-2.4  c-4.4-0.9-8.4-1-12.4-0.2c-1.4,0.2-2.8,0.6-4.3,1c-1.7,0.5-3.4,1.1-5,1.7c-2.1,0.8-4,1.9-5.8,3.2c-2.5,1.8-4.7,3.8-6.8,6.2  c-2.1,2.3-3.9,4.8-5.6,7.4c-0.8,1.2-1.5,2.5-2.3,3.7c-6.9,12-12.3,27.8-16.3,42.9c2.8,3.1,5.9,6,9.1,8.7c0.9-3.4,1.9-6.7,2.9-10  c0.6-1.8,1.2-3.6,1.8-5.4c1.3-3.6,2.6-7.1,4.2-10.5c0.7-1.7,1.5-3.3,2.3-5c0.8-1.6,1.6-3.2,2.5-4.7c0.4-0.8,0.9-1.5,1.3-2.3  c0.1-0.2,0.3-0.5,0.4-0.7c0.3-0.4,0.5-0.8,0.8-1.2c0.7-1.1,1.5-2.2,2.3-3.3c1.2-1.7,2.6-3.3,4-4.8c0.7-0.8,1.4-1.5,2.2-2.2  c0.8-0.7,1.6-1.4,2.4-2.1c0.8-0.7,1.7-1.3,2.6-1.9c0.7-0.4,1.3-0.8,2-1.2c1.3-0.7,2.7-1.4,4.1-2c1.1-0.5,2.3-0.9,3.4-1.2  c0.6-0.2,1.1-0.3,1.7-0.5c0.5-0.1,1-0.3,1.5-0.4c0.5-0.1,1-0.2,1.5-0.3c0.6-0.1,1.2-0.2,1.8-0.3c1.4-0.2,2.9-0.3,4.4-0.4  c1.5,0,3,0,4.5,0.2c0.8,0.1,1.5,0.2,2.3,0.3c0.9,0.1,1.8,0.3,2.7,0.5c0.9,0.2,1.9,0.4,2.8,0.7c0.9,0.2,1.8,0.5,2.7,0.8  c1.2,0.4,2.5,0.7,3.7,1.1c1.1,0.3,2.1,0.6,3.2,0.9c0.5,0.1,1.1,0.3,1.6,0.4c0.3,0.1,0.6,0.1,0.9,0.2c0.1,0,0.2,0.1,0.4,0.1  c0.7,0.2,1.4,0.3,2.1,0.5c1.2,0.3,2.5,0.5,3.7,0.8c1.2,0.2,2.4,0.4,3.6,0.6c0.5,0.1,1.1,0.2,1.6,0.2c0.1,0,0.2,0,0.3,0  c0.2,0,0.4,0.1,0.6,0.1c0.2,0,0.4,0.1,0.6,0.1c0.5,0.1,1.1,0.1,1.6,0.2c1.3,0.2,2.6,0.3,3.9,0.4c2,0.2,4,0.3,5.9,0.4  c0.9,0,1.8,0.1,2.7,0.1c0.1,0,0.2,0,0.3,0c0.8,0,1.6,0,2.4,0c1.2,0,2.3,0,3.5-0.1c1.1,0,2.2-0.1,3.3-0.2c0.3,0,0.6,0,0.9-0.1  c0.3,0,0.7-0.1,1-0.1c0.7-0.1,1.4-0.1,2-0.2c2.5-0.3,5.1-0.7,7.5-1.2c0.3-0.1,0.6-0.1,0.9-0.2c1-0.2,2.1-0.5,3.1-0.7  C177.4,107,178.2,106.8,179.1,106.5z"/><path style="fill:none;stroke:red;stroke-width:0.0001px" d="M179.1,106.5c0.9-10.3-0.3-20.7-3.4-30.5c-1,0.9-2.1,1.7-3.1,2.5c0,0-0.1,0-0.1,0.1  c-3.6,2.7-7.5,5.1-11.9,7.3c-3.4,1.7-7.1,3.1-11,4.2c-0.2,0-0.3,0.1-0.5,0.1c-3.1,0.9-6.4,1.6-9.8,2.1c-2.1,0.3-4.3,0.6-6.5,0.7  c-0.6,0-1.3,0.1-1.9,0.1c-3.9,0.2-7.9,0-12-0.7c-0.4-0.1-0.8-0.1-1.2-0.2c-3.4-0.7-6.7-1.7-10-2.8c-2.7-0.9-5.4-1.8-8.2-2.4  c-4.4-0.9-8.4-1-12.4-0.2c-1.4,0.2-2.8,0.6-4.3,1c-1.7,0.5-3.4,1.1-5,1.7c-2.1,0.8-4,1.9-5.8,3.2c-2.5,1.8-4.7,3.8-6.8,6.2  c-2.1,2.3-3.9,4.8-5.6,7.4c-0.8,1.2-1.5,2.5-2.3,3.7c-6.9,12-12.3,27.8-16.3,42.9c2.8,3.1,5.9,6,9.1,8.7c0.9-3.4,1.9-6.7,2.9-10  c0.6-1.8,1.2-3.6,1.8-5.4c1.3-3.6,2.6-7.1,4.2-10.5c0.7-1.7,1.5-3.3,2.3-5c0.8-1.6,1.6-3.2,2.5-4.7c0.4-0.8,0.9-1.5,1.3-2.3  c0.1-0.2,0.3-0.5,0.4-0.7c0.3-0.4,0.5-0.8,0.8-1.2c0.7-1.1,1.5-2.2,2.3-3.3c1.2-1.7,2.6-3.3,4-4.8c0.7-0.8,1.4-1.5,2.2-2.2  c0.8-0.7,1.6-1.4,2.4-2.1c0.8-0.7,1.7-1.3,2.6-1.9c0.7-0.4,1.3-0.8,2-1.2c1.3-0.7,2.7-1.4,4.1-2c1.1-0.5,2.3-0.9,3.4-1.2  c0.6-0.2,1.1-0.3,1.7-0.5c0.5-0.1,1-0.3,1.5-0.4c0.5-0.1,1-0.2,1.5-0.3c0.6-0.1,1.2-0.2,1.8-0.3c1.4-0.2,2.9-0.3,4.4-0.4  c1.5,0,3,0,4.5,0.2c0.8,0.1,1.5,0.2,2.3,0.3c0.9,0.1,1.8,0.3,2.7,0.5c0.9,0.2,1.9,0.4,2.8,0.7c0.9,0.2,1.8,0.5,2.7,0.8  c1.2,0.4,2.5,0.7,3.7,1.1c1.1,0.3,2.1,0.6,3.2,0.9c0.5,0.1,1.1,0.3,1.6,0.4c0.3,0.1,0.6,0.1,0.9,0.2c0.1,0,0.2,0.1,0.4,0.1  c0.7,0.2,1.4,0.3,2.1,0.5c1.2,0.3,2.5,0.5,3.7,0.8c1.2,0.2,2.4,0.4,3.6,0.6c0.5,0.1,1.1,0.2,1.6,0.2c0.1,0,0.2,0,0.3,0  c0.2,0,0.4,0.1,0.6,0.1c0.2,0,0.4,0.1,0.6,0.1c0.5,0.1,1.1,0.1,1.6,0.2c1.3,0.2,2.6,0.3,3.9,0.4c2,0.2,4,0.3,5.9,0.4  c0.9,0,1.8,0.1,2.7,0.1c0.1,0,0.2,0,0.3,0c0.8,0,1.6,0,2.4,0c1.2,0,2.3,0,3.5-0.1c1.1,0,2.2-0.1,3.3-0.2c0.3,0,0.6,0,0.9-0.1  c0.3,0,0.7-0.1,1-0.1c0.7-0.1,1.4-0.1,2-0.2c2.5-0.3,5.1-0.7,7.5-1.2c0.3-0.1,0.6-0.1,0.9-0.2c1-0.2,2.1-0.5,3.1-0.7  C177.4,107,178.2,106.8,179.1,106.5z"/><path style="fill:none;stroke:red;stroke-width:0.0001px" d="M179.1,106.5c0.9-10.3-0.3-20.7-3.4-30.5c-1,0.9-2.1,1.7-3.1,2.5c0,0-0.1,0-0.1,0.1  c-3.6,2.7-7.5,5.1-11.9,7.3c-3.4,1.7-7.1,3.1-11,4.2c-0.2,0-0.3,0.1-0.5,0.1c-3.1,0.9-6.4,1.6-9.8,2.1c-2.1,0.3-4.3,0.6-6.5,0.7  c-0.6,0-1.3,0.1-1.9,0.1c-3.9,0.2-7.9,0-12-0.7c-0.4-0.1-0.8-0.1-1.2-0.2c-3.4-0.7-6.7-1.7-10-2.8c-2.7-0.9-5.4-1.8-8.2-2.4  c-4.4-0.9-8.4-1-12.4-0.2c-1.4,0.2-2.8,0.6-4.3,1c-1.7,0.5-3.4,1.1-5,1.7c-2.1,0.8-4,1.9-5.8,3.2c-2.5,1.8-4.7,3.8-6.8,6.2  c-2.1,2.3-3.9,4.8-5.6,7.4c-0.8,1.2-1.5,2.5-2.3,3.7c-6.9,12-12.3,27.8-16.3,42.9c2.8,3.1,5.9,6,9.1,8.7c0.9-3.4,1.9-6.7,2.9-10  c0.6-1.8,1.2-3.6,1.8-5.4c1.3-3.6,2.6-7.1,4.2-10.5c0.7-1.7,1.5-3.3,2.3-5c0.8-1.6,1.6-3.2,2.5-4.7c0.4-0.8,0.9-1.5,1.3-2.3  c0.1-0.2,0.3-0.5,0.4-0.7c0.3-0.4,0.5-0.8,0.8-1.2c0.7-1.1,1.5-2.2,2.3-3.3c1.2-1.7,2.6-3.3,4-4.8c0.7-0.8,1.4-1.5,2.2-2.2  c0.8-0.7,1.6-1.4,2.4-2.1c0.8-0.7,1.7-1.3,2.6-1.9c0.7-0.4,1.3-0.8,2-1.2c1.3-0.7,2.7-1.4,4.1-2c1.1-0.5,2.3-0.9,3.4-1.2  c0.6-0.2,1.1-0.3,1.7-0.5c0.5-0.1,1-0.3,1.5-0.4c0.5-0.1,1-0.2,1.5-0.3c0.6-0.1,1.2-0.2,1.8-0.3c1.4-0.2,2.9-0.3,4.4-0.4  c1.5,0,3,0,4.5,0.2c0.8,0.1,1.5,0.2,2.3,0.3c0.9,0.1,1.8,0.3,2.7,0.5c0.9,0.2,1.9,0.4,2.8,0.7c0.9,0.2,1.8,0.5,2.7,0.8  c1.2,0.4,2.5,0.7,3.7,1.1c1.1,0.3,2.1,0.6,3.2,0.9c0.5,0.1,1.1,0.3,1.6,0.4c0.3,0.1,0.6,0.1,0.9,0.2c0.1,0,0.2,0.1,0.4,0.1  c0.7,0.2,1.4,0.3,2.1,0.5c1.2,0.3,2.5,0.5,3.7,0.8c1.2,0.2,2.4,0.4,3.6,0.6c0.5,0.1,1.1,0.2,1.6,0.2c0.1,0,0.2,0,0.3,0  c0.2,0,0.4,0.1,0.6,0.1c0.2,0,0.4,0.1,0.6,0.1c0.5,0.1,1.1,0.1,1.6,0.2c1.3,0.2,2.6,0.3,3.9,0.4c2,0.2,4,0.3,5.9,0.4  c0.9,0,1.8,0.1,2.7,0.1c0.1,0,0.2,0,0.3,0c0.8,0,1.6,0,2.4,0c1.2,0,2.3,0,3.5-0.1c1.1,0,2.2-0.1,3.3-0.2c0.3,0,0.6,0,0.9-0.1  c0.3,0,0.7-0.1,1-0.1c0.7-0.1,1.4-0.1,2-0.2c2.5-0.3,5.1-0.7,7.5-1.2c0.3-0.1,0.6-0.1,0.9-0.2c1-0.2,2.1-0.5,3.1-0.7  C177.4,107,178.2,106.8,179.1,106.5z"/><path style="fill:none;stroke:red;stroke-width:0.0001px" d="M179.1,106.5c0.9-10.3-0.3-20.7-3.4-30.5c-1,0.9-2.1,1.7-3.1,2.5c0,0-0.1,0-0.1,0.1  c-3.6,2.7-7.5,5.1-11.9,7.3c-3.4,1.7-7.1,3.1-11,4.2c-0.2,0-0.3,0.1-0.5,0.1c-3.1,0.9-6.4,1.6-9.8,2.1c-2.1,0.3-4.3,0.6-6.5,0.7  c-0.6,0-1.3,0.1-1.9,0.1c-3.9,0.2-7.9,0-12-0.7c-0.4-0.1-0.8-0.1-1.2-0.2c-3.4-0.7-6.7-1.7-10-2.8c-2.7-0.9-5.4-1.8-8.2-2.4  c-4.4-0.9-8.4-1-12.4-0.2c-1.4,0.2-2.8,0.6-4.3,1c-1.7,0.5-3.4,1.1-5,1.7c-2.1,0.8-4,1.9-5.8,3.2c-2.5,1.8-4.7,3.8-6.8,6.2  c-2.1,2.3-3.9,4.8-5.6,7.4c-0.8,1.2-1.5,2.5-2.3,3.7c-6.9,12-12.3,27.8-16.3,42.9c2.8,3.1,5.9,6,9.1,8.7c0.9-3.4,1.9-6.7,2.9-10  c0.6-1.8,1.2-3.6,1.8-5.4c1.3-3.6,2.6-7.1,4.2-10.5c0.7-1.7,1.5-3.3,2.3-5c0.8-1.6,1.6-3.2,2.5-4.7c0.4-0.8,0.9-1.5,1.3-2.3  c0.1-0.2,0.3-0.5,0.4-0.7c0.3-0.4,0.5-0.8,0.8-1.2c0.7-1.1,1.5-2.2,2.3-3.3c1.2-1.7,2.6-3.3,4-4.8c0.7-0.8,1.4-1.5,2.2-2.2  c0.8-0.7,1.6-1.4,2.4-2.1c0.8-0.7,1.7-1.3,2.6-1.9c0.7-0.4,1.3-0.8,2-1.2c1.3-0.7,2.7-1.4,4.1-2c1.1-0.5,2.3-0.9,3.4-1.2  c0.6-0.2,1.1-0.3,1.7-0.5c0.5-0.1,1-0.3,1.5-0.4c0.5-0.1,1-0.2,1.5-0.3c0.6-0.1,1.2-0.2,1.8-0.3c1.4-0.2,2.9-0.3,4.4-0.4  c1.5,0,3,0,4.5,0.2c0.8,0.1,1.5,0.2,2.3,0.3c0.9,0.1,1.8,0.3,2.7,0.5c0.9,0.2,1.9,0.4,2.8,0.7c0.9,0.2,1.8,0.5,2.7,0.8  c1.2,0.4,2.5,0.7,3.7,1.1c1.1,0.3,2.1,0.6,3.2,0.9c0.5,0.1,1.1,0.3,1.6,0.4c0.3,0.1,0.6,0.1,0.9,0.2c0.1,0,0.2,0.1,0.4,0.1  c0.7,0.2,1.4,0.3,2.1,0.5c1.2,0.3,2.5,0.5,3.7,0.8c1.2,0.2,2.4,0.4,3.6,0.6c0.5,0.1,1.1,0.2,1.6,0.2c0.1,0,0.2,0,0.3,0  c0.2,0,0.4,0.1,0.6,0.1c0.2,0,0.4,0.1,0.6,0.1c0.5,0.1,1.1,0.1,1.6,0.2c1.3,0.2,2.6,0.3,3.9,0.4c2,0.2,4,0.3,5.9,0.4  c0.9,0,1.8,0.1,2.7,0.1c0.1,0,0.2,0,0.3,0c0.8,0,1.6,0,2.4,0c1.2,0,2.3,0,3.5-0.1c1.1,0,2.2-0.1,3.3-0.2c0.3,0,0.6,0,0.9-0.1  c0.3,0,0.7-0.1,1-0.1c0.7-0.1,1.4-0.1,2-0.2c2.5-0.3,5.1-0.7,7.5-1.2c0.3-0.1,0.6-0.1,0.9-0.2c1-0.2,2.1-0.5,3.1-0.7  C177.4,107,178.2,106.8,179.1,106.5z"/><path style="fill:none;stroke:red;stroke-width:0.0001px" d="M179.1,106.5c0.9-10.3-0.3-20.7-3.4-30.5c-1,0.9-2.1,1.7-3.1,2.5c0,0-0.1,0-0.1,0.1  c-3.6,2.7-7.5,5.1-11.9,7.3c-3.4,1.7-7.1,3.1-11,4.2c-0.2,0-0.3,0.1-0.5,0.1c-3.1,0.9-6.4,1.6-9.8,2.1c-2.1,0.3-4.3,0.6-6.5,0.7  c-0.6,0-1.3,0.1-1.9,0.1c-3.9,0.2-7.9,0-12-0.7c-0.4-0.1-0.8-0.1-1.2-0.2c-3.4-0.7-6.7-1.7-10-2.8c-2.7-0.9-5.4-1.8-8.2-2.4  c-4.4-0.9-8.4-1-12.4-0.2c-1.4,0.2-2.8,0.6-4.3,1c-1.7,0.5-3.4,1.1-5,1.7c-2.1,0.8-4,1.9-5.8,3.2c-2.5,1.8-4.7,3.8-6.8,6.2  c-2.1,2.3-3.9,4.8-5.6,7.4c-0.8,1.2-1.5,2.5-2.3,3.7c-6.9,12-12.3,27.8-16.3,42.9c2.8,3.1,5.9,6,9.1,8.7c0.9-3.4,1.9-6.7,2.9-10  c0.6-1.8,1.2-3.6,1.8-5.4c1.3-3.6,2.6-7.1,4.2-10.5c0.7-1.7,1.5-3.3,2.3-5c0.8-1.6,1.6-3.2,2.5-4.7c0.4-0.8,0.9-1.5,1.3-2.3  c0.1-0.2,0.3-0.5,0.4-0.7c0.3-0.4,0.5-0.8,0.8-1.2c0.7-1.1,1.5-2.2,2.3-3.3c1.2-1.7,2.6-3.3,4-4.8c0.7-0.8,1.4-1.5,2.2-2.2  c0.8-0.7,1.6-1.4,2.4-2.1c0.8-0.7,1.7-1.3,2.6-1.9c0.7-0.4,1.3-0.8,2-1.2c1.3-0.7,2.7-1.4,4.1-2c1.1-0.5,2.3-0.9,3.4-1.2  c0.6-0.2,1.1-0.3,1.7-0.5c0.5-0.1,1-0.3,1.5-0.4c0.5-0.1,1-0.2,1.5-0.3c0.6-0.1,1.2-0.2,1.8-0.3c1.4-0.2,2.9-0.3,4.4-0.4  c1.5,0,3,0,4.5,0.2c0.8,0.1,1.5,0.2,2.3,0.3c0.9,0.1,1.8,0.3,2.7,0.5c0.9,0.2,1.9,0.4,2.8,0.7c0.9,0.2,1.8,0.5,2.7,0.8  c1.2,0.4,2.5,0.7,3.7,1.1c1.1,0.3,2.1,0.6,3.2,0.9c0.5,0.1,1.1,0.3,1.6,0.4c0.3,0.1,0.6,0.1,0.9,0.2c0.1,0,0.2,0.1,0.4,0.1  c0.7,0.2,1.4,0.3,2.1,0.5c1.2,0.3,2.5,0.5,3.7,0.8c1.2,0.2,2.4,0.4,3.6,0.6c0.5,0.1,1.1,0.2,1.6,0.2c0.1,0,0.2,0,0.3,0  c0.2,0,0.4,0.1,0.6,0.1c0.2,0,0.4,0.1,0.6,0.1c0.5,0.1,1.1,0.1,1.6,0.2c1.3,0.2,2.6,0.3,3.9,0.4c2,0.2,4,0.3,5.9,0.4  c0.9,0,1.8,0.1,2.7,0.1c0.1,0,0.2,0,0.3,0c0.8,0,1.6,0,2.4,0c1.2,0,2.3,0,3.5-0.1c1.1,0,2.2-0.1,3.3-0.2c0.3,0,0.6,0,0.9-0.1  c0.3,0,0.7-0.1,1-0.1c0.7-0.1,1.4-0.1,2-0.2c2.5-0.3,5.1-0.7,7.5-1.2c0.3-0.1,0.6-0.1,0.9-0.2c1-0.2,2.1-0.5,3.1-0.7  C177.4,107,178.2,106.8,179.1,106.5z"/><path style="fill:none;stroke:red;stroke-width:0.0001px" d="M78.5,176.4c27.2,7.6,56.4,0.3,76.7-19.4c-11.4-10.2-18.3-14.2-27.4-16  C112.3,137.9,90.3,141.1,78.5,176.4z"/><path style="fill:none;stroke:red;stroke-width:0.0001px" d="M78.5,176.4c27.2,7.6,56.4,0.3,76.7-19.4c-11.4-10.2-18.3-14.2-27.4-16  C112.3,137.9,90.3,141.1,78.5,176.4z"/><path style="fill:none;stroke:red;stroke-width:0.0001px" d="M78.5,176.4c27.2,7.6,56.4,0.3,76.7-19.4c-11.4-10.2-18.3-14.2-27.4-16  C112.3,137.9,90.3,141.1,78.5,176.4z"/><path style="fill:none;stroke:red;stroke-width:0.0001px" d="M78.5,176.4c27.2,7.6,56.4,0.3,76.7-19.4c-11.4-10.2-18.3-14.2-27.4-16  C112.3,137.9,90.3,141.1,78.5,176.4z"/><path style="fill:none;stroke:red;stroke-width:0.0001px" d="M78.5,176.4c27.2,7.6,56.4,0.3,76.7-19.4c-11.4-10.2-18.3-14.2-27.4-16  C112.3,137.9,90.3,141.1,78.5,176.4z"/></g></svg>