<svg xmlns="http://www.w3.org/2000/svg" xmlns:xlink="http://www.w3.org/1999/xlink" version="1.1" id="Layer_1" x="0px" y="0px" xml:space="preserve" width="32in" height="18in"><g transform="translate(41.42135623730951 41.42135623730951) rotate(0 100.0 100.0)"><path style="fill:none;stroke:red;stroke-width:0.0001px" d="M78.5,176.4c27.2,7.6,56.4,0.3,76.7-19.4c-11.4-10.2-18.3-14.2-27.4-16  C112.3,137.9,90.3,141.1,78.5,176.4z"/><path style="fill:none;stroke:red;stroke-width:0.0001px" d="M78.5,176.4c27.2,7.6,56.4,0.3,76.7-19.4c-11.4-10.2-18.3-14.2-27.4-16  C112.3,137.9,90.3,141.1,78.5,176.4z"/><path style="fill:none;stroke:red;stroke-width:0.0001px" d="M78.5,176.4c27.2,7.6,56.4,0.3,76.7-19.4c-11.4-10.2-18.3-14.2-27.4-16  C112.3,137.9,90.3,141.1,78.5,176.4z"/><path style="fill:none;stroke:red;stroke-width:0.0001px" d="M78.5,176.4c27.2,7.6,56.4,0.3,76.7-19.4c-11.4-10.2-18.3-14.2-27.4-16  C112.3,137.9,90.3,141.1,78.5,176.4z"/><path style="fill:none;stroke:red;stroke-width:0.0001px" d="M78.5,176.4c27.2,7.6,56.4,0.3,76.7-19.4c-11.4-10.2-18.3-14.2-27.4-16  C112.3,137.9,90.3,141.1,78.5,176.4z"/></g></svg>