<svg height="18in" id="Layer_1" version="1.1" width="32in" x="0px" xml:space="preserve" xmlns="http://www.w3.org/2000/svg" xmlns:xlink="http://www.w3.org/1999/xlink" y="0px"><g transform="translate(103.55339059327378 103.55339059327378) rotate(-45 250.0 250.0)"><path d="M353.03,219.675c0.956-0.259,4.236,0.584,7.237,1.308c3.001,0.723,5.723,1.327,7.41,1.235   c1.688-0.092,2.341-0.881,4.331-2.183c1.99-1.302,5.318-3.116,6.051-4.356c0.733-1.24-1.128-1.905-2.864-2.531   c-1.737-0.626-3.349-1.212-6.486-2.14c-3.136-0.927-7.796-2.194-11.455-2.485s-6.314,0.394-7.799,0.596   c-1.485,0.201-1.797-0.081-2.156-0.833c-0.359-0.751-0.763-1.972-1.236-3.358c-0.473-1.386-1.014-2.938-1.539-5.065   c-0.525-2.127-1.035-4.828-1.25-7.463c-0.215-2.635-0.136-5.202-0.323-7.184c-0.187-1.981-0.64-3.376-1.33-3.39   c-0.69-0.013-1.615,1.356-2.321,4.312c-0.706,2.956-1.191,7.499-1.16,11.399c0.031,3.899,0.578,7.154,1.209,9.189   c0.631,2.035,1.345,2.851,0.771,2.201c-0.574-0.65-2.435-2.765-4.497-4.313c-2.062-1.548-4.326-2.529-5.711-3.246   c-1.384-0.717-1.889-1.169-2.241-1.238c-0.351-0.07-0.548,0.243-0.726,0.494c-0.178,0.251-0.338,0.439,0.324,1.083   c0.662,0.644,2.146,1.742,3.415,2.967c1.269,1.225,2.323,2.576,4.366,5.141c2.043,2.566,5.075,6.346,7.248,8.333   c2.173,1.986,3.487,2.178,4.898,3.247c1.411,1.069,2.919,3.015,4.229,4.797c1.309,1.782,2.419,3.401,2.835,3.71   c0.416,0.309,0.137-0.691-0.061-1.493c-0.198-0.802-0.316-1.405-0.176-1.836c0.139-0.431,0.536-0.69,0.711-1.314   c0.174-0.624,0.126-1.614-0.583-2.789C353.443,221.294,352.074,219.933,353.03,219.675z" style="fill:none;stroke:red;stroke-width:0.0001px"/><path d="M353.03,219.675c0.956-0.259,4.236,0.584,7.237,1.308c3.001,0.723,5.723,1.327,7.41,1.235   c1.688-0.092,2.341-0.881,4.331-2.183c1.99-1.302,5.318-3.116,6.051-4.356c0.733-1.24-1.128-1.905-2.864-2.531   c-1.737-0.626-3.349-1.212-6.486-2.14c-3.136-0.927-7.796-2.194-11.455-2.485s-6.314,0.394-7.799,0.596   c-1.485,0.201-1.797-0.081-2.156-0.833c-0.359-0.751-0.763-1.972-1.236-3.358c-0.473-1.386-1.014-2.938-1.539-5.065   c-0.525-2.127-1.035-4.828-1.25-7.463c-0.215-2.635-0.136-5.202-0.323-7.184c-0.187-1.981-0.64-3.376-1.33-3.39   c-0.69-0.013-1.615,1.356-2.321,4.312c-0.706,2.956-1.191,7.499-1.16,11.399c0.031,3.899,0.578,7.154,1.209,9.189   c0.631,2.035,1.345,2.851,0.771,2.201c-0.574-0.65-2.435-2.765-4.497-4.313c-2.062-1.548-4.326-2.529-5.711-3.246   c-1.384-0.717-1.889-1.169-2.241-1.238c-0.351-0.07-0.548,0.243-0.726,0.494c-0.178,0.251-0.338,0.439,0.324,1.083   c0.662,0.644,2.146,1.742,3.415,2.967c1.269,1.225,2.323,2.576,4.366,5.141c2.043,2.566,5.075,6.346,7.248,8.333   c2.173,1.986,3.487,2.178,4.898,3.247c1.411,1.069,2.919,3.015,4.229,4.797c1.309,1.782,2.419,3.401,2.835,3.71   c0.416,0.309,0.137-0.691-0.061-1.493c-0.198-0.802-0.316-1.405-0.176-1.836c0.139-0.431,0.536-0.69,0.711-1.314   c0.174-0.624,0.126-1.614-0.583-2.789C353.443,221.294,352.074,219.933,353.03,219.675z" style="fill:none;stroke:red;stroke-width:0.0001px"/><path d="M353.03,219.675c0.956-0.259,4.236,0.584,7.237,1.308c3.001,0.723,5.723,1.327,7.41,1.235   c1.688-0.092,2.341-0.881,4.331-2.183c1.99-1.302,5.318-3.116,6.051-4.356c0.733-1.24-1.128-1.905-2.864-2.531   c-1.737-0.626-3.349-1.212-6.486-2.14c-3.136-0.927-7.796-2.194-11.455-2.485s-6.314,0.394-7.799,0.596   c-1.485,0.201-1.797-0.081-2.156-0.833c-0.359-0.751-0.763-1.972-1.236-3.358c-0.473-1.386-1.014-2.938-1.539-5.065   c-0.525-2.127-1.035-4.828-1.25-7.463c-0.215-2.635-0.136-5.202-0.323-7.184c-0.187-1.981-0.64-3.376-1.33-3.39   c-0.69-0.013-1.615,1.356-2.321,4.312c-0.706,2.956-1.191,7.499-1.16,11.399c0.031,3.899,0.578,7.154,1.209,9.189   c0.631,2.035,1.345,2.851,0.771,2.201c-0.574-0.65-2.435-2.765-4.497-4.313c-2.062-1.548-4.326-2.529-5.711-3.246   c-1.384-0.717-1.889-1.169-2.241-1.238c-0.351-0.07-0.548,0.243-0.726,0.494c-0.178,0.251-0.338,0.439,0.324,1.083   c0.662,0.644,2.146,1.742,3.415,2.967c1.269,1.225,2.323,2.576,4.366,5.141c2.043,2.566,5.075,6.346,7.248,8.333   c2.173,1.986,3.487,2.178,4.898,3.247c1.411,1.069,2.919,3.015,4.229,4.797c1.309,1.782,2.419,3.401,2.835,3.71   c0.416,0.309,0.137-0.691-0.061-1.493c-0.198-0.802-0.316-1.405-0.176-1.836c0.139-0.431,0.536-0.69,0.711-1.314   c0.174-0.624,0.126-1.614-0.583-2.789C353.443,221.294,352.074,219.933,353.03,219.675z" style="fill:none;stroke:red;stroke-width:0.0001px"/><path d="M240.739,370.17c-0.397,0.907-3.109,2.935-5.553,4.821c-2.444,1.886-4.62,3.629-5.605,5.002   c-0.985,1.373-0.78,2.376-1.012,4.743c-0.232,2.367-0.903,6.097-0.396,7.446c0.507,1.348,2.191,0.315,3.767-0.647   c1.576-0.962,3.043-1.851,5.731-3.715s6.595-4.702,9.113-7.371c2.519-2.669,3.649-5.169,4.422-6.452   c0.773-1.283,1.189-1.35,2-1.159c0.81,0.191,2.015,0.64,3.392,1.14c1.377,0.5,2.925,1.05,4.912,1.973   c1.987,0.923,4.412,2.218,6.6,3.701c2.188,1.483,4.14,3.154,5.802,4.249c1.661,1.096,3.033,1.616,3.475,1.087   c0.442-0.529-0.045-2.108-1.906-4.51c-1.862-2.402-5.099-5.627-8.157-8.046c-3.059-2.419-5.938-4.031-7.92-4.814   c-1.982-0.783-3.065-0.738-2.199-0.778c0.866-0.04,3.68-0.166,6.179-0.803s4.682-1.788,6.108-2.418   c1.426-0.63,2.094-0.741,2.369-0.971c0.274-0.23,0.154-0.579,0.07-0.875c-0.084-0.296-0.131-0.539-1.047-0.426   c-0.916,0.113-2.702,0.581-4.452,0.803c-1.75,0.222-3.463,0.197-6.743,0.182c-3.28-0.015-8.126-0.02-11.036,0.429   c-2.91,0.449-3.882,1.353-5.6,1.783c-1.717,0.43-4.179,0.387-6.388,0.291c-2.209-0.096-4.166-0.245-4.668-0.114   c-0.501,0.13,0.453,0.54,1.202,0.888c0.749,0.348,1.293,0.634,1.542,1.013c0.249,0.379,0.202,0.85,0.579,1.377   c0.377,0.527,1.179,1.109,2.539,1.293C239.218,369.477,241.136,369.263,240.739,370.17z" style="fill:none;stroke:red;stroke-width:0.0001px"/><path d="M240.739,370.17c-0.397,0.907-3.109,2.935-5.553,4.821c-2.444,1.886-4.62,3.629-5.605,5.002   c-0.985,1.373-0.78,2.376-1.012,4.743c-0.232,2.367-0.903,6.097-0.396,7.446c0.507,1.348,2.191,0.315,3.767-0.647   c1.576-0.962,3.043-1.851,5.731-3.715s6.595-4.702,9.113-7.371c2.519-2.669,3.649-5.169,4.422-6.452   c0.773-1.283,1.189-1.35,2-1.159c0.81,0.191,2.015,0.64,3.392,1.14c1.377,0.5,2.925,1.05,4.912,1.973   c1.987,0.923,4.412,2.218,6.6,3.701c2.188,1.483,4.14,3.154,5.802,4.249c1.661,1.096,3.033,1.616,3.475,1.087   c0.442-0.529-0.045-2.108-1.906-4.51c-1.862-2.402-5.099-5.627-8.157-8.046c-3.059-2.419-5.938-4.031-7.92-4.814   c-1.982-0.783-3.065-0.738-2.199-0.778c0.866-0.04,3.68-0.166,6.179-0.803s4.682-1.788,6.108-2.418   c1.426-0.63,2.094-0.741,2.369-0.971c0.274-0.23,0.154-0.579,0.07-0.875c-0.084-0.296-0.131-0.539-1.047-0.426   c-0.916,0.113-2.702,0.581-4.452,0.803c-1.75,0.222-3.463,0.197-6.743,0.182c-3.28-0.015-8.126-0.02-11.036,0.429   c-2.91,0.449-3.882,1.353-5.6,1.783c-1.717,0.43-4.179,0.387-6.388,0.291c-2.209-0.096-4.166-0.245-4.668-0.114   c-0.501,0.13,0.453,0.54,1.202,0.888c0.749,0.348,1.293,0.634,1.542,1.013c0.249,0.379,0.202,0.85,0.579,1.377   c0.377,0.527,1.179,1.109,2.539,1.293C239.218,369.477,241.136,369.263,240.739,370.17z" style="fill:none;stroke:red;stroke-width:0.0001px"/><path d="M240.739,370.17c-0.397,0.907-3.109,2.935-5.553,4.821c-2.444,1.886-4.62,3.629-5.605,5.002   c-0.985,1.373-0.78,2.376-1.012,4.743c-0.232,2.367-0.903,6.097-0.396,7.446c0.507,1.348,2.191,0.315,3.767-0.647   c1.576-0.962,3.043-1.851,5.731-3.715s6.595-4.702,9.113-7.371c2.519-2.669,3.649-5.169,4.422-6.452   c0.773-1.283,1.189-1.35,2-1.159c0.81,0.191,2.015,0.64,3.392,1.14c1.377,0.5,2.925,1.05,4.912,1.973   c1.987,0.923,4.412,2.218,6.6,3.701c2.188,1.483,4.14,3.154,5.802,4.249c1.661,1.096,3.033,1.616,3.475,1.087   c0.442-0.529-0.045-2.108-1.906-4.51c-1.862-2.402-5.099-5.627-8.157-8.046c-3.059-2.419-5.938-4.031-7.92-4.814   c-1.982-0.783-3.065-0.738-2.199-0.778c0.866-0.04,3.68-0.166,6.179-0.803s4.682-1.788,6.108-2.418   c1.426-0.63,2.094-0.741,2.369-0.971c0.274-0.23,0.154-0.579,0.07-0.875c-0.084-0.296-0.131-0.539-1.047-0.426   c-0.916,0.113-2.702,0.581-4.452,0.803c-1.75,0.222-3.463,0.197-6.743,0.182c-3.28-0.015-8.126-0.02-11.036,0.429   c-2.91,0.449-3.882,1.353-5.6,1.783c-1.717,0.43-4.179,0.387-6.388,0.291c-2.209-0.096-4.166-0.245-4.668-0.114   c-0.501,0.13,0.453,0.54,1.202,0.888c0.749,0.348,1.293,0.634,1.542,1.013c0.249,0.379,0.202,0.85,0.579,1.377   c0.377,0.527,1.179,1.109,2.539,1.293C239.218,369.477,241.136,369.263,240.739,370.17z" style="fill:none;stroke:red;stroke-width:0.0001px"/><path d="M213.718,163.009c-0.207-0.968,0.811-4.198,1.694-7.156c0.884-2.958,1.633-5.643,1.631-7.333   c-0.002-1.69-0.754-2.385-1.947-4.442c-1.193-2.057-2.826-5.478-4.025-6.277c-1.199-0.799-1.963,1.024-2.681,2.724   c-0.718,1.701-1.391,3.279-2.485,6.361c-1.094,3.082-2.61,7.667-3.097,11.305c-0.487,3.637,0.055,6.326,0.176,7.82   c0.122,1.493-0.178,1.79-0.947,2.108c-0.77,0.318-2.01,0.657-3.419,1.054c-1.41,0.398-2.988,0.855-5.14,1.265   c-2.152,0.41-4.877,0.774-7.519,0.848c-2.642,0.073-5.202-0.144-7.191-0.063c-1.989,0.08-3.406,0.458-3.456,1.146   c-0.05,0.688,1.267,1.686,4.181,2.549c2.914,0.863,7.425,1.592,11.32,1.771c3.895,0.178,7.175-0.193,9.241-0.714   c2.066-0.521,2.919-1.19,2.24-0.652c-0.68,0.538-2.891,2.283-4.548,4.259c-1.657,1.976-2.758,4.184-3.548,5.528   c-0.79,1.344-1.268,1.824-1.357,2.171c-0.088,0.347,0.213,0.56,0.454,0.752c0.241,0.191,0.421,0.361,1.099-0.266   c0.678-0.627,1.855-2.049,3.146-3.251c1.291-1.201,2.697-2.182,5.368-4.084c2.672-1.903,6.61-4.727,8.71-6.791   c2.1-2.063,2.362-3.365,3.505-4.717c1.143-1.352,3.167-2.753,5.017-3.965c1.85-1.212,3.526-2.233,3.857-2.632   c0.331-0.399-0.682-0.174-1.494-0.019c-0.811,0.155-1.42,0.24-1.843,0.077c-0.423-0.163-0.66-0.573-1.274-0.78   c-0.614-0.208-1.605-0.212-2.817,0.432C215.358,162.683,213.925,163.977,213.718,163.009z" style="fill:none;stroke:red;stroke-width:0.0001px"/><path d="M213.718,163.009c-0.207-0.968,0.811-4.198,1.694-7.156c0.884-2.958,1.633-5.643,1.631-7.333   c-0.002-1.69-0.754-2.385-1.947-4.442c-1.193-2.057-2.826-5.478-4.025-6.277c-1.199-0.799-1.963,1.024-2.681,2.724   c-0.718,1.701-1.391,3.279-2.485,6.361c-1.094,3.082-2.61,7.667-3.097,11.305c-0.487,3.637,0.055,6.326,0.176,7.82   c0.122,1.493-0.178,1.79-0.947,2.108c-0.77,0.318-2.01,0.657-3.419,1.054c-1.41,0.398-2.988,0.855-5.14,1.265   c-2.152,0.41-4.877,0.774-7.519,0.848c-2.642,0.073-5.202-0.144-7.191-0.063c-1.989,0.08-3.406,0.458-3.456,1.146   c-0.05,0.688,1.267,1.686,4.181,2.549c2.914,0.863,7.425,1.592,11.32,1.771c3.895,0.178,7.175-0.193,9.241-0.714   c2.066-0.521,2.919-1.19,2.24-0.652c-0.68,0.538-2.891,2.283-4.548,4.259c-1.657,1.976-2.758,4.184-3.548,5.528   c-0.79,1.344-1.268,1.824-1.357,2.171c-0.088,0.347,0.213,0.56,0.454,0.752c0.241,0.191,0.421,0.361,1.099-0.266   c0.678-0.627,1.855-2.049,3.146-3.251c1.291-1.201,2.697-2.182,5.368-4.084c2.672-1.903,6.61-4.727,8.71-6.791   c2.1-2.063,2.362-3.365,3.505-4.717c1.143-1.352,3.167-2.753,5.017-3.965c1.85-1.212,3.526-2.233,3.857-2.632   c0.331-0.399-0.682-0.174-1.494-0.019c-0.811,0.155-1.42,0.24-1.843,0.077c-0.423-0.163-0.66-0.573-1.274-0.78   c-0.614-0.208-1.605-0.212-2.817,0.432C215.358,162.683,213.925,163.977,213.718,163.009z" style="fill:none;stroke:red;stroke-width:0.0001px"/><path d="M213.718,163.009c-0.207-0.968,0.811-4.198,1.694-7.156c0.884-2.958,1.633-5.643,1.631-7.333   c-0.002-1.69-0.754-2.385-1.947-4.442c-1.193-2.057-2.826-5.478-4.025-6.277c-1.199-0.799-1.963,1.024-2.681,2.724   c-0.718,1.701-1.391,3.279-2.485,6.361c-1.094,3.082-2.61,7.667-3.097,11.305c-0.487,3.637,0.055,6.326,0.176,7.82   c0.122,1.493-0.178,1.79-0.947,2.108c-0.77,0.318-2.01,0.657-3.419,1.054c-1.41,0.398-2.988,0.855-5.14,1.265   c-2.152,0.41-4.877,0.774-7.519,0.848c-2.642,0.073-5.202-0.144-7.191-0.063c-1.989,0.08-3.406,0.458-3.456,1.146   c-0.05,0.688,1.267,1.686,4.181,2.549c2.914,0.863,7.425,1.592,11.32,1.771c3.895,0.178,7.175-0.193,9.241-0.714   c2.066-0.521,2.919-1.19,2.24-0.652c-0.68,0.538-2.891,2.283-4.548,4.259c-1.657,1.976-2.758,4.184-3.548,5.528   c-0.79,1.344-1.268,1.824-1.357,2.171c-0.088,0.347,0.213,0.56,0.454,0.752c0.241,0.191,0.421,0.361,1.099-0.266   c0.678-0.627,1.855-2.049,3.146-3.251c1.291-1.201,2.697-2.182,5.368-4.084c2.672-1.903,6.61-4.727,8.71-6.791   c2.1-2.063,2.362-3.365,3.505-4.717c1.143-1.352,3.167-2.753,5.017-3.965c1.85-1.212,3.526-2.233,3.857-2.632   c0.331-0.399-0.682-0.174-1.494-0.019c-0.811,0.155-1.42,0.24-1.843,0.077c-0.423-0.163-0.66-0.573-1.274-0.78   c-0.614-0.208-1.605-0.212-2.817,0.432C215.358,162.683,213.925,163.977,213.718,163.009z" style="fill:none;stroke:red;stroke-width:0.0001px"/><path d="M360.368,312.652c0.139-0.307,0.261-0.595,0.364-0.864c0.609-1.585,0.557-2.448,0.413-4.026   c-0.144-1.579-0.38-3.874-0.733-5.786s-0.824-3.441-0.854-4.451c-0.03-1.009,0.379-1.499,0.692-2.285   c0.313-0.786,0.529-1.869,0.993,0.422c0.464,2.291,1.176,7.955,1.748,12.883c0.572,4.927,1.004,9.118,1.254,12.621   c0.25,3.504,0.317,6.32,0.421,8.404c0.103,2.084,0.243,3.436-0.031,4.557c-0.274,1.121-0.962,2.013-1.418,2.993   c-0.457,0.981-0.682,2.051-0.923,1.347c-0.241-0.704-0.496-3.182-0.753-4.513c-0.257-1.331-0.515-1.515-1.038-1.316   c-0.522,0.199-1.309,0.779-3.015,3.159c-1.705,2.38-4.329,6.558-6.266,9.466c-1.936,2.908-3.186,4.547-3.864,4.41   c-0.678-0.137-0.785-2.048-0.814-4.873c-0.029-2.826,0.021-6.565,1.011-9.929c0.991-3.363,2.923-6.351,4.751-9.102   c0.081-0.122,0.162-0.244,0.243-0.365c-2.676,0.232-4.737,0.628-6.258,0.943c-2.411,0.498-3.466,0.791-3.618-0.587   c-0.151-1.378,0.602-4.427,1.688-7.103c1.086-2.676,2.505-4.978,5.124-6.761C351.957,310.214,355.499,308.995,360.368,312.652z" style="fill:none;stroke:red;stroke-width:0.0001px"/><path d="M360.368,312.652c0.139-0.307,0.261-0.595,0.364-0.864c0.609-1.585,0.557-2.448,0.413-4.026   c-0.144-1.579-0.38-3.874-0.733-5.786s-0.824-3.441-0.854-4.451c-0.03-1.009,0.379-1.499,0.692-2.285   c0.313-0.786,0.529-1.869,0.993,0.422c0.464,2.291,1.176,7.955,1.748,12.883c0.572,4.927,1.004,9.118,1.254,12.621   c0.25,3.504,0.317,6.32,0.421,8.404c0.103,2.084,0.243,3.436-0.031,4.557c-0.274,1.121-0.962,2.013-1.418,2.993   c-0.457,0.981-0.682,2.051-0.923,1.347c-0.241-0.704-0.496-3.182-0.753-4.513c-0.257-1.331-0.515-1.515-1.038-1.316   c-0.522,0.199-1.309,0.779-3.015,3.159c-1.705,2.38-4.329,6.558-6.266,9.466c-1.936,2.908-3.186,4.547-3.864,4.41   c-0.678-0.137-0.785-2.048-0.814-4.873c-0.029-2.826,0.021-6.565,1.011-9.929c0.991-3.363,2.923-6.351,4.751-9.102   c0.081-0.122,0.162-0.244,0.243-0.365c-2.676,0.232-4.737,0.628-6.258,0.943c-2.411,0.498-3.466,0.791-3.618-0.587   c-0.151-1.378,0.602-4.427,1.688-7.103c1.086-2.676,2.505-4.978,5.124-6.761C351.957,310.214,355.499,308.995,360.368,312.652z" style="fill:none;stroke:red;stroke-width:0.0001px"/><path d="M360.368,312.652c0.139-0.307,0.261-0.595,0.364-0.864c0.609-1.585,0.557-2.448,0.413-4.026   c-0.144-1.579-0.38-3.874-0.733-5.786s-0.824-3.441-0.854-4.451c-0.03-1.009,0.379-1.499,0.692-2.285   c0.313-0.786,0.529-1.869,0.993,0.422c0.464,2.291,1.176,7.955,1.748,12.883c0.572,4.927,1.004,9.118,1.254,12.621   c0.25,3.504,0.317,6.32,0.421,8.404c0.103,2.084,0.243,3.436-0.031,4.557c-0.274,1.121-0.962,2.013-1.418,2.993   c-0.457,0.981-0.682,2.051-0.923,1.347c-0.241-0.704-0.496-3.182-0.753-4.513c-0.257-1.331-0.515-1.515-1.038-1.316   c-0.522,0.199-1.309,0.779-3.015,3.159c-1.705,2.38-4.329,6.558-6.266,9.466c-1.936,2.908-3.186,4.547-3.864,4.41   c-0.678-0.137-0.785-2.048-0.814-4.873c-0.029-2.826,0.021-6.565,1.011-9.929c0.991-3.363,2.923-6.351,4.751-9.102   c0.081-0.122,0.162-0.244,0.243-0.365c-2.676,0.232-4.737,0.628-6.258,0.943c-2.411,0.498-3.466,0.791-3.618-0.587   c-0.151-1.378,0.602-4.427,1.688-7.103c1.086-2.676,2.505-4.978,5.124-6.761C351.957,310.214,355.499,308.995,360.368,312.652z" style="fill:none;stroke:red;stroke-width:0.0001px"/><polygon points="141.068,207.997 136.586,208.449 133.003,205.719 131.152,209.826 126.997,211.564    129.628,215.22 129.056,219.688 133.538,219.237 137.121,221.967 138.971,217.86 143.127,216.122 140.495,212.466  " style="fill:none;stroke:red;stroke-width:0.0001px"/><polygon points="141.068,207.997 136.586,208.449 133.003,205.719 131.152,209.826 126.997,211.564    129.628,215.22 129.056,219.688 133.538,219.237 137.121,221.967 138.971,217.86 143.127,216.122 140.495,212.466  " style="fill:none;stroke:red;stroke-width:0.0001px"/><polygon points="141.068,207.997 136.586,208.449 133.003,205.719 131.152,209.826 126.997,211.564    129.628,215.22 129.056,219.688 133.538,219.237 137.121,221.967 138.971,217.86 143.127,216.122 140.495,212.466  " style="fill:none;stroke:red;stroke-width:0.0001px"/><polygon points="309.643,386.982 305.161,387.433 301.577,384.704 299.727,388.811 295.571,390.549    298.203,394.205 297.631,398.673 302.113,398.222 305.696,400.952 307.546,396.844 311.702,395.106 309.07,391.45  " style="fill:none;stroke:red;stroke-width:0.0001px"/><polygon points="309.643,386.982 305.161,387.433 301.577,384.704 299.727,388.811 295.571,390.549    298.203,394.205 297.631,398.673 302.113,398.222 305.696,400.952 307.546,396.844 311.702,395.106 309.07,391.45  " style="fill:none;stroke:red;stroke-width:0.0001px"/><polygon points="309.643,386.982 305.161,387.433 301.577,384.704 299.727,388.811 295.571,390.549    298.203,394.205 297.631,398.673 302.113,398.222 305.696,400.952 307.546,396.844 311.702,395.106 309.07,391.45  " style="fill:none;stroke:red;stroke-width:0.0001px"/><polygon points="298.402,108.73 295.525,105.264 295.789,100.767 291.349,101.525 287.586,99.048    286.023,103.273 281.996,105.293 284.873,108.759 284.609,113.256 289.05,112.498 292.812,114.975 294.376,110.75  " style="fill:none;stroke:red;stroke-width:0.0001px"/><polygon points="298.402,108.73 295.525,105.264 295.789,100.767 291.349,101.525 287.586,99.048    286.023,103.273 281.996,105.293 284.873,108.759 284.609,113.256 289.05,112.498 292.812,114.975 294.376,110.75  " style="fill:none;stroke:red;stroke-width:0.0001px"/><polygon points="298.402,108.73 295.525,105.264 295.789,100.767 291.349,101.525 287.586,99.048    286.023,103.273 281.996,105.293 284.873,108.759 284.609,113.256 289.05,112.498 292.812,114.975 294.376,110.75  " style="fill:none;stroke:red;stroke-width:0.0001px"/><polygon points="353.723,265.221 351.969,263.107 352.13,260.365 349.423,260.828 347.129,259.317    346.175,261.893 343.72,263.125 345.474,265.238 345.313,267.98 348.021,267.518 350.315,269.028 351.268,266.452  " style="fill:none;stroke:red;stroke-width:0.0001px"/><polygon points="353.723,265.221 351.969,263.107 352.13,260.365 349.423,260.828 347.129,259.317    346.175,261.893 343.72,263.125 345.474,265.238 345.313,267.98 348.021,267.518 350.315,269.028 351.268,266.452  " style="fill:none;stroke:red;stroke-width:0.0001px"/><polygon points="353.723,265.221 351.969,263.107 352.13,260.365 349.423,260.828 347.129,259.317    346.175,261.893 343.72,263.125 345.474,265.238 345.313,267.98 348.021,267.518 350.315,269.028 351.268,266.452  " style="fill:none;stroke:red;stroke-width:0.0001px"/></g></svg>