<svg height="18in" id="Layer_1" version="1.1" width="32in" x="0px" xml:space="preserve" xmlns="http://www.w3.org/2000/svg" xmlns:xlink="http://www.w3.org/1999/xlink" y="0px"><g transform="translate(103.55339059327378 103.55339059327378) rotate(-45 250.0 250.0)"><path d="M213.718,163.009c-0.207-0.968,0.811-4.198,1.694-7.156c0.884-2.958,1.633-5.643,1.631-7.333   c-0.002-1.69-0.754-2.385-1.947-4.442c-1.193-2.057-2.826-5.478-4.025-6.277c-1.199-0.799-1.963,1.024-2.681,2.724   c-0.718,1.701-1.391,3.279-2.485,6.361c-1.094,3.082-2.61,7.667-3.097,11.305c-0.487,3.637,0.055,6.326,0.176,7.82   c0.122,1.493-0.178,1.79-0.947,2.108c-0.77,0.318-2.01,0.657-3.419,1.054c-1.41,0.398-2.988,0.855-5.14,1.265   c-2.152,0.41-4.877,0.774-7.519,0.848c-2.642,0.073-5.202-0.144-7.191-0.063c-1.989,0.08-3.406,0.458-3.456,1.146   c-0.05,0.688,1.267,1.686,4.181,2.549c2.914,0.863,7.425,1.592,11.32,1.771c3.895,0.178,7.175-0.193,9.241-0.714   c2.066-0.521,2.919-1.19,2.24-0.652c-0.68,0.538-2.891,2.283-4.548,4.259c-1.657,1.976-2.758,4.184-3.548,5.528   c-0.79,1.344-1.268,1.824-1.357,2.171c-0.088,0.347,0.213,0.56,0.454,0.752c0.241,0.191,0.421,0.361,1.099-0.266   c0.678-0.627,1.855-2.049,3.146-3.251c1.291-1.201,2.697-2.182,5.368-4.084c2.672-1.903,6.61-4.727,8.71-6.791   c2.1-2.063,2.362-3.365,3.505-4.717c1.143-1.352,3.167-2.753,5.017-3.965c1.85-1.212,3.526-2.233,3.857-2.632   c0.331-0.399-0.682-0.174-1.494-0.019c-0.811,0.155-1.42,0.24-1.843,0.077c-0.423-0.163-0.66-0.573-1.274-0.78   c-0.614-0.208-1.605-0.212-2.817,0.432C215.358,162.683,213.925,163.977,213.718,163.009z" style="fill:none;stroke:red;stroke-width:0.0001px"/><path d="M213.718,163.009c-0.207-0.968,0.811-4.198,1.694-7.156c0.884-2.958,1.633-5.643,1.631-7.333   c-0.002-1.69-0.754-2.385-1.947-4.442c-1.193-2.057-2.826-5.478-4.025-6.277c-1.199-0.799-1.963,1.024-2.681,2.724   c-0.718,1.701-1.391,3.279-2.485,6.361c-1.094,3.082-2.61,7.667-3.097,11.305c-0.487,3.637,0.055,6.326,0.176,7.82   c0.122,1.493-0.178,1.79-0.947,2.108c-0.77,0.318-2.01,0.657-3.419,1.054c-1.41,0.398-2.988,0.855-5.14,1.265   c-2.152,0.41-4.877,0.774-7.519,0.848c-2.642,0.073-5.202-0.144-7.191-0.063c-1.989,0.08-3.406,0.458-3.456,1.146   c-0.05,0.688,1.267,1.686,4.181,2.549c2.914,0.863,7.425,1.592,11.32,1.771c3.895,0.178,7.175-0.193,9.241-0.714   c2.066-0.521,2.919-1.19,2.24-0.652c-0.68,0.538-2.891,2.283-4.548,4.259c-1.657,1.976-2.758,4.184-3.548,5.528   c-0.79,1.344-1.268,1.824-1.357,2.171c-0.088,0.347,0.213,0.56,0.454,0.752c0.241,0.191,0.421,0.361,1.099-0.266   c0.678-0.627,1.855-2.049,3.146-3.251c1.291-1.201,2.697-2.182,5.368-4.084c2.672-1.903,6.61-4.727,8.71-6.791   c2.1-2.063,2.362-3.365,3.505-4.717c1.143-1.352,3.167-2.753,5.017-3.965c1.85-1.212,3.526-2.233,3.857-2.632   c0.331-0.399-0.682-0.174-1.494-0.019c-0.811,0.155-1.42,0.24-1.843,0.077c-0.423-0.163-0.66-0.573-1.274-0.78   c-0.614-0.208-1.605-0.212-2.817,0.432C215.358,162.683,213.925,163.977,213.718,163.009z" style="fill:none;stroke:red;stroke-width:0.0001px"/><path d="M213.718,163.009c-0.207-0.968,0.811-4.198,1.694-7.156c0.884-2.958,1.633-5.643,1.631-7.333   c-0.002-1.69-0.754-2.385-1.947-4.442c-1.193-2.057-2.826-5.478-4.025-6.277c-1.199-0.799-1.963,1.024-2.681,2.724   c-0.718,1.701-1.391,3.279-2.485,6.361c-1.094,3.082-2.61,7.667-3.097,11.305c-0.487,3.637,0.055,6.326,0.176,7.82   c0.122,1.493-0.178,1.79-0.947,2.108c-0.77,0.318-2.01,0.657-3.419,1.054c-1.41,0.398-2.988,0.855-5.14,1.265   c-2.152,0.41-4.877,0.774-7.519,0.848c-2.642,0.073-5.202-0.144-7.191-0.063c-1.989,0.08-3.406,0.458-3.456,1.146   c-0.05,0.688,1.267,1.686,4.181,2.549c2.914,0.863,7.425,1.592,11.32,1.771c3.895,0.178,7.175-0.193,9.241-0.714   c2.066-0.521,2.919-1.19,2.24-0.652c-0.68,0.538-2.891,2.283-4.548,4.259c-1.657,1.976-2.758,4.184-3.548,5.528   c-0.79,1.344-1.268,1.824-1.357,2.171c-0.088,0.347,0.213,0.56,0.454,0.752c0.241,0.191,0.421,0.361,1.099-0.266   c0.678-0.627,1.855-2.049,3.146-3.251c1.291-1.201,2.697-2.182,5.368-4.084c2.672-1.903,6.61-4.727,8.71-6.791   c2.1-2.063,2.362-3.365,3.505-4.717c1.143-1.352,3.167-2.753,5.017-3.965c1.85-1.212,3.526-2.233,3.857-2.632   c0.331-0.399-0.682-0.174-1.494-0.019c-0.811,0.155-1.42,0.24-1.843,0.077c-0.423-0.163-0.66-0.573-1.274-0.78   c-0.614-0.208-1.605-0.212-2.817,0.432C215.358,162.683,213.925,163.977,213.718,163.009z" style="fill:none;stroke:red;stroke-width:0.0001px"/><path d="M360.368,312.652c0.139-0.307,0.261-0.595,0.364-0.864c0.609-1.585,0.557-2.448,0.413-4.026   c-0.144-1.579-0.38-3.874-0.733-5.786s-0.824-3.441-0.854-4.451c-0.03-1.009,0.379-1.499,0.692-2.285   c0.313-0.786,0.529-1.869,0.993,0.422c0.464,2.291,1.176,7.955,1.748,12.883c0.572,4.927,1.004,9.118,1.254,12.621   c0.25,3.504,0.317,6.32,0.421,8.404c0.103,2.084,0.243,3.436-0.031,4.557c-0.274,1.121-0.962,2.013-1.418,2.993   c-0.457,0.981-0.682,2.051-0.923,1.347c-0.241-0.704-0.496-3.182-0.753-4.513c-0.257-1.331-0.515-1.515-1.038-1.316   c-0.522,0.199-1.309,0.779-3.015,3.159c-1.705,2.38-4.329,6.558-6.266,9.466c-1.936,2.908-3.186,4.547-3.864,4.41   c-0.678-0.137-0.785-2.048-0.814-4.873c-0.029-2.826,0.021-6.565,1.011-9.929c0.991-3.363,2.923-6.351,4.751-9.102   c0.081-0.122,0.162-0.244,0.243-0.365c-2.676,0.232-4.737,0.628-6.258,0.943c-2.411,0.498-3.466,0.791-3.618-0.587   c-0.151-1.378,0.602-4.427,1.688-7.103c1.086-2.676,2.505-4.978,5.124-6.761C351.957,310.214,355.499,308.995,360.368,312.652z" style="fill:none;stroke:red;stroke-width:0.0001px"/><path d="M360.368,312.652c0.139-0.307,0.261-0.595,0.364-0.864c0.609-1.585,0.557-2.448,0.413-4.026   c-0.144-1.579-0.38-3.874-0.733-5.786s-0.824-3.441-0.854-4.451c-0.03-1.009,0.379-1.499,0.692-2.285   c0.313-0.786,0.529-1.869,0.993,0.422c0.464,2.291,1.176,7.955,1.748,12.883c0.572,4.927,1.004,9.118,1.254,12.621   c0.25,3.504,0.317,6.32,0.421,8.404c0.103,2.084,0.243,3.436-0.031,4.557c-0.274,1.121-0.962,2.013-1.418,2.993   c-0.457,0.981-0.682,2.051-0.923,1.347c-0.241-0.704-0.496-3.182-0.753-4.513c-0.257-1.331-0.515-1.515-1.038-1.316   c-0.522,0.199-1.309,0.779-3.015,3.159c-1.705,2.38-4.329,6.558-6.266,9.466c-1.936,2.908-3.186,4.547-3.864,4.41   c-0.678-0.137-0.785-2.048-0.814-4.873c-0.029-2.826,0.021-6.565,1.011-9.929c0.991-3.363,2.923-6.351,4.751-9.102   c0.081-0.122,0.162-0.244,0.243-0.365c-2.676,0.232-4.737,0.628-6.258,0.943c-2.411,0.498-3.466,0.791-3.618-0.587   c-0.151-1.378,0.602-4.427,1.688-7.103c1.086-2.676,2.505-4.978,5.124-6.761C351.957,310.214,355.499,308.995,360.368,312.652z" style="fill:none;stroke:red;stroke-width:0.0001px"/><path d="M360.368,312.652c0.139-0.307,0.261-0.595,0.364-0.864c0.609-1.585,0.557-2.448,0.413-4.026   c-0.144-1.579-0.38-3.874-0.733-5.786s-0.824-3.441-0.854-4.451c-0.03-1.009,0.379-1.499,0.692-2.285   c0.313-0.786,0.529-1.869,0.993,0.422c0.464,2.291,1.176,7.955,1.748,12.883c0.572,4.927,1.004,9.118,1.254,12.621   c0.25,3.504,0.317,6.32,0.421,8.404c0.103,2.084,0.243,3.436-0.031,4.557c-0.274,1.121-0.962,2.013-1.418,2.993   c-0.457,0.981-0.682,2.051-0.923,1.347c-0.241-0.704-0.496-3.182-0.753-4.513c-0.257-1.331-0.515-1.515-1.038-1.316   c-0.522,0.199-1.309,0.779-3.015,3.159c-1.705,2.38-4.329,6.558-6.266,9.466c-1.936,2.908-3.186,4.547-3.864,4.41   c-0.678-0.137-0.785-2.048-0.814-4.873c-0.029-2.826,0.021-6.565,1.011-9.929c0.991-3.363,2.923-6.351,4.751-9.102   c0.081-0.122,0.162-0.244,0.243-0.365c-2.676,0.232-4.737,0.628-6.258,0.943c-2.411,0.498-3.466,0.791-3.618-0.587   c-0.151-1.378,0.602-4.427,1.688-7.103c1.086-2.676,2.505-4.978,5.124-6.761C351.957,310.214,355.499,308.995,360.368,312.652z" style="fill:none;stroke:red;stroke-width:0.0001px"/><polygon points="298.402,108.73 295.525,105.264 295.789,100.767 291.349,101.525 287.586,99.048    286.023,103.273 281.996,105.293 284.873,108.759 284.609,113.256 289.05,112.498 292.812,114.975 294.376,110.75  " style="fill:none;stroke:red;stroke-width:0.0001px"/><polygon points="298.402,108.73 295.525,105.264 295.789,100.767 291.349,101.525 287.586,99.048    286.023,103.273 281.996,105.293 284.873,108.759 284.609,113.256 289.05,112.498 292.812,114.975 294.376,110.75  " style="fill:none;stroke:red;stroke-width:0.0001px"/><polygon points="298.402,108.73 295.525,105.264 295.789,100.767 291.349,101.525 287.586,99.048    286.023,103.273 281.996,105.293 284.873,108.759 284.609,113.256 289.05,112.498 292.812,114.975 294.376,110.75  " style="fill:none;stroke:red;stroke-width:0.0001px"/><polygon points="353.723,265.221 351.969,263.107 352.13,260.365 349.423,260.828 347.129,259.317    346.175,261.893 343.72,263.125 345.474,265.238 345.313,267.98 348.021,267.518 350.315,269.028 351.268,266.452  " style="fill:none;stroke:red;stroke-width:0.0001px"/><polygon points="353.723,265.221 351.969,263.107 352.13,260.365 349.423,260.828 347.129,259.317    346.175,261.893 343.72,263.125 345.474,265.238 345.313,267.98 348.021,267.518 350.315,269.028 351.268,266.452  " style="fill:none;stroke:red;stroke-width:0.0001px"/><polygon points="353.723,265.221 351.969,263.107 352.13,260.365 349.423,260.828 347.129,259.317    346.175,261.893 343.72,263.125 345.474,265.238 345.313,267.98 348.021,267.518 350.315,269.028 351.268,266.452  " style="fill:none;stroke:red;stroke-width:0.0001px"/></g></svg>