<svg height="18in" id="Layer_1" version="1.1" width="32in" x="0px" xml:space="preserve" xmlns="http://www.w3.org/2000/svg" xmlns:xlink="http://www.w3.org/1999/xlink" y="0px"><g transform="translate(103.55339059327378 103.55339059327378) rotate(-45 250.0 250.0)"><polygon points="141.068,207.997 136.586,208.449 133.003,205.719 131.152,209.826 126.997,211.564    129.628,215.22 129.056,219.688 133.538,219.237 137.121,221.967 138.971,217.86 143.127,216.122 140.495,212.466  " style="fill:none;stroke:red;stroke-width:0.0001px"/><polygon points="141.068,207.997 136.586,208.449 133.003,205.719 131.152,209.826 126.997,211.564    129.628,215.22 129.056,219.688 133.538,219.237 137.121,221.967 138.971,217.86 143.127,216.122 140.495,212.466  " style="fill:none;stroke:red;stroke-width:0.0001px"/><polygon points="141.068,207.997 136.586,208.449 133.003,205.719 131.152,209.826 126.997,211.564    129.628,215.22 129.056,219.688 133.538,219.237 137.121,221.967 138.971,217.86 143.127,216.122 140.495,212.466  " style="fill:none;stroke:red;stroke-width:0.0001px"/><polygon points="141.068,207.997 136.586,208.449 133.003,205.719 131.152,209.826 126.997,211.564    129.628,215.22 129.056,219.688 133.538,219.237 137.121,221.967 138.971,217.86 143.127,216.122 140.495,212.466  " style="fill:none;stroke:red;stroke-width:0.0001px"/><polygon points="141.068,207.997 136.586,208.449 133.003,205.719 131.152,209.826 126.997,211.564    129.628,215.22 129.056,219.688 133.538,219.237 137.121,221.967 138.971,217.86 143.127,216.122 140.495,212.466  " style="fill:none;stroke:red;stroke-width:0.0001px"/><polygon points="309.643,386.982 305.161,387.433 301.577,384.704 299.727,388.811 295.571,390.549    298.203,394.205 297.631,398.673 302.113,398.222 305.696,400.952 307.546,396.844 311.702,395.106 309.07,391.45  " style="fill:none;stroke:red;stroke-width:0.0001px"/><polygon points="309.643,386.982 305.161,387.433 301.577,384.704 299.727,388.811 295.571,390.549    298.203,394.205 297.631,398.673 302.113,398.222 305.696,400.952 307.546,396.844 311.702,395.106 309.07,391.45  " style="fill:none;stroke:red;stroke-width:0.0001px"/><polygon points="309.643,386.982 305.161,387.433 301.577,384.704 299.727,388.811 295.571,390.549    298.203,394.205 297.631,398.673 302.113,398.222 305.696,400.952 307.546,396.844 311.702,395.106 309.07,391.45  " style="fill:none;stroke:red;stroke-width:0.0001px"/><polygon points="309.643,386.982 305.161,387.433 301.577,384.704 299.727,388.811 295.571,390.549    298.203,394.205 297.631,398.673 302.113,398.222 305.696,400.952 307.546,396.844 311.702,395.106 309.07,391.45  " style="fill:none;stroke:red;stroke-width:0.0001px"/><polygon points="309.643,386.982 305.161,387.433 301.577,384.704 299.727,388.811 295.571,390.549    298.203,394.205 297.631,398.673 302.113,398.222 305.696,400.952 307.546,396.844 311.702,395.106 309.07,391.45  " style="fill:none;stroke:red;stroke-width:0.0001px"/></g></svg>