<svg id="Layer_1" style="enable-background:new 0 0 400 400;" version="1.1" viewBox="0 0 400.0 400.0" x="0px" xml:space="preserve" xmlns="http://www.w3.org/2000/svg" xmlns:xlink="http://www.w3.org/1999/xlink" y="0px"><path d="M126.9,360.5h-44v1.6c13.5,9.8,28.3,17.9,44,24.1V360.5z" style="fill:#785460;"/><path d="M34.2,311.8V277H15.4C20.5,289.3,26.8,300.9,34.2,311.8L34.2,311.8z" style="fill:#785460;"/><path d="M82.9,37.8L82.9,37.8l44,0.1V13.8C111.2,20,96.4,28.1,82.9,37.8z" style="fill:#785460;"/><path d="M34.2,88.1c-9.4,13.9-17.1,29-22.8,45h22.8V88.1z" style="fill:#785460;"/><rect height="46.5" style="fill:#785460;" width="53.2" x="175.6" y="86.6"/><rect height="46.5" style="fill:#785460;" width="53.2" x="175.6" y="181.8"/><rect height="46.5" style="fill:#785460;" width="44" x="82.9" y="181.8"/><rect height="46.5" style="fill:#785460;" width="44" x="82.9" y="86.6"/><path d="M34.2,181.8H0.8C0.3,187.8,0,193.9,0,200c0,9.6,0.7,19.1,2,28.3h32.2V181.8z" style="fill:#785460;"/><rect height="34.8" style="fill:#785460;" width="44" x="82.9" y="277"/><path d="M372,228.3h26c1.3-9.2,2-18.7,2-28.3c0-6.1-0.3-12.2-0.8-18.2H372V228.3z" style="fill:#785460;"/><path d="M319.3,360.5h-41.7v23.9C292.5,378.1,306.5,370.1,319.3,360.5z" style="fill:#785460;"/><path d="M372,277v25c4.8-8,9-16.4,12.6-25H372z" style="fill:#785460;"/><path d="M175.6,37.9h53.2V2.1C219.4,0.7,209.8,0,200,0c-8.2,0-16.4,0.5-24.4,1.5V37.9z" style="fill:#785460;"/><path d="M228.9,360.5h-53.2v38c8,1,16.1,1.5,24.4,1.5c9.8,0,19.4-0.7,28.9-2.1V360.5z" style="fill:#785460;"/><path d="M277.6,37.9h39.6c-12.2-8.9-25.5-16.4-39.6-22.3V37.9z" style="fill:#785460;"/><path d="M372,98v35.1h16.5C384.2,120.8,378.6,109,372,98z" style="fill:#785460;"/><rect height="34.8" style="fill:#785460;" width="53.2" x="175.6" y="277"/><rect height="46.5" style="fill:#785460;" width="45.8" x="277.6" y="86.6"/><rect height="46.5" style="fill:#785460;" width="45.8" x="277.6" y="181.8"/><rect height="34.8" style="fill:#785460;" width="45.8" x="277.6" y="277"/><path d="M323.1,42.3h-49.3V14.1C260.9,9,247.4,5.1,233.5,2.8v39.6h-61.6V2c-14,2-27.5,5.4-40.3,10.1v30.3  H79.2v-1.7C63.5,52.5,49.6,66.7,38,82.7h0.8v54.9H9.9c-4.2,12.9-7.2,26.4-8.7,40.3h37.6v54.9H2.7c2.3,14,6.1,27.5,11.1,40.3h25v43.2  h-1.6c11.7,16.4,25.9,30.9,41.9,43.1v-2.8h52.4V388c12.9,4.7,26.4,8.1,40.3,10.1v-41.4h61.6v40.6c14-2.4,27.5-6.2,40.3-11.3v-29.3  h50.6c17.1-13.6,32-30,43.9-48.5v-35h17.9c5-12.9,8.8-26.4,11.1-40.3h-29v-54.9h30.5c-1.5-13.9-4.5-27.4-8.7-40.3h-21.8V91.9  C356.1,72.9,340.8,56.2,323.1,42.3z M131.5,316.3H79.2v-43.2h52.4V316.3z M131.5,232.7H79.2v-54.9h52.4V232.7z M131.5,137.5H79.2  V82.7h52.4V137.5z M233.5,316.3h-61.6v-43.2h61.6V316.3z M233.5,232.7h-61.6v-54.9h61.6V232.7z M233.5,137.5h-61.6V82.7h61.6V137.5z   M327.9,316.3h-54.1v-43.2h54.1V316.3z M327.9,232.7h-54.1v-54.9h54.1V232.7z M327.9,137.5h-54.1V82.7h54.1V137.5z" style="fill:#00AD45;"/></svg>