<svg id="Layer_1" style="enable-background:new 0 0 465.433 458.521;" version="1.1" viewBox="0 0 465.433 458.521" x="0px" xml:space="preserve" xmlns="http://www.w3.org/2000/svg" xmlns:xlink="http://www.w3.org/1999/xlink" y="0px"><path d="M243.976,233.914c0.024,0.992,0.048,1.983,0.073,2.975c-0.992,0.024-1.983,0.049-2.975,0.073  c-0.946,0.023-1.89,0.046-2.834,0.07c-3.764,0.091-7.523,0.183-11.281,0.275c-0.008,0-0.016,0.001-0.025,0.001  c-0.011,0-0.022,0-0.033,0.001c-0.943,0.022-1.886,0.045-2.831,0.068c-0.992,0.024-1.984,0.049-2.976,0.073  c-0.024-0.992-0.048-1.984-0.073-2.976c-0.596-24.393-1.191-48.778-1.786-73.153c-0.261,0.128-0.522,0.257-0.782,0.387  c-0.689,0.343-1.375,0.692-2.057,1.048c-0.597,0.311-1.192,0.629-1.782,0.953c-0.51,0.28-1.017,0.566-1.519,0.86  c-0.427,0.25-0.85,0.505-1.268,0.769c-0.347,0.219-0.69,0.445-1.028,0.679c-0.27,0.187-0.537,0.38-0.796,0.582  c-0.122,0.095-0.242,0.191-0.36,0.291c0.564,0.432,1.125,0.868,1.675,1.318c0.666,0.547,1.315,1.116,1.923,1.727  c0.308,0.31,0.606,0.632,0.887,0.967c0.287,0.342,0.557,0.699,0.805,1.071c0.256,0.385,0.487,0.787,0.684,1.206  c0.206,0.438,0.376,0.893,0.501,1.361c0.13,0.49,0.211,0.994,0.238,1.501c0.028,0.525-0.003,1.053-0.088,1.571  c-0.087,0.531-0.232,1.052-0.424,1.554c-0.197,0.516-0.445,1.012-0.728,1.486c-0.297,0.496-0.633,0.968-0.997,1.418  c-0.391,0.483-0.814,0.941-1.257,1.378c-0.486,0.479-0.996,0.934-1.522,1.368c-0.585,0.484-1.19,0.944-1.808,1.385  c-0.399,0.285-0.804,0.563-1.215,0.833c-0.458,0.3-0.924,0.59-1.396,0.868c-1.13,0.666-2.297,1.27-3.484,1.828  c-0.717,0.337-1.441,0.658-2.171,0.967c-0.834,0.352-1.674,0.687-2.52,1.01c-0.967,0.369-1.941,0.721-2.918,1.061  c-1.117,0.388-2.24,0.76-3.367,1.119c-1.284,0.41-2.573,0.803-3.866,1.184c-1.468,0.433-2.94,0.851-4.416,1.257  c-1.669,0.459-3.342,0.904-5.017,1.337c-1.887,0.487-3.777,0.96-5.67,1.422c-2.121,0.518-4.245,1.022-6.372,1.515  c-2.372,0.55-4.748,1.087-7.126,1.613c-4.656,1.031-9.32,2.023-13.991,2.988c0.007,0.046,0.013,0.092,0.02,0.138  c0.234,1.613,0.495,3.222,0.785,4.826c0.303,1.682,0.637,3.359,1.007,5.028c0.177,0.798,0.362,1.594,0.557,2.388  c0.187,0.761,0.384,1.519,0.589,2.275c0.392,1.447,0.813,2.887,1.236,4.325c0.424,1.44,0.85,2.879,1.244,4.327  c0.193,0.711,0.379,1.424,0.551,2.14c0.328,1.366,0.608,2.744,0.804,4.135c0.2,1.421,0.314,2.855,0.316,4.29  c0.002,1.609-0.131,3.219-0.405,4.805c-0.139,0.805-0.315,1.604-0.531,2.393c-0.217,0.796-0.475,1.581-0.776,2.349  c-0.302,0.772-0.649,1.527-1.042,2.256c-0.394,0.732-0.835,1.438-1.326,2.109c-0.466,0.637-0.976,1.242-1.529,1.805  c-0.3,0.305-0.612,0.597-0.937,0.876c-0.066,0.057-0.132,0.113-0.199,0.168c0.824,1.39,1.635,2.788,2.441,4.188  c1.639,2.848,3.255,5.709,4.89,8.56c1.338,2.334,2.688,4.66,4.076,6.965c0.665,1.105,1.34,2.206,2.027,3.298  c1.243,1.973,2.529,3.92,3.861,5.834c1.265,1.817,2.571,3.605,3.919,5.362c1.249,1.627,2.535,3.227,3.855,4.798  c1.219,1.45,2.469,2.876,3.745,4.277c0.191,0.209,0.382,0.418,0.574,0.627c0.209-0.23,0.436-0.444,0.677-0.641  c0.21-0.171,0.432-0.329,0.662-0.473c0.233-0.145,0.475-0.276,0.724-0.392c0.504-0.235,1.035-0.41,1.577-0.535  c0.535-0.123,1.081-0.196,1.628-0.238c0.553-0.042,1.107-0.051,1.662-0.04c0.361,0.008,0.722,0.024,1.082,0.047  c0.59,0.038,1.178,0.096,1.765,0.165c1.23,0.145,2.454,0.341,3.673,0.558c1.253,0.223,2.503,0.468,3.751,0.716  c1.315,0.262,2.629,0.527,3.948,0.766c0.797,0.144,1.597,0.279,2.399,0.396c0.673,0.099,1.349,0.185,2.026,0.255  c0.438,0.045,0.876,0.082,1.315,0.107c0.096,0.005,0.192,0.01,0.287,0.014c-0.046-0.211-0.08-0.425-0.1-0.64  c-0.015-0.161-0.021-0.323-0.019-0.485c0.002-0.175,0.015-0.35,0.038-0.523c0.024-0.186,0.061-0.37,0.109-0.551  c0.051-0.19,0.114-0.377,0.191-0.558c0.078-0.185,0.169-0.365,0.271-0.538c0.102-0.171,0.216-0.336,0.34-0.491  c0.122-0.153,0.253-0.298,0.393-0.434c0.136-0.133,0.28-0.257,0.43-0.374c0.146-0.113,0.298-0.219,0.454-0.317  c0.294-0.184,0.603-0.342,0.921-0.479c0.334-0.143,0.679-0.262,1.028-0.363c0.374-0.109,0.753-0.199,1.135-0.274  c0.438-0.087,0.879-0.154,1.322-0.211c0.546-0.069,1.094-0.121,1.644-0.163c0.61-0.046,1.221-0.08,1.833-0.105  c0.67-0.028,1.341-0.047,2.012-0.059c1.146-0.021,2.292-0.024,3.438-0.017c1.597,0.01,3.195,0.04,4.791,0.08  c1.672,0.042,3.343,0.095,5.014,0.154c2.314,0.081,4.629,0.172,6.943,0.261c1.539,0.059,3.079,0.116,4.618,0.164  c0.82,0.026,1.64,0.049,2.46,0.067c0.21-0.176,0.419-0.351,0.629-0.527c2.945-2.467,5.883-4.943,8.812-7.431  c2.567-2.181,5.126-4.371,7.675-6.573c2.212-1.912,4.416-3.833,6.608-5.768c1.881-1.66,3.753-3.33,5.613-5.015  c1.573-1.426,3.137-2.862,4.686-4.314c1.517-1.422,3.021-2.859,4.498-4.322c0.977-0.967,1.943-1.947,2.889-2.945  c0.742-0.783,1.471-1.577,2.177-2.393c0.523-0.604,1.033-1.22,1.515-1.858c0.182-0.242,0.361-0.486,0.532-0.736  c0.137-0.199,0.27-0.401,0.395-0.607c-0.673-0.229-1.344-0.463-2.008-0.714c-0.806-0.305-1.603-0.637-2.374-1.023  c-0.391-0.196-0.776-0.405-1.15-0.633c-0.382-0.232-0.751-0.484-1.104-0.758c-0.365-0.284-0.712-0.591-1.033-0.924  c-0.336-0.349-0.642-0.726-0.909-1.13c-0.28-0.423-0.518-0.874-0.705-1.346c-0.194-0.488-0.334-0.998-0.418-1.517  c-0.087-0.531-0.116-1.071-0.094-1.608c0.022-0.552,0.098-1.101,0.215-1.641c0.123-0.565,0.291-1.12,0.492-1.662  c0.216-0.583,0.471-1.152,0.751-1.707c0.307-0.609,0.646-1.203,1.005-1.783c0.4-0.645,0.827-1.274,1.271-1.89  c0.275-0.381,0.556-0.757,0.846-1.127c0.321-0.411,0.652-0.814,0.992-1.21c0.806-0.94,1.661-1.837,2.548-2.7  c0.531-0.517,1.073-1.022,1.624-1.518c0.625-0.563,1.262-1.113,1.906-1.653c0.733-0.615,1.477-1.217,2.228-1.809  c0.854-0.673,1.718-1.334,2.589-1.985c0.988-0.739,1.986-1.465,2.99-2.182c1.136-0.811,2.281-1.609,3.432-2.399  c1.297-0.889,2.603-1.767,3.915-2.636c1.472-0.975,2.952-1.938,4.438-2.892c3.509-2.254,7.049-4.459,10.608-6.634  c0.143-0.088,0.287-0.175,0.431-0.263c0.367-1.764,0.723-3.531,1.063-5.301c0.609-3.167,1.169-6.344,1.661-9.531  c0.298-1.935,0.572-3.874,0.814-5.818c-0.03-0.023-0.06-0.046-0.09-0.069c-1.6-1.242-3.169-2.522-4.715-3.829  c-1.288-1.089-2.56-2.197-3.818-3.322c-1.297-1.16-2.579-2.337-3.847-3.528c-2.622-2.464-5.186-4.989-7.693-7.57  c-2.511-2.584-4.965-5.224-7.352-7.922c-1.158-1.308-2.3-2.63-3.423-3.967c-1.091-1.299-2.166-2.612-3.219-3.943  c-1.944-2.456-3.816-4.971-5.587-7.554c-0.805-1.174-1.59-2.363-2.35-3.567c-0.579-0.916-1.143-1.841-1.692-2.775  c-3.95,1.512-7.896,3.033-11.838,4.566c-4.128,1.605-8.251,3.223-12.367,4.86c-3.55,1.412-7.094,2.837-10.631,4.282  c-1.225,0.501-2.449,1.003-3.671,1.509C242.63,178.816,243.303,206.359,243.976,233.914z" style="fill:#A2E2FF;"/><path d="M324.649,180.641c0.247-2.37,0.443-4.745,0.574-7.123c0.164-2.984,0.226-5.974,0.147-8.961  c-0.038-1.441-0.109-2.882-0.217-4.319c-0.102-1.344-0.237-2.686-0.411-4.023c-0.32-2.45-0.774-4.883-1.393-7.275  c-0.625-2.414-1.419-4.786-2.371-7.091c-0.5-1.209-1.043-2.4-1.625-3.571c-0.616-1.242-1.276-2.462-1.972-3.661  c-1.535-2.644-3.248-5.183-5.073-7.636c-1.29-1.734-2.637-3.424-4.026-5.08c-3.868-0.323-6.882,0.571-8.934,0.153  c-3.329-0.679-4.122-4.817-8.499-7.836s-12.338-4.919-14.043,0.173c-1.704,5.092,2.848,17.175,14.427,32.198  C300.254,158.291,313.54,171.778,324.649,180.641z" style="fill:#8ADDC3;"/></svg>