<svg id="Layer_1" style="enable-background:new 0 0 465.433 458.521;" version="1.1" viewBox="0 0 465.433 458.521" x="0px" xml:space="preserve" xmlns="http://www.w3.org/2000/svg" xmlns:xlink="http://www.w3.org/1999/xlink" y="0px"><path d="M337.783,48.269c55.313,120.244,51.708,135.22,46.604,137.95c-5.438,2.909-12.576-8.086-11.354,1.866  c1.222,9.952,10.804,40.851,19.025,54.607c8.22,13.756,15.079,10.368,18.299-2.112c2.545-9.867,2.816-25.416,23.966,27.433  c0.043-0.205,0.086-0.411,0.128-0.616c1.461-7.085,2.549-14.247,3.259-21.446c0.71-7.199,1.042-14.436,0.993-21.669  c-0.049-7.174-0.472-14.347-1.268-21.477c-0.792-7.093-1.951-14.145-3.473-21.118c-1.518-6.955-3.396-13.832-5.624-20.594  c-2.228-6.762-4.806-13.408-7.72-19.903c-2.922-6.512-6.181-12.872-9.762-19.046c-3.599-6.207-7.522-12.225-11.748-18.023  c-4.261-5.846-8.83-11.468-13.68-16.835c-4.766-5.273-9.804-10.3-15.088-15.054c-5.241-4.715-10.724-9.162-16.42-13.316  C348.71,55.117,343.324,51.563,337.783,48.269z" style="fill:#C73ED6;"/></svg>