<svg id="Layer_1" style="enable-background:new 0 0 465.433 458.521;" version="1.1" viewBox="0 0 465.433 458.521" x="0px" xml:space="preserve" xmlns="http://www.w3.org/2000/svg" xmlns:xlink="http://www.w3.org/1999/xlink" y="0px"><path d="M303.948,419.273c0.217-0.289,0.435-0.579,0.654-0.869c-0.955-1.501-1.896-3.01-2.821-4.529  c-1.594-2.617-3.141-5.262-4.63-7.94c-1.369-2.461-2.689-4.95-3.947-7.469c-1.162-2.327-2.271-4.68-3.314-7.063  c-0.957-2.186-1.859-4.397-2.691-6.634c-0.759-2.042-1.459-4.106-2.088-6.192c-1.112-3.693-2-7.457-2.55-11.274  c-0.473-3.285-0.696-6.61-0.577-9.927c0.105-2.937,0.478-5.868,1.161-8.727c0.623-2.605,1.503-5.15,2.628-7.581  c0.533-1.152,1.121-2.279,1.757-3.378c0.513-0.886,1.058-1.754,1.632-2.602c-0.015-0.035-0.03-0.071-0.044-0.106  c-0.14-0.344-0.261-0.696-0.368-1.052c-0.146,0.111-0.291,0.223-0.435,0.337c-0.149,0.118-0.298,0.236-0.446,0.356  c-0.243,0.197-0.485,0.395-0.725,0.595c-0.532,0.442-1.058,0.891-1.582,1.342c-1.051,0.904-2.095,1.816-3.147,2.718  c-0.599,0.513-1.2,1.022-1.808,1.525c-0.449,0.372-0.902,0.74-1.359,1.102c-0.585,0.463-1.177,0.916-1.782,1.353  c-0.569,0.41-1.149,0.806-1.748,1.172c-0.287,0.176-0.577,0.344-0.873,0.504c-0.284,0.153-0.573,0.298-0.868,0.432  c-0.284,0.129-0.572,0.247-0.865,0.353c-0.156,0.056-0.312,0.108-0.471,0.156c-0.293,0.088-0.592,0.162-0.894,0.215  c-0.314,0.055-0.632,0.089-0.951,0.096c-0.35,0.007-0.7-0.019-1.043-0.084c-0.252-0.048-0.499-0.116-0.739-0.206  c-0.193-0.072-0.381-0.159-0.561-0.259c-0.188-0.104-0.369-0.223-0.539-0.356c-0.174-0.136-0.336-0.285-0.486-0.448  c-0.148-0.161-0.284-0.334-0.404-0.517c-0.073-0.111-0.141-0.226-0.204-0.343c-0.096-0.181-0.179-0.368-0.248-0.56  c-0.129-0.356-0.211-0.729-0.252-1.105c-0.037-0.344-0.04-0.691-0.015-1.037c0.024-0.331,0.073-0.66,0.14-0.985  c0.127-0.613,0.32-1.211,0.549-1.794c0.135-0.344,0.284-0.683,0.441-1.018c0.171-0.364,0.354-0.723,0.544-1.078  c0.433-0.806,0.908-1.589,1.408-2.356c0.592-0.909,1.218-1.795,1.865-2.665c0.632-0.85,1.284-1.684,1.949-2.509  c-3.026-0.463-6.052-0.932-9.078-1.391c-1.962-0.298-3.925-0.592-5.889-0.876c-1.851-0.267-3.703-0.526-5.557-0.769  c-4.413-0.578-8.838-1.068-13.273-1.444c-2.089-0.177-4.18-0.329-6.273-0.452c-1.982-0.116-3.965-0.206-5.95-0.266  c-1.869-0.056-3.739-0.085-5.609-0.081c-1.762,0.003-3.523,0.036-5.284,0.103c-1.635,0.062-3.268,0.155-4.899,0.286  c-0.843,0.067-1.686,0.145-2.528,0.234c-1.416,0.15-2.828,0.333-4.233,0.558c-1.273,0.204-2.541,0.442-3.798,0.727  c-1.123,0.254-2.239,0.544-3.339,0.885c-0.966,0.299-1.921,0.637-2.853,1.028c-0.802,0.337-1.588,0.713-2.343,1.146  c-0.331,0.19-0.657,0.391-0.973,0.605c-0.289,0.195-0.57,0.401-0.841,0.619c-0.247,0.198-0.485,0.407-0.712,0.627  c-0.208,0.203-0.407,0.415-0.594,0.638c-0.175,0.209-0.339,0.426-0.491,0.652c-0.144,0.215-0.277,0.439-0.397,0.669  c-0.118,0.226-0.225,0.458-0.319,0.695c-0.095,0.239-0.178,0.483-0.248,0.73c-0.148,0.519-0.241,1.053-0.291,1.59  c-0.055,0.595-0.058,1.193-0.021,1.789c0.04,0.665,0.129,1.326,0.251,1.98c0.135,0.723,0.311,1.438,0.516,2.145  c0.223,0.768,0.48,1.526,0.76,2.275c0.301,0.803,0.63,1.596,0.979,2.381c0.367,0.826,0.756,1.641,1.161,2.449  c0.419,0.835,0.854,1.662,1.302,2.482c0.886,1.623,1.818,3.22,2.771,4.805c0.497,0.827,1,1.651,1.505,2.473  c0.549,0.894,1.102,1.786,1.653,2.679c0.487,0.789,0.972,1.578,1.451,2.372c0.461,0.764,0.917,1.53,1.362,2.304  c0.423,0.736,0.834,1.478,1.228,2.229c0.371,0.708,0.726,1.425,1.052,2.155c0.156,0.349,0.305,0.701,0.445,1.056  c0.112,0.282,0.218,0.567,0.317,0.853c0.119,0.345,0.229,0.693,0.325,1.044c0.095,0.347,0.178,0.697,0.245,1.051  c0.067,0.353,0.117,0.71,0.146,1.068c0.03,0.365,0.039,0.731,0.023,1.096c-0.017,0.377-0.062,0.753-0.139,1.123  c-0.079,0.385-0.193,0.764-0.342,1.128c-0.154,0.378-0.346,0.74-0.573,1.078c-0.23,0.344-0.497,0.663-0.792,0.953  c-0.293,0.288-0.614,0.547-0.955,0.775c-0.339,0.226-0.698,0.422-1.069,0.591c-0.373,0.169-0.758,0.311-1.151,0.429  c-0.403,0.121-0.814,0.218-1.228,0.294c-0.435,0.081-0.873,0.14-1.313,0.182c-0.551,0.053-1.104,0.08-1.657,0.089  c-0.516,0.008-1.033,0-1.549-0.02c-0.565-0.023-1.129-0.06-1.692-0.109c-0.613-0.053-1.226-0.12-1.837-0.196  c-0.66-0.083-1.318-0.177-1.975-0.28c-0.707-0.111-1.413-0.231-2.117-0.359c-0.752-0.137-1.502-0.282-2.251-0.433  c-1.628-0.329-3.251-0.686-4.868-1.062c-1.765-0.41-3.526-0.841-5.282-1.286c-1.7-0.431-3.398-0.875-5.092-1.328  c-1.938-0.518-3.873-1.048-5.805-1.586c-3.97-1.105-7.93-2.245-11.886-3.396c-3.113-0.906-6.224-1.819-9.335-2.73  c-2.038-0.597-4.076-1.193-6.115-1.784c-2.101-0.609-4.203-1.214-6.309-1.805c-1.51-0.424-3.022-0.842-4.537-1.248  c-1.298-0.347-2.599-0.685-3.905-1.004c-0.559-0.137-1.119-0.27-1.68-0.397c-0.376-0.085-0.753-0.168-1.13-0.247  c-0.459-0.096-0.918-0.187-1.379-0.27c-0.386-0.069-0.772-0.133-1.16-0.188c-0.314-0.045-0.63-0.083-0.946-0.113  c-0.203-0.019-0.407-0.034-0.611-0.042c-0.146-0.006-0.292-0.009-0.438-0.006c-0.027,0.224-0.054,0.448-0.084,0.671  c-0.05,0.37-0.112,0.738-0.195,1.102c-0.102,0.448-0.235,0.889-0.405,1.315c-0.197,0.494-0.442,0.969-0.733,1.414  c-0.323,0.494-0.702,0.951-1.123,1.366c-0.458,0.452-0.966,0.853-1.504,1.208c-0.289,0.191-0.586,0.368-0.89,0.533  c-0.322,0.175-0.651,0.337-0.985,0.488c-0.347,0.156-0.699,0.299-1.055,0.433c-0.344,0.129-0.692,0.25-1.041,0.365  c-0.356,0.117-0.715,0.229-1.074,0.339c-0.365,0.111-0.731,0.22-1.097,0.328c-0.823,0.243-1.646,0.484-2.463,0.744  c-0.735,0.233-1.465,0.481-2.184,0.759c-0.68,0.263-1.351,0.553-2,0.886c-0.586,0.301-1.154,0.637-1.684,1.028  c-0.464,0.342-0.899,0.726-1.276,1.162c-0.173,0.201-0.334,0.413-0.479,0.635c-0.124,0.191-0.236,0.389-0.336,0.594  c0.169,0.154,0.338,0.308,0.507,0.461c9.191,8.33,19.136,15.828,29.672,22.375c10.536,6.547,21.664,12.141,33.203,16.692  c5.798,2.287,11.701,4.311,17.682,6.063c6.019,1.764,12.118,3.253,18.272,4.462c7.098,1.394,14.27,2.415,21.476,3.057  c7.146,0.637,14.326,0.9,21.5,0.789c7.136-0.111,14.267-0.592,21.353-1.441c7.069-0.847,14.093-2.06,21.036-3.632  c6.943-1.572,13.805-3.504,20.549-5.784C300.274,420.603,302.116,419.951,303.948,419.273z" style="fill:#F7B3A6;"/></svg>