<svg id="Layer_1" style="enable-background:new 0 0 465.433 458.521;" version="1.1" viewBox="0 0 465.433 458.521" x="0px" xml:space="preserve" xmlns="http://www.w3.org/2000/svg" xmlns:xlink="http://www.w3.org/1999/xlink" y="0px"><path d="M196.406,319.563c0.46,0.122,0.939,0.238,1.437,0.349c2.938,0.654,6.569,1.111,9.74,1.445  c11.517-1.344,26.883-0.882,44.88,1.444c0.92,0.119,1.846,0.243,2.783,0.371c1.88-1.044,3.181-2.127,3.814-3.208  c1.286-2.199-0.194-4.391-1.704-5.58c-1.51-1.19-3.052-1.378-1.321-2.052c1.731-0.674,6.735-1.835,9.393-4.083  c2.658-2.248,2.97-5.585,2.628-7.637c-0.342-2.052-1.34-2.82-3.336-3.28c-1.996-0.459-4.991-0.61-7.8-0.381  c-2.809,0.229-5.432,0.836-14.995,0.616c-9.563-0.22-26.066-1.269-32.427-0.356c-6.362,0.913-2.582,3.788-2.723,5.183  c-0.141,1.395-4.201,1.312-10.009,0.285c-5.808-1.027-13.363-2.996-16.949-2.012c-0.915,0.251-1.571,0.694-2.014,1.261  c0.321,0.336,0.644,0.67,0.968,1.004c1.134,1.166,2.285,2.315,3.446,3.454c1.09,1.07,2.189,2.13,3.295,3.184  c1.956,1.864,3.932,3.706,5.928,5.527c1.641,1.498,3.296,2.982,4.956,4.459C196.399,319.557,196.402,319.56,196.406,319.563z" style="fill:#DAEF86;"/><path d="M260.957,313.835c0.26,0.345,0.496,0.708,0.701,1.088c0.183,0.339,0.341,0.69,0.471,1.053  c0.197,0.551,0.327,1.127,0.375,1.71c0.026,0.312,0.029,0.626,0.009,0.939c-0.021,0.324-0.068,0.647-0.139,0.965  c-0.073,0.326-0.173,0.646-0.296,0.957c-0.126,0.317-0.277,0.624-0.449,0.919c-0.172,0.293-0.364,0.574-0.573,0.842  c-0.207,0.265-0.429,0.518-0.664,0.759c-0.236,0.243-0.485,0.474-0.742,0.695c-0.011,0.01-0.022,0.019-0.034,0.029  c4.801,0.702,9.95,1.51,15.802,2.401c0.302-0.355,0.606-0.708,0.911-1.061c0.525-0.607,1.054-1.21,1.586-1.81  c1.093-1.233,2.199-2.455,3.314-3.669c1.196-1.302,2.403-2.595,3.616-3.882c1.966-2.085,3.95-4.153,5.944-6.211  c2.78-2.87,5.581-5.72,8.389-8.562c2.852-2.886,5.712-5.764,8.572-8.642c2.798-2.816,5.596-5.633,8.403-8.441  c1.475-1.475,2.952-2.948,4.435-4.415c-0.509-0.174-1.011-0.368-1.504-0.582c-0.799-0.348-1.574-0.754-2.311-1.221  c-0.497-0.315-0.977-0.659-1.433-1.031c-0.959-0.781-1.817-1.686-2.544-2.686c-0.385-0.53-0.734-1.086-1.047-1.661  c-0.329-0.606-0.618-1.233-0.869-1.875c-0.36-0.92-0.641-1.871-0.857-2.836c-0.362-1.617-0.541-3.271-0.596-4.927  c-0.038-1.12-0.019-2.242,0.039-3.361c0.052-1.021,0.137-2.041,0.243-3.059c0.114-1.091,0.253-2.179,0.409-3.265  c0.297-2.063,0.658-4.117,1.051-6.164c0.243-1.261,0.498-2.52,0.762-3.776c0.4-1.901,0.821-3.798,1.253-5.692  c0.643-2.821,1.31-5.636,1.981-8.45c0.844-3.536,1.694-7.071,2.524-10.61c0.744-3.17,1.471-6.344,2.165-9.526  c-25.85,15.92-31.984,22.165-35.277,26.732c-6.936,9.62-1.262,11.796,4.985,13.906c3.867,1.306,7.954,2.587-42.783,45.215  c0.836-0.007,1.672-0.023,2.507-0.051c0.675-0.023,1.349-0.054,2.023-0.096c0.541-0.034,1.082-0.075,1.622-0.123  c0.453-0.041,0.906-0.086,1.358-0.135c0.47-0.051,0.939-0.105,1.409-0.154c0.497-0.051,0.994-0.096,1.493-0.129  c0.833-0.056,1.669-0.081,2.504-0.077c0.667,0.003,1.334,0.024,2,0.065c0.391,0.024,0.781,0.056,1.171,0.096  c0.374,0.038,0.748,0.084,1.12,0.14c0.354,0.053,0.708,0.115,1.059,0.187c0.34,0.07,0.678,0.15,1.012,0.246  c0.341,0.098,0.678,0.213,1.006,0.349c0.201,0.084,0.399,0.176,0.592,0.276c0.169,0.088,0.335,0.184,0.496,0.286  c0.338,0.215,0.656,0.462,0.944,0.74c0.149,0.143,0.29,0.294,0.423,0.452c0.133,0.158,0.257,0.323,0.373,0.494  c0.228,0.338,0.421,0.699,0.579,1.075c0.154,0.365,0.276,0.744,0.371,1.129c0.047,0.191,0.088,0.383,0.123,0.576  c0.027,0.148,0.05,0.297,0.071,0.446c0.028,0.203,0.05,0.408,0.067,0.612c0.036,0.435,0.047,0.872,0.036,1.308  c-0.013,0.47-0.052,0.939-0.118,1.404c-0.071,0.499-0.174,0.993-0.309,1.479c-0.145,0.521-0.326,1.031-0.545,1.525  c-0.233,0.526-0.508,1.033-0.823,1.514c-0.334,0.509-0.713,0.99-1.131,1.433c-0.218,0.231-0.446,0.452-0.683,0.663  c-0.152,0.134-0.307,0.264-0.466,0.39c-0.252,0.199-0.512,0.387-0.778,0.566c-0.262,0.176-0.53,0.343-0.802,0.503  c-0.268,0.157-0.54,0.306-0.815,0.448c-0.456,0.236-0.921,0.455-1.392,0.661c-0.537,0.234-1.081,0.45-1.63,0.654  C261.418,313.671,261.188,313.754,260.957,313.835z" style="fill:#F7F28F;"/></svg>