<svg id="Layer_1" style="enable-background:new 0 0 465.433 458.521;" version="1.1" viewBox="0 0 465.433 458.521" x="0px" xml:space="preserve" xmlns="http://www.w3.org/2000/svg" xmlns:xlink="http://www.w3.org/1999/xlink" y="0px"><path d="M333.401,45.736c-5.122-2.877-10.366-5.536-15.714-7.966c-6.367-2.893-12.881-5.463-19.509-7.695  c-6.643-2.238-13.4-4.137-20.235-5.687c-5.996-1.36-12.052-2.451-18.145-3.27c5.481,2.932,10.963,5.861,16.447,8.787  c7.104,3.79,14.211,7.575,21.312,11.371c3.218,1.72,6.435,3.442,9.648,5.171c2.599,1.399,5.196,2.803,7.787,4.217  c2.173,1.186,4.342,2.379,6.503,3.588c1.799,1.006,3.593,2.023,5.375,3.059c1.478,0.86,2.948,1.733,4.403,2.632  c1.21,0.748,2.41,1.514,3.588,2.311c0.982,0.665,1.949,1.351,2.892,2.07c0.548,0.419,1.088,0.849,1.616,1.294  c0.481,0.406,0.952,0.824,1.408,1.258c0.551,0.524,1.081,1.071,1.576,1.648c0.339,0.396,0.662,0.807,0.96,1.235  c0.283,0.405,0.543,0.826,0.772,1.263c0.223,0.425,0.416,0.865,0.57,1.32c0.153,0.452,0.266,0.917,0.33,1.39  c0.065,0.474,0.08,0.955,0.041,1.432c-0.039,0.475-0.131,0.945-0.274,1.399c-0.14,0.443-0.329,0.87-0.559,1.274  c-0.222,0.39-0.482,0.757-0.771,1.101c-0.28,0.333-0.588,0.642-0.915,0.93c-0.323,0.285-0.666,0.548-1.02,0.793  c-0.295,0.203-0.598,0.394-0.908,0.574c-0.385,0.223-0.779,0.43-1.18,0.623c-0.414,0.199-0.836,0.384-1.261,0.557  c-0.443,0.18-0.89,0.348-1.341,0.507c-0.957,0.337-1.929,0.63-2.908,0.896c-1.055,0.287-2.118,0.542-3.186,0.778  c-0.315,0.069-0.631,0.137-0.947,0.204c-1.158,0.243-2.32,0.464-3.485,0.667c-2.559,0.446-5.132,0.804-7.714,1.089  c-2.841,0.313-5.691,0.538-8.546,0.683c-3.078,0.156-6.16,0.219-9.242,0.194c-3.268-0.027-6.535-0.153-9.796-0.381  c-3.412-0.238-6.817-0.586-10.207-1.045c-2.328-0.315-4.649-0.681-6.963-1.088c40.472,34.088,51.678,50.742,54.066,72.366  c3.883,35.17-15.56,83.491-15.483,104.341c0.039,10.479,5.008,14.02,10.617,15.497c0.387-0.38,0.775-0.76,1.163-1.139  c1.889-1.846,3.789-3.681,5.71-5.495c1.142-1.078,2.291-2.149,3.45-3.208c1.06-0.968,2.129-1.926,3.212-2.868  c0.528-0.46,1.06-0.916,1.596-1.367c0.919-0.773,1.849-1.532,2.8-2.266c0.825-0.637,1.664-1.255,2.53-1.835  c0.738-0.495,1.495-0.961,2.28-1.378c0.347-0.184,0.699-0.358,1.058-0.518c0.335-0.15,0.674-0.288,1.02-0.41  c0.328-0.116,0.662-0.217,1-0.3c0.19-0.047,0.381-0.087,0.574-0.121c0.33-0.058,0.664-0.095,0.999-0.107  c0.339-0.012,0.679,0.001,1.015,0.044c0.344,0.044,0.684,0.12,1.013,0.229c0.333,0.11,0.654,0.254,0.957,0.431  c0.299,0.174,0.58,0.38,0.836,0.613c0.246,0.224,0.469,0.472,0.666,0.74c0.185,0.25,0.346,0.517,0.485,0.796  c0.129,0.259,0.239,0.528,0.329,0.803c0.085,0.259,0.154,0.523,0.207,0.791c0.067,0.335,0.111,0.675,0.135,1.016  c0.035,0.495,0.028,0.993-0.01,1.488c-0.037,0.48-0.103,0.957-0.193,1.43c-0.156,0.818-0.385,1.622-0.666,2.407  c-0.299,0.833-0.656,1.643-1.052,2.434c-0.369,0.738-0.77,1.458-1.19,2.168c-0.404,0.682-0.825,1.353-1.246,2.024  c-0.173,0.275-0.346,0.549-0.516,0.825c-0.144,0.233-0.286,0.466-0.424,0.702c-0.128,0.218-0.252,0.438-0.367,0.663  c-0.073,0.142-0.142,0.286-0.203,0.434c-0.042,0.1-0.08,0.2-0.11,0.304c-0.018,0.062-0.034,0.125-0.044,0.189  c-0.006,0.04-0.01,0.08-0.01,0.12c0,0.043,0.004,0.086,0.011,0.128c0.005,0.031,0.011,0.061,0.018,0.092  c0.009,0.04,0.021,0.08,0.033,0.12c0.016,0.051,0.033,0.101,0.051,0.151c0.038,0.101,0.081,0.201,0.126,0.299  c0.082,0.176,0.172,0.347,0.266,0.516c0.123,0.22,0.254,0.437,0.388,0.65c0.146,0.23,0.296,0.458,0.447,0.684  c0.216,0.324,0.434,0.646,0.649,0.97c0.257,0.386,0.51,0.775,0.756,1.168c0.215,0.344,0.424,0.692,0.624,1.044  c0.212,0.374,0.414,0.754,0.604,1.14c0.245,0.5,0.469,1.011,0.665,1.532c0.167,0.447,0.314,0.902,0.434,1.363  c0.126,0.483,0.224,0.973,0.289,1.468c0.034,0.256,0.059,0.513,0.074,0.771c0.016,0.264,0.023,0.528,0.019,0.792  c-0.007,0.547-0.058,1.094-0.153,1.633c-0.099,0.564-0.246,1.12-0.437,1.66c-0.097,0.273-0.205,0.542-0.322,0.806  c-0.116,0.26-0.242,0.517-0.375,0.769c-0.264,0.5-0.56,0.983-0.876,1.452c-0.315,0.466-0.65,0.919-1.001,1.359  c-0.329,0.415-0.672,0.819-1.024,1.215c-0.367,0.413-0.745,0.817-1.129,1.213c-0.531,0.547-1.076,1.08-1.628,1.605  c-0.291,0.277-0.585,0.551-0.879,0.824c0.164,0.039,0.328,0.08,0.49,0.125c0.48,0.133,0.952,0.294,1.41,0.488  c0.243,0.103,0.483,0.216,0.717,0.338c0.342,0.178,0.674,0.377,0.993,0.595c0.667,0.455,1.277,0.992,1.819,1.59  c0.554,0.613,1.036,1.291,1.436,2.013c0.415,0.749,0.743,1.547,0.978,2.37c0.122,0.426,0.219,0.859,0.292,1.297  c0.075,0.449,0.124,0.902,0.148,1.357c0.05,0.951-0.009,1.908-0.167,2.848c-0.17,1.009-0.453,1.997-0.825,2.95  c-0.198,0.507-0.422,1.004-0.669,1.489c-0.17,0.336-0.351,0.666-0.542,0.991c-0.292,0.499-0.606,0.985-0.936,1.459  c-0.339,0.487-0.696,0.961-1.066,1.424c-0.379,0.473-0.773,0.935-1.178,1.386c-0.321,0.356-0.649,0.705-0.984,1.048  c-0.435,0.445-0.882,0.879-1.338,1.301c-0.916,0.847-1.873,1.65-2.867,2.405c-0.972,0.739-1.978,1.433-3.022,2.066  c-0.505,0.306-1.018,0.599-1.54,0.874c-0.395,0.209-0.796,0.407-1.202,0.594c-0.507,0.234-1.023,0.449-1.547,0.642  c-0.509,0.186-1.027,0.35-1.552,0.485c-0.516,0.132-1.039,0.236-1.567,0.299c-0.262,0.032-0.525,0.053-0.789,0.065  c-0.257,0.011-0.513,0.011-0.77,0.001c-0.496-0.02-0.991-0.079-1.478-0.181c-0.464-0.098-0.921-0.234-1.363-0.406  c-0.421-0.164-0.828-0.361-1.219-0.586c-0.37-0.214-0.725-0.453-1.063-0.715c-0.32-0.247-0.625-0.513-0.915-0.794  c-0.274-0.266-0.535-0.544-0.783-0.834c-0.234-0.272-0.457-0.554-0.67-0.843c-0.199-0.27-0.39-0.545-0.575-0.825  c-0.258-0.393-0.503-0.795-0.741-1.201c-0.149,0.132-0.299,0.262-0.449,0.391c-0.598,0.513-1.215,1.006-1.848,1.476  c-0.844,0.626-1.719,1.21-2.617,1.754c-0.689,0.418-1.392,0.813-2.104,1.19c-0.901,0.478-1.816,0.927-2.741,1.356  c-0.985,0.457-1.981,0.89-2.985,1.301c-1.033,0.423-2.076,0.822-3.127,1.198c-1.388,0.495-2.791,0.949-4.21,1.345  c-1.012,0.283-2.033,0.538-3.062,0.749c-0.489,0.101-0.98,0.191-1.472,0.27c-0.473,0.075-0.948,0.14-1.424,0.189  c-0.458,0.047-0.917,0.08-1.377,0.095c-0.239,0.007-0.477,0.01-0.716,0.007c-0.221-0.003-0.442-0.012-0.662-0.026  c-0.219-0.014-0.438-0.035-0.656-0.062c-0.218-0.027-0.436-0.061-0.652-0.104c-0.277-0.055-0.552-0.123-0.823-0.206  c-0.293-0.09-0.582-0.198-0.862-0.324c-0.273-0.123-0.538-0.263-0.792-0.421c-0.247-0.153-0.483-0.321-0.708-0.504  c-0.095-0.077-0.188-0.157-0.278-0.239c-9.269,14.557-10.574,36.751,15.541,78.148c12.119-15.708,27.508-32.708,39.406-46.759  c22.747-26.865,32.728-42.949,32.518-49.432c-0.211-6.483-10.613-3.364-14.298-20.202c-2.274-10.391-1.99-28.381,11.635-88.6  c-0.063-0.197-0.125-0.394-0.187-0.591c-0.616-1.953-1.212-3.913-1.783-5.879c-0.493-1.697-0.967-3.399-1.418-5.108  c-0.221-0.838-0.436-1.677-0.644-2.518c-0.193-0.78-0.379-1.561-0.558-2.344c-0.123-0.542-0.243-1.085-0.357-1.628  c-0.14-0.664-0.272-1.329-0.393-1.997c-0.107-0.59-0.206-1.183-0.29-1.777c-0.073-0.517-0.136-1.035-0.179-1.555  c-0.02-0.234-0.035-0.469-0.046-0.704c-0.01-0.222-0.016-0.443-0.015-0.665c0.001-0.421,0.023-0.843,0.08-1.26  c0.029-0.21,0.066-0.419,0.114-0.625c0.05-0.216,0.113-0.429,0.189-0.638c0.082-0.225,0.181-0.445,0.296-0.656  c0.062-0.112,0.128-0.222,0.2-0.329c0.075-0.112,0.155-0.22,0.241-0.324c0.18-0.218,0.382-0.418,0.604-0.594  c0.225-0.178,0.47-0.331,0.729-0.456c0.246-0.118,0.505-0.211,0.77-0.276c0.123-0.03,0.248-0.055,0.373-0.073  c0.119-0.018,0.238-0.03,0.358-0.038c0.217-0.014,0.434-0.011,0.65,0.006c0.191,0.015,0.38,0.041,0.568,0.077  c0.09,0.017,0.181,0.037,0.27,0.058c0.16,0.038,0.32,0.083,0.477,0.133c0.147,0.047,0.292,0.098,0.437,0.154  c0.138,0.053,0.276,0.108,0.412,0.167c0.26,0.111,0.517,0.232,0.771,0.356c0.498,0.244,0.989,0.504,1.483,0.757  c0.228,0.117,0.457,0.232,0.688,0.343c0.218,0.105,0.439,0.206,0.661,0.302c0.323,0.139,0.652,0.266,0.989,0.366  c0.168,0.05,0.338,0.092,0.51,0.124c0.138,0.025,0.277,0.043,0.416,0.05c0.107,0.005,0.214,0.003,0.32-0.01  c0.085-0.01,0.168-0.028,0.25-0.054c0.039-0.013,0.078-0.027,0.116-0.044c0.04-0.018,0.08-0.038,0.118-0.059  c0.034-0.019,0.067-0.039,0.099-0.062c0.03-0.021,0.058-0.044,0.085-0.069c0.031-0.028,0.059-0.057,0.087-0.088  c0.036-0.041,0.069-0.084,0.099-0.13c0.042-0.063,0.08-0.128,0.115-0.196c0.049-0.094,0.092-0.19,0.13-0.289  c0.051-0.131,0.095-0.264,0.134-0.399c0.049-0.172,0.09-0.347,0.125-0.522c0.043-0.218,0.077-0.437,0.104-0.657  c0.033-0.265,0.056-0.532,0.071-0.799c0.019-0.315,0.027-0.631,0.029-0.947c0.001-0.367-0.007-0.733-0.023-1.1  c-0.039-0.898-0.123-1.793-0.232-2.685c-0.066-0.534-0.141-1.066-0.223-1.598c-0.14-0.903-0.302-1.802-0.479-2.699  c-0.282-1.428-0.601-2.847-0.946-4.261c-0.412-1.691-0.86-3.373-1.332-5.049c-0.556-1.973-1.145-3.936-1.758-5.891  c-0.712-2.273-1.456-4.537-2.222-6.792c-0.881-2.594-1.792-5.177-2.725-7.752c-1.069-2.95-2.166-5.889-3.285-8.821  c-1.265-3.314-2.558-6.618-3.872-9.914c-2.47-6.195-5.013-12.361-7.604-18.507c-3.855-9.143-7.816-18.241-11.845-27.309  C343.668,68.332,339.733,59.644,333.401,45.736z" style="fill:#4B4BE8;"/><path d="M241.174,119.225c9.244-0.618,19.878-0.916,24.258-2.573c5.174-1.958,1.624-5.815-2.051-8.03  c-3.675-2.215-7.476-2.789-11.269-2.921s-7.579,0.176-7-0.464c0.579-0.64,5.522-2.229,6.271-4.046  c0.748-1.818-2.698-3.864-7.35-5.79c-1.082-0.448-2.23-0.889-3.473-1.294C240.765,102.478,240.969,110.851,241.174,119.225z" style="fill:#5B5BE8;"/><path d="M217.569,93.136c-8.193,1.221-16.895,3.312-19.79,3.784c-3.686,0.602,2.042-1.422,5.922-4.187  c3.881-2.765,5.913-6.272,0.977-7.246c-4.937-0.974-16.844,0.584-28.416,4.51c-11.572,3.926-22.81,10.22-30.839,16.097  c-8.029,5.876-12.848,11.336-13.511,15.463c-0.663,4.127,2.831,6.922,5.791,8.101c2.961,1.179,5.389,0.743,3.175,2.647  c-2.214,1.904-9.072,6.15-11.771,11.012c-2.699,4.863-1.239,10.342,0.463,13.457c1.702,3.115,3.647,3.866,8.488,1.289  c4.841-2.577,12.579-8.481,14.875-9.076c2.297-0.596-0.848,4.117-0.623,5.361c0.225,1.244,3.82-0.98,18.335-5.199  c13.984-4.064,38.105-9.979,47.938-14.429C218.247,120.857,217.908,106.995,217.569,93.136z" style="fill:#5B5BE8;"/></svg>