<svg id="Layer_1" style="enable-background:new 0 0 465.433 458.521;" version="1.1" viewBox="0 0 465.433 458.521" x="0px" xml:space="preserve" xmlns="http://www.w3.org/2000/svg" xmlns:xlink="http://www.w3.org/1999/xlink" y="0px"><path d="M124.79,151.531c0.004,0.03,0.008,0.06,0.012,0.09c0.113,0.829,0.283,1.65,0.504,2.457  c0.204,0.745,0.452,1.477,0.741,2.192c0.263,0.649,0.56,1.284,0.894,1.899c0.16,0.295,0.33,0.586,0.51,0.87  c0.178,0.28,0.368,0.553,0.571,0.815c0.208,0.269,0.431,0.527,0.67,0.77c0.249,0.252,0.516,0.488,0.799,0.701  c0.295,0.222,0.609,0.419,0.938,0.587c0.338,0.173,0.693,0.314,1.057,0.422c0.365,0.108,0.739,0.183,1.117,0.225  c0.375,0.041,0.753,0.051,1.13,0.032c0.375-0.018,0.749-0.064,1.118-0.132c0.374-0.069,0.743-0.16,1.108-0.268  c0.377-0.112,0.749-0.242,1.116-0.385c0.388-0.151,0.77-0.317,1.147-0.493c0.405-0.189,0.804-0.39,1.199-0.6  c0.333-0.177,0.663-0.36,0.991-0.547c1.888,4.826,2.352,10.638,2.257,15.618c-0.113,5.947-1.023,10.706-0.752,18.027  c0.271,7.321,1.722,17.204,3.705,25.065c1.983,7.86,4.499,13.698,4.509,20.207c0.008,5.196-1.581,10.82-5.323,14.168  c-0.001-0.001-0.002-0.003-0.003-0.004c-0.642-1.052-1.293-2.098-1.959-3.134c-0.628-0.976-1.27-1.944-1.931-2.898  c-0.62-0.896-1.258-1.781-1.922-2.645c-0.312-0.406-0.63-0.808-0.954-1.204c-0.313-0.382-0.633-0.759-0.96-1.129  c-0.614-0.693-1.256-1.362-1.939-1.986c-0.32-0.293-0.65-0.575-0.99-0.845c-0.326-0.259-0.661-0.505-1.006-0.738  c-0.33-0.222-0.669-0.432-1.016-0.626c-0.333-0.185-0.673-0.356-1.022-0.51c-0.667-0.294-1.362-0.527-2.074-0.678  c-0.678-0.144-1.371-0.216-2.064-0.205c-0.334,0.005-0.668,0.029-0.999,0.072c-0.326,0.042-0.649,0.102-0.968,0.18  c-0.615,0.151-1.213,0.37-1.782,0.647c-0.546,0.266-1.065,0.585-1.552,0.948c-0.469,0.35-0.908,0.741-1.314,1.163  c-0.394,0.41-0.757,0.849-1.088,1.311c-0.323,0.451-0.616,0.923-0.878,1.412c-0.256,0.478-0.483,0.972-0.678,1.478  c-0.191,0.496-0.352,1.003-0.478,1.519c-0.062,0.254-0.116,0.51-0.161,0.767c-0.02,0.116-0.039,0.232-0.055,0.349  c-1.481-3.225-1.752-6.481-2.182-8.222c-0.666-2.697-1.711-1.758-3.966-0.089c-2.255,1.669-5.719,4.068-11.635,1.701  c-5.917-2.366-14.286-9.497-15.748-20.673c-1.463-11.177,3.982-26.4,9.864-30.412c5.883-4.012,12.204,3.186,14.708,5.702  c2.504,2.516,1.19,0.349,0.143-4.423c-1.047-4.772-1.826-12.149,1.143-19.99C112.277,162.335,118.873,154.132,124.79,151.531z" style="fill:#8960C6;"/></svg>