<svg id="Layer_1" style="enable-background:new 0 0 465.433 458.521;" version="1.1" viewBox="0 0 465.433 458.521" x="0px" xml:space="preserve" xmlns="http://www.w3.org/2000/svg" xmlns:xlink="http://www.w3.org/1999/xlink" y="0px"><path d="M219.888,71.765c-3.639-0.929-7.282-1.839-10.93-2.732c-4.428-1.084-8.862-2.143-13.302-3.179  c-3.962-0.924-7.928-1.83-11.899-2.713c-3.818-0.849-7.64-1.677-11.469-2.473c-2.112-0.439-4.226-0.868-6.344-1.281  c-1.169-0.228-2.34-0.45-3.512-0.665c-0.638-0.117-1.276-0.231-1.914-0.342c0.968,0.75,1.915,1.528,2.817,2.356  c0.7,0.643,1.372,1.316,1.999,2.029c0.529,0.603,1.027,1.234,1.476,1.898c0.46,0.681,0.87,1.397,1.207,2.146  c0.35,0.777,0.623,1.59,0.798,2.424c0.091,0.431,0.155,0.868,0.192,1.307c0.038,0.451,0.046,0.904,0.025,1.355  c-0.021,0.464-0.072,0.927-0.152,1.384c-0.083,0.471-0.197,0.936-0.338,1.393c-0.146,0.472-0.322,0.935-0.524,1.387  c-0.21,0.47-0.447,0.928-0.706,1.373c-0.272,0.466-0.569,0.919-0.885,1.356c-0.335,0.463-0.692,0.911-1.065,1.344  c-0.378,0.438-0.774,0.862-1.184,1.272c-0.397,0.397-0.807,0.782-1.228,1.155c-0.463,0.41-0.937,0.806-1.421,1.191  c-0.54,0.429-1.091,0.845-1.65,1.249c-0.632,0.458-1.273,0.902-1.921,1.337c-0.738,0.495-1.485,0.979-2.237,1.453  c-0.861,0.543-1.728,1.076-2.6,1.6c-0.998,0.601-2.002,1.191-3.01,1.775c-1.151,0.667-2.307,1.326-3.466,1.978  c-1.319,0.743-2.643,1.478-3.969,2.208c-3.198,1.761-6.411,3.494-9.631,5.216c-4.056,2.168-8.122,4.317-12.192,6.457  c-3.673,1.931-7.35,3.856-11.028,5.777c-0.404,0.832-0.818,1.659-1.238,2.483c-0.459,0.9-0.924,1.797-1.394,2.691  c-0.505,0.962-1.013,1.922-1.523,2.881c-1.178,2.215-2.364,4.427-3.538,6.645c-1.219,2.302-2.426,4.61-3.609,6.931  c-1.26,2.472-2.493,4.959-3.686,7.465c-1.235,2.595-2.427,5.211-3.56,7.853c-1.145,2.667-2.229,5.36-3.235,8.083  c-1.001,2.712-1.924,5.454-2.743,8.227c-0.803,2.719-1.505,5.467-2.073,8.244c-0.554,2.711-0.979,5.449-1.284,8.199  c-0.3,2.71-0.484,5.433-0.564,8.158c-0.08,2.697-0.059,5.396,0.048,8.092c0.07,1.779,0.178,3.556,0.319,5.331  c0.354-1.396,0.766-2.778,1.236-4.14c0.305-0.882,0.634-1.755,0.99-2.617c0.344-0.833,0.713-1.656,1.109-2.465  c0.38-0.775,0.785-1.538,1.221-2.283c0.414-0.709,0.855-1.402,1.329-2.073c0.45-0.636,0.93-1.251,1.446-1.835  c0.493-0.558,1.02-1.087,1.587-1.568c0.278-0.235,0.565-0.459,0.863-0.669c0.294-0.207,0.597-0.399,0.91-0.576  c0.604-0.34,1.242-0.618,1.903-0.822c0.319-0.099,0.644-0.18,0.973-0.243c0.321-0.061,0.645-0.106,0.97-0.133  c0.629-0.053,1.263-0.042,1.89,0.028c0.599,0.067,1.192,0.188,1.771,0.354c0.557,0.159,1.103,0.36,1.633,0.593  c0.513,0.225,1.012,0.481,1.498,0.76c0.557,0.32,1.097,0.671,1.62,1.044c-0.234-1.64-0.372-3.294-0.406-4.951  c-0.033-1.615,0.035-3.233,0.21-4.839c0.182-1.669,0.48-3.324,0.896-4.951c0.221-0.865,0.476-1.721,0.763-2.566  c0.298-0.874,0.632-1.736,0.996-2.584c0.753-1.753,1.637-3.449,2.621-5.084c0.996-1.653,2.094-3.244,3.289-4.76  c1.16-1.471,2.412-2.87,3.767-4.164c0.602-0.575,1.224-1.128,1.869-1.654c0.337-0.275,0.68-0.542,1.03-0.8  c0.681-0.503,1.387-0.974,2.121-1.397c0.71-0.41,1.446-0.777,2.208-1.083c0.198-0.079,0.398-0.155,0.599-0.225  c0.04-0.755,0.133-1.507,0.281-2.248c0.198-0.984,0.494-1.95,0.886-2.874c0.203-0.479,0.431-0.947,0.684-1.401  c0.13-0.234,0.267-0.465,0.409-0.692c0.562-0.898,1.209-1.74,1.905-2.538c0.432-0.495,0.883-0.974,1.348-1.439  c0.726-0.726,1.487-1.417,2.268-2.084c0.646-0.552,1.307-1.087,1.976-1.611c0.555-0.434,1.116-0.861,1.68-1.284  c-0.544-0.24-1.074-0.512-1.586-0.815c-0.608-0.359-1.192-0.762-1.74-1.208c-0.312-0.254-0.612-0.521-0.898-0.804  c-0.268-0.264-0.524-0.541-0.765-0.83c-0.274-0.328-0.529-0.672-0.761-1.031c-0.241-0.372-0.457-0.759-0.644-1.16  c-0.195-0.416-0.359-0.847-0.489-1.288c-0.135-0.458-0.233-0.927-0.293-1.401c-0.062-0.491-0.082-0.988-0.062-1.483  c0.021-0.513,0.085-1.023,0.188-1.526c0.104-0.511,0.248-1.014,0.422-1.505c0.178-0.503,0.388-0.995,0.622-1.474  c0.334-0.685,0.717-1.347,1.133-1.986c0.323-0.497,0.666-0.981,1.025-1.454c0.379-0.499,0.775-0.986,1.183-1.461  c0.89-1.036,1.838-2.02,2.823-2.965c0.535-0.514,1.081-1.016,1.635-1.508c0.585-0.519,1.179-1.027,1.781-1.525  c1.297-1.073,2.631-2.102,3.99-3.097c0.999-0.731,2.012-1.444,3.036-2.139c1.078-0.732,2.168-1.445,3.27-2.141  c2.333-1.473,4.716-2.867,7.14-4.185c1.262-0.686,2.535-1.351,3.819-1.994c1.306-0.654,2.623-1.285,3.951-1.892  c2.687-1.229,5.419-2.361,8.194-3.375c1.386-0.506,2.783-0.983,4.189-1.429c1.384-0.438,2.777-0.846,4.178-1.226  c1.36-0.368,2.726-0.71,4.1-1.023c1.313-0.299,2.632-0.572,3.956-0.818c1.716-0.318,3.441-0.591,5.173-0.803  c1.115-0.136,2.233-0.248,3.354-0.325c0.78-0.054,1.561-0.091,2.343-0.106c0.471-0.009,0.941-0.01,1.412,0  c0.44,0.009,0.88,0.028,1.319,0.058c0.411,0.029,0.821,0.068,1.229,0.122c0.386,0.051,0.77,0.115,1.15,0.198  c0.362,0.078,0.721,0.173,1.072,0.289c0.504,0.166,0.994,0.377,1.452,0.645c0.321,0.188,0.626,0.404,0.906,0.649  c0.145,0.127,0.283,0.262,0.412,0.404c0.133,0.146,0.257,0.299,0.371,0.459c0.116,0.163,0.222,0.333,0.317,0.509  c0.095,0.177,0.179,0.36,0.25,0.548c0.071,0.186,0.13,0.377,0.176,0.571c0.046,0.189,0.079,0.382,0.1,0.575  c0.041,0.367,0.039,0.739-0.002,1.106c-0.043,0.381-0.128,0.757-0.247,1.122c-0.098,0.299-0.218,0.591-0.357,0.873  c-0.122,0.247-0.258,0.487-0.404,0.72c-0.103,0.165-0.212,0.326-0.325,0.484c2.116-0.409,4.237-0.794,6.365-1.135  c0.642-0.103,1.285-0.202,1.929-0.296c-0.048-1.952-0.095-3.903-0.143-5.855c-0.024-0.992-0.048-1.983-0.073-2.975  c0.947-0.023,1.894-0.046,2.84-0.07C220.043,78.081,219.966,74.923,219.888,71.765z" style="fill:#476BA5;"/></svg>