<svg id="Layer_1" style="enable-background:new 0 0 465.433 458.521;" version="1.1" viewBox="0 0 465.433 458.521" x="0px" xml:space="preserve" xmlns="http://www.w3.org/2000/svg" xmlns:xlink="http://www.w3.org/1999/xlink" y="0px"><path d="M92.072,74.213c-1.45,1.342-2.881,2.705-4.291,4.088c-8.929,8.755-17.061,18.322-24.26,28.547  c-7.142,10.142-13.367,20.93-18.574,32.188c-5.208,11.258-9.398,22.987-12.503,34.997c-1.56,6.035-2.846,12.14-3.854,18.291  c-1.014,6.189-1.745,12.425-2.192,18.681c-0.446,6.256-0.607,12.532-0.482,18.802c0.124,6.232,0.53,12.458,1.218,18.652  c0.24,2.161,0.514,4.319,0.822,6.471c4.915,5.564,7.568,8.545,10.228,11.519c3.481,3.892,6.977,7.771,10.49,11.635  c3.2,3.52,6.415,7.026,9.647,10.517c1.2,1.296,2.402,2.589,3.607,3.88c5.15-16.229,15.989-7.844,21.754-8.268  c7.713-0.567,6.341-16.905,2.237-37.862c-1.376-7.028-3.06-14.576-4.489-22.49c-0.164-0.563-0.311-1.131-0.44-1.703  c-0.202-0.895-0.359-1.8-0.474-2.711c-0.092-0.731-0.157-1.466-0.197-2.202c-2.126-13.827-3.059-28.596-0.004-43.539  c5.338-26.11,22.85-52.755,28.165-65.086c5.315-12.331-1.568-10.349-8.452-9.121C95.324,100.339,90.622,100.826,92.072,74.213z" style="fill:#DD8DF7;"/></svg>