<svg id="Layer_1" style="enable-background:new 0 0 465.433 458.521;" version="1.1" viewBox="0 0 465.433 458.521" x="0px" xml:space="preserve" xmlns="http://www.w3.org/2000/svg" xmlns:xlink="http://www.w3.org/1999/xlink" y="0px"><path d="M95.269,71.315c-0.146,1.665-0.189,2.387-0.228,3.11c-0.077,1.412-0.14,2.826-0.186,4.239  c-0.04,1.241-0.066,2.482-0.073,3.723c-0.006,1.082,0.003,2.164,0.032,3.246c0.025,0.926,0.066,1.852,0.129,2.776  c0.053,0.775,0.121,1.549,0.213,2.32c0.076,0.635,0.167,1.269,0.284,1.898c0.093,0.502,0.203,1.002,0.338,1.494  c0.103,0.376,0.22,0.747,0.362,1.109c0.066,0.168,0.137,0.334,0.217,0.495c0.052,0.106,0.108,0.211,0.168,0.312  c0.047,0.08,0.098,0.159,0.152,0.235c0.07,0.099,0.147,0.194,0.236,0.277c0.046,0.043,0.094,0.083,0.148,0.114  c0.041,0.024,0.084,0.043,0.129,0.058c0.029,0.01,0.059,0.018,0.09,0.024c0.04,0.009,0.08,0.016,0.121,0.021  c0.117,0.016,0.235,0.021,0.353,0.02c0.078-0.001,0.156-0.003,0.233-0.008c0.188-0.011,0.374-0.032,0.56-0.058  c0.232-0.032,0.463-0.069,0.693-0.109c0.328-0.056,0.655-0.116,0.982-0.176c0.86-0.159,1.718-0.321,2.581-0.463  c0.754-0.124,1.511-0.233,2.272-0.302c0.754-0.068,1.512-0.098,2.266-0.048c0.397,0.026,0.792,0.074,1.182,0.152  c0.415,0.082,0.824,0.198,1.218,0.354c0.21,0.083,0.416,0.177,0.616,0.283c0.208,0.11,0.409,0.233,0.601,0.368  c0.2,0.14,0.39,0.293,0.569,0.459c0.184,0.17,0.355,0.354,0.513,0.548c0.16,0.197,0.306,0.404,0.436,0.621  c0.13,0.216,0.244,0.442,0.344,0.673c0.098,0.229,0.182,0.465,0.251,0.705c0.069,0.238,0.123,0.48,0.165,0.724  c0.082,0.485,0.113,0.978,0.106,1.47c-0.008,0.507-0.056,1.013-0.132,1.514c-0.082,0.541-0.197,1.076-0.332,1.607  c-0.121,0.472-0.259,0.939-0.409,1.403c-0.207,0.639-0.437,1.27-0.682,1.895c-0.003,0.007-0.005,0.013-0.008,0.02  c36.478-19.079,46.007-24.636,50.624-29.457c8.006-8.361,1.234-14.509-4.501-18.839c-5.735-4.329-10.432-6.84,0.861-5.057  c11.136,1.758,37.82,7.691,61.049,13.604c-0.4-16.32-0.801-32.634-1.201-48.943c-6.124,0.407-12.23,1.087-18.294,2.037  c-6.029,0.945-12.016,2.158-17.937,3.633c-11.79,2.938-23.319,6.92-34.409,11.883c-11.094,4.965-21.748,10.912-31.797,17.749  C108.867,60.006,101.879,65.448,95.269,71.315z" style="fill:#2483A0;"/><path d="M235.898,19.309c0.439,17.965,0.877,35.936,1.317,53.912c16.473,4.357,31.098,8.184,44.97,9.969  c18.312,2.356,35.311,1.154,47.097-1.335c11.786-2.489,18.359-6.263,6.604-15.212c-8.693-6.618-27.408-16.065-84.109-46.445  C246.497,19.698,241.199,19.402,235.898,19.309z" style="fill:#2483A0;"/></svg>