<svg id="Layer_1" style="enable-background:new 0 0 841.89 595.276;" version="1.1" viewBox="0 0 841.89 595.276" x="0px" xml:space="preserve" xmlns="http://www.w3.org/2000/svg" xmlns:xlink="http://www.w3.org/1999/xlink" y="0px"><path d="M540.669,282.113c-2.122,0.564-5.096,2.034-7.557,3.656c-2.461,1.623-4.411,3.399-5.919,5.256  c-1.509,1.857-2.576,3.796-2.862,4.799c-0.286,1.003,0.211,1.071,2.107,0.951c1.896-0.12,5.191-0.429,9.217-0.819  c4.026-0.39,8.782-0.861,11.726-1.271c2.944-0.41,4.078-0.757,4.646-1.65c0.568-0.893,0.571-2.331,0.426-3.342  c-0.145-1.011-0.437-1.596-1.648-2.767c-1.211-1.172-3.341-2.931-5.042-3.982C544.063,281.892,542.792,281.549,540.669,282.113z" style="fill:#FD5C5C;"/></svg>