<svg id="Layer_1" style="enable-background:new 0 0 841.89 595.276;" version="1.1" viewBox="0 0 841.89 595.276" x="0px" xml:space="preserve" xmlns="http://www.w3.org/2000/svg" xmlns:xlink="http://www.w3.org/1999/xlink" y="0px"><path d="M743.835,391.443c0,3.489,0,6.979,0,10.468c-2.02,0.378-3.825,1.501-5.057,3.146  c-2.058-0.832-4.174-1.607-6.312-2.295c-8.759-2.815-17.888-4.158-27.447-5.62c-9.559-1.463-19.549-3.046-28.886-5.155  c-9.337-2.109-18.02-4.744-24.477-6.052c-6.458-1.308-10.69-1.289-14.851-0.434c-4.161,0.855-8.252,2.548-11.572,3.479  c-3.32,0.931-5.869,1.1-7.901,1.358c-2.032,0.258-3.546,0.605-8.11,2.739c-4.565,2.135-12.18,6.058-17.689,8.995  c-5.509,2.938-8.91,4.89-10.885,6.231c-1.975,1.341-2.522,2.071-3.99,1.255c-1.469-0.816-3.859-3.178-5.77-5.381  s-3.343-4.245-3.834-6.081c-0.491-1.836-0.039-3.464,0.142-4.76c0.156-1.121,0.111-1.993,5.554-3.868  c0.057,0.187,0.12,0.372,0.186,0.556c0.391,1.074,0.939,2.086,1.592,3.024c0.604,0.866,1.298,1.667,2.057,2.402  c0.722,0.699,1.503,1.337,2.336,1.898c0.776,0.522,1.597,0.978,2.452,1.357c0.74,0.328,1.505,0.597,2.289,0.796  c0.368,0.093,0.74,0.171,1.116,0.228c0.359,0.054,0.72,0.09,1.083,0.1c0.221,0.006,0.443,0.003,0.664-0.011  c0.131-0.008,0.261-0.021,0.392-0.037c0.154-0.019,0.307-0.044,0.459-0.075c0.189-0.038,0.375-0.086,0.559-0.143  c0.169-0.053,0.335-0.114,0.498-0.183c0.292-0.124,0.572-0.272,0.838-0.444c0.334-0.217,0.642-0.472,0.918-0.759  c0.293-0.304,0.548-0.644,0.759-1.01c0.226-0.392,0.4-0.813,0.516-1.25c0.056-0.21,0.099-0.424,0.128-0.64  c0.027-0.201,0.043-0.404,0.047-0.607c0.006-0.35-0.023-0.7-0.086-1.045c-0.05-0.268-0.12-0.532-0.211-0.789  c-0.109-0.312-0.247-0.614-0.411-0.9c-0.118-0.206-0.249-0.404-0.391-0.594c-0.092-0.124-0.189-0.244-0.29-0.361  c-0.122-0.142-0.25-0.28-0.38-0.415c-0.112-0.117-0.226-0.231-0.336-0.349c0.01-0.124,0.029-0.248,0.055-0.37  c0.039-0.189,0.093-0.374,0.154-0.557c0.081-0.241,0.176-0.478,0.283-0.709c0.159-0.345,0.344-0.678,0.543-1.002  c0.258-0.42,0.541-0.824,0.839-1.217c0.361-0.477,0.744-0.936,1.14-1.385c0.466-0.528,0.95-1.04,1.444-1.541  c0.968-0.983,1.975-1.925,3.001-2.846c1.573-1.414,3.189-2.779,4.822-4.123c1.457-1.2,2.926-2.385,4.402-3.562  c1.112-0.887,2.227-1.771,3.343-2.652c1.762-1.392,3.528-2.78,5.29-4.172c0.186-0.147,0.372-0.294,0.558-0.441  c0.281-0.103,0.555-0.203,0.825-0.298c-0.063,0.191-0.123,0.383-0.179,0.577c-0.069,0.239-0.133,0.48-0.189,0.723  c-0.06,0.255-0.112,0.511-0.155,0.769c-0.095,0.572-0.143,1.152-0.137,1.731c0.006,0.563,0.064,1.125,0.173,1.677  c0.106,0.534,0.261,1.059,0.468,1.563c0.101,0.246,0.214,0.488,0.34,0.722c0.136,0.252,0.286,0.497,0.452,0.73  c0.118,0.166,0.244,0.326,0.377,0.481c0.125,0.144,0.255,0.282,0.393,0.414c0.165,0.158,0.339,0.306,0.522,0.443  c0.23,0.172,0.472,0.327,0.726,0.461c0.227,0.12,0.463,0.224,0.705,0.31c0.201,0.072,0.407,0.132,0.616,0.179  c0.239,0.054,0.481,0.092,0.725,0.112c0.273,0.023,0.548,0.024,0.822,0.004c0.237-0.018,0.472-0.051,0.704-0.101  c0.082,0.6,0.196,1.196,0.344,1.783c0.136,0.539,0.302,1.071,0.493,1.593c0.165,0.452,0.349,0.897,0.547,1.336  c0.175,0.387,0.361,0.768,0.558,1.144c0.166,0.319,0.34,0.634,0.521,0.944c0.086,0.148,0.174,0.294,0.264,0.439  c0.123,0.199,0.25,0.397,0.382,0.59c0.04,0.058,0.08,0.115,0.121,0.172c0.059,0.081,0.119,0.161,0.182,0.238  c0.061,0.076,0.123,0.15,0.188,0.222c0.077,0.087,0.157,0.172,0.24,0.254c0.118,0.116,0.241,0.227,0.37,0.331  c0.104,0.085,0.211,0.165,0.321,0.242c0.152,0.105,0.309,0.203,0.472,0.291c0.105,0.057,0.212,0.11,0.321,0.16  c0.13,0.059,0.262,0.114,0.396,0.162c0.161,0.058,0.325,0.106,0.49,0.147c0.128,0.032,0.257,0.058,0.387,0.08  c0.226,0.038,0.454,0.06,0.683,0.067c0.264,0.008,0.529-0.005,0.792-0.038c0.29-0.036,0.577-0.098,0.856-0.184  c0.292-0.09,0.576-0.206,0.848-0.346c0.267-0.138,0.522-0.3,0.76-0.484c0.413-0.317,0.777-0.699,1.074-1.126  c0.079-0.113,0.153-0.23,0.223-0.349c0.094-0.16,0.179-0.325,0.254-0.495c0.063-0.142,0.118-0.286,0.168-0.433  c0.041-0.122,0.078-0.245,0.11-0.37c0.049-0.192,0.087-0.387,0.113-0.584c0.019-0.141,0.032-0.283,0.04-0.425  c0.005-0.106,0.008-0.212,0.006-0.318c-0.001-0.117-0.006-0.234-0.015-0.351c-0.01-0.123-0.024-0.246-0.041-0.369  c-0.01-0.066-0.02-0.132-0.032-0.197c-0.009-0.051-0.02-0.102-0.031-0.153c-0.031-0.148-0.067-0.295-0.105-0.441  c-0.05-0.193-0.102-0.386-0.148-0.581c-0.043-0.185-0.081-0.372-0.112-0.559c-0.032-0.191-0.059-0.383-0.082-0.575  c-0.025-0.213-0.046-0.426-0.06-0.639c-0.015-0.216-0.023-0.433-0.024-0.649c-0.001-0.186,0.004-0.373,0.017-0.558  c0.009-0.135,0.023-0.27,0.046-0.403c0.016-0.092,0.036-0.183,0.062-0.272c0.028-0.095,0.063-0.187,0.102-0.278  c0.06-0.14,0.13-0.275,0.205-0.407c0.116-0.206,0.243-0.406,0.375-0.603c0.189-0.281,0.389-0.554,0.592-0.825  c0.267-0.354,0.542-0.702,0.819-1.049c0.437-0.547,0.881-1.089,1.323-1.632c0.35-0.43,0.698-0.861,1.042-1.295  c0.347-0.437,0.689-0.878,1.022-1.326c0.197-0.266,0.391-0.534,0.581-0.805c0.298-0.428,0.584-0.864,0.858-1.308  c0.252-0.408,0.493-0.823,0.726-1.243c0.148-0.267,0.292-0.536,0.433-0.806c0.201-0.385,0.397-0.773,0.592-1.162  c0.166-0.33,0.333-0.661,0.5-0.991c3.513-0.992,5.333-2.718,7.144-3.912c2.379-1.568,4.743-2.217,7.278-1.771  c2.535,0.446,5.243,1.986,11.221,4.442c5.978,2.456,15.228,5.828,21.127,7.853c5.9,2.025,8.45,2.703,13.47,3.079  c5.02,0.376,12.51,0.449,17.431,0.251c4.921-0.198,7.274-0.666,9.96-0.038c2.217,0.518,4.662,1.784,9.891,4.633  c-2.994,1.702-4.608,5.092-4.04,8.489C737.819,388.128,740.449,390.809,743.835,391.443z" style="fill:#FF975C;"/></svg>