<svg id="Layer_1" style="enable-background:new 0 0 841.89 595.276;" version="1.1" viewBox="0 0 841.89 595.276" x="0px" xml:space="preserve" xmlns="http://www.w3.org/2000/svg" xmlns:xlink="http://www.w3.org/1999/xlink" y="0px"><path d="M543.149,278.077c5.194-4.253,8.763-5.217,11.825-5.908c3.892-0.879,6.966-1.318,10.342-0.845  c3.376,0.473,7.055,1.859,11.076,3.615c4.022,1.756,8.386,3.882,11.647,5.349c3.26,1.467,5.417,2.276,6.732,2.829  c1.315,0.553,1.787,0.851,2.068,1.391s0.372,1.322-0.795,2.702c-1.167,1.381-3.591,3.36-5.64,5.329  c-2.049,1.969-3.724,3.927-4.768,5.494c-1.044,1.567-1.455,2.743-1.14,4.428c0.316,1.684,1.36,3.877,2.672,6.59  c1.312,2.713,2.891,5.946,4.259,9.123c1.367,3.177,2.523,6.299,2.598,8.781c0.075,2.481-0.929,4.322-2.55,5.983  c-1.621,1.66-3.859,3.141-6.08,3.684c-2.221,0.543-4.426,0.149-7.352-0.861s-6.575-2.637-9.404-4.241  c-2.829-1.604-4.838-3.186-6.666-5.299c-1.828-2.113-3.473-4.756-4.633-7.308c-1.16-2.552-1.834-5.012-2.215-6.848  c-0.381-1.836-0.468-3.048-1.234-5.211c-0.596-1.684-1.604-3.944-4.619-7.502c0.354-0.088,0.704-0.189,1.048-0.308  c0.244-0.084,0.484-0.178,0.72-0.282c0.258-0.114,0.511-0.24,0.756-0.381c0.267-0.152,0.524-0.321,0.77-0.505  c0.26-0.195,0.507-0.408,0.738-0.638c0.232-0.23,0.447-0.478,0.644-0.739c0.095-0.126,0.186-0.256,0.273-0.388  c0.067-0.103,0.132-0.207,0.194-0.313c0.073-0.126,0.143-0.254,0.209-0.383c0.121-0.24,0.229-0.486,0.324-0.738  c0.086-0.229,0.162-0.461,0.228-0.697c0.116-0.414,0.201-0.836,0.259-1.262c0.05-0.372,0.079-0.746,0.09-1.121  c0.01-0.337,0.005-0.674-0.013-1.011c-0.014-0.263-0.037-0.525-0.068-0.787c0.282,0.136,0.573,0.253,0.87,0.351  c0.308,0.101,0.623,0.182,0.941,0.241c0.311,0.058,0.626,0.095,0.941,0.112c0.307,0.016,0.615,0.014,0.921-0.008  c0.588-0.041,1.171-0.151,1.735-0.324c0.538-0.165,1.059-0.386,1.553-0.656c0.478-0.261,0.931-0.568,1.354-0.911  c0.388-0.315,0.751-0.66,1.088-1.028c0.32-0.35,0.618-0.72,0.89-1.109c0.277-0.397,0.528-0.812,0.744-1.245  c0.135-0.271,0.257-0.549,0.362-0.832c0.105-0.283,0.194-0.572,0.264-0.866c0.083-0.351,0.139-0.708,0.165-1.068  c0.029-0.412,0.018-0.827-0.035-1.237c-0.058-0.444-0.165-0.882-0.319-1.303c-0.155-0.42-0.357-0.823-0.601-1.198  c-0.224-0.344-0.482-0.664-0.77-0.957c-0.248-0.252-0.518-0.483-0.804-0.691c-0.242-0.176-0.495-0.335-0.758-0.479  c-0.163-0.089-0.329-0.172-0.498-0.25c-0.21-0.096-0.423-0.183-0.64-0.262c-0.193-0.07-0.389-0.134-0.586-0.192  c-0.193-0.057-0.386-0.11-0.581-0.158c-0.411-0.1-0.826-0.179-1.245-0.236c-0.464-0.063-0.931-0.099-1.399-0.104  c-0.259-0.003-0.518,0.004-0.776,0.022c-0.282,0.019-0.562,0.052-0.841,0.097c-0.309,0.05-0.616,0.117-0.918,0.203  c-0.339,0.097-0.671,0.218-0.993,0.361c-0.669,0.298-1.292,0.699-1.841,1.183c-0.261,0.23-0.506,0.479-0.731,0.745  c-0.218,0.256-0.417,0.526-0.598,0.809c-0.345,0.54-0.619,1.124-0.817,1.734c-0.192,0.591-0.311,1.205-0.354,1.825  c-0.012,0.17-0.018,0.339-0.018,0.509c-0.554-0.482-1.121-0.948-1.699-1.399c-0.348-0.271-0.7-0.537-1.058-0.796  c-0.359-0.259-0.723-0.512-1.094-0.754c-0.379-0.247-0.764-0.483-1.159-0.702c-0.211-0.117-0.425-0.228-0.642-0.333  c-0.229-0.11-0.461-0.213-0.696-0.308c-0.51-0.205-1.036-0.372-1.573-0.491C543.2,278.088,543.174,278.082,543.149,278.077z" style="fill:#4D4BFB;"/></svg>