<svg id="Layer_1" style="enable-background:new 0 0 841.89 595.276;" version="1.1" viewBox="0 0 841.89 595.276" x="0px" xml:space="preserve" xmlns="http://www.w3.org/2000/svg" xmlns:xlink="http://www.w3.org/1999/xlink" y="0px"><path d="M711.255,427.064c-1.488,0-2.976,0-4.464,0c-0.457-1.399-1.281-2.649-2.387-3.62  c-0.673-0.435-1.345-0.869-2.018-1.304c-4.454-2.025-9.68,0.272-11.198,4.923c-0.655,0-1.311,0-1.966,0  c-1.348-1.784-3.014-4.292-5.079-7.738c0.441-0.066,0.868-0.226,1.248-0.459c0.284-0.174,0.542-0.388,0.781-0.621  c0.125-0.122,0.245-0.249,0.363-0.379c0.285-0.313,0.557-0.638,0.821-0.969c0.407-0.51,0.794-1.035,1.267-1.485  c0.148-0.141,0.304-0.274,0.48-0.377c0.089-0.052,0.182-0.096,0.277-0.136c0.28-0.118,0.573-0.201,0.865-0.284  c0.229-0.065,0.458-0.13,0.687-0.197c0.445-0.13,0.888-0.269,1.325-0.427c0.644-0.233,1.274-0.506,1.885-0.816  c0.529-0.268,1.045-0.563,1.544-0.883c0.823-0.526,1.604-1.12,2.304-1.803c0.787-0.767,1.472-1.647,1.937-2.639  c0.377-0.807,0.608-1.687,0.663-2.577c1.463,2.924,2.513,5.341,3.231,7.338c1.038,2.403,2.075,4.806,3.113,7.209  C708.774,422.85,710.175,425.185,711.255,427.064z" style="fill:#00F1FF;"/><path d="M670.493,321.838c-0.926-0.948-2.289-2.416-4.299-4.079c-2.602-1.984-7.978-6.112-17.997-12.496  c0.018,0.095,0.034,0.19,0.049,0.286c0.037,0.243,0.062,0.488,0.076,0.733c0.029,0.512,0.006,1.028-0.07,1.535  c-0.075,0.497-0.2,0.986-0.372,1.459c-0.155,0.427-0.347,0.84-0.569,1.236c-0.037,0.066-0.075,0.132-0.114,0.197  c-0.267,0.448-0.801,1.173-1.139,1.571c-0.078,0.092-0.157,0.184-0.237,0.274c-0.453,0.512-0.933,0.998-1.418,1.479  c-0.093,0.093-0.187,0.185-0.281,0.277c3.08,2.043,6.143,4.111,9.182,6.214c2.801,1.939,5.582,3.907,8.329,5.922  c1.906,1.398,3.797,2.819,5.661,4.273c0.967,0.754,1.927,1.517,2.877,2.293c0.846,0.691,1.684,1.391,2.512,2.104  c0.169,0.145,0.337,0.291,0.504,0.437c0.618,0.32,1.135,0.58,1.582,0.793c1.2,0.572,1.898,0.803,2.111,0.646  c2.079-1.44,1.019-3.846-0.125-6.279C675.611,328.281,674.383,325.822,670.493,321.838z" style="fill:#7BFEFF;"/><path d="M679.416,358.199c-0.287-7.036-3.148-12.03-4.945-14.361c-4.282-4.782-14.527-12.984-34.106-25.927  c-0.195,0.184-0.389,0.369-0.583,0.553c-0.669,0.635-1.336,1.27-2,1.91c-0.532,0.513-1.061,1.028-1.584,1.55  c-0.37,0.37-0.737,0.743-1.092,1.127c-0.119,0.128-0.236,0.257-0.35,0.389c-0.05,0.058-0.1,0.116-0.149,0.175  c-0.031,0.038-0.062,0.076-0.092,0.115c0.019,0.292,0.046,0.583,0.072,0.874c0.024,0.263,0.048,0.525,0.068,0.788  c0.012,0.153,0.023,0.306,0.033,0.46c0.041,0.634,0.06,1.611,0.023,2.246c-0.005,0.095-0.012,0.191-0.019,0.286  c-0.032,0.411-0.083,0.821-0.156,1.227c-0.081,0.45-0.19,0.895-0.33,1.33c-0.153,0.476-0.343,0.939-0.569,1.385  c-0.224,0.441-0.483,0.865-0.773,1.266c-0.281,0.389-0.591,0.757-0.926,1.101c-0.324,0.332-0.671,0.642-1.038,0.927  c-0.321,0.25-0.656,0.481-1.004,0.692c10.858,5.96,29.268,13.878,38.994,18.015c9.241,3.931,10.642,4.448,10.523,3.768" style="fill:#7BFEFF;"/><path d="M598.689,323.662c0.089,0.409,0.167,0.82,0.23,1.233c0.078,0.51,0.135,1.024,0.164,1.54  c0.015,0.263,0.022,0.527,0.022,0.791c0,0.265-0.008,0.53-0.025,0.794c-0.032,0.521-0.095,1.04-0.192,1.553  c-0.188,0.995-0.501,1.966-0.927,2.883c-0.203,0.437-0.433,0.863-0.684,1.275c-0.241,0.394-0.501,0.776-0.78,1.145  c-0.267,0.354-0.55,0.696-0.846,1.027c-0.395,0.442-0.813,0.865-1.248,1.268c-0.64,0.593-1.317,1.146-2.028,1.652  c-0.535,0.381-1.089,0.735-1.66,1.06c-0.398,0.226-0.804,0.438-1.218,0.634c-0.424,0.2-0.857,0.383-1.297,0.546  c-0.378,0.14-0.762,0.265-1.15,0.374c5.543,4.436,11.57,8.784,18.08,13.045c0.289-0.259,0.582-0.514,0.883-0.76  c0.271-0.221,0.548-0.434,0.835-0.634c0.321-0.223,0.655-0.428,1.001-0.61c0.364-0.192,0.742-0.358,1.129-0.498  c0.363-0.13,0.734-0.237,1.109-0.324c0.337-0.078,0.677-0.14,1.019-0.191c0.327-0.048,0.656-0.086,0.985-0.116  c0.244-0.022,0.488-0.04,0.732-0.054c0.324-0.018,0.648-0.029,0.972-0.033c0.32-0.004,0.641-0.003,0.961,0.006  c0.316,0.009,0.631,0.024,0.946,0.046c0.423,0.031,0.845,0.075,1.264,0.14c0.164,0.025,0.327,0.054,0.489,0.086  c0.175,0.035,0.35,0.074,0.523,0.119c0.185,0.048,0.369,0.104,0.551,0.166c0.114,0.039,0.228,0.081,0.34,0.125  c0.13,0.052,0.259,0.109,0.386,0.169c0.15,0.072,0.297,0.149,0.441,0.233c0.171,0.1,0.337,0.209,0.498,0.326  c0.192,0.141,0.376,0.293,0.549,0.457c0.331,0.314,0.623,0.67,0.866,1.056c0.178,0.284,0.33,0.585,0.453,0.897  c0.126,0.322,0.221,0.656,0.283,0.996c0.056,0.308,0.085,0.622,0.087,0.936c0.333-0.141,0.674-0.26,1.021-0.36  c0.313-0.09,0.63-0.164,0.949-0.226c0.316-0.062,0.635-0.113,0.954-0.156c0.52-0.071,1.042-0.122,1.564-0.175  c0.456-0.047,0.912-0.095,1.368-0.15c0.327-0.04,0.654-0.084,0.98-0.134c0.148-0.023,0.296-0.046,0.444-0.072  c0.204-0.289,0.399-0.584,0.592-0.881c0.358-0.552,0.708-1.11,1.055-1.669c0.443-0.715,0.881-1.433,1.316-2.152  c0.701-1.16,1.396-2.324,2.086-3.49c0.387-0.654,0.773-1.309,1.157-1.965c0.073-0.125,0.146-0.249,0.219-0.374  c-0.914-0.445-1.826-0.895-2.735-1.349c-1.158-0.58-2.312-1.169-3.459-1.77c-1.064-0.558-2.122-1.126-3.172-1.711  c-0.95-0.53-1.893-1.072-2.823-1.637c-0.449-0.272-0.897-0.545-1.346-0.817c-0.565-0.051-1.128-0.137-1.684-0.25  c-1.023-0.209-2.024-0.511-3.003-0.874c-0.693-0.257-1.375-0.544-2.048-0.85c-0.473-0.215-0.941-0.439-1.405-0.672  c-0.695-0.349-1.381-0.717-2.054-1.108c-0.894-0.519-1.765-1.077-2.618-1.66c-0.91-0.621-1.8-1.27-2.679-1.935  c-1.164-0.881-2.306-1.79-3.437-2.713C601.988,326.492,600.329,325.088,598.689,323.662z" style="fill:#7BFEFF;"/><path d="M602.014,284.186c0.039,0.245,0.064,0.493,0.075,0.741c0.009,0.21,0.008,0.42-0.003,0.629  c-0.011,0.209-0.032,0.417-0.062,0.624c-0.041,0.282-0.1,0.562-0.175,0.837c-0.104,0.379-0.239,0.749-0.4,1.107  c-0.153,0.34-0.329,0.669-0.523,0.986c-0.188,0.306-0.393,0.602-0.611,0.888c-0.217,0.285-0.448,0.56-0.687,0.827  c-0.232,0.259-0.472,0.51-0.717,0.757c-0.244,0.245-0.492,0.486-0.743,0.723c-0.254,0.24-0.51,0.477-0.767,0.714  c-0.648,0.593-1.303,1.178-1.955,1.767c-0.503,0.455-1.002,0.914-1.492,1.383c-0.849,0.814-1.666,1.66-2.436,2.548  c-0.326,0.375-0.643,0.758-0.948,1.151c-0.243,0.313-0.477,0.632-0.698,0.961c-0.073,0.109-0.145,0.22-0.213,0.332  c-0.046,0.076-0.09,0.152-0.132,0.23c-0.017,0.033-0.034,0.066-0.05,0.099c0.004,0.022,0.008,0.045,0.013,0.067  c0.022,0.108,0.05,0.215,0.081,0.321c0.048,0.166,0.102,0.33,0.16,0.492c0.075,0.213,0.156,0.423,0.24,0.633  c0.153,0.38,0.317,0.757,0.486,1.13c0.285,0.633,0.583,1.26,0.884,1.886c0.503,1.049,1.012,2.094,1.517,3.142  c0.664,1.378,1.321,2.76,1.958,4.151c4.892,4.598,9.381,8.46,12.724,11.156c4.782,3.857,7.221,5.326,9.663,6.507  c2.442,1.18,4.888,2.07,7.105,1.915c2.216-0.155,4.203-1.355,4.946-3.184c0.743-1.828,0.242-4.284,0.177-5.935  c-0.065-1.651,0.307-2.497,2.558-4.811c2.251-2.314,6.38-6.096,8.782-8.475c2.402-2.379,3.077-3.353,1.968-5.562  c-1.108-2.209-4-5.651-5.761-7.777c-1.761-2.126-2.391-2.936-8.055-5.693C623.711,288.915,614.234,284.729,602.014,284.186z" style="fill:#7BFEFF;"/></svg>