<svg id="Layer_1" style="enable-background:new 0 0 492.203 447.457;" version="1.1" viewBox="0 0 492.203 447.457" x="0px" xml:space="preserve" xmlns="http://www.w3.org/2000/svg" xmlns:xlink="http://www.w3.org/1999/xlink" y="0px"><path d="M274.998,233.837c-43.703-23.325-76.531-20.842-146.917,22.541c0.811,0.497,1.621,0.996,2.43,1.497  c2.001,1.242,3.993,2.498,5.979,3.764c2.228,1.42,4.448,2.853,6.661,4.295c2.473,1.611,4.939,3.233,7.399,4.863  c2.737,1.813,5.466,3.637,8.191,5.468c3.018,2.028,6.031,4.065,9.038,6.109c3.318,2.255,6.631,4.517,9.94,6.786  c3.636,2.493,7.267,4.994,10.895,7.5c5.99,4.138,11.97,8.289,17.943,12.451c2.061-2.541,4.131-5.075,6.211-7.601  c5.471-6.645,11.006-13.238,16.628-19.755c4.958-5.748,9.983-11.439,15.098-17.048c4.444-4.873,8.955-9.684,13.558-14.407  c2.061-2.115,4.14-4.211,6.241-6.286c1.948-1.924,3.915-3.83,5.903-5.713C271.782,236.797,273.382,235.308,274.998,233.837z" style="fill:#8FC695;"/></svg>