<?xml version="1.0" encoding="utf-8"?>
<!-- Generator: Adobe Illustrator 24.3.0, SVG Export Plug-In . SVG Version: 6.00 Build 0)  -->
<svg version="1.1" id="Layer_1" xmlns="http://www.w3.org/2000/svg" xmlns:xlink="http://www.w3.org/1999/xlink" x="0px" y="0px"
	 viewBox="0 0 1280 1024" style="enable-background:new 0 0 1280 1024;" xml:space="preserve">
<path style="fill:#189A96;" d="M486.6,346.6c0,0,1.8-0.8,4.3-2.1c2.5-1.3,6.1-1.3,8.1-2.8
	c2-1.5,6.3-5.3,10.1-7.3c3.8-2,26.5-16,28.9-18.5c2.5-2.5,3.1-2.8,6.6-8.8c3.5-6,3.8-6,1.7-5.8c-2.1,0.2-8.8,2.1-13.6,3.6
	c-4.8,1.5-12.6,5.5-14.9,7.4c-2.3,2-7.2,6-8.6,8.3c-1.3,2.1-3,6.9-3,6.9s-4.6-0.6-5.5-2.9c-0.8-2.4-1.5-6.3-0.2-8.8
	c1.3-2.5,5.8-8.9,5.8-8.9s-7.2,0.5-9.7,3c-2.5,2.5-4.8,9.3-5.8,11.4c-1,2.1-2.6,6.1-5.5,7.8s-6.9,2.1-9.8,3.1
	c-2.8,1-7.1,3.3-7.6,5.8c-0.5,2.5,0.7,5.6,2,7.3c1.3,1.7,2.1,2,4.8,1.3c2.6-0.7,3.1-2.8,5.3-5c2.1-2.1,4.8-2.8,7.4-3.1
	s4.5,0.8,4.5,0.8s-1.7,1.8-3.3,3.1C487.1,343.8,486.6,346.6,486.6,346.6z"/>
</svg>