<?xml version="1.0" encoding="utf-8"?>
<!-- Generator: Adobe Illustrator 24.3.0, SVG Export Plug-In . SVG Version: 6.00 Build 0)  -->
<svg version="1.1" id="Layer_1" xmlns="http://www.w3.org/2000/svg" xmlns:xlink="http://www.w3.org/1999/xlink" x="0px" y="0px"
	 viewBox="0 0 1280 1024" style="enable-background:new 0 0 1280 1024;" xml:space="preserve">
<path style="fill:#008F65;" d="M624.2,317.7c0,0-2.9,1.3-5.6,2.5c-2.7,1.2-4.7,0.6-6.7,2.3
	c-0.6,0.5-1.7,1.6-2.9,2.9c-1.2,1.3-2.7,2.9-4.1,4.3c-0.3,0.3-0.6,0.6-0.8,0.9c-1.6,1.7-3.1,3.1-4,3.9c-2.7,2.1-10.1,7-13,8
	c-2.9,1-8.8,1.8-8.8,1.8s-0.3,1.2,2.6,1.8c2.9,0.6,6.5,1.9,9.6,0.9c3-1,13.5-4.3,13.9-4.4c-0.4,0.3-13.9,9.2-16.3,10.7
	c-2.4,1.5-12.9,11.6-15.4,15.2c-0.4,0.6-0.9,1.3-1.4,2.2c-3,4.9-8,13.8-10,15.8c-2.3,2.3-7,6.4-11,8.8c-4,2.4-10.2,4.7-12.9,5.9
	s-5.5,4.3-6.2,6.2c-0.7,1.8-1,5.1-1.1,5.5c0.1-0.4,1.4-3.3,4.3-5.5c3-2.4,8.8-3.7,12.6-4.3c3.8-0.6,7-3,10.3-5.8
	c3.4-2.7,10.4-10.5,10.4-10.5s-9.3,36.7-10.7,39c-1.4,2.3-8.8,8.4-12.8,9.3c-4,0.9-12,2.9-16.3,3.3c-4.3,0.5-13.7-1.4-16.2-1.5
	c-2.5-0.2-8,2-9.2,0.5c-1.2-1.5-3.3-2.1-0.9-4.3c2.4-2.1,12.1-5.5,14.4-8.2c2.3-2.7,6.4-7,7-8.5c0.6-1.5-4.1,0.3-6.5,0.9
	c-2.4,0.6-5.6-0.3-5.6-0.3s5.8-3.4,7.6-4.7c1.8-1.4,2.1-3.6,4.7-4.8c2.6-1.1,6.1-2.5,8.8-5.2s6.1-11.1,7.3-14.9
	c1.2-3.8,2-12.3,1.8-16.4c-0.2-4.1-3.7-15.5-3.7-15.5s-7.8,8.4-9.4,9.6c-1.7,1.2-6.9,2.9-6.9,2.9s1.8-5.9,4-8.3c0,0,2.4-2.4,4.8-4.4
	s6.7-4.8,11.1-6.7c4.4-1.9,18.9-5.8,23.4-8.3c4.6-2.4,7.5-3.3,13.9-7.3c6.4-4,12.6-7.5,16.9-10.7c4.3-3.2,5.3-5.2,12.5-6.8
	c7.1-1.7,9.6-0.8,11.3,0C620.4,316.1,624.2,317.7,624.2,317.7z"/>
</svg>