<?xml version="1.0" encoding="utf-8"?>
<!-- Generator: Adobe Illustrator 24.3.0, SVG Export Plug-In . SVG Version: 6.00 Build 0)  -->
<svg version="1.1" id="Layer_1" xmlns="http://www.w3.org/2000/svg" xmlns:xlink="http://www.w3.org/1999/xlink" x="0px" y="0px"
	 viewBox="0 0 1280 1024" style="enable-background:new 0 0 1280 1024;" xml:space="preserve">
<path style="fill:#3E6D4F;" d="M739.4,429c-0.7,0.9-1.8,2.5-2.4,2.8c-1.8,1.1-5.4,2.6-6.6,3.1
	c-1.2,0.5-7.2,0.5-9.1,0.9c-1.9,0.5-6.9,2.8-9.3,4.8c-2.4,2-6.1,6.8-7.8,8.7c-1.7,1.9-4.6,8.2-5.4,10.4c-0.8,2.1-2.6,12-2.8,15
	c-0.2,3-1.4,8-1.4,8c-0.5,2.5-0.2,4.3-1.7,6.2c-1,1.4-1.6,1.4-2.8,0.5s-0.7-2.2-0.8-4c-0.1-1.8,0.6-4.5-1.8-6.6
	c-2.2-2-2.2-2-5.4-3.5c-2.8-1.3-3.6-1.9-3.7-2c0.1,0.2,1.2,1.7,2.7,4.2c1.7,2.7,3.3,5.4,2.7,9.1c-0.7,4-2.1,6.7-2.6,9.1
	c-0.9,4.6-0.9,4.5-0.8,10.5c0.1,5.1,0.5,7.4,2,11.9c2.1,6.1,3.2,9.8,4.5,11.9c1.3,2.1,4.1,7.7,6.1,10.8c2,3.2,7.9,11.3,10,15.3
	c2.1,4,9.2,15.1,10.1,16.7c0.9,1.7,6.9,14.7,8.2,17.4c1.3,2.7,6,13.5,6.8,16.2c0.8,2.7,2.7,8.6,3.1,11.3c0.4,2.7,1.1,8.8,1.5,12
	c0.5,3.2,0.2,9.5,0,13.2c-0.2,3.6-1.3,6.9-2,11.2c-0.7,4.2-2.1,10.2-3.4,14.6c-1.3,4.3-2.8,7.2-5.2,13c-2.4,5.8-5.5,10-7.8,13.5
	c-2.2,3.5-5.7,7.1-8.5,10.2c-2.8,3.2-7.2,7.2-9.3,9c-2.1,1.8-6.9,5-8.7,6.5c-1.8,1.5-11,7.1-12.8,7.9c-1.9,0.8-12,5.2-14.2,5.9
	c-2.2,0.7-11.7,2.8-13.8,3.5c-2.1,0.7-12.7,2.1-16,2.1c-3.3,0-10.4,0.5-14.7,0c-4.4-0.5-13.1-1.5-17.1-2.6c-4-1.1-14-4.1-16.7-5.3
	c-2.7-1.2-14.8-6.7-16.4-7.8c-1.5-1.1-13-8.8-14.8-10.2c-1.9-1.4-8.5-7.3-10.5-9.4s-7.2-8.2-9.4-10.8s-5.7-8.7-5.7-8.7
	c-2.6-3.8-4.8-6.4-5.6-8.5c-0.8-2.1-4.6-9.4-6.4-14.5c-1.1-3.2-2.9-9.2-3.8-12.5c-0.8-3.3-1.4-11-1.5-14.4
	c-0.1-3.4,0.4-8.8,0.8-12.6s1.4-9.1,2.2-11.8c0.8-2.7,2.9-4,4.5-4.8c1.5-0.8,2.8-1.2,2.9,0.7c0.1,1.9-2.4,4.2-3.3,7.3s-0.7,6,0,8.2
	c0.7,2.2,4.6,6,4.6,6s-1.3-7.1-1.1-10c0.2-2.9,1-3.7,2.5-5.8c1.5-2.1,2.2-4,5.8-7.1c3.5-3.1,7.5-11.4,9.3-15.9
	c1.8-4.5,1.7-8.9,1.8-13.9c0.1-5,2.4-11.2,4-14.6c1.6-3.4,5.9-6.6,5.9-6.6c2.9-3.4,5.1-4,5.1-4c1.9-1.4,4-1.3,5.2,0.7
	c0.8,1.3,1.4,1.5-0.5,4.3c-1.9,2.8-4.2,2.7-5.4,5.8c-0.9,2.4-1.1,3.2-0.9,5.3c-0.5,0.7-1,1.5-1.4,2.2c-2.3,3.6-4,5.8-5.3,9.5
	c-1.3,3.9-2.5,7.1-3.6,10.6c-1.2,3.5-2.8,10.7-3.1,14.8c-0.4,7.6-0.7,13.5-0.7,13.5c-0.2,3.2,1.8,13.9,2.9,17.2
	c1.1,3.4,3.4,11.5,5.4,15.4c2,3.9,7.3,13.3,9.5,16.2c0,0,0,0,0,0c0.1,0.1,0.2,0.3,0.3,0.4c2.1,2.7,13.6,17.2,19.1,22.1
	c6,5.4,10.9,6.5,17.3,9.2c6.4,2.7,20.3,7,27.8,7.2c6.6,0.1,25.6-3.6,33-6.9c7.4-3.4,14.1-7.1,19.9-13.5c5.7-6.4,12.4-14.8,15.4-22.2
	c3-7.4,5.1-18.1,5.4-26.6c0.3-7.5-0.7-16.2-2.4-25.2c-1.7-9.1-6.1-21.9-7.7-27.2c-1.7-5.4-7.7-19.5-11.4-31
	c-3.7-11.4-7.4-21.9-8.7-31.6c-1.3-9.8-1.2-15.6-0.1-25.8c1.2-12.1,4.6-23.9,4.8-24.6c0,0,0,0,0,0c0,0,0,0,0,0
	c0.6-1.3,4.6-7.4,4.6-7.4c2.9-4.2,4.5-6.4,8.2-10.5c3.6-4.1,11.7-8.9,15.1-11.5c3.4-2.5,9.4-5.7,13.1-7.4c4-1.8,12.8-3.6,19.1-4.1
	C732.2,429.7,736.2,429.1,739.4,429z"/>
</svg>