<?xml version="1.0" encoding="utf-8"?>
<!-- Generator: Adobe Illustrator 24.3.0, SVG Export Plug-In . SVG Version: 6.00 Build 0)  -->
<svg version="1.1" id="Layer_1" xmlns="http://www.w3.org/2000/svg" xmlns:xlink="http://www.w3.org/1999/xlink" x="0px" y="0px"
	 viewBox="0 0 1280 1024" style="enable-background:new 0 0 1280 1024;" xml:space="preserve">
<path style="fill:#009C4A;" d="M808.4,690.1c-1.3,0.1-3.8,1.6-5.4,2.2
	c-1.6,0.7-5.8,3.3-7.3,3.7s-2.2,0.4-3.4-1.2c-1.2-1.6-0.3-3.1-0.3-5.1c0-2,4.3-4.6,6-6.1s4.1-6.2,5.1-8c1-1.8,1.3-8.6,1.4-10.2
	c0.1-1.5-2.2-10.6-3-13.3c-0.8-2.6-1-8.6-0.8-10.6c0.3-2,2-4.1,3.7-6.3c1.7-2.2,3.3-3.1,3.3-3.1s-1.4-0.8-2.5-0.8
	c-1,0-9.1,1.6-10.7,3c-2.8,2.4-5.2,5.2-5.8,6.9c-0.8,2.4-1.6,8.6-1.7,10.1c-0.1,1.4-2.8,8.9-3.5,10.2c-0.8,1.3-4.2,3.7-7.5,2.9
	c-3.3-0.8-5-3.9-6.2-5.9c-1.2-2-0.8-5.8-0.8-7.3s1.3-3,3.1-4.7c1.8-1.7,2-2.1,2-2.1s-2.7,0.1-6.8,1.6c-3.1,1.1-3.6,1.4-4.7,3.3
	c-1,1.7-2.4,5.3-3.1,6.4c-1.4,2-2.4,3.3-4.2,4.4c-1.8,1.2-3.4,1.9-5.6,2.6c-1.6,0.5-2,0.6-3.7,1.2c-1.7,0.7-2.4,1.5-2.4,1.5
	s3.9,3,5.1,3.9c1.2,0.9,6.9,3.5,10.2,4.6c3.3,1,7.3,1.7,10.7,2.2c3.4,0.5,6.8,1.4,9.4,2.4c2.5,0.9,4,2.9,4.8,4.2
	c0.8,1.3,0.8,5.4,0.8,6.9s-2.3,7.6-3.9,10.9c-1.6,3.3-5.5,9.3-8.4,14.5c-1.6,2.9-2.2,3.9-2.3,4.2c0.6-0.1,8.3-2,10-2.6
	c1.8-0.6,10.3-2.9,13.3-4.2c3-1.3,6-3.8,7.1-5c1-1.2,4.7-8.2,6-10.1c1.3-1.8,4.1-4.2,5.1-5.6c1-1.4,2.9-1.4,2.9-1.4
	S809.7,690,808.4,690.1z M762.8,663.7c0,0-1.4-3.5-1.2-5.1c0.3-1.6,0.6-5.7,1.4-6.3c0.8-0.7,2.6-1.4,2.6-1.4L762.8,663.7z
	 M788.6,663.7c0.8-1.7,1.2-4,1.8-6.4c0.7-2.3,0.3-5.9,0.7-8c0.4-2.1,1-5.4,2.1-6.8c1-1.4,3.5-4.1,3.5-4.1s0.3,1.3-0.2,2.9
	c-0.9,2.7-0.3,6,1.1,9.5c1.3,3.5,1.8,6.3,2.1,8.2c0.3,2,0.4,3.8,0,6.3c-0.4,2.6-1.1,6.1-1.8,7.7c-0.8,1.6-2.8,2.8-2.8,2.8
	s0.7-3.1,1.3-4.3c0.6-1.2,0.8-4,1.2-6.1c0.4-2.1,0.7-4.9-0.3-7.5c-0.9-2.6-2-5.6-2.3-7.1s-0.9-4.2-0.9-4.2s-0.6,5.4-1,7.8
	c-0.4,2.5-0.9,5.9-1.3,7.5c-0.4,1.6-1.7,4.1-2.5,4.7c-0.8,0.7-4.5,1.7-4.5,1.7S787.8,665.4,788.6,663.7z M801.8,697.7
	c-1.2,1-1.8,3.4-4.3,5.1c-2.5,1.7-3.6,2.8-5.2,3.5c-1.7,0.8-3.3,0.7-3.3,0.7s3-1.6,4.2-2.8c1.2-1.2,3.3-3.7,4.2-4.6
	c0.9-0.9,3-3.1,4-4c1-0.9,3.8-2.9,3.8-2.9l0.8,1.2C806,693.9,803,696.7,801.8,697.7z"/>
</svg>