<?xml version="1.0" encoding="utf-8"?>
<!-- Generator: Adobe Illustrator 24.3.0, SVG Export Plug-In . SVG Version: 6.00 Build 0)  -->
<svg version="1.1" id="Layer_1" xmlns="http://www.w3.org/2000/svg" xmlns:xlink="http://www.w3.org/1999/xlink" x="0px" y="0px"
	 viewBox="0 0 1280 1024" style="enable-background:new 0 0 1280 1024;" xml:space="preserve">
<path style="fill:#50FF0A;" d="M882.1,579l-0.5,0.9l-14.5-8.7c0,0,3.9-0.1,6,0.8
	c2.1,0.9,2.9,2.6,4.7,4C879.7,577.4,882.1,579,882.1,579z"/>
<path style="fill:#50FF0A;" d="M894.5,617.7c0,0-2.3,1-3.8,0c-1.5-1-3.6-1.4-4.5-3.1
	c-0.9-1.7-1.6-2.6-2.6-4.3s-1.8-2.6-3.1-3.5c-1.3-0.8-3.5-1.4-5.3-1.2c-1.8,0.2-4.3,0.3-4.3,0.3s1.4-1.6,2.4-1.7
	c1.1-0.1,2.6-0.7,4.3-0.2c1.7,0.5,3.6,1,4.6,1.7c1,0.7,3.3,2.7,3.3,2.7s-0.1-2.3-0.5-3.8c-0.4-1.5-1.2-2.6-2.2-4.6
	c-1-2-1.8-3.7-3-4.6c-1.1-0.9-3.1-2.8-3.2-3c0.3,0.1,4.9,2.1,6,2.8c1.1,0.7,2.6,4,3.2,6c0.6,2,2.1,7.4,2.9,9.3
	c0.8,1.9,1.7,3.8,2.8,5.1C892.5,616.9,894.5,617.7,894.5,617.7z"/>
<path style="fill:#50FF0A;" d="M810,558c0,0-0.4,3.4,0,6.3c-2.2-0.8-4.3-1.8-6.4-2.9
	c-4.1-2.2-10.7-7.8-13.9-10.7c-3.1-2.8-6.4-7.1-9.1-11.8c-2.7-4.7-6.2-9.8-7.6-12.9c-1.3-3.1-7.4-17.6-9.3-21.3
	c-1.9-3.7-5.5-9.3-7.4-12.1c-1.9-2.8-5.2-5.7-9.6-8.3c-3.8-2.2-6.5-3.2-10.3-3.4c-3.8-0.2-4.2,0.1-7.5,0.4c-1.5,0.1-2.8,0.6-3.8,1
	c-1,0.4-1.7,0.8-2,1c0.9-0.6,6-4.1,9.5-5.7c3.8-1.8,11.4-2.2,14.2-1.5c2.8,0.7,8.9,2.7,12.3,4.9c3.4,2.2,9.5,7.9,11.5,11
	c1.9,3.1,11.7,22.8,13.5,26.5c1.8,3.7,7.2,14.2,10.2,18.6c3,4.4,12.6,12.8,14.7,13.9c0.4,0.2,1.2,0.4,2.2,0.5
	c-0.3,0.9-0.5,1.8-0.7,3C810.2,555.6,810.1,556.7,810,558z"/>
</svg>