<?xml version="1.0" encoding="utf-8"?>
<!-- Generator: Adobe Illustrator 24.3.0, SVG Export Plug-In . SVG Version: 6.00 Build 0)  -->
<svg version="1.1" id="Layer_1" xmlns="http://www.w3.org/2000/svg" xmlns:xlink="http://www.w3.org/1999/xlink" x="0px" y="0px"
	 viewBox="0 0 1280 1024" style="enable-background:new 0 0 1280 1024;" xml:space="preserve">
<path style="fill:#44DE40;" d="M483.9,438c-2.4,1.8-5.1,3.8-8.2,6.5c-3.1,2.7-5.3,5.1-8.4,9
	c-3.1,3.9-4.5,8.6-5.1,10.8c-0.7,2.2-2.7,8.1-4.2,9.4c-1.5,1.3-5.3,4.2-8.2,4.9c-3,0.7-8.5,0.8-12.1,0.8s-6.6,0-9.4-2.4
	c-0.9-0.8-1.8-4.7-1.8-4.7s3.2,2.7,5.1,3.5s6.2,0.7,8.6,0.5c2.4-0.1,8.9-0.8,11.2-2.3c2.3-1.5,4-3.4,5.5-6.2
	c1.5-2.8,4.3-10.7,5.5-13.5c1.2-2.8,4.6-7.6,7.4-10.1c2.8-2.6,4.6-3.8,8-5.8s7.4-6.3,7.4-6.3S486.4,436.2,483.9,438z"/>
</svg>