<?xml version="1.0" encoding="utf-8"?>
<!-- Generator: Adobe Illustrator 24.3.0, SVG Export Plug-In . SVG Version: 6.00 Build 0)  -->
<svg version="1.1" id="Layer_1" xmlns="http://www.w3.org/2000/svg" xmlns:xlink="http://www.w3.org/1999/xlink" x="0px" y="0px"
	 viewBox="0 0 400 400" style="enable-background:new 0 0 400 400;" xml:space="preserve">
<path style="fill:#3E6D4F;" d="M126.9,360.5h-44v1.6c13.5,9.8,28.3,17.9,44,24.1V360.5z"/>
<path style="fill:#3E6D4F;" d="M34.2,311.8V277H15.4C20.5,289.3,26.8,300.9,34.2,311.8L34.2,311.8z"/>
<path style="fill:#3E6D4F;" d="M82.9,37.8L82.9,37.8l44,0.1V13.8C111.2,20,96.4,28.1,82.9,37.8z"/>
<path style="fill:#3E6D4F;" d="M34.2,88.1c-9.4,13.9-17.1,29-22.8,45h22.8V88.1z"/>
<rect x="175.6" y="86.6" style="fill:#794A52;" width="53.2" height="46.5"/>
<path style="fill:#3E6D4F;" d="M34.2,181.8H0.8C0.3,187.8,0,193.9,0,200c0,9.6,0.7,19.1,2,28.3h32.2V181.8z"/>
<rect x="82.9" y="277" style="fill:#794A52;" width="44" height="34.8"/>
<path style="fill:#3E6D4F;" d="M372,228.3h26c1.3-9.2,2-18.7,2-28.3c0-6.1-0.3-12.2-0.8-18.2H372V228.3z"/>
<path style="fill:#3E6D4F;" d="M319.3,360.5h-41.7v23.9C292.5,378.1,306.5,370.1,319.3,360.5z"/>
<path style="fill:#3E6D4F;" d="M372,277v25c4.8-8,9-16.4,12.6-25H372z"/>
<path style="fill:#3E6D4F;" d="M175.6,37.9h53.2V2.1C219.4,0.7,209.8,0,200,0c-8.2,0-16.4,0.5-24.4,1.5V37.9z"/>
<path style="fill:#3E6D4F;" d="M228.9,360.5h-53.2v38c8,1,16.1,1.5,24.4,1.5c9.8,0,19.4-0.7,28.9-2.1V360.5z"/>
<path style="fill:#3E6D4F;" d="M277.6,37.9h39.6c-12.2-8.9-25.5-16.4-39.6-22.3V37.9z"/>
<path style="fill:#3E6D4F;" d="M372,98v35.1h16.5C384.2,120.8,378.6,109,372,98z"/>
<rect x="175.6" y="277" style="fill:#794A52;" width="53.2" height="34.8"/>
</svg>