<?xml version="1.0" encoding="utf-8"?>
<!-- Generator: Adobe Illustrator 24.3.0, SVG Export Plug-In . SVG Version: 6.00 Build 0)  -->
<svg version="1.1" id="Layer_1" xmlns="http://www.w3.org/2000/svg" xmlns:xlink="http://www.w3.org/1999/xlink" x="0px" y="0px"
	 viewBox="0 0 400 400" style="enable-background:new 0 0 400 400;" xml:space="preserve">
<path style="fill:#9D7F6C;" d="M323.1,42.3h-49.3V14.1C260.9,9,247.4,5.1,233.5,2.8v39.6h-61.6V2c-14,2-27.5,5.4-40.3,10.1v30.3
	H79.2v-1.7C63.5,52.5,49.6,66.7,38,82.7h0.8v54.9H9.9c-4.2,12.9-7.2,26.4-8.7,40.3h37.6v54.9H2.7c2.3,14,6.1,27.5,11.1,40.3h25v43.2
	h-1.6c11.7,16.4,25.9,30.9,41.9,43.1v-2.8h52.4V388c12.9,4.7,26.4,8.1,40.3,10.1v-41.4h61.6v40.6c14-2.4,27.5-6.2,40.3-11.3v-29.3
	h50.6c17.1-13.6,32-30,43.9-48.5v-35h17.9c5-12.9,8.8-26.4,11.1-40.3h-29v-54.9h30.5c-1.5-13.9-4.5-27.4-8.7-40.3h-21.8V91.9
	C356.1,72.9,340.8,56.2,323.1,42.3z M131.5,316.3H79.2v-43.2h52.4V316.3z M131.5,232.7H79.2v-54.9h52.4V232.7z M131.5,137.5H79.2
	V82.7h52.4V137.5z M233.5,316.3h-61.6v-43.2h61.6V316.3z M233.5,232.7h-61.6v-54.9h61.6V232.7z M233.5,137.5h-61.6V82.7h61.6V137.5z
	 M327.9,316.3h-54.1v-43.2h54.1V316.3z M327.9,232.7h-54.1v-54.9h54.1V232.7z M327.9,137.5h-54.1V82.7h54.1V137.5z"/>
</svg>