<svg id="Layer_1" style="enable-background:new 0 0 400 400;" version="1.1" viewBox="0 0 800.0 800.0" x="0px" xml:space="preserve" xmlns="http://www.w3.org/2000/svg" xmlns:xlink="http://www.w3.org/1999/xlink" y="0px"><path d="M91.8,281.1c5-9.8,9.4-20.1,12.8-30.6c1.7-5.1,3.1-10.4,4-15.7c1.2-6.5,2-13.2,1.9-19.8  c-0.1-6.1-0.9-12.4-2.2-18.4c-1.1-5-2.9-9.8-4.9-14.6c-2-4.7-4.2-9.3-6.9-13.7c-3.1-5-6.6-9.6-10.4-14.1c-6.8-8.2-14.8-15-23.2-21.3  c-12.7-9.5-26.9-16.8-41.4-23.2c-5,9.8-9.1,20-12.5,30.6c9.4,4.3,18.5,9,27.3,14.5c3.5,2.2,6.8,4.5,10.1,7c6.2,5,12,10.7,17,16.9  c3.8,5.1,7,10.5,9.6,16.3c1.8,4.5,3.1,9.2,3.9,14c0.5,5.1,0.4,10.3-0.1,15.4c-1.6,10-4.8,19.8-8.6,29.2  c-4.9,11.3-10.9,22.2-17.9,32.4c-1.7,2.4-3.4,4.8-5.1,7.1c-4.2,5.3-8.7,10.5-13.4,15.4c6.1,9.4,12.9,18.3,20.4,26.5  c9.2-9.1,17.4-19,24.9-29.6C82.6,297.5,87.5,289.5,91.8,281.1z" style="fill:#3500EC;"/><path d="M383.4,261.4c-17-6.7-34-13.8-51.7-18.8c-8.6-2.4-17.2-4.1-26-5c-6.7-0.7-13.5-0.8-20.2,0  c-4.6,0.6-9.2,1.2-13.6,2.4c-4.4,1.2-8.6,3-12.7,5c-8.2,4.1-14.8,10.4-20.2,17.7c-5.6,7.5-8.8,16.9-10.5,26  c-1.7,8.8-2.4,17.7-3.5,26.5c-1.1,7.2-2.8,14.3-5.4,21.1c-3,6.5-6.6,12.6-10.9,18.4c-6.1,7.6-13.2,14.4-20.8,20.5  c-9.1,6.8-18.9,12.8-29.3,17.5c-1.7,0.7-3.4,1.3-5.1,1.8c14.9,3.6,30.5,5.5,46.6,5.5c3.3,0,6.7-0.1,10-0.2  c7.6-6.1,14.8-12.7,21-20.2c4.4-5.3,8.6-10.9,12.2-16.9c3.5-6,6.4-12.3,8.9-18.8c4.9-13,5.8-27,7.5-40.7c0.8-5.7,2-11.3,4-16.6  c1-2,2.1-4,3.3-5.8c1.2-1.4,2.5-2.7,3.9-3.9c1.9-1.3,3.9-2.4,5.9-3.4c3.4-1.2,6.8-2.1,10.4-2.7c6.3-0.6,12.6-0.5,18.8,0.2  c15.2,2.4,29.9,7.6,44.3,13c8.8,3.4,17.6,6.8,26.4,10.3c5.2-9.6,9.5-19.8,13.1-30.3C387.5,263.1,385.4,262.2,383.4,261.4z" style="fill:#3500EC;"/><path d="M360.5,312.5c-7.8-3.2-15.7-6.1-23.7-8.6c-2.1-0.6-4.1-1.2-6.2-1.7c-3.4-0.8-6.9-1.3-10.4-1.6  c-2-0.2-4.1-0.3-6.2-0.1c-3,0.3-6.2,0.6-9.1,1.5c-0.8,0.2-1.6,0.5-2.3,0.8c-2,0.8-4.1,1.6-6,2.7c-0.7,0.4-1.4,0.8-2.1,1.3  c-1.4,1-2.8,2.1-4.2,3.2c-0.3,0.3-0.6,0.5-0.9,0.8c-0.6,0.6-1.1,1.2-1.6,1.8c-1.3,1.7-2.8,3.4-3.9,5.3c-0.2,0.4-0.4,0.8-0.6,1.2  c-0.8,1.7-1.5,3.4-2.2,5.1c-0.3,0.8-0.5,1.7-0.7,2.6c-0.6,3.2-1.1,6.4-1.1,9.7c0,1.9,0.1,3.8,0.2,5.7c0.3,3.8,0.6,7.5,0.4,11.3  c0,0.2,0,0.3,0,0.5c-0.6,3.3-1.6,6.6-2.8,9.7c-3,6.5-6.9,12.6-10.9,18.5c-1.3,1.8-2.6,3.7-3.9,5.5c-0.6,0.9-1,1.9-1.4,2.8  c17.9-5.7,34.8-13.9,50.1-24.2c0.1-0.4,0.2-0.8,0.3-1.1c0.8-3.5,1.3-7.2,1.6-10.8c0.2-2.2,0.2-4.4,0.1-6.7  c-0.2-4.2-0.8-8.5-0.6-12.7c0-0.2,0.1-0.4,0.2-0.6c0.2-0.1,0.5-0.3,0.7-0.4c0.6-0.2,1.2-0.4,1.9-0.5c1.3-0.1,2.6,0,4,0.1  c4.4,0.8,8.7,2.2,12.9,3.6c3.3,1.1,6.6,2.3,9.9,3.5c8.1-8.2,15.6-17.2,22.2-26.7C363,313.5,361.8,313,360.5,312.5z" style="fill:#3500EC;"/><path d="M191,0.2c0.3,1.7,0.9,3.3,1.9,4.8c0.9,1.1,1.7,2.2,2.6,3.4c2.1,2.1,4.5,3.5,7.3,4.3  c0.1,0.1,0.3,0.1,0.4,0.2c10.8,4.7,21,10.7,30.4,17.8c9.1,7.2,17.4,15.5,24.6,24.6c4.1,5.5,8,11.2,11.8,16.9  c5,7.4,10.2,14.7,15.8,21.7c8.9,11,19.8,20.4,31.6,28.2c11.6,7.7,24.4,13.6,37.5,18.2c12.5,4.3,25.3,6.9,38.4,8.6  c-3.3-12.5-7.8-24.5-13.3-35.9c-5.6-1.3-11.2-2.9-16.6-4.9c-2.5-0.9-4.9-1.8-7.3-2.8c-9.8-4.3-19.1-9.6-27.7-16  c-7.4-5.9-14-12.6-19.9-20c-4.8-6.3-9.1-13-13.6-19.5c-5.5-8-11.1-15.9-17.5-23.2c-5.1-5.9-10.7-11.4-16.7-16.5  c-0.4-0.4-0.9-0.7-1.4-1.1c-18.8-5.8-38.7-9-59.3-9C197,0,194,0.1,191,0.2z" style="fill:#3500EC;"/><path d="M6.1,219.4c0.2,3.2,0.2,6.3-0.2,9.5c-0.5,3.1-1.3,6.2-2.3,9.2c2.8,14.4,7.1,28.2,12.8,41.3  c0.3-0.4,0.7-0.7,1-1.1c2.4-2.6,4.5-5.4,6.6-8.3c1.3-1.7,2.5-3.6,3.6-5.4c1.1-1.8,2.1-3.7,3.1-5.7c1.5-3.2,2.9-6.5,4.2-9.9  c1.5-4.1,2.6-8.3,3.2-12.6c0.9-6,1.7-12,1.1-18.1c-0.2-2-0.5-4-0.8-6.1c-0.1-0.6-0.2-1.3-0.3-1.9c-0.3-1.2-0.6-2.5-1-3.6  c-0.8-2.5-1.9-4.9-3-7.2c-0.5-1.1-1.1-2.1-1.8-3.1c-3.4-5.1-7.5-9.6-12.2-13.5c-4.6-3.8-9.3-7.3-14.6-10c-1.1-0.6-2.3-1.1-3.5-1.6  c-1.3,9.3-2,18.8-2,28.5c0,3.3,0.1,6.5,0.2,9.8c1.2,1.1,2.3,2.3,3.3,3.5c0.6,0.9,1.1,1.8,1.6,2.7C5.6,217.1,5.9,218.3,6.1,219.4z" style="fill:#3500EC;"/><path d="M115.9,31.9c6.5,2.9,12.7,6.6,18.4,10.8c11.9,9.6,21.9,21.2,31.3,33.1c26.3,34.3,48,73.1,81.7,101  c16.7,13.9,35.5,25.3,56.6,30.9c12.4,3.3,25.3,4.5,38.1,5.2c12,0.6,24,1,36.1,1.3c7.1,0.2,14.3,0.3,21.4,0.4  c0.4-4.8,0.5-9.7,0.5-14.6c0-6.2-0.3-12.4-0.9-18.5c-15.5-0.2-31.1-0.6-46.6-1.2c-8.9-0.4-17.8-0.8-26.7-1.8  c-8.8-1.4-17.4-3.6-25.7-6.8c-9.4-4.2-18.1-9.5-26.3-15.6c-14.4-11.5-26.9-25.1-38.2-39.6c-17.5-22.9-32.9-47.2-51.1-69.5  c-8.3-10.2-17.3-20.1-27.7-28.3c-4.6-3.7-9.3-7.1-14.4-10.2c-15.1,4.5-29.4,10.7-42.7,18.5C105.3,28.2,110.6,29.8,115.9,31.9z" style="fill:#3500EC;"/><path d="M123.5,378.9c11.3-11.5,22-23.6,31.1-36.9c9.1-13.2,16.4-28,20.4-43.5c4.5-17.3,5.6-35.4,5.9-53.3  c0.3-18-0.3-36-3.5-53.7c-3-16.8-9.4-33-18.2-47.7c-8.4-14-18.8-26.8-29.8-38.7c-10.1-10.9-21-21-32.6-30.3  c-10.1-8.1-20.7-15.7-31.6-22.6c-8.3,7.6-16,15.9-23,24.8c5.8,3.4,11.4,7,16.9,10.8c4.1,2.8,8.1,5.7,12,8.7  c18.1,14.2,34.6,30.4,48.8,48.4c7.2,9.6,13.6,19.9,18.6,30.9c3.8,9.5,6.2,19.4,7.8,29.5c1.4,11.6,1.7,23.3,1.6,35  c-0.1,11.6-0.5,23.2-1.8,34.7c-1.4,9.6-3.8,18.9-7.3,27.9c-4.5,10-10.3,19.4-16.9,28.1c-6.8,8.7-14.3,16.8-22,24.7  c-3.6,3.6-7.2,7.2-10.8,10.8c9.6,6.4,19.7,12,30.3,16.7C120.7,381.7,122.1,380.3,123.5,378.9z" style="fill:#3500EC;"/><path d="M348.3,288.6c-13-4.9-28-10.4-43.1-12.7c-3.4-0.4-6.8-0.6-10-0.6c-2.6,0-5.1,0.1-7.5,0.4  c-3.2,0.6-6.3,1.4-9.1,2.4c-1.7,0.8-3.3,1.7-4.8,2.7c-1.1,0.9-2.1,1.9-3,3c-1,1.5-1.9,3-2.7,4.7c-1.6,4.3-2.7,9-3.6,15.4  c-0.3,2.3-0.6,4.7-0.8,7c-1.3,11.5-2.7,23.4-6.9,34.8c-2.8,7.5-5.8,13.9-9.2,19.6c-3.3,5.5-7.3,11.1-12.6,17.5  c-4.6,5.6-10,11-16.2,16.4c12.5-1.2,24.7-3.5,36.4-6.8l1.1-3.4c0.5-1.4,1.1-2.7,1.9-4l0.1-0.2c1.1-1.6,2.5-3.5,3.8-5.4  c3.5-5,7.4-11,10.4-17.6c1.1-2.9,1.9-5.7,2.4-8.4l0-0.1c0.2-3,0-6.1-0.3-9.4l-0.1-1.1c-0.1-1.9-0.3-4-0.3-6.2  c0-3.3,0.4-6.9,1.2-10.7c0.2-1.1,0.5-2.3,0.9-3.3c0.7-1.9,1.5-3.7,2.3-5.5c0.2-0.5,0.5-1,0.8-1.5c1.1-1.9,2.4-3.7,3.7-5.2  c0.2-0.3,0.5-0.6,0.7-0.9c0.7-0.8,1.4-1.6,2.1-2.3c0.4-0.4,0.8-0.7,1.2-1c1.4-1.1,2.9-2.3,4.4-3.4c0.8-0.6,1.7-1.1,2.6-1.6  c1.8-1,3.7-1.8,5.5-2.5c0.4-0.2,0.7-0.3,1.1-0.4c1-0.4,1.9-0.7,2.8-1c3.4-1,6.8-1.4,10.1-1.7c1-0.1,2-0.1,3.1-0.1  c1.3,0,2.7,0.1,4.1,0.2c3,0.3,7,0.8,11.1,1.8c1.9,0.5,4,1,6.6,1.8c7.8,2.5,15.9,5.4,24.1,8.7c1.3,0.5,2.6,1,3.8,1.6l0.9,0.4  c2.4-3.6,4.7-7.4,6.8-11.2C366.3,295.5,357.3,292,348.3,288.6z" style="fill:#FF7C00;"/><path d="M377.9,219.3c-11.6-0.3-24-0.6-36.2-1.3c-11.7-0.6-25.6-1.8-39.1-5.4c-19.9-5.3-39.1-15.7-58.6-31.9  c-24.8-20.5-43.3-46.9-61.3-72.5c-6.9-9.8-13.9-19.8-21.2-29.4c-7.6-9.7-17.9-22.2-30.3-32.2c-5.5-4.1-11.3-7.5-17.3-10.2  c-4.7-1.8-9.7-3.4-15.3-4.8l-4.9-1.2C85.1,36,76.9,42.1,69.2,48.7c10.2,6.5,20.3,13.7,30.9,22.2c11.8,9.4,22.9,19.8,33.1,30.8  c12.8,13.9,22.8,26.8,30.4,39.6c9.4,15.7,15.8,32.3,18.9,49.4c2.9,15.9,4,32.7,3.6,54.7c-0.3,17.5-1.3,36.1-6.1,54.4  c-4.1,15.5-11.2,30.7-21.2,45.1c-8.4,12.2-18.5,24.1-31.7,37.5c-0.9,0.9-1.8,1.8-2.7,2.8c6.5,2.7,13.3,5,20.1,7l7.4-2.4  c1.5-0.5,3.1-1.1,4.7-1.7c9.5-4.2,19-9.9,28.2-16.8c7.6-6.1,14.3-12.6,19.9-19.6c4.1-5.6,7.6-11.4,10.2-17.3c2.3-6,4-12.4,5.1-19.8  c0.3-2.4,0.6-4.8,0.8-7.1l0-0.1c0.7-6.4,1.5-13.1,2.7-19.7c2.2-11.3,6-20.7,11.4-28.1c6.5-8.8,13.7-15.1,22-19.2  c4.7-2.3,9.3-4.1,13.6-5.4c5-1.4,10.2-2.1,14.4-2.6c3.3-0.4,6.8-0.6,10.3-0.6c3.6,0,7.3,0.2,11,0.6c9.2,1,17.9,2.7,26.8,5.2  c15.5,4.3,30.6,10.3,45.2,16.1c2.3,0.9,4.7,1.9,7,2.8l5.9,2.3c3.9-12.6,6.6-25.8,7.9-39.3C391.9,219.6,384.8,219.5,377.9,219.3z" style="fill:#FF7C00;"/><path d="M160,14.6c9.3,7.3,18,16.3,28.5,29.1c10.6,13,20.3,26.8,29.7,40.1c6.9,9.8,14.1,19.9,21.4,29.6  c12.6,16.1,24.8,28.7,37.3,38.6c8.2,6.2,16.7,11.2,25.2,15c7.5,3,15.7,5.1,24.4,6.5c8.6,1,17.3,1.4,26.2,1.8  c15.2,0.6,30.6,1,45.9,1.2c-0.9-7.6-2.2-15-3.9-22.4l-2-0.3c-14.9-1.9-27.8-4.8-39.4-8.9c-14.6-5.1-27.6-11.4-38.7-18.7  c-13-8.7-24-18.5-32.7-29.3c-5-6.1-9.9-12.9-16.1-22l-0.8-1.2c-3.5-5.1-7.1-10.5-10.8-15.5c-7-8.7-14.9-16.7-23.7-23.7  c-9.1-6.8-19-12.6-29.3-17.1l-0.1,0c-3.5-1-6.6-2.9-9.2-5.5l-0.1-0.1l-0.3-0.4l-2.8-3.7l-0.1-0.1c-1.2-1.9-2.1-4.1-2.6-6.5l-0.1-0.7  c-12.6,0.9-24.9,2.9-36.8,6.1C153.2,9.3,157,12.2,160,14.6z" style="fill:#FF7C00;"/><path d="M317.1,362.1c7.4-5.3,14.4-11.2,21-17.5c-2.5-0.9-5.1-1.8-7.5-2.6c-4.3-1.4-8.1-2.7-12-3.4  c-0.3,0-0.7,0-1-0.1c0.1,1.5,0.2,3.1,0.3,4.7c0.1,1.4,0.2,2.8,0.3,4.2c0.1,2.6,0.1,5.1-0.1,7.4C317.8,357.6,317.5,359.9,317.1,362.1  z" style="fill:#FF7C00;"/><path d="M281.2,23.2c7.1,8.2,13.3,17,17.9,23.7c0.8,1.2,1.7,2.5,2.5,3.7l0.1,0.1c3.5,5.1,7.1,10.5,10.8,15.5  c5.7,7.1,12.1,13.5,19,19.1c8,6,17,11.1,26.6,15.4c2.3,0.9,4.7,1.8,7,2.7c3.9,1.3,7.9,2.6,11.9,3.7c-22.5-42.7-59.9-76.2-105.3-93.7  C275,16.4,278.2,19.8,281.2,23.2z" style="fill:#FF7C00;"/><path d="M85.5,362.8c4.4-4.3,7.7-7.6,10.7-10.7c8.8-8.9,15.7-16.6,21.6-24.2c6.9-9.2,12.2-18,16.2-27  c3.2-8.1,5.5-16.8,7-26.6c1.4-11.6,1.7-23.3,1.8-34.1c0.1-13.5-0.3-24.4-1.5-34.2c-1.5-10.2-4-19.7-7.4-28.2  c-4.4-9.8-10.2-19.6-17.9-29.7c-13.5-17.2-29.6-33.1-47.9-47.5c-4-3-7.9-5.9-11.7-8.5c-5.4-3.7-11-7.2-16.6-10.6l-0.5-0.3  c-5.6,7.6-10.7,15.6-15.2,24c12.2,5.4,27.9,13,42.1,23.7c10.3,7.7,18,14.8,24.1,22.2c4.5,5.4,7.9,10.1,10.8,14.7  c2.6,4.1,4.9,8.7,7.3,14.4c2.5,6,4.1,10.7,5.2,15.5c1.5,6.6,2.2,13.1,2.3,19.4c0.1,6.1-0.6,12.7-2,20.8c-0.9,5.3-2.3,10.6-4.2,16.4  c-3.3,10.3-7.8,20.8-13.1,31.4c-4.4,8.6-9.4,16.9-15,24.8c-7.9,11.1-16.4,21.3-25.5,30.2l-0.1,0.1c8.8,9.2,18.6,17.6,29,25  L85.5,362.8z" style="fill:#FF7C00;"/><path d="M41.2,289.9c1.7-2.3,3.4-4.6,5-6.9c6.8-9.9,12.6-20.5,17.4-31.5c4.2-10.3,6.9-19.4,8.3-27.9  c0.5-4.9,0.6-9.6,0.1-14.1c-0.7-4.3-1.9-8.5-3.5-12.7c-2.4-5.2-5.4-10.3-9-15.1c-4.6-5.7-10.1-11.1-16.1-16  c-3.1-2.4-6.4-4.6-9.7-6.7c-7.4-4.7-15.7-9.1-26-13.9c-2,6.9-3.6,14-4.8,21.3l1.3,0.6c1.4,0.6,2.6,1.2,3.7,1.7  c6.2,3.1,11.6,7.3,15.5,10.6c5,4.1,9.4,9,13.2,14.6c0.8,1.2,1.5,2.4,2.1,3.6c1.3,2.6,2.4,5.2,3.3,7.8c0.5,1.4,0.8,2.8,1.1,4.3  c0.1,0.7,0.3,1.5,0.4,2.2l0.1,0.5c0.3,1.9,0.6,3.9,0.8,5.8c0.7,6.7-0.2,13.2-1.1,19.3c-0.7,4.6-1.9,9.1-3.5,13.5  c-1.3,3.4-2.7,6.9-4.4,10.4c-1,2.1-2.1,4.1-3.3,6.1c-1.2,2-2.5,4-3.9,5.8c-2.5,3.3-4.6,6-6.9,8.7c-0.3,0.3-0.6,0.7-0.9,1l-1.6,1.7  c3.1,6.7,6.6,13.2,10.4,19.4C33.3,299.5,37.4,294.8,41.2,289.9z" style="fill:#FF7C00;"/><path d="M1,219.7c0,0.5,0.1,1,0.2,1.5c0-0.4,0-0.7,0-1.1C1,220,1,219.9,1,219.7z" style="fill:#FF7C00;"/></svg>