<svg id="Layer_1" style="enable-background:new 0 0 500 500;" version="1.1" viewBox="0 0 500 500" x="0px" xml:space="preserve" xmlns="http://www.w3.org/2000/svg" xmlns:xlink="http://www.w3.org/1999/xlink" y="0px"><path d="M157.582,259.971c1.616-0.173,2.862-0.478,3.585-0.478c1.039,0.001,0.997,0.634,0.92,1.556   c-0.076,0.922-0.186,2.132-0.089,3.874c0.097,1.742,0.399,4.016,0.703,5.18c0.304,1.164,0.609,1.219,0.893,1.174   c0.284-0.045,0.546-0.191,0.763-0.339c0.217-0.149,0.389-0.301,0.461-1.749c0.073-1.448,0.047-4.192,0.389-6.42   c0.342-2.227,1.053-3.938,1.318-5.777c0.265-1.84,0.083-3.808-0.017-5.524c-0.101-1.716-0.12-3.18,0.156-4.535   c0.277-1.355,0.849-2.601,1.332-4.033c0.483-1.432,0.875-3.049,0.692-3.111c-0.183-0.062-0.942,1.432-1.967,2.616   c-1.025,1.185-2.317,2.06-3.113,3.417c-0.797,1.357-1.098,3.196-1.611,3.995c-0.512,0.798-1.236,0.556-1.931-0.084   c-0.696-0.641-1.364-1.68-5.063-2.015c-3.699-0.336-10.428,0.032-13.916,0.316c-3.488,0.283-3.734,0.482-3.596,0.975   c0.138,0.492,0.66,1.277,2.105,2.929c1.445,1.652,3.813,4.17,6.682,5.784c1.063,0.598,2.194,1.072,3.337,1.433   c-5.988,8.518-8.711,10.518-10.268,11.545c-1.676,1.106-2,1.084-2.286,1.307c-0.286,0.223-0.533,0.69-0.619,1.024   c-0.086,0.334-0.012,0.534,1.328,0.532c1.34-0.002,3.947-0.206,8.274-2.829C149.724,268.503,154.65,264.522,157.582,259.971z" style="fill:#0044B2;"/></svg>