<svg id="Layer_1" style="enable-background:new 0 0 500 500;" version="1.1" viewBox="0 0 500 500" x="0px" xml:space="preserve" xmlns="http://www.w3.org/2000/svg" xmlns:xlink="http://www.w3.org/1999/xlink" y="0px"><path d="M353.03,219.675c0.956-0.259,4.236,0.584,7.237,1.308c3.001,0.723,5.723,1.327,7.41,1.235   c1.688-0.092,2.341-0.881,4.331-2.183c1.99-1.302,5.318-3.116,6.051-4.356c0.733-1.24-1.128-1.905-2.864-2.531   c-1.737-0.626-3.349-1.212-6.486-2.14c-3.136-0.927-7.796-2.194-11.455-2.485s-6.314,0.394-7.799,0.596   c-1.485,0.201-1.797-0.081-2.156-0.833c-0.359-0.751-0.763-1.972-1.236-3.358c-0.473-1.386-1.014-2.938-1.539-5.065   c-0.525-2.127-1.035-4.828-1.25-7.463c-0.215-2.635-0.136-5.202-0.323-7.184c-0.187-1.981-0.64-3.376-1.33-3.39   c-0.69-0.013-1.615,1.356-2.321,4.312c-0.706,2.956-1.191,7.499-1.16,11.399c0.031,3.899,0.578,7.154,1.209,9.189   c0.631,2.035,1.345,2.851,0.771,2.201c-0.574-0.65-2.435-2.765-4.497-4.313c-2.062-1.548-4.326-2.529-5.711-3.246   c-1.384-0.717-1.889-1.169-2.241-1.238c-0.351-0.07-0.548,0.243-0.726,0.494c-0.178,0.251-0.338,0.439,0.324,1.083   c0.662,0.644,2.146,1.742,3.415,2.967c1.269,1.225,2.323,2.576,4.366,5.141c2.043,2.566,5.075,6.346,7.248,8.333   c2.173,1.986,3.487,2.178,4.898,3.247c1.411,1.069,2.919,3.015,4.229,4.797c1.309,1.782,2.419,3.401,2.835,3.71   c0.416,0.309,0.137-0.691-0.061-1.493c-0.198-0.802-0.316-1.405-0.176-1.836c0.139-0.431,0.536-0.69,0.711-1.314   c0.174-0.624,0.126-1.614-0.583-2.789C353.443,221.294,352.074,219.933,353.03,219.675z" style="fill:#0066FF;"/><path d="M240.739,370.17c-0.397,0.907-3.109,2.935-5.553,4.821c-2.444,1.886-4.62,3.629-5.605,5.002   c-0.985,1.373-0.78,2.376-1.012,4.743c-0.232,2.367-0.903,6.097-0.396,7.446c0.507,1.348,2.191,0.315,3.767-0.647   c1.576-0.962,3.043-1.851,5.731-3.715s6.595-4.702,9.113-7.371c2.519-2.669,3.649-5.169,4.422-6.452   c0.773-1.283,1.189-1.35,2-1.159c0.81,0.191,2.015,0.64,3.392,1.14c1.377,0.5,2.925,1.05,4.912,1.973   c1.987,0.923,4.412,2.218,6.6,3.701c2.188,1.483,4.14,3.154,5.802,4.249c1.661,1.096,3.033,1.616,3.475,1.087   c0.442-0.529-0.045-2.108-1.906-4.51c-1.862-2.402-5.099-5.627-8.157-8.046c-3.059-2.419-5.938-4.031-7.92-4.814   c-1.982-0.783-3.065-0.738-2.199-0.778c0.866-0.04,3.68-0.166,6.179-0.803s4.682-1.788,6.108-2.418   c1.426-0.63,2.094-0.741,2.369-0.971c0.274-0.23,0.154-0.579,0.07-0.875c-0.084-0.296-0.131-0.539-1.047-0.426   c-0.916,0.113-2.702,0.581-4.452,0.803c-1.75,0.222-3.463,0.197-6.743,0.182c-3.28-0.015-8.126-0.02-11.036,0.429   c-2.91,0.449-3.882,1.353-5.6,1.783c-1.717,0.43-4.179,0.387-6.388,0.291c-2.209-0.096-4.166-0.245-4.668-0.114   c-0.501,0.13,0.453,0.54,1.202,0.888c0.749,0.348,1.293,0.634,1.542,1.013c0.249,0.379,0.202,0.85,0.579,1.377   c0.377,0.527,1.179,1.109,2.539,1.293C239.218,369.477,241.136,369.263,240.739,370.17z" style="fill:#0066FF;"/></svg>