<svg height="18in" id="Layer_1" version="1.1" width="32in" x="0px" xml:space="preserve" xmlns="http://www.w3.org/2000/svg" xmlns:xlink="http://www.w3.org/1999/xlink" y="0px"><g transform="translate(86.49493716447114 108.86793716447113) rotate(-45 246.1015 223.7285)"><path d="M413.742,213.578c-12.078,2.809-19.752,2.401-26.702,0.853  c-16.526-3.682-28.959-13.815-54.917-10.064c-24.98,3.609-62.484,20.077-187.631,190.59c0.219,0.101,0.438,0.202,0.657,0.303  c1.661,0.714,3.318,1.425,4.974,2.137c1.679,0.669,3.355,1.338,5.029,2.006c1.695,0.625,3.388,1.25,5.078,1.873  c1.711,0.581,3.42,1.162,5.127,1.74c1.725,0.536,3.448,1.071,5.169,1.606c1.739,0.49,3.477,0.98,5.211,1.469  c1.752,0.445,3.5,0.89,5.247,1.334c1.76,0.398,3.52,0.796,5.28,1.195c1.771,0.352,3.541,0.704,5.309,1.056  c1.78,0.306,3.558,0.611,5.335,0.917c1.788,0.258,3.574,0.518,5.359,0.777c1.793,0.212,3.585,0.424,5.377,0.636  c1.797,0.166,3.593,0.33,5.391,0.495c1.694,0.112,3.386,0.223,5.081,0.333c0.107,0.007,0.215,0.014,0.322,0.021  c1.197,0.047,2.395,0.094,3.593,0.141c0-17.934,0-35.868,0-53.803c4.819,0,9.637,0,14.456,0c0,17.934,0,35.869,0,53.803  c1.197-0.047,2.394-0.094,3.592-0.141c0.107-0.007,0.215-0.014,0.322-0.021c1.694-0.11,3.388-0.221,5.081-0.333  c1.797-0.166,3.593-0.33,5.391-0.496c1.792-0.212,3.583-0.423,5.375-0.636c1.785-0.259,3.572-0.519,5.359-0.777  c1.778-0.306,3.556-0.61,5.335-0.917c1.767-0.351,3.537-0.704,5.31-1.056c1.759-0.398,3.519-0.797,5.28-1.195  c1.747-0.443,3.495-0.888,5.247-1.333c1.734-0.489,3.471-0.979,5.209-1.47c1.721-0.534,3.444-1.07,5.171-1.605  c1.707-0.58,3.416-1.16,5.127-1.741c1.689-0.622,3.382-1.247,5.077-1.873c1.674-0.668,3.35-1.336,5.029-2.006  c1.656-0.711,3.313-1.422,4.973-2.137c1.636-0.754,3.275-1.51,4.918-2.267c1.615-0.795,3.232-1.593,4.854-2.394  c1.06-0.557,2.121-1.115,3.183-1.674c-8.399-14.548-16.87-29.22-25.413-44.016c-0.496-0.859-0.992-1.718-1.488-2.577  c0.859-0.496,1.718-0.992,2.577-1.488c2.448-1.414,4.904-2.832,7.366-4.253c0.859-0.496,1.718-0.992,2.578-1.488  c0.496,0.859,0.992,1.718,1.488,2.577c8.543,14.796,17.014,29.469,25.413,44.016c1.013-0.639,2.026-1.278,3.041-1.919  c1.499-1.002,2.999-2.004,4.501-3.009c1.471-1.039,2.943-2.08,4.42-3.124c1.445-1.079,2.891-2.158,4.338-3.239  c1.415-1.115,2.833-2.232,4.252-3.351c1.385-1.151,2.772-2.305,4.162-3.462c1.354-1.187,2.71-2.376,4.07-3.568  c1.322-1.223,2.647-2.449,3.976-3.676c1.291-1.256,2.581-2.515,3.877-3.777c1.257-1.29,2.516-2.583,3.777-3.877  c1.223-1.325,2.448-2.65,3.674-3.976c1.188-1.355,2.378-2.711,3.57-4.07c1.152-1.386,2.306-2.773,3.461-4.162  c1.116-1.416,2.234-2.833,3.352-4.251c1.078-1.445,2.158-2.89,3.239-4.338c1.04-1.472,2.082-2.945,3.124-4.42  c1.001-1.5,2.004-3,3.007-4.502c0.64-1.014,1.279-2.028,1.919-3.042c-14.46-8.349-29.131-16.818-44.016-25.412  c-0.859-0.496-1.718-0.992-2.577-1.488c0.496-0.859,0.992-1.718,1.487-2.577c1.415-2.452,2.832-4.908,4.253-7.366  c0.496-0.859,0.992-1.718,1.488-2.577c0.859,0.496,1.718,0.992,2.577,1.488c14.884,8.593,29.554,17.064,44.016,25.413  c0.558-1.06,1.116-2.121,1.674-3.183c0.798-1.618,1.596-3.237,2.395-4.856c0.755-1.638,1.511-3.276,2.266-4.915  c0.712-1.658,1.425-3.316,2.138-4.975c0.668-1.674,1.337-3.35,2.006-5.028c0.624-1.693,1.249-3.386,1.873-5.079  c0.581-1.708,1.16-3.417,1.741-5.127c0.535-1.724,1.07-3.446,1.605-5.17c0.49-1.736,0.98-3.473,1.47-5.21  c0.444-1.75,0.888-3.499,1.332-5.247c0.399-1.759,0.796-3.519,1.195-5.28c0.353-1.769,0.704-3.539,1.057-5.31  c0.306-1.778,0.611-3.556,0.916-5.334c0.259-1.787,0.518-3.573,0.777-5.359c0.213-1.792,0.425-3.584,0.637-5.375  c0.166-1.796,0.33-3.593,0.496-5.391c0.117-1.8,0.236-3.601,0.354-5.401c0.047-1.199,0.094-2.398,0.141-3.595  C428.516,213.578,421.129,213.578,413.742,213.578z" style="fill:none;stroke:red;stroke-width:0.0001px"/><path d="M413.742,213.578c-12.078,2.809-19.752,2.401-26.702,0.853  c-16.526-3.682-28.959-13.815-54.917-10.064c-24.98,3.609-62.484,20.077-187.631,190.59c0.219,0.101,0.438,0.202,0.657,0.303  c1.661,0.714,3.318,1.425,4.974,2.137c1.679,0.669,3.355,1.338,5.029,2.006c1.695,0.625,3.388,1.25,5.078,1.873  c1.711,0.581,3.42,1.162,5.127,1.74c1.725,0.536,3.448,1.071,5.169,1.606c1.739,0.49,3.477,0.98,5.211,1.469  c1.752,0.445,3.5,0.89,5.247,1.334c1.76,0.398,3.52,0.796,5.28,1.195c1.771,0.352,3.541,0.704,5.309,1.056  c1.78,0.306,3.558,0.611,5.335,0.917c1.788,0.258,3.574,0.518,5.359,0.777c1.793,0.212,3.585,0.424,5.377,0.636  c1.797,0.166,3.593,0.33,5.391,0.495c1.694,0.112,3.386,0.223,5.081,0.333c0.107,0.007,0.215,0.014,0.322,0.021  c1.197,0.047,2.395,0.094,3.593,0.141c0-17.934,0-35.868,0-53.803c4.819,0,9.637,0,14.456,0c0,17.934,0,35.869,0,53.803  c1.197-0.047,2.394-0.094,3.592-0.141c0.107-0.007,0.215-0.014,0.322-0.021c1.694-0.11,3.388-0.221,5.081-0.333  c1.797-0.166,3.593-0.33,5.391-0.496c1.792-0.212,3.583-0.423,5.375-0.636c1.785-0.259,3.572-0.519,5.359-0.777  c1.778-0.306,3.556-0.61,5.335-0.917c1.767-0.351,3.537-0.704,5.31-1.056c1.759-0.398,3.519-0.797,5.28-1.195  c1.747-0.443,3.495-0.888,5.247-1.333c1.734-0.489,3.471-0.979,5.209-1.47c1.721-0.534,3.444-1.07,5.171-1.605  c1.707-0.58,3.416-1.16,5.127-1.741c1.689-0.622,3.382-1.247,5.077-1.873c1.674-0.668,3.35-1.336,5.029-2.006  c1.656-0.711,3.313-1.422,4.973-2.137c1.636-0.754,3.275-1.51,4.918-2.267c1.615-0.795,3.232-1.593,4.854-2.394  c1.06-0.557,2.121-1.115,3.183-1.674c-8.399-14.548-16.87-29.22-25.413-44.016c-0.496-0.859-0.992-1.718-1.488-2.577  c0.859-0.496,1.718-0.992,2.577-1.488c2.448-1.414,4.904-2.832,7.366-4.253c0.859-0.496,1.718-0.992,2.578-1.488  c0.496,0.859,0.992,1.718,1.488,2.577c8.543,14.796,17.014,29.469,25.413,44.016c1.013-0.639,2.026-1.278,3.041-1.919  c1.499-1.002,2.999-2.004,4.501-3.009c1.471-1.039,2.943-2.08,4.42-3.124c1.445-1.079,2.891-2.158,4.338-3.239  c1.415-1.115,2.833-2.232,4.252-3.351c1.385-1.151,2.772-2.305,4.162-3.462c1.354-1.187,2.71-2.376,4.07-3.568  c1.322-1.223,2.647-2.449,3.976-3.676c1.291-1.256,2.581-2.515,3.877-3.777c1.257-1.29,2.516-2.583,3.777-3.877  c1.223-1.325,2.448-2.65,3.674-3.976c1.188-1.355,2.378-2.711,3.57-4.07c1.152-1.386,2.306-2.773,3.461-4.162  c1.116-1.416,2.234-2.833,3.352-4.251c1.078-1.445,2.158-2.89,3.239-4.338c1.04-1.472,2.082-2.945,3.124-4.42  c1.001-1.5,2.004-3,3.007-4.502c0.64-1.014,1.279-2.028,1.919-3.042c-14.46-8.349-29.131-16.818-44.016-25.412  c-0.859-0.496-1.718-0.992-2.577-1.488c0.496-0.859,0.992-1.718,1.487-2.577c1.415-2.452,2.832-4.908,4.253-7.366  c0.496-0.859,0.992-1.718,1.488-2.577c0.859,0.496,1.718,0.992,2.577,1.488c14.884,8.593,29.554,17.064,44.016,25.413  c0.558-1.06,1.116-2.121,1.674-3.183c0.798-1.618,1.596-3.237,2.395-4.856c0.755-1.638,1.511-3.276,2.266-4.915  c0.712-1.658,1.425-3.316,2.138-4.975c0.668-1.674,1.337-3.35,2.006-5.028c0.624-1.693,1.249-3.386,1.873-5.079  c0.581-1.708,1.16-3.417,1.741-5.127c0.535-1.724,1.07-3.446,1.605-5.17c0.49-1.736,0.98-3.473,1.47-5.21  c0.444-1.75,0.888-3.499,1.332-5.247c0.399-1.759,0.796-3.519,1.195-5.28c0.353-1.769,0.704-3.539,1.057-5.31  c0.306-1.778,0.611-3.556,0.916-5.334c0.259-1.787,0.518-3.573,0.777-5.359c0.213-1.792,0.425-3.584,0.637-5.375  c0.166-1.796,0.33-3.593,0.496-5.391c0.117-1.8,0.236-3.601,0.354-5.401c0.047-1.199,0.094-2.398,0.141-3.595  C428.516,213.578,421.129,213.578,413.742,213.578z" style="fill:none;stroke:red;stroke-width:0.0001px"/><path d="M413.742,213.578c-12.078,2.809-19.752,2.401-26.702,0.853  c-16.526-3.682-28.959-13.815-54.917-10.064c-24.98,3.609-62.484,20.077-187.631,190.59c0.219,0.101,0.438,0.202,0.657,0.303  c1.661,0.714,3.318,1.425,4.974,2.137c1.679,0.669,3.355,1.338,5.029,2.006c1.695,0.625,3.388,1.25,5.078,1.873  c1.711,0.581,3.42,1.162,5.127,1.74c1.725,0.536,3.448,1.071,5.169,1.606c1.739,0.49,3.477,0.98,5.211,1.469  c1.752,0.445,3.5,0.89,5.247,1.334c1.76,0.398,3.52,0.796,5.28,1.195c1.771,0.352,3.541,0.704,5.309,1.056  c1.78,0.306,3.558,0.611,5.335,0.917c1.788,0.258,3.574,0.518,5.359,0.777c1.793,0.212,3.585,0.424,5.377,0.636  c1.797,0.166,3.593,0.33,5.391,0.495c1.694,0.112,3.386,0.223,5.081,0.333c0.107,0.007,0.215,0.014,0.322,0.021  c1.197,0.047,2.395,0.094,3.593,0.141c0-17.934,0-35.868,0-53.803c4.819,0,9.637,0,14.456,0c0,17.934,0,35.869,0,53.803  c1.197-0.047,2.394-0.094,3.592-0.141c0.107-0.007,0.215-0.014,0.322-0.021c1.694-0.11,3.388-0.221,5.081-0.333  c1.797-0.166,3.593-0.33,5.391-0.496c1.792-0.212,3.583-0.423,5.375-0.636c1.785-0.259,3.572-0.519,5.359-0.777  c1.778-0.306,3.556-0.61,5.335-0.917c1.767-0.351,3.537-0.704,5.31-1.056c1.759-0.398,3.519-0.797,5.28-1.195  c1.747-0.443,3.495-0.888,5.247-1.333c1.734-0.489,3.471-0.979,5.209-1.47c1.721-0.534,3.444-1.07,5.171-1.605  c1.707-0.58,3.416-1.16,5.127-1.741c1.689-0.622,3.382-1.247,5.077-1.873c1.674-0.668,3.35-1.336,5.029-2.006  c1.656-0.711,3.313-1.422,4.973-2.137c1.636-0.754,3.275-1.51,4.918-2.267c1.615-0.795,3.232-1.593,4.854-2.394  c1.06-0.557,2.121-1.115,3.183-1.674c-8.399-14.548-16.87-29.22-25.413-44.016c-0.496-0.859-0.992-1.718-1.488-2.577  c0.859-0.496,1.718-0.992,2.577-1.488c2.448-1.414,4.904-2.832,7.366-4.253c0.859-0.496,1.718-0.992,2.578-1.488  c0.496,0.859,0.992,1.718,1.488,2.577c8.543,14.796,17.014,29.469,25.413,44.016c1.013-0.639,2.026-1.278,3.041-1.919  c1.499-1.002,2.999-2.004,4.501-3.009c1.471-1.039,2.943-2.08,4.42-3.124c1.445-1.079,2.891-2.158,4.338-3.239  c1.415-1.115,2.833-2.232,4.252-3.351c1.385-1.151,2.772-2.305,4.162-3.462c1.354-1.187,2.71-2.376,4.07-3.568  c1.322-1.223,2.647-2.449,3.976-3.676c1.291-1.256,2.581-2.515,3.877-3.777c1.257-1.29,2.516-2.583,3.777-3.877  c1.223-1.325,2.448-2.65,3.674-3.976c1.188-1.355,2.378-2.711,3.57-4.07c1.152-1.386,2.306-2.773,3.461-4.162  c1.116-1.416,2.234-2.833,3.352-4.251c1.078-1.445,2.158-2.89,3.239-4.338c1.04-1.472,2.082-2.945,3.124-4.42  c1.001-1.5,2.004-3,3.007-4.502c0.64-1.014,1.279-2.028,1.919-3.042c-14.46-8.349-29.131-16.818-44.016-25.412  c-0.859-0.496-1.718-0.992-2.577-1.488c0.496-0.859,0.992-1.718,1.487-2.577c1.415-2.452,2.832-4.908,4.253-7.366  c0.496-0.859,0.992-1.718,1.488-2.577c0.859,0.496,1.718,0.992,2.577,1.488c14.884,8.593,29.554,17.064,44.016,25.413  c0.558-1.06,1.116-2.121,1.674-3.183c0.798-1.618,1.596-3.237,2.395-4.856c0.755-1.638,1.511-3.276,2.266-4.915  c0.712-1.658,1.425-3.316,2.138-4.975c0.668-1.674,1.337-3.35,2.006-5.028c0.624-1.693,1.249-3.386,1.873-5.079  c0.581-1.708,1.16-3.417,1.741-5.127c0.535-1.724,1.07-3.446,1.605-5.17c0.49-1.736,0.98-3.473,1.47-5.21  c0.444-1.75,0.888-3.499,1.332-5.247c0.399-1.759,0.796-3.519,1.195-5.28c0.353-1.769,0.704-3.539,1.057-5.31  c0.306-1.778,0.611-3.556,0.916-5.334c0.259-1.787,0.518-3.573,0.777-5.359c0.213-1.792,0.425-3.584,0.637-5.375  c0.166-1.796,0.33-3.593,0.496-5.391c0.117-1.8,0.236-3.601,0.354-5.401c0.047-1.199,0.094-2.398,0.141-3.595  C428.516,213.578,421.129,213.578,413.742,213.578z" style="fill:none;stroke:red;stroke-width:0.0001px"/></g></svg>