<svg height="18in" id="Layer_1" version="1.1" width="32in" x="0px" xml:space="preserve" xmlns="http://www.w3.org/2000/svg" xmlns:xlink="http://www.w3.org/1999/xlink" y="0px"><g transform="translate(86.49493716447114 108.86793716447113) rotate(-45 246.1015 223.7285)"><path d="M141.734,393.685c3.223-4.393,6.456-8.777,9.702-13.153c7.428-10.015,14.918-19.983,22.489-29.89  c6.746-8.827,13.556-17.606,20.448-26.319c3.413-4.315,6.847-8.614,10.305-12.894c-89.557-62.387-100.558-66.857-113.626-67.381  c-10.011-0.401-21.236,1.514-59.337,23.379c0.292,0.941,0.584,1.883,0.876,2.823c0.58,1.708,1.16,3.418,1.74,5.127  c0.624,1.692,1.249,3.384,1.873,5.078c0.67,1.676,1.338,3.352,2.007,5.028c0.712,1.658,1.424,3.316,2.136,4.973  c0.756,1.64,1.512,3.279,2.266,4.917c0.798,1.618,1.597,3.237,2.395,4.855c0.559,1.062,1.117,2.123,1.675,3.183  c14.42-8.325,29.09-16.795,44.017-25.413c0.859-0.496,1.719-0.992,2.578-1.489c0.496,0.859,0.992,1.719,1.488,2.578  c1.418,2.456,2.836,4.911,4.252,7.365c0.496,0.859,0.992,1.718,1.488,2.578c-0.859,0.496-1.718,0.992-2.578,1.488  c-14.928,8.618-29.598,17.088-44.016,25.412c0.64,1.014,1.279,2.028,1.919,3.041c1.003,1.502,2.006,3.003,3.008,4.502  c1.042,1.474,2.083,2.948,3.124,4.42c1.082,1.448,2.161,2.894,3.24,4.338c1.117,1.417,2.235,2.834,3.351,4.252  c1.155,1.387,2.309,2.775,3.462,4.162c1.19,1.356,2.38,2.713,3.569,4.069c1.226,1.327,2.451,2.652,3.674,3.976  c1.26,1.294,2.52,2.586,3.778,3.877c1.294,1.262,2.586,2.52,3.877,3.777c1.328,1.227,2.653,2.454,3.975,3.676  c1.358,1.191,2.715,2.381,4.07,3.57c1.389,1.155,2.777,2.309,4.162,3.461c1.419,1.118,2.837,2.236,4.252,3.352  c1.449,1.082,2.895,2.161,4.338,3.238c1.475,1.044,2.949,2.085,4.421,3.125c1.501,1.004,3.002,2.005,4.501,3.008  c1.014,0.64,2.029,1.28,3.042,1.919c8.376-14.508,16.848-29.18,25.414-44.017c0.496-0.859,0.992-1.718,1.488-2.577  c0.859,0.496,1.718,0.991,2.577,1.487c2.462,1.42,4.916,2.839,7.365,4.252c0.859,0.496,1.718,0.992,2.577,1.488  c-0.496,0.859-0.992,1.718-1.488,2.578c-8.565,14.835-17.037,29.509-25.413,44.016c1.062,0.559,2.123,1.117,3.183,1.674  c1.621,0.8,3.239,1.598,4.855,2.394C140.734,393.224,141.234,393.455,141.734,393.685z" style="fill:none;stroke:red;stroke-width:0.0001px"/><path d="M141.734,393.685c3.223-4.393,6.456-8.777,9.702-13.153c7.428-10.015,14.918-19.983,22.489-29.89  c6.746-8.827,13.556-17.606,20.448-26.319c3.413-4.315,6.847-8.614,10.305-12.894c-89.557-62.387-100.558-66.857-113.626-67.381  c-10.011-0.401-21.236,1.514-59.337,23.379c0.292,0.941,0.584,1.883,0.876,2.823c0.58,1.708,1.16,3.418,1.74,5.127  c0.624,1.692,1.249,3.384,1.873,5.078c0.67,1.676,1.338,3.352,2.007,5.028c0.712,1.658,1.424,3.316,2.136,4.973  c0.756,1.64,1.512,3.279,2.266,4.917c0.798,1.618,1.597,3.237,2.395,4.855c0.559,1.062,1.117,2.123,1.675,3.183  c14.42-8.325,29.09-16.795,44.017-25.413c0.859-0.496,1.719-0.992,2.578-1.489c0.496,0.859,0.992,1.719,1.488,2.578  c1.418,2.456,2.836,4.911,4.252,7.365c0.496,0.859,0.992,1.718,1.488,2.578c-0.859,0.496-1.718,0.992-2.578,1.488  c-14.928,8.618-29.598,17.088-44.016,25.412c0.64,1.014,1.279,2.028,1.919,3.041c1.003,1.502,2.006,3.003,3.008,4.502  c1.042,1.474,2.083,2.948,3.124,4.42c1.082,1.448,2.161,2.894,3.24,4.338c1.117,1.417,2.235,2.834,3.351,4.252  c1.155,1.387,2.309,2.775,3.462,4.162c1.19,1.356,2.38,2.713,3.569,4.069c1.226,1.327,2.451,2.652,3.674,3.976  c1.26,1.294,2.52,2.586,3.778,3.877c1.294,1.262,2.586,2.52,3.877,3.777c1.328,1.227,2.653,2.454,3.975,3.676  c1.358,1.191,2.715,2.381,4.07,3.57c1.389,1.155,2.777,2.309,4.162,3.461c1.419,1.118,2.837,2.236,4.252,3.352  c1.449,1.082,2.895,2.161,4.338,3.238c1.475,1.044,2.949,2.085,4.421,3.125c1.501,1.004,3.002,2.005,4.501,3.008  c1.014,0.64,2.029,1.28,3.042,1.919c8.376-14.508,16.848-29.18,25.414-44.017c0.496-0.859,0.992-1.718,1.488-2.577  c0.859,0.496,1.718,0.991,2.577,1.487c2.462,1.42,4.916,2.839,7.365,4.252c0.859,0.496,1.718,0.992,2.577,1.488  c-0.496,0.859-0.992,1.718-1.488,2.578c-8.565,14.835-17.037,29.509-25.413,44.016c1.062,0.559,2.123,1.117,3.183,1.674  c1.621,0.8,3.239,1.598,4.855,2.394C140.734,393.224,141.234,393.455,141.734,393.685z" style="fill:none;stroke:red;stroke-width:0.0001px"/><path d="M141.734,393.685c3.223-4.393,6.456-8.777,9.702-13.153c7.428-10.015,14.918-19.983,22.489-29.89  c6.746-8.827,13.556-17.606,20.448-26.319c3.413-4.315,6.847-8.614,10.305-12.894c-89.557-62.387-100.558-66.857-113.626-67.381  c-10.011-0.401-21.236,1.514-59.337,23.379c0.292,0.941,0.584,1.883,0.876,2.823c0.58,1.708,1.16,3.418,1.74,5.127  c0.624,1.692,1.249,3.384,1.873,5.078c0.67,1.676,1.338,3.352,2.007,5.028c0.712,1.658,1.424,3.316,2.136,4.973  c0.756,1.64,1.512,3.279,2.266,4.917c0.798,1.618,1.597,3.237,2.395,4.855c0.559,1.062,1.117,2.123,1.675,3.183  c14.42-8.325,29.09-16.795,44.017-25.413c0.859-0.496,1.719-0.992,2.578-1.489c0.496,0.859,0.992,1.719,1.488,2.578  c1.418,2.456,2.836,4.911,4.252,7.365c0.496,0.859,0.992,1.718,1.488,2.578c-0.859,0.496-1.718,0.992-2.578,1.488  c-14.928,8.618-29.598,17.088-44.016,25.412c0.64,1.014,1.279,2.028,1.919,3.041c1.003,1.502,2.006,3.003,3.008,4.502  c1.042,1.474,2.083,2.948,3.124,4.42c1.082,1.448,2.161,2.894,3.24,4.338c1.117,1.417,2.235,2.834,3.351,4.252  c1.155,1.387,2.309,2.775,3.462,4.162c1.19,1.356,2.38,2.713,3.569,4.069c1.226,1.327,2.451,2.652,3.674,3.976  c1.26,1.294,2.52,2.586,3.778,3.877c1.294,1.262,2.586,2.52,3.877,3.777c1.328,1.227,2.653,2.454,3.975,3.676  c1.358,1.191,2.715,2.381,4.07,3.57c1.389,1.155,2.777,2.309,4.162,3.461c1.419,1.118,2.837,2.236,4.252,3.352  c1.449,1.082,2.895,2.161,4.338,3.238c1.475,1.044,2.949,2.085,4.421,3.125c1.501,1.004,3.002,2.005,4.501,3.008  c1.014,0.64,2.029,1.28,3.042,1.919c8.376-14.508,16.848-29.18,25.414-44.017c0.496-0.859,0.992-1.718,1.488-2.577  c0.859,0.496,1.718,0.991,2.577,1.487c2.462,1.42,4.916,2.839,7.365,4.252c0.859,0.496,1.718,0.992,2.577,1.488  c-0.496,0.859-0.992,1.718-1.488,2.578c-8.565,14.835-17.037,29.509-25.413,44.016c1.062,0.559,2.123,1.117,3.183,1.674  c1.621,0.8,3.239,1.598,4.855,2.394C140.734,393.224,141.234,393.455,141.734,393.685z" style="fill:none;stroke:red;stroke-width:0.0001px"/><path d="M141.734,393.685c3.223-4.393,6.456-8.777,9.702-13.153c7.428-10.015,14.918-19.983,22.489-29.89  c6.746-8.827,13.556-17.606,20.448-26.319c3.413-4.315,6.847-8.614,10.305-12.894c-89.557-62.387-100.558-66.857-113.626-67.381  c-10.011-0.401-21.236,1.514-59.337,23.379c0.292,0.941,0.584,1.883,0.876,2.823c0.58,1.708,1.16,3.418,1.74,5.127  c0.624,1.692,1.249,3.384,1.873,5.078c0.67,1.676,1.338,3.352,2.007,5.028c0.712,1.658,1.424,3.316,2.136,4.973  c0.756,1.64,1.512,3.279,2.266,4.917c0.798,1.618,1.597,3.237,2.395,4.855c0.559,1.062,1.117,2.123,1.675,3.183  c14.42-8.325,29.09-16.795,44.017-25.413c0.859-0.496,1.719-0.992,2.578-1.489c0.496,0.859,0.992,1.719,1.488,2.578  c1.418,2.456,2.836,4.911,4.252,7.365c0.496,0.859,0.992,1.718,1.488,2.578c-0.859,0.496-1.718,0.992-2.578,1.488  c-14.928,8.618-29.598,17.088-44.016,25.412c0.64,1.014,1.279,2.028,1.919,3.041c1.003,1.502,2.006,3.003,3.008,4.502  c1.042,1.474,2.083,2.948,3.124,4.42c1.082,1.448,2.161,2.894,3.24,4.338c1.117,1.417,2.235,2.834,3.351,4.252  c1.155,1.387,2.309,2.775,3.462,4.162c1.19,1.356,2.38,2.713,3.569,4.069c1.226,1.327,2.451,2.652,3.674,3.976  c1.26,1.294,2.52,2.586,3.778,3.877c1.294,1.262,2.586,2.52,3.877,3.777c1.328,1.227,2.653,2.454,3.975,3.676  c1.358,1.191,2.715,2.381,4.07,3.57c1.389,1.155,2.777,2.309,4.162,3.461c1.419,1.118,2.837,2.236,4.252,3.352  c1.449,1.082,2.895,2.161,4.338,3.238c1.475,1.044,2.949,2.085,4.421,3.125c1.501,1.004,3.002,2.005,4.501,3.008  c1.014,0.64,2.029,1.28,3.042,1.919c8.376-14.508,16.848-29.18,25.414-44.017c0.496-0.859,0.992-1.718,1.488-2.577  c0.859,0.496,1.718,0.991,2.577,1.487c2.462,1.42,4.916,2.839,7.365,4.252c0.859,0.496,1.718,0.992,2.577,1.488  c-0.496,0.859-0.992,1.718-1.488,2.578c-8.565,14.835-17.037,29.509-25.413,44.016c1.062,0.559,2.123,1.117,3.183,1.674  c1.621,0.8,3.239,1.598,4.855,2.394C140.734,393.224,141.234,393.455,141.734,393.685z" style="fill:none;stroke:red;stroke-width:0.0001px"/><path d="M141.734,393.685c3.223-4.393,6.456-8.777,9.702-13.153c7.428-10.015,14.918-19.983,22.489-29.89  c6.746-8.827,13.556-17.606,20.448-26.319c3.413-4.315,6.847-8.614,10.305-12.894c-89.557-62.387-100.558-66.857-113.626-67.381  c-10.011-0.401-21.236,1.514-59.337,23.379c0.292,0.941,0.584,1.883,0.876,2.823c0.58,1.708,1.16,3.418,1.74,5.127  c0.624,1.692,1.249,3.384,1.873,5.078c0.67,1.676,1.338,3.352,2.007,5.028c0.712,1.658,1.424,3.316,2.136,4.973  c0.756,1.64,1.512,3.279,2.266,4.917c0.798,1.618,1.597,3.237,2.395,4.855c0.559,1.062,1.117,2.123,1.675,3.183  c14.42-8.325,29.09-16.795,44.017-25.413c0.859-0.496,1.719-0.992,2.578-1.489c0.496,0.859,0.992,1.719,1.488,2.578  c1.418,2.456,2.836,4.911,4.252,7.365c0.496,0.859,0.992,1.718,1.488,2.578c-0.859,0.496-1.718,0.992-2.578,1.488  c-14.928,8.618-29.598,17.088-44.016,25.412c0.64,1.014,1.279,2.028,1.919,3.041c1.003,1.502,2.006,3.003,3.008,4.502  c1.042,1.474,2.083,2.948,3.124,4.42c1.082,1.448,2.161,2.894,3.24,4.338c1.117,1.417,2.235,2.834,3.351,4.252  c1.155,1.387,2.309,2.775,3.462,4.162c1.19,1.356,2.38,2.713,3.569,4.069c1.226,1.327,2.451,2.652,3.674,3.976  c1.26,1.294,2.52,2.586,3.778,3.877c1.294,1.262,2.586,2.52,3.877,3.777c1.328,1.227,2.653,2.454,3.975,3.676  c1.358,1.191,2.715,2.381,4.07,3.57c1.389,1.155,2.777,2.309,4.162,3.461c1.419,1.118,2.837,2.236,4.252,3.352  c1.449,1.082,2.895,2.161,4.338,3.238c1.475,1.044,2.949,2.085,4.421,3.125c1.501,1.004,3.002,2.005,4.501,3.008  c1.014,0.64,2.029,1.28,3.042,1.919c8.376-14.508,16.848-29.18,25.414-44.017c0.496-0.859,0.992-1.718,1.488-2.577  c0.859,0.496,1.718,0.991,2.577,1.487c2.462,1.42,4.916,2.839,7.365,4.252c0.859,0.496,1.718,0.992,2.577,1.488  c-0.496,0.859-0.992,1.718-1.488,2.578c-8.565,14.835-17.037,29.509-25.413,44.016c1.062,0.559,2.123,1.117,3.183,1.674  c1.621,0.8,3.239,1.598,4.855,2.394C140.734,393.224,141.234,393.455,141.734,393.685z" style="fill:none;stroke:red;stroke-width:0.0001px"/></g></svg>