<svg height="18in" id="Layer_1" version="1.1" width="32in" x="0px" xml:space="preserve" xmlns="http://www.w3.org/2000/svg" xmlns:xlink="http://www.w3.org/1999/xlink" y="0px"><g transform="translate(41.42135623730951 41.42135623730951) rotate(-45 100.0 100.0)"><path d="M174.192,71.801c-10.611,10.62-23.673,18.465-38.033,22.842c-3.218-4.432-6.746-8.523-10.656-12.359   c10.089-14.631,15.841-31.813,16.594-49.57C156.772,41.895,168.042,55.621,174.192,71.801z" style="fill:none;stroke:red;stroke-width:0.0001px"/><path d="M174.192,71.801c-10.611,10.62-23.673,18.465-38.033,22.842c-3.218-4.432-6.746-8.523-10.656-12.359   c10.089-14.631,15.841-31.813,16.594-49.57C156.772,41.895,168.042,55.621,174.192,71.801z" style="fill:none;stroke:red;stroke-width:0.0001px"/></g></svg>