<svg height="18in" id="Layer_1" version="1.1" width="32in" x="0px" xml:space="preserve" xmlns="http://www.w3.org/2000/svg" xmlns:xlink="http://www.w3.org/1999/xlink" y="0px"><g transform="translate(41.42135623730951 41.42135623730951) rotate(-45 100.0 100.0)"><path d="M23.137,119.793c17.498,4.742,35.993,4.343,53.27-1.149c1.545,7.907,4.225,15.549,7.958,22.689   c-10.214,7.203-16.165,19.023-15.869,31.518C45.994,163.119,29.251,143.535,23.137,119.793z" style="fill:none;stroke:red;stroke-width:0.0001px"/><path d="M23.137,119.793c17.498,4.742,35.993,4.343,53.27-1.149c1.545,7.907,4.225,15.549,7.958,22.689   c-10.214,7.203-16.165,19.023-15.869,31.518C45.994,163.119,29.251,143.535,23.137,119.793z" style="fill:none;stroke:red;stroke-width:0.0001px"/><path d="M23.137,119.793c17.498,4.742,35.993,4.343,53.27-1.149c1.545,7.907,4.225,15.549,7.958,22.689   c-10.214,7.203-16.165,19.023-15.869,31.518C45.994,163.119,29.251,143.535,23.137,119.793z" style="fill:none;stroke:red;stroke-width:0.0001px"/></g></svg>