<svg height="18in" id="Layer_1" version="1.1" width="32in" x="0px" xml:space="preserve" xmlns="http://www.w3.org/2000/svg" xmlns:xlink="http://www.w3.org/1999/xlink" y="0px"><g transform="translate(41.42135623730951 41.42135623730951) rotate(-45 100.0 100.0)"><path d="M71.528,174.088c15.474,5.947,32.421,6.899,48.464,2.723c-14.33-7.417-26.205-18.826-34.19-32.848   C76.187,150.888,70.798,162.261,71.528,174.088z" style="fill:none;stroke:red;stroke-width:0.0001px"/><path d="M71.528,174.088c15.474,5.947,32.421,6.899,48.464,2.723c-14.33-7.417-26.205-18.826-34.19-32.848   C76.187,150.888,70.798,162.261,71.528,174.088z" style="fill:none;stroke:red;stroke-width:0.0001px"/><path d="M71.528,174.088c15.474,5.947,32.421,6.899,48.464,2.723c-14.33-7.417-26.205-18.826-34.19-32.848   C76.187,150.888,70.798,162.261,71.528,174.088z" style="fill:none;stroke:red;stroke-width:0.0001px"/><path d="M71.528,174.088c15.474,5.947,32.421,6.899,48.464,2.723c-14.33-7.417-26.205-18.826-34.19-32.848   C76.187,150.888,70.798,162.261,71.528,174.088z" style="fill:none;stroke:red;stroke-width:0.0001px"/><path d="M71.528,174.088c15.474,5.947,32.421,6.899,48.464,2.723c-14.33-7.417-26.205-18.826-34.19-32.848   C76.187,150.888,70.798,162.261,71.528,174.088z" style="fill:none;stroke:red;stroke-width:0.0001px"/><path d="M34.763,59.873c10.19,14.448,24.349,25.632,40.764,32.2c1.361-10.688,4.778-21.012,10.061-30.403   C69.125,56.459,51.553,55.838,34.763,59.873z" style="fill:none;stroke:red;stroke-width:0.0001px"/><path d="M34.763,59.873c10.19,14.448,24.349,25.632,40.764,32.2c1.361-10.688,4.778-21.012,10.061-30.403   C69.125,56.459,51.553,55.838,34.763,59.873z" style="fill:none;stroke:red;stroke-width:0.0001px"/><path d="M34.763,59.873c10.19,14.448,24.349,25.632,40.764,32.2c1.361-10.688,4.778-21.012,10.061-30.403   C69.125,56.459,51.553,55.838,34.763,59.873z" style="fill:none;stroke:red;stroke-width:0.0001px"/><path d="M34.763,59.873c10.19,14.448,24.349,25.632,40.764,32.2c1.361-10.688,4.778-21.012,10.061-30.403   C69.125,56.459,51.553,55.838,34.763,59.873z" style="fill:none;stroke:red;stroke-width:0.0001px"/><path d="M34.763,59.873c10.19,14.448,24.349,25.632,40.764,32.2c1.361-10.688,4.778-21.012,10.061-30.403   C69.125,56.459,51.553,55.838,34.763,59.873z" style="fill:none;stroke:red;stroke-width:0.0001px"/><path d="M134.959,98.095c-8.841,2.476-17.996,3.649-27.176,3.482c-8.497,6.993-18.152,12.446-28.528,16.112   c1.46,7.67,4.027,15.088,7.621,22.02c10.772-6.376,24.016-6.953,35.303-1.539c11.286,5.415,19.124,16.106,20.892,28.498   c2.958-1.911,5.758-3.995,8.437-6.281C153.426,138.328,147.572,116.293,134.959,98.095z" style="fill:none;stroke:red;stroke-width:0.0001px"/><path d="M134.959,98.095c-8.841,2.476-17.996,3.649-27.176,3.482c-8.497,6.993-18.152,12.446-28.528,16.112   c1.46,7.67,4.027,15.088,7.621,22.02c10.772-6.376,24.016-6.953,35.303-1.539c11.286,5.415,19.124,16.106,20.892,28.498   c2.958-1.911,5.758-3.995,8.437-6.281C153.426,138.328,147.572,116.293,134.959,98.095z" style="fill:none;stroke:red;stroke-width:0.0001px"/><path d="M134.959,98.095c-8.841,2.476-17.996,3.649-27.176,3.482c-8.497,6.993-18.152,12.446-28.528,16.112   c1.46,7.67,4.027,15.088,7.621,22.02c10.772-6.376,24.016-6.953,35.303-1.539c11.286,5.415,19.124,16.106,20.892,28.498   c2.958-1.911,5.758-3.995,8.437-6.281C153.426,138.328,147.572,116.293,134.959,98.095z" style="fill:none;stroke:red;stroke-width:0.0001px"/><path d="M134.959,98.095c-8.841,2.476-17.996,3.649-27.176,3.482c-8.497,6.993-18.152,12.446-28.528,16.112   c1.46,7.67,4.027,15.088,7.621,22.02c10.772-6.376,24.016-6.953,35.303-1.539c11.286,5.415,19.124,16.106,20.892,28.498   c2.958-1.911,5.758-3.995,8.437-6.281C153.426,138.328,147.572,116.293,134.959,98.095z" style="fill:none;stroke:red;stroke-width:0.0001px"/><path d="M134.959,98.095c-8.841,2.476-17.996,3.649-27.176,3.482c-8.497,6.993-18.152,12.446-28.528,16.112   c1.46,7.67,4.027,15.088,7.621,22.02c10.772-6.376,24.016-6.953,35.303-1.539c11.286,5.415,19.124,16.106,20.892,28.498   c2.958-1.911,5.758-3.995,8.437-6.281C153.426,138.328,147.572,116.293,134.959,98.095z" style="fill:none;stroke:red;stroke-width:0.0001px"/><path d="M33.157,57.202c9.691-15.136,24.233-26.535,41.245-32.331c17.013-5.796,35.489-5.647,52.406,0.424   c-16.484,6.732-30.386,18.555-39.677,33.744C69.668,53.378,50.965,52.742,33.157,57.202z" style="fill:none;stroke:red;stroke-width:0.0001px"/><path d="M33.157,57.202c9.691-15.136,24.233-26.535,41.245-32.331c17.013-5.796,35.489-5.647,52.406,0.424   c-16.484,6.732-30.386,18.555-39.677,33.744C69.668,53.378,50.965,52.742,33.157,57.202z" style="fill:none;stroke:red;stroke-width:0.0001px"/><path d="M33.157,57.202c9.691-15.136,24.233-26.535,41.245-32.331c17.013-5.796,35.489-5.647,52.406,0.424   c-16.484,6.732-30.386,18.555-39.677,33.744C69.668,53.378,50.965,52.742,33.157,57.202z" style="fill:none;stroke:red;stroke-width:0.0001px"/><path d="M33.157,57.202c9.691-15.136,24.233-26.535,41.245-32.331c17.013-5.796,35.489-5.647,52.406,0.424   c-16.484,6.732-30.386,18.555-39.677,33.744C69.668,53.378,50.965,52.742,33.157,57.202z" style="fill:none;stroke:red;stroke-width:0.0001px"/><path d="M33.157,57.202c9.691-15.136,24.233-26.535,41.245-32.331c17.013-5.796,35.489-5.647,52.406,0.424   c-16.484,6.732-30.386,18.555-39.677,33.744C69.668,53.378,50.965,52.742,33.157,57.202z" style="fill:none;stroke:red;stroke-width:0.0001px"/><path d="M139.178,30.973c-2.679-1.52-5.423-2.874-8.259-4.073c-16.957,6.151-31.359,17.816-40.898,33.126   c12.339,4.429,23.662,11.292,33.298,20.18C133.236,65.665,138.743,48.569,139.178,30.973z" style="fill:none;stroke:red;stroke-width:0.0001px"/><path d="M139.178,30.973c-2.679-1.52-5.423-2.874-8.259-4.073c-16.957,6.151-31.359,17.816-40.898,33.126   c12.339,4.429,23.662,11.292,33.298,20.18C133.236,65.665,138.743,48.569,139.178,30.973z" style="fill:none;stroke:red;stroke-width:0.0001px"/><path d="M139.178,30.973c-2.679-1.52-5.423-2.874-8.259-4.073c-16.957,6.151-31.359,17.816-40.898,33.126   c12.339,4.429,23.662,11.292,33.298,20.18C133.236,65.665,138.743,48.569,139.178,30.973z" style="fill:none;stroke:red;stroke-width:0.0001px"/><path d="M139.178,30.973c-2.679-1.52-5.423-2.874-8.259-4.073c-16.957,6.151-31.359,17.816-40.898,33.126   c12.339,4.429,23.662,11.292,33.298,20.18C133.236,65.665,138.743,48.569,139.178,30.973z" style="fill:none;stroke:red;stroke-width:0.0001px"/><path d="M139.178,30.973c-2.679-1.52-5.423-2.874-8.259-4.073c-16.957,6.151-31.359,17.816-40.898,33.126   c12.339,4.429,23.662,11.292,33.298,20.18C133.236,65.665,138.743,48.569,139.178,30.973z" style="fill:none;stroke:red;stroke-width:0.0001px"/><path d="M78.392,93.163c9.102,3.292,18.67,5.119,28.344,5.411c5.567-4.695,10.552-10.038,14.85-15.916   c-9.548-8.88-20.823-15.697-33.122-20.027C83.089,72.028,79.664,82.412,78.392,93.163z" style="fill:none;stroke:red;stroke-width:0.0001px"/><path d="M78.392,93.163c9.102,3.292,18.67,5.119,28.344,5.411c5.567-4.695,10.552-10.038,14.85-15.916   c-9.548-8.88-20.823-15.697-33.122-20.027C83.089,72.028,79.664,82.412,78.392,93.163z" style="fill:none;stroke:red;stroke-width:0.0001px"/><path d="M78.392,93.163c9.102,3.292,18.67,5.119,28.344,5.411c5.567-4.695,10.552-10.038,14.85-15.916   c-9.548-8.88-20.823-15.697-33.122-20.027C83.089,72.028,79.664,82.412,78.392,93.163z" style="fill:none;stroke:red;stroke-width:0.0001px"/><path d="M78.392,93.163c9.102,3.292,18.67,5.119,28.344,5.411c5.567-4.695,10.552-10.038,14.85-15.916   c-9.548-8.88-20.823-15.697-33.122-20.027C83.089,72.028,79.664,82.412,78.392,93.163z" style="fill:none;stroke:red;stroke-width:0.0001px"/><path d="M78.392,93.163c9.102,3.292,18.67,5.119,28.344,5.411c5.567-4.695,10.552-10.038,14.85-15.916   c-9.548-8.88-20.823-15.697-33.122-20.027C83.089,72.028,79.664,82.412,78.392,93.163z" style="fill:none;stroke:red;stroke-width:0.0001px"/></g></svg>