<svg id="Layer_1" style="enable-background:new 0 0 500 500;" version="1.1" viewBox="0 0 500 500" x="0px" xml:space="preserve" xmlns="http://www.w3.org/2000/svg" xmlns:xlink="http://www.w3.org/1999/xlink" y="0px"><path d="M165.525,314.17c-0.107,0.319-0.199,0.619-0.274,0.896c-0.446,1.639-0.307,2.492-0.004,4.048   c0.303,1.556,0.77,3.816,1.314,5.682c0.545,1.867,1.168,3.34,1.3,4.341c0.132,1.001-0.226,1.529-0.458,2.343   c-0.232,0.814-0.337,1.913-1.031-0.319c-0.693-2.232-1.974-7.795-3.042-12.64c-1.068-4.844-1.921-8.97-2.524-12.43   c-0.603-3.46-0.955-6.255-1.268-8.318c-0.314-2.063-0.589-3.394-0.43-4.537s0.753-2.099,1.108-3.121   c0.355-1.022,0.472-2.109,0.782-1.433c0.311,0.676,0.816,3.116,1.206,4.414c0.39,1.298,0.666,1.455,1.165,1.204   c0.5-0.25,1.224-0.908,2.68-3.447s3.644-6.962,5.276-10.051s2.71-4.845,3.398-4.778c0.688,0.067,0.988,1.958,1.303,4.766   c0.315,2.808,0.644,6.533-0.002,9.98c-0.646,3.446-2.266,6.614-3.806,9.536c-0.069,0.13-0.137,0.259-0.205,0.388   c2.639-0.501,4.649-1.104,6.131-1.571c2.348-0.74,3.368-1.138,3.658,0.218c0.29,1.356-0.151,4.465-0.961,7.237   c-0.81,2.772-1.989,5.207-4.414,7.244C174.14,315.745,170.739,317.316,165.525,314.17z" style="fill:none;stroke:red;stroke-width:0.0001px"/><path d="M290.968,170.955c0.569,1.522,1.175,2.654,1.354,3.354c0.257,1.007-0.367,1.123-1.279,1.278   c-0.912,0.155-2.111,0.35-3.775,0.876c-1.663,0.526-3.791,1.385-4.843,1.968c-1.052,0.584-1.03,0.893-0.915,1.156   c0.114,0.264,0.32,0.482,0.518,0.655c0.198,0.173,0.388,0.302,1.808,0.012c1.421-0.289,4.072-0.997,6.315-1.218   c2.243-0.222,4.076,0.042,5.924-0.159c1.848-0.201,3.709-0.865,5.347-1.389c1.637-0.524,3.05-0.907,4.431-0.976   c1.381-0.069,2.731,0.176,4.237,0.288c1.507,0.112,3.171,0.09,3.186-0.103c0.014-0.193-1.621-0.557-3.023-1.255   c-1.402-0.699-2.571-1.732-4.083-2.167c-1.513-0.434-3.369-0.27-4.27-0.568c-0.901-0.298-0.846-1.059-0.398-1.892   c0.448-0.833,1.288-1.738,0.694-5.405c-0.594-3.666-2.622-10.093-3.763-13.402c-1.141-3.308-1.395-3.497-1.838-3.241   c-0.442,0.256-1.073,0.957-2.314,2.767c-1.241,1.81-3.092,4.73-3.943,7.91c-0.315,1.178-0.493,2.391-0.559,3.588   c-9.739-3.684-12.353-5.825-13.734-7.078c-1.487-1.349-1.547-1.668-1.834-1.89c-0.287-0.221-0.801-0.345-1.145-0.345   s-0.52,0.121-0.186,1.419c0.335,1.298,1.18,3.772,4.796,7.312C280.751,165.464,285.832,169.246,290.968,170.955z" style="fill:none;stroke:red;stroke-width:0.0001px"/><path d="M286.752,323.688c-1.413-0.803-2.604-1.282-3.19-1.705c-0.843-0.607-0.439-1.097,0.161-1.801   c0.6-0.704,1.395-1.623,2.334-3.093c0.938-1.471,2.02-3.494,2.453-4.617s0.217-1.345-0.039-1.474   c-0.257-0.129-0.555-0.164-0.818-0.17c-0.263-0.006-0.491,0.017-1.395,1.15s-2.485,3.377-4.063,4.985   c-1.578,1.609-3.154,2.583-4.442,3.922c-1.289,1.339-2.291,3.043-3.211,4.495c-0.92,1.452-1.758,2.652-2.774,3.591   c-1.015,0.939-2.208,1.616-3.436,2.497c-1.228,0.881-2.491,1.965-2.378,2.123c0.113,0.157,1.601-0.613,3.125-0.976   c1.524-0.363,3.083-0.32,4.523-0.957c1.439-0.637,2.758-1.954,3.64-2.303c0.882-0.349,1.328,0.27,1.519,1.196   c0.191,0.926,0.127,2.16,2.934,4.591c2.807,2.432,8.486,6.061,11.483,7.867c2.997,1.806,3.314,1.788,3.489,1.308   c0.175-0.48,0.21-1.423,0-3.607c-0.209-2.185-0.662-5.612-2.049-8.597c-0.514-1.106-1.156-2.151-1.873-3.112   c9.835-3.421,13.213-3.455,15.077-3.38c2.006,0.08,2.257,0.287,2.619,0.273c0.362-0.014,0.835-0.249,1.1-0.47   c0.265-0.221,0.321-0.427-0.768-1.208c-1.089-0.781-3.324-2.137-8.37-2.533C298.112,321.348,291.788,321.705,286.752,323.688z" style="fill:none;stroke:red;stroke-width:0.0001px"/><polygon points="298.402,108.73 295.525,105.264 295.789,100.767 291.349,101.525 287.586,99.048    286.023,103.273 281.996,105.293 284.873,108.759 284.609,113.256 289.05,112.498 292.812,114.975 294.376,110.75  " style="fill:none;stroke:red;stroke-width:0.0001px"/><polygon points="353.723,265.221 351.969,263.107 352.13,260.365 349.423,260.828 347.129,259.317    346.175,261.893 343.72,263.125 345.474,265.238 345.313,267.98 348.021,267.518 350.315,269.028 351.268,266.452  " style="fill:none;stroke:red;stroke-width:0.0001px"/></svg>