<svg id="Layer_1" style="enable-background:new 0 0 531.421 500;" version="1.1" viewBox="0 0 531.421 500" x="0px" xml:space="preserve" xmlns="http://www.w3.org/2000/svg" xmlns:xlink="http://www.w3.org/1999/xlink" y="0px"><polygon points="113.112,200.967 110.765,197.122 111.674,192.71 107.17,192.821 103.804,189.827    101.648,193.783 97.373,195.201 99.72,199.046 98.811,203.458 103.315,203.347 106.681,206.341 108.837,202.385  " style="fill:#FFA92E;"/><polygon points="185.982,113.351 184.607,106.77 188.095,101.022 181.708,98.922 178.474,93.027    173.462,97.508 166.74,97.361 168.115,103.943 164.627,109.691 171.014,111.791 174.248,117.686 179.26,113.204  " style="fill:#FFA92E;"/><circle cx="392.715" cy="330.848" r="6.029" style="fill:#FFA92E;"/><circle cx="85.039" cy="264.129" r="6.029" style="fill:#FFA92E;"/><polygon points="342.649,380.201 339.574,376.909 339.574,372.404 335.185,373.422 331.284,371.17    329.971,375.479 326.07,377.731 329.146,381.023 329.146,385.528 333.534,384.51 337.435,386.762 338.748,382.453  " style="fill:#FFA92E;"/><polygon points="166.882,359.646 163.806,356.355 163.806,351.85 159.418,352.867 155.517,350.615    154.204,354.924 150.303,357.177 153.378,360.469 153.378,364.973 157.766,363.956 161.668,366.208 162.981,361.899  " style="fill:#FF9A2E;"/><polygon points="380.022,133.441 375.432,128.528 375.432,121.805 368.882,123.324 363.059,119.962    361.1,126.394 355.277,129.756 359.867,134.669 359.867,141.392 366.417,139.873 372.24,143.235 374.2,136.803  " style="fill:#FFA92E;"/><polygon points="384.263,272.674 379.672,267.761 379.672,261.038 373.122,262.557 367.3,259.195    365.34,265.627 359.517,268.989 364.108,273.902 364.108,280.625 370.658,279.106 376.48,282.468 378.44,276.036  " style="fill:#FFA92E;"/></svg>