<svg id="Layer_1" style="enable-background:new 0 0 531.421 500;" version="1.1" viewBox="0 0 531.421 500" x="0px" xml:space="preserve" xmlns="http://www.w3.org/2000/svg" xmlns:xlink="http://www.w3.org/1999/xlink" y="0px"><polygon points="234.579,400.475 236.999,406.748 234.486,412.984 241.128,414.024 245.272,419.318    249.494,414.086 256.152,413.145 253.731,406.872 256.245,400.636 249.602,399.596 245.458,394.301 241.236,399.534  " style="fill:#FF652E;"/><polygon points="316.433,96.602 317.991,92.375 322.015,90.35 319.134,86.887 319.392,82.39 314.953,83.154    311.187,80.682 309.629,84.908 305.605,86.933 308.486,90.396 308.228,94.893 312.668,94.129  " style="fill:#FF652E;"/><polygon points="452.411,261.887 449.336,258.595 449.336,254.09 444.947,255.108 441.046,252.856    439.733,257.165 435.832,259.417 438.907,262.709 438.908,267.214 443.296,266.196 447.197,268.448 448.51,264.139  " style="fill:#FF652E;"/><polygon points="221.18,296.186 218.104,292.894 218.104,288.39 213.716,289.407 209.814,287.155    208.501,291.464 204.6,293.717 207.676,297.008 207.676,301.513 212.064,300.496 215.965,302.748 217.278,298.439  " style="fill:#FF652E;"/></svg>