<svg style="enable-background:new 0 0 158.7 158.6;" version="1.1" viewBox="0 0 158.7 158.6" x="0px" xml:space="preserve" xmlns="http://www.w3.org/2000/svg" xmlns:xlink="http://www.w3.org/1999/xlink" y="0px"><path d="M128,16.6c-1.1,1-2.3,2-3.5,3c-1.6,1.3-3.2,2.5-4.9,3.6c-1.5,1.1-3.1,2.1-4.7,3   c-1.5,0.9-3,1.7-4.5,2.4c-0.7,0.4-1.4,0.7-2.2,1c-0.7,0.3-1.4,0.6-2.1,0.9c-1.3,0.5-2.6,1-3.9,1.5c-1.2,0.4-2.4,0.8-3.6,1.1   c-1.1,0.3-2.3,0.5-3.4,0.8c-1,0.2-2.1,0.3-3.1,0.4c-1,0.1-1.9,0.2-2.9,0.2c-0.9,0-1.8,0-2.7-0.1c-0.8-0.1-1.7-0.1-2.5-0.3   c-0.8-0.1-1.6-0.3-2.4-0.4c-0.8-0.2-1.5-0.4-2.2-0.6c-0.7-0.2-1.4-0.4-2.1-0.7c-0.7-0.2-1.4-0.5-2.1-0.7c-1.4-0.5-2.8-1.1-4.2-1.6   c-0.7-0.3-1.3-0.5-2-0.7c-0.6-0.2-1.3-0.5-1.9-0.7c-1.3-0.4-2.5-0.8-3.8-1.1c-1.3-0.3-2.6-0.5-3.9-0.7c-0.7-0.1-1.3-0.1-2-0.2   c-0.7,0-1.4-0.1-2-0.1c-1.4,0-2.8,0.1-4.2,0.3c-1.5,0.2-3,0.5-4.5,0.8c-1.7,0.4-3.3,0.9-4.9,1.4c-0.7,0.2-1.4,0.5-2.1,0.8   c-0.5,0.2-0.9,0.3-1.4,0.5c-1,0.4-2,0.8-3,1.3c-1.1,0.5-2.1,1.2-3.2,1.8c-1.2,0.7-2.3,1.6-3.3,2.4c-1.2,1-2.4,2.1-3.4,3.2   c-1.3,1.3-2.4,2.7-3.5,4.1c-1.3,1.7-2.5,3.4-3.6,5.1c-0.7,1.1-1.4,2.2-2.1,3.4c-0.6,1.1-1.3,2.2-1.9,3.4c-0.7,1.2-1.3,2.5-1.9,3.7   c-1.4,2.8-2.7,5.7-3.9,8.5c-0.7,1.6-1.3,3.2-2,4.9c-0.7,1.8-1.4,3.5-2,5.3c-0.7,1.9-1.4,3.8-2,5.7c-0.6,1.6-1.1,3.3-1.7,4.9   c-1.8-15.5,1-31.2,8.1-45.2c7.1-13.9,18.1-25.5,31.8-33.1C54,2.5,69.6-1,85.2,0.1C100.8,1.3,115.7,7,128,16.6z" style="fill:#D000CF;"/></svg>