<svg id="Layer_1" style="enable-background:new 0 0 1280 1024;" version="1.1" viewBox="0 0 2560.0 2048.0" x="0px" xml:space="preserve" xmlns="http://www.w3.org/2000/svg" xmlns:xlink="http://www.w3.org/1999/xlink" y="0px"><path d="M407,608.8c0,0-2.8,0-3.7,0.2c-1,0.2-5.4,2-6.8,3  c-1.1,0.7-2.9,2.7-3.9,3.8c-1.2,1.3-1.7,2.1-2.6,3.5c-0.9,1.4-2.5,3.8-2.5,3.8c0-0.1,0.7-2.1,0.8-2.4c0.7-2.3,1.5-4.2,2.9-6.2  c1.5-2.1,4.2-3.9,6.1-5c1.6-0.9,2.8-1.3,5.5-1.6C405.5,607.6,407,608.8,407,608.8z" style="fill:none;stroke:red;stroke-width:0.0001px"/><path d="M424.5,641.5c0,0-2.9,3.4-4.8,4.2c-1.8,0.8-2,0.8-5.4,1.8  c-3.4,1-5.2,1.3-7.9,1.5c-2.7,0.1-4.7,0.5-6.5,0.6c-1.8,0.1-4.1,0.4-5.8,1.1c-1.5,0.6-3.1,1.1-4.6,2c-2.4,1.4-4.8,4.9-4.8,4.9  s-1-1.8-0.9-4.3c0.1-2.5,1.5-5.2,2.6-6.5c1.3-1.5,3.1-3.5,4.7-4.3c2-1,4-2,6.7-2.8c2-0.6,3.7-1.1,5.9-2.1c2.5-1.1,3.9-1.5,5.7-2.4  c1.7-0.9,3.9-1.5,3.9-1.5s1.1-0.5-1.3,1.5c-2.4,2-3.1,2.6-5,3.2c-2.6,0.9-5.3,1.8-7,2.6c-1.9,0.9-2,0.8-4.3,1.9  c-2.3,1.1-3.1,1-4.7,2.3c-1.6,1.2-2.8,2.8-3.2,3.6c-0.5,0.9-1.2,3.1-1.6,3.8c0,0,0,0.1,0.1,0.1c0.5-0.4,2-1.8,4.3-2.9  c3.3-1.6,5.9-2.3,6.7-2.4c2.9-0.3,6-0.8,7.6-0.8s4.7-0.3,6-0.4c2.3-0.1,3.3-0.7,5.6-1.2c2.5-0.6,2.8-0.8,4.6-1.7  C422.6,642.4,424.5,641.5,424.5,641.5z" style="fill:none;stroke:red;stroke-width:0.0001px"/><path d="M458.4,644.7c-0.4,3.4-0.7,3.8-2,5.7c-1.4,2-3.1,3.5-3.1,3.5  s0.6-1.3,1.2-3.3c0.6-2.1,1.3-4.1,1.8-6.7c0.5-2.6,0.3-5.3,0-6.7c-0.3-1.4,0.3-3.1,0.3-3.1s2.4,2.7,2.5,5  C459.4,641.2,458.8,641.4,458.4,644.7z" style="fill:none;stroke:red;stroke-width:0.0001px"/><path d="M657.9,585.7c-1.7,0.8-1.7,1.1-3.9,2.4c-2.2,1.3-3.5,1.5-5.9,1  c-2.5-0.5-3.1,0.4-3.9-2.3c-0.8-2.7-1.3-3.4-3-4.4c-1.7-1-2.6,0.1-4.1-2.7c-1.6-2.8-3.5-4.3-4.5-6.3c-1-2.1-1.7-3.1-0.5-5.1  c1.2-1.9,3.1-4.4,4.5-5.7c1.4-1.3,2.3-1.4,3.1-3.5c0.8-2.1,0.7-4.9,1.5-7.1c0.9-2.2,1.8-4.5,3.6-6.4c1.8-1.9,1.8-2.7,3.3-3.9  c1.5-1.3,1.5-1.3,3.8-1c2.2,0.3,3.2,0.8,4.5,2.1c1.3,1.3,2.2,3.1,2.2,3.1s0.1-1-1.8-5.3c-1.7-3.8-2.8-4.4-5.3-5.1  c-2.5-0.8-3.9-1.3-6.1-1c-2.2,0.2-4.1,0.5-5.7,1.3c-1.5,0.8-2.5,1.9-3.7,3.6s-3.5,2.4-3.5,2.4s-1.8-1.8-1.9-3.8s-0.5-3.9-0.4-5.6  c0.1-1.7,0.8-3.5,2.3-4.8c1.5-1.3,5.5-1.5,6.6-2.1c1-0.5,2.8-0.9,2.8-0.9s0,0-4.1-1.3c-2.6-0.8-3.2-1.5-6.3-0.6  c-3.1,0.9-4.5,1.2-6.1,2.8c-1.5,1.7-1.9,2.1-3.8,4.5c-1.8,2.4-2.6,5.8-3,7.3c-0.4,1.5-0.2,3.6-0.2,3.6s-1.8,0.6-2.6-0.8  c-0.8-1.4-0.5-2.8-1.4-3.7c-0.9-0.9-2.1-0.6-2.3-2.1c-0.3-1.4-0.8-3.6,0.7-5.4c1.4-1.8,2.1-3.6,3.3-3.8c1.2-0.3,5.8-2.4,5.8-2.4  s0.5-0.7-3.3-0.5c-3.9,0.1-8.8,1.6-10.7,3.5c-1.9,1.9-4.5,5.2-4.5,7.5c0,2.3,0,6.9,0.8,8.5c0.8,1.6,3.6,6.1,5.2,7.8  c1.5,1.7,3.7,4.8,4.9,6.8c1.2,2.1,1.9,3.9,0.9,7.2c-1,3.3-7.4,9.8-9.2,11.9c-1.8,2.1-9.2,8.4-11.8,10.1c-2.6,1.7-4.9,4-7.6,4.4  c-2.7,0.4-6.7,0.3-8.4-0.8c-1.7-1-5.4-2.8-7.1-5.3c-1.7-2.4-4.2-6.9-5.7-10.2c-1.1-2.4-2.8-5-4.3-6.3c-0.6-0.5-1.6-1.6-2.5-2.7  c-2.6,2.8-3.6,10.3-3.6,10.3s-0.7-0.5-1.3-1.8c-0.2-0.3-0.4-0.8-0.6-1.2c-0.1-0.2-0.1-0.3-0.2-0.5c0,0,0-0.1,0-0.1  c0-0.2-0.1-0.4-0.1-0.6c0-0.2-0.1-0.4-0.1-0.5c-0.1-0.3-0.1-0.6-0.2-0.9c-0.1-0.9-0.2-1.7-0.3-2.3c-0.5,0.7-1,1.5-1.4,2.2  c-2.3,3.6-4,5.8-5.3,9.5c-1.3,3.9-2.5,7.1-3.6,10.6c-1.2,3.5-2.8,10.7-3.1,14.8c-0.4,7.6-0.7,13.5-0.7,13.5  c7.2-2.7,10.1-4.7,16.2-5.3c6.1-0.6,8.7-1.2,13.9,0c5.2,1.2,9.5,2.2,13,3c3.5,0.8,6.1,1.2,10.1,0c4-1.2,6.7-3,9-5.3  c2.3-2.3,3.8-8.1,7.2-14.2c3.5-6.1,5.5-9.8,8.1-11.9c2.6-2,2.9-2.6,6.4,0c0,0,3,2.7,4.6,3.3c1.6,0.6,3.6,1.2,4.5,2.3  c0.9,1.2,1.3,2.2,3.2,3.5c1.9,1.3,3.5,1.3,4.7,1.3c1.2,0,1.9,1.5,3.5,1.5s4,0.4,6.7-0.4c2.7-0.8,5.4-2.6,7.1-4.5s4.4-6.2,4.4-6.2  S659.5,585,657.9,585.7z M645.7,536.3c0.9-0.5,6.1,1.2,6.1,1.2l0.9,1l-6.6,1l-1.4-1.9C644.7,537.4,644.8,536.8,645.7,536.3z   M609.8,533.6l-3.8,1.8c0,0,0.1-3.4,0.5-4.6c0.4-1.2,1-2.5,2.2-3.4c1.2-0.9,2.7-1.2,2.7-1.2L609.8,533.6z M624.9,529.2  c0,0,1.6-2.6,2.4-3c0.8-0.4,4.4-1,4.4-1l-4.1,4.8L624.9,529.2z M648.1,593.8c-1.4,0.2-5.8,0-5.8,0l1.9-3.2l7.2,1.6  C651.4,592.1,649.5,593.5,648.1,593.8z" style="fill:none;stroke:red;stroke-width:0.0001px"/><path d="M486.6,346.6c0,0,1.8-0.8,4.3-2.1c2.5-1.3,6.1-1.3,8.1-2.8  c2-1.5,6.3-5.3,10.1-7.3c3.8-2,26.5-16,28.9-18.5c2.5-2.5,3.1-2.8,6.6-8.8c3.5-6,3.8-6,1.7-5.8c-2.1,0.2-8.8,2.1-13.6,3.6  c-4.8,1.5-12.6,5.5-14.9,7.4c-2.3,2-7.2,6-8.6,8.3c-1.3,2.1-3,6.9-3,6.9s-4.6-0.6-5.5-2.9c-0.8-2.4-1.5-6.3-0.2-8.8  c1.3-2.5,5.8-8.9,5.8-8.9s-7.2,0.5-9.7,3c-2.5,2.5-4.8,9.3-5.8,11.4c-1,2.1-2.6,6.1-5.5,7.8s-6.9,2.1-9.8,3.1  c-2.8,1-7.1,3.3-7.6,5.8c-0.5,2.5,0.7,5.6,2,7.3c1.3,1.7,2.1,2,4.8,1.3c2.6-0.7,3.1-2.8,5.3-5c2.1-2.1,4.8-2.8,7.4-3.1  s4.5,0.8,4.5,0.8s-1.7,1.8-3.3,3.1C487.1,343.8,486.6,346.6,486.6,346.6z" style="fill:none;stroke:red;stroke-width:0.0001px"/><path d="M486.1,425.6c-0.7-1.8-2.4-3.1-3.4-5s-4.5-3.4-6.5-4.2  c-2-0.8-6.7,0.1-9,0c-2.3-0.1-4,1.2-5,2c-1,0.8,0.4,3.1,0.4,3.1s1.6,1.1,2.8,0.3c1.2-0.8,2.7-1.9,4.9-2.7c2.1-0.8,4.3,0.3,5.8,0  c1.5-0.3,3.6,1.5,4,2c0.4,0.5,0.5,2.8,0.4,4.2c-0.1,1.4-1.2,6.7-1.8,8.4c-0.5,1.6-6.1,5-8.2,6.6c-2.2,1.6-3.8,3.4-6.1,5.4  c-2.3,2-2.6,4-4,5.8c-1.5,1.8-2.1,3.8-4.2,8c-2,4.2-2.3,4-2.7,5.7c-0.3,1.2-0.2,1.6,0,1.7l-4.3-4.3c0,0,0,2,0.1,3  c0.1,0.9,0.7,3.2,0.7,3.2s-0.9,1.4-3.2,2.8c-2.3,1.5-3.9,1.3-6.9,0.8c-3-0.5-3.6-0.8-6.1-2c-2.4-1.2-5.9-6.2-6.2-8  c-0.3-1.8-0.3-5.6-0.3-5.6s-1.8,1.8-1.8,3.3c0,1.5,0,4.2-0.3,7.3c-0.3,3.1-0.7,3.1-0.7,3.1s-0.7,0.9-2.3,2.6s-2.6,2.8-3.2,4.3  c-0.7,1.5-1.3,3.5-1.3,3.5l4.8-2.3l0.8,0.7c0,0-2.8,2.3-3,4c-0.1,1.8-0.1,3.4,0,5c0.1,1.6,3.4,3.6,3.4,3.6s-0.1-4.3,0.8-5.9  c0.9-1.6,4-1.8,5.7-1.2c1.6,0.5,4.1,4,4.1,4s5.8,0.5,8.4,0.8c2.6,0.3,5,0.5,6.2,1.8c1.2,1.2,2,3,1.9,5.7c-0.1,2.7-1.9,4.1-1.9,4.1  s2.7-1,4-2.1c1.3-1.1,2.3-2.4,2.7-3.4c0.4-1,1.9-11,1.9-11l4.2,5.1c0,0,1.7-4.3,2.2-5.8s0.7-5.3,0.7-8c0-2.7,0-2.8,0.6-2.3  c0.7,0.5,2.6,4.9,2.6,4.9s1.4-2.2,2.4-5.1c1.1-3,1.8-9.3,2.6-12.8c0.8-3.5,2.3-4.8,4.7-7.7c2.4-2.8,5.4-6.7,8.2-9.2  c2.8-2.4,3-1.5,3.4-2.8C489.7,439.6,486.8,427.3,486.1,425.6z M483.9,438c-2.4,1.8-5.1,3.8-8.2,6.5c-3.1,2.7-5.3,5.1-8.4,9  c-3.1,3.9-4.5,8.6-5.1,10.8c-0.7,2.2-2.7,8.1-4.2,9.4c-1.5,1.3-5.3,4.2-8.2,4.9c-3,0.7-8.5,0.8-12.1,0.8s-6.6,0-9.4-2.4  c-0.9-0.8-1.8-4.7-1.8-4.7s3.2,2.7,5.1,3.5s6.2,0.7,8.6,0.5c2.4-0.1,8.9-0.8,11.2-2.3c2.3-1.5,4-3.4,5.5-6.2  c1.5-2.8,4.3-10.7,5.5-13.5c1.2-2.8,4.6-7.6,7.4-10.1c2.8-2.6,4.6-3.8,8-5.8s7.4-6.3,7.4-6.3S486.4,436.2,483.9,438z" style="fill:none;stroke:red;stroke-width:0.0001px"/><path d="M515.2,387.5c0,0-0.3-4.4,0.7-6.2s2.5-2.8,4.8-3.9s4.8-1,4.8-1  s1.3,0.8,1.1,4.2c-0.1,3.4-2.8,7.9-2.8,7.9l-1.3-6.7L515.2,387.5z" style="fill:none;stroke:red;stroke-width:0.0001px"/><path d="M649,751.8c-3.9,1.3-7.6,2.4-9.8,2.8c-4.9,1-21.5,3-28.3,3.5  c-6.8,0.5-20.1-1.2-28.7-2.7c-8.5-1.5-27.7-7.6-35.3-10.8c-7.6-3.2-20.3-10.1-26.2-15c-5.9-4.9-14.8-13.3-18.6-17.5  c-3.8-4.2-11.6-14.8-14.2-19.2c0,0-4.6-15.7-5.6-18.9c-1-3.3-4-12.6-4.5-16.5c-0.4-3.9-1.4-13.2-1.5-15.4c-0.1-2.2-0.2-8.6,0-12.8  c0.1-2.6,0.1-5.8,0.1-7.9c1-0.8,2-1.4,3.3-1.9c2.8-1.2,5.9-3.6,9.8-6.2c3.9-2.6,5.8-3.8,7.8-6.1c2-2.3,2.8-3.7,4.1-6.6  c1.2-2.7,3.1-6.3,3.3-6.8c-0.4,0.5-5,7.2-7.5,9.9c-2.6,2.8-6.1,5.5-7.8,6.8c-1.7,1.3-6.4,3.5-9.1,4.7c-1,0.4-2,0.8-3,1.2l0.5-3.6  c4-1.2,8.1-2.7,10.1-3.8c2.6-1.5,7.6-4.7,10.6-9.7c2-3.3,4.4-12.7,4.8-17.1c0.4-4.4-1.5-8.8-2.9-12.7c-1.3-3.5-5.5-7.8-8.4-9.8  c0.9-1.9,1.6-3.9,2.3-6c1.7-5.2,5.4-11.6,9.1-16.7c3.8-5.2,6.4-10.2,9.3-14.9c1.3-2,4.5-5.4,8.3-9.1c1.3-1.3,2.6-2.6,4-3.8  c3.6-3.4,7-6.7,9.2-8.9c5.2-5.5,10.7-8.1,15-11.6c4.3-3.5,10.4-8.4,14.2-12.7c1.8-2.1,4.5-4.4,7.1-6.6c2.1-1.8,4.2-3.6,5.9-5.2  c0.6-0.6,1.2-1.2,1.7-1.8c3.5-4,10.6-10,13.4-14.5c3.4-5.4,5.8-8.6,8.1-15.3s4.5-12.4,5.1-20.9c0.1-1,0.1-2.1,0.1-3.2  c0-2-0.2-4-0.4-6.1c-0.5-3.6-1.2-7.2-2-10.4c-1.2-5-3-8.4-9.5-17.1c-2.4-3.1-5.1-5.4-9-7.2c1-1.5,1.8-2.7,2.4-3.5  c2.4-3,17.5-15.4,18.1-15.9c-0.3,0.1-5.4,1.6-10.2,5.5c-5,4-5.3,1.8-10.6,8.7c-1.2,1.5-2.1,2.8-3,4c-0.8-0.3-1.6-0.5-2.5-0.8  c0,0-2.6,3.4-4.9,7.2l-1.9-2.3c0.5-0.9,1-1.6,1.4-2.2c2.5-3.7,13-13.7,15.4-15.2c2.4-1.5,15.9-10.4,16.3-10.7  c-0.4,0.1-10.9,3.4-13.9,4.4c-3,1-6.7-0.3-9.6-0.9c-2.9-0.6-2.6-1.8-2.6-1.8s5.9-0.8,8.8-1.8c2.9-1,10.2-5.9,13-8  c0.9-0.7,2.4-2.2,4-3.9c2.4,1.7,6.3,4.8,9,6.5c3.6,2.3,6.9,5.5,11.7,10c4.8,4.5,9.5,11.2,11,13.7c1.4,2.5,6.6,12.4,7.9,15.5  c1.3,3.2,3.5,9.4,4.7,15.6c1.2,6.2,1.3,9.8,1.3,16.5c0,6.7,0.2,12.5-0.7,18.9c-0.9,6.4-3,12.1-5.5,17.9c-2.5,5.7-5.4,10.3-9.1,15.5  c-3.7,5.2-9.1,11.4-12.8,15.8c-3.7,4.4-18.8,18.2-22.9,21c-4.1,2.8-13.7,10.7-13.7,10.7c-5,3.9-14,10.8-16.9,13.7  c-2.9,2.8-11.7,9.8-16.6,13.7c-4.9,3.9-11.6,11.7-14.4,14.9c-2.8,3.1-9.1,11-11.7,14.2c-2.6,3.2-10,15.9-12.1,18.9  c-2.2,2.9-5,11.7-6.5,14.8c-1.5,3.2-6,12.9-6.7,16.4c-0.8,3.5-2.3,15.5-2.3,15.5c-0.5,4.3-0.8,14.5-1,19.2  c-0.2,4.7,0.3,11.5,0.6,14.6c0.3,3.1,1.9,12.8,3.3,15.8c1.4,3,5.4,9.5,6.9,11.1c1.5,1.5,6,7.8,7.9,11.2c2,3.4,3.6,8,3.6,11.9  c0,3.9-2.1,5.4-1.2,4.9c0.9-0.5,2.6-2.9,2.6-2.9c1.2-2.6,3-6.9,3-8.5c0-1.6-2.3-7-3.1-8.5c-0.8-1.5-2.2-4.3-2.1-5.1  c0.1-0.7,1.1-0.6,2.1-0.3c1,0.4,2.3,1.6,4,3.5c1.7,1.9,3,4.5,4,6.4c1.1,1.9,3.1,6.7,4.2,9c1.1,2.3,2.3,4.3,4.2,8.1  c1.9,3.8,3,5,5.1,7.7c2.1,2.8,7.3,6.6,8.6,7.5c1.3,0.9,4.8,2.2,6.2,2.7c1.5,0.6,3.8,1.2,5.5,1.9c1.7,0.7,5.3,2.8,5.3,2.8  c1.3,0.9,2.3,1.8,5.9,4.6c3.5,2.7,1.7,1.2,2.7,2.1c1.3,1.2,1.6,2.3,1.7,2.7c0-0.1,0-0.1,0-0.2c0-1.1-0.2-3.5-0.9-5.9  c-0.4-1.5-1.2-2.4-2.2-4.1c-1-1.7-3.2-3.3-2.9-3.7c0.4-0.4,2-2,2.8-2.5c0.7-0.5,2.2-0.4,4.4,1.4c2.1,1.7,4.6,4,7.2,5.8  c2.6,1.8,6.3,4.5,11.3,7c5.1,2.5,7.3,2.7,11.1,3.2c3.8,0.5,7.4,0.3,11.9,0.1c4.5-0.2,7.1-0.7,10.4-1.2c3.3-0.6,7-2,9.2-2.2  C643.8,750,647.7,751.3,649,751.8z" style="fill:none;stroke:red;stroke-width:0.0001px"/><path d="M387.5,566.6c0,0-3-0.7-4.2-2c-1-1-2.5-4.2-2.5-4.2l6.3,3.1   L387.5,566.6z" style="fill:none;stroke:red;stroke-width:0.0001px"/><path d="M419.2,520.2c0,0-0.7,1-1.8,1.1c-1.1,0.1-2.3-0.5-3.1-1.7   c-0.8-1.1-3-2.8-3-2.8s3.2,0.4,4.6,1C417.4,518.5,419.2,520.2,419.2,520.2z" style="fill:none;stroke:red;stroke-width:0.0001px"/><path d="M440.1,525.8c0,0,0,0-1.4,0s-2.1-0.9-2.4-1.5   c-0.3-0.6-0.1-1.4-0.1-2.3c0-0.6,0.1-2.4,0.3-3.4c0.1-0.2,0.4-0.3,0.5,0L440.1,525.8z" style="fill:none;stroke:red;stroke-width:0.0001px"/><path d="M452.6,539.4c-0.2,0.7-1.7,2.8-1.7,2.8l-2.1-2.7l2.8-7.6   c0,0,1.2,2.4,1.4,3.3C453.2,536.2,452.8,538.7,452.6,539.4z" style="fill:none;stroke:red;stroke-width:0.0001px"/><path d="M407,608.8c0,0-2.8,0-3.7,0.2c-1,0.2-5.4,2-6.8,3  c-1.1,0.7-2.9,2.7-3.9,3.8c-1.2,1.3-1.7,2.1-2.6,3.5c-0.9,1.4-2.5,3.8-2.5,3.8c0-0.1,0.7-2.1,0.8-2.4c0.7-2.3,1.5-4.2,2.9-6.2  c1.5-2.1,4.2-3.9,6.1-5c1.6-0.9,2.8-1.3,5.5-1.6C405.5,607.6,407,608.8,407,608.8z" style="fill:none;stroke:red;stroke-width:0.0001px"/><path d="M424.5,641.5c0,0-2.9,3.4-4.8,4.2c-1.8,0.8-2,0.8-5.4,1.8  c-3.4,1-5.2,1.3-7.9,1.5c-2.7,0.1-4.7,0.5-6.5,0.6c-1.8,0.1-4.1,0.4-5.8,1.1c-1.5,0.6-3.1,1.1-4.6,2c-2.4,1.4-4.8,4.9-4.8,4.9  s-1-1.8-0.9-4.3c0.1-2.5,1.5-5.2,2.6-6.5c1.3-1.5,3.1-3.5,4.7-4.3c2-1,4-2,6.7-2.8c2-0.6,3.7-1.1,5.9-2.1c2.5-1.1,3.9-1.5,5.7-2.4  c1.7-0.9,3.9-1.5,3.9-1.5s1.1-0.5-1.3,1.5c-2.4,2-3.1,2.6-5,3.2c-2.6,0.9-5.3,1.8-7,2.6c-1.9,0.9-2,0.8-4.3,1.9  c-2.3,1.1-3.1,1-4.7,2.3c-1.6,1.2-2.8,2.8-3.2,3.6c-0.5,0.9-1.2,3.1-1.6,3.8c0,0,0,0.1,0.1,0.1c0.5-0.4,2-1.8,4.3-2.9  c3.3-1.6,5.9-2.3,6.7-2.4c2.9-0.3,6-0.8,7.6-0.8s4.7-0.3,6-0.4c2.3-0.1,3.3-0.7,5.6-1.2c2.5-0.6,2.8-0.8,4.6-1.7  C422.6,642.4,424.5,641.5,424.5,641.5z" style="fill:none;stroke:red;stroke-width:0.0001px"/><path d="M458.4,644.7c-0.4,3.4-0.7,3.8-2,5.7c-1.4,2-3.1,3.5-3.1,3.5  s0.6-1.3,1.2-3.3c0.6-2.1,1.3-4.1,1.8-6.7c0.5-2.6,0.3-5.3,0-6.7c-0.3-1.4,0.3-3.1,0.3-3.1s2.4,2.7,2.5,5  C459.4,641.2,458.8,641.4,458.4,644.7z" style="fill:none;stroke:red;stroke-width:0.0001px"/><path d="M657.9,585.7c-1.7,0.8-1.7,1.1-3.9,2.4c-2.2,1.3-3.5,1.5-5.9,1  c-2.5-0.5-3.1,0.4-3.9-2.3c-0.8-2.7-1.3-3.4-3-4.4c-1.7-1-2.6,0.1-4.1-2.7c-1.6-2.8-3.5-4.3-4.5-6.3c-1-2.1-1.7-3.1-0.5-5.1  c1.2-1.9,3.1-4.4,4.5-5.7c1.4-1.3,2.3-1.4,3.1-3.5c0.8-2.1,0.7-4.9,1.5-7.1c0.9-2.2,1.8-4.5,3.6-6.4c1.8-1.9,1.8-2.7,3.3-3.9  c1.5-1.3,1.5-1.3,3.8-1c2.2,0.3,3.2,0.8,4.5,2.1c1.3,1.3,2.2,3.1,2.2,3.1s0.1-1-1.8-5.3c-1.7-3.8-2.8-4.4-5.3-5.1  c-2.5-0.8-3.9-1.3-6.1-1c-2.2,0.2-4.1,0.5-5.7,1.3c-1.5,0.8-2.5,1.9-3.7,3.6s-3.5,2.4-3.5,2.4s-1.8-1.8-1.9-3.8s-0.5-3.9-0.4-5.6  c0.1-1.7,0.8-3.5,2.3-4.8c1.5-1.3,5.5-1.5,6.6-2.1c1-0.5,2.8-0.9,2.8-0.9s0,0-4.1-1.3c-2.6-0.8-3.2-1.5-6.3-0.6  c-3.1,0.9-4.5,1.2-6.1,2.8c-1.5,1.7-1.9,2.1-3.8,4.5c-1.8,2.4-2.6,5.8-3,7.3c-0.4,1.5-0.2,3.6-0.2,3.6s-1.8,0.6-2.6-0.8  c-0.8-1.4-0.5-2.8-1.4-3.7c-0.9-0.9-2.1-0.6-2.3-2.1c-0.3-1.4-0.8-3.6,0.7-5.4c1.4-1.8,2.1-3.6,3.3-3.8c1.2-0.3,5.8-2.4,5.8-2.4  s0.5-0.7-3.3-0.5c-3.9,0.1-8.8,1.6-10.7,3.5c-1.9,1.9-4.5,5.2-4.5,7.5c0,2.3,0,6.9,0.8,8.5c0.8,1.6,3.6,6.1,5.2,7.8  c1.5,1.7,3.7,4.8,4.9,6.8c1.2,2.1,1.9,3.9,0.9,7.2c-1,3.3-7.4,9.8-9.2,11.9c-1.8,2.1-9.2,8.4-11.8,10.1c-2.6,1.7-4.9,4-7.6,4.4  c-2.7,0.4-6.7,0.3-8.4-0.8c-1.7-1-5.4-2.8-7.1-5.3c-1.7-2.4-4.2-6.9-5.7-10.2c-1.1-2.4-2.8-5-4.3-6.3c-0.6-0.5-1.6-1.6-2.5-2.7  c-2.6,2.8-3.6,10.3-3.6,10.3s-0.7-0.5-1.3-1.8c-0.2-0.3-0.4-0.8-0.6-1.2c-0.1-0.2-0.1-0.3-0.2-0.5c0,0,0-0.1,0-0.1  c0-0.2-0.1-0.4-0.1-0.6c0-0.2-0.1-0.4-0.1-0.5c-0.1-0.3-0.1-0.6-0.2-0.9c-0.1-0.9-0.2-1.7-0.3-2.3c-0.5,0.7-1,1.5-1.4,2.2  c-2.3,3.6-4,5.8-5.3,9.5c-1.3,3.9-2.5,7.1-3.6,10.6c-1.2,3.5-2.8,10.7-3.1,14.8c-0.4,7.6-0.7,13.5-0.7,13.5  c7.2-2.7,10.1-4.7,16.2-5.3c6.1-0.6,8.7-1.2,13.9,0c5.2,1.2,9.5,2.2,13,3c3.5,0.8,6.1,1.2,10.1,0c4-1.2,6.7-3,9-5.3  c2.3-2.3,3.8-8.1,7.2-14.2c3.5-6.1,5.5-9.8,8.1-11.9c2.6-2,2.9-2.6,6.4,0c0,0,3,2.7,4.6,3.3c1.6,0.6,3.6,1.2,4.5,2.3  c0.9,1.2,1.3,2.2,3.2,3.5c1.9,1.3,3.5,1.3,4.7,1.3c1.2,0,1.9,1.5,3.5,1.5s4,0.4,6.7-0.4c2.7-0.8,5.4-2.6,7.1-4.5s4.4-6.2,4.4-6.2  S659.5,585,657.9,585.7z M645.7,536.3c0.9-0.5,6.1,1.2,6.1,1.2l0.9,1l-6.6,1l-1.4-1.9C644.7,537.4,644.8,536.8,645.7,536.3z   M609.8,533.6l-3.8,1.8c0,0,0.1-3.4,0.5-4.6c0.4-1.2,1-2.5,2.2-3.4c1.2-0.9,2.7-1.2,2.7-1.2L609.8,533.6z M624.9,529.2  c0,0,1.6-2.6,2.4-3c0.8-0.4,4.4-1,4.4-1l-4.1,4.8L624.9,529.2z M648.1,593.8c-1.4,0.2-5.8,0-5.8,0l1.9-3.2l7.2,1.6  C651.4,592.1,649.5,593.5,648.1,593.8z" style="fill:none;stroke:red;stroke-width:0.0001px"/><path d="M486.6,346.6c0,0,1.8-0.8,4.3-2.1c2.5-1.3,6.1-1.3,8.1-2.8  c2-1.5,6.3-5.3,10.1-7.3c3.8-2,26.5-16,28.9-18.5c2.5-2.5,3.1-2.8,6.6-8.8c3.5-6,3.8-6,1.7-5.8c-2.1,0.2-8.8,2.1-13.6,3.6  c-4.8,1.5-12.6,5.5-14.9,7.4c-2.3,2-7.2,6-8.6,8.3c-1.3,2.1-3,6.9-3,6.9s-4.6-0.6-5.5-2.9c-0.8-2.4-1.5-6.3-0.2-8.8  c1.3-2.5,5.8-8.9,5.8-8.9s-7.2,0.5-9.7,3c-2.5,2.5-4.8,9.3-5.8,11.4c-1,2.1-2.6,6.1-5.5,7.8s-6.9,2.1-9.8,3.1  c-2.8,1-7.1,3.3-7.6,5.8c-0.5,2.5,0.7,5.6,2,7.3c1.3,1.7,2.1,2,4.8,1.3c2.6-0.7,3.1-2.8,5.3-5c2.1-2.1,4.8-2.8,7.4-3.1  s4.5,0.8,4.5,0.8s-1.7,1.8-3.3,3.1C487.1,343.8,486.6,346.6,486.6,346.6z" style="fill:none;stroke:red;stroke-width:0.0001px"/><path d="M486.1,425.6c-0.7-1.8-2.4-3.1-3.4-5s-4.5-3.4-6.5-4.2  c-2-0.8-6.7,0.1-9,0c-2.3-0.1-4,1.2-5,2c-1,0.8,0.4,3.1,0.4,3.1s1.6,1.1,2.8,0.3c1.2-0.8,2.7-1.9,4.9-2.7c2.1-0.8,4.3,0.3,5.8,0  c1.5-0.3,3.6,1.5,4,2c0.4,0.5,0.5,2.8,0.4,4.2c-0.1,1.4-1.2,6.7-1.8,8.4c-0.5,1.6-6.1,5-8.2,6.6c-2.2,1.6-3.8,3.4-6.1,5.4  c-2.3,2-2.6,4-4,5.8c-1.5,1.8-2.1,3.8-4.2,8c-2,4.2-2.3,4-2.7,5.7c-0.3,1.2-0.2,1.6,0,1.7l-4.3-4.3c0,0,0,2,0.1,3  c0.1,0.9,0.7,3.2,0.7,3.2s-0.9,1.4-3.2,2.8c-2.3,1.5-3.9,1.3-6.9,0.8c-3-0.5-3.6-0.8-6.1-2c-2.4-1.2-5.9-6.2-6.2-8  c-0.3-1.8-0.3-5.6-0.3-5.6s-1.8,1.8-1.8,3.3c0,1.5,0,4.2-0.3,7.3c-0.3,3.1-0.7,3.1-0.7,3.1s-0.7,0.9-2.3,2.6s-2.6,2.8-3.2,4.3  c-0.7,1.5-1.3,3.5-1.3,3.5l4.8-2.3l0.8,0.7c0,0-2.8,2.3-3,4c-0.1,1.8-0.1,3.4,0,5c0.1,1.6,3.4,3.6,3.4,3.6s-0.1-4.3,0.8-5.9  c0.9-1.6,4-1.8,5.7-1.2c1.6,0.5,4.1,4,4.1,4s5.8,0.5,8.4,0.8c2.6,0.3,5,0.5,6.2,1.8c1.2,1.2,2,3,1.9,5.7c-0.1,2.7-1.9,4.1-1.9,4.1  s2.7-1,4-2.1c1.3-1.1,2.3-2.4,2.7-3.4c0.4-1,1.9-11,1.9-11l4.2,5.1c0,0,1.7-4.3,2.2-5.8s0.7-5.3,0.7-8c0-2.7,0-2.8,0.6-2.3  c0.7,0.5,2.6,4.9,2.6,4.9s1.4-2.2,2.4-5.1c1.1-3,1.8-9.3,2.6-12.8c0.8-3.5,2.3-4.8,4.7-7.7c2.4-2.8,5.4-6.7,8.2-9.2  c2.8-2.4,3-1.5,3.4-2.8C489.7,439.6,486.8,427.3,486.1,425.6z M483.9,438c-2.4,1.8-5.1,3.8-8.2,6.5c-3.1,2.7-5.3,5.1-8.4,9  c-3.1,3.9-4.5,8.6-5.1,10.8c-0.7,2.2-2.7,8.1-4.2,9.4c-1.5,1.3-5.3,4.2-8.2,4.9c-3,0.7-8.5,0.8-12.1,0.8s-6.6,0-9.4-2.4  c-0.9-0.8-1.8-4.7-1.8-4.7s3.2,2.7,5.1,3.5s6.2,0.7,8.6,0.5c2.4-0.1,8.9-0.8,11.2-2.3c2.3-1.5,4-3.4,5.5-6.2  c1.5-2.8,4.3-10.7,5.5-13.5c1.2-2.8,4.6-7.6,7.4-10.1c2.8-2.6,4.6-3.8,8-5.8s7.4-6.3,7.4-6.3S486.4,436.2,483.9,438z" style="fill:none;stroke:red;stroke-width:0.0001px"/><path d="M515.2,387.5c0,0-0.3-4.4,0.7-6.2s2.5-2.8,4.8-3.9s4.8-1,4.8-1  s1.3,0.8,1.1,4.2c-0.1,3.4-2.8,7.9-2.8,7.9l-1.3-6.7L515.2,387.5z" style="fill:none;stroke:red;stroke-width:0.0001px"/><path d="M649,751.8c-3.9,1.3-7.6,2.4-9.8,2.8c-4.9,1-21.5,3-28.3,3.5  c-6.8,0.5-20.1-1.2-28.7-2.7c-8.5-1.5-27.7-7.6-35.3-10.8c-7.6-3.2-20.3-10.1-26.2-15c-5.9-4.9-14.8-13.3-18.6-17.5  c-3.8-4.2-11.6-14.8-14.2-19.2c0,0-4.6-15.7-5.6-18.9c-1-3.3-4-12.6-4.5-16.5c-0.4-3.9-1.4-13.2-1.5-15.4c-0.1-2.2-0.2-8.6,0-12.8  c0.1-2.6,0.1-5.8,0.1-7.9c1-0.8,2-1.4,3.3-1.9c2.8-1.2,5.9-3.6,9.8-6.2c3.9-2.6,5.8-3.8,7.8-6.1c2-2.3,2.8-3.7,4.1-6.6  c1.2-2.7,3.1-6.3,3.3-6.8c-0.4,0.5-5,7.2-7.5,9.9c-2.6,2.8-6.1,5.5-7.8,6.8c-1.7,1.3-6.4,3.5-9.1,4.7c-1,0.4-2,0.8-3,1.2l0.5-3.6  c4-1.2,8.1-2.7,10.1-3.8c2.6-1.5,7.6-4.7,10.6-9.7c2-3.3,4.4-12.7,4.8-17.1c0.4-4.4-1.5-8.8-2.9-12.7c-1.3-3.5-5.5-7.8-8.4-9.8  c0.9-1.9,1.6-3.9,2.3-6c1.7-5.2,5.4-11.6,9.1-16.7c3.8-5.2,6.4-10.2,9.3-14.9c1.3-2,4.5-5.4,8.3-9.1c1.3-1.3,2.6-2.6,4-3.8  c3.6-3.4,7-6.7,9.2-8.9c5.2-5.5,10.7-8.1,15-11.6c4.3-3.5,10.4-8.4,14.2-12.7c1.8-2.1,4.5-4.4,7.1-6.6c2.1-1.8,4.2-3.6,5.9-5.2  c0.6-0.6,1.2-1.2,1.7-1.8c3.5-4,10.6-10,13.4-14.5c3.4-5.4,5.8-8.6,8.1-15.3s4.5-12.4,5.1-20.9c0.1-1,0.1-2.1,0.1-3.2  c0-2-0.2-4-0.4-6.1c-0.5-3.6-1.2-7.2-2-10.4c-1.2-5-3-8.4-9.5-17.1c-2.4-3.1-5.1-5.4-9-7.2c1-1.5,1.8-2.7,2.4-3.5  c2.4-3,17.5-15.4,18.1-15.9c-0.3,0.1-5.4,1.6-10.2,5.5c-5,4-5.3,1.8-10.6,8.7c-1.2,1.5-2.1,2.8-3,4c-0.8-0.3-1.6-0.5-2.5-0.8  c0,0-2.6,3.4-4.9,7.2l-1.9-2.3c0.5-0.9,1-1.6,1.4-2.2c2.5-3.7,13-13.7,15.4-15.2c2.4-1.5,15.9-10.4,16.3-10.7  c-0.4,0.1-10.9,3.4-13.9,4.4c-3,1-6.7-0.3-9.6-0.9c-2.9-0.6-2.6-1.8-2.6-1.8s5.9-0.8,8.8-1.8c2.9-1,10.2-5.9,13-8  c0.9-0.7,2.4-2.2,4-3.9c2.4,1.7,6.3,4.8,9,6.5c3.6,2.3,6.9,5.5,11.7,10c4.8,4.5,9.5,11.2,11,13.7c1.4,2.5,6.6,12.4,7.9,15.5  c1.3,3.2,3.5,9.4,4.7,15.6c1.2,6.2,1.3,9.8,1.3,16.5c0,6.7,0.2,12.5-0.7,18.9c-0.9,6.4-3,12.1-5.5,17.9c-2.5,5.7-5.4,10.3-9.1,15.5  c-3.7,5.2-9.1,11.4-12.8,15.8c-3.7,4.4-18.8,18.2-22.9,21c-4.1,2.8-13.7,10.7-13.7,10.7c-5,3.9-14,10.8-16.9,13.7  c-2.9,2.8-11.7,9.8-16.6,13.7c-4.9,3.9-11.6,11.7-14.4,14.9c-2.8,3.1-9.1,11-11.7,14.2c-2.6,3.2-10,15.9-12.1,18.9  c-2.2,2.9-5,11.7-6.5,14.8c-1.5,3.2-6,12.9-6.7,16.4c-0.8,3.5-2.3,15.5-2.3,15.5c-0.5,4.3-0.8,14.5-1,19.2  c-0.2,4.7,0.3,11.5,0.6,14.6c0.3,3.1,1.9,12.8,3.3,15.8c1.4,3,5.4,9.5,6.9,11.1c1.5,1.5,6,7.8,7.9,11.2c2,3.4,3.6,8,3.6,11.9  c0,3.9-2.1,5.4-1.2,4.9c0.9-0.5,2.6-2.9,2.6-2.9c1.2-2.6,3-6.9,3-8.5c0-1.6-2.3-7-3.1-8.5c-0.8-1.5-2.2-4.3-2.1-5.1  c0.1-0.7,1.1-0.6,2.1-0.3c1,0.4,2.3,1.6,4,3.5c1.7,1.9,3,4.5,4,6.4c1.1,1.9,3.1,6.7,4.2,9c1.1,2.3,2.3,4.3,4.2,8.1  c1.9,3.8,3,5,5.1,7.7c2.1,2.8,7.3,6.6,8.6,7.5c1.3,0.9,4.8,2.2,6.2,2.7c1.5,0.6,3.8,1.2,5.5,1.9c1.7,0.7,5.3,2.8,5.3,2.8  c1.3,0.9,2.3,1.8,5.9,4.6c3.5,2.7,1.7,1.2,2.7,2.1c1.3,1.2,1.6,2.3,1.7,2.7c0-0.1,0-0.1,0-0.2c0-1.1-0.2-3.5-0.9-5.9  c-0.4-1.5-1.2-2.4-2.2-4.1c-1-1.7-3.2-3.3-2.9-3.7c0.4-0.4,2-2,2.8-2.5c0.7-0.5,2.2-0.4,4.4,1.4c2.1,1.7,4.6,4,7.2,5.8  c2.6,1.8,6.3,4.5,11.3,7c5.1,2.5,7.3,2.7,11.1,3.2c3.8,0.5,7.4,0.3,11.9,0.1c4.5-0.2,7.1-0.7,10.4-1.2c3.3-0.6,7-2,9.2-2.2  C643.8,750,647.7,751.3,649,751.8z" style="fill:none;stroke:red;stroke-width:0.0001px"/><path d="M387.5,566.6c0,0-3-0.7-4.2-2c-1-1-2.5-4.2-2.5-4.2l6.3,3.1   L387.5,566.6z" style="fill:none;stroke:red;stroke-width:0.0001px"/><path d="M419.2,520.2c0,0-0.7,1-1.8,1.1c-1.1,0.1-2.3-0.5-3.1-1.7   c-0.8-1.1-3-2.8-3-2.8s3.2,0.4,4.6,1C417.4,518.5,419.2,520.2,419.2,520.2z" style="fill:none;stroke:red;stroke-width:0.0001px"/><path d="M440.1,525.8c0,0,0,0-1.4,0s-2.1-0.9-2.4-1.5   c-0.3-0.6-0.1-1.4-0.1-2.3c0-0.6,0.1-2.4,0.3-3.4c0.1-0.2,0.4-0.3,0.5,0L440.1,525.8z" style="fill:none;stroke:red;stroke-width:0.0001px"/><path d="M452.6,539.4c-0.2,0.7-1.7,2.8-1.7,2.8l-2.1-2.7l2.8-7.6   c0,0,1.2,2.4,1.4,3.3C453.2,536.2,452.8,538.7,452.6,539.4z" style="fill:none;stroke:red;stroke-width:0.0001px"/><path d="M808.4,690.1c-1.3,0.1-3.8,1.6-5.4,2.2  c-1.6,0.7-5.8,3.3-7.3,3.7s-2.2,0.4-3.4-1.2c-1.2-1.6-0.3-3.1-0.3-5.1c0-2,4.3-4.6,6-6.1s4.1-6.2,5.1-8c1-1.8,1.3-8.6,1.4-10.2  c0.1-1.5-2.2-10.6-3-13.3c-0.8-2.6-1-8.6-0.8-10.6c0.3-2,2-4.1,3.7-6.3c1.7-2.2,3.3-3.1,3.3-3.1s-1.4-0.8-2.5-0.8  c-1,0-9.1,1.6-10.7,3c-2.8,2.4-5.2,5.2-5.8,6.9c-0.8,2.4-1.6,8.6-1.7,10.1c-0.1,1.4-2.8,8.9-3.5,10.2c-0.8,1.3-4.2,3.7-7.5,2.9  c-3.3-0.8-5-3.9-6.2-5.9c-1.2-2-0.8-5.8-0.8-7.3s1.3-3,3.1-4.7c1.8-1.7,2-2.1,2-2.1s-2.7,0.1-6.8,1.6c-3.1,1.1-3.6,1.4-4.7,3.3  c-1,1.7-2.4,5.3-3.1,6.4c-1.4,2-2.4,3.3-4.2,4.4c-1.8,1.2-3.4,1.9-5.6,2.6c-1.6,0.5-2,0.6-3.7,1.2c-1.7,0.7-2.4,1.5-2.4,1.5  s3.9,3,5.1,3.9c1.2,0.9,6.9,3.5,10.2,4.6c3.3,1,7.3,1.7,10.7,2.2c3.4,0.5,6.8,1.4,9.4,2.4c2.5,0.9,4,2.9,4.8,4.2  c0.8,1.3,0.8,5.4,0.8,6.9s-2.3,7.6-3.9,10.9c-1.6,3.3-5.5,9.3-8.4,14.5c-1.6,2.9-2.2,3.9-2.3,4.2c0.6-0.1,8.3-2,10-2.6  c1.8-0.6,10.3-2.9,13.3-4.2c3-1.3,6-3.8,7.1-5c1-1.2,4.7-8.2,6-10.1c1.3-1.8,4.1-4.2,5.1-5.6c1-1.4,2.9-1.4,2.9-1.4  S809.7,690,808.4,690.1z M762.8,663.7c0,0-1.4-3.5-1.2-5.1c0.3-1.6,0.6-5.7,1.4-6.3c0.8-0.7,2.6-1.4,2.6-1.4L762.8,663.7z   M788.6,663.7c0.8-1.7,1.2-4,1.8-6.4c0.7-2.3,0.3-5.9,0.7-8c0.4-2.1,1-5.4,2.1-6.8c1-1.4,3.5-4.1,3.5-4.1s0.3,1.3-0.2,2.9  c-0.9,2.7-0.3,6,1.1,9.5c1.3,3.5,1.8,6.3,2.1,8.2c0.3,2,0.4,3.8,0,6.3c-0.4,2.6-1.1,6.1-1.8,7.7c-0.8,1.6-2.8,2.8-2.8,2.8  s0.7-3.1,1.3-4.3c0.6-1.2,0.8-4,1.2-6.1c0.4-2.1,0.7-4.9-0.3-7.5c-0.9-2.6-2-5.6-2.3-7.1s-0.9-4.2-0.9-4.2s-0.6,5.4-1,7.8  c-0.4,2.5-0.9,5.9-1.3,7.5c-0.4,1.6-1.7,4.1-2.5,4.7c-0.8,0.7-4.5,1.7-4.5,1.7S787.8,665.4,788.6,663.7z M801.8,697.7  c-1.2,1-1.8,3.4-4.3,5.1c-2.5,1.7-3.6,2.8-5.2,3.5c-1.7,0.8-3.3,0.7-3.3,0.7s3-1.6,4.2-2.8c1.2-1.2,3.3-3.7,4.2-4.6  c0.9-0.9,3-3.1,4-4c1-0.9,3.8-2.9,3.8-2.9l0.8,1.2C806,693.9,803,696.7,801.8,697.7z" style="fill:none;stroke:red;stroke-width:0.0001px"/><path d="M483.9,438c-2.4,1.8-5.1,3.8-8.2,6.5c-3.1,2.7-5.3,5.1-8.4,9  c-3.1,3.9-4.5,8.6-5.1,10.8c-0.7,2.2-2.7,8.1-4.2,9.4c-1.5,1.3-5.3,4.2-8.2,4.9c-3,0.7-8.5,0.8-12.1,0.8s-6.6,0-9.4-2.4  c-0.9-0.8-1.8-4.7-1.8-4.7s3.2,2.7,5.1,3.5s6.2,0.7,8.6,0.5c2.4-0.1,8.9-0.8,11.2-2.3c2.3-1.5,4-3.4,5.5-6.2  c1.5-2.8,4.3-10.7,5.5-13.5c1.2-2.8,4.6-7.6,7.4-10.1c2.8-2.6,4.6-3.8,8-5.8s7.4-6.3,7.4-6.3S486.4,436.2,483.9,438z" style="fill:none;stroke:red;stroke-width:0.0001px"/><path d="M808.4,690.1c-1.3,0.1-3.8,1.6-5.4,2.2  c-1.6,0.7-5.8,3.3-7.3,3.7s-2.2,0.4-3.4-1.2c-1.2-1.6-0.3-3.1-0.3-5.1c0-2,4.3-4.6,6-6.1s4.1-6.2,5.1-8c1-1.8,1.3-8.6,1.4-10.2  c0.1-1.5-2.2-10.6-3-13.3c-0.8-2.6-1-8.6-0.8-10.6c0.3-2,2-4.1,3.7-6.3c1.7-2.2,3.3-3.1,3.3-3.1s-1.4-0.8-2.5-0.8  c-1,0-9.1,1.6-10.7,3c-2.8,2.4-5.2,5.2-5.8,6.9c-0.8,2.4-1.6,8.6-1.7,10.1c-0.1,1.4-2.8,8.9-3.5,10.2c-0.8,1.3-4.2,3.7-7.5,2.9  c-3.3-0.8-5-3.9-6.2-5.9c-1.2-2-0.8-5.8-0.8-7.3s1.3-3,3.1-4.7c1.8-1.7,2-2.1,2-2.1s-2.7,0.1-6.8,1.6c-3.1,1.1-3.6,1.4-4.7,3.3  c-1,1.7-2.4,5.3-3.1,6.4c-1.4,2-2.4,3.3-4.2,4.4c-1.8,1.2-3.4,1.9-5.6,2.6c-1.6,0.5-2,0.6-3.7,1.2c-1.7,0.7-2.4,1.5-2.4,1.5  s3.9,3,5.1,3.9c1.2,0.9,6.9,3.5,10.2,4.6c3.3,1,7.3,1.7,10.7,2.2c3.4,0.5,6.8,1.4,9.4,2.4c2.5,0.9,4,2.9,4.8,4.2  c0.8,1.3,0.8,5.4,0.8,6.9s-2.3,7.6-3.9,10.9c-1.6,3.3-5.5,9.3-8.4,14.5c-1.6,2.9-2.2,3.9-2.3,4.2c0.6-0.1,8.3-2,10-2.6  c1.8-0.6,10.3-2.9,13.3-4.2c3-1.3,6-3.8,7.1-5c1-1.2,4.7-8.2,6-10.1c1.3-1.8,4.1-4.2,5.1-5.6c1-1.4,2.9-1.4,2.9-1.4  S809.7,690,808.4,690.1z M762.8,663.7c0,0-1.4-3.5-1.2-5.1c0.3-1.6,0.6-5.7,1.4-6.3c0.8-0.7,2.6-1.4,2.6-1.4L762.8,663.7z   M788.6,663.7c0.8-1.7,1.2-4,1.8-6.4c0.7-2.3,0.3-5.9,0.7-8c0.4-2.1,1-5.4,2.1-6.8c1-1.4,3.5-4.1,3.5-4.1s0.3,1.3-0.2,2.9  c-0.9,2.7-0.3,6,1.1,9.5c1.3,3.5,1.8,6.3,2.1,8.2c0.3,2,0.4,3.8,0,6.3c-0.4,2.6-1.1,6.1-1.8,7.7c-0.8,1.6-2.8,2.8-2.8,2.8  s0.7-3.1,1.3-4.3c0.6-1.2,0.8-4,1.2-6.1c0.4-2.1,0.7-4.9-0.3-7.5c-0.9-2.6-2-5.6-2.3-7.1s-0.9-4.2-0.9-4.2s-0.6,5.4-1,7.8  c-0.4,2.5-0.9,5.9-1.3,7.5c-0.4,1.6-1.7,4.1-2.5,4.7c-0.8,0.7-4.5,1.7-4.5,1.7S787.8,665.4,788.6,663.7z M801.8,697.7  c-1.2,1-1.8,3.4-4.3,5.1c-2.5,1.7-3.6,2.8-5.2,3.5c-1.7,0.8-3.3,0.7-3.3,0.7s3-1.6,4.2-2.8c1.2-1.2,3.3-3.7,4.2-4.6  c0.9-0.9,3-3.1,4-4c1-0.9,3.8-2.9,3.8-2.9l0.8,1.2C806,693.9,803,696.7,801.8,697.7z" style="fill:none;stroke:red;stroke-width:0.0001px"/><path d="M483.9,438c-2.4,1.8-5.1,3.8-8.2,6.5c-3.1,2.7-5.3,5.1-8.4,9  c-3.1,3.9-4.5,8.6-5.1,10.8c-0.7,2.2-2.7,8.1-4.2,9.4c-1.5,1.3-5.3,4.2-8.2,4.9c-3,0.7-8.5,0.8-12.1,0.8s-6.6,0-9.4-2.4  c-0.9-0.8-1.8-4.7-1.8-4.7s3.2,2.7,5.1,3.5s6.2,0.7,8.6,0.5c2.4-0.1,8.9-0.8,11.2-2.3c2.3-1.5,4-3.4,5.5-6.2  c1.5-2.8,4.3-10.7,5.5-13.5c1.2-2.8,4.6-7.6,7.4-10.1c2.8-2.6,4.6-3.8,8-5.8s7.4-6.3,7.4-6.3S486.4,436.2,483.9,438z" style="fill:none;stroke:red;stroke-width:0.0001px"/><path d="M821.9,538.9c1,0.6,1.8,1.1,2.5,1.4c-2.3,0.9-4.8,2.4-6.9,3.7  c-2.4,1.5-4.6,3.8-5.7,5.7c-0.3,0.5-0.6,1.2-0.8,1.8c-1-0.1-1.8-0.3-2.2-0.5c-2-1.1-11.7-9.5-14.7-13.9c-3-4.4-8.4-15-10.2-18.6  c-1.8-3.7-11.6-23.4-13.5-26.5c-1.9-3.1-8.1-8.7-11.5-11c-3.4-2.2-9.5-4.2-12.3-4.9c-2.8-0.7-10.3-0.3-14.2,1.5  c-3.5,1.6-8.6,5.1-9.5,5.7c0.3-0.2,1-0.6,2-1c-1.5,0.8-2.8,1.6-3.6,2.5c-3.3,3.7-2.2,2.2-5.2,7c-3,4.8-3.1,10.3-4,14.5  c-0.9,4.2,0,11.2,1.2,18.7c1.2,7.5,4,13.7,7.2,22.8c0.9,2.6,1.6,4.4,2.1,5.5c-0.3,0.3-0.6,0.6-0.8,1c-0.9,1.8-0.4,3.3-0.1,5.9  c0.2,2.6,0.5,3.4-0.6,5.8c-1.1,2.4-1.3,3.8-1.8,2.6c-0.5-1.2-4-6.4-4.9-8.7c-0.9-2.3-7.2-16.1-7.8-18.7c-0.6-2.6-3.3-12.4-3.9-14.5  c-0.6-2.1-1.9-9-2.2-12.1c-0.3-3.2,0.2-6,0.2-10.1s0-8.2,1.1-11.7c1.1-3.4,1.9-8.8,2.9-11.1c1.1-2.2,5.8-12.1,7.7-15  c1.9-2.8,7.4-7.3,9.9-9.4c2.5-2.1,10.6-6.1,14.9-6.6c4.4-0.5,10.5-1.4,14-0.9c3.5,0.5,9.7,2.9,11.7,4s9.3,6.2,10.7,7.7  c1.4,1.4,9.3,10.4,10.6,12.6c1.3,2.2,4.5,7.8,5.4,9.7c0.9,1.9,4.1,8.1,4.8,10.7c0.7,2.6,3.8,9.9,4.7,12.8c0.9,2.9,5.3,12.5,7.1,15.5  c1.8,3.1,7,9.1,7,9.1C815.7,534.3,817.5,536.1,821.9,538.9z" style="fill:none;stroke:red;stroke-width:0.0001px"/><path d="M904.7,466.9c-0.1,1.9-4.1,25.5-4.7,28.6  c-0.6,3.1-3.3,11.8-4,14.7s-7.4,14-8.9,17.4c-1.5,3.4-10.3,12.9-14,16.1c-3.6,3.2-10.6,7.5-13.4,9.3c-0.5,0.3-1.1,0.6-1.9,0.8l0,0  l-0.8,0.2c-1.2-1.6-2.2-3-2.5-3.4c-0.6-1-4.8-4.6-5.8-5.6c-0.1,0-0.1,0-0.1,0.1c0.5,1,2.2,4,2.8,5.3c0.5,1,1.2,2.7,1.9,4.4  c0,0,0,0,0,0l-2.9,0.7c0-0.1-0.1-0.2-0.1-0.3c-0.5-1.6-1.1-3-1.5-4c-1.6-3.6-3.4-5.6-5.5-7.8c-0.7-0.7-1.2-1.3-1.8-1.8  c1.1-0.3,2.2-0.7,3.5-1.1c4.7-1.4,8-4.4,11.5-7.1s6.7-6,9.9-10.2c3.2-4.1,4-6.6,6.7-12.1c2.7-5.5,5.2-17.2,5.8-20.4  c0.6-3.2,1.3-17,1.4-20.7c0.1-3.8,0-17.3,0-21.9c0-4.6-2.5-16.1-3.9-20.1c-1.4-4-1.9-5.2-2.6-7.1c-0.7-1.9-8.2-17.2-9.5-19.1  c-0.8-1.2-3.1-3.4-4.8-4.9c-2.7-4.6-5.7-9.5-7.3-11.5c-3.2-3.9-15.5-17.2-18.3-19.3c-2.8-2.1-11.2-7.5-14.7-9.2s-16-8-19.4-9.2  c-3.4-1.2-7-1.9-8.7-3c-1.7-1.1-0.9-2.2-0.8-3.7c0.1-1.5,3.3-0.6,6-0.9c2.7-0.3,7.2,0.4,9.4,0.7s16.2,4.5,19.3,5.8  c3.1,1.3,15.4,8.1,18.7,10.2c3.3,2.1,10,7,13.9,10c3.9,3,11,9.9,13.3,12.6c2.2,2.7,7.2,8.2,9.5,11.8c2.3,3.6,11.2,17,12.5,19.9  c1.3,2.8,5.2,16,7.3,23.9c2.1,7.9,3.9,16.5,4.5,22.7C904.9,460,904.9,463.4,904.7,466.9" style="fill:none;stroke:red;stroke-width:0.0001px"/><path d="M677.1,566c-1.5,0.3-3.5,0.6-5,0.7c-1.6,0.1-4.7-0.1-6.7-0.3  c-1.5-4.8-2.8-9.2-3.7-13.4c-2-9.4-5-19.2-5.4-28c-0.3-8.8-0.4-16.2,1-24.3c1.3-7.7,10.2-27.7,11.1-29.7c0,0,0-0.1,0-0.1  c0,0,0,0,0,0c-0.2,0.7-3.6,12.5-4.8,24.6c-1,10.2-1.2,16,0.1,25.8c1.3,9.8,5,20.2,8.7,31.6C673.8,557,675.5,561.6,677.1,566z" style="fill:none;stroke:red;stroke-width:0.0001px"/><path d="M581,685.4c5.1,3.3,15.9,6.1,21.7,6.9l-0.3,9.5  c-3.9-1.2-7.5-2.5-9.9-3.5c-6.4-2.7-11.2-3.8-17.3-9.2c-5.5-4.9-17-19.4-19.1-22.1c-0.1-0.1-0.2-0.3-0.3-0.4  C563.1,673,575.3,681.7,581,685.4z" style="fill:none;stroke:red;stroke-width:0.0001px"/><path d="M659.1,691.1c0.5,0.6,2.1,1.7,3.6,2.6c-3,1.8-6.1,3.4-9.4,4.9  c-7.4,3.4-26.4,7.1-33,6.9c-3.3-0.1-7.9-1-12.6-2.2l0.4-10.9c7.2-0.5,20.5-2.5,24.9-3.9c4.2-1.3,11.9-5.8,17.3-9.6  c1.6,2.9,3.8,6.8,4.2,7.3C655.1,686.9,658,689.9,659.1,691.1z" style="fill:none;stroke:red;stroke-width:0.0001px"/><path d="M671.1,585.8c-1.3-5.1-2.7-9.8-4.1-14.1  c1.3,0.1,2.4,0.2,2.8,0.2c1,0,5.6-0.1,6.8-0.3c0.5-0.1,1.5-0.5,2.3-0.9c2.2,5.6,4.1,10.4,4.9,13.1c1.7,5.4,6.1,18.2,7.7,27.2  c1.1,5.8,1.9,11.4,2.2,16.7c-1,0.1-2.1,0.2-2.9,0.2c-2.3,0.2-5.9-0.2-8.2-0.4c-2-0.2-2.1-0.6-6.4-1.9c0.1-1.4,0.1-2.8,0.1-4  C676.3,612.3,674.5,598.9,671.1,585.8z" style="fill:none;stroke:red;stroke-width:0.0001px"/><path d="M694,633.7c0,0.9,0,1.7,0,2.6c-0.3,8.5-2.5,19.2-5.4,26.6  c-3,7.4-9.7,15.8-15.4,22.2c-1.4,1.5-2.8,2.9-4.3,4.2c-1.7-0.8-3.3-1.5-3.9-1.9c-1.4-0.8-4.6-4.8-5.9-6.2c-0.7-0.8-2.5-3.6-3.9-5.9  c0,0,0.1-0.1,0.1-0.1c4-3.7,13.9-14.1,16.9-22.9c2-5.8,3.2-13.9,3.8-21c0.6,0.2,1.3,0.4,2.1,0.6c4.1,1.2,3.1,0.6,6.9,1.4  s4,0.6,6.7,0.6C692.4,633.9,693.2,633.9,694,633.7z" style="fill:none;stroke:red;stroke-width:0.0001px"/><path d="M497.3,603.7c-2.6,2.8-6.1,5.5-7.8,6.8  c-1.7,1.3-6.4,3.5-9.1,4.7c-1,0.4-2,0.8-3,1.2c-1.9,0.7-3.8,1.4-5.8,1.8c-3,0.8-7.2,1-9.7,1.5c-2.5,0.4-7.8,1.3-10.7,2  s-7.3,1.6-10.2,2.3c-2.9,0.7-5.1,1-7.5,1.6c-3.1,0.8-4.4,1.8-7.1,1.3c-2.7-0.4-4-1-5.8-2.5c-1.8-1.5-2.6-2.1-4-5.1  c-1.4-3-0.7-4.9-1-7.7c-0.3-2.8-0.4-5.8-0.5-8.7s-0.5-8.5-0.5-8.5s-2.2,2.6-4.2,3.7c-2.1,1.1-5.5,3-7.9,3.2c-2.4,0.2-6,0.8-7.2,1.5  c0,0-2.7,1.2-4.1,2.6c-1.4,1.4-2.7,2.4-3.5,5c-0.8,2.6-1.6,6.3-2.9,8.1c-1.3,1.8-2.6,3.5-4,4.9c-1.4,1.4-2.3,2.9-3.3,3.5  c-1,0.5-3,2-3,2s1.7,0.9,4.1,0.5c2.4-0.3,3.9-1.2,6-2.1c2.1-0.9,5.5-2.2,7.1-4c1.5-1.8,3.9-5.2,6.4-6.3c2.5-1.1,5.9-0.9,7.3-0.1  c1.4,0.8,3.8,2.1,4.1,4.4c0.3,2.4-0.5,5-1.3,6.2c-0.8,1.2-4.3,3.1-6.1,4c-1.7,0.9-8.8,3.3-12.2,5.1c-3.5,1.8-8.5,6.2-9.7,8.5  c-1.2,2.3-2.5,6.7-2.7,8.2c-0.1,1.5-0.5,5.2,0,7.2c0.5,2,3.5,6.9,4.3,8c0.8,1.1,2,2,2,2s0.3-1.3,1.5-4.3c1.2-3,2.6-4.9,4.7-6.4  c2.1-1.5,4.7-3.7,7-4.2c2.4-0.5,7.3-1.2,9.9-1.3c2.6-0.1,6.3-0.3,8.6-0.3c1.8,0,6.2-0.5,8.6-1.3c2.4-0.8,5.4-2.7,6.9-4.8  c1.5-2.1,4.2-4.2,6.4-6c2.2-1.7,4.1-4.1,5.9-4.3c1.7-0.2,4.4-0.7,5.9,1.1c1.4,1.7,3.4,3.6,3.1,6.3c-0.2,2.7,0,3.2-0.5,5  c-0.5,1.8-1.3,4-2.6,5.9c-1.3,1.8-2.8,2.6-5,3.9c-2.2,1.3-3.5,2.4-3.5,2.4s-0.6,0.6,4.4-0.3c5-1,7.9-2.3,9.4-4.3  c1.5-2.1,3.6-3.8,5-7c1.4-3.2,3.7-7.9,4.9-10.5c0.7-1.5,1.4-2.8,2.1-4.1c0.6-1,1.1-2.1,1.6-3.2c1.2-2.7,3.5-6.1,5.3-8.1  c0.9-0.9,1.7-1.8,2.7-2.6c0.2-0.2,0.4-0.3,0.5-0.4c1-0.8,2-1.4,3.3-1.9c2.8-1.2,5.9-3.6,9.8-6.2c3.9-2.6,5.8-3.8,7.8-6.1  c2-2.3,2.8-3.7,4.1-6.6c1.2-2.7,3.1-6.3,3.3-6.8C504.4,594.3,499.8,601,497.3,603.7z M403.2,609c-1,0.2-5.4,2-6.8,3  c-1.1,0.7-2.9,2.7-3.9,3.8c-1.2,1.3-1.7,2.1-2.6,3.5c-0.9,1.4-2.5,3.8-2.5,3.8c0-0.1,0.7-2.1,0.8-2.4c0.7-2.3,1.5-4.2,2.9-6.2  c1.5-2.1,4.2-3.9,6.1-5c1.6-0.9,2.8-1.3,5.5-1.6c2.7-0.2,4.2,1,4.2,1S404.2,608.7,403.2,609z M419.7,645.7c-1.8,0.8-2,0.8-5.4,1.8  c-3.4,1-5.2,1.3-7.9,1.5c-2.7,0.1-4.7,0.5-6.5,0.6c-1.8,0.1-4.1,0.4-5.8,1.1c-1.5,0.6-3.1,1.1-4.6,2c-2.4,1.4-4.8,4.9-4.8,4.9  s-1-1.8-0.9-4.3c0.1-2.5,1.5-5.2,2.6-6.5c1.3-1.5,3.1-3.5,4.7-4.3c2-1,4-2,6.7-2.8c2-0.6,3.7-1.1,5.9-2.1c2.5-1.1,3.9-1.5,5.7-2.4  c1.7-0.9,3.9-1.5,3.9-1.5s1.1-0.5-1.3,1.5c-2.4,2-3.1,2.6-5,3.2c-2.6,0.9-5.3,1.8-7,2.6c-1.9,0.9-2,0.8-4.3,1.9  c-2.3,1.1-3.1,1-4.7,2.3c-1.6,1.2-2.8,2.8-3.2,3.6c-0.5,0.9-1.2,3.1-1.6,3.8c0,0,0,0.1,0.1,0.1c0.5-0.4,2-1.8,4.3-2.9  c3.3-1.6,5.9-2.3,6.7-2.4c2.9-0.3,6-0.8,7.6-0.8s4.7-0.3,6-0.4c2.3-0.1,3.3-0.7,5.6-1.2c2.5-0.6,2.8-0.8,4.6-1.7  c1.5-0.8,3.4-1.7,3.4-1.7S421.6,644.9,419.7,645.7z M458.4,644.8c-0.3,3.3-0.5,3.6-2,5.7c-1.3,2-2.9,3.1-3,3.2  c0.1-0.1,0.5-1.2,1.2-3.1c0.6-2.1,1.3-4.1,1.8-6.7c0.5-2.6,0.3-5.3,0-6.7c-0.3-1.4,0.3-3.1,0.3-3.1s2.4,2.7,2.5,5  C459.3,641.3,458.7,641.5,458.4,644.8z" style="fill:none;stroke:red;stroke-width:0.0001px"/><path d="M518.2,365.8c0,0,5.2-8.2,9.5-13c0,0,5.1-3.5,9.1-5.3  c4-1.8,16.7-6.8,20.2-8.4c3.5-1.7,15-6.4,18.5-8.8s10.9-7.4,14.4-10.4c3.5-3,11.2-10.6,13.4-12.9c2.1-2.3,9.9-11.9,12.7-14.2  s7.1-6.6,11.2-8.6s8.6-3.1,13.4-4.3c4.8-1.2,7.1-4.3,7.1-5.5c0-1.2-3.1-4.6-6-4.8c-2.8-0.2-15.5,2-15.5,2l2.8,6.4l-5.8-5.3  c0,0-8.4,4.1-12.1,6.6s-9.4,8.6-9.4,8.6l4.3,6.8l-6.8-5L582.1,305c0,0,1.5,5.3,1.7,6.4c0.2,1.2-0.8,6.9-0.8,6.9s-1-5.8-2.4-7.3  s-3-3.1-3-3.1s-7.1,4.5-10.1,5.6c-3,1.2-13.4,4.8-13.4,4.8s0.5,2.1,1.7,4.5c1.2,2.3-0.2,9.8-0.2,9.8l-4.5-9.9c0,0-8.4,7.3-10.9,9.1  c-2.5,1.8-8.3,3.5-8.3,3.5s9.3-7.6,11.4-9.6c2.1-2,8.3-11.1,9.9-13.4s3.1-6.8,3.5-9.8s-0.3-4.1-1.8-4.1c-1.5,0-2.3,0.3-3.3,3.5  c-1,3.1-2,7.6-3.6,9.6s-5.6,6.4-7.8,8.3c-2.1,1.8-22.1,13.4-22.1,13.4l6.4,8.6c0,0-7.6-5.3-10.4-5.3c-2.8,0-12.6,6.9-12.6,6.9  s6,3.5,9.8,4.1s9.9-0.8,9.9-0.8s-0.7,5.6-1.8,8.4c-1.2,2.8-6.8,7.1-6.8,7.1l6-1.2L518.2,365.8z" style="fill:none;stroke:red;stroke-width:0.0001px"/><path d="M467.8,422.5c0,0,2.7-0.8,5-1.2c2.3-0.4,5.1,0,5.1,0  s1.1,6.1,0.5,7.8c-0.5,1.7-3.4,3.2-5.3,4.9c-1.9,1.8-7.6,7-9.6,9.3c-2,2.3-6.5,9.4-7.6,11.7c-1.1,2.2-4.5,6.7-4.5,6.7l-1.5-6.7  c0,0-2,3.3-2.3,4.8c-0.3,1.5,0.4,5.5,0,6.9c-0.4,1.3-1.2,3.4-3.6,4.2c-2.4,0.8-5.9-0.6-8.1-2c-2.2-1.5-4.3-2.8-4.4-4.4  s1.1-2.8,3.1-4.4s8.6-6.7,8.6-6.7l1.9,3.7l6.4-8l1.3,2.3c0,0,4-3.1,4.7-4c0.7-0.9,0.9-3.1,2.1-4.6s6.4-4.2,8.1-5.9  c1.8-1.8,3.9-5,4-6.2s-0.1-3.8-1.2-5S467.8,422.5,467.8,422.5z" style="fill:none;stroke:red;stroke-width:0.0001px"/><path d="M821.9,538.9c1,0.6,1.8,1.1,2.5,1.4c-2.3,0.9-4.8,2.4-6.9,3.7  c-2.4,1.5-4.6,3.8-5.7,5.7c-0.3,0.5-0.6,1.2-0.8,1.8c-1-0.1-1.8-0.3-2.2-0.5c-2-1.1-11.7-9.5-14.7-13.9c-3-4.4-8.4-15-10.2-18.6  c-1.8-3.7-11.6-23.4-13.5-26.5c-1.9-3.1-8.1-8.7-11.5-11c-3.4-2.2-9.5-4.2-12.3-4.9c-2.8-0.7-10.3-0.3-14.2,1.5  c-3.5,1.6-8.6,5.1-9.5,5.7c0.3-0.2,1-0.6,2-1c-1.5,0.8-2.8,1.6-3.6,2.5c-3.3,3.7-2.2,2.2-5.2,7c-3,4.8-3.1,10.3-4,14.5  c-0.9,4.2,0,11.2,1.2,18.7c1.2,7.5,4,13.7,7.2,22.8c0.9,2.6,1.6,4.4,2.1,5.5c-0.3,0.3-0.6,0.6-0.8,1c-0.9,1.8-0.4,3.3-0.1,5.9  c0.2,2.6,0.5,3.4-0.6,5.8c-1.1,2.4-1.3,3.8-1.8,2.6c-0.5-1.2-4-6.4-4.9-8.7c-0.9-2.3-7.2-16.1-7.8-18.7c-0.6-2.6-3.3-12.4-3.9-14.5  c-0.6-2.1-1.9-9-2.2-12.1c-0.3-3.2,0.2-6,0.2-10.1s0-8.2,1.1-11.7c1.1-3.4,1.9-8.8,2.9-11.1c1.1-2.2,5.8-12.1,7.7-15  c1.9-2.8,7.4-7.3,9.9-9.4c2.5-2.1,10.6-6.1,14.9-6.6c4.4-0.5,10.5-1.4,14-0.9c3.5,0.5,9.7,2.9,11.7,4s9.3,6.2,10.7,7.7  c1.4,1.4,9.3,10.4,10.6,12.6c1.3,2.2,4.5,7.8,5.4,9.7c0.9,1.9,4.1,8.1,4.8,10.7c0.7,2.6,3.8,9.9,4.7,12.8c0.9,2.9,5.3,12.5,7.1,15.5  c1.8,3.1,7,9.1,7,9.1C815.7,534.3,817.5,536.1,821.9,538.9z" style="fill:none;stroke:red;stroke-width:0.0001px"/><path d="M904.7,466.9c-0.1,1.9-4.1,25.5-4.7,28.6  c-0.6,3.1-3.3,11.8-4,14.7s-7.4,14-8.9,17.4c-1.5,3.4-10.3,12.9-14,16.1c-3.6,3.2-10.6,7.5-13.4,9.3c-0.5,0.3-1.1,0.6-1.9,0.8l0,0  l-0.8,0.2c-1.2-1.6-2.2-3-2.5-3.4c-0.6-1-4.8-4.6-5.8-5.6c-0.1,0-0.1,0-0.1,0.1c0.5,1,2.2,4,2.8,5.3c0.5,1,1.2,2.7,1.9,4.4  c0,0,0,0,0,0l-2.9,0.7c0-0.1-0.1-0.2-0.1-0.3c-0.5-1.6-1.1-3-1.5-4c-1.6-3.6-3.4-5.6-5.5-7.8c-0.7-0.7-1.2-1.3-1.8-1.8  c1.1-0.3,2.2-0.7,3.5-1.1c4.7-1.4,8-4.4,11.5-7.1s6.7-6,9.9-10.2c3.2-4.1,4-6.6,6.7-12.1c2.7-5.5,5.2-17.2,5.8-20.4  c0.6-3.2,1.3-17,1.4-20.7c0.1-3.8,0-17.3,0-21.9c0-4.6-2.5-16.1-3.9-20.1c-1.4-4-1.9-5.2-2.6-7.1c-0.7-1.9-8.2-17.2-9.5-19.1  c-0.8-1.2-3.1-3.4-4.8-4.9c-2.7-4.6-5.7-9.5-7.3-11.5c-3.2-3.9-15.5-17.2-18.3-19.3c-2.8-2.1-11.2-7.5-14.7-9.2s-16-8-19.4-9.2  c-3.4-1.2-7-1.9-8.7-3c-1.7-1.1-0.9-2.2-0.8-3.7c0.1-1.5,3.3-0.6,6-0.9c2.7-0.3,7.2,0.4,9.4,0.7s16.2,4.5,19.3,5.8  c3.1,1.3,15.4,8.1,18.7,10.2c3.3,2.1,10,7,13.9,10c3.9,3,11,9.9,13.3,12.6c2.2,2.7,7.2,8.2,9.5,11.8c2.3,3.6,11.2,17,12.5,19.9  c1.3,2.8,5.2,16,7.3,23.9c2.1,7.9,3.9,16.5,4.5,22.7C904.9,460,904.9,463.4,904.7,466.9" style="fill:none;stroke:red;stroke-width:0.0001px"/><path d="M677.1,566c-1.5,0.3-3.5,0.6-5,0.7c-1.6,0.1-4.7-0.1-6.7-0.3  c-1.5-4.8-2.8-9.2-3.7-13.4c-2-9.4-5-19.2-5.4-28c-0.3-8.8-0.4-16.2,1-24.3c1.3-7.7,10.2-27.7,11.1-29.7c0,0,0-0.1,0-0.1  c0,0,0,0,0,0c-0.2,0.7-3.6,12.5-4.8,24.6c-1,10.2-1.2,16,0.1,25.8c1.3,9.8,5,20.2,8.7,31.6C673.8,557,675.5,561.6,677.1,566z" style="fill:none;stroke:red;stroke-width:0.0001px"/><path d="M581,685.4c5.1,3.3,15.9,6.1,21.7,6.9l-0.3,9.5  c-3.9-1.2-7.5-2.5-9.9-3.5c-6.4-2.7-11.2-3.8-17.3-9.2c-5.5-4.9-17-19.4-19.1-22.1c-0.1-0.1-0.2-0.3-0.3-0.4  C563.1,673,575.3,681.7,581,685.4z" style="fill:none;stroke:red;stroke-width:0.0001px"/><path d="M659.1,691.1c0.5,0.6,2.1,1.7,3.6,2.6c-3,1.8-6.1,3.4-9.4,4.9  c-7.4,3.4-26.4,7.1-33,6.9c-3.3-0.1-7.9-1-12.6-2.2l0.4-10.9c7.2-0.5,20.5-2.5,24.9-3.9c4.2-1.3,11.9-5.8,17.3-9.6  c1.6,2.9,3.8,6.8,4.2,7.3C655.1,686.9,658,689.9,659.1,691.1z" style="fill:none;stroke:red;stroke-width:0.0001px"/><path d="M671.1,585.8c-1.3-5.1-2.7-9.8-4.1-14.1  c1.3,0.1,2.4,0.2,2.8,0.2c1,0,5.6-0.1,6.8-0.3c0.5-0.1,1.5-0.5,2.3-0.9c2.2,5.6,4.1,10.4,4.9,13.1c1.7,5.4,6.1,18.2,7.7,27.2  c1.1,5.8,1.9,11.4,2.2,16.7c-1,0.1-2.1,0.2-2.9,0.2c-2.3,0.2-5.9-0.2-8.2-0.4c-2-0.2-2.1-0.6-6.4-1.9c0.1-1.4,0.1-2.8,0.1-4  C676.3,612.3,674.5,598.9,671.1,585.8z" style="fill:none;stroke:red;stroke-width:0.0001px"/><path d="M694,633.7c0,0.9,0,1.7,0,2.6c-0.3,8.5-2.5,19.2-5.4,26.6  c-3,7.4-9.7,15.8-15.4,22.2c-1.4,1.5-2.8,2.9-4.3,4.2c-1.7-0.8-3.3-1.5-3.9-1.9c-1.4-0.8-4.6-4.8-5.9-6.2c-0.7-0.8-2.5-3.6-3.9-5.9  c0,0,0.1-0.1,0.1-0.1c4-3.7,13.9-14.1,16.9-22.9c2-5.8,3.2-13.9,3.8-21c0.6,0.2,1.3,0.4,2.1,0.6c4.1,1.2,3.1,0.6,6.9,1.4  s4,0.6,6.7,0.6C692.4,633.9,693.2,633.9,694,633.7z" style="fill:none;stroke:red;stroke-width:0.0001px"/><path d="M497.3,603.7c-2.6,2.8-6.1,5.5-7.8,6.8  c-1.7,1.3-6.4,3.5-9.1,4.7c-1,0.4-2,0.8-3,1.2c-1.9,0.7-3.8,1.4-5.8,1.8c-3,0.8-7.2,1-9.7,1.5c-2.5,0.4-7.8,1.3-10.7,2  s-7.3,1.6-10.2,2.3c-2.9,0.7-5.1,1-7.5,1.6c-3.1,0.8-4.4,1.8-7.1,1.3c-2.7-0.4-4-1-5.8-2.5c-1.8-1.5-2.6-2.1-4-5.1  c-1.4-3-0.7-4.9-1-7.7c-0.3-2.8-0.4-5.8-0.5-8.7s-0.5-8.5-0.5-8.5s-2.2,2.6-4.2,3.7c-2.1,1.1-5.5,3-7.9,3.2c-2.4,0.2-6,0.8-7.2,1.5  c0,0-2.7,1.2-4.1,2.6c-1.4,1.4-2.7,2.4-3.5,5c-0.8,2.6-1.6,6.3-2.9,8.1c-1.3,1.8-2.6,3.5-4,4.9c-1.4,1.4-2.3,2.9-3.3,3.5  c-1,0.5-3,2-3,2s1.7,0.9,4.1,0.5c2.4-0.3,3.9-1.2,6-2.1c2.1-0.9,5.5-2.2,7.1-4c1.5-1.8,3.9-5.2,6.4-6.3c2.5-1.1,5.9-0.9,7.3-0.1  c1.4,0.8,3.8,2.1,4.1,4.4c0.3,2.4-0.5,5-1.3,6.2c-0.8,1.2-4.3,3.1-6.1,4c-1.7,0.9-8.8,3.3-12.2,5.1c-3.5,1.8-8.5,6.2-9.7,8.5  c-1.2,2.3-2.5,6.7-2.7,8.2c-0.1,1.5-0.5,5.2,0,7.2c0.5,2,3.5,6.9,4.3,8c0.8,1.1,2,2,2,2s0.3-1.3,1.5-4.3c1.2-3,2.6-4.9,4.7-6.4  c2.1-1.5,4.7-3.7,7-4.2c2.4-0.5,7.3-1.2,9.9-1.3c2.6-0.1,6.3-0.3,8.6-0.3c1.8,0,6.2-0.5,8.6-1.3c2.4-0.8,5.4-2.7,6.9-4.8  c1.5-2.1,4.2-4.2,6.4-6c2.2-1.7,4.1-4.1,5.9-4.3c1.7-0.2,4.4-0.7,5.9,1.1c1.4,1.7,3.4,3.6,3.1,6.3c-0.2,2.7,0,3.2-0.5,5  c-0.5,1.8-1.3,4-2.6,5.9c-1.3,1.8-2.8,2.6-5,3.9c-2.2,1.3-3.5,2.4-3.5,2.4s-0.6,0.6,4.4-0.3c5-1,7.9-2.3,9.4-4.3  c1.5-2.1,3.6-3.8,5-7c1.4-3.2,3.7-7.9,4.9-10.5c0.7-1.5,1.4-2.8,2.1-4.1c0.6-1,1.1-2.1,1.6-3.2c1.2-2.7,3.5-6.1,5.3-8.1  c0.9-0.9,1.7-1.8,2.7-2.6c0.2-0.2,0.4-0.3,0.5-0.4c1-0.8,2-1.4,3.3-1.9c2.8-1.2,5.9-3.6,9.8-6.2c3.9-2.6,5.8-3.8,7.8-6.1  c2-2.3,2.8-3.7,4.1-6.6c1.2-2.7,3.1-6.3,3.3-6.8C504.4,594.3,499.8,601,497.3,603.7z M403.2,609c-1,0.2-5.4,2-6.8,3  c-1.1,0.7-2.9,2.7-3.9,3.8c-1.2,1.3-1.7,2.1-2.6,3.5c-0.9,1.4-2.5,3.8-2.5,3.8c0-0.1,0.7-2.1,0.8-2.4c0.7-2.3,1.5-4.2,2.9-6.2  c1.5-2.1,4.2-3.9,6.1-5c1.6-0.9,2.8-1.3,5.5-1.6c2.7-0.2,4.2,1,4.2,1S404.2,608.7,403.2,609z M419.7,645.7c-1.8,0.8-2,0.8-5.4,1.8  c-3.4,1-5.2,1.3-7.9,1.5c-2.7,0.1-4.7,0.5-6.5,0.6c-1.8,0.1-4.1,0.4-5.8,1.1c-1.5,0.6-3.1,1.1-4.6,2c-2.4,1.4-4.8,4.9-4.8,4.9  s-1-1.8-0.9-4.3c0.1-2.5,1.5-5.2,2.6-6.5c1.3-1.5,3.1-3.5,4.7-4.3c2-1,4-2,6.7-2.8c2-0.6,3.7-1.1,5.9-2.1c2.5-1.1,3.9-1.5,5.7-2.4  c1.7-0.9,3.9-1.5,3.9-1.5s1.1-0.5-1.3,1.5c-2.4,2-3.1,2.6-5,3.2c-2.6,0.9-5.3,1.8-7,2.6c-1.9,0.9-2,0.8-4.3,1.9  c-2.3,1.1-3.1,1-4.7,2.3c-1.6,1.2-2.8,2.8-3.2,3.6c-0.5,0.9-1.2,3.1-1.6,3.8c0,0,0,0.1,0.1,0.1c0.5-0.4,2-1.8,4.3-2.9  c3.3-1.6,5.9-2.3,6.7-2.4c2.9-0.3,6-0.8,7.6-0.8s4.7-0.3,6-0.4c2.3-0.1,3.3-0.7,5.6-1.2c2.5-0.6,2.8-0.8,4.6-1.7  c1.5-0.8,3.4-1.7,3.4-1.7S421.6,644.9,419.7,645.7z M458.4,644.8c-0.3,3.3-0.5,3.6-2,5.7c-1.3,2-2.9,3.1-3,3.2  c0.1-0.1,0.5-1.2,1.2-3.1c0.6-2.1,1.3-4.1,1.8-6.7c0.5-2.6,0.3-5.3,0-6.7c-0.3-1.4,0.3-3.1,0.3-3.1s2.4,2.7,2.5,5  C459.3,641.3,458.7,641.5,458.4,644.8z" style="fill:none;stroke:red;stroke-width:0.0001px"/><path d="M518.2,365.8c0,0,5.2-8.2,9.5-13c0,0,5.1-3.5,9.1-5.3  c4-1.8,16.7-6.8,20.2-8.4c3.5-1.7,15-6.4,18.5-8.8s10.9-7.4,14.4-10.4c3.5-3,11.2-10.6,13.4-12.9c2.1-2.3,9.9-11.9,12.7-14.2  s7.1-6.6,11.2-8.6s8.6-3.1,13.4-4.3c4.8-1.2,7.1-4.3,7.1-5.5c0-1.2-3.1-4.6-6-4.8c-2.8-0.2-15.5,2-15.5,2l2.8,6.4l-5.8-5.3  c0,0-8.4,4.1-12.1,6.6s-9.4,8.6-9.4,8.6l4.3,6.8l-6.8-5L582.1,305c0,0,1.5,5.3,1.7,6.4c0.2,1.2-0.8,6.9-0.8,6.9s-1-5.8-2.4-7.3  s-3-3.1-3-3.1s-7.1,4.5-10.1,5.6c-3,1.2-13.4,4.8-13.4,4.8s0.5,2.1,1.7,4.5c1.2,2.3-0.2,9.8-0.2,9.8l-4.5-9.9c0,0-8.4,7.3-10.9,9.1  c-2.5,1.8-8.3,3.5-8.3,3.5s9.3-7.6,11.4-9.6c2.1-2,8.3-11.1,9.9-13.4s3.1-6.8,3.5-9.8s-0.3-4.1-1.8-4.1c-1.5,0-2.3,0.3-3.3,3.5  c-1,3.1-2,7.6-3.6,9.6s-5.6,6.4-7.8,8.3c-2.1,1.8-22.1,13.4-22.1,13.4l6.4,8.6c0,0-7.6-5.3-10.4-5.3c-2.8,0-12.6,6.9-12.6,6.9  s6,3.5,9.8,4.1s9.9-0.8,9.9-0.8s-0.7,5.6-1.8,8.4c-1.2,2.8-6.8,7.1-6.8,7.1l6-1.2L518.2,365.8z" style="fill:none;stroke:red;stroke-width:0.0001px"/><path d="M467.8,422.5c0,0,2.7-0.8,5-1.2c2.3-0.4,5.1,0,5.1,0  s1.1,6.1,0.5,7.8c-0.5,1.7-3.4,3.2-5.3,4.9c-1.9,1.8-7.6,7-9.6,9.3c-2,2.3-6.5,9.4-7.6,11.7c-1.1,2.2-4.5,6.7-4.5,6.7l-1.5-6.7  c0,0-2,3.3-2.3,4.8c-0.3,1.5,0.4,5.5,0,6.9c-0.4,1.3-1.2,3.4-3.6,4.2c-2.4,0.8-5.9-0.6-8.1-2c-2.2-1.5-4.3-2.8-4.4-4.4  s1.1-2.8,3.1-4.4s8.6-6.7,8.6-6.7l1.9,3.7l6.4-8l1.3,2.3c0,0,4-3.1,4.7-4c0.7-0.9,0.9-3.1,2.1-4.6s6.4-4.2,8.1-5.9  c1.8-1.8,3.9-5,4-6.2s-0.1-3.8-1.2-5S467.8,422.5,467.8,422.5z" style="fill:none;stroke:red;stroke-width:0.0001px"/><path d="M668.4,470.8C668.4,470.8,668.4,470.8,668.4,470.8  C668.4,470.8,668.4,470.8,668.4,470.8C668.4,470.8,668.4,470.8,668.4,470.8z" style="fill:none;stroke:red;stroke-width:0.0001px"/><path d="M668.4,470.8C668.4,470.8,668.4,470.8,668.4,470.8  C668.4,470.8,668.4,470.8,668.4,470.8C668.4,470.8,668.4,470.8,668.4,470.8z" style="fill:none;stroke:red;stroke-width:0.0001px"/><path d="M712.8,732.8v3.3l-6.4,3.9c0,0,0-2.3,0.9-3.3  c0.9-1,2.3-2.8,3.1-3.3C711.4,733,712.8,732.8,712.8,732.8z" style="fill:none;stroke:red;stroke-width:0.0001px"/><path d="M711.6,755.5c-0.6,0.9-1.2,2.6-1.2,2.6l-1.2-0.4l2.2-6.3  c0.1-0.3,0.5-0.3,0.7-0.1c0.3,0.5,0.7,1.2,0.9,1.7C713.1,753.7,712.2,754.6,711.6,755.5z" style="fill:none;stroke:red;stroke-width:0.0001px"/><path d="M726.9,773.2h-1l-2.8-5.5c0,0,2.3-0.7,2.8-0.3s1,1.5,0.7,3.1  C726.3,772,726.9,773.2,726.9,773.2z" style="fill:none;stroke:red;stroke-width:0.0001px"/><path d="M774.7,760.4l-2.6-6l1.7-2.2c0,0,1.6,2.9,1.9,4.1  C775.8,757.5,774.7,760.4,774.7,760.4z" style="fill:none;stroke:red;stroke-width:0.0001px"/><path d="M789.7,584.3c0,0-0.7,2.3-1.3,2.4  c-0.6,0.1-1.2,0.6-2.3,0c-1.1-0.6-1.1-0.6-2.1-0.9c-1-0.3-3.4-0.6-3.4-0.6s2.9-1.7,4-1.7s2.4-0.2,3.6,0  C789.5,583.7,789.7,584.3,789.7,584.3z" style="fill:none;stroke:red;stroke-width:0.0001px"/><path d="M776.8,600.2c-0.3,0.6-1,1-1.5,0.8  c-0.4-0.2-1.2-0.3-1.8-0.3c-0.6,0.1-2.3,0.7-2.3,0.7s1.5-2.3,2.3-2.9c0.9-0.6,3.3-0.5,3.3-0.5S777.1,599.6,776.8,600.2z" style="fill:none;stroke:red;stroke-width:0.0001px"/><polygon points="776,620.2 773.6,624.8   772.8,624.8 774.1,617.7 775.1,618.1 " style="fill:none;stroke:red;stroke-width:0.0001px"/><path d="M823.7,640.2c0,0-0.3,3-1.2,4.1  c-0.9,1-3.6,2.6-3.6,2.6l1.5-5.9L823.7,640.2z" style="fill:none;stroke:red;stroke-width:0.0001px"/><path d="M791.5,336.8c3.8-0.5,8.9-1.7,12.2-0.7c3.3,1,19.1,5.4,23.4,7.5  c4.4,2.1,17.3,8.7,21,11.5c3.7,2.8,9.4,6.6,9.4,6.6s-1.9-34.1-3.3-43c-1.4-8.9-7-17.8-10.5-21.9s-14-9.5-17.8-11  c-3.8-1.6-10.8-4.5-13.3-7c-2.4-2.5-5.1-5.4-5.8-7.2s-3-6.7-3-6.7s-1.2,7-0.2,9.6c1.1,2.6,2.4,7.9,6.5,10.7c4,2.8,9.3,7,12.2,10.5  s6.3,6.1,7.9,9.4c1.6,3.3,2.6,6.3,1.8,8.7c-0.9,2.4-1.8,4.9-4,4.9c-2.3,0-6.5-2.5-9.8-5.4c-3.3-3-10.3-9.1-12.4-11.2  c-2.1-2.1-4.2-5.4-5.6-10.3c-1.4-4.9-2.3-10.3-5.6-14.2c-3.3-3.9-8.2-6.2-10.8-7c-3.7-1-10.2-1.3-14-1.3c-3.9,0-6.1-0.3-8.7-0.7  c-2.6-0.3-11.3-4.4-11.8-4.6c0.2,0.3,3.1,4.6,7.9,6.8c4.9,2.3,7,2.3,11.2,3.2c4.2,0.9,8.6,3.3,11.7,6c3.1,2.6,3.1,5.6,4.4,9.3  c1.2,3.7,1.6,7.5,2.6,11.4c1.2,4.3,1.2,5.4,2.8,7.7c2.7,3.7,5.7,6,7,7.9c2,2.9,2.6,6.5,1.1,8.2c-1.6,1.8-1.6,2.8-5.1,0.7  c-3.5-2.1-5.8-1.9-8.2-4.9c-2.4-3-2.1-2.3-5.6-7.5c-3.5-5.2-6.7-10.1-11-14.7c-4.4-4.5-8.9-7.5-14.4-7.9c-5.4-0.3-8.4-1-13.8,0.7  s-8.4,3-14.2,4.7c-5.8,1.8-13.1,4.2-17.3,4.5c-4.2,0.3-8,0.3-9.8-0.9c-1.7-1.2-4.5-3-4.7-3.1c0.1,0.2,1.8,3.9,4,5.9  c2.3,2.1,8.4,5.6,13.8,6c5.4,0.3,5.9-0.2,12.1-1.6c6.1-1.4,9.3-2.5,13.3-2.5c4,0,5.4-0.1,9.3,2.2c3.8,2.3,6.7,5.4,9.1,8.9  c2.4,3.5,3.4,5.2,5.1,9.4c2.2,5.3,1.2,9.8,0.7,10.8c-0.5,1.1-2.4,1.4-5.4,1.9c-4.5,0.8-7.4,0.9-11.2-2.3c-3.8-3.2-6.5-5.4-10.5-6.3  c-5.8-1.3-8.4-0.3-12.1,0.7c-5,1.4-8.9,4.5-13.8,8.6c-4.8,3.9-6.9,6.5-10.7,8.9c-2.8,1.8-4.7,4.2-9.1,6.1c-4.4,1.9-7.9,2.8-11.8,3.1  c-3.8,0.3-16.2-3.9-16.6-4c0.2,0.2,4,4.1,7.3,5.9c3.9,2.1,11.9,3.6,16.1,3.9c4.6,0.3,6.7,0.7,11.2-1.6c4.5-2.3,10.1-5.8,13.5-7.3  c3.3-1.6,8.4-4.2,12.8-4.4c4.4-0.2,7.8,0.2,10.5,1.4c3.3,1.5,9.1,4.9,11.5,6.8c2.4,1.9,4.6,3.7,9.6,4.4c5.1,0.7,8.1,0.5,14.4-0.7  c4.3-0.8,6.5-2.1,11.5-2.3c5.1-0.2,8.8,1,9.3,3.1c0.5,2.1,0.7,5.6-1.4,6.8c-2.1,1.2-9.4,4.2-12.9,4.5c-3.5,0.4-19.8,0.9-21.7,1.4  c-1.9,0.5-11.7,3.8-15.1,6.8c-3.3,3-4.9,7.2-5.6,10c-0.7,2.8,0,12.6,0,12.6s0.5-6,2.6-8.6c2.1-2.7,4.1-4.8,7.3-6.3  c5-2.3,8.7-1.9,15.6-1.7c6.8,0.2,9.8,0.7,15.9,0.3c6.1-0.3,7.5-1,11.7-2.5c4.2-1.4,5.7-3.3,8.9-5.4c4-2.6,5.6-3.7,9.6-4.7  c4.4-1.1,7.5-0.8,9.3,0.7c3,2.5,3.7,4.4,2.5,7.4c-1.2,3-2.5,4.2-6,5.8c-3.5,1.6-7.7,1.8-11.5,1.8c-3.8,0-7,0-9.6,1.2  c-2.6,1.2-5.1,3.5-6.1,6c-1,2.5-2.1,3.5-3.8,6.1c-1.8,2.6-7.9,5.4-7.9,5.4s1.6,0.7,4.9,0.9c3.3,0.2,5.6-1,7.5-1.6  c1.9-0.5,4.2-4.7,7-6.3c3.2-1.9,5.6-2.3,8.4-2.8c2.8-0.5,6.1,1.2,10,1.6c4.1,0.4,7.9,1.3,9.8,0.6c1.9-0.7,4.5-2.7,8.4-5.5  s17.3-16.3,17.3-16.3s-10.3-9.3-14.5-12.4c-4.2-3.2-14-9.3-19.6-11.7c-5.6-2.4-16.1-5.2-18.9-7.3c-2.8-2.1-5.1-5.1-3.7-7.5  C787.7,338.3,787.7,337.3,791.5,336.8z M828.8,295.2c-2.9-2.5-10.2-8.2-10.2-8.2s5.4,1,8.1,2c2.7,1,7.4,3.9,9.9,5.6  c2.5,1.7,6.2,6.7,7.7,8.7c1.5,2,3.6,8.9,4.6,11.9c1,2.9,3.1,13.8,3.2,17.9s-1,6-1,6s-2.2-15.2-2.8-17.2s-2.4-9.1-3.3-11.2  s-4.2-7.3-6.3-9.8c-2-2.4-5.4-4.9-5.6-5c0.1,0.3,2.4,4.5,3.5,6.7c1.1,2.2,2.7,6.5,2.7,10.1c0,3.6-0.6,6.8-1.4,8.5s-3.3,2.7-3.3,2.7  s2.5-6.2,2.5-8.1c0-2-1.3-7.4-2.4-10.8C833.6,301.5,831.8,297.7,828.8,295.2z M795.7,309.9c-1.2-1.5-3.9-6.6-5.1-10  c-0.8-2.6-2.2-10.3-2.9-13.8c-0.7-3.5-3.5-7.1-5.9-9.2c-2.4-2.1-8.4-4-8.4-4s4.3-0.7,7.7,0c3.3,0.7,3.5,1.1,5.2,2.1  c1.7,1,3.3,2.7,4.8,4.8c2.1,2.9,2.6,4.6,4.1,8.6c1.5,4,2.4,7,3.5,10c1.1,3,5.7,9.6,7.6,12.1c1.7,2.4,5.4,5.8,5.8,6.2  c-0.5-0.3-5.2-3.4-6.9-5.1c-1.8-1.8-5.7-6.6-6.8-8.5c-1.1-2-3.8-8.8-4.8-11.7c-1-2.9-3.4-7.1-3.4-7.1l1.1,6.4c0.2,1.6,0.7,4,1.7,7.2  c1,3.2,1.1,5.2,2.9,8.1c1.4,2.3,3.3,4.4,4.7,6c1.7,2.1,3.3,3.1,4.4,5.2c1.1,2.1,0.7,6.9,0.7,6.9s-2.4-5.5-3.3-6.9  C801.7,315.8,797,311.4,795.7,309.9z M759.8,354.9c-1,0.5-2.7,0.6-4.4,0.5c-1.7-0.2-5.3-0.6-6.7-1.5c-1.5-1-3.1-1.6-4.9-2.8  c-1.8-1.2-5.1-2.8-7.4-4c-2.3-1.2-4.1-2.5-6.7-3.1c-2.6-0.6-5.2-0.5-8.5,0.3c-3.3,0.8-6.1,2-8.3,3c-2.2,1-5.5,2.9-7.5,3.7  c-2,0.8-4.6,2.7-6.8,3.5c-2.1,0.8-6.2,2.2-6.5,2.3c0.4-0.3,13.7-11.4,15.6-12.9c1.9-1.5,8.3-6.7,9.6-7.1c1.3-0.5,4.8-1.9,6.3-2.3  c1.5-0.3,4.4-0.6,5.8-0.3c1.5,0.3,4.9,1.5,5.6,1.9c0.7,0.4,7.3,3.6,8.8,4.5c1.5,0.9,6,3,7.4,3.3s9.7-0.9,9.7-0.9s-1.8,1.5-3.6,1.9  c-1.8,0.4-5.3,0.8-6.6,0.4c-1.4-0.4-3.6-0.4-5.8-1.6c-2.3-1.2-6.1-2.8-7.5-3.7s-5.3-2.5-7.1-2.9c-1.8-0.4-4.7-0.5-6.6,0  c-1.9,0.5-4.9,1.5-6.7,2.7c-1.7,1.2-6,4.6-6.3,4.8c0.4-0.1,6.5-2.6,8.7-3c2.3-0.4,4.8-0.9,6.9-0.7c2.1,0.2,4.8,0.7,7.3,1.8  c2.5,1.1,6.1,3.4,7.7,4.3c1.6,0.9,5.6,3.2,6.9,4.2c1.3,1,4.9,1.7,6.6,2.1c1.7,0.4,8.3-0.4,8.3-0.4S760.8,354.4,759.8,354.9z   M774.7,319.2c-1.1-1.5-1.6-2.9-3.6-6.3c-1.9-3.4-4.1-7.2-5.2-8.8c-1.1-1.5-4.5-3.6-6.1-4.6c-1.6-1-5.6-2.3-7.7-2.7  c-2.1-0.4-5.2-0.5-6.3-0.5c-1.1,0-3.9,1.1-3.9,1.1s4.7,1.1,5.9,1.9c1.2,0.8,5.3,2.7,6.2,3.6c0.9,1,4.6,4,5.3,4.9s3.3,4.3,3.8,5.5  c0.5,1.2,3,6.8,3.2,7.6c0.2,0.8-1.5-1.4-2.5-3c-1.1-1.6-2.8-4.6-3.8-6c-1-1.4-3-3.8-4.4-5c-1.4-1.2-5.7-4.3-6.8-4.8  c-1.1-0.5-5.5-2.3-7-2.3c-1.5,0-5.8-0.5-7-0.3c-1,0.1-5.3,0.4-7.1,0.5c-0.2,0-0.2-0.2-0.1-0.3c2.1-0.9,8.4-3.7,9.9-4.1  c1.8-0.5,6.9-1.6,10.5-1.5c3.6,0.1,6.3,0.4,8.9,1.1c2.6,0.7,5.9,2.5,7.2,4c1.3,1.5,5.8,6.7,6.7,9.2c1,2.5,6.2,13.2,6.2,13.2  S775.8,320.7,774.7,319.2z M819.4,387.4c0,0-0.3,2.4-1.2,3c-0.9,0.6-2.9,2.1-4.5,2.5c-1.5,0.4-3.7,1-4.7,1.3c-1.2,0.4-6,1.4-6,1.4  s4,0.8,5,0.8s4.1-0.1,5.6-0.4c1.5-0.3,4.5-1.2,5.8-1.9c1.2-0.7,2.1-1.2,3.5-1.9c1.1-0.5,3.8-2.4,4-2.6c-0.1,0.1-0.6,1.1-1.1,1.6  c-0.5,0.5-2.5,2.7-3.8,3.6c-1.3,1-3.5,2-5.5,2.6c-2,0.6-3.1,1.2-5.3,1.3c-2.3,0.1-4.4,0.2-6.3-0.2c-1.9-0.4-2.6-0.8-4.1-1.1  c-2.3-0.4-3.8-0.5-5.7-0.2c-2.8,0.4-2.8,0.1-4.7,0.7c-1.9,0.6-3.6,2.1-4.1,2.5c-0.7,0.5-3.3,3.1-3.6,3.3c0.2-0.3,2.8-5.1,4-6.5  c1.2-1.4,3.4-3,5.2-3.5c1.8-0.5,4.8-1.2,6.2-1.2c1.7-0.1,4.5,0.1,6.4,0c1.9-0.1,4.5-0.7,5.8-0.9c1.8-0.2,3-0.7,5-1.5  C817.1,389.4,819.4,387.4,819.4,387.4z M791.8,368.8c-0.1,0.2-2,4.1-3.2,4.9c-1.3,0.9-4.7,2.6-5.6,3c-0.9,0.4-5.8,1.7-7.9,1.9  c-2,0.2-7.5,0.5-8.2,0.6c-0.6,0.1-4.4,0.6-4.4,0.6s4.9,0.6,6.1,0.7s5,0.1,6.4-0.1c1.4-0.2,6.9-1.4,8-1.8c1-0.4,4.7-2.5,6.2-3.2  c1.5-0.7,4.3-1.9,6.1-2.8c1.8-0.8,3.7-1.4,4.8-1.5c1.1-0.2,7.2-1.3,7.2-1.3s-6.2,2-7.5,2.7c-1.2,0.7-2.8,1-5.1,2.6  c-2.3,1.6-7.9,5-9.9,5.6c-1.9,0.7-6.1,2.4-8.3,2.7c-2.3,0.3-6,0-8.1,0.1c-2.1,0.1-6.2-0.2-8.2-0.3c-2-0.1-4.8-0.6-7.5-0.3  c-2.8,0.2-3.7,0.2-6.2,0.8c-2.5,0.6-5.9,1.1-5.9,1.1s4.1-3.3,5.8-4.1c1.8-0.8,4.2-1.8,5.8-2c1.6-0.2,5.7-0.7,7.5-0.8  c1.8-0.1,6.3-0.3,8.8-0.6c2.4-0.2,7-0.4,8.7-0.9c1.7-0.5,6.6-1.9,7.5-2.4C785.4,373.4,791.5,369.1,791.8,368.8z" style="fill:none;stroke:red;stroke-width:0.0001px"/><path d="M854.2,557.4c0.3,1.3,0.8,3.5,1.2,5.5c-0.8,0.3-1.8,0.5-2.7,0.8  c-0.6-2.5-1.5-5.7-2.5-8.5c1-0.1,2-0.2,3-0.4C853.7,555.7,854,556.6,854.2,557.4z" style="fill:none;stroke:red;stroke-width:0.0001px"/><path d="M870.2,545.8l4.8,7.9c-2.7,1.8-8.2,4.4-11.7,6  c-0.8-0.5-1.4-1-1.6-1.2c-0.5-0.5-2.5-3-4.1-5.2c0.3-0.1,0.5-0.1,0.8-0.2l0,0c0.8-0.2,1.4-0.5,1.9-0.8  C862.4,551,866.7,548.4,870.2,545.8z" style="fill:none;stroke:red;stroke-width:0.0001px"/><path d="M903.2,508.7c-0.1,0.3-0.1,0.6-0.2,0.8  c-0.8,2.9-3.3,10.9-4.8,14.9c-1.5,4-8.4,16.4-10.3,18.1c-1.2,1-4.5,4.2-7.7,7l-6.1-6.8c3.8-3.6,12.1-12.5,13.5-15.7  c1.5-3.4,8.1-14.6,8.9-17.4c0.1-0.5,0.3-1.1,0.5-1.9L903.2,508.7z" style="fill:none;stroke:red;stroke-width:0.0001px"/><path d="M906.3,484.1c0,2.1-1.3,12.7-2.3,19.6l-5.5-1.4  c0.8-3,1.7-6,2-7.6c0.6-3.1,4-25.9,4.3-27.8c0.2-1.6,0.1-5.3,0-6.3c0,0.7,0.2,2.8,0.4,5.5v0C905.7,472.6,906.3,482.2,906.3,484.1z" style="fill:none;stroke:red;stroke-width:0.0001px"/><path d="M766.2,435.2c-2.6-0.4-5.1-0.2-7.9,0.1  c-3.4,0.4-5.1,1.3-9.5,2.6c-4.5,1.3-10.1,3.5-12.8,4.5c-2.7,0.9-6.6,2.9-8.6,3.2c-2,0.2-1.9,0.4-1.6-1.1c0.2-1.4,0.7-2.1,2.7-3.1  c2-1,6.5-1.7,6.5-1.7c2.7-1.3,4.5-3.6,6.2-5.5c1.2-1.3,2.1-4.1,2.1-5.6c1.7,0.1,3.5,0.6,5,0.8c5.5,0.9,9.2,1.9,13.6,3.3  C762.9,433.1,764.5,434.1,766.2,435.2z" style="fill:none;stroke:red;stroke-width:0.0001px"/><path d="M418.5,411.3l6.3-5c0,0-3.1-6-7.4-7.4c-4.3-1.5-9.9-2.6-13.7-2  s-8.8,2.2-10.7,4.2s-7.6,8.7-8.8,11.8c-1.2,3.1-2.6,9.9-2.5,13.9s2.3,13.7,3.1,17c0.8,3.3,6.4,16.9,7.6,20.3  c1.2,3.4,2.8,12.5,3,14.9s0.8,9.1,0.2,12.9c-0.7,3.8-2.6,10.7-5.1,13.9s-3.3,4.1-5.1,5.6s-7.8,5.4-7.8,5.4s6.1-0.6,9.1-2.8  c2.4-1.8,5.6-5.5,7.1-8.3c1.5-2.8,2.8-6.8,4.3-12.1c1.5-5.3,0.8-12.6,0.8-15.5c0-3-1.7-8.4-2.3-12.9c-0.7-4.5-3.8-12-4.8-16.5  c-0.7-3-3-7.6-3.5-14.4c-0.4-5.6,0.5-9.8,1.6-13c1-2.8,3.2-10.3,6.2-13c2.5-2.2,3.4-1.9,6.6-3c3.8-1.3,6.5-0.7,8.9,0.8  C415.5,408.6,418.5,411.3,418.5,411.3z" style="fill:none;stroke:red;stroke-width:0.0001px"/><path d="M499.2,374c-2.1,2.7-4.4,3.6-7.6,3.2c-3.2-0.3-7.8-1.1-10.5-0.9  c-2.7,0.2-4.6,0.7-7.6,2.4c-3,1.7-5.3,6.8-6.8,8.4c-1.4,1.4-4.1,3.2-6.5,3.4c-0.3,0-0.5,0-0.8,0c-2.6-0.3-1.7-1.5-2.3-3.5  c-0.6-2-0.2-4.1-1.5-4.1s-0.9,1.7-2.6,3.3c-0.2,0.2-0.5,0.5-0.8,0.7c-1.8,1.3-4.3,2.1-5.5,1.6c-1.5-0.6-3-3-3-5.3  c0-2.3-2.1-6.4-2.9-7.5c-0.8-1.1-5.2-2.5-7.2-2.4c-2,0.1-3.5,1.8-6.4,2.3c-2.9,0.5-4.7-1.2-6.7-3.2c-2-2-2-7.3-1.4-9.7  c0.6-2.4,5.8-5.2,5.8-5.2s0,0,0,2.7s0.5,2.7,2.8,3.8c2.3,1.1,6.5,1.7,6.5,1.7l-1.7-6.2c0,0,2.9,2.4,5.3,3.5c2.4,1.1,6.2,3,8.1,4  c1.8,0.9,5,3.5,5,3.5s-1.1-1.9-1.5-3.3c-0.2-0.9-0.2-1.6,0.6-1.5c0.4,0,0.9,0.2,1.3,0.4c2.1,0.9,4.8,3.1,6.9,3.3  c2.6,0.3,4.6-2,6.4-2.7c0.2-0.1,0.4-0.2,0.6-0.2c1.6-0.5,2.9-0.4,3.9,0.8c0.5,0.7,0.5,1.3,0.6,1.8c0.1,0.5,0.2,0.8,0.9,1.1  c1.5,0.5,4.4-2,6.5-2.3c2.1-0.3,6.4,0,6.4,0s0.8,2.3,1.8,2.4c1.1,0.2,5.2,0.6,9.7-0.5c4.6-1.1,5.6-4.2,5.6-4.2  S501.3,371.3,499.2,374z" style="fill:none;stroke:red;stroke-width:0.0001px"/><path d="M483.9,406.5c2.8-2.4,7-7.3,8.5-8.5s6-3,8.1-3.4  c2-0.4,6.3-0.5,9.3-1.1s9.7-3.8,9.7-3.8s-1.6,6.9-3.6,9.2c-2,2.3-6.3,6.1-6.3,6.1l9.8,0.1c0,0-4.9,5.7-6.6,7.7c-1.8,2-7.6,5-7.6,5  l0.3,1.3l9,0.7l-14,10.4c0,0-1.6-4.7-0.8-6.1s3.4-5.8,4.3-8.4c0.9-2.6,2-5,1.1-8c-0.9-3-2.6-5.5-4.7-6.3c-2.1-0.8-4.2-1.2-6.6-0.5  s-8.2,6.6-8.2,6.6L483.9,406.5z" style="fill:none;stroke:red;stroke-width:0.0001px"/><path d="M441.5,387.3c0,1.3-1.4,2.2-2.5,2.2c-1,0-2.5-0.8-2.5-2  c0-2.1,0.8-3.1,2.8-3.1C440.3,384.3,441.5,386,441.5,387.3z" style="fill:none;stroke:red;stroke-width:0.0001px"/><path d="M478,387.5c0,2.7-0.9,3.7-3.8,4c-1.7,0.2-3.6-1.2-3.6-2.8  c0-3.6,2-5.1,3.6-5.1C475.9,383.5,478,385.8,478,387.5z" style="fill:none;stroke:red;stroke-width:0.0001px"/><path d="M604.8,408.6c-1-0.3-2.1-0.5-3.2-0.7c-3.8-0.5-5.7-0.8-9-0.3  c-0.1,0-0.1,0-0.2,0c-2.2,0.3-6.8,1.3-10.3,2.2c-0.1-2.1-0.1-3.9-0.2-5.7c1.6-0.7,3.7-1.5,5.9-2c1.7-0.3,2.9-0.6,4-0.8  c0.2,0,0.4-0.1,0.6-0.1c0.1,0,0.2,0,0.4,0c1.9-0.2,3.8-0.2,7.7,0.4c1.4,0.2,2.8,0.5,4,0.8C604.6,404.6,604.8,406.6,604.8,408.6z" style="fill:none;stroke:red;stroke-width:0.0001px"/><path d="M576.4,464.1c-1.7,1.6-3.8,3.4-5.9,5.2c-0.5-1-1.1-2-1.7-2.8  c-2.2-2.8-4-4.5-6.3-6.2c-1.3-0.9-2.7-1.9-4.4-3c-1.2-0.8-2.6-1.7-3.9-2.5c2-1.7,4.1-3.4,6.3-5.1c2.7,1.5,5.5,3.2,7.3,4.5  c0.5,0.3,0.9,0.6,1.2,0.9c0.1,0.1,0.2,0.1,0.2,0.2c0.1,0.1,0.2,0.2,0.2,0.2C570.7,456.8,573.8,460.8,576.4,464.1z" style="fill:none;stroke:red;stroke-width:0.0001px"/><path d="M525,509.2c-1.3,1.3-2.7,2.6-4,3.8c-0.9-1.4-2-2.8-3-3.6  c-1.2-1-2-1.7-3.1-2.7c-1-0.8-2.2-1.9-4.2-3.6c-0.9-0.7-2.3-1.5-3.7-2.1c1.7-1.9,3.2-3.7,4.8-5.5c2.1,1.1,4.3,2.3,5.5,3.1  c1.7,1.2,2.8,2.2,3.7,3.4c0.1,0.2,0.3,0.4,0.4,0.6c0.5,0.6,0.9,1.3,1.4,2.1C523.6,506.2,524.4,507.8,525,509.2z" style="fill:none;stroke:red;stroke-width:0.0001px"/><path d="M500.5,569.6c-1.3-3.5-5.5-7.8-8.4-9.8   c-0.4-0.3-0.8-0.5-1.2-0.7c-0.2-0.1-0.4-0.2-0.6-0.3c-0.7-0.3-1.5-0.6-2.4-0.9c-3.3-1.1-7.8-1.9-11.8-1.8c-0.6,0-1.2,0-1.7,0.1   c-2.8,0.2-5,0.9-10.6,5.6c-6.7,5.6-10.8,13.4-13.9,19.8c-0.7,1.4-2.1,7.1-6.2,12.2c-3.3,4.2-4.1,4.9-7.5,5.2   c-3,0.2-4.4-2.5-6.3-8.8c-1.9-6.2-4.4-16.1-4.6-21.9c-0.2-5.2-0.7-10,3.8-12.7c3.8-2.3,7.3-2.6,10.6-3.4c3.3-0.8,7.8-3,11.4-6.4   c2.1-2,3.2-5.3,3.8-8.3c0.4-1.8-0.3-4-1.8-7.1c-1.5-3.1-7.2-7.9-7.2-7.9s2,3.4,2.7,6.9c0.7,3.3,1,5.5-2.3,7.9   c-2.2,1.6-4.1,2.1-6.3,3.1c-3,1.5-3.3,0.4-3.3,0.4s0.2-0.6,1.6-3c1.2-2.1,2-2.9,3-7.4c0.6-2.7,0.5-4.5-0.6-8.4   c-0.7-2.6-1.6-4.4-6-7.3c-4.4-2.9-8.5-2.4-8.5-2.4s3.5,2.3,4.2,3c0.6,0.7,4.9,3.6,3.8,7.7c-1.3,4.5-1.4,4.2-3.8,5.8   c-3.3,2.3-5.7,3.3-5.7,3.3s0.8-4.2-0.6-7.5c-1.5-3.3-2.8-4.5-5.1-6.4c-2.2-1.7-5.4-3.3-10.6-2.7c-5.2,0.6-7.1,3.1-7.1,3.1   s4.6-2,8.5,0c2.9,1.5,3.6,1.7,4,4.2c0.4,2.4-0.2,3.5-0.4,6c-0.2,2.5-1.2,5.5-2.7,8c-1.5,2.5-0.5,5.8-0.7,11   c-0.2,5.2,0.2,7.5-2.5,8.5c-2.7,1-2.7,0.2-4.8,1.5c-2.1,1.2-4,1.2-6.9,0.8c-2.9-0.4-3.8,0-7.1,1.5c-3.3,1.5-5.2,0-7.9-3.8   c-2.7-3.8-2.7-8.5-2.7-8.5s-1.4,5.1-0.8,8.5c0.6,3.3,2.8,8.4,5.1,10.3c2.3,1.9,6.7,5.4,9,5.4c2.3,0,3.3-0.8,5.8-1.2   c2.5-0.4,2.3,1.4,4.4,1.6c2.1,0.2,4.8-1.7,7.9-0.4c2.9,1.2,4,1.7,5,5.4c1,3.8,1.9,14,2.1,18.3c0.2,4.4,0.6,13.6,1,17.5   c0.4,4,2.3,8.5,5,10.2c2.7,1.7,5.2,1.2,9.2,0s11-2.6,15.4-3.5c4.4-0.8,18.6-4,23.2-5.1c1.9-0.4,4.5-1.1,7.2-1.9   c4-1.2,8.1-2.7,10.1-3.8c2.6-1.5,7.6-4.7,10.6-9.7c2-3.3,4.4-12.7,4.8-17.1C503.8,577.9,501.9,573.5,500.5,569.6z M451.6,531.9   c0,0,1.2,2.4,1.4,3.3c0.2,1-0.1,3.5-0.4,4.2c-0.2,0.7-1.7,2.8-1.7,2.8l-2.1-2.7L451.6,531.9z M436.2,522c0-0.6,0.1-2.4,0.3-3.4   c0.1-0.2,0.4-0.3,0.5,0l3.1,7.2c0,0,0,0-1.4,0s-2.1-0.9-2.4-1.5C436.1,523.6,436.2,522.8,436.2,522z M383.2,564.6   c-1-1-2.5-4.2-2.5-4.2l6.3,3.1l0.5,3.1C387.5,566.6,384.4,565.9,383.2,564.6z M417.4,521.3c-1.1,0.1-2.3-0.5-3.1-1.7   c-0.8-1.1-3-2.8-3-2.8s3.2,0.4,4.6,1c1.4,0.7,3.2,2.4,3.2,2.4S418.5,521.2,417.4,521.3z" style="fill:none;stroke:red;stroke-width:0.0001px"/><path d="M712.8,732.8v3.3l-6.4,3.9c0,0,0-2.3,0.9-3.3  c0.9-1,2.3-2.8,3.1-3.3C711.4,733,712.8,732.8,712.8,732.8z" style="fill:none;stroke:red;stroke-width:0.0001px"/><path d="M711.6,755.5c-0.6,0.9-1.2,2.6-1.2,2.6l-1.2-0.4l2.2-6.3  c0.1-0.3,0.5-0.3,0.7-0.1c0.3,0.5,0.7,1.2,0.9,1.7C713.1,753.7,712.2,754.6,711.6,755.5z" style="fill:none;stroke:red;stroke-width:0.0001px"/><path d="M726.9,773.2h-1l-2.8-5.5c0,0,2.3-0.7,2.8-0.3s1,1.5,0.7,3.1  C726.3,772,726.9,773.2,726.9,773.2z" style="fill:none;stroke:red;stroke-width:0.0001px"/><path d="M774.7,760.4l-2.6-6l1.7-2.2c0,0,1.6,2.9,1.9,4.1  C775.8,757.5,774.7,760.4,774.7,760.4z" style="fill:none;stroke:red;stroke-width:0.0001px"/><path d="M789.7,584.3c0,0-0.7,2.3-1.3,2.4  c-0.6,0.1-1.2,0.6-2.3,0c-1.1-0.6-1.1-0.6-2.1-0.9c-1-0.3-3.4-0.6-3.4-0.6s2.9-1.7,4-1.7s2.4-0.2,3.6,0  C789.5,583.7,789.7,584.3,789.7,584.3z" style="fill:none;stroke:red;stroke-width:0.0001px"/><path d="M776.8,600.2c-0.3,0.6-1,1-1.5,0.8  c-0.4-0.2-1.2-0.3-1.8-0.3c-0.6,0.1-2.3,0.7-2.3,0.7s1.5-2.3,2.3-2.9c0.9-0.6,3.3-0.5,3.3-0.5S777.1,599.6,776.8,600.2z" style="fill:none;stroke:red;stroke-width:0.0001px"/><polygon points="776,620.2 773.6,624.8   772.8,624.8 774.1,617.7 775.1,618.1 " style="fill:none;stroke:red;stroke-width:0.0001px"/><path d="M823.7,640.2c0,0-0.3,3-1.2,4.1  c-0.9,1-3.6,2.6-3.6,2.6l1.5-5.9L823.7,640.2z" style="fill:none;stroke:red;stroke-width:0.0001px"/><path d="M791.5,336.8c3.8-0.5,8.9-1.7,12.2-0.7c3.3,1,19.1,5.4,23.4,7.5  c4.4,2.1,17.3,8.7,21,11.5c3.7,2.8,9.4,6.6,9.4,6.6s-1.9-34.1-3.3-43c-1.4-8.9-7-17.8-10.5-21.9s-14-9.5-17.8-11  c-3.8-1.6-10.8-4.5-13.3-7c-2.4-2.5-5.1-5.4-5.8-7.2s-3-6.7-3-6.7s-1.2,7-0.2,9.6c1.1,2.6,2.4,7.9,6.5,10.7c4,2.8,9.3,7,12.2,10.5  s6.3,6.1,7.9,9.4c1.6,3.3,2.6,6.3,1.8,8.7c-0.9,2.4-1.8,4.9-4,4.9c-2.3,0-6.5-2.5-9.8-5.4c-3.3-3-10.3-9.1-12.4-11.2  c-2.1-2.1-4.2-5.4-5.6-10.3c-1.4-4.9-2.3-10.3-5.6-14.2c-3.3-3.9-8.2-6.2-10.8-7c-3.7-1-10.2-1.3-14-1.3c-3.9,0-6.1-0.3-8.7-0.7  c-2.6-0.3-11.3-4.4-11.8-4.6c0.2,0.3,3.1,4.6,7.9,6.8c4.9,2.3,7,2.3,11.2,3.2c4.2,0.9,8.6,3.3,11.7,6c3.1,2.6,3.1,5.6,4.4,9.3  c1.2,3.7,1.6,7.5,2.6,11.4c1.2,4.3,1.2,5.4,2.8,7.7c2.7,3.7,5.7,6,7,7.9c2,2.9,2.6,6.5,1.1,8.2c-1.6,1.8-1.6,2.8-5.1,0.7  c-3.5-2.1-5.8-1.9-8.2-4.9c-2.4-3-2.1-2.3-5.6-7.5c-3.5-5.2-6.7-10.1-11-14.7c-4.4-4.5-8.9-7.5-14.4-7.9c-5.4-0.3-8.4-1-13.8,0.7  s-8.4,3-14.2,4.7c-5.8,1.8-13.1,4.2-17.3,4.5c-4.2,0.3-8,0.3-9.8-0.9c-1.7-1.2-4.5-3-4.7-3.1c0.1,0.2,1.8,3.9,4,5.9  c2.3,2.1,8.4,5.6,13.8,6c5.4,0.3,5.9-0.2,12.1-1.6c6.1-1.4,9.3-2.5,13.3-2.5c4,0,5.4-0.1,9.3,2.2c3.8,2.3,6.7,5.4,9.1,8.9  c2.4,3.5,3.4,5.2,5.1,9.4c2.2,5.3,1.2,9.8,0.7,10.8c-0.5,1.1-2.4,1.4-5.4,1.9c-4.5,0.8-7.4,0.9-11.2-2.3c-3.8-3.2-6.5-5.4-10.5-6.3  c-5.8-1.3-8.4-0.3-12.1,0.7c-5,1.4-8.9,4.5-13.8,8.6c-4.8,3.9-6.9,6.5-10.7,8.9c-2.8,1.8-4.7,4.2-9.1,6.1c-4.4,1.9-7.9,2.8-11.8,3.1  c-3.8,0.3-16.2-3.9-16.6-4c0.2,0.2,4,4.1,7.3,5.9c3.9,2.1,11.9,3.6,16.1,3.9c4.6,0.3,6.7,0.7,11.2-1.6c4.5-2.3,10.1-5.8,13.5-7.3  c3.3-1.6,8.4-4.2,12.8-4.4c4.4-0.2,7.8,0.2,10.5,1.4c3.3,1.5,9.1,4.9,11.5,6.8c2.4,1.9,4.6,3.7,9.6,4.4c5.1,0.7,8.1,0.5,14.4-0.7  c4.3-0.8,6.5-2.1,11.5-2.3c5.1-0.2,8.8,1,9.3,3.1c0.5,2.1,0.7,5.6-1.4,6.8c-2.1,1.2-9.4,4.2-12.9,4.5c-3.5,0.4-19.8,0.9-21.7,1.4  c-1.9,0.5-11.7,3.8-15.1,6.8c-3.3,3-4.9,7.2-5.6,10c-0.7,2.8,0,12.6,0,12.6s0.5-6,2.6-8.6c2.1-2.7,4.1-4.8,7.3-6.3  c5-2.3,8.7-1.9,15.6-1.7c6.8,0.2,9.8,0.7,15.9,0.3c6.1-0.3,7.5-1,11.7-2.5c4.2-1.4,5.7-3.3,8.9-5.4c4-2.6,5.6-3.7,9.6-4.7  c4.4-1.1,7.5-0.8,9.3,0.7c3,2.5,3.7,4.4,2.5,7.4c-1.2,3-2.5,4.2-6,5.8c-3.5,1.6-7.7,1.8-11.5,1.8c-3.8,0-7,0-9.6,1.2  c-2.6,1.2-5.1,3.5-6.1,6c-1,2.5-2.1,3.5-3.8,6.1c-1.8,2.6-7.9,5.4-7.9,5.4s1.6,0.7,4.9,0.9c3.3,0.2,5.6-1,7.5-1.6  c1.9-0.5,4.2-4.7,7-6.3c3.2-1.9,5.6-2.3,8.4-2.8c2.8-0.5,6.1,1.2,10,1.6c4.1,0.4,7.9,1.3,9.8,0.6c1.9-0.7,4.5-2.7,8.4-5.5  s17.3-16.3,17.3-16.3s-10.3-9.3-14.5-12.4c-4.2-3.2-14-9.3-19.6-11.7c-5.6-2.4-16.1-5.2-18.9-7.3c-2.8-2.1-5.1-5.1-3.7-7.5  C787.7,338.3,787.7,337.3,791.5,336.8z M828.8,295.2c-2.9-2.5-10.2-8.2-10.2-8.2s5.4,1,8.1,2c2.7,1,7.4,3.9,9.9,5.6  c2.5,1.7,6.2,6.7,7.7,8.7c1.5,2,3.6,8.9,4.6,11.9c1,2.9,3.1,13.8,3.2,17.9s-1,6-1,6s-2.2-15.2-2.8-17.2s-2.4-9.1-3.3-11.2  s-4.2-7.3-6.3-9.8c-2-2.4-5.4-4.9-5.6-5c0.1,0.3,2.4,4.5,3.5,6.7c1.1,2.2,2.7,6.5,2.7,10.1c0,3.6-0.6,6.8-1.4,8.5s-3.3,2.7-3.3,2.7  s2.5-6.2,2.5-8.1c0-2-1.3-7.4-2.4-10.8C833.6,301.5,831.8,297.7,828.8,295.2z M795.7,309.9c-1.2-1.5-3.9-6.6-5.1-10  c-0.8-2.6-2.2-10.3-2.9-13.8c-0.7-3.5-3.5-7.1-5.9-9.2c-2.4-2.1-8.4-4-8.4-4s4.3-0.7,7.7,0c3.3,0.7,3.5,1.1,5.2,2.1  c1.7,1,3.3,2.7,4.8,4.8c2.1,2.9,2.6,4.6,4.1,8.6c1.5,4,2.4,7,3.5,10c1.1,3,5.7,9.6,7.6,12.1c1.7,2.4,5.4,5.8,5.8,6.2  c-0.5-0.3-5.2-3.4-6.9-5.1c-1.8-1.8-5.7-6.6-6.8-8.5c-1.1-2-3.8-8.8-4.8-11.7c-1-2.9-3.4-7.1-3.4-7.1l1.1,6.4c0.2,1.6,0.7,4,1.7,7.2  c1,3.2,1.1,5.2,2.9,8.1c1.4,2.3,3.3,4.4,4.7,6c1.7,2.1,3.3,3.1,4.4,5.2c1.1,2.1,0.7,6.9,0.7,6.9s-2.4-5.5-3.3-6.9  C801.7,315.8,797,311.4,795.7,309.9z M759.8,354.9c-1,0.5-2.7,0.6-4.4,0.5c-1.7-0.2-5.3-0.6-6.7-1.5c-1.5-1-3.1-1.6-4.9-2.8  c-1.8-1.2-5.1-2.8-7.4-4c-2.3-1.2-4.1-2.5-6.7-3.1c-2.6-0.6-5.2-0.5-8.5,0.3c-3.3,0.8-6.1,2-8.3,3c-2.2,1-5.5,2.9-7.5,3.7  c-2,0.8-4.6,2.7-6.8,3.5c-2.1,0.8-6.2,2.2-6.5,2.3c0.4-0.3,13.7-11.4,15.6-12.9c1.9-1.5,8.3-6.7,9.6-7.1c1.3-0.5,4.8-1.9,6.3-2.3  c1.5-0.3,4.4-0.6,5.8-0.3c1.5,0.3,4.9,1.5,5.6,1.9c0.7,0.4,7.3,3.6,8.8,4.5c1.5,0.9,6,3,7.4,3.3s9.7-0.9,9.7-0.9s-1.8,1.5-3.6,1.9  c-1.8,0.4-5.3,0.8-6.6,0.4c-1.4-0.4-3.6-0.4-5.8-1.6c-2.3-1.2-6.1-2.8-7.5-3.7s-5.3-2.5-7.1-2.9c-1.8-0.4-4.7-0.5-6.6,0  c-1.9,0.5-4.9,1.5-6.7,2.7c-1.7,1.2-6,4.6-6.3,4.8c0.4-0.1,6.5-2.6,8.7-3c2.3-0.4,4.8-0.9,6.9-0.7c2.1,0.2,4.8,0.7,7.3,1.8  c2.5,1.1,6.1,3.4,7.7,4.3c1.6,0.9,5.6,3.2,6.9,4.2c1.3,1,4.9,1.7,6.6,2.1c1.7,0.4,8.3-0.4,8.3-0.4S760.8,354.4,759.8,354.9z   M774.7,319.2c-1.1-1.5-1.6-2.9-3.6-6.3c-1.9-3.4-4.1-7.2-5.2-8.8c-1.1-1.5-4.5-3.6-6.1-4.6c-1.6-1-5.6-2.3-7.7-2.7  c-2.1-0.4-5.2-0.5-6.3-0.5c-1.1,0-3.9,1.1-3.9,1.1s4.7,1.1,5.9,1.9c1.2,0.8,5.3,2.7,6.2,3.6c0.9,1,4.6,4,5.3,4.9s3.3,4.3,3.8,5.5  c0.5,1.2,3,6.8,3.2,7.6c0.2,0.8-1.5-1.4-2.5-3c-1.1-1.6-2.8-4.6-3.8-6c-1-1.4-3-3.8-4.4-5c-1.4-1.2-5.7-4.3-6.8-4.8  c-1.1-0.5-5.5-2.3-7-2.3c-1.5,0-5.8-0.5-7-0.3c-1,0.1-5.3,0.4-7.1,0.5c-0.2,0-0.2-0.2-0.1-0.3c2.1-0.9,8.4-3.7,9.9-4.1  c1.8-0.5,6.9-1.6,10.5-1.5c3.6,0.1,6.3,0.4,8.9,1.1c2.6,0.7,5.9,2.5,7.2,4c1.3,1.5,5.8,6.7,6.7,9.2c1,2.5,6.2,13.2,6.2,13.2  S775.8,320.7,774.7,319.2z M819.4,387.4c0,0-0.3,2.4-1.2,3c-0.9,0.6-2.9,2.1-4.5,2.5c-1.5,0.4-3.7,1-4.7,1.3c-1.2,0.4-6,1.4-6,1.4  s4,0.8,5,0.8s4.1-0.1,5.6-0.4c1.5-0.3,4.5-1.2,5.8-1.9c1.2-0.7,2.1-1.2,3.5-1.9c1.1-0.5,3.8-2.4,4-2.6c-0.1,0.1-0.6,1.1-1.1,1.6  c-0.5,0.5-2.5,2.7-3.8,3.6c-1.3,1-3.5,2-5.5,2.6c-2,0.6-3.1,1.2-5.3,1.3c-2.3,0.1-4.4,0.2-6.3-0.2c-1.9-0.4-2.6-0.8-4.1-1.1  c-2.3-0.4-3.8-0.5-5.7-0.2c-2.8,0.4-2.8,0.1-4.7,0.7c-1.9,0.6-3.6,2.1-4.1,2.5c-0.7,0.5-3.3,3.1-3.6,3.3c0.2-0.3,2.8-5.1,4-6.5  c1.2-1.4,3.4-3,5.2-3.5c1.8-0.5,4.8-1.2,6.2-1.2c1.7-0.1,4.5,0.1,6.4,0c1.9-0.1,4.5-0.7,5.8-0.9c1.8-0.2,3-0.7,5-1.5  C817.1,389.4,819.4,387.4,819.4,387.4z M791.8,368.8c-0.1,0.2-2,4.1-3.2,4.9c-1.3,0.9-4.7,2.6-5.6,3c-0.9,0.4-5.8,1.7-7.9,1.9  c-2,0.2-7.5,0.5-8.2,0.6c-0.6,0.1-4.4,0.6-4.4,0.6s4.9,0.6,6.1,0.7s5,0.1,6.4-0.1c1.4-0.2,6.9-1.4,8-1.8c1-0.4,4.7-2.5,6.2-3.2  c1.5-0.7,4.3-1.9,6.1-2.8c1.8-0.8,3.7-1.4,4.8-1.5c1.1-0.2,7.2-1.3,7.2-1.3s-6.2,2-7.5,2.7c-1.2,0.7-2.8,1-5.1,2.6  c-2.3,1.6-7.9,5-9.9,5.6c-1.9,0.7-6.1,2.4-8.3,2.7c-2.3,0.3-6,0-8.1,0.1c-2.1,0.1-6.2-0.2-8.2-0.3c-2-0.1-4.8-0.6-7.5-0.3  c-2.8,0.2-3.7,0.2-6.2,0.8c-2.5,0.6-5.9,1.1-5.9,1.1s4.1-3.3,5.8-4.1c1.8-0.8,4.2-1.8,5.8-2c1.6-0.2,5.7-0.7,7.5-0.8  c1.8-0.1,6.3-0.3,8.8-0.6c2.4-0.2,7-0.4,8.7-0.9c1.7-0.5,6.6-1.9,7.5-2.4C785.4,373.4,791.5,369.1,791.8,368.8z" style="fill:none;stroke:red;stroke-width:0.0001px"/><path d="M854.2,557.4c0.3,1.3,0.8,3.5,1.2,5.5c-0.8,0.3-1.8,0.5-2.7,0.8  c-0.6-2.5-1.5-5.7-2.5-8.5c1-0.1,2-0.2,3-0.4C853.7,555.7,854,556.6,854.2,557.4z" style="fill:none;stroke:red;stroke-width:0.0001px"/><path d="M870.2,545.8l4.8,7.9c-2.7,1.8-8.2,4.4-11.7,6  c-0.8-0.5-1.4-1-1.6-1.2c-0.5-0.5-2.5-3-4.1-5.2c0.3-0.1,0.5-0.1,0.8-0.2l0,0c0.8-0.2,1.4-0.5,1.9-0.8  C862.4,551,866.7,548.4,870.2,545.8z" style="fill:none;stroke:red;stroke-width:0.0001px"/><path d="M903.2,508.7c-0.1,0.3-0.1,0.6-0.2,0.8  c-0.8,2.9-3.3,10.9-4.8,14.9c-1.5,4-8.4,16.4-10.3,18.1c-1.2,1-4.5,4.2-7.7,7l-6.1-6.8c3.8-3.6,12.1-12.5,13.5-15.7  c1.5-3.4,8.1-14.6,8.9-17.4c0.1-0.5,0.3-1.1,0.5-1.9L903.2,508.7z" style="fill:none;stroke:red;stroke-width:0.0001px"/><path d="M906.3,484.1c0,2.1-1.3,12.7-2.3,19.6l-5.5-1.4  c0.8-3,1.7-6,2-7.6c0.6-3.1,4-25.9,4.3-27.8c0.2-1.6,0.1-5.3,0-6.3c0,0.7,0.2,2.8,0.4,5.5v0C905.7,472.6,906.3,482.2,906.3,484.1z" style="fill:none;stroke:red;stroke-width:0.0001px"/><path d="M766.2,435.2c-2.6-0.4-5.1-0.2-7.9,0.1  c-3.4,0.4-5.1,1.3-9.5,2.6c-4.5,1.3-10.1,3.5-12.8,4.5c-2.7,0.9-6.6,2.9-8.6,3.2c-2,0.2-1.9,0.4-1.6-1.1c0.2-1.4,0.7-2.1,2.7-3.1  c2-1,6.5-1.7,6.5-1.7c2.7-1.3,4.5-3.6,6.2-5.5c1.2-1.3,2.1-4.1,2.1-5.6c1.7,0.1,3.5,0.6,5,0.8c5.5,0.9,9.2,1.9,13.6,3.3  C762.9,433.1,764.5,434.1,766.2,435.2z" style="fill:none;stroke:red;stroke-width:0.0001px"/><path d="M418.5,411.3l6.3-5c0,0-3.1-6-7.4-7.4c-4.3-1.5-9.9-2.6-13.7-2  s-8.8,2.2-10.7,4.2s-7.6,8.7-8.8,11.8c-1.2,3.1-2.6,9.9-2.5,13.9s2.3,13.7,3.1,17c0.8,3.3,6.4,16.9,7.6,20.3  c1.2,3.4,2.8,12.5,3,14.9s0.8,9.1,0.2,12.9c-0.7,3.8-2.6,10.7-5.1,13.9s-3.3,4.1-5.1,5.6s-7.8,5.4-7.8,5.4s6.1-0.6,9.1-2.8  c2.4-1.8,5.6-5.5,7.1-8.3c1.5-2.8,2.8-6.8,4.3-12.1c1.5-5.3,0.8-12.6,0.8-15.5c0-3-1.7-8.4-2.3-12.9c-0.7-4.5-3.8-12-4.8-16.5  c-0.7-3-3-7.6-3.5-14.4c-0.4-5.6,0.5-9.8,1.6-13c1-2.8,3.2-10.3,6.2-13c2.5-2.2,3.4-1.9,6.6-3c3.8-1.3,6.5-0.7,8.9,0.8  C415.5,408.6,418.5,411.3,418.5,411.3z" style="fill:none;stroke:red;stroke-width:0.0001px"/><path d="M499.2,374c-2.1,2.7-4.4,3.6-7.6,3.2c-3.2-0.3-7.8-1.1-10.5-0.9  c-2.7,0.2-4.6,0.7-7.6,2.4c-3,1.7-5.3,6.8-6.8,8.4c-1.4,1.4-4.1,3.2-6.5,3.4c-0.3,0-0.5,0-0.8,0c-2.6-0.3-1.7-1.5-2.3-3.5  c-0.6-2-0.2-4.1-1.5-4.1s-0.9,1.7-2.6,3.3c-0.2,0.2-0.5,0.5-0.8,0.7c-1.8,1.3-4.3,2.1-5.5,1.6c-1.5-0.6-3-3-3-5.3  c0-2.3-2.1-6.4-2.9-7.5c-0.8-1.1-5.2-2.5-7.2-2.4c-2,0.1-3.5,1.8-6.4,2.3c-2.9,0.5-4.7-1.2-6.7-3.2c-2-2-2-7.3-1.4-9.7  c0.6-2.4,5.8-5.2,5.8-5.2s0,0,0,2.7s0.5,2.7,2.8,3.8c2.3,1.1,6.5,1.7,6.5,1.7l-1.7-6.2c0,0,2.9,2.4,5.3,3.5c2.4,1.1,6.2,3,8.1,4  c1.8,0.9,5,3.5,5,3.5s-1.1-1.9-1.5-3.3c-0.2-0.9-0.2-1.6,0.6-1.5c0.4,0,0.9,0.2,1.3,0.4c2.1,0.9,4.8,3.1,6.9,3.3  c2.6,0.3,4.6-2,6.4-2.7c0.2-0.1,0.4-0.2,0.6-0.2c1.6-0.5,2.9-0.4,3.9,0.8c0.5,0.7,0.5,1.3,0.6,1.8c0.1,0.5,0.2,0.8,0.9,1.1  c1.5,0.5,4.4-2,6.5-2.3c2.1-0.3,6.4,0,6.4,0s0.8,2.3,1.8,2.4c1.1,0.2,5.2,0.6,9.7-0.5c4.6-1.1,5.6-4.2,5.6-4.2  S501.3,371.3,499.2,374z" style="fill:none;stroke:red;stroke-width:0.0001px"/><path d="M483.9,406.5c2.8-2.4,7-7.3,8.5-8.5s6-3,8.1-3.4  c2-0.4,6.3-0.5,9.3-1.1s9.7-3.8,9.7-3.8s-1.6,6.9-3.6,9.2c-2,2.3-6.3,6.1-6.3,6.1l9.8,0.1c0,0-4.9,5.7-6.6,7.7c-1.8,2-7.6,5-7.6,5  l0.3,1.3l9,0.7l-14,10.4c0,0-1.6-4.7-0.8-6.1s3.4-5.8,4.3-8.4c0.9-2.6,2-5,1.1-8c-0.9-3-2.6-5.5-4.7-6.3c-2.1-0.8-4.2-1.2-6.6-0.5  s-8.2,6.6-8.2,6.6L483.9,406.5z" style="fill:none;stroke:red;stroke-width:0.0001px"/><path d="M441.5,387.3c0,1.3-1.4,2.2-2.5,2.2c-1,0-2.5-0.8-2.5-2  c0-2.1,0.8-3.1,2.8-3.1C440.3,384.3,441.5,386,441.5,387.3z" style="fill:none;stroke:red;stroke-width:0.0001px"/><path d="M478,387.5c0,2.7-0.9,3.7-3.8,4c-1.7,0.2-3.6-1.2-3.6-2.8  c0-3.6,2-5.1,3.6-5.1C475.9,383.5,478,385.8,478,387.5z" style="fill:none;stroke:red;stroke-width:0.0001px"/><path d="M604.8,408.6c-1-0.3-2.1-0.5-3.2-0.7c-3.8-0.5-5.7-0.8-9-0.3  c-0.1,0-0.1,0-0.2,0c-2.2,0.3-6.8,1.3-10.3,2.2c-0.1-2.1-0.1-3.9-0.2-5.7c1.6-0.7,3.7-1.5,5.9-2c1.7-0.3,2.9-0.6,4-0.8  c0.2,0,0.4-0.1,0.6-0.1c0.1,0,0.2,0,0.4,0c1.9-0.2,3.8-0.2,7.7,0.4c1.4,0.2,2.8,0.5,4,0.8C604.6,404.6,604.8,406.6,604.8,408.6z" style="fill:none;stroke:red;stroke-width:0.0001px"/><path d="M576.4,464.1c-1.7,1.6-3.8,3.4-5.9,5.2c-0.5-1-1.1-2-1.7-2.8  c-2.2-2.8-4-4.5-6.3-6.2c-1.3-0.9-2.7-1.9-4.4-3c-1.2-0.8-2.6-1.7-3.9-2.5c2-1.7,4.1-3.4,6.3-5.1c2.7,1.5,5.5,3.2,7.3,4.5  c0.5,0.3,0.9,0.6,1.2,0.9c0.1,0.1,0.2,0.1,0.2,0.2c0.1,0.1,0.2,0.2,0.2,0.2C570.7,456.8,573.8,460.8,576.4,464.1z" style="fill:none;stroke:red;stroke-width:0.0001px"/><path d="M525,509.2c-1.3,1.3-2.7,2.6-4,3.8c-0.9-1.4-2-2.8-3-3.6  c-1.2-1-2-1.7-3.1-2.7c-1-0.8-2.2-1.9-4.2-3.6c-0.9-0.7-2.3-1.5-3.7-2.1c1.7-1.9,3.2-3.7,4.8-5.5c2.1,1.1,4.3,2.3,5.5,3.1  c1.7,1.2,2.8,2.2,3.7,3.4c0.1,0.2,0.3,0.4,0.4,0.6c0.5,0.6,0.9,1.3,1.4,2.1C523.6,506.2,524.4,507.8,525,509.2z" style="fill:none;stroke:red;stroke-width:0.0001px"/><path d="M500.5,569.6c-1.3-3.5-5.5-7.8-8.4-9.8   c-0.4-0.3-0.8-0.5-1.2-0.7c-0.2-0.1-0.4-0.2-0.6-0.3c-0.7-0.3-1.5-0.6-2.4-0.9c-3.3-1.1-7.8-1.9-11.8-1.8c-0.6,0-1.2,0-1.7,0.1   c-2.8,0.2-5,0.9-10.6,5.6c-6.7,5.6-10.8,13.4-13.9,19.8c-0.7,1.4-2.1,7.1-6.2,12.2c-3.3,4.2-4.1,4.9-7.5,5.2   c-3,0.2-4.4-2.5-6.3-8.8c-1.9-6.2-4.4-16.1-4.6-21.9c-0.2-5.2-0.7-10,3.8-12.7c3.8-2.3,7.3-2.6,10.6-3.4c3.3-0.8,7.8-3,11.4-6.4   c2.1-2,3.2-5.3,3.8-8.3c0.4-1.8-0.3-4-1.8-7.1c-1.5-3.1-7.2-7.9-7.2-7.9s2,3.4,2.7,6.9c0.7,3.3,1,5.5-2.3,7.9   c-2.2,1.6-4.1,2.1-6.3,3.1c-3,1.5-3.3,0.4-3.3,0.4s0.2-0.6,1.6-3c1.2-2.1,2-2.9,3-7.4c0.6-2.7,0.5-4.5-0.6-8.4   c-0.7-2.6-1.6-4.4-6-7.3c-4.4-2.9-8.5-2.4-8.5-2.4s3.5,2.3,4.2,3c0.6,0.7,4.9,3.6,3.8,7.7c-1.3,4.5-1.4,4.2-3.8,5.8   c-3.3,2.3-5.7,3.3-5.7,3.3s0.8-4.2-0.6-7.5c-1.5-3.3-2.8-4.5-5.1-6.4c-2.2-1.7-5.4-3.3-10.6-2.7c-5.2,0.6-7.1,3.1-7.1,3.1   s4.6-2,8.5,0c2.9,1.5,3.6,1.7,4,4.2c0.4,2.4-0.2,3.5-0.4,6c-0.2,2.5-1.2,5.5-2.7,8c-1.5,2.5-0.5,5.8-0.7,11   c-0.2,5.2,0.2,7.5-2.5,8.5c-2.7,1-2.7,0.2-4.8,1.5c-2.1,1.2-4,1.2-6.9,0.8c-2.9-0.4-3.8,0-7.1,1.5c-3.3,1.5-5.2,0-7.9-3.8   c-2.7-3.8-2.7-8.5-2.7-8.5s-1.4,5.1-0.8,8.5c0.6,3.3,2.8,8.4,5.1,10.3c2.3,1.9,6.7,5.4,9,5.4c2.3,0,3.3-0.8,5.8-1.2   c2.5-0.4,2.3,1.4,4.4,1.6c2.1,0.2,4.8-1.7,7.9-0.4c2.9,1.2,4,1.7,5,5.4c1,3.8,1.9,14,2.1,18.3c0.2,4.4,0.6,13.6,1,17.5   c0.4,4,2.3,8.5,5,10.2c2.7,1.7,5.2,1.2,9.2,0s11-2.6,15.4-3.5c4.4-0.8,18.6-4,23.2-5.1c1.9-0.4,4.5-1.1,7.2-1.9   c4-1.2,8.1-2.7,10.1-3.8c2.6-1.5,7.6-4.7,10.6-9.7c2-3.3,4.4-12.7,4.8-17.1C503.8,577.9,501.9,573.5,500.5,569.6z M451.6,531.9   c0,0,1.2,2.4,1.4,3.3c0.2,1-0.1,3.5-0.4,4.2c-0.2,0.7-1.7,2.8-1.7,2.8l-2.1-2.7L451.6,531.9z M436.2,522c0-0.6,0.1-2.4,0.3-3.4   c0.1-0.2,0.4-0.3,0.5,0l3.1,7.2c0,0,0,0-1.4,0s-2.1-0.9-2.4-1.5C436.1,523.6,436.2,522.8,436.2,522z M383.2,564.6   c-1-1-2.5-4.2-2.5-4.2l6.3,3.1l0.5,3.1C387.5,566.6,384.4,565.9,383.2,564.6z M417.4,521.3c-1.1,0.1-2.3-0.5-3.1-1.7   c-0.8-1.1-3-2.8-3-2.8s3.2,0.4,4.6,1c1.4,0.7,3.2,2.4,3.2,2.4S418.5,521.2,417.4,521.3z" style="fill:none;stroke:red;stroke-width:0.0001px"/></svg>