<svg id="Layer_1" style="enable-background:new 0 0 1280 1024;" version="1.1" viewBox="0 0 2560.0 2048.0" x="0px" xml:space="preserve" xmlns="http://www.w3.org/2000/svg" xmlns:xlink="http://www.w3.org/1999/xlink" y="0px"><path d="M882.1,579l-0.5,0.9l-14.5-8.7c0,0,3.9-0.1,6,0.8  c2.1,0.9,2.9,2.6,4.7,4C879.7,577.4,882.1,579,882.1,579z" style="fill:none;stroke:red;stroke-width:0.0001px"/><path d="M894.5,617.7c0,0-2.3,1-3.8,0c-1.5-1-3.6-1.4-4.5-3.1  c-0.9-1.7-1.6-2.6-2.6-4.3s-1.8-2.6-3.1-3.5c-1.3-0.8-3.5-1.4-5.3-1.2c-1.8,0.2-4.3,0.3-4.3,0.3s1.4-1.6,2.4-1.7  c1.1-0.1,2.6-0.7,4.3-0.2c1.7,0.5,3.6,1,4.6,1.7c1,0.7,3.3,2.7,3.3,2.7s-0.1-2.3-0.5-3.8c-0.4-1.5-1.2-2.6-2.2-4.6  c-1-2-1.8-3.7-3-4.6c-1.1-0.9-3.1-2.8-3.2-3c0.3,0.1,4.9,2.1,6,2.8c1.1,0.7,2.6,4,3.2,6c0.6,2,2.1,7.4,2.9,9.3  c0.8,1.9,1.7,3.8,2.8,5.1C892.5,616.9,894.5,617.7,894.5,617.7z" style="fill:none;stroke:red;stroke-width:0.0001px"/><path d="M624.2,317.7c0,0-2.9,1.3-5.6,2.5c-2.7,1.2-4.7,0.6-6.7,2.3  c-0.6,0.5-1.7,1.6-2.9,2.9c-1.2,1.3-2.7,2.9-4.1,4.3c-0.3,0.3-0.6,0.6-0.8,0.9c-1.6,1.7-3.1,3.1-4,3.9c-2.7,2.1-10.1,7-13,8  c-2.9,1-8.8,1.8-8.8,1.8s-0.3,1.2,2.6,1.8c2.9,0.6,6.5,1.9,9.6,0.9c3-1,13.5-4.3,13.9-4.4c-0.4,0.3-13.9,9.2-16.3,10.7  c-2.4,1.5-12.9,11.6-15.4,15.2c-0.4,0.6-0.9,1.3-1.4,2.2c-3,4.9-8,13.8-10,15.8c-2.3,2.3-7,6.4-11,8.8c-4,2.4-10.2,4.7-12.9,5.9  s-5.5,4.3-6.2,6.2c-0.7,1.8-1,5.1-1.1,5.5c0.1-0.4,1.4-3.3,4.3-5.5c3-2.4,8.8-3.7,12.6-4.3c3.8-0.6,7-3,10.3-5.8  c3.4-2.7,10.4-10.5,10.4-10.5s-9.3,36.7-10.7,39c-1.4,2.3-8.8,8.4-12.8,9.3c-4,0.9-12,2.9-16.3,3.3c-4.3,0.5-13.7-1.4-16.2-1.5  c-2.5-0.2-8,2-9.2,0.5c-1.2-1.5-3.3-2.1-0.9-4.3c2.4-2.1,12.1-5.5,14.4-8.2c2.3-2.7,6.4-7,7-8.5c0.6-1.5-4.1,0.3-6.5,0.9  c-2.4,0.6-5.6-0.3-5.6-0.3s5.8-3.4,7.6-4.7c1.8-1.4,2.1-3.6,4.7-4.8c2.6-1.1,6.1-2.5,8.8-5.2s6.1-11.1,7.3-14.9  c1.2-3.8,2-12.3,1.8-16.4c-0.2-4.1-3.7-15.5-3.7-15.5s-7.8,8.4-9.4,9.6c-1.7,1.2-6.9,2.9-6.9,2.9s1.8-5.9,4-8.3c0,0,2.4-2.4,4.8-4.4  s6.7-4.8,11.1-6.7c4.4-1.9,18.9-5.8,23.4-8.3c4.6-2.4,7.5-3.3,13.9-7.3c6.4-4,12.6-7.5,16.9-10.7c4.3-3.2,5.3-5.2,12.5-6.8  c7.1-1.7,9.6-0.8,11.3,0C620.4,316.1,624.2,317.7,624.2,317.7z" style="fill:none;stroke:red;stroke-width:0.0001px"/><path d="M882.1,579l-0.5,0.9l-14.5-8.7c0,0,3.9-0.1,6,0.8  c2.1,0.9,2.9,2.6,4.7,4C879.7,577.4,882.1,579,882.1,579z" style="fill:none;stroke:red;stroke-width:0.0001px"/><path d="M894.5,617.7c0,0-2.3,1-3.8,0c-1.5-1-3.6-1.4-4.5-3.1  c-0.9-1.7-1.6-2.6-2.6-4.3s-1.8-2.6-3.1-3.5c-1.3-0.8-3.5-1.4-5.3-1.2c-1.8,0.2-4.3,0.3-4.3,0.3s1.4-1.6,2.4-1.7  c1.1-0.1,2.6-0.7,4.3-0.2c1.7,0.5,3.6,1,4.6,1.7c1,0.7,3.3,2.7,3.3,2.7s-0.1-2.3-0.5-3.8c-0.4-1.5-1.2-2.6-2.2-4.6  c-1-2-1.8-3.7-3-4.6c-1.1-0.9-3.1-2.8-3.2-3c0.3,0.1,4.9,2.1,6,2.8c1.1,0.7,2.6,4,3.2,6c0.6,2,2.1,7.4,2.9,9.3  c0.8,1.9,1.7,3.8,2.8,5.1C892.5,616.9,894.5,617.7,894.5,617.7z" style="fill:none;stroke:red;stroke-width:0.0001px"/><path d="M624.2,317.7c0,0-2.9,1.3-5.6,2.5c-2.7,1.2-4.7,0.6-6.7,2.3  c-0.6,0.5-1.7,1.6-2.9,2.9c-1.2,1.3-2.7,2.9-4.1,4.3c-0.3,0.3-0.6,0.6-0.8,0.9c-1.6,1.7-3.1,3.1-4,3.9c-2.7,2.1-10.1,7-13,8  c-2.9,1-8.8,1.8-8.8,1.8s-0.3,1.2,2.6,1.8c2.9,0.6,6.5,1.9,9.6,0.9c3-1,13.5-4.3,13.9-4.4c-0.4,0.3-13.9,9.2-16.3,10.7  c-2.4,1.5-12.9,11.6-15.4,15.2c-0.4,0.6-0.9,1.3-1.4,2.2c-3,4.9-8,13.8-10,15.8c-2.3,2.3-7,6.4-11,8.8c-4,2.4-10.2,4.7-12.9,5.9  s-5.5,4.3-6.2,6.2c-0.7,1.8-1,5.1-1.1,5.5c0.1-0.4,1.4-3.3,4.3-5.5c3-2.4,8.8-3.7,12.6-4.3c3.8-0.6,7-3,10.3-5.8  c3.4-2.7,10.4-10.5,10.4-10.5s-9.3,36.7-10.7,39c-1.4,2.3-8.8,8.4-12.8,9.3c-4,0.9-12,2.9-16.3,3.3c-4.3,0.5-13.7-1.4-16.2-1.5  c-2.5-0.2-8,2-9.2,0.5c-1.2-1.5-3.3-2.1-0.9-4.3c2.4-2.1,12.1-5.5,14.4-8.2c2.3-2.7,6.4-7,7-8.5c0.6-1.5-4.1,0.3-6.5,0.9  c-2.4,0.6-5.6-0.3-5.6-0.3s5.8-3.4,7.6-4.7c1.8-1.4,2.1-3.6,4.7-4.8c2.6-1.1,6.1-2.5,8.8-5.2s6.1-11.1,7.3-14.9  c1.2-3.8,2-12.3,1.8-16.4c-0.2-4.1-3.7-15.5-3.7-15.5s-7.8,8.4-9.4,9.6c-1.7,1.2-6.9,2.9-6.9,2.9s1.8-5.9,4-8.3c0,0,2.4-2.4,4.8-4.4  s6.7-4.8,11.1-6.7c4.4-1.9,18.9-5.8,23.4-8.3c4.6-2.4,7.5-3.3,13.9-7.3c6.4-4,12.6-7.5,16.9-10.7c4.3-3.2,5.3-5.2,12.5-6.8  c7.1-1.7,9.6-0.8,11.3,0C620.4,316.1,624.2,317.7,624.2,317.7z" style="fill:none;stroke:red;stroke-width:0.0001px"/><path d="M739.4,429c-0.7,0.9-1.8,2.5-2.4,2.8c-1.8,1.1-5.4,2.6-6.6,3.1  c-1.2,0.5-7.2,0.5-9.1,0.9c-1.9,0.5-6.9,2.8-9.3,4.8c-2.4,2-6.1,6.8-7.8,8.7c-1.7,1.9-4.6,8.2-5.4,10.4c-0.8,2.1-2.6,12-2.8,15  c-0.2,3-1.4,8-1.4,8c-0.5,2.5-0.2,4.3-1.7,6.2c-1,1.4-1.6,1.4-2.8,0.5s-0.7-2.2-0.8-4c-0.1-1.8,0.6-4.5-1.8-6.6  c-2.2-2-2.2-2-5.4-3.5c-2.8-1.3-3.6-1.9-3.7-2c0.1,0.2,1.2,1.7,2.7,4.2c1.7,2.7,3.3,5.4,2.7,9.1c-0.7,4-2.1,6.7-2.6,9.1  c-0.9,4.6-0.9,4.5-0.8,10.5c0.1,5.1,0.5,7.4,2,11.9c2.1,6.1,3.2,9.8,4.5,11.9c1.3,2.1,4.1,7.7,6.1,10.8c2,3.2,7.9,11.3,10,15.3  c2.1,4,9.2,15.1,10.1,16.7c0.9,1.7,6.9,14.7,8.2,17.4c1.3,2.7,6,13.5,6.8,16.2c0.8,2.7,2.7,8.6,3.1,11.3c0.4,2.7,1.1,8.8,1.5,12  c0.5,3.2,0.2,9.5,0,13.2c-0.2,3.6-1.3,6.9-2,11.2c-0.7,4.2-2.1,10.2-3.4,14.6c-1.3,4.3-2.8,7.2-5.2,13c-2.4,5.8-5.5,10-7.8,13.5  c-2.2,3.5-5.7,7.1-8.5,10.2c-2.8,3.2-7.2,7.2-9.3,9c-2.1,1.8-6.9,5-8.7,6.5c-1.8,1.5-11,7.1-12.8,7.9c-1.9,0.8-12,5.2-14.2,5.9  c-2.2,0.7-11.7,2.8-13.8,3.5c-2.1,0.7-12.7,2.1-16,2.1c-3.3,0-10.4,0.5-14.7,0c-4.4-0.5-13.1-1.5-17.1-2.6c-4-1.1-14-4.1-16.7-5.3  c-2.7-1.2-14.8-6.7-16.4-7.8c-1.5-1.1-13-8.8-14.8-10.2c-1.9-1.4-8.5-7.3-10.5-9.4s-7.2-8.2-9.4-10.8s-5.7-8.7-5.7-8.7  c-2.6-3.8-4.8-6.4-5.6-8.5c-0.8-2.1-4.6-9.4-6.4-14.5c-1.1-3.2-2.9-9.2-3.8-12.5c-0.8-3.3-1.4-11-1.5-14.4  c-0.1-3.4,0.4-8.8,0.8-12.6s1.4-9.1,2.2-11.8c0.8-2.7,2.9-4,4.5-4.8c1.5-0.8,2.8-1.2,2.9,0.7c0.1,1.9-2.4,4.2-3.3,7.3s-0.7,6,0,8.2  c0.7,2.2,4.6,6,4.6,6s-1.3-7.1-1.1-10c0.2-2.9,1-3.7,2.5-5.8c1.5-2.1,2.2-4,5.8-7.1c3.5-3.1,7.5-11.4,9.3-15.9  c1.8-4.5,1.7-8.9,1.8-13.9c0.1-5,2.4-11.2,4-14.6c1.6-3.4,5.9-6.6,5.9-6.6c2.9-3.4,5.1-4,5.1-4c1.9-1.4,4-1.3,5.2,0.7  c0.8,1.3,1.4,1.5-0.5,4.3c-1.9,2.8-4.2,2.7-5.4,5.8c-0.9,2.4-1.1,3.2-0.9,5.3c-0.5,0.7-1,1.5-1.4,2.2c-2.3,3.6-4,5.8-5.3,9.5  c-1.3,3.9-2.5,7.1-3.6,10.6c-1.2,3.5-2.8,10.7-3.1,14.8c-0.4,7.6-0.7,13.5-0.7,13.5c-0.2,3.2,1.8,13.9,2.9,17.2  c1.1,3.4,3.4,11.5,5.4,15.4c2,3.9,7.3,13.3,9.5,16.2c0,0,0,0,0,0c0.1,0.1,0.2,0.3,0.3,0.4c2.1,2.7,13.6,17.2,19.1,22.1  c6,5.4,10.9,6.5,17.3,9.2c6.4,2.7,20.3,7,27.8,7.2c6.6,0.1,25.6-3.6,33-6.9c7.4-3.4,14.1-7.1,19.9-13.5c5.7-6.4,12.4-14.8,15.4-22.2  c3-7.4,5.1-18.1,5.4-26.6c0.3-7.5-0.7-16.2-2.4-25.2c-1.7-9.1-6.1-21.9-7.7-27.2c-1.7-5.4-7.7-19.5-11.4-31  c-3.7-11.4-7.4-21.9-8.7-31.6c-1.3-9.8-1.2-15.6-0.1-25.8c1.2-12.1,4.6-23.9,4.8-24.6c0,0,0,0,0,0c0,0,0,0,0,0  c0.6-1.3,4.6-7.4,4.6-7.4c2.9-4.2,4.5-6.4,8.2-10.5c3.6-4.1,11.7-8.9,15.1-11.5c3.4-2.5,9.4-5.7,13.1-7.4c4-1.8,12.8-3.6,19.1-4.1  C732.2,429.7,736.2,429.1,739.4,429z" style="fill:none;stroke:red;stroke-width:0.0001px"/><path d="M739.4,429c-0.7,0.9-1.8,2.5-2.4,2.8c-1.8,1.1-5.4,2.6-6.6,3.1  c-1.2,0.5-7.2,0.5-9.1,0.9c-1.9,0.5-6.9,2.8-9.3,4.8c-2.4,2-6.1,6.8-7.8,8.7c-1.7,1.9-4.6,8.2-5.4,10.4c-0.8,2.1-2.6,12-2.8,15  c-0.2,3-1.4,8-1.4,8c-0.5,2.5-0.2,4.3-1.7,6.2c-1,1.4-1.6,1.4-2.8,0.5s-0.7-2.2-0.8-4c-0.1-1.8,0.6-4.5-1.8-6.6  c-2.2-2-2.2-2-5.4-3.5c-2.8-1.3-3.6-1.9-3.7-2c0.1,0.2,1.2,1.7,2.7,4.2c1.7,2.7,3.3,5.4,2.7,9.1c-0.7,4-2.1,6.7-2.6,9.1  c-0.9,4.6-0.9,4.5-0.8,10.5c0.1,5.1,0.5,7.4,2,11.9c2.1,6.1,3.2,9.8,4.5,11.9c1.3,2.1,4.1,7.7,6.1,10.8c2,3.2,7.9,11.3,10,15.3  c2.1,4,9.2,15.1,10.1,16.7c0.9,1.7,6.9,14.7,8.2,17.4c1.3,2.7,6,13.5,6.8,16.2c0.8,2.7,2.7,8.6,3.1,11.3c0.4,2.7,1.1,8.8,1.5,12  c0.5,3.2,0.2,9.5,0,13.2c-0.2,3.6-1.3,6.9-2,11.2c-0.7,4.2-2.1,10.2-3.4,14.6c-1.3,4.3-2.8,7.2-5.2,13c-2.4,5.8-5.5,10-7.8,13.5  c-2.2,3.5-5.7,7.1-8.5,10.2c-2.8,3.2-7.2,7.2-9.3,9c-2.1,1.8-6.9,5-8.7,6.5c-1.8,1.5-11,7.1-12.8,7.9c-1.9,0.8-12,5.2-14.2,5.9  c-2.2,0.7-11.7,2.8-13.8,3.5c-2.1,0.7-12.7,2.1-16,2.1c-3.3,0-10.4,0.5-14.7,0c-4.4-0.5-13.1-1.5-17.1-2.6c-4-1.1-14-4.1-16.7-5.3  c-2.7-1.2-14.8-6.7-16.4-7.8c-1.5-1.1-13-8.8-14.8-10.2c-1.9-1.4-8.5-7.3-10.5-9.4s-7.2-8.2-9.4-10.8s-5.7-8.7-5.7-8.7  c-2.6-3.8-4.8-6.4-5.6-8.5c-0.8-2.1-4.6-9.4-6.4-14.5c-1.1-3.2-2.9-9.2-3.8-12.5c-0.8-3.3-1.4-11-1.5-14.4  c-0.1-3.4,0.4-8.8,0.8-12.6s1.4-9.1,2.2-11.8c0.8-2.7,2.9-4,4.5-4.8c1.5-0.8,2.8-1.2,2.9,0.7c0.1,1.9-2.4,4.2-3.3,7.3s-0.7,6,0,8.2  c0.7,2.2,4.6,6,4.6,6s-1.3-7.1-1.1-10c0.2-2.9,1-3.7,2.5-5.8c1.5-2.1,2.2-4,5.8-7.1c3.5-3.1,7.5-11.4,9.3-15.9  c1.8-4.5,1.7-8.9,1.8-13.9c0.1-5,2.4-11.2,4-14.6c1.6-3.4,5.9-6.6,5.9-6.6c2.9-3.4,5.1-4,5.1-4c1.9-1.4,4-1.3,5.2,0.7  c0.8,1.3,1.4,1.5-0.5,4.3c-1.9,2.8-4.2,2.7-5.4,5.8c-0.9,2.4-1.1,3.2-0.9,5.3c-0.5,0.7-1,1.5-1.4,2.2c-2.3,3.6-4,5.8-5.3,9.5  c-1.3,3.9-2.5,7.1-3.6,10.6c-1.2,3.5-2.8,10.7-3.1,14.8c-0.4,7.6-0.7,13.5-0.7,13.5c-0.2,3.2,1.8,13.9,2.9,17.2  c1.1,3.4,3.4,11.5,5.4,15.4c2,3.9,7.3,13.3,9.5,16.2c0,0,0,0,0,0c0.1,0.1,0.2,0.3,0.3,0.4c2.1,2.7,13.6,17.2,19.1,22.1  c6,5.4,10.9,6.5,17.3,9.2c6.4,2.7,20.3,7,27.8,7.2c6.6,0.1,25.6-3.6,33-6.9c7.4-3.4,14.1-7.1,19.9-13.5c5.7-6.4,12.4-14.8,15.4-22.2  c3-7.4,5.1-18.1,5.4-26.6c0.3-7.5-0.7-16.2-2.4-25.2c-1.7-9.1-6.1-21.9-7.7-27.2c-1.7-5.4-7.7-19.5-11.4-31  c-3.7-11.4-7.4-21.9-8.7-31.6c-1.3-9.8-1.2-15.6-0.1-25.8c1.2-12.1,4.6-23.9,4.8-24.6c0,0,0,0,0,0c0,0,0,0,0,0  c0.6-1.3,4.6-7.4,4.6-7.4c2.9-4.2,4.5-6.4,8.2-10.5c3.6-4.1,11.7-8.9,15.1-11.5c3.4-2.5,9.4-5.7,13.1-7.4c4-1.8,12.8-3.6,19.1-4.1  C732.2,429.7,736.2,429.1,739.4,429z" style="fill:none;stroke:red;stroke-width:0.0001px"/><path d="M580.5,366.5c-2.4,3.5-3.5,5.9-5,9.2c-0.3,0.6-0.5,1.1-0.8,1.8  c-0.9,1.9-1.7,3.8-2.4,5.7c-0.7-0.5-1.4-1-2-1.6c-1.3-1.2,0.6-5.1,2.9-8.8c2.3-3.7,4.9-7.2,4.9-7.2  C578.9,366,579.8,366.3,580.5,366.5z" style="fill:none;stroke:red;stroke-width:0.0001px"/><path d="M580.5,635.9c0,0-0.1-0.4-0.5-1.6c-0.3-1.3-1.3-2.3-1.9-3.5  c-0.7-1.2-2.4-2.1-4-3.2c-1.6-1.1-3.1-1.5-4.2-2.5c-1.1-0.9-2.6-3-2.6-3s2.9,1,4.3,1.9c1.4,0.9,1.8,1,3.4,1.7  c1.6,0.7,3.1,2.2,4.2,3.4c1.1,1.2,0.9,2.6,1.3,4C580.8,634.6,580.5,635.9,580.5,635.9z" style="fill:none;stroke:red;stroke-width:0.0001px"/><path d="M638.4,641.8c0,0-1.5-0.3-2.4-0.8c-0.9-0.5-3.2-1.3-5.8-1.5  c-2.5-0.3-4.7-0.4-7.9-0.5c-3.2-0.1-5.9-0.5-7.8-0.9c-2-0.3-4.5-0.4-7-1.5c-2.5-1.1-3.7-2.6-3.7-2.6s1.9-0.2,2.8,0.4  c0.9,0.6,4,1,6.7,1.6c2.7,0.6,4.8,0.9,6.4,0.9c1.5,0,3.7-0.2,5.2-0.1c1.5,0.2,5.7,0.1,5.7,0.1l1.5,0.1c0,0-3.5-2.2-5-2.6  c-1.5-0.4-7.6-2.8-9-3.6s-3.1-2.7-4.6-5.1c-1.4-2.4-1.7-3.5-1.7-3.5h1.2c0,0,1.8,2.7,2.5,3.9s3.6,3.1,5.4,4.1  c1.9,0.9,4.3,1.3,7.4,2.2c3,0.9,4.6,1.5,6.5,3c2,1.5,2,2.1,2.9,4.1C638.4,641.4,638.4,641.8,638.4,641.8z" style="fill:none;stroke:red;stroke-width:0.0001px"/><path d="M636.7,619.6H635c0,0-1.1-1.2-1.8-1.9c-0.6-0.6-1.1-1.7-1.8-2.7  c-0.7-0.9-1.7-2.1-3-2.9c-1-0.7-3.6-1.8-4.7-2.1c-1.1-0.3-3.5-0.1-3.5-0.1s2.2-1.2,3.3-1.3c1.1-0.1,2.7,0.4,3.9,0.9  c1.7,0.6,2.3,1.1,3.6,2.3c1.3,1.2,2.4,3.5,3.1,4.4C635,617.2,636.7,619.6,636.7,619.6z" style="fill:none;stroke:red;stroke-width:0.0001px"/><path d="M407.2,431.4c0,0-1.5-0.9-1.1-3.8c0.4-2.8,0.3-3.6,1.9-5  c1.6-1.3,7.6-2.8,9.8-3.4c2.3-0.5,4.7-2.4,6.9-2.4c2.2,0,4.5,0,7.3,0.9c2.8,0.9,5.4,1.9,8,2.6s5.1,1.1,6.6,2.3  c1.5,1.2,3,2.6,3.1,3.8c0.1,1.2,0.3,4.3-1.1,5.7s-1.8,1.9-3.4,2.7c-1.6,0.8-5.1,0.9-5.9,0.7c-0.8-0.3-1.3-1.3-1.3-1.3s2,1.1,3.1,0.5  c1.1-0.5,2.6-1.8,2.8-3.2c0.3-1.5-0.4-4.3-2-5.2s-3.4-1.3-5.3,0c-1.9,1.3-5.5,5.1-6.7,6.5c-1.2,1.5-1.8,3.2-4.6,4.2  c-2.8,0.9-6.9-0.3-8.1-2s-1.2-6.3-2.7-7.9s-2.8-2.9-4.4-2.3c-1.6,0.7-2.8,2.7-2.8,3.5C407.2,429.1,407.2,431.4,407.2,431.4z" style="fill:none;stroke:red;stroke-width:0.0001px"/><path d="M447.2,390.4c0,0-1-0.2-1.9-0.6c-1.4-0.6-2.6-1.7-3.1-3.5  c-0.5-1.8-0.5-2.7-1.1-4.1c-0.6-1.4-1-2.8-2.2-3.7c-1.2-0.9-2.1-1.1-2.1-1.1s-1.9,3.6-2.1,4.4c-0.5,2-0.4,4.7,0,5.8  c0.5,1,0.4,0.9,1.4,2c0.7,0.8,2.3,1.5,3.1,1.8c0,0,0.2,0.1,0.4,0.1c-0.1,0-0.2-0.1-0.3-0.1c0.4,0.1,2.7,0.7,4.3,0.7  C444.9,392,447.2,390.4,447.2,390.4z M439,389.5c-1,0-2.5-0.8-2.5-2c0-2.1,0.8-3.1,2.8-3.1c1,0,2.2,1.6,2.2,2.9  C441.5,388.5,440,389.5,439,389.5z" style="fill:none;stroke:red;stroke-width:0.0001px"/><path d="M483.2,379.1c0,0-1.4-0.1-2.4,0c-1,0.1-1.4,0.3-2.8,1  c-2.8,1.2-6.4,2.8-6.6,3.1c-1.7,1.5-2.6,3.2-3.5,4.3s-3.3,4.3-3.3,4.3s2.5,1.6,3.5,1.8c1,0.2,3,0.5,4.4,0.3c2.3-0.4,1.5,0.1,4.1-1.3  c1.6-0.8,2.7-1.9,4.2-4.2c0.6-1,1.5-3.7,2.1-5C483.3,382.2,483.2,379.1,483.2,379.1z M474.2,391.4c-1.7,0.2-3.6-1.2-3.6-2.8  c0-3.6,2-5.1,3.6-5.1c1.7,0,3.8,2.3,3.8,4C478,390.2,477.1,391.2,474.2,391.4z" style="fill:none;stroke:red;stroke-width:0.0001px"/><path d="M604.4,402.5c-1.3-0.3-2.7-0.6-4-0.8c-4.6-0.7-6.4-0.7-8.7-0.3  c-1.1,0.2-2.3,0.5-4,0.8c-2.2,0.4-4.3,1.2-5.9,2c-0.2-3.2-0.7-6.3-2.5-10.9c-1.5-3.8-2.9-6-4.2-7.5c0.6-2.2,1.1-4,1.4-4.8  c0.2-0.7,0.7-1.6,1.2-2.6c0.4-0.8,0.8-1.6,1.3-2.5c0.1-0.2,0.2-0.4,0.4-0.7c0.9-1.6,2-3.4,3-5c0.3-0.5,0.6-1,0.9-1.5  c0.2-0.3,0.4-0.6,0.6-0.9c3.9,1.8,6.7,4.1,9,7.2c6.6,8.6,8.3,12,9.5,17.1C603.2,395.4,603.9,398.9,604.4,402.5z" style="fill:none;stroke:red;stroke-width:0.0001px"/><path d="M604.8,408.6c0,1.1,0,2.1-0.1,3.2c-0.6,8.5-2.8,14.2-5.1,20.9  s-4.7,9.8-8.1,15.3c-2.8,4.5-9.9,10.4-13.4,14.5c-0.5,0.6-1,1.2-1.7,1.8c-2.6-3.4-5.7-7.3-7-8.5c-0.3-0.3-0.9-0.8-1.7-1.3  c-1.8-1.3-4.7-3-7.3-4.5c3.6-3,6.3-6.8,9.4-9.8c4.3-4.1,5.5-5.2,8.1-11c2.6-5.8,3.8-9.5,4.2-16.4c0-1-0.1-1.9-0.2-2.8  c3.6-0.9,8.2-1.9,10.3-2.2c0.1,0,0.1,0,0.2,0c3.3-0.5,5.2-0.2,9,0.3C602.7,408.1,603.8,408.3,604.8,408.6z" style="fill:none;stroke:red;stroke-width:0.0001px"/><path d="M570.5,469.3c-2.7,2.2-5.3,4.5-7.1,6.6  c-3.8,4.3-9.8,9.3-14.2,12.7c-4.3,3.5-9.8,6.1-15,11.6c-2.1,2.2-5.6,5.5-9.2,8.9c-0.6-1.3-1.4-3-2.2-4.4c-0.6-1-1.2-1.9-1.8-2.7  c-0.9-1.1-2-2.2-3.7-3.4c-1.2-0.9-3.3-2.1-5.5-3.1c5-5.7,9.6-10.8,16.6-16.8c10.1-8.7,18.2-17.5,23.9-22.4c0.6-0.5,1.2-1.1,1.9-1.6  c1.3,0.8,2.7,1.7,3.9,2.5c1.7,1.2,3.1,2.1,4.4,3c0.3,0.2,0.6,0.4,0.9,0.6c0.6,0.4,1.1,0.9,1.6,1.3c0.3,0.2,0.5,0.5,0.8,0.7  c0.4,0.4,0.9,0.9,1.3,1.4c0.2,0.2,0.3,0.4,0.5,0.5c0.4,0.5,0.9,1,1.3,1.6C569.4,467.4,570,468.3,570.5,469.3z" style="fill:none;stroke:red;stroke-width:0.0001px"/><path d="M521,513c-3.7,3.6-7,7-8.3,9.1c-2.9,4.7-5.5,9.8-9.3,14.9  c-3.7,5.1-7.4,11.5-9.1,16.7c-0.7,2.1-1.4,4.1-2.3,6c-0.4-0.3-0.8-0.5-1.2-0.7c-0.8-0.4-1.8-0.8-3-1.2c-3.3-1.1-7.8-1.9-11.8-1.8  c-0.6,0-1.2,0-1.7,0.1c0.5-1.3,0.9-2.5,1.3-3.6c2.3-6.7,8.5-20.7,12.4-26.8c6-9.2,10.8-15.7,16.5-22.1c0.8-0.9,1.6-1.8,2.3-2.6  c1.4,0.7,2.8,1.4,3.7,2.1c2.1,1.7,3.3,2.7,4.2,3.6c0.7,0.6,1.2,1.1,1.8,1.6c0.1,0.1,0.2,0.2,0.4,0.3c0.3,0.2,0.5,0.4,0.8,0.7  C519,510.2,520.1,511.6,521,513z" style="fill:none;stroke:red;stroke-width:0.0001px"/><path d="M580.5,366.5c-2.4,3.5-3.5,5.9-5,9.2c-0.3,0.6-0.5,1.1-0.8,1.8  c-0.9,1.9-1.7,3.8-2.4,5.7c-0.7-0.5-1.4-1-2-1.6c-1.3-1.2,0.6-5.1,2.9-8.8c2.3-3.7,4.9-7.2,4.9-7.2  C578.9,366,579.8,366.3,580.5,366.5z" style="fill:none;stroke:red;stroke-width:0.0001px"/><path d="M580.5,635.9c0,0-0.1-0.4-0.5-1.6c-0.3-1.3-1.3-2.3-1.9-3.5  c-0.7-1.2-2.4-2.1-4-3.2c-1.6-1.1-3.1-1.5-4.2-2.5c-1.1-0.9-2.6-3-2.6-3s2.9,1,4.3,1.9c1.4,0.9,1.8,1,3.4,1.7  c1.6,0.7,3.1,2.2,4.2,3.4c1.1,1.2,0.9,2.6,1.3,4C580.8,634.6,580.5,635.9,580.5,635.9z" style="fill:none;stroke:red;stroke-width:0.0001px"/><path d="M638.4,641.8c0,0-1.5-0.3-2.4-0.8c-0.9-0.5-3.2-1.3-5.8-1.5  c-2.5-0.3-4.7-0.4-7.9-0.5c-3.2-0.1-5.9-0.5-7.8-0.9c-2-0.3-4.5-0.4-7-1.5c-2.5-1.1-3.7-2.6-3.7-2.6s1.9-0.2,2.8,0.4  c0.9,0.6,4,1,6.7,1.6c2.7,0.6,4.8,0.9,6.4,0.9c1.5,0,3.7-0.2,5.2-0.1c1.5,0.2,5.7,0.1,5.7,0.1l1.5,0.1c0,0-3.5-2.2-5-2.6  c-1.5-0.4-7.6-2.8-9-3.6s-3.1-2.7-4.6-5.1c-1.4-2.4-1.7-3.5-1.7-3.5h1.2c0,0,1.8,2.7,2.5,3.9s3.6,3.1,5.4,4.1  c1.9,0.9,4.3,1.3,7.4,2.2c3,0.9,4.6,1.5,6.5,3c2,1.5,2,2.1,2.9,4.1C638.4,641.4,638.4,641.8,638.4,641.8z" style="fill:none;stroke:red;stroke-width:0.0001px"/><path d="M636.7,619.6H635c0,0-1.1-1.2-1.8-1.9c-0.6-0.6-1.1-1.7-1.8-2.7  c-0.7-0.9-1.7-2.1-3-2.9c-1-0.7-3.6-1.8-4.7-2.1c-1.1-0.3-3.5-0.1-3.5-0.1s2.2-1.2,3.3-1.3c1.1-0.1,2.7,0.4,3.9,0.9  c1.7,0.6,2.3,1.1,3.6,2.3c1.3,1.2,2.4,3.5,3.1,4.4C635,617.2,636.7,619.6,636.7,619.6z" style="fill:none;stroke:red;stroke-width:0.0001px"/><path d="M407.2,431.4c0,0-1.5-0.9-1.1-3.8c0.4-2.8,0.3-3.6,1.9-5  c1.6-1.3,7.6-2.8,9.8-3.4c2.3-0.5,4.7-2.4,6.9-2.4c2.2,0,4.5,0,7.3,0.9c2.8,0.9,5.4,1.9,8,2.6s5.1,1.1,6.6,2.3  c1.5,1.2,3,2.6,3.1,3.8c0.1,1.2,0.3,4.3-1.1,5.7s-1.8,1.9-3.4,2.7c-1.6,0.8-5.1,0.9-5.9,0.7c-0.8-0.3-1.3-1.3-1.3-1.3s2,1.1,3.1,0.5  c1.1-0.5,2.6-1.8,2.8-3.2c0.3-1.5-0.4-4.3-2-5.2s-3.4-1.3-5.3,0c-1.9,1.3-5.5,5.1-6.7,6.5c-1.2,1.5-1.8,3.2-4.6,4.2  c-2.8,0.9-6.9-0.3-8.1-2s-1.2-6.3-2.7-7.9s-2.8-2.9-4.4-2.3c-1.6,0.7-2.8,2.7-2.8,3.5C407.2,429.1,407.2,431.4,407.2,431.4z" style="fill:none;stroke:red;stroke-width:0.0001px"/><path d="M447.2,390.4c0,0-1-0.2-1.9-0.6c-1.4-0.6-2.6-1.7-3.1-3.5  c-0.5-1.8-0.5-2.7-1.1-4.1c-0.6-1.4-1-2.8-2.2-3.7c-1.2-0.9-2.1-1.1-2.1-1.1s-1.9,3.6-2.1,4.4c-0.5,2-0.4,4.7,0,5.8  c0.5,1,0.4,0.9,1.4,2c0.7,0.8,2.3,1.5,3.1,1.8c0,0,0.2,0.1,0.4,0.1c-0.1,0-0.2-0.1-0.3-0.1c0.4,0.1,2.7,0.7,4.3,0.7  C444.9,392,447.2,390.4,447.2,390.4z M439,389.5c-1,0-2.5-0.8-2.5-2c0-2.1,0.8-3.1,2.8-3.1c1,0,2.2,1.6,2.2,2.9  C441.5,388.5,440,389.5,439,389.5z" style="fill:none;stroke:red;stroke-width:0.0001px"/><path d="M483.2,379.1c0,0-1.4-0.1-2.4,0c-1,0.1-1.4,0.3-2.8,1  c-2.8,1.2-6.4,2.8-6.6,3.1c-1.7,1.5-2.6,3.2-3.5,4.3s-3.3,4.3-3.3,4.3s2.5,1.6,3.5,1.8c1,0.2,3,0.5,4.4,0.3c2.3-0.4,1.5,0.1,4.1-1.3  c1.6-0.8,2.7-1.9,4.2-4.2c0.6-1,1.5-3.7,2.1-5C483.3,382.2,483.2,379.1,483.2,379.1z M474.2,391.4c-1.7,0.2-3.6-1.2-3.6-2.8  c0-3.6,2-5.1,3.6-5.1c1.7,0,3.8,2.3,3.8,4C478,390.2,477.1,391.2,474.2,391.4z" style="fill:none;stroke:red;stroke-width:0.0001px"/><path d="M604.4,402.5c-1.3-0.3-2.7-0.6-4-0.8c-4.6-0.7-6.4-0.7-8.7-0.3  c-1.1,0.2-2.3,0.5-4,0.8c-2.2,0.4-4.3,1.2-5.9,2c-0.2-3.2-0.7-6.3-2.5-10.9c-1.5-3.8-2.9-6-4.2-7.5c0.6-2.2,1.1-4,1.4-4.8  c0.2-0.7,0.7-1.6,1.2-2.6c0.4-0.8,0.8-1.6,1.3-2.5c0.1-0.2,0.2-0.4,0.4-0.7c0.9-1.6,2-3.4,3-5c0.3-0.5,0.6-1,0.9-1.5  c0.2-0.3,0.4-0.6,0.6-0.9c3.9,1.8,6.7,4.1,9,7.2c6.6,8.6,8.3,12,9.5,17.1C603.2,395.4,603.9,398.9,604.4,402.5z" style="fill:none;stroke:red;stroke-width:0.0001px"/><path d="M604.8,408.6c0,1.1,0,2.1-0.1,3.2c-0.6,8.5-2.8,14.2-5.1,20.9  s-4.7,9.8-8.1,15.3c-2.8,4.5-9.9,10.4-13.4,14.5c-0.5,0.6-1,1.2-1.7,1.8c-2.6-3.4-5.7-7.3-7-8.5c-0.3-0.3-0.9-0.8-1.7-1.3  c-1.8-1.3-4.7-3-7.3-4.5c3.6-3,6.3-6.8,9.4-9.8c4.3-4.1,5.5-5.2,8.1-11c2.6-5.8,3.8-9.5,4.2-16.4c0-1-0.1-1.9-0.2-2.8  c3.6-0.9,8.2-1.9,10.3-2.2c0.1,0,0.1,0,0.2,0c3.3-0.5,5.2-0.2,9,0.3C602.7,408.1,603.8,408.3,604.8,408.6z" style="fill:none;stroke:red;stroke-width:0.0001px"/><path d="M570.5,469.3c-2.7,2.2-5.3,4.5-7.1,6.6  c-3.8,4.3-9.8,9.3-14.2,12.7c-4.3,3.5-9.8,6.1-15,11.6c-2.1,2.2-5.6,5.5-9.2,8.9c-0.6-1.3-1.4-3-2.2-4.4c-0.6-1-1.2-1.9-1.8-2.7  c-0.9-1.1-2-2.2-3.7-3.4c-1.2-0.9-3.3-2.1-5.5-3.1c5-5.7,9.6-10.8,16.6-16.8c10.1-8.7,18.2-17.5,23.9-22.4c0.6-0.5,1.2-1.1,1.9-1.6  c1.3,0.8,2.7,1.7,3.9,2.5c1.7,1.2,3.1,2.1,4.4,3c0.3,0.2,0.6,0.4,0.9,0.6c0.6,0.4,1.1,0.9,1.6,1.3c0.3,0.2,0.5,0.5,0.8,0.7  c0.4,0.4,0.9,0.9,1.3,1.4c0.2,0.2,0.3,0.4,0.5,0.5c0.4,0.5,0.9,1,1.3,1.6C569.4,467.4,570,468.3,570.5,469.3z" style="fill:none;stroke:red;stroke-width:0.0001px"/><path d="M521,513c-3.7,3.6-7,7-8.3,9.1c-2.9,4.7-5.5,9.8-9.3,14.9  c-3.7,5.1-7.4,11.5-9.1,16.7c-0.7,2.1-1.4,4.1-2.3,6c-0.4-0.3-0.8-0.5-1.2-0.7c-0.8-0.4-1.8-0.8-3-1.2c-3.3-1.1-7.8-1.9-11.8-1.8  c-0.6,0-1.2,0-1.7,0.1c0.5-1.3,0.9-2.5,1.3-3.6c2.3-6.7,8.5-20.7,12.4-26.8c6-9.2,10.8-15.7,16.5-22.1c0.8-0.9,1.6-1.8,2.3-2.6  c1.4,0.7,2.8,1.4,3.7,2.1c2.1,1.7,3.3,2.7,4.2,3.6c0.7,0.6,1.2,1.1,1.8,1.6c0.1,0.1,0.2,0.2,0.4,0.3c0.3,0.2,0.5,0.4,0.8,0.7  C519,510.2,520.1,511.6,521,513z" style="fill:none;stroke:red;stroke-width:0.0001px"/></svg>