<svg id="Layer_1" style="enable-background:new 0 0 200 200;" version="1.1" viewBox="0 0 200 200" x="0px" xml:space="preserve" xmlns="http://www.w3.org/2000/svg" xmlns:xlink="http://www.w3.org/1999/xlink" y="0px"><path d="M174.64,73.009c-2.439-6.744-5.78-13.126-9.933-18.973c-1.777,1.783-3.652,3.502-5.647,5.162   c-3.706,3.083-7.67,5.781-12.055,8.144c-0.17,0.091-0.34,0.182-0.511,0.273c-3.462,1.832-7.062,3.364-10.881,4.656   c-2.375,0.803-4.783,1.498-7.271,2.048c-0.702,0.155-1.409,0.299-2.124,0.431c-4.381,0.809-8.806,1.094-13.413,0.573   c-0.428-0.048-0.858-0.104-1.289-0.166c-3.761-0.544-7.315-1.631-10.898-2.916c-2.897-1.039-5.768-2.129-8.768-2.868   c-4.713-1.161-8.93-1.239-13.294-0.467c-1.518,0.269-3.053,0.639-4.636,1.101c-1.881,0.549-3.723,1.178-5.528,1.928   c-2.267,0.941-4.36,2.091-6.343,3.533c-2.761,2.007-5.082,4.352-7.236,6.974c-2.168,2.64-4.067,5.43-5.811,8.344   c-0.816,1.364-1.597,2.754-2.355,4.166c-6.486,12.094-11.907,27.835-16.25,43.191c2.365,4.316,5.072,8.327,8.189,12.135   c0.998-3.623,2.057-7.229,3.193-10.812c0.666-2.101,1.359-4.194,2.082-6.276c0.717-2.064,1.464-4.117,2.247-6.157   c0.769-2.005,1.573-3.996,2.418-5.97c0.823-1.923,1.685-3.83,2.595-5.714c0.875-1.812,1.794-3.602,2.766-5.363   c0.715-1.294,1.458-2.572,2.233-3.831c0.895-1.453,1.831-2.881,2.821-4.271c0.683-0.96,1.391-1.902,2.126-2.822   c0.74-0.927,1.506-1.833,2.302-2.711c0.797-0.879,1.624-1.731,2.487-2.545c0.867-0.819,1.771-1.599,2.71-2.334   c0.475-0.371,0.959-0.731,1.452-1.078c0.375-0.263,0.755-0.519,1.141-0.767c0.741-0.476,1.502-0.92,2.279-1.334   c0.776-0.413,1.568-0.795,2.374-1.147c0.368-0.161,0.74-0.315,1.113-0.465c0.32-0.128,0.641-0.253,0.964-0.374   c1.284-0.481,2.587-0.91,3.904-1.291c1.103-0.319,2.215-0.604,3.338-0.841c1.387-0.294,2.789-0.515,4.2-0.65   c0.807-0.077,1.616-0.126,2.426-0.146c0.818-0.02,1.637-0.011,2.454,0.029c1.686,0.081,3.365,0.288,5.023,0.606   c1.011,0.193,2.015,0.428,3.01,0.69c1.04,0.274,2.072,0.58,3.099,0.902c1.074,0.338,2.142,0.695,3.212,1.047   c1.178,0.388,2.358,0.772,3.546,1.13c1.156,0.349,2.319,0.673,3.491,0.964c0.577,0.143,1.156,0.278,1.738,0.401   c0.32,0.068,0.641,0.132,0.962,0.193c0.267,0.051,0.534,0.1,0.802,0.146c0.772,0.135,1.547,0.252,2.325,0.352   c1.375,0.176,2.757,0.295,4.142,0.36c1.356,0.064,2.715,0.075,4.072,0.041c0.522-0.013,1.044-0.034,1.565-0.059   c0.442-0.022,0.883-0.047,1.324-0.077c1.519-0.102,3.035-0.254,4.545-0.45c0.854-0.111,1.706-0.236,2.556-0.373   c1.164-0.187,2.324-0.397,3.479-0.634c1.122-0.23,2.239-0.487,3.349-0.771c0.549-0.141,1.096-0.288,1.642-0.443   c0.06-0.017,0.121-0.035,0.181-0.052c0.108-0.031,0.215-0.062,0.323-0.093c0.991-0.289,1.975-0.599,2.953-0.929   c1.301-0.44,2.59-0.918,3.862-1.439c1.238-0.507,2.46-1.053,3.664-1.637c0.746-0.362,1.484-0.737,2.217-1.125   c0.733-0.387,1.459-0.786,2.179-1.197c1.392-0.797,2.757-1.642,4.09-2.533c0.53-0.354,1.055-0.716,1.575-1.085   c0.52-0.369,1.035-0.745,1.544-1.128c0.023-0.017,0.046-0.034,0.069-0.052c0.023-0.017,0.046-0.034,0.069-0.052   c0.551-0.417,1.097-0.841,1.636-1.274c0.539-0.433,1.072-0.873,1.599-1.32C174.247,73.348,174.444,73.179,174.64,73.009z" style="fill:none;stroke:red;stroke-width:0.0001px"/><path d="M162.917,51.615c-3.504-4.556-7.492-8.719-11.895-12.414c-6.941,6.341-13.799,10.502-19.843,13.378   c-21.383,10.175-32.591,4.277-41.635,0.836c-9.045-3.441-15.927-4.424-28.068-0.049c-9.872,3.557-23.22,10.656-39.279,62.323   c1.296,6.427,3.383,12.668,6.214,18.582c0.981-3.365,2.006-6.717,3.088-10.05c0.875-2.696,1.786-5.379,2.743-8.047   c0.938-2.615,1.918-5.215,2.952-7.793c1-2.494,2.05-4.968,3.166-7.413c1.064-2.334,2.188-4.641,3.388-6.908   c0.393-0.742,0.793-1.479,1.203-2.212c0.901-1.614,1.842-3.206,2.839-4.763c0.807-1.261,1.65-2.498,2.533-3.707   c0.798-1.092,1.629-2.16,2.496-3.197c0.971-1.162,1.989-2.287,3.065-3.353c1.095-1.086,2.252-2.111,3.469-3.058   c0.311-0.242,0.626-0.479,0.945-0.711c0.462-0.335,0.932-0.659,1.41-0.97c0.943-0.613,1.918-1.176,2.918-1.69   c0.497-0.256,1.001-0.499,1.51-0.73c0.255-0.116,0.512-0.229,0.769-0.339c0.231-0.098,0.462-0.194,0.695-0.289   c0.812-0.33,1.633-0.638,2.461-0.927c0.822-0.287,1.65-0.554,2.484-0.805c0.381-0.115,0.763-0.226,1.146-0.333   c0.349-0.098,0.699-0.192,1.049-0.282c0.694-0.179,1.393-0.342,2.095-0.488c0.825-0.171,1.655-0.318,2.489-0.437   c1.004-0.142,2.013-0.243,3.025-0.297c1.013-0.055,2.028-0.064,3.041-0.025c1.034,0.039,2.065,0.128,3.091,0.262   c1.061,0.139,2.116,0.327,3.161,0.558c0.796,0.176,1.585,0.378,2.369,0.599c0.662,0.187,1.32,0.387,1.975,0.598   c1.276,0.41,2.54,0.858,3.801,1.313c0.785,0.284,1.57,0.57,2.357,0.848c0.73,0.258,1.463,0.508,2.2,0.746   c1.435,0.464,2.885,0.882,4.353,1.224c0.723,0.168,1.451,0.319,2.182,0.447c0.441,0.077,0.883,0.146,1.326,0.207   c0.456,0.063,0.914,0.118,1.372,0.164c0.899,0.091,1.801,0.15,2.704,0.178c0.887,0.027,1.774,0.024,2.66-0.007   c1.768-0.063,3.531-0.241,5.279-0.512c0.905-0.141,1.806-0.306,2.702-0.492c0.348-0.072,0.695-0.147,1.041-0.225   c1.002-0.226,1.998-0.479,2.988-0.755c0.988-0.276,1.969-0.574,2.944-0.893c0.629-0.205,1.256-0.419,1.879-0.641   c0.761-0.271,1.518-0.553,2.271-0.848c1.49-0.584,2.96-1.218,4.406-1.904c0.721-0.342,1.437-0.697,2.146-1.064   c0.196-0.101,0.391-0.204,0.585-0.307c0.171-0.09,0.341-0.182,0.511-0.273c1.754-0.949,3.469-1.971,5.136-3.066   c1.645-1.081,3.244-2.233,4.792-3.45c0.847-0.667,1.679-1.353,2.497-2.055c0.95-0.816,1.882-1.655,2.792-2.516   C161.589,52.939,162.259,52.283,162.917,51.615z" style="fill:none;stroke:red;stroke-width:0.0001px"/></svg>