<svg id="Layer_1" style="enable-background:new 0 0 200 200;" version="1.1" viewBox="0 0 200 200" x="0px" xml:space="preserve" xmlns="http://www.w3.org/2000/svg" xmlns:xlink="http://www.w3.org/1999/xlink" y="0px"><path d="M157.331,154.888c4.038-4.217,7.597-8.867,10.615-13.865c-1.478-0.573-2.983-1.158-4.522-1.752   c-2.902-1.12-5.886-2.318-9.009-3.566c-0.121-0.048-0.242-0.097-0.363-0.145c-2.454-0.98-4.959-2.01-7.569-3.042   c-1.624-0.642-3.276-1.288-4.977-1.939c-0.48-0.184-0.962-0.367-1.448-0.549c-2.977-1.117-6.027-2.223-9.292-3.311   c-0.303-0.101-0.609-0.202-0.917-0.303c-2.684-0.877-5.454-1.738-8.291-2.483c-2.294-0.603-4.62-1.109-6.977-1.413   c-3.702-0.477-7.277-0.399-10.726,0.205c-1.2,0.21-2.384,0.48-3.561,0.807c-1.399,0.388-2.76,0.844-4.087,1.375   c-1.665,0.667-3.246,1.458-4.759,2.39c-2.107,1.298-4.025,2.812-5.829,4.516c-1.816,1.716-3.489,3.592-5.054,5.612   c-0.732,0.945-1.437,1.918-2.117,2.915c-5.977,8.764-10.247,19.933-13.312,30.964c3.417,1.671,6.91,3.078,10.53,4.245   c0.156-0.468,0.314-0.936,0.476-1.402c0.765-2.201,1.604-4.377,2.532-6.516c0.85-1.961,1.774-3.89,2.783-5.773   c0.928-1.733,1.929-3.428,3.012-5.069c1.001-1.518,2.071-2.99,3.218-4.4c1.067-1.313,2.199-2.573,3.398-3.766   c1.124-1.118,2.308-2.176,3.549-3.162c1.173-0.932,2.397-1.798,3.668-2.591c1.21-0.754,2.461-1.441,3.749-2.053   c1.234-0.587,2.5-1.106,3.79-1.553c1.244-0.431,2.511-0.796,3.794-1.095c1.241-0.289,2.497-0.516,3.76-0.683   c2.413-0.318,4.854-0.415,7.287-0.318c2.275,0.091,4.542,0.352,6.783,0.757c1.058,0.191,2.111,0.414,3.155,0.673   c1.027,0.254,2.046,0.543,3.052,0.87c1.01,0.328,2.008,0.696,2.989,1.101c1.005,0.415,1.993,0.869,2.964,1.359   c1.012,0.511,2.005,1.06,2.98,1.641c1.034,0.616,2.047,1.267,3.041,1.945c1.072,0.73,2.123,1.492,3.157,2.275   c1.128,0.854,2.236,1.734,3.329,2.633c1.203,0.988,2.387,1.998,3.56,3.022C156.242,153.922,156.787,154.404,157.331,154.888z" style="fill:none;stroke:red;stroke-width:0.0001px"/><path d="M148.678,37.309c-12.347-9.588-27.251-15.316-42.841-16.465c-15.591-1.15-31.174,2.33-44.794,10.003   c-13.62,7.673-24.671,19.197-31.766,33.127c-7.096,13.93-9.92,29.645-8.118,45.174c0.539-1.646,1.09-3.289,1.655-4.927   c0.66-1.915,1.338-3.823,2.037-5.724c0.65-1.768,1.319-3.529,2.008-5.282c0.641-1.628,1.3-3.249,1.981-4.86   c1.216-2.88,2.502-5.731,3.88-8.537c0.614-1.249,1.246-2.489,1.9-3.717c0.605-1.136,1.229-2.262,1.875-3.376   c0.66-1.14,1.344-2.266,2.053-3.376c1.13-1.766,2.326-3.49,3.61-5.148c1.108-1.431,2.281-2.813,3.532-4.121   c1.085-1.135,2.229-2.214,3.438-3.216c1.057-0.876,2.162-1.694,3.315-2.439c1.021-0.661,2.078-1.265,3.165-1.811   c0.97-0.488,1.964-0.928,2.972-1.332c0.461-0.185,0.926-0.362,1.392-0.534c0.712-0.263,1.428-0.515,2.148-0.755   c1.612-0.538,3.243-1.019,4.896-1.414c1.486-0.355,2.989-0.639,4.504-0.831c1.403-0.177,2.816-0.274,4.23-0.276   c0.678-0.001,1.356,0.019,2.032,0.061c0.664,0.041,1.327,0.103,1.988,0.185c1.302,0.162,2.593,0.402,3.869,0.705   c1.288,0.306,2.561,0.678,3.819,1.091c0.648,0.213,1.292,0.437,1.933,0.67c0.657,0.239,1.311,0.487,1.963,0.74   c1.409,0.546,2.809,1.112,4.225,1.638c0.689,0.256,1.382,0.503,2.08,0.736c0.71,0.237,1.424,0.458,2.145,0.661   c0.743,0.209,1.491,0.397,2.245,0.561c0.79,0.171,1.586,0.316,2.386,0.432c0.841,0.122,1.687,0.211,2.535,0.268   c0.902,0.06,1.807,0.083,2.711,0.07c0.973-0.014,1.945-0.071,2.913-0.166c1.052-0.103,2.1-0.252,3.141-0.44   c1.141-0.206,2.273-0.46,3.394-0.755c1.227-0.322,2.441-0.693,3.641-1.104c1.327-0.454,2.637-0.957,3.93-1.499   c0.703-0.295,1.4-0.601,2.093-0.917c0.729-0.333,1.453-0.677,2.172-1.033c1.539-0.761,3.054-1.572,4.539-2.433   c1.618-0.938,3.202-1.936,4.747-2.99c1.678-1.145,3.311-2.358,4.895-3.631C146.352,39.352,147.53,38.347,148.678,37.309z" style="fill:none;stroke:red;stroke-width:0.0001px"/></svg>