<svg id="Layer_1" style="enable-background:new 0 0 200 200;" version="1.1" viewBox="0 0 200 200" x="0px" xml:space="preserve" xmlns="http://www.w3.org/2000/svg" xmlns:xlink="http://www.w3.org/1999/xlink" y="0px"><path d="M179.1,106.541c0.851-10.292-0.314-20.651-3.431-30.497c-1.016,0.854-2.06,1.687-3.135,2.497   c-0.032,0.024-0.064,0.048-0.096,0.072c-3.602,2.705-7.501,5.112-11.923,7.276c-3.438,1.682-7.075,3.081-11.04,4.241   c-0.154,0.045-0.308,0.089-0.462,0.134c-3.126,0.894-6.361,1.573-9.777,2.09c-2.125,0.322-4.281,0.569-6.506,0.719   c-0.628,0.042-1.26,0.077-1.899,0.104c-3.913,0.167-7.879-0.012-12.039-0.721c-0.387-0.066-0.775-0.136-1.165-0.212   c-3.402-0.655-6.695-1.666-10.029-2.772c-2.696-0.894-5.385-1.789-8.171-2.383c-4.376-0.933-8.379-0.959-12.438-0.243   c-1.412,0.249-2.83,0.586-4.277,1.003c-1.72,0.496-3.402,1.067-5.048,1.743c-2.067,0.85-3.989,1.88-5.815,3.152   c-2.543,1.771-4.73,3.839-6.767,6.155c-2.051,2.332-3.875,4.818-5.558,7.433c-0.788,1.224-1.544,2.475-2.275,3.749   c-6.885,11.989-12.262,27.835-16.321,42.927c2.826,3.149,5.855,6.028,9.144,8.69c0.908-3.358,1.884-6.698,2.946-10.01   c0.585-1.824,1.195-3.64,1.835-5.445c1.262-3.559,2.638-7.078,4.168-10.531c0.744-1.679,1.524-3.341,2.348-4.982   c0.804-1.601,1.649-3.181,2.543-4.734c0.437-0.76,0.886-1.513,1.348-2.258c0.143-0.231,0.287-0.461,0.432-0.69   c0.261-0.411,0.525-0.82,0.793-1.227c0.732-1.109,1.493-2.199,2.288-3.263c1.246-1.67,2.575-3.278,3.995-4.802   c0.709-0.761,1.441-1.501,2.2-2.213c0.765-0.718,1.556-1.409,2.376-2.064c0.83-0.665,1.689-1.295,2.576-1.883   c0.651-0.432,1.317-0.842,1.996-1.226c1.324-0.748,2.703-1.398,4.114-1.965c1.125-0.452,2.27-0.851,3.427-1.211   c0.551-0.171,1.104-0.334,1.661-0.486c0.491-0.134,0.984-0.259,1.478-0.376c0.492-0.116,0.987-0.224,1.483-0.323   c0.592-0.117,1.187-0.221,1.785-0.31c1.447-0.215,2.907-0.344,4.37-0.381c1.492-0.037,2.986,0.021,4.471,0.168   c0.761,0.076,1.52,0.175,2.275,0.297c0.919,0.147,1.833,0.327,2.742,0.531c0.937,0.21,1.867,0.445,2.793,0.697   c0.907,0.247,1.81,0.511,2.711,0.779c1.242,0.37,2.481,0.748,3.724,1.117c1.057,0.314,2.116,0.622,3.178,0.917   c0.525,0.146,1.051,0.288,1.578,0.426c0.284,0.074,0.567,0.146,0.851,0.218c0.119,0.03,0.238,0.06,0.357,0.089   c0.704,0.174,1.411,0.342,2.118,0.502c1.225,0.277,2.454,0.531,3.688,0.763c1.194,0.224,2.392,0.428,3.593,0.61   c0.525,0.08,1.051,0.156,1.577,0.228c0.097,0.013,0.194,0.027,0.291,0.04c0.194,0.026,0.388,0.052,0.581,0.078   c0.193,0.025,0.386,0.051,0.579,0.076c0.542,0.07,1.084,0.137,1.627,0.2c1.311,0.153,2.624,0.283,3.939,0.399   c1.98,0.174,3.962,0.313,5.947,0.401c0.912,0.041,1.826,0.07,2.739,0.084c0.095,0.001,0.19,0.003,0.285,0.004   c0.806,0.01,1.613,0.014,2.419,0.009c1.152-0.007,2.304-0.033,3.455-0.08c1.104-0.045,2.206-0.11,3.307-0.198   c0.285-0.023,0.571-0.048,0.856-0.073c0.347-0.031,0.693-0.064,1.04-0.098c0.677-0.067,1.354-0.138,2.029-0.216   c2.529-0.292,5.05-0.67,7.547-1.167c0.294-0.059,0.589-0.119,0.882-0.181c1.034-0.218,2.065-0.454,3.091-0.708   C177.374,107.011,178.239,106.782,179.1,106.541z" style="fill:none;stroke:red;stroke-width:0.0001px"/><path d="M78.519,176.407c27.201,7.647,56.417,0.257,76.71-19.405c-11.448-10.2-18.303-14.169-27.428-15.985   C112.313,137.935,90.288,141.052,78.519,176.407z" style="fill:none;stroke:red;stroke-width:0.0001px"/><path d="M162.917,51.615c-3.504-4.556-7.492-8.719-11.895-12.414c-6.941,6.341-13.799,10.502-19.843,13.378   c-21.383,10.175-32.591,4.277-41.635,0.836c-9.045-3.441-15.927-4.424-28.068-0.049c-9.872,3.557-23.22,10.656-39.279,62.323   c1.296,6.427,3.383,12.668,6.214,18.582c0.981-3.365,2.006-6.717,3.088-10.05c0.875-2.696,1.786-5.379,2.743-8.047   c0.938-2.615,1.918-5.215,2.952-7.793c1-2.494,2.05-4.968,3.166-7.413c1.064-2.334,2.188-4.641,3.388-6.908   c0.393-0.742,0.793-1.479,1.203-2.212c0.901-1.614,1.842-3.206,2.839-4.763c0.807-1.261,1.65-2.498,2.533-3.707   c0.798-1.092,1.629-2.16,2.496-3.197c0.971-1.162,1.989-2.287,3.065-3.353c1.095-1.086,2.252-2.111,3.469-3.058   c0.311-0.242,0.626-0.479,0.945-0.711c0.462-0.335,0.932-0.659,1.41-0.97c0.943-0.613,1.918-1.176,2.918-1.69   c0.497-0.256,1.001-0.499,1.51-0.73c0.255-0.116,0.512-0.229,0.769-0.339c0.231-0.098,0.462-0.194,0.695-0.289   c0.812-0.33,1.633-0.638,2.461-0.927c0.822-0.287,1.65-0.554,2.484-0.805c0.381-0.115,0.763-0.226,1.146-0.333   c0.349-0.098,0.699-0.192,1.049-0.282c0.694-0.179,1.393-0.342,2.095-0.488c0.825-0.171,1.655-0.318,2.489-0.437   c1.004-0.142,2.013-0.243,3.025-0.297c1.013-0.055,2.028-0.064,3.041-0.025c1.034,0.039,2.065,0.128,3.091,0.262   c1.061,0.139,2.116,0.327,3.161,0.558c0.796,0.176,1.585,0.378,2.369,0.599c0.662,0.187,1.32,0.387,1.975,0.598   c1.276,0.41,2.54,0.858,3.801,1.313c0.785,0.284,1.57,0.57,2.357,0.848c0.73,0.258,1.463,0.508,2.2,0.746   c1.435,0.464,2.885,0.882,4.353,1.224c0.723,0.168,1.451,0.319,2.182,0.447c0.441,0.077,0.883,0.146,1.326,0.207   c0.456,0.063,0.914,0.118,1.372,0.164c0.899,0.091,1.801,0.15,2.704,0.178c0.887,0.027,1.774,0.024,2.66-0.007   c1.768-0.063,3.531-0.241,5.279-0.512c0.905-0.141,1.806-0.306,2.702-0.492c0.348-0.072,0.695-0.147,1.041-0.225   c1.002-0.226,1.998-0.479,2.988-0.755c0.988-0.276,1.969-0.574,2.944-0.893c0.629-0.205,1.256-0.419,1.879-0.641   c0.761-0.271,1.518-0.553,2.271-0.848c1.49-0.584,2.96-1.218,4.406-1.904c0.721-0.342,1.437-0.697,2.146-1.064   c0.196-0.101,0.391-0.204,0.585-0.307c0.171-0.09,0.341-0.182,0.511-0.273c1.754-0.949,3.469-1.971,5.136-3.066   c1.645-1.081,3.244-2.233,4.792-3.45c0.847-0.667,1.679-1.353,2.497-2.055c0.95-0.816,1.882-1.655,2.792-2.516   C161.589,52.939,162.259,52.283,162.917,51.615z" style="fill:none;stroke:red;stroke-width:0.0001px"/><path d="M157.331,154.888c4.038-4.217,7.597-8.867,10.615-13.865c-1.478-0.573-2.983-1.158-4.522-1.752   c-2.902-1.12-5.886-2.318-9.009-3.566c-0.121-0.048-0.242-0.097-0.363-0.145c-2.454-0.98-4.959-2.01-7.569-3.042   c-1.624-0.642-3.276-1.288-4.977-1.939c-0.48-0.184-0.962-0.367-1.448-0.549c-2.977-1.117-6.027-2.223-9.292-3.311   c-0.303-0.101-0.609-0.202-0.917-0.303c-2.684-0.877-5.454-1.738-8.291-2.483c-2.294-0.603-4.62-1.109-6.977-1.413   c-3.702-0.477-7.277-0.399-10.726,0.205c-1.2,0.21-2.384,0.48-3.561,0.807c-1.399,0.388-2.76,0.844-4.087,1.375   c-1.665,0.667-3.246,1.458-4.759,2.39c-2.107,1.298-4.025,2.812-5.829,4.516c-1.816,1.716-3.489,3.592-5.054,5.612   c-0.732,0.945-1.437,1.918-2.117,2.915c-5.977,8.764-10.247,19.933-13.312,30.964c3.417,1.671,6.91,3.078,10.53,4.245   c0.156-0.468,0.314-0.936,0.476-1.402c0.765-2.201,1.604-4.377,2.532-6.516c0.85-1.961,1.774-3.89,2.783-5.773   c0.928-1.733,1.929-3.428,3.012-5.069c1.001-1.518,2.071-2.99,3.218-4.4c1.067-1.313,2.199-2.573,3.398-3.766   c1.124-1.118,2.308-2.176,3.549-3.162c1.173-0.932,2.397-1.798,3.668-2.591c1.21-0.754,2.461-1.441,3.749-2.053   c1.234-0.587,2.5-1.106,3.79-1.553c1.244-0.431,2.511-0.796,3.794-1.095c1.241-0.289,2.497-0.516,3.76-0.683   c2.413-0.318,4.854-0.415,7.287-0.318c2.275,0.091,4.542,0.352,6.783,0.757c1.058,0.191,2.111,0.414,3.155,0.673   c1.027,0.254,2.046,0.543,3.052,0.87c1.01,0.328,2.008,0.696,2.989,1.101c1.005,0.415,1.993,0.869,2.964,1.359   c1.012,0.511,2.005,1.06,2.98,1.641c1.034,0.616,2.047,1.267,3.041,1.945c1.072,0.73,2.123,1.492,3.157,2.275   c1.128,0.854,2.236,1.734,3.329,2.633c1.203,0.988,2.387,1.998,3.56,3.022C156.242,153.922,156.787,154.404,157.331,154.888z" style="fill:none;stroke:red;stroke-width:0.0001px"/></svg>