<svg id="Layer_1" style="enable-background:new 0 0 200 200;" version="1.1" viewBox="0 0 200 200" x="0px" xml:space="preserve" xmlns="http://www.w3.org/2000/svg" xmlns:xlink="http://www.w3.org/1999/xlink" y="0px"><path d="M155.156,132.796c3.109,1.242,6.216,2.493,9.34,3.699c1.653,0.638,3.305,1.281,4.958,1.921   c4.913-8.883,8.077-18.625,9.319-28.7c-1.74,0.463-3.538,0.889-5.4,1.266c-0.031,0.006-0.062,0.013-0.094,0.019   c-3.517,0.708-7.233,1.218-11.31,1.579c-3.17,0.281-6.48,0.382-10.024,0.337c-0.137-0.002-0.275-0.004-0.413-0.006   c-2.79-0.043-5.66-0.219-8.673-0.476c-1.874-0.16-3.778-0.359-5.742-0.61c-0.554-0.071-1.111-0.145-1.673-0.222   c-3.445-0.475-6.953-1.117-10.666-2.016c-0.345-0.083-0.692-0.169-1.041-0.257c-3.043-0.766-6.074-1.702-9.16-2.628   c-2.495-0.748-5.002-1.449-7.574-1.898c-4.039-0.705-7.828-0.679-11.582-0.019c-1.305,0.229-2.607,0.533-3.919,0.905   c-1.559,0.442-3.081,0.955-4.567,1.559c-1.866,0.758-3.618,1.669-5.287,2.771c-2.325,1.534-4.377,3.325-6.298,5.335   c-1.933,2.024-3.682,4.205-5.306,6.522c-0.76,1.085-1.49,2.197-2.196,3.332c-6.701,10.78-11.638,24.926-15.227,38.468   c3.127,2.326,6.38,4.395,9.813,6.239c0.009-0.032,0.018-0.063,0.027-0.095c0.612-2.169,1.266-4.326,1.968-6.467   c0.784-2.389,1.628-4.759,2.544-7.101c0.909-2.323,1.889-4.619,2.956-6.874c1.047-2.214,2.177-4.389,3.409-6.505   c0.604-1.038,1.233-2.062,1.89-3.069c0.362-0.555,0.732-1.105,1.111-1.65c0.936-1.345,1.922-2.655,2.964-3.919   c0.896-1.087,1.834-2.14,2.816-3.15c0.49-0.505,0.99-0.998,1.502-1.481c0.509-0.48,1.03-0.948,1.562-1.403   c1.068-0.912,2.182-1.769,3.343-2.559c0.548-0.373,1.106-0.731,1.674-1.072c0.44-0.264,0.885-0.518,1.337-0.762   c0.903-0.488,1.828-0.934,2.771-1.338c0.429-0.184,0.862-0.36,1.298-0.527c0.38-0.146,0.763-0.287,1.147-0.422   c0.771-0.27,1.549-0.518,2.334-0.744c0.684-0.197,1.373-0.377,2.066-0.539c0.673-0.157,1.349-0.298,2.03-0.42   c1.889-0.338,3.804-0.53,5.722-0.576c2.058-0.049,4.119,0.07,6.16,0.336c1.319,0.172,2.63,0.406,3.931,0.681   c0.642,0.136,1.281,0.282,1.918,0.437c0.668,0.162,1.334,0.335,1.998,0.514c1.514,0.407,3.019,0.847,4.517,1.309   c0.732,0.226,1.463,0.457,2.193,0.691c0.423,0.136,0.844,0.273,1.266,0.411c0.165,0.054,0.329,0.108,0.494,0.162   c0.082,0.027,0.163,0.054,0.245,0.081c0.609,0.203,1.217,0.408,1.825,0.616c1.664,0.57,3.32,1.16,4.972,1.764   c0.8,0.293,1.6,0.589,2.398,0.888c0.208,0.078,0.416,0.156,0.624,0.234c0.258,0.098,0.516,0.195,0.774,0.294   c0.605,0.231,1.209,0.463,1.813,0.697c0.878,0.34,1.756,0.683,2.633,1.028c0.509,0.2,1.018,0.401,1.526,0.603   c0.682,0.271,1.364,0.544,2.045,0.818C151.877,131.472,153.514,132.14,155.156,132.796z" style="fill:none;stroke:red;stroke-width:0.0001px"/></svg>