<?xml version="1.0" ?><!-- Generator: Adobe Illustrator 24.3.0, SVG Export Plug-In . SVG Version: 6.00 Build 0)  --><svg id="Layer_1" style="enable-background:new 0 0 1280 1024;" version="1.1" viewBox="0 0 1280 1024" x="0px" xml:space="preserve" xmlns="http://www.w3.org/2000/svg" xmlns:xlink="http://www.w3.org/1999/xlink" y="0px">
<path d="M821.9,538.9c1,0.6,1.8,1.1,2.5,1.4c-2.3,0.9-4.8,2.4-6.9,3.7  c-2.4,1.5-4.6,3.8-5.7,5.7c-0.3,0.5-0.6,1.2-0.8,1.8c-1-0.1-1.8-0.3-2.2-0.5c-2-1.1-11.7-9.5-14.7-13.9c-3-4.4-8.4-15-10.2-18.6  c-1.8-3.7-11.6-23.4-13.5-26.5c-1.9-3.1-8.1-8.7-11.5-11c-3.4-2.2-9.5-4.2-12.3-4.9c-2.8-0.7-10.3-0.3-14.2,1.5  c-3.5,1.6-8.6,5.1-9.5,5.7c0.3-0.2,1-0.6,2-1c-1.5,0.8-2.8,1.6-3.6,2.5c-3.3,3.7-2.2,2.2-5.2,7c-3,4.8-3.1,10.3-4,14.5  c-0.9,4.2,0,11.2,1.2,18.7c1.2,7.5,4,13.7,7.2,22.8c0.9,2.6,1.6,4.4,2.1,5.5c-0.3,0.3-0.6,0.6-0.8,1c-0.9,1.8-0.4,3.3-0.1,5.9  c0.2,2.6,0.5,3.4-0.6,5.8c-1.1,2.4-1.3,3.8-1.8,2.6c-0.5-1.2-4-6.4-4.9-8.7c-0.9-2.3-7.2-16.1-7.8-18.7c-0.6-2.6-3.3-12.4-3.9-14.5  c-0.6-2.1-1.9-9-2.2-12.1c-0.3-3.2,0.2-6,0.2-10.1s0-8.2,1.1-11.7c1.1-3.4,1.9-8.8,2.9-11.1c1.1-2.2,5.8-12.1,7.7-15  c1.9-2.8,7.4-7.3,9.9-9.4c2.5-2.1,10.6-6.1,14.9-6.6c4.4-0.5,10.5-1.4,14-0.9c3.5,0.5,9.7,2.9,11.7,4s9.3,6.2,10.7,7.7  c1.4,1.4,9.3,10.4,10.6,12.6c1.3,2.2,4.5,7.8,5.4,9.7c0.9,1.9,4.1,8.1,4.8,10.7c0.7,2.6,3.8,9.9,4.7,12.8c0.9,2.9,5.3,12.5,7.1,15.5  c1.8,3.1,7,9.1,7,9.1C815.7,534.3,817.5,536.1,821.9,538.9z" style="fill:none;stroke:red;stroke-width:1px" transform="rotate(-45 640 512)"/>
<path d="M904.7,466.9c-0.1,1.9-4.1,25.5-4.7,28.6  c-0.6,3.1-3.3,11.8-4,14.7s-7.4,14-8.9,17.4c-1.5,3.4-10.3,12.9-14,16.1c-3.6,3.2-10.6,7.5-13.4,9.3c-0.5,0.3-1.1,0.6-1.9,0.8l0,0  l-0.8,0.2c-1.2-1.6-2.2-3-2.5-3.4c-0.6-1-4.8-4.6-5.8-5.6c-0.1,0-0.1,0-0.1,0.1c0.5,1,2.2,4,2.8,5.3c0.5,1,1.2,2.7,1.9,4.4  c0,0,0,0,0,0l-2.9,0.7c0-0.1-0.1-0.2-0.1-0.3c-0.5-1.6-1.1-3-1.5-4c-1.6-3.6-3.4-5.6-5.5-7.8c-0.7-0.7-1.2-1.3-1.8-1.8  c1.1-0.3,2.2-0.7,3.5-1.1c4.7-1.4,8-4.4,11.5-7.1s6.7-6,9.9-10.2c3.2-4.1,4-6.6,6.7-12.1c2.7-5.5,5.2-17.2,5.8-20.4  c0.6-3.2,1.3-17,1.4-20.7c0.1-3.8,0-17.3,0-21.9c0-4.6-2.5-16.1-3.9-20.1c-1.4-4-1.9-5.2-2.6-7.1c-0.7-1.9-8.2-17.2-9.5-19.1  c-0.8-1.2-3.1-3.4-4.8-4.9c-2.7-4.6-5.7-9.5-7.3-11.5c-3.2-3.9-15.5-17.2-18.3-19.3c-2.8-2.1-11.2-7.5-14.7-9.2s-16-8-19.4-9.2  c-3.4-1.2-7-1.9-8.7-3c-1.7-1.1-0.9-2.2-0.8-3.7c0.1-1.5,3.3-0.6,6-0.9c2.7-0.3,7.2,0.4,9.4,0.7s16.2,4.5,19.3,5.8  c3.1,1.3,15.4,8.1,18.7,10.2c3.3,2.1,10,7,13.9,10c3.9,3,11,9.9,13.3,12.6c2.2,2.7,7.2,8.2,9.5,11.8c2.3,3.6,11.2,17,12.5,19.9  c1.3,2.8,5.2,16,7.3,23.9c2.1,7.9,3.9,16.5,4.5,22.7C904.9,460,904.9,463.4,904.7,466.9" style="fill:none;stroke:red;stroke-width:1px" transform="rotate(-45 640 512)"/>
<path d="M677.1,566c-1.5,0.3-3.5,0.6-5,0.7c-1.6,0.1-4.7-0.1-6.7-0.3  c-1.5-4.8-2.8-9.2-3.7-13.4c-2-9.4-5-19.2-5.4-28c-0.3-8.8-0.4-16.2,1-24.3c1.3-7.7,10.2-27.7,11.1-29.7c0,0,0-0.1,0-0.1  c0,0,0,0,0,0c-0.2,0.7-3.6,12.5-4.8,24.6c-1,10.2-1.2,16,0.1,25.8c1.3,9.8,5,20.2,8.7,31.6C673.8,557,675.5,561.6,677.1,566z" style="fill:none;stroke:red;stroke-width:1px" transform="rotate(-45 640 512)"/>
<path d="M581,685.4c5.1,3.3,15.9,6.1,21.7,6.9l-0.3,9.5  c-3.9-1.2-7.5-2.5-9.9-3.5c-6.4-2.7-11.2-3.8-17.3-9.2c-5.5-4.9-17-19.4-19.1-22.1c-0.1-0.1-0.2-0.3-0.3-0.4  C563.1,673,575.3,681.7,581,685.4z" style="fill:none;stroke:red;stroke-width:1px" transform="rotate(-45 640 512)"/>
<path d="M659.1,691.1c0.5,0.6,2.1,1.7,3.6,2.6c-3,1.8-6.1,3.4-9.4,4.9  c-7.4,3.4-26.4,7.1-33,6.9c-3.3-0.1-7.9-1-12.6-2.2l0.4-10.9c7.2-0.5,20.5-2.5,24.9-3.9c4.2-1.3,11.9-5.8,17.3-9.6  c1.6,2.9,3.8,6.8,4.2,7.3C655.1,686.9,658,689.9,659.1,691.1z" style="fill:none;stroke:red;stroke-width:1px" transform="rotate(-45 640 512)"/>
<path d="M671.1,585.8c-1.3-5.1-2.7-9.8-4.1-14.1  c1.3,0.1,2.4,0.2,2.8,0.2c1,0,5.6-0.1,6.8-0.3c0.5-0.1,1.5-0.5,2.3-0.9c2.2,5.6,4.1,10.4,4.9,13.1c1.7,5.4,6.1,18.2,7.7,27.2  c1.1,5.8,1.9,11.4,2.2,16.7c-1,0.1-2.1,0.2-2.9,0.2c-2.3,0.2-5.9-0.2-8.2-0.4c-2-0.2-2.1-0.6-6.4-1.9c0.1-1.4,0.1-2.8,0.1-4  C676.3,612.3,674.5,598.9,671.1,585.8z" style="fill:none;stroke:red;stroke-width:1px" transform="rotate(-45 640 512)"/>
<path d="M694,633.7c0,0.9,0,1.7,0,2.6c-0.3,8.5-2.5,19.2-5.4,26.6  c-3,7.4-9.7,15.8-15.4,22.2c-1.4,1.5-2.8,2.9-4.3,4.2c-1.7-0.8-3.3-1.5-3.9-1.9c-1.4-0.8-4.6-4.8-5.9-6.2c-0.7-0.8-2.5-3.6-3.9-5.9  c0,0,0.1-0.1,0.1-0.1c4-3.7,13.9-14.1,16.9-22.9c2-5.8,3.2-13.9,3.8-21c0.6,0.2,1.3,0.4,2.1,0.6c4.1,1.2,3.1,0.6,6.9,1.4  s4,0.6,6.7,0.6C692.4,633.9,693.2,633.9,694,633.7z" style="fill:none;stroke:red;stroke-width:1px" transform="rotate(-45 640 512)"/>
<path d="M497.3,603.7c-2.6,2.8-6.1,5.5-7.8,6.8  c-1.7,1.3-6.4,3.5-9.1,4.7c-1,0.4-2,0.8-3,1.2c-1.9,0.7-3.8,1.4-5.8,1.8c-3,0.8-7.2,1-9.7,1.5c-2.5,0.4-7.8,1.3-10.7,2  s-7.3,1.6-10.2,2.3c-2.9,0.7-5.1,1-7.5,1.6c-3.1,0.8-4.4,1.8-7.1,1.3c-2.7-0.4-4-1-5.8-2.5c-1.8-1.5-2.6-2.1-4-5.1  c-1.4-3-0.7-4.9-1-7.7c-0.3-2.8-0.4-5.8-0.5-8.7s-0.5-8.5-0.5-8.5s-2.2,2.6-4.2,3.7c-2.1,1.1-5.5,3-7.9,3.2c-2.4,0.2-6,0.8-7.2,1.5  c0,0-2.7,1.2-4.1,2.6c-1.4,1.4-2.7,2.4-3.5,5c-0.8,2.6-1.6,6.3-2.9,8.1c-1.3,1.8-2.6,3.5-4,4.9c-1.4,1.4-2.3,2.9-3.3,3.5  c-1,0.5-3,2-3,2s1.7,0.9,4.1,0.5c2.4-0.3,3.9-1.2,6-2.1c2.1-0.9,5.5-2.2,7.1-4c1.5-1.8,3.9-5.2,6.4-6.3c2.5-1.1,5.9-0.9,7.3-0.1  c1.4,0.8,3.8,2.1,4.1,4.4c0.3,2.4-0.5,5-1.3,6.2c-0.8,1.2-4.3,3.1-6.1,4c-1.7,0.9-8.8,3.3-12.2,5.1c-3.5,1.8-8.5,6.2-9.7,8.5  c-1.2,2.3-2.5,6.7-2.7,8.2c-0.1,1.5-0.5,5.2,0,7.2c0.5,2,3.5,6.9,4.3,8c0.8,1.1,2,2,2,2s0.3-1.3,1.5-4.3c1.2-3,2.6-4.9,4.7-6.4  c2.1-1.5,4.7-3.7,7-4.2c2.4-0.5,7.3-1.2,9.9-1.3c2.6-0.1,6.3-0.3,8.6-0.3c1.8,0,6.2-0.5,8.6-1.3c2.4-0.8,5.4-2.7,6.9-4.8  c1.5-2.1,4.2-4.2,6.4-6c2.2-1.7,4.1-4.1,5.9-4.3c1.7-0.2,4.4-0.7,5.9,1.1c1.4,1.7,3.4,3.6,3.1,6.3c-0.2,2.7,0,3.2-0.5,5  c-0.5,1.8-1.3,4-2.6,5.9c-1.3,1.8-2.8,2.6-5,3.9c-2.2,1.3-3.5,2.4-3.5,2.4s-0.6,0.6,4.4-0.3c5-1,7.9-2.3,9.4-4.3  c1.5-2.1,3.6-3.8,5-7c1.4-3.2,3.7-7.9,4.9-10.5c0.7-1.5,1.4-2.8,2.1-4.1c0.6-1,1.1-2.1,1.6-3.2c1.2-2.7,3.5-6.1,5.3-8.1  c0.9-0.9,1.7-1.8,2.7-2.6c0.2-0.2,0.4-0.3,0.5-0.4c1-0.8,2-1.4,3.3-1.9c2.8-1.2,5.9-3.6,9.8-6.2c3.9-2.6,5.8-3.8,7.8-6.1  c2-2.3,2.8-3.7,4.1-6.6c1.2-2.7,3.1-6.3,3.3-6.8C504.4,594.3,499.8,601,497.3,603.7z M403.2,609c-1,0.2-5.4,2-6.8,3  c-1.1,0.7-2.9,2.7-3.9,3.8c-1.2,1.3-1.7,2.1-2.6,3.5c-0.9,1.4-2.5,3.8-2.5,3.8c0-0.1,0.7-2.1,0.8-2.4c0.7-2.3,1.5-4.2,2.9-6.2  c1.5-2.1,4.2-3.9,6.1-5c1.6-0.9,2.8-1.3,5.5-1.6c2.7-0.2,4.2,1,4.2,1S404.2,608.7,403.2,609z M419.7,645.7c-1.8,0.8-2,0.8-5.4,1.8  c-3.4,1-5.2,1.3-7.9,1.5c-2.7,0.1-4.7,0.5-6.5,0.6c-1.8,0.1-4.1,0.4-5.8,1.1c-1.5,0.6-3.1,1.1-4.6,2c-2.4,1.4-4.8,4.9-4.8,4.9  s-1-1.8-0.9-4.3c0.1-2.5,1.5-5.2,2.6-6.5c1.3-1.5,3.1-3.5,4.7-4.3c2-1,4-2,6.7-2.8c2-0.6,3.7-1.1,5.9-2.1c2.5-1.1,3.9-1.5,5.7-2.4  c1.7-0.9,3.9-1.5,3.9-1.5s1.1-0.5-1.3,1.5c-2.4,2-3.1,2.6-5,3.2c-2.6,0.9-5.3,1.8-7,2.6c-1.9,0.9-2,0.8-4.3,1.9  c-2.3,1.1-3.1,1-4.7,2.3c-1.6,1.2-2.8,2.8-3.2,3.6c-0.5,0.9-1.2,3.1-1.6,3.8c0,0,0,0.1,0.1,0.1c0.5-0.4,2-1.8,4.3-2.9  c3.3-1.6,5.9-2.3,6.7-2.4c2.9-0.3,6-0.8,7.6-0.8s4.7-0.3,6-0.4c2.3-0.1,3.3-0.7,5.6-1.2c2.5-0.6,2.8-0.8,4.6-1.7  c1.5-0.8,3.4-1.7,3.4-1.7S421.6,644.9,419.7,645.7z M458.4,644.8c-0.3,3.3-0.5,3.6-2,5.7c-1.3,2-2.9,3.1-3,3.2  c0.1-0.1,0.5-1.2,1.2-3.1c0.6-2.1,1.3-4.1,1.8-6.7c0.5-2.6,0.3-5.3,0-6.7c-0.3-1.4,0.3-3.1,0.3-3.1s2.4,2.7,2.5,5  C459.3,641.3,458.7,641.5,458.4,644.8z" style="fill:none;stroke:red;stroke-width:1px" transform="rotate(-45 640 512)"/>
<path d="M518.2,365.8c0,0,5.2-8.2,9.5-13c0,0,5.1-3.5,9.1-5.3  c4-1.8,16.7-6.8,20.2-8.4c3.5-1.7,15-6.4,18.5-8.8s10.9-7.4,14.4-10.4c3.5-3,11.2-10.6,13.4-12.9c2.1-2.3,9.9-11.9,12.7-14.2  s7.1-6.6,11.2-8.6s8.6-3.1,13.4-4.3c4.8-1.2,7.1-4.3,7.1-5.5c0-1.2-3.1-4.6-6-4.8c-2.8-0.2-15.5,2-15.5,2l2.8,6.4l-5.8-5.3  c0,0-8.4,4.1-12.1,6.6s-9.4,8.6-9.4,8.6l4.3,6.8l-6.8-5L582.1,305c0,0,1.5,5.3,1.7,6.4c0.2,1.2-0.8,6.9-0.8,6.9s-1-5.8-2.4-7.3  s-3-3.1-3-3.1s-7.1,4.5-10.1,5.6c-3,1.2-13.4,4.8-13.4,4.8s0.5,2.1,1.7,4.5c1.2,2.3-0.2,9.8-0.2,9.8l-4.5-9.9c0,0-8.4,7.3-10.9,9.1  c-2.5,1.8-8.3,3.5-8.3,3.5s9.3-7.6,11.4-9.6c2.1-2,8.3-11.1,9.9-13.4s3.1-6.8,3.5-9.8s-0.3-4.1-1.8-4.1c-1.5,0-2.3,0.3-3.3,3.5  c-1,3.1-2,7.6-3.6,9.6s-5.6,6.4-7.8,8.3c-2.1,1.8-22.1,13.4-22.1,13.4l6.4,8.6c0,0-7.6-5.3-10.4-5.3c-2.8,0-12.6,6.9-12.6,6.9  s6,3.5,9.8,4.1s9.9-0.8,9.9-0.8s-0.7,5.6-1.8,8.4c-1.2,2.8-6.8,7.1-6.8,7.1l6-1.2L518.2,365.8z" style="fill:none;stroke:red;stroke-width:1px" transform="rotate(-45 640 512)"/>
<path d="M467.8,422.5c0,0,2.7-0.8,5-1.2c2.3-0.4,5.1,0,5.1,0  s1.1,6.1,0.5,7.8c-0.5,1.7-3.4,3.2-5.3,4.9c-1.9,1.8-7.6,7-9.6,9.3c-2,2.3-6.5,9.4-7.6,11.7c-1.1,2.2-4.5,6.7-4.5,6.7l-1.5-6.7  c0,0-2,3.3-2.3,4.8c-0.3,1.5,0.4,5.5,0,6.9c-0.4,1.3-1.2,3.4-3.6,4.2c-2.4,0.8-5.9-0.6-8.1-2c-2.2-1.5-4.3-2.8-4.4-4.4  s1.1-2.8,3.1-4.4s8.6-6.7,8.6-6.7l1.9,3.7l6.4-8l1.3,2.3c0,0,4-3.1,4.7-4c0.7-0.9,0.9-3.1,2.1-4.6s6.4-4.2,8.1-5.9  c1.8-1.8,3.9-5,4-6.2s-0.1-3.8-1.2-5S467.8,422.5,467.8,422.5z" style="fill:none;stroke:red;stroke-width:1px" transform="rotate(-45 640 512)"/>
</svg>