<?xml version="1.0" ?><!-- Generator: Adobe Illustrator 24.3.0, SVG Export Plug-In . SVG Version: 6.00 Build 0)  --><svg id="Layer_1" style="enable-background:new 0 0 1280 1024;" version="1.1" viewBox="0 0 1280 1024" x="0px" xml:space="preserve" xmlns="http://www.w3.org/2000/svg" xmlns:xlink="http://www.w3.org/1999/xlink" y="0px">
<path d="M407,608.8c0,0-2.8,0-3.7,0.2c-1,0.2-5.4,2-6.8,3  c-1.1,0.7-2.9,2.7-3.9,3.8c-1.2,1.3-1.7,2.1-2.6,3.5c-0.9,1.4-2.5,3.8-2.5,3.8c0-0.1,0.7-2.1,0.8-2.4c0.7-2.3,1.5-4.2,2.9-6.2  c1.5-2.1,4.2-3.9,6.1-5c1.6-0.9,2.8-1.3,5.5-1.6C405.5,607.6,407,608.8,407,608.8z" style="fill:none;stroke:red;stroke-width:1px" transform="rotate(-45 640 512)"/>
<path d="M424.5,641.5c0,0-2.9,3.4-4.8,4.2c-1.8,0.8-2,0.8-5.4,1.8  c-3.4,1-5.2,1.3-7.9,1.5c-2.7,0.1-4.7,0.5-6.5,0.6c-1.8,0.1-4.1,0.4-5.8,1.1c-1.5,0.6-3.1,1.1-4.6,2c-2.4,1.4-4.8,4.9-4.8,4.9  s-1-1.8-0.9-4.3c0.1-2.5,1.5-5.2,2.6-6.5c1.3-1.5,3.1-3.5,4.7-4.3c2-1,4-2,6.7-2.8c2-0.6,3.7-1.1,5.9-2.1c2.5-1.1,3.9-1.5,5.7-2.4  c1.7-0.9,3.9-1.5,3.9-1.5s1.1-0.5-1.3,1.5c-2.4,2-3.1,2.6-5,3.2c-2.6,0.9-5.3,1.8-7,2.6c-1.9,0.9-2,0.8-4.3,1.9  c-2.3,1.1-3.1,1-4.7,2.3c-1.6,1.2-2.8,2.8-3.2,3.6c-0.5,0.9-1.2,3.1-1.6,3.8c0,0,0,0.1,0.1,0.1c0.5-0.4,2-1.8,4.3-2.9  c3.3-1.6,5.9-2.3,6.7-2.4c2.9-0.3,6-0.8,7.6-0.8s4.7-0.3,6-0.4c2.3-0.1,3.3-0.7,5.6-1.2c2.5-0.6,2.8-0.8,4.6-1.7  C422.6,642.4,424.5,641.5,424.5,641.5z" style="fill:none;stroke:red;stroke-width:1px" transform="rotate(-45 640 512)"/>
<path d="M458.4,644.7c-0.4,3.4-0.7,3.8-2,5.7c-1.4,2-3.1,3.5-3.1,3.5  s0.6-1.3,1.2-3.3c0.6-2.1,1.3-4.1,1.8-6.7c0.5-2.6,0.3-5.3,0-6.7c-0.3-1.4,0.3-3.1,0.3-3.1s2.4,2.7,2.5,5  C459.4,641.2,458.8,641.4,458.4,644.7z" style="fill:none;stroke:red;stroke-width:1px" transform="rotate(-45 640 512)"/>
<path d="M657.9,585.7c-1.7,0.8-1.7,1.1-3.9,2.4c-2.2,1.3-3.5,1.5-5.9,1  c-2.5-0.5-3.1,0.4-3.9-2.3c-0.8-2.7-1.3-3.4-3-4.4c-1.7-1-2.6,0.1-4.1-2.7c-1.6-2.8-3.5-4.3-4.5-6.3c-1-2.1-1.7-3.1-0.5-5.1  c1.2-1.9,3.1-4.4,4.5-5.7c1.4-1.3,2.3-1.4,3.1-3.5c0.8-2.1,0.7-4.9,1.5-7.1c0.9-2.2,1.8-4.5,3.6-6.4c1.8-1.9,1.8-2.7,3.3-3.9  c1.5-1.3,1.5-1.3,3.8-1c2.2,0.3,3.2,0.8,4.5,2.1c1.3,1.3,2.2,3.1,2.2,3.1s0.1-1-1.8-5.3c-1.7-3.8-2.8-4.4-5.3-5.1  c-2.5-0.8-3.9-1.3-6.1-1c-2.2,0.2-4.1,0.5-5.7,1.3c-1.5,0.8-2.5,1.9-3.7,3.6s-3.5,2.4-3.5,2.4s-1.8-1.8-1.9-3.8s-0.5-3.9-0.4-5.6  c0.1-1.7,0.8-3.5,2.3-4.8c1.5-1.3,5.5-1.5,6.6-2.1c1-0.5,2.8-0.9,2.8-0.9s0,0-4.1-1.3c-2.6-0.8-3.2-1.5-6.3-0.6  c-3.1,0.9-4.5,1.2-6.1,2.8c-1.5,1.7-1.9,2.1-3.8,4.5c-1.8,2.4-2.6,5.8-3,7.3c-0.4,1.5-0.2,3.6-0.2,3.6s-1.8,0.6-2.6-0.8  c-0.8-1.4-0.5-2.8-1.4-3.7c-0.9-0.9-2.1-0.6-2.3-2.1c-0.3-1.4-0.8-3.6,0.7-5.4c1.4-1.8,2.1-3.6,3.3-3.8c1.2-0.3,5.8-2.4,5.8-2.4  s0.5-0.7-3.3-0.5c-3.9,0.1-8.8,1.6-10.7,3.5c-1.9,1.9-4.5,5.2-4.5,7.5c0,2.3,0,6.9,0.8,8.5c0.8,1.6,3.6,6.1,5.2,7.8  c1.5,1.7,3.7,4.8,4.9,6.8c1.2,2.1,1.9,3.9,0.9,7.2c-1,3.3-7.4,9.8-9.2,11.9c-1.8,2.1-9.2,8.4-11.8,10.1c-2.6,1.7-4.9,4-7.6,4.4  c-2.7,0.4-6.7,0.3-8.4-0.8c-1.7-1-5.4-2.8-7.1-5.3c-1.7-2.4-4.2-6.9-5.7-10.2c-1.1-2.4-2.8-5-4.3-6.3c-0.6-0.5-1.6-1.6-2.5-2.7  c-2.6,2.8-3.6,10.3-3.6,10.3s-0.7-0.5-1.3-1.8c-0.2-0.3-0.4-0.8-0.6-1.2c-0.1-0.2-0.1-0.3-0.2-0.5c0,0,0-0.1,0-0.1  c0-0.2-0.1-0.4-0.1-0.6c0-0.2-0.1-0.4-0.1-0.5c-0.1-0.3-0.1-0.6-0.2-0.9c-0.1-0.9-0.2-1.7-0.3-2.3c-0.5,0.7-1,1.5-1.4,2.2  c-2.3,3.6-4,5.8-5.3,9.5c-1.3,3.9-2.5,7.1-3.6,10.6c-1.2,3.5-2.8,10.7-3.1,14.8c-0.4,7.6-0.7,13.5-0.7,13.5  c7.2-2.7,10.1-4.7,16.2-5.3c6.1-0.6,8.7-1.2,13.9,0c5.2,1.2,9.5,2.2,13,3c3.5,0.8,6.1,1.2,10.1,0c4-1.2,6.7-3,9-5.3  c2.3-2.3,3.8-8.1,7.2-14.2c3.5-6.1,5.5-9.8,8.1-11.9c2.6-2,2.9-2.6,6.4,0c0,0,3,2.7,4.6,3.3c1.6,0.6,3.6,1.2,4.5,2.3  c0.9,1.2,1.3,2.2,3.2,3.5c1.9,1.3,3.5,1.3,4.7,1.3c1.2,0,1.9,1.5,3.5,1.5s4,0.4,6.7-0.4c2.7-0.8,5.4-2.6,7.1-4.5s4.4-6.2,4.4-6.2  S659.5,585,657.9,585.7z M645.7,536.3c0.9-0.5,6.1,1.2,6.1,1.2l0.9,1l-6.6,1l-1.4-1.9C644.7,537.4,644.8,536.8,645.7,536.3z   M609.8,533.6l-3.8,1.8c0,0,0.1-3.4,0.5-4.6c0.4-1.2,1-2.5,2.2-3.4c1.2-0.9,2.7-1.2,2.7-1.2L609.8,533.6z M624.9,529.2  c0,0,1.6-2.6,2.4-3c0.8-0.4,4.4-1,4.4-1l-4.1,4.8L624.9,529.2z M648.1,593.8c-1.4,0.2-5.8,0-5.8,0l1.9-3.2l7.2,1.6  C651.4,592.1,649.5,593.5,648.1,593.8z" style="fill:none;stroke:red;stroke-width:1px" transform="rotate(-45 640 512)"/>
<path d="M486.1,425.6c-0.7-1.8-2.4-3.1-3.4-5s-4.5-3.4-6.5-4.2  c-2-0.8-6.7,0.1-9,0c-2.3-0.1-4,1.2-5,2c-1,0.8,0.4,3.1,0.4,3.1s1.6,1.1,2.8,0.3c1.2-0.8,2.7-1.9,4.9-2.7c2.1-0.8,4.3,0.3,5.8,0  c1.5-0.3,3.6,1.5,4,2c0.4,0.5,0.5,2.8,0.4,4.2c-0.1,1.4-1.2,6.7-1.8,8.4c-0.5,1.6-6.1,5-8.2,6.6c-2.2,1.6-3.8,3.4-6.1,5.4  c-2.3,2-2.6,4-4,5.8c-1.5,1.8-2.1,3.8-4.2,8c-2,4.2-2.3,4-2.7,5.7c-0.3,1.2-0.2,1.6,0,1.7l-4.3-4.3c0,0,0,2,0.1,3  c0.1,0.9,0.7,3.2,0.7,3.2s-0.9,1.4-3.2,2.8c-2.3,1.5-3.9,1.3-6.9,0.8c-3-0.5-3.6-0.8-6.1-2c-2.4-1.2-5.9-6.2-6.2-8  c-0.3-1.8-0.3-5.6-0.3-5.6s-1.8,1.8-1.8,3.3c0,1.5,0,4.2-0.3,7.3c-0.3,3.1-0.7,3.1-0.7,3.1s-0.7,0.9-2.3,2.6s-2.6,2.8-3.2,4.3  c-0.7,1.5-1.3,3.5-1.3,3.5l4.8-2.3l0.8,0.7c0,0-2.8,2.3-3,4c-0.1,1.8-0.1,3.4,0,5c0.1,1.6,3.4,3.6,3.4,3.6s-0.1-4.3,0.8-5.9  c0.9-1.6,4-1.8,5.7-1.2c1.6,0.5,4.1,4,4.1,4s5.8,0.5,8.4,0.8c2.6,0.3,5,0.5,6.2,1.8c1.2,1.2,2,3,1.9,5.7c-0.1,2.7-1.9,4.1-1.9,4.1  s2.7-1,4-2.1c1.3-1.1,2.3-2.4,2.7-3.4c0.4-1,1.9-11,1.9-11l4.2,5.1c0,0,1.7-4.3,2.2-5.8s0.7-5.3,0.7-8c0-2.7,0-2.8,0.6-2.3  c0.7,0.5,2.6,4.9,2.6,4.9s1.4-2.2,2.4-5.1c1.1-3,1.8-9.3,2.6-12.8c0.8-3.5,2.3-4.8,4.7-7.7c2.4-2.8,5.4-6.7,8.2-9.2  c2.8-2.4,3-1.5,3.4-2.8C489.7,439.6,486.8,427.3,486.1,425.6z M483.9,438c-2.4,1.8-5.1,3.8-8.2,6.5c-3.1,2.7-5.3,5.1-8.4,9  c-3.1,3.9-4.5,8.6-5.1,10.8c-0.7,2.2-2.7,8.1-4.2,9.4c-1.5,1.3-5.3,4.2-8.2,4.9c-3,0.7-8.5,0.8-12.1,0.8s-6.6,0-9.4-2.4  c-0.9-0.8-1.8-4.7-1.8-4.7s3.2,2.7,5.1,3.5s6.2,0.7,8.6,0.5c2.4-0.1,8.9-0.8,11.2-2.3c2.3-1.5,4-3.4,5.5-6.2  c1.5-2.8,4.3-10.7,5.5-13.5c1.2-2.8,4.6-7.6,7.4-10.1c2.8-2.6,4.6-3.8,8-5.8s7.4-6.3,7.4-6.3S486.4,436.2,483.9,438z" style="fill:none;stroke:red;stroke-width:1px" transform="rotate(-45 640 512)"/>
<path d="M515.2,387.5c0,0-0.3-4.4,0.7-6.2s2.5-2.8,4.8-3.9s4.8-1,4.8-1  s1.3,0.8,1.1,4.2c-0.1,3.4-2.8,7.9-2.8,7.9l-1.3-6.7L515.2,387.5z" style="fill:none;stroke:red;stroke-width:1px" transform="rotate(-45 640 512)"/>
	<path d="M387.5,566.6c0,0-3-0.7-4.2-2c-1-1-2.5-4.2-2.5-4.2l6.3,3.1   L387.5,566.6z" style="fill:none;stroke:red;stroke-width:1px" transform="rotate(-45 640 512)"/>
	<path d="M419.2,520.2c0,0-0.7,1-1.8,1.1c-1.1,0.1-2.3-0.5-3.1-1.7   c-0.8-1.1-3-2.8-3-2.8s3.2,0.4,4.6,1C417.4,518.5,419.2,520.2,419.2,520.2z" style="fill:none;stroke:red;stroke-width:1px" transform="rotate(-45 640 512)"/>
	<path d="M440.1,525.8c0,0,0,0-1.4,0s-2.1-0.9-2.4-1.5   c-0.3-0.6-0.1-1.4-0.1-2.3c0-0.6,0.1-2.4,0.3-3.4c0.1-0.2,0.4-0.3,0.5,0L440.1,525.8z" style="fill:none;stroke:red;stroke-width:1px" transform="rotate(-45 640 512)"/>
	<path d="M452.6,539.4c-0.2,0.7-1.7,2.8-1.7,2.8l-2.1-2.7l2.8-7.6   c0,0,1.2,2.4,1.4,3.3C453.2,536.2,452.8,538.7,452.6,539.4z" style="fill:none;stroke:red;stroke-width:1px" transform="rotate(-45 640 512)"/>
</svg>