<?xml version="1.0" ?><!-- Generator: Adobe Illustrator 24.3.0, SVG Export Plug-In . SVG Version: 6.00 Build 0)  --><svg id="Layer_1" style="enable-background:new 0 0 1280 1024;" version="1.1" viewBox="0 0 1280 1024" x="0px" xml:space="preserve" xmlns="http://www.w3.org/2000/svg" xmlns:xlink="http://www.w3.org/1999/xlink" y="0px">
<path d="M611.5,526.2l-1.7,7.4l-3.8,1.8c0,0,0.1-3.4,0.5-4.6  c0.4-1.2,1-2.5,2.2-3.4C610,526.5,611.5,526.2,611.5,526.2z" style="fill:none;stroke:red;stroke-width:1px" transform="rotate(-45 640 512)"/>
<path d="M631.7,525.2l-4.1,4.8l-2.7-0.8c0,0,1.6-2.6,2.4-3  C628,525.8,631.7,525.2,631.7,525.2z" style="fill:none;stroke:red;stroke-width:1px" transform="rotate(-45 640 512)"/>
<path d="M652.7,538.4l-6.6,1l-1.4-1.9c0,0,0.1-0.6,1-1.2  c0.9-0.5,6.1,1.2,6.1,1.2L652.7,538.4z" style="fill:none;stroke:red;stroke-width:1px" transform="rotate(-45 640 512)"/>
<path d="M651.4,592.1c0,0-1.9,1.4-3.3,1.6s-5.8,0-5.8,0l1.9-3.2  L651.4,592.1z" style="fill:none;stroke:red;stroke-width:1px" transform="rotate(-45 640 512)"/>
<path d="M535.4,386.2c-0.7,4.3-3.9,11.4-5.1,13.2  c-1.2,1.9-4.6,5.3-4.6,5.3l-0.8-0.9c0,0,1.4-2.7,1.7-4s0.9-3.6,0.9-3.6s-2.5,0.9-4,1.7c-1.5,0.8-4.2,1.4-4.2,1.4s4.8-8.5,5.6-9.6  c0.8-1,2.9-2.4,3.9-4.4c1-2,0.9-4.4,0.7-6.4c-0.2-2,0.1-4.3,0.3-5.8c0.1-1.5,2.5-3.1,2.9-3.7c0.4-0.6-0.5-0.7-1.2-0.2  c-0.7,0.5-2.4,1.7-4,2.6c-1.6,0.9-4.4,1.7-6.2,2.2c-1.8,0.4-4.6,2.1-6.6,3.3c-2,1.2-3.1,4.3-3.9,6.5c-0.8,2.2-0.6,5.9-0.6,5.9  s-7.3,1.2-9.6,1.7c-2.2,0.4-6.8,2.2-8.7,3.2c-2,1-4.3,4.9-5.4,6.4c-1.1,1.5-3.3,3.3-4,3.8c-0.7,0.4-2.7,0.5-4.3,0.1  c-1.7-0.4-7.9-0.9-9.1-1.1c-1.2-0.2-7.2,0.7-9.6,1.7c-2.4,1-7.3,4.5-8.5,5.6c-1.2,1.2-2.6,3.2-2.5,4.6c0.1,1.4,1.9,3.9,3.1,4.8  c1.3,0.9,3.3,0.7,4.6,0.4c1.3-0.3,3.6-1.4,3.6-1.4l2.8,14.5l-6.3-2.5l-0.9,0.2c0,0,1.1,2.5,1.5,3.8c0.4,1.3,0.4,4.7-0.1,6.4  c-0.4,1.7-2.9,4.8-2.9,4.8s-3-2.5-4.4-3c-1.4-0.6-3.2-0.2-3.2-0.2s1.4,3.5,1.3,5c-0.2,1.5-1.2,3.4-1.2,3.4s-2.2-1.6-3.3-2.4  c-1.1-0.8-1.7-1-3.8-1.4c-2.1-0.4-3.9,0.1-5.5,0.5c-1.6,0.4-4.6,1.7-7.5,2.5c-2.9,0.8-4.8,1.2-6.4,1.2c-1.7-0.1-2.4-0.6-4.2-1.7  c-1.8-1.1-1.7-1.5-3.3-3c-1.6-1.5-3.1-2.5-4.7-2.8c-1.6-0.4-3.3,1-4.5,1.7c-1.1,0.7-2.8,2.5-2.8,2.5s-0.6-3.1-0.6-4.4  c0.1-1.3,2.2-5.6,2.2-5.6l-6.4,2.1c0,0,0.5-2.6,0.8-3.5c0.3-0.9,3.2-3,3.2-3l-5.1,0.3l9-9.3c0,0,1.2,4.7,1.9,6.4  c0.7,1.7,2.6,2.8,4,2.9c1.4,0.1,4.2-0.6,4.2-0.6s2.3,3.3,3.2,4.3c0.9,0.9,3,2.5,4.2,2.9c1.2,0.4,4-0.2,5.6-0.7  c1.5-0.4,3.5-2.2,4.2-2.7c0.7-0.4,2-5.6,2-5.6s0.4-0.1,1.2,0.2c0.7,0.3,1.9,2.3,2.8,2.9c0.9,0.6,3.1,1.6,4.3,1.8  c1.2,0.2,3.7-0.5,5.4-1.2c1.7-0.7,4.3-4,5.1-5.7c0.7-1.7,0.4-4,0.2-5.1c-0.2-1.1-1.9-3.2-2.8-4.2c-0.9-1-1-0.8-3.1-1.9  c-2-1.1-7.7-2.7-10-3.4c-2.3-0.7-6-1.7-7.7-2c-1.7-0.4-3.6,0.1-5.2,0.4c-1.5,0.3-2.4,0.6-3.6,0.9c-1.1,0.3-1.2,0.5-1.1,0  c0.1-0.5,6.2-4,7.4-4.9c1.3-0.9,4.2-2.6,5.7-4.1c1.5-1.5,2.8-4.5,3-6.4c0.2-1.9-0.7-3.4-1.2-5c-0.6-1.6-2.8-4.8-3.2-6.3  c-0.4-1.5-0.6-5-0.6-5.8c0-0.9,0.2-3.5,0.7-4.1c0.5-0.6,4-2,4-2l0.3,1c0,0-1.2,1.2-2,2.2c-0.7,0.9-0.9,2.2-1.2,3.6  c-0.2,1.4,0,4.5,0,4.5c0.9,3.7,1.5,4.1,3.2,5.3c1.7,1.2,4.9,2.6,7.6,2.3c2.7-0.3,5.2-1.7,7.6-4.8c0.6-0.8,1.3-2.1,2-3.6  c0.3-0.2,0.6-0.5,0.8-0.7c1.7-1.7,1.2-3.3,2.6-3.3s0.9,2.1,1.5,4.1c0.6,2-0.3,3.2,2.3,3.5c0.3,0,0.5,0,0.8,0c0.5,1.3,1,2.3,1.3,2.4  c1.4,0.6,4.3,4.1,6.5,4.7s7.9,0.5,11.4-1.7s4.3-3.8,5.3-6.2c1.1-2.4,2.3-9.1,2.3-9.1s9.6,0.2,11.9-0.8c2.3-0.9,4.6-4.1,5.9-7.1  c1.4-3,0.6-6.9,0-9s-4.1-6.8-4.1-6.8s-1.5,2.7-2.7,4.6c-1.2,1.8-4,6.4-6.1,7c-2.2,0.6-4.2,0-4.2,0s3.4-2.4,4-3.4  c0.6-0.9,0-4.4,0-4.4s-3.2,2.4-4.3,3.2c-1.1,0.8-4.7,1.1-7.8,1.9c-3,0.8-5.5,1.5-7.9,2.8c-0.7,0.4-1.5,0.6-2.2,0.6  c-0.1-0.5,0-1.1-0.6-1.8c-1-1.2-2.3-1.4-3.9-0.8c-0.6-0.5-1.3-0.9-2.1-0.8c-2,0.4-4,0.2-6.5,0c-2.6-0.2-2.6-1.9-4.3-1.1  c-0.6,0.3-0.9,0.9-0.9,1.5c-0.5-0.2-0.9-0.4-1.3-0.4c-0.8-0.1-0.9,0.6-0.6,1.5c-3.6-2.2-10.4-6.4-10.6-7.5c-0.3-1.5,0-12,0-14  c0-2,4-3.3,4-3.3s-0.8,2.4-0.6,3.3c0.2,0.9,2.9,2.6,2.9,2.6s0.3-4.5,0.8-5.9c0.5-1.5,3.5-6.3,4.3-9c0.6-2.1-1-4.6-1.7-5.7  c-0.1-0.2,0-0.4,0.2-0.4c1,0.3,2.9,0.9,3.9,1.6c1.4,0.9,2.7,1.7,4.3,4.5c1.6,2.8,2.2,4.2,2.7,6.4c0.6,2.2,0.9,7,0.9,7l2-0.4l2.8-4.6  c0,0,2.7,4.1,3.7,5.3c1,1.2,3.7,2.7,5.2,2.7s3.9-0.8,6-2.5c2.1-1.7,4.1-3.5,4.1-3.5l-0.1,7.5l0.9,0.6c0,0,1.2-2,1.7-2.6  c0.5-0.7,2.4-1.9,4-2.5c1.7-0.6,4-0.9,5.3-1c1.4-0.1,4.3,0.9,6.2,1.9c1.9,1,3.8,2.5,6.4,3.5c2.5,1,6.4,1.7,6.4,1.7s0,1.5-0.3,2.5  c-0.3,1-1.2,2.2-2.5,3.5c-1.3,1.4-4.1,4.3-4.1,4.3s2,1.1,3.2,1.5c1.3,0.4,4.6-0.6,4.6-0.6s-2,5.3-2.8,6.6c-0.7,1.3-2.2,3.3-4.1,5.5  s-2.8,3.5-2.8,3.5s7.9-4.8,9.6-5.9c1.7-1,7-2.8,8.6-3.6c1.6-0.8,5.9-3,6.9-4c1.1-1.1,3.1-3,3.1-3s1.3,7,1.5,9.6  C536.2,375.6,536.1,381.8,535.4,386.2z" style="fill:none;stroke:red;stroke-width:1px" transform="rotate(-45 640 512)"/>
</svg>