<?xml version="1.0" ?><!-- Generator: Adobe Illustrator 24.3.0, SVG Export Plug-In . SVG Version: 6.00 Build 0)  --><svg id="Layer_1" style="enable-background:new 0 0 1280 1024;" version="1.1" viewBox="0 0 1280 1024" x="0px" xml:space="preserve" xmlns="http://www.w3.org/2000/svg" xmlns:xlink="http://www.w3.org/1999/xlink" y="0px">
<path d="M649,751.8c-3.9,1.3-7.6,2.4-9.8,2.8c-4.9,1-21.5,3-28.3,3.5  c-6.8,0.5-20.1-1.2-28.7-2.7c-8.5-1.5-27.7-7.6-35.3-10.8c-7.6-3.2-20.3-10.1-26.2-15c-5.9-4.9-14.8-13.3-18.6-17.5  c-3.8-4.2-11.6-14.8-14.2-19.2c0,0-4.6-15.7-5.6-18.9c-1-3.3-4-12.6-4.5-16.5c-0.4-3.9-1.4-13.2-1.5-15.4c-0.1-2.2-0.2-8.6,0-12.8  c0.1-2.6,0.1-5.8,0.1-7.9c1-0.8,2-1.4,3.3-1.9c2.8-1.2,5.9-3.6,9.8-6.2c3.9-2.6,5.8-3.8,7.8-6.1c2-2.3,2.8-3.7,4.1-6.6  c1.2-2.7,3.1-6.3,3.3-6.8c-0.4,0.5-5,7.2-7.5,9.9c-2.6,2.8-6.1,5.5-7.8,6.8c-1.7,1.3-6.4,3.5-9.1,4.7c-1,0.4-2,0.8-3,1.2l0.5-3.6  c4-1.2,8.1-2.7,10.1-3.8c2.6-1.5,7.6-4.7,10.6-9.7c2-3.3,4.4-12.7,4.8-17.1c0.4-4.4-1.5-8.8-2.9-12.7c-1.3-3.5-5.5-7.8-8.4-9.8  c0.9-1.9,1.6-3.9,2.3-6c1.7-5.2,5.4-11.6,9.1-16.7c3.8-5.2,6.4-10.2,9.3-14.9c1.3-2,4.5-5.4,8.3-9.1c1.3-1.3,2.6-2.6,4-3.8  c3.6-3.4,7-6.7,9.2-8.9c5.2-5.5,10.7-8.1,15-11.6c4.3-3.5,10.4-8.4,14.2-12.7c1.8-2.1,4.5-4.4,7.1-6.6c2.1-1.8,4.2-3.6,5.9-5.2  c0.6-0.6,1.2-1.2,1.7-1.8c3.5-4,10.6-10,13.4-14.5c3.4-5.4,5.8-8.6,8.1-15.3s4.5-12.4,5.1-20.9c0.1-1,0.1-2.1,0.1-3.2  c0-2-0.2-4-0.4-6.1c-0.5-3.6-1.2-7.2-2-10.4c-1.2-5-3-8.4-9.5-17.1c-2.4-3.1-5.1-5.4-9-7.2c1-1.5,1.8-2.7,2.4-3.5  c2.4-3,17.5-15.4,18.1-15.9c-0.3,0.1-5.4,1.6-10.2,5.5c-5,4-5.3,1.8-10.6,8.7c-1.2,1.5-2.1,2.8-3,4c-0.8-0.3-1.6-0.5-2.5-0.8  c0,0-2.6,3.4-4.9,7.2l-1.9-2.3c0.5-0.9,1-1.6,1.4-2.2c2.5-3.7,13-13.7,15.4-15.2c2.4-1.5,15.9-10.4,16.3-10.7  c-0.4,0.1-10.9,3.4-13.9,4.4c-3,1-6.7-0.3-9.6-0.9c-2.9-0.6-2.6-1.8-2.6-1.8s5.9-0.8,8.8-1.8c2.9-1,10.2-5.9,13-8  c0.9-0.7,2.4-2.2,4-3.9c2.4,1.7,6.3,4.8,9,6.5c3.6,2.3,6.9,5.5,11.7,10c4.8,4.5,9.5,11.2,11,13.7c1.4,2.5,6.6,12.4,7.9,15.5  c1.3,3.2,3.5,9.4,4.7,15.6c1.2,6.2,1.3,9.8,1.3,16.5c0,6.7,0.2,12.5-0.7,18.9c-0.9,6.4-3,12.1-5.5,17.9c-2.5,5.7-5.4,10.3-9.1,15.5  c-3.7,5.2-9.1,11.4-12.8,15.8c-3.7,4.4-18.8,18.2-22.9,21c-4.1,2.8-13.7,10.7-13.7,10.7c-5,3.9-14,10.8-16.9,13.7  c-2.9,2.8-11.7,9.8-16.6,13.7c-4.9,3.9-11.6,11.7-14.4,14.9c-2.8,3.1-9.1,11-11.7,14.2c-2.6,3.2-10,15.9-12.1,18.9  c-2.2,2.9-5,11.7-6.5,14.8c-1.5,3.2-6,12.9-6.7,16.4c-0.8,3.5-2.3,15.5-2.3,15.5c-0.5,4.3-0.8,14.5-1,19.2  c-0.2,4.7,0.3,11.5,0.6,14.6c0.3,3.1,1.9,12.8,3.3,15.8c1.4,3,5.4,9.5,6.9,11.1c1.5,1.5,6,7.8,7.9,11.2c2,3.4,3.6,8,3.6,11.9  c0,3.9-2.1,5.4-1.2,4.9c0.9-0.5,2.6-2.9,2.6-2.9c1.2-2.6,3-6.9,3-8.5c0-1.6-2.3-7-3.1-8.5c-0.8-1.5-2.2-4.3-2.1-5.1  c0.1-0.7,1.1-0.6,2.1-0.3c1,0.4,2.3,1.6,4,3.5c1.7,1.9,3,4.5,4,6.4c1.1,1.9,3.1,6.7,4.2,9c1.1,2.3,2.3,4.3,4.2,8.1  c1.9,3.8,3,5,5.1,7.7c2.1,2.8,7.3,6.6,8.6,7.5c1.3,0.9,4.8,2.2,6.2,2.7c1.5,0.6,3.8,1.2,5.5,1.9c1.7,0.7,5.3,2.8,5.3,2.8  c1.3,0.9,2.3,1.8,5.9,4.6c3.5,2.7,1.7,1.2,2.7,2.1c1.3,1.2,1.6,2.3,1.7,2.7c0-0.1,0-0.1,0-0.2c0-1.1-0.2-3.5-0.9-5.9  c-0.4-1.5-1.2-2.4-2.2-4.1c-1-1.7-3.2-3.3-2.9-3.7c0.4-0.4,2-2,2.8-2.5c0.7-0.5,2.2-0.4,4.4,1.4c2.1,1.7,4.6,4,7.2,5.8  c2.6,1.8,6.3,4.5,11.3,7c5.1,2.5,7.3,2.7,11.1,3.2c3.8,0.5,7.4,0.3,11.9,0.1c4.5-0.2,7.1-0.7,10.4-1.2c3.3-0.6,7-2,9.2-2.2  C643.8,750,647.7,751.3,649,751.8z" style="fill:none;stroke:red;stroke-width:1px" transform="rotate(-45 640 512)"/>
</svg>