<svg id="Layer_1" style="enable-background:new 0 0 485 558.3;" version="1.1" viewBox="0 0 485 558.3" x="0px" xml:space="preserve" xmlns="http://www.w3.org/2000/svg" xmlns:xlink="http://www.w3.org/1999/xlink" y="0px"><path d="M314.4,487.6c-2,2-4.3,3.5-6.8,4.7c-2.9,1.5-7-0.5-8.6-4c-1.8-3.7-3.2-7.7-4.1-11.7    c-0.7-3.8-1.7-7.5-3-11.1c-0.4-1.3-0.5-2.7-0.1-4.1c0.2-0.7,0.3-1.5,0.1-2.2c-0.2-0.7-0.8-1-1.4-0.4c-0.5,0.6-0.8,1.3-0.9,2    c-1.8,6.2-4.4,12.2-6.5,18.3c-1.6,4.7-4,9.1-6.1,13.7c-1,2-2.5,3.7-4.4,5c-2.5,1.8-4.2,4.5-7.1,5.9c-1.1,0.5-2,1.6-3.7,1.5    c0.8-2.7,1.6-5.2,2.4-7.8c2.1-6.5,3.8-13.1,5.1-19.8c0.9-4.6,0.9-9.3,1.7-13.9c1.1-6.7,2.4-13.4,3.7-20.1    c0.6-3.4,0.9-6.8,1.4-10.1c1.4-10,4.2-19.8,8.4-29c3.2-6.7,7.4-12.7,13.5-17.1c0.4-0.4,0.9-0.6,1.4-0.7c0.4,0.8-0.1,1.5-0.3,2.1    c-5,14.7-5,29.9-3.9,45.1c0.5,7,1.6,14,2.1,21c0.2,3.6,1.7,7,2.9,10.4c1.5,4,3.3,7.9,5.2,11.6c1.1,2.1,2.4,4,3.9,5.9    C310.7,484.6,312.6,486,314.4,487.6z" style="fill:#FA0044;"/><path d="M168.1,487.5c5.9-4.4,9.3-10.2,11.8-16.9c0.9-2.4,2.2-4.6,3.1-7c3.5-10.3,3.5-21.1,4.5-31.8    c0.4-3.9,0.4-7.9,0.5-11.8c0.3-10.3-1.2-20.6-4.3-30.5c-0.4-0.9-0.6-2-0.6-3c3.9,2.1,6.6,5.2,9.2,8.5c5.2,6.7,8.3,14.3,10.6,22.4    c2.2,7.4,3.7,15.1,4.4,22.8c0.3,3.2,0.9,6.3,1.7,9.4c1.6,6.6,2.2,13.4,3.5,20.1c0.2,1.1,0.3,2.3,0.3,3.5c-0.1,2.3,0.2,4.7,0.8,6.9    c2.2,8,3.8,16.2,6.8,23.9c0.1,0.3,0.2,0.6-0.4,1.2c-2.8-1.2-5.4-2.9-7.6-5.1c-0.6-0.7-1.3-1.4-2-2c-3.5-2-5-5.3-6.6-8.7    c-3.8-7.8-6.2-16-9.5-24c-0.8-1.9-1.2-3.8-1.9-5.8c-0.2-0.6-0.6-1.3-1.3-1.1s-0.8,1-0.6,1.6c1.1,3.5-0.5,6.7-1.4,9.9    c-1.4,5.8-2.7,11.6-5.2,17.1c-1.3,2.9-3.1,5.2-6.7,5.5c-1.1,0.2-2.1,0-3.1-0.6C172.3,490.6,169.9,489.7,168.1,487.5z" style="fill:#FA0044;"/><path d="M305.7,128.1c-4.2,1.6-8.5,3.2-12.7,4.9c-3.4,1.3-6.4,3.3-9,5.9c-2.3,2.3-4.8,4.5-7.5,6.4    c-2.7,2-5.1,4.2-7.2,6.7c-2.2,2.5-4.6,4.8-6.9,7.1c-2.4,2.2-4.1,4.9-5,8c-0.4,1.2-0.9,2.4-1.4,3.5c-2.7,5.9-3.5,12.2-3.4,18.7    c0.1,0.4,0.1,0.8,0,1.3c-0.2,1.1,0.8,2.8-1.2,3.1c-1.2,0.2-3-1.7-3.2-3.1c0-0.3,0-0.7,0-1c-0.1-7.4,0.1-14.7,0.4-22    c0.4-7.2,1.8-14.1,3.2-21.1c0.9-4,3-7.7,6-10.6c4.7-4.6,9.7-9,14.5-13.5c1.1-1.2,2.7-1.7,4.3-1.6c5.4,0.5,10.8,0.6,15.9,3.1    c3.6,1.6,7.4,2.7,11.3,3.3C304.5,127.3,305.3,127.2,305.7,128.1z" style="fill:#FA0044;"/><path d="M177,127.6c1.5-0.3,3.1-0.6,4.6-1c3.2-0.7,6.4-1.7,9.4-3c1.7-0.8,3.6-1.3,5.5-1.7    c3.1-0.6,6.3-0.8,9.5-1c1.6-0.2,3.2,0.4,4.3,1.6c4.9,4.8,10,9.2,14.9,13.9c2.8,2.7,4.7,6.1,5.6,9.9c3.5,14.2,3.9,28.6,3.8,43.1    c0.1,1.2-0.3,2.4-1.2,3.1c-0.8,0.6-1.4,1.5-2.5,1.1c-1.2-0.4-0.8-1.7-0.7-2.5c0.3-4-0.5-7.8-0.6-11.8c-0.1-1.1-0.3-2.1-0.7-3.1    c-1.4-3.8-2.8-7.6-4.3-11.3c-0.9-2-2.1-3.7-3.7-5.2c-3.1-3.1-6.2-6.1-9.1-9.4c-0.3-0.3-0.6-0.6-0.9-0.9c-4.7-4.3-9.9-8-14.5-12.4    c-2.3-2-4.9-3.4-7.8-4.4c-3.9-1.4-7.7-3-11.6-4.5L177,127.6z" style="fill:#FA0044;"/><path d="M209,276.3c-1.1-1.7-1.9-2.8-2.7-3.9c-4.3-5.6-9.6-10.2-15.2-14.4c-1.9-1.5-3.7-3.2-5.1-5.2    c-1.5-2.2-0.9-5.1,1.3-6.6c0,0,0.1,0,0.1-0.1c4.4-2.9,8.9-5.9,13.3-8.7c2.4-1.7,4.7-3.7,6.8-5.9c2.6,2.9,3.9,5.6,3.1,9.7    c-2.1,9.9-1.8,20.1-1.6,30.2C209,272.8,209,274.2,209,276.3z" style="fill:#FA0044;"/><path d="M273.8,275.3c-0.2-5.6,0-11.1-0.1-16.6c-0.2-6.4-0.4-12.8-1.9-19c-0.8-3.2,1.2-5.2,2.8-7.4    c0.4-0.6,1-0.3,1.4,0.1c4.2,5,10.4,7.4,15.3,11.4c1.1,0.8,2.3,1.6,3.5,2.3c2.8,1.7,3.5,4.8,1.5,7.3c-1.2,1.5-2.5,2.9-4,4.1    C285.5,262.6,278.9,268.1,273.8,275.3z" style="fill:#FA0044;"/><path d="M346.2,318.2c-2.6,4.6-5.8,8.7-9.6,12.3c-3,2.7-6.3,5-9.9,7c-0.9,0.5-1.9,0.8-3,0.8    c-1.2,0.2-2.3-0.5-2.8-1.6c-1.6-3.1-3.3-6.2-5.1-9.2c-1.5-2.6-1.7-2.5-4.6-1.7c-4.1,1.2-8,3-11.5,5.5c-3.2,2-6.7,3.3-10.4,3.8    c0-0.5,0-0.8,0.1-0.9c3.9-4.2,6.5-9.4,9.9-14.1c0.8-1,1.4-1.6,2.9-1.2c3.6,1,6.9,0.5,9.7-2.3c1.7-1.7,2.2-1.5,3.9,0.3    c1,1.1,2,2.2,2.8,3.5c2.9,4,6.9,4.7,11.4,3.6c3.2-0.7,6.3-1.8,9.3-3.4C341.4,319.4,343.8,318.6,346.2,318.2z" style="fill:#FA0044;"/><path d="M193.1,334.6c-3.8-0.4-7.4-1.3-10.5-3.4c-3.6-2.5-7.6-4.4-11.8-5.5c-2.3-0.7-2.6-0.7-3.9,1.5    c-1.7,2.8-3.3,5.7-4.9,8.6s-3.2,3.4-6.2,1.8c-6.1-3.2-11.5-7.8-15.7-13.3c-1.2-1.6-2.4-3.2-3.6-4.9c-0.3-0.4-0.4-0.9-0.1-1.3    c2.5,0.5,4.8,1.4,7,2.7c2.8,1.5,5.9,2.6,9,3.3c4.6,1.1,8.7,0.4,11.6-3.8c1-1.4,2.1-2.7,3.3-3.9c0.6-0.8,1.8-1,2.7-0.4    c0.1,0,0.1,0.1,0.2,0.1c0.3,0.2,0.5,0.4,0.8,0.6c2.6,2.9,5.9,3.1,9.4,2.2c1-0.4,2.2,0,2.7,0.9C186.5,324.6,189.1,330,193.1,334.6z    " style="fill:#FA0044;"/><path d="M241.2,286.5c-2.3-0.5-4.6-0.7-7-0.7c-0.9,0.1-1.7-0.5-1.9-1.4c-1.5-3.7-3.4-7.1-5.7-10.3    c-1.2-1.8-0.7-2.6,1.4-2.9s4.2,0.4,6.3,0.7c5.7,1,11.2,0.4,16.8-0.4c0.4-0.1,0.8-0.2,1.2-0.3c1.3,0,3-0.6,3.9,0.7    s-0.6,2.3-1.2,3.3c-1.7,2.8-3.6,5.5-4.7,8.7c-0.2,1.2-1.3,2-2.5,1.8c0,0,0,0,0,0C245.6,285.6,243.4,286.2,241.2,286.5z" style="fill:#FA0044;"/></svg>