<svg id="Layer_1" style="enable-background:new 0 0 485 558.3;" version="1.1" viewBox="0 0 485 558.3" x="0px" xml:space="preserve" xmlns="http://www.w3.org/2000/svg" xmlns:xlink="http://www.w3.org/1999/xlink" y="0px"><path d="M428,502.9c-3.6-6.3-7.4-12.4-12.9-17.3c-5.3-4.5-10.9-8.5-16.9-12c-1-0.5-1.9-1.1-2.7-1.9    c7.2-7.1,16.7-10,25.9-13.3c6.7-2.4,13.6-4.1,20.7-5.2c2.4-0.4,4.9-0.4,7.3-0.6c3-0.3,6.1-0.5,8.9-2c0.7-0.3,1.5-0.3,2.1,0    c2.2,0.5,4.4,0.9,6.5,1.6c5.9,1.7,12,3,18.1,3.7c-16.1,16.6-33.8,31.5-53,44.5L428,502.9z" style="fill:#FF2EF8;"/><path d="M0,455.5c7.3-0.7,14.3-3.4,21.5-4.8c1.2-0.3,2.5-0.2,3.6,0.3c3.2,1.1,6.6,1.7,10,1.7    c7.9,0.5,15.6,2.1,23.1,4.7c5.6,1.9,11.2,4.1,16.8,6.1c1.8,0.7,3.5,1.7,5,2.8c2.4,1.6,4.5,3.5,7.3,5.1c-2.3,1.9-4.8,3.6-7.5,5.1    c-6.6,4.1-12.8,8.5-17.6,14.6c-2.7,3.3-5,6.9-7,10.7c-10.2-6.9-20-14.2-29.5-22.1c-8.8-7.4-17.2-15.2-25.2-23.4    C0.3,456.1,0.1,455.8,0,455.5z" style="fill:#FF2EF8;"/><path d="M213,118.6c0.6-0.3,0.8-0.5,1.1-0.6c4-1.7,8.1-3.1,11.7-5.7c4.5-3.2,9.9-3.7,15.2-3.8    c6.8-0.1,13.1,1.3,18.5,5.7c1.8,1.4,4.1,1.7,6.1,2.7c1.3,0.4,2.5,1,3.6,1.8c-1.5,1.5-2.8,3.1-4.3,4.6c-2.3,2.2-4.4,4.6-6.3,7.2    c-0.8,1.2-1.8,2.2-2.9,3c-4.4,3.1-6.5,7.6-7.6,12.6c-2.1,10-3.6,20.1-3.1,30.4c0.2,3.7,0,7.4,0.1,11.2c0,1.4-0.4,2-1.8,1.7    c-0.9-0.2-1.9-0.2-2.9-0.1c-3.3,0.1-3.2,0.1-3.2-3.3c0-6.9,0.3-13.9-0.2-20.8c-0.6-8.1-1.6-16.3-4.5-24.1c-1-2.6-2.6-4.9-4.8-6.6    c-1.8-1.4-3.3-3-4.7-4.8C220.2,125.6,216.5,122.3,213,118.6z" style="fill:#FF2EF8;"/><path d="M236,356.4c-0.5,2.8-0.7,5.5-1.1,8.2c-0.6,3.9,0,7.9,1.5,11.6c0.7,2.1,2.7,3.5,4.9,3.3    c2.2,0.2,4.2-1.2,4.9-3.3c1.5-3.5,2-7.4,1.5-11.2c-0.5-2.8-0.5-5.7-1.7-8.6c1.4,0.1,2.7,0.6,3.9,1.4c1.7,1,3.4,2.2,5.1,3.3    c0.8,0.4,1.3,1.2,1.4,2c1.1,4.9,2.7,9.6,2.8,14.7c0.1,1.4,0.1,2.8,0.1,4.1c-0.2,2.9-2.4,5.1-5.3,5.3c-8.5,0.7-17,0.7-25.5,0    c-3.4-0.3-5.3-2.4-5.4-5.8c-0.1-3.8,0.3-7.7,1.2-11.4c0.4-1.1,0.7-2.2,0.9-3.4C225.8,359.9,231.5,358.9,236,356.4z" style="fill:#FF2EF8;"/><path d="M330.3,249c-1.7,2.1-3.6,4.1-5.7,5.8c-4.6,3.5-9.1,7-13.5,10.8c-3.5,3-7.5,4.2-11.9,5    c-4.1,0.6-8.1,1.7-12,3.2c-3,1.2-5.3,3.6-6.3,6.7c-1.4,4.6-2.2,9.3-2.1,14.1c-2.5-1.1-4.6-2.5-6.9-3.3c-0.9-0.3-0.8-1.2-0.6-1.9    c1.3-7.1,4.9-13.6,10.3-18.3c2.9-2.5,5.6-5.2,8.5-7.7c2.8-2.3,5.5-4.7,8.3-7c3.5-2.9,7.9-4,12.2-4.2c4.8-0.3,9.4-2,14.1-2.5    C326.3,249.5,327.9,248.6,330.3,249z" style="fill:#FF2EF8;"/><path d="M203.8,294.9c-0.2-2.4-0.3-4.3-0.4-6.2c-0.3-3.3-1.1-6.5-2.3-9.6c-1-2.6-3.1-4.2-5.6-5.3    c-3.7-1.5-7.7-2.6-11.7-3.2c-5-0.7-9.6-2.7-13.5-6c-3.7-3.3-7.7-6.3-11.7-9.4c-2.3-1.6-4.3-3.7-5.9-6.1c1.2-0.7,2-0.1,2.9,0.1    c4,0.8,7.9,1.5,11.9,2.5c2.4,0.6,5,0.3,7.6,0.8c4.4,0.9,8.4,3,11.7,6c4.5,3.9,8.9,7.9,13.4,11.8c5.7,4.8,9.5,11.3,11,18.6    c0.3,1.4,0.1,2.2-1.3,2.7C207.7,292.4,205.6,293.5,203.8,294.9z" style="fill:#FF2EF8;"/><path d="M253.8,232.4c0.2,0.9-0.2,1.3-0.7,1.4c-3.8,1.2-6.7,4-9.9,6.3c-1.1,1-2.8,1-3.9,0    c-3.2-2.3-6.1-5-9.9-6.3c-1-0.3-0.8-1-0.6-1.8c0.4-1.9,1.7-3.4,2.4-5.2c1.2-2.9,2.9-5.7,4.9-8.2c2.1-2.9,6.2-3.5,9.1-1.3    c0.5,0.4,0.9,0.8,1.3,1.3c3.1,3.8,4.8,8.2,7,12.5C253.6,231.5,253.7,231.9,253.8,232.4z" style="fill:#FF2EF8;"/></svg>