<svg id="Layer_1" style="enable-background:new 0 0 485 558.3;" version="1.1" viewBox="0 0 485 558.3" x="0px" xml:space="preserve" xmlns="http://www.w3.org/2000/svg" xmlns:xlink="http://www.w3.org/1999/xlink" y="0px"><path d="M266.8,557.4c2.2-4.3,4.5-8.4,7.1-12.4c3.5-5.8,6.3-12.1,6.1-19.2c-0.1-2,0-4,0.2-6.1    c0.2-1.9,0.5-2,2.2-1.5c10.8,3.3,21.7,6.1,32.7,8.7c4.6,1,9.1,2.3,13.5,3.9c3.7,1.3,7.6,1.9,11.3,3.3c4.8,1.8,9.6,3.5,14.4,5.2    c-18.6,6.6-37.7,11.5-57.2,14.6C287.1,555.6,277,556.8,266.8,557.4z" style="fill:#847DAF;"/><path d="M129.1,538.9c4.5-1.2,8.8-3.2,13.2-4.6c10.3-3.1,20.4-6.5,31-8.8c5.1-1.1,10.1-2.6,15.1-4    c4-1.2,8.1-1.6,12-3.4c1.2-0.6,1.7,0,1.9,1.2c0.3,2,0.5,4,0.4,6c-0.2,3.2,0.3,6.4,1.4,9.4c1.9,4.7,3.5,9.5,6.9,13.5    c2.1,2.6,3.7,5.5,4.6,8.7c-5.6,0.2-11-0.8-16.5-1.5c-17.3-2.2-34.4-5.8-51.2-10.7C141.6,543,135.3,541,129.1,538.9z" style="fill:#847DAF;"/><path d="M402.9,440.4c-4.8,2.1-9.4,4.1-13.9,6.1c-8.1,3.5-16,7.5-23.6,12.1c-1.9,1.2-2,1.3-3.1-0.6    c-2.8-4.6-5-9.6-7.5-14.4c-4.9-9.9-8.9-20.2-15-29.4c-2.1-3.2-3.9-6.6-6.1-9.8c-6.5-9.1-12.4-18.5-18.7-27.8    c-1.3-2-2.4-4.3-3.2-6.6c-0.5-1.2-0.3-2.5,0.5-3.6c4-6,7.4-12.5,10.2-19.1c0.8-2.3,2.6-4,4.9-4.6c2.3-0.6,4.4-2,7-2.4    c0.5,3.4,0.3,6.9-0.6,10.2c-1.9,7.5-0.7,14.8,0.4,22.2c0.5,3.8,1.4,7.5,2.1,11.3c0.5,2.6,1.6,5.1,3.3,7.2c1.7,2.3,3.6,4.5,5.6,6.6    c3,3,5.9,6.1,8.6,9.4c1.4,1.6,3,3.1,4.8,4.2c14.1,9.3,28.2,18.8,42.6,27.7L402.9,440.4z" style="fill:#847DAF;"/><path d="M148.3,340.1c3.3,1.3,6.2,2.4,9.1,3.5c0.7,0.3,1.2,0.9,1.6,1.5c0.6,1.2,1.3,2.4,1.9,3.7    c2.5,5.9,5.5,11.5,9.1,16.8c1.2,1.5,1.4,3.6,0.6,5.3c-0.9,2.2-2,4.3-3.2,6.2c-4.6,6.8-9.3,13.5-13.7,20.4s-8.9,13.5-13,20.5    s-7.3,14.2-10.6,21.5c-2.7,6.4-5.9,12.7-9.5,18.6c-1.2,1.8-1.2,1.9-2.8,0.8c-7.5-4.9-15.7-8.6-23.8-12.3c-4.5-2.1-9.1-4-13.7-6    c0.5-1.1,1.5-1.4,2.3-1.9c14.2-9,28.2-18.3,42.3-27.6c1.2-0.7,2.3-1.6,3.2-2.6c3.4-4.2,7.2-8.1,11-12c4.6-4.8,7.8-10.2,8.7-17    s2.1-13.5,2.6-20.3c0.2-3.4-1-6.7-1.4-10.1C148.3,346.1,148.2,343.1,148.3,340.1z" style="fill:#847DAF;"/><path d="M227,263.2c-2,0-3.7,0-5.4,0c-0.9,0-1.7,0.1-2.5,0.3c-2.7,0.8-2.9,0.8-4-1.6    c-1.6-3.6-0.8-7.1,0.9-10.4c0.9-1.8,2.4-1.7,3.9-0.3C223.4,254.4,225.2,258.6,227,263.2z" style="fill:#847DAF;"/><path d="M255.5,263.2c1.8-4.6,3.7-8.8,7.2-12.1c1.5-1.4,2.9-1.4,3.8,0.4c1.6,3,2,6.6,1,9.9    c-0.3,1-0.9,1.9-1.7,2.6c-0.9,0.7-1.7-0.4-2.6-0.6C260.8,263,258.3,263.4,255.5,263.2z" style="fill:#847DAF;"/></svg>