<svg id="Layer_1" style="enable-background:new 0 0 485 558.3;" version="1.1" viewBox="0 0 485 558.3" x="0px" xml:space="preserve" xmlns="http://www.w3.org/2000/svg" xmlns:xlink="http://www.w3.org/1999/xlink" y="0px"><path d="M350.4,203.1c-0.3-3.9-1.7-7.5-2.6-11.2c-1.5-6.5-2-13.2-3.2-19.8c-0.3-1.6-0.5-3.2-0.9-4.7    c-2-6.8-2.5-13.8-3.6-20.7c-1-6.3-1.8-12.6-2.7-18.9c-1.8-12.2-3.4-24.5-2.9-36.9c0.2-3.9,1.3-7.5,2-11.3    c1.4-7.8,4.5-15.1,7.9-22.2c1.6-3.3,3.4-3.4,5.5-0.4c5.6,8.2,10.3,16.9,12.9,26.6c0.6,2.4,1,4.8,1.3,7.2    c0.8,6.6,2.7,12.9,3.8,19.4c1.5,9,1.7,18,1.5,27.1c-0.2,8.4-1.8,16.5-3.4,24.6c-0.6,3.1-0.6,6.3-1.2,9.5c-1.2,7-3.8,13.5-6.4,20    c-1.6,4.1-3.4,8-6.6,11.1C351.5,202.7,351.3,203.1,350.4,203.1z" style="fill:#42C274;"/><path d="M132.1,204c-3.2-3.6-5.8-6.7-7.2-10.7c-2-5.8-4.8-11.4-6.2-17.4c-1-4-1.7-8.1-2-12.3    c-0.2-2-0.5-4-1.1-5.9c-1.8-7.2-2.1-14.5-2.4-21.9c-0.6-12.1,0.7-24.1,3.7-35.8c0.8-3.5,1.4-7.1,1.8-10.7    c0.9-6.3,2.9-12.5,5.7-18.2c2.3-4.8,5-9.4,8-13.8c0.2-0.3,0.5-0.7,0.7-1c1.8-2,3.5-2,4.7,0.5c3.6,7.7,6.8,15.6,8.5,24    c2.6,13,1.6,25.8-0.2,38.8c-0.9,6.3-1.4,12.7-2.5,19c-1,6-1.9,12-2.7,18c-1.2,8.2-3.8,16.2-4.5,24.5c-0.6,5.9-1.8,11.8-3.6,17.5    C132.4,200.2,132.2,202.1,132.1,204z" style="fill:#42C274;"/><path d="M245.9,268.4c-3.1-0.9-6.6-0.3-10.2,0c-2,0.2-3.2-0.5-4.1-2.6c-1.4-3.5-3.3-6.9-5.1-10.3    c-1.1-2.1-2.5-4-4.2-5.5c-3-2.8-3.2-5.8-0.5-8.9c1.2-1.3,2.6-2.5,4.1-3.6c0.7-0.6,1.7-0.6,2.4,0c2.1,1.9,4.8,2.8,7.2,4    c1.2,0.7,2.4,1.4,3.4,2.3c1.9,1.6,3,1.6,4.8,0.1c1.8-1.6,4-2.9,6.3-3.7c1.5-0.6,2.8-1.5,4-2.5c0.6-0.7,1.6-0.8,2.3-0.4    c2.5,1.8,5.1,3.5,6,6.8c0.5,1.9,0.4,3.6-1.2,4.9c-3.5,2.9-5.4,6.8-7.2,10.7c-1.1,2.3-2.2,4.6-3.2,6.9    C249.7,268.7,248,268.4,245.9,268.4z" style="fill:#42C274;"/></svg>