<svg id="Layer_1" style="enable-background:new 0 0 485 558.3;" version="1.1" viewBox="0 0 485 558.3" x="0px" xml:space="preserve" xmlns="http://www.w3.org/2000/svg" xmlns:xlink="http://www.w3.org/1999/xlink" y="0px"><path d="M173,374.1c1.4,1.9,2.7,3.9,3.8,6c3,5.4,4,11.4,5.4,17.3c2.4,10.2,2.1,20.5,0.8,30.8    c-1,8-2.1,16.1-1.9,24.2c-0.1,4.4-1,8.7-2.8,12.6c-2.1,5.1-3.9,10.4-7.6,14.7c-0.7,0.8-1.4,1.5-2.2,2.3c-1.1,1.2-2.2,1.4-3.9,1    c-5.1-1.1-10.3-1.7-15.4-2.7c-5.1-0.8-9.8-3-13.7-6.4c-3.1-2.9-6.5-5.5-9.8-8.2c-1.2-0.7-1.7-2.3-1-3.5c2.8-6.9,5.5-13.9,9.2-20.4    c1.6-3,3-6.1,4.3-9.3c2.2-5.3,5.3-10.2,8.1-15.2c6.2-10.9,13.4-21.2,20-31.9C168.6,381.8,171.2,378.5,173,374.1z" style="fill:#9ACF2C;"/><path d="M309.5,374c1.8,4.6,4.4,8.1,6.8,11.7c4.8,7.5,9.8,14.9,14.5,22.6c6,9.9,11.8,19.9,16.5,30.6    c2.9,6.6,6.5,12.9,9.1,19.7s3.2,4.6-2.5,9.5c-2.3,2-4.8,3.9-7,6c-3.6,3.5-8.1,5.1-12.7,6.2c-5.7,1.3-11.5,1.7-17.2,3.1    c-0.8,0.2-1.7-0.1-2.3-0.8c-3.6-3.2-6.3-7.2-8.1-11.7c-1.4-3.2-2.6-6.5-3.9-9.8c-0.5-1.1-0.7-2.2-0.7-3.4    c0.2-11.4-1.6-22.7-2.9-34c-1.5-12.9,0.5-25.3,4.1-37.5C304.5,381.7,306.7,377.6,309.5,374z" style="fill:#9ACF2C;"/></svg>