<svg id="Layer_1" style="enable-background:new 0 0 485 558.3;" version="1.1" viewBox="0 0 485 558.3" x="0px" xml:space="preserve" xmlns="http://www.w3.org/2000/svg" xmlns:xlink="http://www.w3.org/1999/xlink" y="0px"><path d="M194.4,159.3c-7.2,0.7-14.4,0.7-21.6,1.6c-3.4,0.3-6.7,1.1-9.9,2.4c-8.7,3.9-16.7,8.7-18.7,19.3    c-0.3,1.5-0.2,3,0.2,4.4c0.9,3.1,1.4,6.4,3.8,9c0.3,0.3,0.5,0.7,0.6,1.1c1.5,6.1,5.1,11,9.4,15.3c3.3,3.2,7.5,5.4,12.1,6.2    c4.1,0.9,8.3,2,12.6,1.6c7.5-0.8,15.1-1.4,21.9-4.9c4.2-2.1,7.9-5,11-8.6c1.9-2.4,3.4-5.2,4.3-8.1c0.7-1.9,2.5-3.1,4.6-3.2    c1.2,0.1,1,1,0.6,1.6c-1.4,2.5-2.9,5-4.4,7.4c-2.2,3.6-4.5,7.2-6.7,10.9c-0.5,0.8-1.2,1.4-2.1,1.8c-7.8,4.8-16.6,6.4-25.3,8.3    c-5.6,1.2-11.4,1.2-17-0.1c-0.5,0-1.1-0.1-1.6-0.3c-5.6-3-11.3-5.9-15.4-11.1c-2-2.4-3.8-4.8-5.6-7.4c-1-1.7-2.1-3.2-2.2-5.4    c-0.2-2.4-1.9-4.5-3.6-6.3s-1.9-4-1.5-6.5c1.3-7.4,3.3-14.5,4.9-21.8c0.3-1.7,1.2-3.2,2.6-4.3c2.3-2.1,4.9-3.8,7.8-4.9    c2.7-0.9,5.4-2.1,8-3.3c2.3-0.9,4.7-1.4,7.1-1.5c3.4-0.4,6.8-0.6,10.2-0.7c2.1-0.1,4.2-0.7,6.3-0.6c7.1,0.2,14.2,0.6,20.9,3.6    c2.1,1,3.5,2.7,5.2,4.1c3.4,2.6,5.9,6.1,8.5,9.5c2.2,3,2.5,6.8,3.2,10.3c0.6,3.2,1.1,6.5,1.4,9.8c0.3,3-1.2,4.5-4.2,4.8    c-0.9,0.1-1.4-0.3-1.4-1.2s0.2-1.9,0.3-2.9c1.1-7-0.5-13.3-5.4-18.6c-2.7-2.8-5.5-5.3-8.5-7.7C203.4,159.7,199,159.1,194.4,159.3z    " style="fill:#810026;"/><path d="M256.9,195c2.8,0.5,4.9,1.3,5.9,4.4c1.9,5.8,5.9,10.1,11.1,13.4c6.5,4.2,13.6,5.5,21,6.6    c5.6,0.7,11.3,0.4,16.8-1c5-1.1,9.6-3.5,13.3-7.1c3.9-4,6.9-8.9,8.8-14.3c1-2.6,2.8-4.9,3.6-7.7c1.4-3.9,1.1-8.3-0.8-12    c-2-4.1-5.1-7.6-9.1-10c-6.6-4.2-14.1-6.5-21.9-6.9c-6.5-0.4-12.9-0.8-19.4-1c-4.7-0.2-9.3,1.7-12.7,5c-2.5,2.4-5.3,4.5-7.5,7.3    c-2.9,3.7-4.6,7.6-4.5,12.3c0.1,3.1-0.2,6.1,0.7,9.5c-1.9-0.1-3.3-1-4.7-1.5c-1.1-0.4-1.1-1.4-1.1-2.4c-0.1-4.1,0.9-8,1.5-12    c0.2-1.5,0.7-2.9,1-4.4c0.9-4.6,3.4-8.2,6.8-11.3c1.6-1.4,3.2-2.8,4.8-4.2c3.4-3.1,7.7-5,12.3-5.5c2.8-0.4,5.7-0.9,8.5-1.1    c1.7-0.3,3.4-0.3,5.1,0c4,0.9,8.1,0.8,12.1,0.9c8.2,0.3,15.3,3.4,22.3,7c2,1,3.5,2.7,5.3,4c0.8,0.8,1.2,1.8,1.3,2.8    c1.3,5.6,2.7,11.2,3.9,16.8c0.5,2.7,0.3,5.5,0.9,8.2c0.2,1.1-0.1,2.2-0.8,3c-0.9,1.2-1.8,2.4-2.5,3.7c-0.6,1-1.5,2.1-1.5,3.1    c0,2.8-1.6,4.8-3,6.9c-2.4,3.4-4.7,6.9-7.9,9.5c-5.7,4.5-11.5,8.4-19.3,9c-5.1,0.4-9.7-0.8-14.5-1.6c-7.9-1.1-15.5-3.6-22.4-7.5    c-0.9-0.4-1.6-1-2.2-1.8c-3.7-6.1-7.4-12.2-11.1-18.3C256.6,196.3,256.5,195.6,256.9,195z" style="fill:#810026;"/><path d="M216.7,198.5c-1.1,3.6-3.4,6.8-6.6,8.9c-6.4,4.7-13.9,7.5-21.8,8.1c-3,0.4-5.9,0.6-8.9,0.6    c-4.2-0.1-8.3-0.8-12.2-2.2c-7.4-2.6-12.1-8-15.1-15.1c-1.6-3.7-2.8-7.6-4-11.4c-1.9-5.9,1.6-12.5,6.4-15.9    c4.6-3.2,9.5-6,15.1-7.2c4-0.7,8-1.2,12-1.3c5.2-0.3,10.4-0.1,15.7-0.1c2.7-0.1,5.3,0.7,7.5,2.3c4.1,3.2,8.2,6.5,11,11    c1.5,2.2,2.4,4.8,2.3,7.5c-0.1,2.9,0.5,5.7-0.1,8.6c0,0.5-0.1,1.1-0.2,1.6c-0.4,1-1.5,1.7-2.6,1.5c-1.2,0-1.3-1-1.3-1.8    c-0.2-3.6-0.7-7.2-1.6-10.7c-1.1-3.9-2.6-7.6-5.6-10.6c-3.6-3.5-8.5-5.5-13.5-5.6c-4.9-0.3-9.8-0.1-14.6,0.7    c-7.1,1.4-13.9,4-20.1,7.9c-3.1,1.9-5.4,5-6.2,8.6c-0.4,1.5-0.5,3.2,0.7,4.2c2.6,2.5,3.4,5.9,4.6,9c1.6,4.1,4.5,6.9,8.2,8.9    c4.2,2.2,8.8,3.4,13.5,3.6c5.7,0.5,11.5,0.1,17.1-1.2c6.3-1.4,12-4.5,16.6-9C214.1,198.4,215,197.8,216.7,198.5z" style="fill:#810026;"/><path d="M294.1,163c4.6-0.4,10.2,0.2,15.8,0.9c4.2,0.5,8.4,1.5,12,4c1.5,1,3.1,1.9,4.7,2.7    c3.4,1.8,5.5,4.6,7.2,7.9c1.4,2.7,1.7,5.8,0.8,8.7c-1.8,5.6-3.4,11.2-6.5,16.2c-2.6,4.5-6.5,8-11.3,9.9    c-6.7,2.7-14.1,3.5-21.3,2.4c-2.6-0.4-5.2-0.9-7.8-1.3c-6.3-1-11.6-4.1-16.5-7.9c-2.1-1.7-3.8-3.8-4.8-6.3c-0.2-0.6-0.6-1.2,0-1.7    c0.5-0.4,1.2-0.4,1.8-0.1c0.5,0.3,1,0.8,1.5,1.2c5.9,5.6,13.6,9,21.7,9.7c3.7,0.4,7.4,0.5,11.1,0.4c4.9-0.1,9.7-1.3,14.1-3.5    c4.8-2.4,7.7-6.3,9.2-11.3c0.7-2.5,1.9-4.7,3.6-6.7c1.1-1.2,1.4-2.9,0.8-4.5c-1.1-3.9-3.8-7.3-7.3-9.3c-6.4-3.5-13-6.4-20.2-7.4    c-6.4-0.9-12.9-1.3-19.2,0.7c-5.9,1.7-10.5,6.2-12.2,12.1c-1.4,4.3-2.3,8.8-2.6,13.4c0,0.9,0.4,2.2-1.1,2.1c-1.2,0-2.4-0.2-2.8-2    c-2.3-10.2,0.9-18.5,9.1-24.8c1.9-1.4,3.4-3.2,5.5-4.3c1.7-0.9,3.6-1.4,5.5-1.4C287.5,163,290.3,163,294.1,163z" style="fill:#810026;"/><path d="M341.3,244.2c0.6,2.8,1,5.6,1.2,8.4c0,2.6-1,5.1-2.7,7c-4,4.7-8,9.4-12.1,14    c-4.2,4.5-8.9,8.5-14,12c-2.2,1.5-4.2,3.3-6.1,5.1c-4.2,4.3-8.8,8.4-11.6,13.9c-1.1,2.2-2.4,2.2-3.7,0.7c-0.4-0.5-0.6-1.1-0.5-1.7    c0.3-3.9,1.5-7.8,3.6-11.1c5.8-9.3,13-17.7,21.4-24.8c3.9-3.3,7.3-7.1,11-10.7c4-3.9,7.8-7.8,11.8-11.7    C340,244.9,340.3,244.2,341.3,244.2z" style="fill:#810026;"/><path d="M141.4,244.5c1.1,0.2,1.7,1.1,2.3,1.7c5.8,5.8,11.5,11.6,17.4,17.4c2.4,2.4,5.1,4.6,7.6,6.8    c3.5,2.9,6.6,6.1,9.3,9.6c2.9,3.9,5.7,7.7,8.4,11.6c2.2,3.3,3.6,7.1,4,11c0.2,0.8,0.1,1.7-0.3,2.5c-1.2,1.7-2.4,1.9-3.3,0.1    c-3.2-6.5-8.7-10.9-13.6-15.9c-3.2-3.3-7.2-5.6-10.7-8.5c-4.8-4.2-9.3-8.8-13.3-13.8c-2.1-2.5-4.3-5-6.4-7.5    c-2.4-2.9-3.4-6.1-2.3-9.8C140.9,248,140.2,246.1,141.4,244.5z" style="fill:#810026;"/><path d="M272.4,197.5c1-1,2.4-1.2,3.6-0.7c4.2,1.2,8,3.3,12.3,4.2c6.8,1.5,13.8,1.1,20.4-1.1    c4.4-1.4,8.6-3.7,12.2-6.7c1.2-0.8,1.6-2.3,1.1-3.6c-1-3.2-3.1-5.9-5.9-7.7c-5.1-3.6-11.2-5.5-17.4-5.3c-3.6,0-7.2-0.4-10.8,0.5    c-2.9,0.6-5.6,2-7.8,4.1c-1.4,1.4-2.7,2.7-3.9,4.2c-1.5,1.8-2.9,3.8-2.6,6.3c0,0.4-0.1,0.8-0.2,1.2c-0.1,0.4-0.5,0.7-1,0.7    c-0.5,0-0.7-0.4-0.7-0.8c0-1,0-1.9,0.1-2.9c0.7-3.7,1.7-7.3,3.2-10.7c2.1-5.1,6.9-8.5,12.4-8.9c5.6-0.8,11.3-0.6,16.8,0.5    c6.7,1.4,13,4.1,18.7,7.8c1.1,0.7,2,1.6,2.7,2.6c1.5,2.1,2,4.1,0.4,6.4c-1.2,1.8-1.5,3.9-2.1,5.9c-1.2,4.2-4,7.7-7.8,9.7    c-3.8,2.1-8.1,3.3-12.5,3.4c-5.5,0-11,0.3-16.5-1.3C281.7,203.8,276.7,201.2,272.4,197.5z" style="fill:#810026;"/><path d="M188.3,170.2c3.8-0.2,7.6-0.4,11.3,1.2c3.5,1.4,6.3,4.1,7.9,7.5c1.6,3.9,2.7,8,3.5,12.2    c0.1,0.5,0.1,1.1,0,1.6c0,0.4-0.3,0.8-0.8,0.8c0,0,0,0-0.1,0c-0.4,0-0.8-0.3-0.9-0.7c-0.1-0.2-0.1-0.4-0.1-0.6    c-1.6-9.2-9.7-15.9-19-15.9c-5.1,0-10.2-0.3-15.2,1.3s-9.5,3.8-12.6,8.2c-0.7,1-1.2,2-1.6,3.1c-0.7,2.1-0.2,3,1.4,4.5    c5.2,4.7,11.6,6.6,18.2,7.9c7.8,1.4,15.2-0.1,22.3-3.3c1.6-0.6,3.2-1.2,4.8-1.6c0.7-0.3,1.5-0.1,2,0.6c0.6,0.9-0.2,1.4-0.8,1.8    c-3.8,2.8-8,4.9-12.5,6.3c-4.8,1.5-9.9,1.7-14.8,1.7c-5,0.1-10-1-14.5-3.4c-4.3-2.4-7.5-5.8-8.3-11c-0.4-1.9-1.2-3.7-2.3-5.2    c-1-1.6-1-3.6,0.1-5.1c1.2-2,2.9-3.7,5-4.8c5.9-3.5,12.3-5.9,19-7.1C182.9,169.9,185.7,170.2,188.3,170.2z" style="fill:#810026;"/><path d="M136.3,209.2c1.2,0,2.3,0.8,2.7,1.9c1.9,3.8,4.9,6.9,6.7,10.8c1,1.8,2.2,3.4,3.7,4.8    c1.4,1.3,2.8,2.6,4.1,4.1c4.1,4.7,9.6,6.3,15.5,7.2c7.6,1,15.3,0.8,22.9-0.7c0.6-0.2,1.3-0.1,1.9,0.1c0.1,1-0.9,1.1-1.4,1.5    c-2.2,1.6-4.5,3.3-6.8,4.8c-4.6,3.1-10.2,4.4-15.7,3.9c-3.8-0.2-7.6-0.7-11.4-1.3c-2.3-0.5-4.5-1.2-6.7-2.1c-2-0.8-3.7-2.1-5-3.8    c-3.8-5.2-7.7-10.2-9.4-16.5C136.3,219,135.9,214.1,136.3,209.2z" style="fill:#810026;"/><path d="M287.7,237.2c2.8-0.4,5.5,0.6,8.2,0.9c8,0.8,15.9,0.8,23.7-1.5c3.3-0.8,6.3-2.6,8.7-5.1    c2.2-2.5,4.8-4.8,7-7.4c1.9-2.4,2.8-5.3,4.7-7.5s2.7-5,4.6-7.1c1.1,0.6,0.7,1.4,0.7,2.1c0.1,3.2,0,6.4-0.3,9.6    c-0.6,5.5-3.8,9.8-6.7,14.3c-0.3,0.5-0.9,1-1.1,1.5c-3.9,7.1-10.6,9-17.8,10c-3,0.4-5.9,0.6-8.9,0.6c-5.7,0.3-11.3-1.4-15.8-4.9    c-1.6-1.2-3.3-2.3-5-3.5C288.9,238.6,288,238.2,287.7,237.2L287.7,237.2z" style="fill:#810026;"/><path d="M334.8,158.4c-4.5-4.1-10.2-5.4-15.2-8.1c-3-1.6-6.6-1.2-10-1.9c-4.3-0.8-8.7-0.5-13-1.2    c-2.4-0.4-4.9-0.3-7.3,0.2c-1.8,0.2-3.7,0.4-5.5,0.4c2-2.9,4.6-4.2,6.9-5.8c6.3-4.2,13.4-7,20.9-8.1c4-0.9,8.1-0.6,11.9,0.9    c3.9,1.7,5.5,5.3,7.1,8.7c2,4.3,2.9,9.1,4.4,13.6C335.1,157.4,334.9,157.8,334.8,158.4z" style="fill:#810026;"/><path d="M198.9,147.7c-2.9,0.4-5.7-0.6-8.6-0.5c-8,0.1-15.9,0.8-23.7,2.2c-6,1.2-11.5,4.3-16.8,7.4    c-0.5,0.3-1,0.8-1.7,0.8c-0.1-0.2-0.3-0.4-0.3-0.5c1.8-6.4,3.3-12.9,7.1-18.7c1.9-2.9,5.1-4.7,8.5-4.7c8.6-0.6,16.6,1.8,24,6.1    c3.1,1.8,6.3,3.6,9.2,5.7C197.4,146.2,198.4,146.6,198.9,147.7L198.9,147.7z" style="fill:#810026;"/><path d="M210.3,222.5c-0.2,5-4,7.1-7.6,9.5c-0.2,0.1-0.4,0.2-0.6,0.1c-4.6-0.6-8.9,1.3-13.4,1.6    c-6.1,0.4-12.2,1.8-18.4,0.4c-1.8-0.4-3.8-0.3-5.6-0.9c-3.4-0.9-6.5-2.7-9-5.1c-4-3.9-7.4-8.2-10.3-12.9c-2.1-3.4-4.4-6.8-7.7-9.3    c-0.7-0.5-1-1.4-0.8-2.2c0.5-2.6,0.5-5.3,1.7-8c2.4,1.8,3.5,4.3,4.7,6.7c1.5,3.4,3.5,6.6,5.8,9.5c1.4,1.7,2.6,3.7,4.1,5.3    c3.3,3.3,7,6.2,11,8.6c5.7,3.6,12.1,4.2,18.5,3.4c6.9-0.7,13.7-2.1,20.3-4.1C205.4,224.4,207.6,222.9,210.3,222.5L210.3,222.5z" style="fill:#810026;"/><path d="M343.5,197c1.4,2.7,0.9,5.4,1.5,8c0.2,0.9-0.5,1.4-1.1,1.8c-3.8,3.1-6.1,7.3-8.6,11.4    c-1.2,2-2.6,3.9-4.2,5.5c-1.5,1.4-2.9,2.8-4.3,4.3c-3.3,4-7.8,5.3-12.6,6.1c-9.7,1.6-19.2-0.1-28.8-1.7c-1.6-0.3-3.2-1.3-4.9,0    c-0.3,0.2-0.6,0.2-0.9,0.1c-2-1.2-4.2-2.4-5.5-4.2c-1.3-1.9-2.1-4.1-2.6-6.3c3.8,2,7.8,3.5,12,4.5c6.8,1.4,13.6,3.3,20.7,3.2    s13.2-2.6,19-7c7.3-5.6,12.2-12.8,16.3-20.8C341.3,198.6,341.2,198.6,343.5,197z" style="fill:#810026;"/><path d="M269.7,248.1c-2.1-0.4-3.9-1.8-4.6-3.8c-1.2-2.8-1.8-5.9-1.6-8.9c0.2-4.2-1.3-8.2-2.4-12.1    c-1.1-4.2-2.2-8.4-2.9-12.7c-0.4-1.9-1-3.7-1.6-5.5c-0.1-0.5-0.4-1.1,0.3-1.4s1,0.2,1.3,0.7c0.7,1.2,1.2,2.5,1.9,3.7    c1.4,2.5,2.8,5,4.2,7.5c2.1,3.6,2.9,7.6,3.5,11.5c1,6.5,1.4,13.1,2.1,19.6C269.8,247.1,269.8,247.6,269.7,248.1z" style="fill:#810026;"/><path d="M212.6,248.2c0.8-8.7,1.3-17,3-25.2c0.7-3.7,2.5-7,4.3-10.3c1.3-2.4,2.6-4.9,3.9-7.3    c0.2-0.4,0.4-0.8,0.6-1.1c0.3-0.6,0.8-1.1,1.5-0.7s0.2,0.9,0.1,1.4c-1.2,3.1-1.6,6.4-2.4,9.6c-1.2,5.4-2.7,10.7-4.1,16.1    c-0.8,2.5-1,5.2-0.5,7.9c0.2,0.9,0.1,1.9-0.4,2.8c-0.5,0.9-0.9,1.9-1.2,2.9C216.9,246.6,215.2,247.6,212.6,248.2z" style="fill:#810026;"/><path d="M198.8,147.7c0.1,0.1,0.3,0.1,0.2,0.1C199,148,198.9,148,198.8,147.7L198.8,147.7z" style="fill:#810026;"/><path d="M287.7,237.2l-0.3-0.3c0.1,0,0.2,0,0.2,0C287.7,237.1,287.7,237.1,287.7,237.2L287.7,237.2z" style="fill:#810026;"/><path d="M210.4,222.5l0.3-0.2c0,0.1,0,0.1,0,0.2C210.6,222.5,210.5,222.5,210.4,222.5L210.4,222.5z" style="fill:#810026;"/></svg>