<svg id="Layer_1" style="enable-background:new 0 0 485 558.3;" version="1.1" viewBox="0 0 485 558.3" x="0px" xml:space="preserve" xmlns="http://www.w3.org/2000/svg" xmlns:xlink="http://www.w3.org/1999/xlink" y="0px"><path d="M116.8,221c-1.6-4.6-3.1-8.5-3.6-12.8c-0.3-2.3-0.9-4.6-1.8-6.8c-0.9-2.3-1.9-2.5-3.8-0.8    c-1.7,1.5-3,3.4-3.9,5.4c-0.8,1.8-1.5,3.5-2.3,5.3c-1.2,2.6-2.2,5.1,0.4,7.5c2.4,6,5.8,11.6,8.1,17.7c1.2,3,2.7,5.8,4.3,8.5    c0.9,1.6,2.1,3,4,3.4c0.8,0,1.4,0.7,1.3,1.5c0.5,6,1.7,11.8,1.8,17.8c0,0.4-0.1,0.9-0.2,1.3c-4.4-2-8.2-5-11.4-8.6    c-4.7-5.5-9-11.4-12.8-17.6c-2.2-3.6-3-7.8-3.7-11.8c-2.6-14.4-3.3-29-2-43.6c0.4-3.8,0.8-7.6,1.2-11.4c0.3-2.1,1.2-4.1,2.6-5.8    c3.2-4.3,8.8-4.3,12.3-0.1c2.3,2.8,4.1,6,5.3,9.4c2.4,7.2,4.1,14.5,5.2,22c0.2,0.9,0.2,1.9,0,2.9c-1.5,4.8-1.3,9.7-1.2,14.6    C117,219.5,116.9,219.9,116.8,221z M95.9,203.9c0.1,1.2,0.1,2.3,0.2,3.3c0.1,0.6,0.2,1.3,1,1.4s1.3-0.5,1.5-1.3    c0.2-1.3,0.5-2.5,0.8-3.7c1.7-5.4,3.3-10.8,5.1-16.1c0.4-0.8,0.3-1.7-0.1-2.4c-1.6-2.4-3.2-4.7-4.9-7.1c-0.6-0.9-1.4-0.8-2,0.1    c-0.8,1.3-1.2,2.8-1.1,4.2C96.6,189.6,95.9,196.8,95.9,203.9z" style="fill:#FF2E50;"/><path d="M365.7,219.4c0-1.3,0-2.5,0-3.8c0.1-1.7,0.1-3.4-0.2-5.1c-2.4-9,0.5-17.4,2.7-25.9    c1.3-5.1,3.2-9.9,6.5-14.1s8.5-4.6,11.7-1.2c1.6,1.6,2.7,3.6,3.1,5.8c0.8,4.8,1.4,9.7,1.6,14.6c0.5,7.3,0.9,14.7,0.2,22    c-0.9,9.5-1.6,19.1-4.6,28.3c-0.4,1.1-0.9,2.2-1.5,3.1c-3.8,6-8,11.8-12.6,17.3c-3.1,3.7-7.1,6.4-11.9,9c0.2-3.1,0.4-5.7,0.7-8.2    c0.4-3.6,1.2-7.2,1.2-10.8c0-0.9,0.2-1.6,1.3-1.8c2.1-0.4,3.2-1.9,4.2-3.6c2.7-4.3,4.5-8.9,6.5-13.5c1.7-4.2,3.7-8.4,6-12.3    c2-3.2,1.2-5.5,0-8.2c-1.3-3-2.2-6.3-4.5-8.8c-1-1.1-1.9-3-3.7-2.5c-1.5,0.4-1.6,2.3-2.1,3.7c-1.4,4.6-1.5,9.5-3.4,13.9    c-0.3,0.7-0.5,1.4-0.8,2L365.7,219.4z M386.8,200.7c-0.2-2-0.5-3.7-0.5-5.4c-0.1-4.3-0.1-8.5-0.1-12.8c0.1-1.2-0.1-2.3-0.6-3.4    c-1-2-1.8-2.2-3.2-0.5s-2.7,3.8-4,5.8c-0.8,0.9-0.9,2.3-0.2,3.3c0.4,0.8,0.6,1.6,0.7,2.4c1.4,5.9,4.1,11.4,5,17.5    c0.1,0.7,0.7,1.1,1.4,1c0.8,0,1-0.6,1.1-1.3C386.5,205.1,386,202.7,386.8,200.7z" style="fill:#FF2E50;"/><path d="M234.1,301.9c1.6-0.2,3.2,0,4.7,0.6c1.6,0.8,3.4,0.8,4.9,0c1.3-0.6,2.6-0.8,4-0.6    c5.3,0.6,10.7,0.2,15.9,1.2c1.3,0.1,2.5,0.4,3.7,0.9c5.5,2.6,11.1,5,16.1,8.4c1.2,0.8,3.4,1.7,2.7,3.4c-0.5,1.4-2.6,0.6-4.1,0.7    c-1-0.1-1.9,0-2.9,0.1c-4.4,1.2-9.2,0.8-13.4-1.1c-4.9-2.1-10.3-1.9-15.4-1.2c-6.1,0.8-12.3,0.8-18.4,0    c-5.8-0.7-11.8-0.8-17.2,1.8c-2.8,1.2-6,1.6-9,1c-2.4-0.5-4.8-0.7-7.3-0.6c-0.4,0-0.9,0-1.3-0.1c-0.5,0-1.1-0.2-1.4-0.7    c-0.2-0.5,0.2-1,0.6-1.4c1.3-1,2.5-2,3.8-2.9c4.4-2.8,9.2-4.8,13.9-7.1c2.6-1.3,5.5-1.5,8.4-1.8    C226.4,302.3,230.3,302.4,234.1,301.9z" style="fill:#FF2E50;"/><path d="M198.8,321c1.7,0,3.6-0.1,5.6,0c3.7,0.2,7.5-0.3,11-1.6c4.6-1.6,9.6-2,14.4-1.1    c8,1.3,16.2,1.3,24.1-0.2c4.3-0.8,8.8-0.4,12.9,1.1c3.9,1.4,8.1,2,12.2,1.8c1.6-0.1,3.4-0.5,5,0.3c-0.1,2.3-2.3,2.5-3.5,3.7    c-3.1,3-6.9,4.3-11,5.2c-6.1,1.2-12.2,1.8-18.4,1.9c-7.6,0.2-15.1-0.2-22.6,0c-6.2,0.1-12.2-1.1-18.3-2.5    c-4.7-1.1-7.9-4.4-11.4-7.3C198.4,322.1,198.3,321.7,198.8,321z" style="fill:#FF2E50;"/><path d="M297.1,180.1c1.7,0.1,3.4,0.2,5.1,0.3c1.1,0,2,0.7,2.4,1.7c2.1,4.2,0.1,10.9-6.5,10.8    c-1.8,0-3.6-0.2-5.4-0.4c-2.7-0.2-4.8-2.4-4.8-5.1c0-1.8,0.1-3.6,0.5-5.4c0.1-1.1,0.9-1.4,1.8-1.5c1.1-0.3,2.3-0.5,3.5-0.5    c1.2,0.1,2.3,0,3.5,0V180.1z M296.2,188.5c1.7,0,2.8-0.9,2.8-2.3c0-1.9-1.3-3.6-2.9-3.6c-1.8,0-3.2,1.4-3.3,3.2    C292.9,187.3,294.3,188.5,296.2,188.5L296.2,188.5z" style="fill:#FF2E50;"/><path d="M185.4,180.1c2.2,0,4.4-0.3,6.7,0.2c1.3,0.3,2.1,0.9,2.2,2.3c0,0.1,0,0.2,0,0.3    c0.7,7.3,0,9.4-7.7,9.9c-1.1,0.1-2.1,0.1-3.2,0c-5.7-0.3-7.8-6.8-5.2-11.3c0.4-0.7,1.1-1.1,1.8-1L185.4,180.1z M186.4,188.5    c1.8-0.1,3.3-1.4,3.2-2.8c-0.2-1.8-1.6-3.1-3.4-3.1c-1.5,0.1-2.8,1.9-2.7,3.7C183.6,187.8,184.7,188.6,186.4,188.5L186.4,188.5z" style="fill:#FF2E50;"/></svg>