<svg id="Layer_1" style="enable-background:new 0 0 485 558.3;" version="1.1" viewBox="0 0 485 558.3" x="0px" xml:space="preserve" xmlns="http://www.w3.org/2000/svg" xmlns:xlink="http://www.w3.org/1999/xlink" y="0px"><path d="M224.2,557.6c-0.7-6.6-4.1-11.8-8.8-16.2c-2-2-3.8-4.3-5.3-6.8c-2.1-3.2-2.7-6.9-2.9-10.6    c-0.2-3.2-0.7-6.3-1.6-9.4c-0.6-2-0.5-2,1.6-2.3c1.1-0.1,2.1-0.2,3.1-0.5c2.9-0.6,3.4-1.2,3.4-4c0-0.3-0.1-0.6-0.1-1    s-0.1-0.6,0.2-0.9c1-0.1,1.6,0.9,2.4,1.2c0.7,0.4,1.5,0.8,2.3,1.1c4.4,1.2,6.1-0.5,5-4.9c-0.7-2.3-1.2-4.6-1.6-6.9    c12.6,1.8,25.4,1.7,38-0.1c0.1,2.6-0.9,4.7-1.4,6.8c-0.4,1.6-1.2,3.3,0.2,4.5c1.5,1.4,3.6,1,5.5,0.3c1.3-0.6,2.6-1.3,3.8-2.1    c0.2,0.2,0.5,0.3,0.4,0.4c-0.2,4.7,0.2,5.2,5,5.9c3.7,0.5,3.7,0.5,2.7,4c-0.8,3.1-1.3,6.3-1.3,9.5c-0.2,3.7-1.5,7.3-3.6,10.4    c-1.5,2.2-3.2,4.3-5.1,6.1c-4.5,4.2-7.4,9.3-8,15.5c-0.4,0.2-0.8,0.3-1.2,0.3C246.1,558.3,235.2,558.7,224.2,557.6z" style="fill:#FAF600;"/><path d="M454.9,448c-2.9,1.1-5.6,1-8.2,1c-11.2,0-21.6,3.1-32,6.8c-2.6,0.9-5.2,2-7.8,2.8    c-2.4,0.7-4.6,1.9-6.5,3.4c-5.3,4.2-11.6,7-17.3,10.7c-5,3.3-10.8,5.1-15.8,8.4c-7.3,4.8-15.3,8.4-23.3,11.8c-2.5,1-5,1.8-7.6,2.4    c-10,2.4-19.9,5.4-29.8,8.2c-4.6,1.3-9.1,3.1-13.8,3.9c-5.9,0.9-11.9,1-17.8,0.2c-2.1-0.3-2.4-1-1.8-3.1c0.8-2.9,3.1-4.6,5.4-6    c2.9-1.9,6.1-3.5,8.4-6.2c0.3-0.5,0.8-0.7,1.4-0.7c2,0.4,4-0.1,6,0c1.7,0,3.4,0.7,4.5,2c2.5,3.2,8.5,2.9,11.5,1.1    c2.4-1.5,4.8-3.1,7.1-4.9c0.6-0.4,1.5-1,1.5-1.5c0.1-2.1,1.7-2.1,3.1-2.2c5.4-0.5,10.7-1.7,16-2.7c4-0.8,7.7-2.7,10.8-5.3    c5.8-4.9,11.4-9.9,17.6-14.3c4.8-3.3,10-6.1,15.3-8.5c10.2-4.8,20.5-9.5,30.8-14c4.6-2,9.7-2.7,14.7-2c2.5,0.3,4.9-0.5,7.3-0.8    c5.2-0.7,10.2-0.5,14.9,2.3C452.1,442.4,453.7,444.9,454.9,448z" style="fill:#FAF600;"/><path d="M27.8,448c1.5-5.4,5.5-8,10.4-9.3c3.2-0.8,6.6-0.9,9.8-0.3c3.1,0.5,6.3,0.7,9.5,0.6    c5.2-0.4,10.5,0.7,15.2,3.2c8.1,4.3,16.7,7.6,25,11.4c11.5,5.1,22.1,12.1,31.4,20.5c4.4,4,8.9,8,15,9.3c5.1,1,10.3,1.8,15.4,2.6    c1.8,0.3,3.3,0.3,4.3,2.6s3.8,3.4,5.9,4.7c1.8,1.1,3.5,2.4,5.7,2.7c3,0.4,5.8,0.2,8-2.1c1.8-1.9,3.9-2.2,6.4-2.2    c3.3-0.1,6,0.5,8.4,3.1s6,3.6,8.6,6c1.2,1.1,2.1,2.4,2.6,3.9c0.7,2,0.2,2.7-1.9,3c-6.1,0.9-12.3,0.8-18.4-0.3    c-4.4-0.8-8.6-2.6-12.9-3.7c-6-1.6-11.8-3.5-17.8-5.1c-4.6-1.3-9.3-2.4-13.9-3.6c-5.8-1.5-11.1-4.2-16.6-6.6    c-3.1-1.4-6.1-3-8.9-4.9c-3.3-2.4-6.9-4.3-10.7-5.7c-0.4-0.1-0.8-0.3-1.2-0.5c-7.7-4.8-16-8.5-23.2-14c-2.7-2.1-5.7-3.7-9-4.8    c-4.4-1.4-8.6-3.1-12.9-4.6c-9.4-3.3-19.2-5-29.1-4.9C31.2,448.8,29.5,448.6,27.8,448z" style="fill:#FAF600;"/><path d="M241.2,39.6c-2-4.4-4.3-8.5-7.1-12.5c-1.3-1.9-2.8-3.7-4.5-5.4c-2.2-2.2-4.9-3.8-7.9-4.5    c-9.9-2.4-19.9-4.5-30.2-3.9c-3.6,0.2-7.2,0-10.8,0c-0.2-1.1,0.6-1.2,1.1-1.4c10.8-3.5,21.4-7.8,32.6-10.1    c8.4-1.8,17-1.7,25.5-1.8c9.7-0.1,19.4,0,29,1.8c2.8,0.6,5.6,1.3,8.3,2.2c7.1,2.3,14.2,4.6,21.2,7c1.6,0.3,3,1.1,4.1,2.3    c-4.4,0-8.3,0.2-12.2-0.1c-6.5-0.4-12.8,0.5-19,1.6c-2.8,0.5-5.6,1.1-8.4,1.7c-4.8,1-9.2,3.7-12.2,7.6c-3.2,4-5.9,8.4-8.2,13    C242.1,37.8,241.8,38.5,241.2,39.6z" style="fill:#FAF600;"/><path d="M236.5,392.1h9.5c0.2,1.1,0.2,2.2-0.1,3.2c-2.1,13.2-2.5,26.5-1.2,39.8c0.7,6.1-0.2,12.4,0.7,18.5    c1.1,8.5,0.6,17,1.3,25.5c0.1,3.1-0.1,6.1-0.4,9.2c-3.3,1-6.8,1-10.1,0c-0.1-3.2-0.3-6.6-0.2-10c0.2-4.1,0.3-8.3,0.3-12.5    c0.1-5.4,0.8-10.8,1.1-16.2c0.3-5.1-0.2-10.2,0.4-15.3c1.4-11.8,0.6-23.6-0.7-35.4C236.9,396.7,236.2,394.6,236.5,392.1z" style="fill:#FAF600;"/><path d="M222.2,233.6c0.5-2.6,1.2-5.1,2-7.6c1.8-4.9,3.1-10,3.9-15.1c0.9-4.4,2.6-8.6,5.1-12.3    c4.5-7,11.7-6.9,16.2,0.1c2.5,3.8,4.3,8.1,5.1,12.6c0.8,4.9,2,9.8,3.7,14.5c0.9,2.7,1.6,5.4,2.1,8.1c-1.5-0.5-1.8-1.6-2.3-2.5    c-2.7-4.4-5.1-8.8-7.5-13.4c-1.6-3.6-5.2-5.9-9.2-5.8c-4.4-0.1-7.5,2.2-9.5,5.9c-2.4,4.4-4.8,8.8-7.4,13.1    C224.1,232.2,223.2,233.1,222.2,233.6z" style="fill:#FAF600;"/><path d="M301.8,366.3c-0.1-2-0.2-3.7-0.4-5.4c-0.5-8.1-1-16.1-1.6-24.2c-0.1-0.9,0.3-1.7,1-2.1    c3.1-1.8,6.5-3.2,10-4c2-0.5,3.5,0.4,4.4,2.3c0.4,1.1,0.9,2.2,1.4,3.2c2.1,2.8,1.7,5.4,0.4,8.3c-3.1,6.7-7.1,13.1-11.8,18.8    C304.3,364.5,303.1,365.5,301.8,366.3z" style="fill:#FAF600;"/><path d="M180.7,366.2c-3.6-2.3-5.7-5.5-7.8-8.6c-3.2-4.6-6-9.6-8.1-14.8c-0.8-1.8-0.7-3.8,0.3-5.5    c0.8-1.4,1.4-2.8,2-4.3c0.9-2.1,2.5-3,4.6-2.4c3.4,0.9,6.7,2.2,9.7,3.9c0.8,0.3,1.3,1.1,1.2,2C182,346.3,181.4,356,180.7,366.2z" style="fill:#FAF600;"/><path d="M198.3,182.6c3.3,2.8,6.1,5.1,7.5,8.5c0.8,1.9,0.6,2.6-1.3,3.2c-3,1-5.8,2.6-8.9,3.4    c-6.4,1.7-13.2,1.4-19.5-0.8c-4.7-1.5-9.3-3.1-13-6.8c2.4-4.6,6.6-6.7,11.1-8.5c0.9,0.9,0.2,1.6,0.1,2.2c-0.7,3.9,0.8,7.1,3.2,10    c1.4,1.7,3.4,2.2,5.4,2.5c3.2,0.4,6.4,0.1,9.5-0.7c3-0.8,5.6-4.4,5.8-8.1C198.4,186.1,198.3,184.8,198.3,182.6z" style="fill:#FAF600;"/><path d="M283.9,183.1c0.8,1.2,0.2,2.1,0.2,3c-0.3,4.9,3.2,9.1,8,9.9c2,0.4,4,0.5,6,0.4    c5.9-0.3,10.4-5.3,10.2-11.1c0-0.3,0-0.6-0.1-1c-0.1-0.8-0.8-1.6-0.1-2.8c4.6,1.8,8.8,3.9,11.2,8.6c-5.1,5-11.6,6.7-18.1,8.1    c-7,1.6-13.7,0.3-20.1-2.8c-1-0.5-2.2-0.8-3.3-1.2c-1-0.2-1.6-1.3-1.4-2.3c0-0.2,0.1-0.3,0.2-0.5c0.7-1.8,1.8-3.4,3.2-4.7    C280.8,185.3,282.3,184,283.9,183.1z" style="fill:#FAF600;"/><path d="M211.8,263.9c0.8,2.3,1.6,4,4.5,3.6c1.3-0.1,2.6,0.6,3.3,1.7c3.6,5.2,7.4,10.4,9.8,16.2    c-0.8,1.3-2,0.9-3,1.2c-3.4,1-6.8,1.5-10.1,2.8c-0.9,0.4-1.7,0.3-1.9-0.9c-0.9-7.9-3-15.7-2.7-23.7    C211.7,264.5,211.7,264.2,211.8,263.9z" style="fill:#FAF600;"/><path d="M270.8,263.7c0.5,8.9-1.6,17.3-3,26.3c-3.5-1.3-7.2-2.3-10.9-3.1c-4.3-1-4.4-1.2-2.2-4.9    c2.4-4.1,5-8.2,7.7-12.1c1-1.4,2.2-2.5,3.9-2.4c2.2,0.1,3.4-0.7,3.7-3C270.1,264.3,270.4,264.1,270.8,263.7z" style="fill:#FAF600;"/><path d="M244.3,365.3c0.2,2.9-0.2,5.8-1,8.5c-0.3,1.1-0.8,2-2.2,1.9c-1.1-0.1-1.6-0.9-1.9-1.9    c-1.8-5.5-1.1-10.9,0-16.4c0.2-1.2,1.1-1.3,2.1-1.4c1.2-0.1,1.7,0.6,1.9,1.6C243.8,360.3,244.1,362.8,244.3,365.3z" style="fill:#FAF600;"/><path d="M222.6,365.2c-1.7,6.5-3.5,12.9-2.5,19.7c-3.7-0.7-4.4-1.4-4.4-4.5c0.1-3.8,0.5-7.4,3.4-10.3    C220.4,368.6,221.5,366.9,222.6,365.2z" style="fill:#FAF600;"/><path d="M262.4,384.9c1-6.7-0.9-13-2.6-19.4c3.3,4.6,7.7,8.5,7,15.1C266.4,383.7,266,384.3,262.4,384.9z" style="fill:#FAF600;"/><path d="M176.9,315.3c1.8-4.8,1.9-9.5,1.7-14.1c0-0.6,0.1-1.1,0.7-1.2c0.4,0,0.8,0.2,1,0.6    c0.4,0.6,0.7,1.3,1,2c0.5,1.1,0.9,2.2,1.1,3.3c0.2,1.5,2.4,2.7,1.1,4.3C182,312.3,180.6,314.9,176.9,315.3z" style="fill:#FAF600;"/><path d="M305.8,315.2c-1.6,0.1-3.2-0.6-4.4-1.8c-0.8-0.8-1.5-1.8-2.3-2.6c-0.6-0.5-0.7-1.3-0.4-2    c1.3-2.2,1.7-4.8,2.8-7.1c0.2-0.4,0.4-0.7,0.6-1.1c0.2-0.4,0.6-0.6,1.1-0.5c0.5,0.1,0.5,0.6,0.5,1c0,2,0,4,0.1,6    C303.8,309.9,304.4,312.7,305.8,315.2z" style="fill:#FAF600;"/></svg>