<svg id="Layer_1" style="enable-background:new 0 0 485 558.3;" version="1.1" viewBox="0 0 485 558.3" x="0px" xml:space="preserve" xmlns="http://www.w3.org/2000/svg" xmlns:xlink="http://www.w3.org/1999/xlink" y="0px"><path d="M296.8,336.5c0.2,0.5,0.3,1.1,0.3,1.7c0,9,1,18,1.4,27.1c0.3,1.9-0.7,3.7-2.3,4.6    c-5.1,3.5-11,5.7-16,9.2c-2.5,1.8-5.6,2-8.4,2.7c-1.3,0.3-1.8-0.2-1.8-1.5c0.1-2-0.2-4-0.7-6c-0.4-1.3,0.4-2.3,1-3.3    c4.1-7,7.1-14.6,8.9-22.5c0.2-0.9,0.4-1.9,0.6-2.8c0.6-3.7,3.5-6.5,7.2-7C290.1,338.3,293.4,338.1,296.8,336.5z" style="fill:#8DCA07;"/><path d="M212.1,381.9c-3.5-0.7-7.1-1.1-10.2-3.1c-5.1-3.5-11-5.7-16-9.2c-1.2-0.7-1.9-1.9-1.8-3.3    c0-7,1-14,1.2-21c0.1-2.8,0-5.5,0-8.4c2.3-0.1,4,1.2,5.9,1.4c1.9,0.1,3.8,0.3,5.7,0.9c3,1.1,5.4,2.8,6.1,6.6    c1.6,8.8,4.7,17.3,9.3,25c1.1,1.5,1.4,3.4,0.8,5.1C212.3,377.7,212.8,379.8,212.1,381.9z" style="fill:#8DCA07;"/><path d="M193.4,302.1c-1-2.6-1.7-4.8-2.6-6.9c-1.9-4.4-4-8.7-6.5-12.8c-0.9-1.7-1.4-3.6-1.4-5.5    c0-2.1,0.9-2.6,3.1-2.2c2.9,0.6,5.7,1.6,8.4,2.9c2.2,0.9,3.8,2.9,4.3,5.2c1,3.9,1.4,8,1.3,12c0.1,1.4-0.6,2.7-1.8,3.5    C196.7,299.4,195.2,300.6,193.4,302.1z" style="fill:#8DCA07;"/><path d="M289.2,302.2c-2.2-1.7-3.9-3.1-5.7-4.5c-0.6-0.5-0.9-1.2-0.9-1.9c-0.4-4.7,0.1-9.3,1.5-13.8    c0.5-1.8,1.7-3.2,3.4-4c3-1.5,6.2-2.6,9.5-3.4c0.9-0.3,1.9,0.1,2.2,1c0.1,0.2,0.1,0.3,0.1,0.5c0.5,1.8,0.2,3.6-0.6,5.3    C295.2,287.9,291.5,294.4,289.2,302.2z" style="fill:#8DCA07;"/></svg>