<svg id="Layer_1" style="enable-background:new 0 0 485 558.3;" version="1.1" viewBox="0 0 485 558.3" x="0px" xml:space="preserve" xmlns="http://www.w3.org/2000/svg" xmlns:xlink="http://www.w3.org/1999/xlink" y="0px"><path d="M122.4,233.9c1.6,1.8,2.9,3.8,3.7,6.1c2.4,5.8,5.6,11.3,9.5,16.2c0.2,0.3,0.4,0.5,0.6,0.7    c4.8,3.7,7.9,8.8,11.6,13.4c3.6,4.6,7.7,8.8,12.3,12.5c1.8,1.2,2.7,3.3,2.4,5.4c-0.3,4,0.8,7.8,1.5,11.7c0.5,2.8,1.2,5.6,1.9,8.4    c0.5,2.2,0.3,4.1-1.5,5.8c-1.3,1.4-2.6,2.8-3.7,4.4c-1.6,2.1-4.4,2.9-6.9,1.9c-2.3-0.7-4.5-1.8-6.5-3.2c-4.1-2.9-8.2-5.7-12.5-8.3    c-1.7-0.9-2.8-2.7-2.9-4.6c-0.2-1.2-0.3-2.3-0.4-3.5c0-6-1.8-11.8-2.3-17.7c0-0.5-0.1-1.1-0.3-1.6c-1.6-4.1-1.9-8.5-2.1-12.9    c-0.5-8-2.2-15.8-3-23.8C123.4,241.3,122.8,237.6,122.4,233.9z" style="fill:#FF9D00;"/><path d="M360.1,234c-0.5,4.1-1.1,8.2-1.5,12.3c-1,9.2-2.9,18.3-3.2,27.6c0,0.6-0.1,1.3-0.3,1.9    c-1.4,5.1-2,10.4-3.1,15.6c-0.7,3-0.3,6.2-0.9,9.2c-0.1,0.4-0.1,0.8-0.1,1.3c-0.1,3.5-1.3,6.1-4.6,8c-4.5,2.6-8.7,5.8-13,8.7    c-1.9,1.2-4,2-6.2,2.2c-1.8,0.3-3.7-0.4-4.9-1.8c-1.7-2-3.5-4-5.2-6c-1.2-1.5-0.8-3.2-0.4-4.9c0.9-4.4,2-8.7,2.7-13.1    c0.5-2.3,0.6-4.7,0.5-7c-0.3-1.7,0.4-3.4,1.9-4.4c8.4-6.6,14.5-15.2,21-23.5c0.3-0.5,0.6-0.9,1-1.3c6.1-4.5,9.2-11,12.2-17.6    C357,238.8,358.1,236.2,360.1,234z" style="fill:#FF9D00;"/><path d="M305.1,370.8c-0.2,3.3-1.7,6.3-4.2,8.4c-6.6,5.8-12.8,11.9-17.2,19.6c-2.9,4.9-5.2,10.2-6.9,15.8    c-1.8,6.3-3.8,12.6-5.7,19c-0.3,0.8-0.5,1.6-0.5,2.5c0.2,5.3-1.4,10.3-2.2,15.5c-1.3,8.6-3,17.2-3.5,25.9c-0.1,2.3-1,4.4-1.5,6.5    s-1.1,4.3-1.6,6.5c-0.1,0.6-0.4,1-1,1s-0.9-0.5-0.9-1.1c0-1.6,0-3.2,0.1-4.8c0.2-2,0.3-4,0.3-6.1c0.2-10.9,0.4-21.7,1.9-32.5    c1-6.2,2.3-12.3,4.1-18.4c1.4-5.2,2.6-10.5,3.5-15.9c1-6.6,3.8-12.6,5.8-18.9c0.2-0.5,0.5-1,0.6-1.5c1.5-6.1,5.6-9.4,11.4-11.4    c5-1.7,9.6-4.3,13.5-7.8C302.1,372.3,303.2,371.1,305.1,370.8z" style="fill:#FF9D00;"/><path d="M177.2,370.8c2,0.1,3.1,1.4,4.3,2.4c4,3.4,8.6,6,13.5,7.8c1.6,0.6,3.1,1.4,4.6,2.1    c2.4,1,4.3,2.9,5.2,5.4c2.9,7.4,6.2,14.7,7.7,22.6c1.4,7.3,3,14.6,5,21.8c2.6,9.5,4,19.2,4.3,29c0.3,8.9,0.6,17.9,0.8,26.8    c0,0.9,0.8,2.5-0.8,2.7s-1.1-1.5-1.4-2.4c-0.3-1.1-0.6-2.3-0.9-3.4c-1.1-4.2-1.9-8.5-2.3-12.8c-1.1-8.8-2.1-17.5-4-26.2    c-0.4-1.2-0.7-2.5-0.8-3.7c0.2-7.8-2.9-14.8-4.9-22c-1.2-4.6-2.7-9.2-4.4-13.6c-4-9.1-9.8-17.3-17.2-24c-1.1-1-2.1-2.1-3.2-3.1    C178.7,376.4,178.7,376.4,177.2,370.8z" style="fill:#FF9D00;"/></svg>