<svg height="18in" id="Layer_1" version="1.1" width="32in" x="0px" xml:space="preserve" xmlns="http://www.w3.org/2000/svg" xmlns:xlink="http://www.w3.org/1999/xlink" y="0px"><g transform="translate(93.95971008040976 97.41571008040975) rotate(-45 232.7165 229.2605)"><path d="M219.888,71.765c-3.639-0.929-7.282-1.839-10.93-2.732c-4.428-1.084-8.862-2.143-13.302-3.179  c-3.962-0.924-7.928-1.83-11.899-2.713c-3.818-0.849-7.64-1.677-11.469-2.473c-2.112-0.439-4.226-0.868-6.344-1.281  c-1.169-0.228-2.34-0.45-3.512-0.665c-0.638-0.117-1.276-0.231-1.914-0.342c0.968,0.75,1.915,1.528,2.817,2.356  c0.7,0.643,1.372,1.316,1.999,2.029c0.529,0.603,1.027,1.234,1.476,1.898c0.46,0.681,0.87,1.397,1.207,2.146  c0.35,0.777,0.623,1.59,0.798,2.424c0.091,0.431,0.155,0.868,0.192,1.307c0.038,0.451,0.046,0.904,0.025,1.355  c-0.021,0.464-0.072,0.927-0.152,1.384c-0.083,0.471-0.197,0.936-0.338,1.393c-0.146,0.472-0.322,0.935-0.524,1.387  c-0.21,0.47-0.447,0.928-0.706,1.373c-0.272,0.466-0.569,0.919-0.885,1.356c-0.335,0.463-0.692,0.911-1.065,1.344  c-0.378,0.438-0.774,0.862-1.184,1.272c-0.397,0.397-0.807,0.782-1.228,1.155c-0.463,0.41-0.937,0.806-1.421,1.191  c-0.54,0.429-1.091,0.845-1.65,1.249c-0.632,0.458-1.273,0.902-1.921,1.337c-0.738,0.495-1.485,0.979-2.237,1.453  c-0.861,0.543-1.728,1.076-2.6,1.6c-0.998,0.601-2.002,1.191-3.01,1.775c-1.151,0.667-2.307,1.326-3.466,1.978  c-1.319,0.743-2.643,1.478-3.969,2.208c-3.198,1.761-6.411,3.494-9.631,5.216c-4.056,2.168-8.122,4.317-12.192,6.457  c-3.673,1.931-7.35,3.856-11.028,5.777c-0.404,0.832-0.818,1.659-1.238,2.483c-0.459,0.9-0.924,1.797-1.394,2.691  c-0.505,0.962-1.013,1.922-1.523,2.881c-1.178,2.215-2.364,4.427-3.538,6.645c-1.219,2.302-2.426,4.61-3.609,6.931  c-1.26,2.472-2.493,4.959-3.686,7.465c-1.235,2.595-2.427,5.211-3.56,7.853c-1.145,2.667-2.229,5.36-3.235,8.083  c-1.001,2.712-1.924,5.454-2.743,8.227c-0.803,2.719-1.505,5.467-2.073,8.244c-0.554,2.711-0.979,5.449-1.284,8.199  c-0.3,2.71-0.484,5.433-0.564,8.158c-0.08,2.697-0.059,5.396,0.048,8.092c0.07,1.779,0.178,3.556,0.319,5.331  c0.354-1.396,0.766-2.778,1.236-4.14c0.305-0.882,0.634-1.755,0.99-2.617c0.344-0.833,0.713-1.656,1.109-2.465  c0.38-0.775,0.785-1.538,1.221-2.283c0.414-0.709,0.855-1.402,1.329-2.073c0.45-0.636,0.93-1.251,1.446-1.835  c0.493-0.558,1.02-1.087,1.587-1.568c0.278-0.235,0.565-0.459,0.863-0.669c0.294-0.207,0.597-0.399,0.91-0.576  c0.604-0.34,1.242-0.618,1.903-0.822c0.319-0.099,0.644-0.18,0.973-0.243c0.321-0.061,0.645-0.106,0.97-0.133  c0.629-0.053,1.263-0.042,1.89,0.028c0.599,0.067,1.192,0.188,1.771,0.354c0.557,0.159,1.103,0.36,1.633,0.593  c0.513,0.225,1.012,0.481,1.498,0.76c0.557,0.32,1.097,0.671,1.62,1.044c-0.234-1.64-0.372-3.294-0.406-4.951  c-0.033-1.615,0.035-3.233,0.21-4.839c0.182-1.669,0.48-3.324,0.896-4.951c0.221-0.865,0.476-1.721,0.763-2.566  c0.298-0.874,0.632-1.736,0.996-2.584c0.753-1.753,1.637-3.449,2.621-5.084c0.996-1.653,2.094-3.244,3.289-4.76  c1.16-1.471,2.412-2.87,3.767-4.164c0.602-0.575,1.224-1.128,1.869-1.654c0.337-0.275,0.68-0.542,1.03-0.8  c0.681-0.503,1.387-0.974,2.121-1.397c0.71-0.41,1.446-0.777,2.208-1.083c0.198-0.079,0.398-0.155,0.599-0.225  c0.04-0.755,0.133-1.507,0.281-2.248c0.198-0.984,0.494-1.95,0.886-2.874c0.203-0.479,0.431-0.947,0.684-1.401  c0.13-0.234,0.267-0.465,0.409-0.692c0.562-0.898,1.209-1.74,1.905-2.538c0.432-0.495,0.883-0.974,1.348-1.439  c0.726-0.726,1.487-1.417,2.268-2.084c0.646-0.552,1.307-1.087,1.976-1.611c0.555-0.434,1.116-0.861,1.68-1.284  c-0.544-0.24-1.074-0.512-1.586-0.815c-0.608-0.359-1.192-0.762-1.74-1.208c-0.312-0.254-0.612-0.521-0.898-0.804  c-0.268-0.264-0.524-0.541-0.765-0.83c-0.274-0.328-0.529-0.672-0.761-1.031c-0.241-0.372-0.457-0.759-0.644-1.16  c-0.195-0.416-0.359-0.847-0.489-1.288c-0.135-0.458-0.233-0.927-0.293-1.401c-0.062-0.491-0.082-0.988-0.062-1.483  c0.021-0.513,0.085-1.023,0.188-1.526c0.104-0.511,0.248-1.014,0.422-1.505c0.178-0.503,0.388-0.995,0.622-1.474  c0.334-0.685,0.717-1.347,1.133-1.986c0.323-0.497,0.666-0.981,1.025-1.454c0.379-0.499,0.775-0.986,1.183-1.461  c0.89-1.036,1.838-2.02,2.823-2.965c0.535-0.514,1.081-1.016,1.635-1.508c0.585-0.519,1.179-1.027,1.781-1.525  c1.297-1.073,2.631-2.102,3.99-3.097c0.999-0.731,2.012-1.444,3.036-2.139c1.078-0.732,2.168-1.445,3.27-2.141  c2.333-1.473,4.716-2.867,7.14-4.185c1.262-0.686,2.535-1.351,3.819-1.994c1.306-0.654,2.623-1.285,3.951-1.892  c2.687-1.229,5.419-2.361,8.194-3.375c1.386-0.506,2.783-0.983,4.189-1.429c1.384-0.438,2.777-0.846,4.178-1.226  c1.36-0.368,2.726-0.71,4.1-1.023c1.313-0.299,2.632-0.572,3.956-0.818c1.716-0.318,3.441-0.591,5.173-0.803  c1.115-0.136,2.233-0.248,3.354-0.325c0.78-0.054,1.561-0.091,2.343-0.106c0.471-0.009,0.941-0.01,1.412,0  c0.44,0.009,0.88,0.028,1.319,0.058c0.411,0.029,0.821,0.068,1.229,0.122c0.386,0.051,0.77,0.115,1.15,0.198  c0.362,0.078,0.721,0.173,1.072,0.289c0.504,0.166,0.994,0.377,1.452,0.645c0.321,0.188,0.626,0.404,0.906,0.649  c0.145,0.127,0.283,0.262,0.412,0.404c0.133,0.146,0.257,0.299,0.371,0.459c0.116,0.163,0.222,0.333,0.317,0.509  c0.095,0.177,0.179,0.36,0.25,0.548c0.071,0.186,0.13,0.377,0.176,0.571c0.046,0.189,0.079,0.382,0.1,0.575  c0.041,0.367,0.039,0.739-0.002,1.106c-0.043,0.381-0.128,0.757-0.247,1.122c-0.098,0.299-0.218,0.591-0.357,0.873  c-0.122,0.247-0.258,0.487-0.404,0.72c-0.103,0.165-0.212,0.326-0.325,0.484c2.116-0.409,4.237-0.794,6.365-1.135  c0.642-0.103,1.285-0.202,1.929-0.296c-0.048-1.952-0.095-3.903-0.143-5.855c-0.024-0.992-0.048-1.983-0.073-2.975  c0.947-0.023,1.894-0.046,2.84-0.07C220.043,78.081,219.966,74.923,219.888,71.765z" style="fill:none;stroke:red;stroke-width:0.0001px"/><path d="M219.888,71.765c-3.639-0.929-7.282-1.839-10.93-2.732c-4.428-1.084-8.862-2.143-13.302-3.179  c-3.962-0.924-7.928-1.83-11.899-2.713c-3.818-0.849-7.64-1.677-11.469-2.473c-2.112-0.439-4.226-0.868-6.344-1.281  c-1.169-0.228-2.34-0.45-3.512-0.665c-0.638-0.117-1.276-0.231-1.914-0.342c0.968,0.75,1.915,1.528,2.817,2.356  c0.7,0.643,1.372,1.316,1.999,2.029c0.529,0.603,1.027,1.234,1.476,1.898c0.46,0.681,0.87,1.397,1.207,2.146  c0.35,0.777,0.623,1.59,0.798,2.424c0.091,0.431,0.155,0.868,0.192,1.307c0.038,0.451,0.046,0.904,0.025,1.355  c-0.021,0.464-0.072,0.927-0.152,1.384c-0.083,0.471-0.197,0.936-0.338,1.393c-0.146,0.472-0.322,0.935-0.524,1.387  c-0.21,0.47-0.447,0.928-0.706,1.373c-0.272,0.466-0.569,0.919-0.885,1.356c-0.335,0.463-0.692,0.911-1.065,1.344  c-0.378,0.438-0.774,0.862-1.184,1.272c-0.397,0.397-0.807,0.782-1.228,1.155c-0.463,0.41-0.937,0.806-1.421,1.191  c-0.54,0.429-1.091,0.845-1.65,1.249c-0.632,0.458-1.273,0.902-1.921,1.337c-0.738,0.495-1.485,0.979-2.237,1.453  c-0.861,0.543-1.728,1.076-2.6,1.6c-0.998,0.601-2.002,1.191-3.01,1.775c-1.151,0.667-2.307,1.326-3.466,1.978  c-1.319,0.743-2.643,1.478-3.969,2.208c-3.198,1.761-6.411,3.494-9.631,5.216c-4.056,2.168-8.122,4.317-12.192,6.457  c-3.673,1.931-7.35,3.856-11.028,5.777c-0.404,0.832-0.818,1.659-1.238,2.483c-0.459,0.9-0.924,1.797-1.394,2.691  c-0.505,0.962-1.013,1.922-1.523,2.881c-1.178,2.215-2.364,4.427-3.538,6.645c-1.219,2.302-2.426,4.61-3.609,6.931  c-1.26,2.472-2.493,4.959-3.686,7.465c-1.235,2.595-2.427,5.211-3.56,7.853c-1.145,2.667-2.229,5.36-3.235,8.083  c-1.001,2.712-1.924,5.454-2.743,8.227c-0.803,2.719-1.505,5.467-2.073,8.244c-0.554,2.711-0.979,5.449-1.284,8.199  c-0.3,2.71-0.484,5.433-0.564,8.158c-0.08,2.697-0.059,5.396,0.048,8.092c0.07,1.779,0.178,3.556,0.319,5.331  c0.354-1.396,0.766-2.778,1.236-4.14c0.305-0.882,0.634-1.755,0.99-2.617c0.344-0.833,0.713-1.656,1.109-2.465  c0.38-0.775,0.785-1.538,1.221-2.283c0.414-0.709,0.855-1.402,1.329-2.073c0.45-0.636,0.93-1.251,1.446-1.835  c0.493-0.558,1.02-1.087,1.587-1.568c0.278-0.235,0.565-0.459,0.863-0.669c0.294-0.207,0.597-0.399,0.91-0.576  c0.604-0.34,1.242-0.618,1.903-0.822c0.319-0.099,0.644-0.18,0.973-0.243c0.321-0.061,0.645-0.106,0.97-0.133  c0.629-0.053,1.263-0.042,1.89,0.028c0.599,0.067,1.192,0.188,1.771,0.354c0.557,0.159,1.103,0.36,1.633,0.593  c0.513,0.225,1.012,0.481,1.498,0.76c0.557,0.32,1.097,0.671,1.62,1.044c-0.234-1.64-0.372-3.294-0.406-4.951  c-0.033-1.615,0.035-3.233,0.21-4.839c0.182-1.669,0.48-3.324,0.896-4.951c0.221-0.865,0.476-1.721,0.763-2.566  c0.298-0.874,0.632-1.736,0.996-2.584c0.753-1.753,1.637-3.449,2.621-5.084c0.996-1.653,2.094-3.244,3.289-4.76  c1.16-1.471,2.412-2.87,3.767-4.164c0.602-0.575,1.224-1.128,1.869-1.654c0.337-0.275,0.68-0.542,1.03-0.8  c0.681-0.503,1.387-0.974,2.121-1.397c0.71-0.41,1.446-0.777,2.208-1.083c0.198-0.079,0.398-0.155,0.599-0.225  c0.04-0.755,0.133-1.507,0.281-2.248c0.198-0.984,0.494-1.95,0.886-2.874c0.203-0.479,0.431-0.947,0.684-1.401  c0.13-0.234,0.267-0.465,0.409-0.692c0.562-0.898,1.209-1.74,1.905-2.538c0.432-0.495,0.883-0.974,1.348-1.439  c0.726-0.726,1.487-1.417,2.268-2.084c0.646-0.552,1.307-1.087,1.976-1.611c0.555-0.434,1.116-0.861,1.68-1.284  c-0.544-0.24-1.074-0.512-1.586-0.815c-0.608-0.359-1.192-0.762-1.74-1.208c-0.312-0.254-0.612-0.521-0.898-0.804  c-0.268-0.264-0.524-0.541-0.765-0.83c-0.274-0.328-0.529-0.672-0.761-1.031c-0.241-0.372-0.457-0.759-0.644-1.16  c-0.195-0.416-0.359-0.847-0.489-1.288c-0.135-0.458-0.233-0.927-0.293-1.401c-0.062-0.491-0.082-0.988-0.062-1.483  c0.021-0.513,0.085-1.023,0.188-1.526c0.104-0.511,0.248-1.014,0.422-1.505c0.178-0.503,0.388-0.995,0.622-1.474  c0.334-0.685,0.717-1.347,1.133-1.986c0.323-0.497,0.666-0.981,1.025-1.454c0.379-0.499,0.775-0.986,1.183-1.461  c0.89-1.036,1.838-2.02,2.823-2.965c0.535-0.514,1.081-1.016,1.635-1.508c0.585-0.519,1.179-1.027,1.781-1.525  c1.297-1.073,2.631-2.102,3.99-3.097c0.999-0.731,2.012-1.444,3.036-2.139c1.078-0.732,2.168-1.445,3.27-2.141  c2.333-1.473,4.716-2.867,7.14-4.185c1.262-0.686,2.535-1.351,3.819-1.994c1.306-0.654,2.623-1.285,3.951-1.892  c2.687-1.229,5.419-2.361,8.194-3.375c1.386-0.506,2.783-0.983,4.189-1.429c1.384-0.438,2.777-0.846,4.178-1.226  c1.36-0.368,2.726-0.71,4.1-1.023c1.313-0.299,2.632-0.572,3.956-0.818c1.716-0.318,3.441-0.591,5.173-0.803  c1.115-0.136,2.233-0.248,3.354-0.325c0.78-0.054,1.561-0.091,2.343-0.106c0.471-0.009,0.941-0.01,1.412,0  c0.44,0.009,0.88,0.028,1.319,0.058c0.411,0.029,0.821,0.068,1.229,0.122c0.386,0.051,0.77,0.115,1.15,0.198  c0.362,0.078,0.721,0.173,1.072,0.289c0.504,0.166,0.994,0.377,1.452,0.645c0.321,0.188,0.626,0.404,0.906,0.649  c0.145,0.127,0.283,0.262,0.412,0.404c0.133,0.146,0.257,0.299,0.371,0.459c0.116,0.163,0.222,0.333,0.317,0.509  c0.095,0.177,0.179,0.36,0.25,0.548c0.071,0.186,0.13,0.377,0.176,0.571c0.046,0.189,0.079,0.382,0.1,0.575  c0.041,0.367,0.039,0.739-0.002,1.106c-0.043,0.381-0.128,0.757-0.247,1.122c-0.098,0.299-0.218,0.591-0.357,0.873  c-0.122,0.247-0.258,0.487-0.404,0.72c-0.103,0.165-0.212,0.326-0.325,0.484c2.116-0.409,4.237-0.794,6.365-1.135  c0.642-0.103,1.285-0.202,1.929-0.296c-0.048-1.952-0.095-3.903-0.143-5.855c-0.024-0.992-0.048-1.983-0.073-2.975  c0.947-0.023,1.894-0.046,2.84-0.07C220.043,78.081,219.966,74.923,219.888,71.765z" style="fill:none;stroke:red;stroke-width:0.0001px"/><path d="M219.888,71.765c-3.639-0.929-7.282-1.839-10.93-2.732c-4.428-1.084-8.862-2.143-13.302-3.179  c-3.962-0.924-7.928-1.83-11.899-2.713c-3.818-0.849-7.64-1.677-11.469-2.473c-2.112-0.439-4.226-0.868-6.344-1.281  c-1.169-0.228-2.34-0.45-3.512-0.665c-0.638-0.117-1.276-0.231-1.914-0.342c0.968,0.75,1.915,1.528,2.817,2.356  c0.7,0.643,1.372,1.316,1.999,2.029c0.529,0.603,1.027,1.234,1.476,1.898c0.46,0.681,0.87,1.397,1.207,2.146  c0.35,0.777,0.623,1.59,0.798,2.424c0.091,0.431,0.155,0.868,0.192,1.307c0.038,0.451,0.046,0.904,0.025,1.355  c-0.021,0.464-0.072,0.927-0.152,1.384c-0.083,0.471-0.197,0.936-0.338,1.393c-0.146,0.472-0.322,0.935-0.524,1.387  c-0.21,0.47-0.447,0.928-0.706,1.373c-0.272,0.466-0.569,0.919-0.885,1.356c-0.335,0.463-0.692,0.911-1.065,1.344  c-0.378,0.438-0.774,0.862-1.184,1.272c-0.397,0.397-0.807,0.782-1.228,1.155c-0.463,0.41-0.937,0.806-1.421,1.191  c-0.54,0.429-1.091,0.845-1.65,1.249c-0.632,0.458-1.273,0.902-1.921,1.337c-0.738,0.495-1.485,0.979-2.237,1.453  c-0.861,0.543-1.728,1.076-2.6,1.6c-0.998,0.601-2.002,1.191-3.01,1.775c-1.151,0.667-2.307,1.326-3.466,1.978  c-1.319,0.743-2.643,1.478-3.969,2.208c-3.198,1.761-6.411,3.494-9.631,5.216c-4.056,2.168-8.122,4.317-12.192,6.457  c-3.673,1.931-7.35,3.856-11.028,5.777c-0.404,0.832-0.818,1.659-1.238,2.483c-0.459,0.9-0.924,1.797-1.394,2.691  c-0.505,0.962-1.013,1.922-1.523,2.881c-1.178,2.215-2.364,4.427-3.538,6.645c-1.219,2.302-2.426,4.61-3.609,6.931  c-1.26,2.472-2.493,4.959-3.686,7.465c-1.235,2.595-2.427,5.211-3.56,7.853c-1.145,2.667-2.229,5.36-3.235,8.083  c-1.001,2.712-1.924,5.454-2.743,8.227c-0.803,2.719-1.505,5.467-2.073,8.244c-0.554,2.711-0.979,5.449-1.284,8.199  c-0.3,2.71-0.484,5.433-0.564,8.158c-0.08,2.697-0.059,5.396,0.048,8.092c0.07,1.779,0.178,3.556,0.319,5.331  c0.354-1.396,0.766-2.778,1.236-4.14c0.305-0.882,0.634-1.755,0.99-2.617c0.344-0.833,0.713-1.656,1.109-2.465  c0.38-0.775,0.785-1.538,1.221-2.283c0.414-0.709,0.855-1.402,1.329-2.073c0.45-0.636,0.93-1.251,1.446-1.835  c0.493-0.558,1.02-1.087,1.587-1.568c0.278-0.235,0.565-0.459,0.863-0.669c0.294-0.207,0.597-0.399,0.91-0.576  c0.604-0.34,1.242-0.618,1.903-0.822c0.319-0.099,0.644-0.18,0.973-0.243c0.321-0.061,0.645-0.106,0.97-0.133  c0.629-0.053,1.263-0.042,1.89,0.028c0.599,0.067,1.192,0.188,1.771,0.354c0.557,0.159,1.103,0.36,1.633,0.593  c0.513,0.225,1.012,0.481,1.498,0.76c0.557,0.32,1.097,0.671,1.62,1.044c-0.234-1.64-0.372-3.294-0.406-4.951  c-0.033-1.615,0.035-3.233,0.21-4.839c0.182-1.669,0.48-3.324,0.896-4.951c0.221-0.865,0.476-1.721,0.763-2.566  c0.298-0.874,0.632-1.736,0.996-2.584c0.753-1.753,1.637-3.449,2.621-5.084c0.996-1.653,2.094-3.244,3.289-4.76  c1.16-1.471,2.412-2.87,3.767-4.164c0.602-0.575,1.224-1.128,1.869-1.654c0.337-0.275,0.68-0.542,1.03-0.8  c0.681-0.503,1.387-0.974,2.121-1.397c0.71-0.41,1.446-0.777,2.208-1.083c0.198-0.079,0.398-0.155,0.599-0.225  c0.04-0.755,0.133-1.507,0.281-2.248c0.198-0.984,0.494-1.95,0.886-2.874c0.203-0.479,0.431-0.947,0.684-1.401  c0.13-0.234,0.267-0.465,0.409-0.692c0.562-0.898,1.209-1.74,1.905-2.538c0.432-0.495,0.883-0.974,1.348-1.439  c0.726-0.726,1.487-1.417,2.268-2.084c0.646-0.552,1.307-1.087,1.976-1.611c0.555-0.434,1.116-0.861,1.68-1.284  c-0.544-0.24-1.074-0.512-1.586-0.815c-0.608-0.359-1.192-0.762-1.74-1.208c-0.312-0.254-0.612-0.521-0.898-0.804  c-0.268-0.264-0.524-0.541-0.765-0.83c-0.274-0.328-0.529-0.672-0.761-1.031c-0.241-0.372-0.457-0.759-0.644-1.16  c-0.195-0.416-0.359-0.847-0.489-1.288c-0.135-0.458-0.233-0.927-0.293-1.401c-0.062-0.491-0.082-0.988-0.062-1.483  c0.021-0.513,0.085-1.023,0.188-1.526c0.104-0.511,0.248-1.014,0.422-1.505c0.178-0.503,0.388-0.995,0.622-1.474  c0.334-0.685,0.717-1.347,1.133-1.986c0.323-0.497,0.666-0.981,1.025-1.454c0.379-0.499,0.775-0.986,1.183-1.461  c0.89-1.036,1.838-2.02,2.823-2.965c0.535-0.514,1.081-1.016,1.635-1.508c0.585-0.519,1.179-1.027,1.781-1.525  c1.297-1.073,2.631-2.102,3.99-3.097c0.999-0.731,2.012-1.444,3.036-2.139c1.078-0.732,2.168-1.445,3.27-2.141  c2.333-1.473,4.716-2.867,7.14-4.185c1.262-0.686,2.535-1.351,3.819-1.994c1.306-0.654,2.623-1.285,3.951-1.892  c2.687-1.229,5.419-2.361,8.194-3.375c1.386-0.506,2.783-0.983,4.189-1.429c1.384-0.438,2.777-0.846,4.178-1.226  c1.36-0.368,2.726-0.71,4.1-1.023c1.313-0.299,2.632-0.572,3.956-0.818c1.716-0.318,3.441-0.591,5.173-0.803  c1.115-0.136,2.233-0.248,3.354-0.325c0.78-0.054,1.561-0.091,2.343-0.106c0.471-0.009,0.941-0.01,1.412,0  c0.44,0.009,0.88,0.028,1.319,0.058c0.411,0.029,0.821,0.068,1.229,0.122c0.386,0.051,0.77,0.115,1.15,0.198  c0.362,0.078,0.721,0.173,1.072,0.289c0.504,0.166,0.994,0.377,1.452,0.645c0.321,0.188,0.626,0.404,0.906,0.649  c0.145,0.127,0.283,0.262,0.412,0.404c0.133,0.146,0.257,0.299,0.371,0.459c0.116,0.163,0.222,0.333,0.317,0.509  c0.095,0.177,0.179,0.36,0.25,0.548c0.071,0.186,0.13,0.377,0.176,0.571c0.046,0.189,0.079,0.382,0.1,0.575  c0.041,0.367,0.039,0.739-0.002,1.106c-0.043,0.381-0.128,0.757-0.247,1.122c-0.098,0.299-0.218,0.591-0.357,0.873  c-0.122,0.247-0.258,0.487-0.404,0.72c-0.103,0.165-0.212,0.326-0.325,0.484c2.116-0.409,4.237-0.794,6.365-1.135  c0.642-0.103,1.285-0.202,1.929-0.296c-0.048-1.952-0.095-3.903-0.143-5.855c-0.024-0.992-0.048-1.983-0.073-2.975  c0.947-0.023,1.894-0.046,2.84-0.07C220.043,78.081,219.966,74.923,219.888,71.765z" style="fill:none;stroke:red;stroke-width:0.0001px"/><path d="M309.249,417.228c0.622-0.803,1.247-1.603,1.876-2.4c1.496-1.898,3.01-3.781,4.537-5.654  c1.56-1.913,3.134-3.815,4.718-5.708c1.686-2.016,3.384-4.022,5.089-6.022c3.252-3.814,6.531-7.604,9.813-11.391  c2.025-2.337,4.052-4.672,6.074-7.012c1.519-1.758,3.035-3.519,4.545-5.286c1.314-1.537,2.622-3.079,3.923-4.627  c1.092-1.3,2.179-2.604,3.26-3.914c2.016-2.442,4.012-4.901,5.981-7.381c1.769-2.228,3.515-4.474,5.232-6.742  c1.527-2.018,3.031-4.054,4.5-6.115c1.293-1.812,2.56-3.644,3.787-5.501c0.665-1.006,1.319-2.02,1.957-3.043  c0.485-0.777,0.961-1.559,1.425-2.348c0.43-0.729,0.85-1.464,1.257-2.205c0.377-0.686,0.744-1.378,1.097-2.077  c0.324-0.641,0.636-1.289,0.932-1.944c0.27-0.597,0.528-1.2,0.767-1.81c0.22-0.56,0.424-1.126,0.607-1.698  c0.138-0.432,0.264-0.867,0.373-1.307c0.127-0.508,0.233-1.022,0.308-1.54c0.072-0.493,0.116-0.991,0.122-1.49  c0.006-0.487-0.025-0.975-0.102-1.456c-0.075-0.47-0.193-0.934-0.357-1.381c-0.08-0.218-0.171-0.433-0.273-0.642  c-0.099-0.204-0.208-0.404-0.326-0.597c-0.226-0.37-0.486-0.719-0.772-1.044c-0.265-0.301-0.552-0.583-0.855-0.847  c-0.281-0.245-0.575-0.475-0.877-0.694c-0.286-0.207-0.578-0.405-0.875-0.597c-0.406-0.264-0.817-0.518-1.227-0.775  c-0.283-0.177-0.566-0.355-0.845-0.538c-0.281-0.183-0.559-0.37-0.832-0.563c-0.278-0.197-0.551-0.401-0.818-0.614  c-0.276-0.22-0.545-0.449-0.805-0.688c-0.274-0.252-0.538-0.514-0.792-0.787c-0.273-0.293-0.532-0.599-0.779-0.914  c-0.572-0.732-1.072-1.52-1.508-2.34c-0.259-0.487-0.495-0.985-0.713-1.492c-0.245-0.57-0.465-1.151-0.665-1.739  c-0.227-0.665-0.427-1.34-0.605-2.019c-0.099-0.375-0.19-0.751-0.277-1.129c-0.083-0.364-0.16-0.729-0.232-1.096  c-0.153-0.776-0.281-1.557-0.387-2.34c-0.121-0.895-0.213-1.794-0.282-2.694c-0.08-1.046-0.128-2.093-0.152-3.142  c-0.028-1.225-0.023-2.45,0.006-3.674c0.05-2.1,0.171-4.198,0.335-6.293c0.14-1.777,0.311-3.551,0.506-5.323  c0.223-2.027,0.476-4.051,0.751-6.071c0.315-2.319,0.659-4.633,1.024-6.945c0.42-2.663,0.869-5.321,1.338-7.976  c0.532-3.012,1.09-6.02,1.668-9.024c0.645-3.354,1.315-6.703,2.003-10.048c0.771-3.749,1.565-7.493,2.377-11.233  c0.5-2.303,1.006-4.604,1.518-6.904c0.007,0.021,0.014,0.042,0.022,0.063c0.71,2.082,1.444,4.156,2.205,6.22  c0.748,2.029,1.522,4.048,2.328,6.055c0.91,2.266,1.86,4.516,2.868,6.74c0.781,1.724,1.597,3.432,2.467,5.113  c0.401,0.774,0.812,1.542,1.24,2.301c0.401,0.713,0.817,1.419,1.249,2.114c0.4,0.643,0.815,1.277,1.248,1.899  c0.398,0.572,0.812,1.132,1.245,1.679c0.401,0.506,0.817,1,1.253,1.476c0.406,0.443,0.829,0.872,1.272,1.279  c0.589,0.541,1.213,1.045,1.878,1.489c0.441,0.295,0.9,0.563,1.377,0.796c0.465,0.227,0.946,0.42,1.441,0.571  c0.488,0.148,0.988,0.256,1.495,0.314c0.504,0.058,1.013,0.068,1.518,0.027c0.251-0.02,0.502-0.053,0.75-0.098  c0.248-0.045,0.494-0.103,0.737-0.172c0.479-0.137,0.945-0.321,1.39-0.545c0.439-0.221,0.859-0.481,1.255-0.772  c0.278-0.204,0.545-0.422,0.8-0.653c0.366-0.331,0.71-0.687,1.031-1.062c0.329-0.383,0.634-0.785,0.921-1.201  c0.297-0.432,0.574-0.877,0.832-1.333c0.269-0.475,0.518-0.962,0.75-1.456c0.242-0.515,0.466-1.038,0.675-1.567  c0.449-1.138,0.829-2.303,1.159-3.482c0.134-0.479,0.259-0.961,0.378-1.444c0.088-0.356,0.172-0.713,0.254-1.07  c0.186-0.805,0.364-1.612,0.551-2.417c0.075-0.322,0.151-0.644,0.231-0.965c0.064-0.257,0.13-0.513,0.2-0.768  c0.109-0.401,0.227-0.8,0.363-1.194c0.206,0.24,0.402,0.488,0.591,0.74c0.284,0.379,0.554,0.769,0.816,1.164  c0.403,0.61,0.786,1.233,1.156,1.863c0.458,0.779,0.897,1.569,1.324,2.366c0.626,1.166,1.226,2.346,1.811,3.533  c0.58,1.177,1.145,2.362,1.699,3.552c0.639,1.372,1.264,2.751,1.879,4.134c0.701,1.576,1.389,3.158,2.067,4.745  c0.765,1.79,1.518,3.586,2.263,5.385c1.206,2.915,2.389,5.84,4.619,11.203c-1.205,5.116-2.605,10.185-4.197,15.194  c-2.162,6.802-4.677,13.492-7.531,20.033c-2.847,6.525-6.033,12.902-9.538,19.098c-3.506,6.196-7.332,12.211-11.459,18.012  c-4.137,5.816-8.577,11.417-13.294,16.772c-4.742,5.384-9.766,10.52-15.043,15.381c-5.321,4.901-10.9,9.522-16.705,13.838  c-5.806,4.316-11.838,8.327-18.064,12.01c-6.175,3.653-12.541,6.984-19.063,9.974C315.325,414.702,312.301,416.001,309.249,417.228z  " style="fill:none;stroke:red;stroke-width:0.0001px"/><path d="M309.249,417.228c0.622-0.803,1.247-1.603,1.876-2.4c1.496-1.898,3.01-3.781,4.537-5.654  c1.56-1.913,3.134-3.815,4.718-5.708c1.686-2.016,3.384-4.022,5.089-6.022c3.252-3.814,6.531-7.604,9.813-11.391  c2.025-2.337,4.052-4.672,6.074-7.012c1.519-1.758,3.035-3.519,4.545-5.286c1.314-1.537,2.622-3.079,3.923-4.627  c1.092-1.3,2.179-2.604,3.26-3.914c2.016-2.442,4.012-4.901,5.981-7.381c1.769-2.228,3.515-4.474,5.232-6.742  c1.527-2.018,3.031-4.054,4.5-6.115c1.293-1.812,2.56-3.644,3.787-5.501c0.665-1.006,1.319-2.02,1.957-3.043  c0.485-0.777,0.961-1.559,1.425-2.348c0.43-0.729,0.85-1.464,1.257-2.205c0.377-0.686,0.744-1.378,1.097-2.077  c0.324-0.641,0.636-1.289,0.932-1.944c0.27-0.597,0.528-1.2,0.767-1.81c0.22-0.56,0.424-1.126,0.607-1.698  c0.138-0.432,0.264-0.867,0.373-1.307c0.127-0.508,0.233-1.022,0.308-1.54c0.072-0.493,0.116-0.991,0.122-1.49  c0.006-0.487-0.025-0.975-0.102-1.456c-0.075-0.47-0.193-0.934-0.357-1.381c-0.08-0.218-0.171-0.433-0.273-0.642  c-0.099-0.204-0.208-0.404-0.326-0.597c-0.226-0.37-0.486-0.719-0.772-1.044c-0.265-0.301-0.552-0.583-0.855-0.847  c-0.281-0.245-0.575-0.475-0.877-0.694c-0.286-0.207-0.578-0.405-0.875-0.597c-0.406-0.264-0.817-0.518-1.227-0.775  c-0.283-0.177-0.566-0.355-0.845-0.538c-0.281-0.183-0.559-0.37-0.832-0.563c-0.278-0.197-0.551-0.401-0.818-0.614  c-0.276-0.22-0.545-0.449-0.805-0.688c-0.274-0.252-0.538-0.514-0.792-0.787c-0.273-0.293-0.532-0.599-0.779-0.914  c-0.572-0.732-1.072-1.52-1.508-2.34c-0.259-0.487-0.495-0.985-0.713-1.492c-0.245-0.57-0.465-1.151-0.665-1.739  c-0.227-0.665-0.427-1.34-0.605-2.019c-0.099-0.375-0.19-0.751-0.277-1.129c-0.083-0.364-0.16-0.729-0.232-1.096  c-0.153-0.776-0.281-1.557-0.387-2.34c-0.121-0.895-0.213-1.794-0.282-2.694c-0.08-1.046-0.128-2.093-0.152-3.142  c-0.028-1.225-0.023-2.45,0.006-3.674c0.05-2.1,0.171-4.198,0.335-6.293c0.14-1.777,0.311-3.551,0.506-5.323  c0.223-2.027,0.476-4.051,0.751-6.071c0.315-2.319,0.659-4.633,1.024-6.945c0.42-2.663,0.869-5.321,1.338-7.976  c0.532-3.012,1.09-6.02,1.668-9.024c0.645-3.354,1.315-6.703,2.003-10.048c0.771-3.749,1.565-7.493,2.377-11.233  c0.5-2.303,1.006-4.604,1.518-6.904c0.007,0.021,0.014,0.042,0.022,0.063c0.71,2.082,1.444,4.156,2.205,6.22  c0.748,2.029,1.522,4.048,2.328,6.055c0.91,2.266,1.86,4.516,2.868,6.74c0.781,1.724,1.597,3.432,2.467,5.113  c0.401,0.774,0.812,1.542,1.24,2.301c0.401,0.713,0.817,1.419,1.249,2.114c0.4,0.643,0.815,1.277,1.248,1.899  c0.398,0.572,0.812,1.132,1.245,1.679c0.401,0.506,0.817,1,1.253,1.476c0.406,0.443,0.829,0.872,1.272,1.279  c0.589,0.541,1.213,1.045,1.878,1.489c0.441,0.295,0.9,0.563,1.377,0.796c0.465,0.227,0.946,0.42,1.441,0.571  c0.488,0.148,0.988,0.256,1.495,0.314c0.504,0.058,1.013,0.068,1.518,0.027c0.251-0.02,0.502-0.053,0.75-0.098  c0.248-0.045,0.494-0.103,0.737-0.172c0.479-0.137,0.945-0.321,1.39-0.545c0.439-0.221,0.859-0.481,1.255-0.772  c0.278-0.204,0.545-0.422,0.8-0.653c0.366-0.331,0.71-0.687,1.031-1.062c0.329-0.383,0.634-0.785,0.921-1.201  c0.297-0.432,0.574-0.877,0.832-1.333c0.269-0.475,0.518-0.962,0.75-1.456c0.242-0.515,0.466-1.038,0.675-1.567  c0.449-1.138,0.829-2.303,1.159-3.482c0.134-0.479,0.259-0.961,0.378-1.444c0.088-0.356,0.172-0.713,0.254-1.07  c0.186-0.805,0.364-1.612,0.551-2.417c0.075-0.322,0.151-0.644,0.231-0.965c0.064-0.257,0.13-0.513,0.2-0.768  c0.109-0.401,0.227-0.8,0.363-1.194c0.206,0.24,0.402,0.488,0.591,0.74c0.284,0.379,0.554,0.769,0.816,1.164  c0.403,0.61,0.786,1.233,1.156,1.863c0.458,0.779,0.897,1.569,1.324,2.366c0.626,1.166,1.226,2.346,1.811,3.533  c0.58,1.177,1.145,2.362,1.699,3.552c0.639,1.372,1.264,2.751,1.879,4.134c0.701,1.576,1.389,3.158,2.067,4.745  c0.765,1.79,1.518,3.586,2.263,5.385c1.206,2.915,2.389,5.84,4.619,11.203c-1.205,5.116-2.605,10.185-4.197,15.194  c-2.162,6.802-4.677,13.492-7.531,20.033c-2.847,6.525-6.033,12.902-9.538,19.098c-3.506,6.196-7.332,12.211-11.459,18.012  c-4.137,5.816-8.577,11.417-13.294,16.772c-4.742,5.384-9.766,10.52-15.043,15.381c-5.321,4.901-10.9,9.522-16.705,13.838  c-5.806,4.316-11.838,8.327-18.064,12.01c-6.175,3.653-12.541,6.984-19.063,9.974C315.325,414.702,312.301,416.001,309.249,417.228z  " style="fill:none;stroke:red;stroke-width:0.0001px"/><path d="M309.249,417.228c0.622-0.803,1.247-1.603,1.876-2.4c1.496-1.898,3.01-3.781,4.537-5.654  c1.56-1.913,3.134-3.815,4.718-5.708c1.686-2.016,3.384-4.022,5.089-6.022c3.252-3.814,6.531-7.604,9.813-11.391  c2.025-2.337,4.052-4.672,6.074-7.012c1.519-1.758,3.035-3.519,4.545-5.286c1.314-1.537,2.622-3.079,3.923-4.627  c1.092-1.3,2.179-2.604,3.26-3.914c2.016-2.442,4.012-4.901,5.981-7.381c1.769-2.228,3.515-4.474,5.232-6.742  c1.527-2.018,3.031-4.054,4.5-6.115c1.293-1.812,2.56-3.644,3.787-5.501c0.665-1.006,1.319-2.02,1.957-3.043  c0.485-0.777,0.961-1.559,1.425-2.348c0.43-0.729,0.85-1.464,1.257-2.205c0.377-0.686,0.744-1.378,1.097-2.077  c0.324-0.641,0.636-1.289,0.932-1.944c0.27-0.597,0.528-1.2,0.767-1.81c0.22-0.56,0.424-1.126,0.607-1.698  c0.138-0.432,0.264-0.867,0.373-1.307c0.127-0.508,0.233-1.022,0.308-1.54c0.072-0.493,0.116-0.991,0.122-1.49  c0.006-0.487-0.025-0.975-0.102-1.456c-0.075-0.47-0.193-0.934-0.357-1.381c-0.08-0.218-0.171-0.433-0.273-0.642  c-0.099-0.204-0.208-0.404-0.326-0.597c-0.226-0.37-0.486-0.719-0.772-1.044c-0.265-0.301-0.552-0.583-0.855-0.847  c-0.281-0.245-0.575-0.475-0.877-0.694c-0.286-0.207-0.578-0.405-0.875-0.597c-0.406-0.264-0.817-0.518-1.227-0.775  c-0.283-0.177-0.566-0.355-0.845-0.538c-0.281-0.183-0.559-0.37-0.832-0.563c-0.278-0.197-0.551-0.401-0.818-0.614  c-0.276-0.22-0.545-0.449-0.805-0.688c-0.274-0.252-0.538-0.514-0.792-0.787c-0.273-0.293-0.532-0.599-0.779-0.914  c-0.572-0.732-1.072-1.52-1.508-2.34c-0.259-0.487-0.495-0.985-0.713-1.492c-0.245-0.57-0.465-1.151-0.665-1.739  c-0.227-0.665-0.427-1.34-0.605-2.019c-0.099-0.375-0.19-0.751-0.277-1.129c-0.083-0.364-0.16-0.729-0.232-1.096  c-0.153-0.776-0.281-1.557-0.387-2.34c-0.121-0.895-0.213-1.794-0.282-2.694c-0.08-1.046-0.128-2.093-0.152-3.142  c-0.028-1.225-0.023-2.45,0.006-3.674c0.05-2.1,0.171-4.198,0.335-6.293c0.14-1.777,0.311-3.551,0.506-5.323  c0.223-2.027,0.476-4.051,0.751-6.071c0.315-2.319,0.659-4.633,1.024-6.945c0.42-2.663,0.869-5.321,1.338-7.976  c0.532-3.012,1.09-6.02,1.668-9.024c0.645-3.354,1.315-6.703,2.003-10.048c0.771-3.749,1.565-7.493,2.377-11.233  c0.5-2.303,1.006-4.604,1.518-6.904c0.007,0.021,0.014,0.042,0.022,0.063c0.71,2.082,1.444,4.156,2.205,6.22  c0.748,2.029,1.522,4.048,2.328,6.055c0.91,2.266,1.86,4.516,2.868,6.74c0.781,1.724,1.597,3.432,2.467,5.113  c0.401,0.774,0.812,1.542,1.24,2.301c0.401,0.713,0.817,1.419,1.249,2.114c0.4,0.643,0.815,1.277,1.248,1.899  c0.398,0.572,0.812,1.132,1.245,1.679c0.401,0.506,0.817,1,1.253,1.476c0.406,0.443,0.829,0.872,1.272,1.279  c0.589,0.541,1.213,1.045,1.878,1.489c0.441,0.295,0.9,0.563,1.377,0.796c0.465,0.227,0.946,0.42,1.441,0.571  c0.488,0.148,0.988,0.256,1.495,0.314c0.504,0.058,1.013,0.068,1.518,0.027c0.251-0.02,0.502-0.053,0.75-0.098  c0.248-0.045,0.494-0.103,0.737-0.172c0.479-0.137,0.945-0.321,1.39-0.545c0.439-0.221,0.859-0.481,1.255-0.772  c0.278-0.204,0.545-0.422,0.8-0.653c0.366-0.331,0.71-0.687,1.031-1.062c0.329-0.383,0.634-0.785,0.921-1.201  c0.297-0.432,0.574-0.877,0.832-1.333c0.269-0.475,0.518-0.962,0.75-1.456c0.242-0.515,0.466-1.038,0.675-1.567  c0.449-1.138,0.829-2.303,1.159-3.482c0.134-0.479,0.259-0.961,0.378-1.444c0.088-0.356,0.172-0.713,0.254-1.07  c0.186-0.805,0.364-1.612,0.551-2.417c0.075-0.322,0.151-0.644,0.231-0.965c0.064-0.257,0.13-0.513,0.2-0.768  c0.109-0.401,0.227-0.8,0.363-1.194c0.206,0.24,0.402,0.488,0.591,0.74c0.284,0.379,0.554,0.769,0.816,1.164  c0.403,0.61,0.786,1.233,1.156,1.863c0.458,0.779,0.897,1.569,1.324,2.366c0.626,1.166,1.226,2.346,1.811,3.533  c0.58,1.177,1.145,2.362,1.699,3.552c0.639,1.372,1.264,2.751,1.879,4.134c0.701,1.576,1.389,3.158,2.067,4.745  c0.765,1.79,1.518,3.586,2.263,5.385c1.206,2.915,2.389,5.84,4.619,11.203c-1.205,5.116-2.605,10.185-4.197,15.194  c-2.162,6.802-4.677,13.492-7.531,20.033c-2.847,6.525-6.033,12.902-9.538,19.098c-3.506,6.196-7.332,12.211-11.459,18.012  c-4.137,5.816-8.577,11.417-13.294,16.772c-4.742,5.384-9.766,10.52-15.043,15.381c-5.321,4.901-10.9,9.522-16.705,13.838  c-5.806,4.316-11.838,8.327-18.064,12.01c-6.175,3.653-12.541,6.984-19.063,9.974C315.325,414.702,312.301,416.001,309.249,417.228z  " style="fill:none;stroke:red;stroke-width:0.0001px"/></g></svg>