<svg height="18in" id="Layer_1" version="1.1" width="32in" x="0px" xml:space="preserve" xmlns="http://www.w3.org/2000/svg" xmlns:xlink="http://www.w3.org/1999/xlink" y="0px"><g transform="translate(93.95971008040976 97.41571008040975) rotate(-45 232.7165 229.2605)"><path d="M309.249,417.228c0.622-0.803,1.247-1.603,1.876-2.4c1.496-1.898,3.01-3.781,4.537-5.654  c1.56-1.913,3.134-3.815,4.718-5.708c1.686-2.016,3.384-4.022,5.089-6.022c3.252-3.814,6.531-7.604,9.813-11.391  c2.025-2.337,4.052-4.672,6.074-7.012c1.519-1.758,3.035-3.519,4.545-5.286c1.314-1.537,2.622-3.079,3.923-4.627  c1.092-1.3,2.179-2.604,3.26-3.914c2.016-2.442,4.012-4.901,5.981-7.381c1.769-2.228,3.515-4.474,5.232-6.742  c1.527-2.018,3.031-4.054,4.5-6.115c1.293-1.812,2.56-3.644,3.787-5.501c0.665-1.006,1.319-2.02,1.957-3.043  c0.485-0.777,0.961-1.559,1.425-2.348c0.43-0.729,0.85-1.464,1.257-2.205c0.377-0.686,0.744-1.378,1.097-2.077  c0.324-0.641,0.636-1.289,0.932-1.944c0.27-0.597,0.528-1.2,0.767-1.81c0.22-0.56,0.424-1.126,0.607-1.698  c0.138-0.432,0.264-0.867,0.373-1.307c0.127-0.508,0.233-1.022,0.308-1.54c0.072-0.493,0.116-0.991,0.122-1.49  c0.006-0.487-0.025-0.975-0.102-1.456c-0.075-0.47-0.193-0.934-0.357-1.381c-0.08-0.218-0.171-0.433-0.273-0.642  c-0.099-0.204-0.208-0.404-0.326-0.597c-0.226-0.37-0.486-0.719-0.772-1.044c-0.265-0.301-0.552-0.583-0.855-0.847  c-0.281-0.245-0.575-0.475-0.877-0.694c-0.286-0.207-0.578-0.405-0.875-0.597c-0.406-0.264-0.817-0.518-1.227-0.775  c-0.283-0.177-0.566-0.355-0.845-0.538c-0.281-0.183-0.559-0.37-0.832-0.563c-0.278-0.197-0.551-0.401-0.818-0.614  c-0.276-0.22-0.545-0.449-0.805-0.688c-0.274-0.252-0.538-0.514-0.792-0.787c-0.273-0.293-0.532-0.599-0.779-0.914  c-0.572-0.732-1.072-1.52-1.508-2.34c-0.259-0.487-0.495-0.985-0.713-1.492c-0.245-0.57-0.465-1.151-0.665-1.739  c-0.227-0.665-0.427-1.34-0.605-2.019c-0.099-0.375-0.19-0.751-0.277-1.129c-0.083-0.364-0.16-0.729-0.232-1.096  c-0.153-0.776-0.281-1.557-0.387-2.34c-0.121-0.895-0.213-1.794-0.282-2.694c-0.08-1.046-0.128-2.093-0.152-3.142  c-0.028-1.225-0.023-2.45,0.006-3.674c0.05-2.1,0.171-4.198,0.335-6.293c0.14-1.777,0.311-3.551,0.506-5.323  c0.223-2.027,0.476-4.051,0.751-6.071c0.315-2.319,0.659-4.633,1.024-6.945c0.42-2.663,0.869-5.321,1.338-7.976  c0.532-3.012,1.09-6.02,1.668-9.024c0.645-3.354,1.315-6.703,2.003-10.048c0.771-3.749,1.565-7.493,2.377-11.233  c0.5-2.303,1.006-4.604,1.518-6.904c0.007,0.021,0.014,0.042,0.022,0.063c0.71,2.082,1.444,4.156,2.205,6.22  c0.748,2.029,1.522,4.048,2.328,6.055c0.91,2.266,1.86,4.516,2.868,6.74c0.781,1.724,1.597,3.432,2.467,5.113  c0.401,0.774,0.812,1.542,1.24,2.301c0.401,0.713,0.817,1.419,1.249,2.114c0.4,0.643,0.815,1.277,1.248,1.899  c0.398,0.572,0.812,1.132,1.245,1.679c0.401,0.506,0.817,1,1.253,1.476c0.406,0.443,0.829,0.872,1.272,1.279  c0.589,0.541,1.213,1.045,1.878,1.489c0.441,0.295,0.9,0.563,1.377,0.796c0.465,0.227,0.946,0.42,1.441,0.571  c0.488,0.148,0.988,0.256,1.495,0.314c0.504,0.058,1.013,0.068,1.518,0.027c0.251-0.02,0.502-0.053,0.75-0.098  c0.248-0.045,0.494-0.103,0.737-0.172c0.479-0.137,0.945-0.321,1.39-0.545c0.439-0.221,0.859-0.481,1.255-0.772  c0.278-0.204,0.545-0.422,0.8-0.653c0.366-0.331,0.71-0.687,1.031-1.062c0.329-0.383,0.634-0.785,0.921-1.201  c0.297-0.432,0.574-0.877,0.832-1.333c0.269-0.475,0.518-0.962,0.75-1.456c0.242-0.515,0.466-1.038,0.675-1.567  c0.449-1.138,0.829-2.303,1.159-3.482c0.134-0.479,0.259-0.961,0.378-1.444c0.088-0.356,0.172-0.713,0.254-1.07  c0.186-0.805,0.364-1.612,0.551-2.417c0.075-0.322,0.151-0.644,0.231-0.965c0.064-0.257,0.13-0.513,0.2-0.768  c0.109-0.401,0.227-0.8,0.363-1.194c0.206,0.24,0.402,0.488,0.591,0.74c0.284,0.379,0.554,0.769,0.816,1.164  c0.403,0.61,0.786,1.233,1.156,1.863c0.458,0.779,0.897,1.569,1.324,2.366c0.626,1.166,1.226,2.346,1.811,3.533  c0.58,1.177,1.145,2.362,1.699,3.552c0.639,1.372,1.264,2.751,1.879,4.134c0.701,1.576,1.389,3.158,2.067,4.745  c0.765,1.79,1.518,3.586,2.263,5.385c1.206,2.915,2.389,5.84,4.619,11.203c-1.205,5.116-2.605,10.185-4.197,15.194  c-2.162,6.802-4.677,13.492-7.531,20.033c-2.847,6.525-6.033,12.902-9.538,19.098c-3.506,6.196-7.332,12.211-11.459,18.012  c-4.137,5.816-8.577,11.417-13.294,16.772c-4.742,5.384-9.766,10.52-15.043,15.381c-5.321,4.901-10.9,9.522-16.705,13.838  c-5.806,4.316-11.838,8.327-18.064,12.01c-6.175,3.653-12.541,6.984-19.063,9.974C315.325,414.702,312.301,416.001,309.249,417.228z  " style="fill:none;stroke:red;stroke-width:0.0001px"/><path d="M309.249,417.228c0.622-0.803,1.247-1.603,1.876-2.4c1.496-1.898,3.01-3.781,4.537-5.654  c1.56-1.913,3.134-3.815,4.718-5.708c1.686-2.016,3.384-4.022,5.089-6.022c3.252-3.814,6.531-7.604,9.813-11.391  c2.025-2.337,4.052-4.672,6.074-7.012c1.519-1.758,3.035-3.519,4.545-5.286c1.314-1.537,2.622-3.079,3.923-4.627  c1.092-1.3,2.179-2.604,3.26-3.914c2.016-2.442,4.012-4.901,5.981-7.381c1.769-2.228,3.515-4.474,5.232-6.742  c1.527-2.018,3.031-4.054,4.5-6.115c1.293-1.812,2.56-3.644,3.787-5.501c0.665-1.006,1.319-2.02,1.957-3.043  c0.485-0.777,0.961-1.559,1.425-2.348c0.43-0.729,0.85-1.464,1.257-2.205c0.377-0.686,0.744-1.378,1.097-2.077  c0.324-0.641,0.636-1.289,0.932-1.944c0.27-0.597,0.528-1.2,0.767-1.81c0.22-0.56,0.424-1.126,0.607-1.698  c0.138-0.432,0.264-0.867,0.373-1.307c0.127-0.508,0.233-1.022,0.308-1.54c0.072-0.493,0.116-0.991,0.122-1.49  c0.006-0.487-0.025-0.975-0.102-1.456c-0.075-0.47-0.193-0.934-0.357-1.381c-0.08-0.218-0.171-0.433-0.273-0.642  c-0.099-0.204-0.208-0.404-0.326-0.597c-0.226-0.37-0.486-0.719-0.772-1.044c-0.265-0.301-0.552-0.583-0.855-0.847  c-0.281-0.245-0.575-0.475-0.877-0.694c-0.286-0.207-0.578-0.405-0.875-0.597c-0.406-0.264-0.817-0.518-1.227-0.775  c-0.283-0.177-0.566-0.355-0.845-0.538c-0.281-0.183-0.559-0.37-0.832-0.563c-0.278-0.197-0.551-0.401-0.818-0.614  c-0.276-0.22-0.545-0.449-0.805-0.688c-0.274-0.252-0.538-0.514-0.792-0.787c-0.273-0.293-0.532-0.599-0.779-0.914  c-0.572-0.732-1.072-1.52-1.508-2.34c-0.259-0.487-0.495-0.985-0.713-1.492c-0.245-0.57-0.465-1.151-0.665-1.739  c-0.227-0.665-0.427-1.34-0.605-2.019c-0.099-0.375-0.19-0.751-0.277-1.129c-0.083-0.364-0.16-0.729-0.232-1.096  c-0.153-0.776-0.281-1.557-0.387-2.34c-0.121-0.895-0.213-1.794-0.282-2.694c-0.08-1.046-0.128-2.093-0.152-3.142  c-0.028-1.225-0.023-2.45,0.006-3.674c0.05-2.1,0.171-4.198,0.335-6.293c0.14-1.777,0.311-3.551,0.506-5.323  c0.223-2.027,0.476-4.051,0.751-6.071c0.315-2.319,0.659-4.633,1.024-6.945c0.42-2.663,0.869-5.321,1.338-7.976  c0.532-3.012,1.09-6.02,1.668-9.024c0.645-3.354,1.315-6.703,2.003-10.048c0.771-3.749,1.565-7.493,2.377-11.233  c0.5-2.303,1.006-4.604,1.518-6.904c0.007,0.021,0.014,0.042,0.022,0.063c0.71,2.082,1.444,4.156,2.205,6.22  c0.748,2.029,1.522,4.048,2.328,6.055c0.91,2.266,1.86,4.516,2.868,6.74c0.781,1.724,1.597,3.432,2.467,5.113  c0.401,0.774,0.812,1.542,1.24,2.301c0.401,0.713,0.817,1.419,1.249,2.114c0.4,0.643,0.815,1.277,1.248,1.899  c0.398,0.572,0.812,1.132,1.245,1.679c0.401,0.506,0.817,1,1.253,1.476c0.406,0.443,0.829,0.872,1.272,1.279  c0.589,0.541,1.213,1.045,1.878,1.489c0.441,0.295,0.9,0.563,1.377,0.796c0.465,0.227,0.946,0.42,1.441,0.571  c0.488,0.148,0.988,0.256,1.495,0.314c0.504,0.058,1.013,0.068,1.518,0.027c0.251-0.02,0.502-0.053,0.75-0.098  c0.248-0.045,0.494-0.103,0.737-0.172c0.479-0.137,0.945-0.321,1.39-0.545c0.439-0.221,0.859-0.481,1.255-0.772  c0.278-0.204,0.545-0.422,0.8-0.653c0.366-0.331,0.71-0.687,1.031-1.062c0.329-0.383,0.634-0.785,0.921-1.201  c0.297-0.432,0.574-0.877,0.832-1.333c0.269-0.475,0.518-0.962,0.75-1.456c0.242-0.515,0.466-1.038,0.675-1.567  c0.449-1.138,0.829-2.303,1.159-3.482c0.134-0.479,0.259-0.961,0.378-1.444c0.088-0.356,0.172-0.713,0.254-1.07  c0.186-0.805,0.364-1.612,0.551-2.417c0.075-0.322,0.151-0.644,0.231-0.965c0.064-0.257,0.13-0.513,0.2-0.768  c0.109-0.401,0.227-0.8,0.363-1.194c0.206,0.24,0.402,0.488,0.591,0.74c0.284,0.379,0.554,0.769,0.816,1.164  c0.403,0.61,0.786,1.233,1.156,1.863c0.458,0.779,0.897,1.569,1.324,2.366c0.626,1.166,1.226,2.346,1.811,3.533  c0.58,1.177,1.145,2.362,1.699,3.552c0.639,1.372,1.264,2.751,1.879,4.134c0.701,1.576,1.389,3.158,2.067,4.745  c0.765,1.79,1.518,3.586,2.263,5.385c1.206,2.915,2.389,5.84,4.619,11.203c-1.205,5.116-2.605,10.185-4.197,15.194  c-2.162,6.802-4.677,13.492-7.531,20.033c-2.847,6.525-6.033,12.902-9.538,19.098c-3.506,6.196-7.332,12.211-11.459,18.012  c-4.137,5.816-8.577,11.417-13.294,16.772c-4.742,5.384-9.766,10.52-15.043,15.381c-5.321,4.901-10.9,9.522-16.705,13.838  c-5.806,4.316-11.838,8.327-18.064,12.01c-6.175,3.653-12.541,6.984-19.063,9.974C315.325,414.702,312.301,416.001,309.249,417.228z  " style="fill:none;stroke:red;stroke-width:0.0001px"/><path d="M90.927,376.107c3.118-4.992,10.956-6.017,15.085-7.642c9.725-3.828-1.137-10.984,13.328-7.854  c10.576,2.289,34.691,10.076,53.568,14.97c-10.852-13-30.872-30.315-38.499-34.9c-8.593-5.166-1.455,5.829-6.325,9.612  c-4.431,3.443-18.806,0.914-99.271-89.892c1.41,8.264,3.323,16.443,5.727,24.474c3.556,11.883,8.187,23.445,13.816,34.498  c5.675,11.142,12.366,21.768,19.961,31.701C75.155,360.016,82.725,368.397,90.927,376.107z" style="fill:none;stroke:red;stroke-width:0.0001px"/><path d="M90.927,376.107c3.118-4.992,10.956-6.017,15.085-7.642c9.725-3.828-1.137-10.984,13.328-7.854  c10.576,2.289,34.691,10.076,53.568,14.97c-10.852-13-30.872-30.315-38.499-34.9c-8.593-5.166-1.455,5.829-6.325,9.612  c-4.431,3.443-18.806,0.914-99.271-89.892c1.41,8.264,3.323,16.443,5.727,24.474c3.556,11.883,8.187,23.445,13.816,34.498  c5.675,11.142,12.366,21.768,19.961,31.701C75.155,360.016,82.725,368.397,90.927,376.107z" style="fill:none;stroke:red;stroke-width:0.0001px"/><path d="M188.658,350.214c-4.218-8.263-6.482-16.432-1.082-21.828c1.974-1.973,4.971-3.575,8.875-4.801  c-3.621-3.217-8.819-7.801-15.071-13.86c-7.02-6.804-15.37-15.469-23.974-29.091c-8.605-13.622-17.465-32.201-24.51-38.401  c-7.046-6.2-12.278-0.02-12.937,4.702c-0.659,4.722,3.254,7.986,3.246,9.867c-0.009,1.881-3.94,2.379-6.507,4.79  c-2.567,2.412-3.771,6.737-2.727,10.761c1.044,4.024,4.337,7.748,4.507,9.29c0.17,1.543-2.781,0.905-3.825,6.5  c-1.043,5.595-0.178,17.421,5.061,28.038c5.239,10.617,14.85,20.023,20.896,23.68c6.046,3.657,8.525,1.565,9.709,1.867  c1.184,0.302,1.073,2.999,3.967,5.802c2.894,2.804,8.792,5.714,12.589,5.092c3.796-0.622,5.49-4.776,6.182-7.755  c0.691-2.979,0.38-4.781,1.183-4.182c0.803,0.6,2.721,3.602,4.894,5.627c2.174,2.025,4.604,3.073,9.07,3.826  C188.353,350.165,188.504,350.189,188.658,350.214z" style="fill:none;stroke:red;stroke-width:0.0001px"/><path d="M188.658,350.214c-4.218-8.263-6.482-16.432-1.082-21.828c1.974-1.973,4.971-3.575,8.875-4.801  c-3.621-3.217-8.819-7.801-15.071-13.86c-7.02-6.804-15.37-15.469-23.974-29.091c-8.605-13.622-17.465-32.201-24.51-38.401  c-7.046-6.2-12.278-0.02-12.937,4.702c-0.659,4.722,3.254,7.986,3.246,9.867c-0.009,1.881-3.94,2.379-6.507,4.79  c-2.567,2.412-3.771,6.737-2.727,10.761c1.044,4.024,4.337,7.748,4.507,9.29c0.17,1.543-2.781,0.905-3.825,6.5  c-1.043,5.595-0.178,17.421,5.061,28.038c5.239,10.617,14.85,20.023,20.896,23.68c6.046,3.657,8.525,1.565,9.709,1.867  c1.184,0.302,1.073,2.999,3.967,5.802c2.894,2.804,8.792,5.714,12.589,5.092c3.796-0.622,5.49-4.776,6.182-7.755  c0.691-2.979,0.38-4.781,1.183-4.182c0.803,0.6,2.721,3.602,4.894,5.627c2.174,2.025,4.604,3.073,9.07,3.826  C188.353,350.165,188.504,350.189,188.658,350.214z" style="fill:none;stroke:red;stroke-width:0.0001px"/></g></svg>