<svg height="18in" id="Layer_1" version="1.1" width="32in" x="0px" xml:space="preserve" xmlns="http://www.w3.org/2000/svg" xmlns:xlink="http://www.w3.org/1999/xlink" y="0px"><g transform="translate(93.95971008040976 97.41571008040975) rotate(-45 232.7165 229.2605)"><path d="M309.249,417.228c0.622-0.803,1.247-1.603,1.876-2.4c1.496-1.898,3.01-3.781,4.537-5.654  c1.56-1.913,3.134-3.815,4.718-5.708c1.686-2.016,3.384-4.022,5.089-6.022c3.252-3.814,6.531-7.604,9.813-11.391  c2.025-2.337,4.052-4.672,6.074-7.012c1.519-1.758,3.035-3.519,4.545-5.286c1.314-1.537,2.622-3.079,3.923-4.627  c1.092-1.3,2.179-2.604,3.26-3.914c2.016-2.442,4.012-4.901,5.981-7.381c1.769-2.228,3.515-4.474,5.232-6.742  c1.527-2.018,3.031-4.054,4.5-6.115c1.293-1.812,2.56-3.644,3.787-5.501c0.665-1.006,1.319-2.02,1.957-3.043  c0.485-0.777,0.961-1.559,1.425-2.348c0.43-0.729,0.85-1.464,1.257-2.205c0.377-0.686,0.744-1.378,1.097-2.077  c0.324-0.641,0.636-1.289,0.932-1.944c0.27-0.597,0.528-1.2,0.767-1.81c0.22-0.56,0.424-1.126,0.607-1.698  c0.138-0.432,0.264-0.867,0.373-1.307c0.127-0.508,0.233-1.022,0.308-1.54c0.072-0.493,0.116-0.991,0.122-1.49  c0.006-0.487-0.025-0.975-0.102-1.456c-0.075-0.47-0.193-0.934-0.357-1.381c-0.08-0.218-0.171-0.433-0.273-0.642  c-0.099-0.204-0.208-0.404-0.326-0.597c-0.226-0.37-0.486-0.719-0.772-1.044c-0.265-0.301-0.552-0.583-0.855-0.847  c-0.281-0.245-0.575-0.475-0.877-0.694c-0.286-0.207-0.578-0.405-0.875-0.597c-0.406-0.264-0.817-0.518-1.227-0.775  c-0.283-0.177-0.566-0.355-0.845-0.538c-0.281-0.183-0.559-0.37-0.832-0.563c-0.278-0.197-0.551-0.401-0.818-0.614  c-0.276-0.22-0.545-0.449-0.805-0.688c-0.274-0.252-0.538-0.514-0.792-0.787c-0.273-0.293-0.532-0.599-0.779-0.914  c-0.572-0.732-1.072-1.52-1.508-2.34c-0.259-0.487-0.495-0.985-0.713-1.492c-0.245-0.57-0.465-1.151-0.665-1.739  c-0.227-0.665-0.427-1.34-0.605-2.019c-0.099-0.375-0.19-0.751-0.277-1.129c-0.083-0.364-0.16-0.729-0.232-1.096  c-0.153-0.776-0.281-1.557-0.387-2.34c-0.121-0.895-0.213-1.794-0.282-2.694c-0.08-1.046-0.128-2.093-0.152-3.142  c-0.028-1.225-0.023-2.45,0.006-3.674c0.05-2.1,0.171-4.198,0.335-6.293c0.14-1.777,0.311-3.551,0.506-5.323  c0.223-2.027,0.476-4.051,0.751-6.071c0.315-2.319,0.659-4.633,1.024-6.945c0.42-2.663,0.869-5.321,1.338-7.976  c0.532-3.012,1.09-6.02,1.668-9.024c0.645-3.354,1.315-6.703,2.003-10.048c0.771-3.749,1.565-7.493,2.377-11.233  c0.5-2.303,1.006-4.604,1.518-6.904c0.007,0.021,0.014,0.042,0.022,0.063c0.71,2.082,1.444,4.156,2.205,6.22  c0.748,2.029,1.522,4.048,2.328,6.055c0.91,2.266,1.86,4.516,2.868,6.74c0.781,1.724,1.597,3.432,2.467,5.113  c0.401,0.774,0.812,1.542,1.24,2.301c0.401,0.713,0.817,1.419,1.249,2.114c0.4,0.643,0.815,1.277,1.248,1.899  c0.398,0.572,0.812,1.132,1.245,1.679c0.401,0.506,0.817,1,1.253,1.476c0.406,0.443,0.829,0.872,1.272,1.279  c0.589,0.541,1.213,1.045,1.878,1.489c0.441,0.295,0.9,0.563,1.377,0.796c0.465,0.227,0.946,0.42,1.441,0.571  c0.488,0.148,0.988,0.256,1.495,0.314c0.504,0.058,1.013,0.068,1.518,0.027c0.251-0.02,0.502-0.053,0.75-0.098  c0.248-0.045,0.494-0.103,0.737-0.172c0.479-0.137,0.945-0.321,1.39-0.545c0.439-0.221,0.859-0.481,1.255-0.772  c0.278-0.204,0.545-0.422,0.8-0.653c0.366-0.331,0.71-0.687,1.031-1.062c0.329-0.383,0.634-0.785,0.921-1.201  c0.297-0.432,0.574-0.877,0.832-1.333c0.269-0.475,0.518-0.962,0.75-1.456c0.242-0.515,0.466-1.038,0.675-1.567  c0.449-1.138,0.829-2.303,1.159-3.482c0.134-0.479,0.259-0.961,0.378-1.444c0.088-0.356,0.172-0.713,0.254-1.07  c0.186-0.805,0.364-1.612,0.551-2.417c0.075-0.322,0.151-0.644,0.231-0.965c0.064-0.257,0.13-0.513,0.2-0.768  c0.109-0.401,0.227-0.8,0.363-1.194c0.206,0.24,0.402,0.488,0.591,0.74c0.284,0.379,0.554,0.769,0.816,1.164  c0.403,0.61,0.786,1.233,1.156,1.863c0.458,0.779,0.897,1.569,1.324,2.366c0.626,1.166,1.226,2.346,1.811,3.533  c0.58,1.177,1.145,2.362,1.699,3.552c0.639,1.372,1.264,2.751,1.879,4.134c0.701,1.576,1.389,3.158,2.067,4.745  c0.765,1.79,1.518,3.586,2.263,5.385c1.206,2.915,2.389,5.84,4.619,11.203c-1.205,5.116-2.605,10.185-4.197,15.194  c-2.162,6.802-4.677,13.492-7.531,20.033c-2.847,6.525-6.033,12.902-9.538,19.098c-3.506,6.196-7.332,12.211-11.459,18.012  c-4.137,5.816-8.577,11.417-13.294,16.772c-4.742,5.384-9.766,10.52-15.043,15.381c-5.321,4.901-10.9,9.522-16.705,13.838  c-5.806,4.316-11.838,8.327-18.064,12.01c-6.175,3.653-12.541,6.984-19.063,9.974C315.325,414.702,312.301,416.001,309.249,417.228z  " style="fill:none;stroke:red;stroke-width:0.0001px"/><path d="M309.249,417.228c0.622-0.803,1.247-1.603,1.876-2.4c1.496-1.898,3.01-3.781,4.537-5.654  c1.56-1.913,3.134-3.815,4.718-5.708c1.686-2.016,3.384-4.022,5.089-6.022c3.252-3.814,6.531-7.604,9.813-11.391  c2.025-2.337,4.052-4.672,6.074-7.012c1.519-1.758,3.035-3.519,4.545-5.286c1.314-1.537,2.622-3.079,3.923-4.627  c1.092-1.3,2.179-2.604,3.26-3.914c2.016-2.442,4.012-4.901,5.981-7.381c1.769-2.228,3.515-4.474,5.232-6.742  c1.527-2.018,3.031-4.054,4.5-6.115c1.293-1.812,2.56-3.644,3.787-5.501c0.665-1.006,1.319-2.02,1.957-3.043  c0.485-0.777,0.961-1.559,1.425-2.348c0.43-0.729,0.85-1.464,1.257-2.205c0.377-0.686,0.744-1.378,1.097-2.077  c0.324-0.641,0.636-1.289,0.932-1.944c0.27-0.597,0.528-1.2,0.767-1.81c0.22-0.56,0.424-1.126,0.607-1.698  c0.138-0.432,0.264-0.867,0.373-1.307c0.127-0.508,0.233-1.022,0.308-1.54c0.072-0.493,0.116-0.991,0.122-1.49  c0.006-0.487-0.025-0.975-0.102-1.456c-0.075-0.47-0.193-0.934-0.357-1.381c-0.08-0.218-0.171-0.433-0.273-0.642  c-0.099-0.204-0.208-0.404-0.326-0.597c-0.226-0.37-0.486-0.719-0.772-1.044c-0.265-0.301-0.552-0.583-0.855-0.847  c-0.281-0.245-0.575-0.475-0.877-0.694c-0.286-0.207-0.578-0.405-0.875-0.597c-0.406-0.264-0.817-0.518-1.227-0.775  c-0.283-0.177-0.566-0.355-0.845-0.538c-0.281-0.183-0.559-0.37-0.832-0.563c-0.278-0.197-0.551-0.401-0.818-0.614  c-0.276-0.22-0.545-0.449-0.805-0.688c-0.274-0.252-0.538-0.514-0.792-0.787c-0.273-0.293-0.532-0.599-0.779-0.914  c-0.572-0.732-1.072-1.52-1.508-2.34c-0.259-0.487-0.495-0.985-0.713-1.492c-0.245-0.57-0.465-1.151-0.665-1.739  c-0.227-0.665-0.427-1.34-0.605-2.019c-0.099-0.375-0.19-0.751-0.277-1.129c-0.083-0.364-0.16-0.729-0.232-1.096  c-0.153-0.776-0.281-1.557-0.387-2.34c-0.121-0.895-0.213-1.794-0.282-2.694c-0.08-1.046-0.128-2.093-0.152-3.142  c-0.028-1.225-0.023-2.45,0.006-3.674c0.05-2.1,0.171-4.198,0.335-6.293c0.14-1.777,0.311-3.551,0.506-5.323  c0.223-2.027,0.476-4.051,0.751-6.071c0.315-2.319,0.659-4.633,1.024-6.945c0.42-2.663,0.869-5.321,1.338-7.976  c0.532-3.012,1.09-6.02,1.668-9.024c0.645-3.354,1.315-6.703,2.003-10.048c0.771-3.749,1.565-7.493,2.377-11.233  c0.5-2.303,1.006-4.604,1.518-6.904c0.007,0.021,0.014,0.042,0.022,0.063c0.71,2.082,1.444,4.156,2.205,6.22  c0.748,2.029,1.522,4.048,2.328,6.055c0.91,2.266,1.86,4.516,2.868,6.74c0.781,1.724,1.597,3.432,2.467,5.113  c0.401,0.774,0.812,1.542,1.24,2.301c0.401,0.713,0.817,1.419,1.249,2.114c0.4,0.643,0.815,1.277,1.248,1.899  c0.398,0.572,0.812,1.132,1.245,1.679c0.401,0.506,0.817,1,1.253,1.476c0.406,0.443,0.829,0.872,1.272,1.279  c0.589,0.541,1.213,1.045,1.878,1.489c0.441,0.295,0.9,0.563,1.377,0.796c0.465,0.227,0.946,0.42,1.441,0.571  c0.488,0.148,0.988,0.256,1.495,0.314c0.504,0.058,1.013,0.068,1.518,0.027c0.251-0.02,0.502-0.053,0.75-0.098  c0.248-0.045,0.494-0.103,0.737-0.172c0.479-0.137,0.945-0.321,1.39-0.545c0.439-0.221,0.859-0.481,1.255-0.772  c0.278-0.204,0.545-0.422,0.8-0.653c0.366-0.331,0.71-0.687,1.031-1.062c0.329-0.383,0.634-0.785,0.921-1.201  c0.297-0.432,0.574-0.877,0.832-1.333c0.269-0.475,0.518-0.962,0.75-1.456c0.242-0.515,0.466-1.038,0.675-1.567  c0.449-1.138,0.829-2.303,1.159-3.482c0.134-0.479,0.259-0.961,0.378-1.444c0.088-0.356,0.172-0.713,0.254-1.07  c0.186-0.805,0.364-1.612,0.551-2.417c0.075-0.322,0.151-0.644,0.231-0.965c0.064-0.257,0.13-0.513,0.2-0.768  c0.109-0.401,0.227-0.8,0.363-1.194c0.206,0.24,0.402,0.488,0.591,0.74c0.284,0.379,0.554,0.769,0.816,1.164  c0.403,0.61,0.786,1.233,1.156,1.863c0.458,0.779,0.897,1.569,1.324,2.366c0.626,1.166,1.226,2.346,1.811,3.533  c0.58,1.177,1.145,2.362,1.699,3.552c0.639,1.372,1.264,2.751,1.879,4.134c0.701,1.576,1.389,3.158,2.067,4.745  c0.765,1.79,1.518,3.586,2.263,5.385c1.206,2.915,2.389,5.84,4.619,11.203c-1.205,5.116-2.605,10.185-4.197,15.194  c-2.162,6.802-4.677,13.492-7.531,20.033c-2.847,6.525-6.033,12.902-9.538,19.098c-3.506,6.196-7.332,12.211-11.459,18.012  c-4.137,5.816-8.577,11.417-13.294,16.772c-4.742,5.384-9.766,10.52-15.043,15.381c-5.321,4.901-10.9,9.522-16.705,13.838  c-5.806,4.316-11.838,8.327-18.064,12.01c-6.175,3.653-12.541,6.984-19.063,9.974C315.325,414.702,312.301,416.001,309.249,417.228z  " style="fill:none;stroke:red;stroke-width:0.0001px"/><path d="M219.888,71.765c-3.639-0.929-7.282-1.839-10.93-2.732c-4.428-1.084-8.862-2.143-13.302-3.179  c-3.962-0.924-7.928-1.83-11.899-2.713c-3.818-0.849-7.64-1.677-11.469-2.473c-2.112-0.439-4.226-0.868-6.344-1.281  c-1.169-0.228-2.34-0.45-3.512-0.665c-0.638-0.117-1.276-0.231-1.914-0.342c0.968,0.75,1.915,1.528,2.817,2.356  c0.7,0.643,1.372,1.316,1.999,2.029c0.529,0.603,1.027,1.234,1.476,1.898c0.46,0.681,0.87,1.397,1.207,2.146  c0.35,0.777,0.623,1.59,0.798,2.424c0.091,0.431,0.155,0.868,0.192,1.307c0.038,0.451,0.046,0.904,0.025,1.355  c-0.021,0.464-0.072,0.927-0.152,1.384c-0.083,0.471-0.197,0.936-0.338,1.393c-0.146,0.472-0.322,0.935-0.524,1.387  c-0.21,0.47-0.447,0.928-0.706,1.373c-0.272,0.466-0.569,0.919-0.885,1.356c-0.335,0.463-0.692,0.911-1.065,1.344  c-0.378,0.438-0.774,0.862-1.184,1.272c-0.397,0.397-0.807,0.782-1.228,1.155c-0.463,0.41-0.937,0.806-1.421,1.191  c-0.54,0.429-1.091,0.845-1.65,1.249c-0.632,0.458-1.273,0.902-1.921,1.337c-0.738,0.495-1.485,0.979-2.237,1.453  c-0.861,0.543-1.728,1.076-2.6,1.6c-0.998,0.601-2.002,1.191-3.01,1.775c-1.151,0.667-2.307,1.326-3.466,1.978  c-1.319,0.743-2.643,1.478-3.969,2.208c-3.198,1.761-6.411,3.494-9.631,5.216c-4.056,2.168-8.122,4.317-12.192,6.457  c-3.673,1.931-7.35,3.856-11.028,5.777c-0.404,0.832-0.818,1.659-1.238,2.483c-0.459,0.9-0.924,1.797-1.394,2.691  c-0.505,0.962-1.013,1.922-1.523,2.881c-1.178,2.215-2.364,4.427-3.538,6.645c-1.219,2.302-2.426,4.61-3.609,6.931  c-1.26,2.472-2.493,4.959-3.686,7.465c-1.235,2.595-2.427,5.211-3.56,7.853c-1.145,2.667-2.229,5.36-3.235,8.083  c-1.001,2.712-1.924,5.454-2.743,8.227c-0.803,2.719-1.505,5.467-2.073,8.244c-0.554,2.711-0.979,5.449-1.284,8.199  c-0.3,2.71-0.484,5.433-0.564,8.158c-0.08,2.697-0.059,5.396,0.048,8.092c0.07,1.779,0.178,3.556,0.319,5.331  c0.354-1.396,0.766-2.778,1.236-4.14c0.305-0.882,0.634-1.755,0.99-2.617c0.344-0.833,0.713-1.656,1.109-2.465  c0.38-0.775,0.785-1.538,1.221-2.283c0.414-0.709,0.855-1.402,1.329-2.073c0.45-0.636,0.93-1.251,1.446-1.835  c0.493-0.558,1.02-1.087,1.587-1.568c0.278-0.235,0.565-0.459,0.863-0.669c0.294-0.207,0.597-0.399,0.91-0.576  c0.604-0.34,1.242-0.618,1.903-0.822c0.319-0.099,0.644-0.18,0.973-0.243c0.321-0.061,0.645-0.106,0.97-0.133  c0.629-0.053,1.263-0.042,1.89,0.028c0.599,0.067,1.192,0.188,1.771,0.354c0.557,0.159,1.103,0.36,1.633,0.593  c0.513,0.225,1.012,0.481,1.498,0.76c0.557,0.32,1.097,0.671,1.62,1.044c-0.234-1.64-0.372-3.294-0.406-4.951  c-0.033-1.615,0.035-3.233,0.21-4.839c0.182-1.669,0.48-3.324,0.896-4.951c0.221-0.865,0.476-1.721,0.763-2.566  c0.298-0.874,0.632-1.736,0.996-2.584c0.753-1.753,1.637-3.449,2.621-5.084c0.996-1.653,2.094-3.244,3.289-4.76  c1.16-1.471,2.412-2.87,3.767-4.164c0.602-0.575,1.224-1.128,1.869-1.654c0.337-0.275,0.68-0.542,1.03-0.8  c0.681-0.503,1.387-0.974,2.121-1.397c0.71-0.41,1.446-0.777,2.208-1.083c0.198-0.079,0.398-0.155,0.599-0.225  c0.04-0.755,0.133-1.507,0.281-2.248c0.198-0.984,0.494-1.95,0.886-2.874c0.203-0.479,0.431-0.947,0.684-1.401  c0.13-0.234,0.267-0.465,0.409-0.692c0.562-0.898,1.209-1.74,1.905-2.538c0.432-0.495,0.883-0.974,1.348-1.439  c0.726-0.726,1.487-1.417,2.268-2.084c0.646-0.552,1.307-1.087,1.976-1.611c0.555-0.434,1.116-0.861,1.68-1.284  c-0.544-0.24-1.074-0.512-1.586-0.815c-0.608-0.359-1.192-0.762-1.74-1.208c-0.312-0.254-0.612-0.521-0.898-0.804  c-0.268-0.264-0.524-0.541-0.765-0.83c-0.274-0.328-0.529-0.672-0.761-1.031c-0.241-0.372-0.457-0.759-0.644-1.16  c-0.195-0.416-0.359-0.847-0.489-1.288c-0.135-0.458-0.233-0.927-0.293-1.401c-0.062-0.491-0.082-0.988-0.062-1.483  c0.021-0.513,0.085-1.023,0.188-1.526c0.104-0.511,0.248-1.014,0.422-1.505c0.178-0.503,0.388-0.995,0.622-1.474  c0.334-0.685,0.717-1.347,1.133-1.986c0.323-0.497,0.666-0.981,1.025-1.454c0.379-0.499,0.775-0.986,1.183-1.461  c0.89-1.036,1.838-2.02,2.823-2.965c0.535-0.514,1.081-1.016,1.635-1.508c0.585-0.519,1.179-1.027,1.781-1.525  c1.297-1.073,2.631-2.102,3.99-3.097c0.999-0.731,2.012-1.444,3.036-2.139c1.078-0.732,2.168-1.445,3.27-2.141  c2.333-1.473,4.716-2.867,7.14-4.185c1.262-0.686,2.535-1.351,3.819-1.994c1.306-0.654,2.623-1.285,3.951-1.892  c2.687-1.229,5.419-2.361,8.194-3.375c1.386-0.506,2.783-0.983,4.189-1.429c1.384-0.438,2.777-0.846,4.178-1.226  c1.36-0.368,2.726-0.71,4.1-1.023c1.313-0.299,2.632-0.572,3.956-0.818c1.716-0.318,3.441-0.591,5.173-0.803  c1.115-0.136,2.233-0.248,3.354-0.325c0.78-0.054,1.561-0.091,2.343-0.106c0.471-0.009,0.941-0.01,1.412,0  c0.44,0.009,0.88,0.028,1.319,0.058c0.411,0.029,0.821,0.068,1.229,0.122c0.386,0.051,0.77,0.115,1.15,0.198  c0.362,0.078,0.721,0.173,1.072,0.289c0.504,0.166,0.994,0.377,1.452,0.645c0.321,0.188,0.626,0.404,0.906,0.649  c0.145,0.127,0.283,0.262,0.412,0.404c0.133,0.146,0.257,0.299,0.371,0.459c0.116,0.163,0.222,0.333,0.317,0.509  c0.095,0.177,0.179,0.36,0.25,0.548c0.071,0.186,0.13,0.377,0.176,0.571c0.046,0.189,0.079,0.382,0.1,0.575  c0.041,0.367,0.039,0.739-0.002,1.106c-0.043,0.381-0.128,0.757-0.247,1.122c-0.098,0.299-0.218,0.591-0.357,0.873  c-0.122,0.247-0.258,0.487-0.404,0.72c-0.103,0.165-0.212,0.326-0.325,0.484c2.116-0.409,4.237-0.794,6.365-1.135  c0.642-0.103,1.285-0.202,1.929-0.296c-0.048-1.952-0.095-3.903-0.143-5.855c-0.024-0.992-0.048-1.983-0.073-2.975  c0.947-0.023,1.894-0.046,2.84-0.07C220.043,78.081,219.966,74.923,219.888,71.765z" style="fill:none;stroke:red;stroke-width:0.0001px"/><path d="M219.888,71.765c-3.639-0.929-7.282-1.839-10.93-2.732c-4.428-1.084-8.862-2.143-13.302-3.179  c-3.962-0.924-7.928-1.83-11.899-2.713c-3.818-0.849-7.64-1.677-11.469-2.473c-2.112-0.439-4.226-0.868-6.344-1.281  c-1.169-0.228-2.34-0.45-3.512-0.665c-0.638-0.117-1.276-0.231-1.914-0.342c0.968,0.75,1.915,1.528,2.817,2.356  c0.7,0.643,1.372,1.316,1.999,2.029c0.529,0.603,1.027,1.234,1.476,1.898c0.46,0.681,0.87,1.397,1.207,2.146  c0.35,0.777,0.623,1.59,0.798,2.424c0.091,0.431,0.155,0.868,0.192,1.307c0.038,0.451,0.046,0.904,0.025,1.355  c-0.021,0.464-0.072,0.927-0.152,1.384c-0.083,0.471-0.197,0.936-0.338,1.393c-0.146,0.472-0.322,0.935-0.524,1.387  c-0.21,0.47-0.447,0.928-0.706,1.373c-0.272,0.466-0.569,0.919-0.885,1.356c-0.335,0.463-0.692,0.911-1.065,1.344  c-0.378,0.438-0.774,0.862-1.184,1.272c-0.397,0.397-0.807,0.782-1.228,1.155c-0.463,0.41-0.937,0.806-1.421,1.191  c-0.54,0.429-1.091,0.845-1.65,1.249c-0.632,0.458-1.273,0.902-1.921,1.337c-0.738,0.495-1.485,0.979-2.237,1.453  c-0.861,0.543-1.728,1.076-2.6,1.6c-0.998,0.601-2.002,1.191-3.01,1.775c-1.151,0.667-2.307,1.326-3.466,1.978  c-1.319,0.743-2.643,1.478-3.969,2.208c-3.198,1.761-6.411,3.494-9.631,5.216c-4.056,2.168-8.122,4.317-12.192,6.457  c-3.673,1.931-7.35,3.856-11.028,5.777c-0.404,0.832-0.818,1.659-1.238,2.483c-0.459,0.9-0.924,1.797-1.394,2.691  c-0.505,0.962-1.013,1.922-1.523,2.881c-1.178,2.215-2.364,4.427-3.538,6.645c-1.219,2.302-2.426,4.61-3.609,6.931  c-1.26,2.472-2.493,4.959-3.686,7.465c-1.235,2.595-2.427,5.211-3.56,7.853c-1.145,2.667-2.229,5.36-3.235,8.083  c-1.001,2.712-1.924,5.454-2.743,8.227c-0.803,2.719-1.505,5.467-2.073,8.244c-0.554,2.711-0.979,5.449-1.284,8.199  c-0.3,2.71-0.484,5.433-0.564,8.158c-0.08,2.697-0.059,5.396,0.048,8.092c0.07,1.779,0.178,3.556,0.319,5.331  c0.354-1.396,0.766-2.778,1.236-4.14c0.305-0.882,0.634-1.755,0.99-2.617c0.344-0.833,0.713-1.656,1.109-2.465  c0.38-0.775,0.785-1.538,1.221-2.283c0.414-0.709,0.855-1.402,1.329-2.073c0.45-0.636,0.93-1.251,1.446-1.835  c0.493-0.558,1.02-1.087,1.587-1.568c0.278-0.235,0.565-0.459,0.863-0.669c0.294-0.207,0.597-0.399,0.91-0.576  c0.604-0.34,1.242-0.618,1.903-0.822c0.319-0.099,0.644-0.18,0.973-0.243c0.321-0.061,0.645-0.106,0.97-0.133  c0.629-0.053,1.263-0.042,1.89,0.028c0.599,0.067,1.192,0.188,1.771,0.354c0.557,0.159,1.103,0.36,1.633,0.593  c0.513,0.225,1.012,0.481,1.498,0.76c0.557,0.32,1.097,0.671,1.62,1.044c-0.234-1.64-0.372-3.294-0.406-4.951  c-0.033-1.615,0.035-3.233,0.21-4.839c0.182-1.669,0.48-3.324,0.896-4.951c0.221-0.865,0.476-1.721,0.763-2.566  c0.298-0.874,0.632-1.736,0.996-2.584c0.753-1.753,1.637-3.449,2.621-5.084c0.996-1.653,2.094-3.244,3.289-4.76  c1.16-1.471,2.412-2.87,3.767-4.164c0.602-0.575,1.224-1.128,1.869-1.654c0.337-0.275,0.68-0.542,1.03-0.8  c0.681-0.503,1.387-0.974,2.121-1.397c0.71-0.41,1.446-0.777,2.208-1.083c0.198-0.079,0.398-0.155,0.599-0.225  c0.04-0.755,0.133-1.507,0.281-2.248c0.198-0.984,0.494-1.95,0.886-2.874c0.203-0.479,0.431-0.947,0.684-1.401  c0.13-0.234,0.267-0.465,0.409-0.692c0.562-0.898,1.209-1.74,1.905-2.538c0.432-0.495,0.883-0.974,1.348-1.439  c0.726-0.726,1.487-1.417,2.268-2.084c0.646-0.552,1.307-1.087,1.976-1.611c0.555-0.434,1.116-0.861,1.68-1.284  c-0.544-0.24-1.074-0.512-1.586-0.815c-0.608-0.359-1.192-0.762-1.74-1.208c-0.312-0.254-0.612-0.521-0.898-0.804  c-0.268-0.264-0.524-0.541-0.765-0.83c-0.274-0.328-0.529-0.672-0.761-1.031c-0.241-0.372-0.457-0.759-0.644-1.16  c-0.195-0.416-0.359-0.847-0.489-1.288c-0.135-0.458-0.233-0.927-0.293-1.401c-0.062-0.491-0.082-0.988-0.062-1.483  c0.021-0.513,0.085-1.023,0.188-1.526c0.104-0.511,0.248-1.014,0.422-1.505c0.178-0.503,0.388-0.995,0.622-1.474  c0.334-0.685,0.717-1.347,1.133-1.986c0.323-0.497,0.666-0.981,1.025-1.454c0.379-0.499,0.775-0.986,1.183-1.461  c0.89-1.036,1.838-2.02,2.823-2.965c0.535-0.514,1.081-1.016,1.635-1.508c0.585-0.519,1.179-1.027,1.781-1.525  c1.297-1.073,2.631-2.102,3.99-3.097c0.999-0.731,2.012-1.444,3.036-2.139c1.078-0.732,2.168-1.445,3.27-2.141  c2.333-1.473,4.716-2.867,7.14-4.185c1.262-0.686,2.535-1.351,3.819-1.994c1.306-0.654,2.623-1.285,3.951-1.892  c2.687-1.229,5.419-2.361,8.194-3.375c1.386-0.506,2.783-0.983,4.189-1.429c1.384-0.438,2.777-0.846,4.178-1.226  c1.36-0.368,2.726-0.71,4.1-1.023c1.313-0.299,2.632-0.572,3.956-0.818c1.716-0.318,3.441-0.591,5.173-0.803  c1.115-0.136,2.233-0.248,3.354-0.325c0.78-0.054,1.561-0.091,2.343-0.106c0.471-0.009,0.941-0.01,1.412,0  c0.44,0.009,0.88,0.028,1.319,0.058c0.411,0.029,0.821,0.068,1.229,0.122c0.386,0.051,0.77,0.115,1.15,0.198  c0.362,0.078,0.721,0.173,1.072,0.289c0.504,0.166,0.994,0.377,1.452,0.645c0.321,0.188,0.626,0.404,0.906,0.649  c0.145,0.127,0.283,0.262,0.412,0.404c0.133,0.146,0.257,0.299,0.371,0.459c0.116,0.163,0.222,0.333,0.317,0.509  c0.095,0.177,0.179,0.36,0.25,0.548c0.071,0.186,0.13,0.377,0.176,0.571c0.046,0.189,0.079,0.382,0.1,0.575  c0.041,0.367,0.039,0.739-0.002,1.106c-0.043,0.381-0.128,0.757-0.247,1.122c-0.098,0.299-0.218,0.591-0.357,0.873  c-0.122,0.247-0.258,0.487-0.404,0.72c-0.103,0.165-0.212,0.326-0.325,0.484c2.116-0.409,4.237-0.794,6.365-1.135  c0.642-0.103,1.285-0.202,1.929-0.296c-0.048-1.952-0.095-3.903-0.143-5.855c-0.024-0.992-0.048-1.983-0.073-2.975  c0.947-0.023,1.894-0.046,2.84-0.07C220.043,78.081,219.966,74.923,219.888,71.765z" style="fill:none;stroke:red;stroke-width:0.0001px"/><path d="M196.406,319.563c0.46,0.122,0.939,0.238,1.437,0.349c2.938,0.654,6.569,1.111,9.74,1.445  c11.517-1.344,26.883-0.882,44.88,1.444c0.92,0.119,1.846,0.243,2.783,0.371c1.88-1.044,3.181-2.127,3.814-3.208  c1.286-2.199-0.194-4.391-1.704-5.58c-1.51-1.19-3.052-1.378-1.321-2.052c1.731-0.674,6.735-1.835,9.393-4.083  c2.658-2.248,2.97-5.585,2.628-7.637c-0.342-2.052-1.34-2.82-3.336-3.28c-1.996-0.459-4.991-0.61-7.8-0.381  c-2.809,0.229-5.432,0.836-14.995,0.616c-9.563-0.22-26.066-1.269-32.427-0.356c-6.362,0.913-2.582,3.788-2.723,5.183  c-0.141,1.395-4.201,1.312-10.009,0.285c-5.808-1.027-13.363-2.996-16.949-2.012c-0.915,0.251-1.571,0.694-2.014,1.261  c0.321,0.336,0.644,0.67,0.968,1.004c1.134,1.166,2.285,2.315,3.446,3.454c1.09,1.07,2.189,2.13,3.295,3.184  c1.956,1.864,3.932,3.706,5.928,5.527c1.641,1.498,3.296,2.982,4.956,4.459C196.399,319.557,196.402,319.56,196.406,319.563z" style="fill:none;stroke:red;stroke-width:0.0001px"/><path d="M196.406,319.563c0.46,0.122,0.939,0.238,1.437,0.349c2.938,0.654,6.569,1.111,9.74,1.445  c11.517-1.344,26.883-0.882,44.88,1.444c0.92,0.119,1.846,0.243,2.783,0.371c1.88-1.044,3.181-2.127,3.814-3.208  c1.286-2.199-0.194-4.391-1.704-5.58c-1.51-1.19-3.052-1.378-1.321-2.052c1.731-0.674,6.735-1.835,9.393-4.083  c2.658-2.248,2.97-5.585,2.628-7.637c-0.342-2.052-1.34-2.82-3.336-3.28c-1.996-0.459-4.991-0.61-7.8-0.381  c-2.809,0.229-5.432,0.836-14.995,0.616c-9.563-0.22-26.066-1.269-32.427-0.356c-6.362,0.913-2.582,3.788-2.723,5.183  c-0.141,1.395-4.201,1.312-10.009,0.285c-5.808-1.027-13.363-2.996-16.949-2.012c-0.915,0.251-1.571,0.694-2.014,1.261  c0.321,0.336,0.644,0.67,0.968,1.004c1.134,1.166,2.285,2.315,3.446,3.454c1.09,1.07,2.189,2.13,3.295,3.184  c1.956,1.864,3.932,3.706,5.928,5.527c1.641,1.498,3.296,2.982,4.956,4.459C196.399,319.557,196.402,319.56,196.406,319.563z" style="fill:none;stroke:red;stroke-width:0.0001px"/><path d="M190.403,353.459c-0.712-0.084-1.422-0.182-2.13-0.293c-0.82-0.129-1.637-0.275-2.448-0.45  c-0.654-0.141-1.304-0.301-1.947-0.487c-0.599-0.174-1.192-0.371-1.772-0.598c-0.554-0.217-1.098-0.461-1.625-0.736  c-0.512-0.267-1.009-0.563-1.487-0.888c-0.47-0.319-0.921-0.666-1.352-1.035c-0.388-0.332-0.76-0.682-1.118-1.044  c-0.322-0.325-0.633-0.661-0.937-1.003c-0.133,0.44-0.281,0.877-0.444,1.307c-0.076,0.199-0.155,0.398-0.237,0.594  c-0.098,0.234-0.202,0.465-0.31,0.694c-0.226,0.475-0.475,0.939-0.751,1.387c-0.328,0.534-0.694,1.045-1.101,1.522  c-0.379,0.444-0.793,0.858-1.243,1.23c-0.475,0.393-0.989,0.74-1.535,1.028c-0.284,0.15-0.577,0.284-0.877,0.401  c-0.308,0.12-0.622,0.222-0.942,0.306c-0.327,0.086-0.659,0.152-0.994,0.199c-0.333,0.047-0.669,0.075-1.005,0.087  c-0.332,0.012-0.664,0.007-0.996-0.011c-0.33-0.018-0.659-0.049-0.987-0.091c-0.328-0.043-0.654-0.097-0.979-0.162  c-0.631-0.125-1.254-0.287-1.868-0.478c-0.64-0.199-1.27-0.43-1.889-0.686c-0.619-0.256-1.227-0.537-1.824-0.841  c-0.589-0.3-1.166-0.622-1.73-0.966c-0.368-0.224-0.729-0.457-1.085-0.7c-0.516-0.352-1.018-0.724-1.502-1.12  c-0.507-0.415-0.994-0.857-1.448-1.329c-0.552-0.574-1.056-1.194-1.504-1.852c-0.194-0.285-0.377-0.576-0.549-0.874  c-0.147-0.253-0.286-0.51-0.419-0.77c-0.152-0.3-0.296-0.604-0.435-0.91c-0.262,0.041-0.526,0.074-0.791,0.097  c-0.31,0.028-0.621,0.044-0.932,0.046c-0.357,0.003-0.714-0.012-1.07-0.044c-0.332-0.03-0.664-0.074-0.992-0.131  c1.244,1.003,2.477,2.022,3.699,3.053c1.529,1.289,3.042,2.598,4.54,3.922c1.575,1.391,3.134,2.801,4.678,4.227  c1.582,1.462,3.148,2.942,4.695,4.441c1.533,1.486,3.048,2.991,4.54,4.518c1.077,1.103,2.142,2.219,3.192,3.348  c1.328,1.428,2.631,2.879,3.898,4.362c1.13,1.322,2.23,2.669,3.281,4.054c5.016,1.218,9.489,2.151,13.002,2.61  c17.079,2.232,11.444-6.72,4.434-18.064C193.544,358.792,191.91,356.139,190.403,353.459z" style="fill:none;stroke:red;stroke-width:0.0001px"/><path d="M190.403,353.459c-0.712-0.084-1.422-0.182-2.13-0.293c-0.82-0.129-1.637-0.275-2.448-0.45  c-0.654-0.141-1.304-0.301-1.947-0.487c-0.599-0.174-1.192-0.371-1.772-0.598c-0.554-0.217-1.098-0.461-1.625-0.736  c-0.512-0.267-1.009-0.563-1.487-0.888c-0.47-0.319-0.921-0.666-1.352-1.035c-0.388-0.332-0.76-0.682-1.118-1.044  c-0.322-0.325-0.633-0.661-0.937-1.003c-0.133,0.44-0.281,0.877-0.444,1.307c-0.076,0.199-0.155,0.398-0.237,0.594  c-0.098,0.234-0.202,0.465-0.31,0.694c-0.226,0.475-0.475,0.939-0.751,1.387c-0.328,0.534-0.694,1.045-1.101,1.522  c-0.379,0.444-0.793,0.858-1.243,1.23c-0.475,0.393-0.989,0.74-1.535,1.028c-0.284,0.15-0.577,0.284-0.877,0.401  c-0.308,0.12-0.622,0.222-0.942,0.306c-0.327,0.086-0.659,0.152-0.994,0.199c-0.333,0.047-0.669,0.075-1.005,0.087  c-0.332,0.012-0.664,0.007-0.996-0.011c-0.33-0.018-0.659-0.049-0.987-0.091c-0.328-0.043-0.654-0.097-0.979-0.162  c-0.631-0.125-1.254-0.287-1.868-0.478c-0.64-0.199-1.27-0.43-1.889-0.686c-0.619-0.256-1.227-0.537-1.824-0.841  c-0.589-0.3-1.166-0.622-1.73-0.966c-0.368-0.224-0.729-0.457-1.085-0.7c-0.516-0.352-1.018-0.724-1.502-1.12  c-0.507-0.415-0.994-0.857-1.448-1.329c-0.552-0.574-1.056-1.194-1.504-1.852c-0.194-0.285-0.377-0.576-0.549-0.874  c-0.147-0.253-0.286-0.51-0.419-0.77c-0.152-0.3-0.296-0.604-0.435-0.91c-0.262,0.041-0.526,0.074-0.791,0.097  c-0.31,0.028-0.621,0.044-0.932,0.046c-0.357,0.003-0.714-0.012-1.07-0.044c-0.332-0.03-0.664-0.074-0.992-0.131  c1.244,1.003,2.477,2.022,3.699,3.053c1.529,1.289,3.042,2.598,4.54,3.922c1.575,1.391,3.134,2.801,4.678,4.227  c1.582,1.462,3.148,2.942,4.695,4.441c1.533,1.486,3.048,2.991,4.54,4.518c1.077,1.103,2.142,2.219,3.192,3.348  c1.328,1.428,2.631,2.879,3.898,4.362c1.13,1.322,2.23,2.669,3.281,4.054c5.016,1.218,9.489,2.151,13.002,2.61  c17.079,2.232,11.444-6.72,4.434-18.064C193.544,358.792,191.91,356.139,190.403,353.459z" style="fill:none;stroke:red;stroke-width:0.0001px"/><path d="M64.293,295.01c0.924,0.985,1.851,1.969,2.779,2.951c2.65,2.804,5.314,5.594,7.995,8.368  c1.689,1.747,3.386,3.487,5.091,5.219c2.272,2.308,4.56,4.602,6.866,6.877c2.047,2.019,4.108,4.023,6.189,6.006  c1.824,1.738,3.662,3.461,5.52,5.163c1.623,1.486,3.261,2.957,4.919,4.404c1.434,1.252,2.882,2.487,4.35,3.698  c1.255,1.034,2.525,2.051,3.815,3.041c1.086,0.834,2.187,1.649,3.308,2.436c0.927,0.651,1.868,1.282,2.829,1.882  c0.412,0.257,0.828,0.509,1.249,0.752c0.375,0.217,0.753,0.428,1.136,0.632c0.338,0.18,0.679,0.354,1.024,0.519  c0.302,0.145,0.606,0.284,0.915,0.414c0.355,0.15,0.716,0.29,1.082,0.412c0.217,0.072,0.436,0.138,0.657,0.196  c0.183,0.048,0.367,0.09,0.552,0.124c0.149,0.027,0.299,0.049,0.449,0.064c0.117,0.011,0.235,0.018,0.353,0.018  c0.088,0,0.177-0.004,0.265-0.013c0.064-0.006,0.128-0.016,0.191-0.029c0.046-0.01,0.092-0.023,0.137-0.038  c0.035-0.012,0.07-0.026,0.104-0.042c0.065-0.031,0.127-0.071,0.185-0.115c0.066-0.051,0.128-0.107,0.183-0.17  c0.055-0.063,0.104-0.132,0.147-0.204c0.054-0.091,0.098-0.186,0.136-0.284c0.05-0.128,0.09-0.26,0.122-0.393  c0.04-0.166,0.07-0.334,0.093-0.503c0.016-0.116,0.028-0.233,0.038-0.349c0.018-0.215,0.028-0.431,0.032-0.647  c0.009-0.486-0.008-0.972-0.033-1.458c-0.029-0.566-0.069-1.131-0.091-1.698c-0.011-0.275-0.017-0.551-0.015-0.826  c0.001-0.143,0.004-0.286,0.01-0.429c0.007-0.15,0.016-0.299,0.03-0.448c0.015-0.158,0.035-0.316,0.061-0.473  c0.018-0.112,0.039-0.223,0.063-0.334c0.039-0.18,0.087-0.357,0.145-0.532c0.065-0.197,0.142-0.389,0.232-0.575  c0.103-0.212,0.223-0.416,0.359-0.608c0.152-0.214,0.326-0.414,0.517-0.594c0.204-0.192,0.428-0.361,0.668-0.505  c0.24-0.143,0.495-0.261,0.76-0.35c0.127-0.043,0.257-0.08,0.388-0.11c0.126-0.029,0.254-0.053,0.382-0.07  c0.24-0.033,0.482-0.045,0.724-0.039c0.047,0.001,0.093,0.003,0.14,0.005c-0.105-0.098-0.209-0.197-0.313-0.296  c-0.847-0.805-1.674-1.631-2.481-2.476c-0.807-0.845-1.593-1.71-2.359-2.592c-1.637-1.885-3.182-3.852-4.612-5.898  c-0.733-1.048-1.435-2.117-2.104-3.207c-0.668-1.09-1.302-2.202-1.894-3.335c-0.582-1.116-1.124-2.253-1.623-3.409  c-0.5-1.155-0.957-2.329-1.375-3.516c-0.791-2.246-1.44-4.542-1.952-6.867c-0.241-1.094-0.451-2.194-0.63-3.3  c-0.169-1.047-0.311-2.099-0.422-3.154c-0.104-0.986-0.182-1.976-0.231-2.966c-0.038-0.778-0.058-1.557-0.057-2.336  c0.001-0.842,0.028-1.684,0.086-2.524c0.052-0.752,0.129-1.502,0.244-2.247c0.062-0.399,0.134-0.797,0.221-1.192  c0.098-0.449,0.214-0.894,0.352-1.333c0.125-0.399,0.269-0.792,0.434-1.176c0.077-0.18,0.159-0.358,0.246-0.533  c0.083-0.168,0.171-0.334,0.263-0.497c0.173-0.305,0.361-0.601,0.566-0.885c0.16-0.222,0.331-0.437,0.512-0.642  c0.253-0.287,0.525-0.556,0.812-0.809c-0.1-0.171-0.202-0.341-0.304-0.511c-0.148-0.246-0.298-0.492-0.446-0.738  c-0.297-0.491-0.592-0.983-0.877-1.481c-0.319-0.558-0.624-1.123-0.91-1.699c-0.308-0.622-0.593-1.256-0.841-1.904  c-0.266-0.695-0.489-1.408-0.656-2.133c-0.178-0.773-0.292-1.561-0.342-2.353c-0.05-0.775-0.039-1.553,0.031-2.326  c0.069-0.761,0.197-1.516,0.382-2.258c0.182-0.73,0.42-1.447,0.715-2.139c0.291-0.684,0.637-1.344,1.038-1.969  c0.4-0.624,0.855-1.214,1.364-1.753c0.42-0.445,0.877-0.855,1.362-1.228c0.405-0.312,0.83-0.598,1.266-0.865  c0.391-0.239,0.79-0.463,1.195-0.676c0.323-0.17,0.648-0.333,0.975-0.496c0.276-0.138,0.553-0.275,0.827-0.417  c-0.083-0.143-0.168-0.286-0.252-0.428c-0.156-0.262-0.311-0.524-0.464-0.787c-0.147-0.255-0.291-0.511-0.431-0.77  c-0.198-0.369-0.387-0.743-0.561-1.124c-0.413-0.395-0.805-0.811-1.175-1.246c-0.509-0.599-0.976-1.234-1.398-1.896  c-0.395-0.62-0.75-1.264-1.068-1.926c-0.298-0.619-0.562-1.254-0.797-1.9c-0.218-0.6-0.411-1.21-0.583-1.825  c-0.155-0.559-0.293-1.122-0.417-1.688c-0.091-0.415-0.174-0.831-0.253-1.248c-0.035-0.187-0.07-0.374-0.104-0.561  c-0.342,0.249-0.689,0.492-1.043,0.724c-0.443,0.29-0.899,0.561-1.368,0.807c-0.611,0.321-1.245,0.598-1.897,0.823  c-0.356,0.122-0.718,0.229-1.084,0.318c-0.386,0.095-0.777,0.17-1.171,0.227c-0.85,0.123-1.713,0.157-2.57,0.108  c-0.953-0.055-1.898-0.213-2.823-0.451c-1.042-0.268-2.056-0.638-3.038-1.078c-0.538-0.241-1.066-0.504-1.585-0.785  c-0.548-0.296-1.085-0.613-1.611-0.947c-0.553-0.351-1.094-0.721-1.622-1.109c-0.552-0.405-1.091-0.829-1.615-1.271  c-1.11-0.935-2.154-1.949-3.121-3.031c-0.499-0.558-0.978-1.134-1.435-1.727c0.36,1.762,0.724,3.522,1.088,5.283  c0.481,2.333,0.961,4.667,1.419,7.005c0.437,2.231,0.855,4.465,1.244,6.704c0.365,2.102,0.705,4.209,1.006,6.321  c0.186,1.306,0.357,2.614,0.509,3.924c0.213,1.841,0.387,3.686,0.499,5.535c0.052,0.851,0.09,1.702,0.111,2.554  c0.02,0.803,0.024,1.606,0.008,2.41c-0.015,0.754-0.047,1.509-0.104,2.261c-0.053,0.707-0.128,1.412-0.231,2.113  c-0.108,0.735-0.247,1.465-0.429,2.185c-0.156,0.615-0.344,1.223-0.573,1.815c-0.223,0.575-0.486,1.135-0.798,1.668  c-0.312,0.532-0.672,1.037-1.085,1.495c-0.209,0.232-0.432,0.452-0.667,0.658c-0.239,0.209-0.491,0.404-0.755,0.581  c-0.534,0.358-1.115,0.646-1.724,0.852c-0.613,0.208-1.253,0.333-1.898,0.384c-0.317,0.025-0.635,0.032-0.953,0.024  c-0.305-0.008-0.61-0.029-0.913-0.06c-0.589-0.061-1.174-0.159-1.754-0.277c-0.286-0.058-0.57-0.12-0.854-0.186  c-0.281-0.065-0.56-0.132-0.84-0.2c-0.628-0.154-1.255-0.313-1.885-0.462c-0.528-0.125-1.058-0.243-1.592-0.342  c-0.501-0.094-1.005-0.171-1.512-0.221c-0.463-0.045-0.928-0.068-1.393-0.053c-0.418,0.013-0.837,0.056-1.246,0.142  c-0.385,0.08-0.763,0.197-1.123,0.356c-0.184,0.081-0.363,0.173-0.537,0.274c-0.186,0.108-0.366,0.228-0.538,0.357  c-0.19,0.142-0.372,0.296-0.545,0.458c-0.195,0.182-0.379,0.376-0.554,0.577c-0.2,0.23-0.387,0.471-0.563,0.719  c-0.202,0.285-0.391,0.579-0.568,0.88c-0.202,0.344-0.389,0.697-0.564,1.056c-0.199,0.408-0.382,0.824-0.552,1.245  c-0.193,0.476-0.369,0.958-0.532,1.444C64.686,293.601,64.479,294.303,64.293,295.01z" style="fill:none;stroke:red;stroke-width:0.0001px"/><path d="M64.293,295.01c0.924,0.985,1.851,1.969,2.779,2.951c2.65,2.804,5.314,5.594,7.995,8.368  c1.689,1.747,3.386,3.487,5.091,5.219c2.272,2.308,4.56,4.602,6.866,6.877c2.047,2.019,4.108,4.023,6.189,6.006  c1.824,1.738,3.662,3.461,5.52,5.163c1.623,1.486,3.261,2.957,4.919,4.404c1.434,1.252,2.882,2.487,4.35,3.698  c1.255,1.034,2.525,2.051,3.815,3.041c1.086,0.834,2.187,1.649,3.308,2.436c0.927,0.651,1.868,1.282,2.829,1.882  c0.412,0.257,0.828,0.509,1.249,0.752c0.375,0.217,0.753,0.428,1.136,0.632c0.338,0.18,0.679,0.354,1.024,0.519  c0.302,0.145,0.606,0.284,0.915,0.414c0.355,0.15,0.716,0.29,1.082,0.412c0.217,0.072,0.436,0.138,0.657,0.196  c0.183,0.048,0.367,0.09,0.552,0.124c0.149,0.027,0.299,0.049,0.449,0.064c0.117,0.011,0.235,0.018,0.353,0.018  c0.088,0,0.177-0.004,0.265-0.013c0.064-0.006,0.128-0.016,0.191-0.029c0.046-0.01,0.092-0.023,0.137-0.038  c0.035-0.012,0.07-0.026,0.104-0.042c0.065-0.031,0.127-0.071,0.185-0.115c0.066-0.051,0.128-0.107,0.183-0.17  c0.055-0.063,0.104-0.132,0.147-0.204c0.054-0.091,0.098-0.186,0.136-0.284c0.05-0.128,0.09-0.26,0.122-0.393  c0.04-0.166,0.07-0.334,0.093-0.503c0.016-0.116,0.028-0.233,0.038-0.349c0.018-0.215,0.028-0.431,0.032-0.647  c0.009-0.486-0.008-0.972-0.033-1.458c-0.029-0.566-0.069-1.131-0.091-1.698c-0.011-0.275-0.017-0.551-0.015-0.826  c0.001-0.143,0.004-0.286,0.01-0.429c0.007-0.15,0.016-0.299,0.03-0.448c0.015-0.158,0.035-0.316,0.061-0.473  c0.018-0.112,0.039-0.223,0.063-0.334c0.039-0.18,0.087-0.357,0.145-0.532c0.065-0.197,0.142-0.389,0.232-0.575  c0.103-0.212,0.223-0.416,0.359-0.608c0.152-0.214,0.326-0.414,0.517-0.594c0.204-0.192,0.428-0.361,0.668-0.505  c0.24-0.143,0.495-0.261,0.76-0.35c0.127-0.043,0.257-0.08,0.388-0.11c0.126-0.029,0.254-0.053,0.382-0.07  c0.24-0.033,0.482-0.045,0.724-0.039c0.047,0.001,0.093,0.003,0.14,0.005c-0.105-0.098-0.209-0.197-0.313-0.296  c-0.847-0.805-1.674-1.631-2.481-2.476c-0.807-0.845-1.593-1.71-2.359-2.592c-1.637-1.885-3.182-3.852-4.612-5.898  c-0.733-1.048-1.435-2.117-2.104-3.207c-0.668-1.09-1.302-2.202-1.894-3.335c-0.582-1.116-1.124-2.253-1.623-3.409  c-0.5-1.155-0.957-2.329-1.375-3.516c-0.791-2.246-1.44-4.542-1.952-6.867c-0.241-1.094-0.451-2.194-0.63-3.3  c-0.169-1.047-0.311-2.099-0.422-3.154c-0.104-0.986-0.182-1.976-0.231-2.966c-0.038-0.778-0.058-1.557-0.057-2.336  c0.001-0.842,0.028-1.684,0.086-2.524c0.052-0.752,0.129-1.502,0.244-2.247c0.062-0.399,0.134-0.797,0.221-1.192  c0.098-0.449,0.214-0.894,0.352-1.333c0.125-0.399,0.269-0.792,0.434-1.176c0.077-0.18,0.159-0.358,0.246-0.533  c0.083-0.168,0.171-0.334,0.263-0.497c0.173-0.305,0.361-0.601,0.566-0.885c0.16-0.222,0.331-0.437,0.512-0.642  c0.253-0.287,0.525-0.556,0.812-0.809c-0.1-0.171-0.202-0.341-0.304-0.511c-0.148-0.246-0.298-0.492-0.446-0.738  c-0.297-0.491-0.592-0.983-0.877-1.481c-0.319-0.558-0.624-1.123-0.91-1.699c-0.308-0.622-0.593-1.256-0.841-1.904  c-0.266-0.695-0.489-1.408-0.656-2.133c-0.178-0.773-0.292-1.561-0.342-2.353c-0.05-0.775-0.039-1.553,0.031-2.326  c0.069-0.761,0.197-1.516,0.382-2.258c0.182-0.73,0.42-1.447,0.715-2.139c0.291-0.684,0.637-1.344,1.038-1.969  c0.4-0.624,0.855-1.214,1.364-1.753c0.42-0.445,0.877-0.855,1.362-1.228c0.405-0.312,0.83-0.598,1.266-0.865  c0.391-0.239,0.79-0.463,1.195-0.676c0.323-0.17,0.648-0.333,0.975-0.496c0.276-0.138,0.553-0.275,0.827-0.417  c-0.083-0.143-0.168-0.286-0.252-0.428c-0.156-0.262-0.311-0.524-0.464-0.787c-0.147-0.255-0.291-0.511-0.431-0.77  c-0.198-0.369-0.387-0.743-0.561-1.124c-0.413-0.395-0.805-0.811-1.175-1.246c-0.509-0.599-0.976-1.234-1.398-1.896  c-0.395-0.62-0.75-1.264-1.068-1.926c-0.298-0.619-0.562-1.254-0.797-1.9c-0.218-0.6-0.411-1.21-0.583-1.825  c-0.155-0.559-0.293-1.122-0.417-1.688c-0.091-0.415-0.174-0.831-0.253-1.248c-0.035-0.187-0.07-0.374-0.104-0.561  c-0.342,0.249-0.689,0.492-1.043,0.724c-0.443,0.29-0.899,0.561-1.368,0.807c-0.611,0.321-1.245,0.598-1.897,0.823  c-0.356,0.122-0.718,0.229-1.084,0.318c-0.386,0.095-0.777,0.17-1.171,0.227c-0.85,0.123-1.713,0.157-2.57,0.108  c-0.953-0.055-1.898-0.213-2.823-0.451c-1.042-0.268-2.056-0.638-3.038-1.078c-0.538-0.241-1.066-0.504-1.585-0.785  c-0.548-0.296-1.085-0.613-1.611-0.947c-0.553-0.351-1.094-0.721-1.622-1.109c-0.552-0.405-1.091-0.829-1.615-1.271  c-1.11-0.935-2.154-1.949-3.121-3.031c-0.499-0.558-0.978-1.134-1.435-1.727c0.36,1.762,0.724,3.522,1.088,5.283  c0.481,2.333,0.961,4.667,1.419,7.005c0.437,2.231,0.855,4.465,1.244,6.704c0.365,2.102,0.705,4.209,1.006,6.321  c0.186,1.306,0.357,2.614,0.509,3.924c0.213,1.841,0.387,3.686,0.499,5.535c0.052,0.851,0.09,1.702,0.111,2.554  c0.02,0.803,0.024,1.606,0.008,2.41c-0.015,0.754-0.047,1.509-0.104,2.261c-0.053,0.707-0.128,1.412-0.231,2.113  c-0.108,0.735-0.247,1.465-0.429,2.185c-0.156,0.615-0.344,1.223-0.573,1.815c-0.223,0.575-0.486,1.135-0.798,1.668  c-0.312,0.532-0.672,1.037-1.085,1.495c-0.209,0.232-0.432,0.452-0.667,0.658c-0.239,0.209-0.491,0.404-0.755,0.581  c-0.534,0.358-1.115,0.646-1.724,0.852c-0.613,0.208-1.253,0.333-1.898,0.384c-0.317,0.025-0.635,0.032-0.953,0.024  c-0.305-0.008-0.61-0.029-0.913-0.06c-0.589-0.061-1.174-0.159-1.754-0.277c-0.286-0.058-0.57-0.12-0.854-0.186  c-0.281-0.065-0.56-0.132-0.84-0.2c-0.628-0.154-1.255-0.313-1.885-0.462c-0.528-0.125-1.058-0.243-1.592-0.342  c-0.501-0.094-1.005-0.171-1.512-0.221c-0.463-0.045-0.928-0.068-1.393-0.053c-0.418,0.013-0.837,0.056-1.246,0.142  c-0.385,0.08-0.763,0.197-1.123,0.356c-0.184,0.081-0.363,0.173-0.537,0.274c-0.186,0.108-0.366,0.228-0.538,0.357  c-0.19,0.142-0.372,0.296-0.545,0.458c-0.195,0.182-0.379,0.376-0.554,0.577c-0.2,0.23-0.387,0.471-0.563,0.719  c-0.202,0.285-0.391,0.579-0.568,0.88c-0.202,0.344-0.389,0.697-0.564,1.056c-0.199,0.408-0.382,0.824-0.552,1.245  c-0.193,0.476-0.369,0.958-0.532,1.444C64.686,293.601,64.479,294.303,64.293,295.01z" style="fill:none;stroke:red;stroke-width:0.0001px"/><path d="M260.957,313.835c0.26,0.345,0.496,0.708,0.701,1.088c0.183,0.339,0.341,0.69,0.471,1.053  c0.197,0.551,0.327,1.127,0.375,1.71c0.026,0.312,0.029,0.626,0.009,0.939c-0.021,0.324-0.068,0.647-0.139,0.965  c-0.073,0.326-0.173,0.646-0.296,0.957c-0.126,0.317-0.277,0.624-0.449,0.919c-0.172,0.293-0.364,0.574-0.573,0.842  c-0.207,0.265-0.429,0.518-0.664,0.759c-0.236,0.243-0.485,0.474-0.742,0.695c-0.011,0.01-0.022,0.019-0.034,0.029  c4.801,0.702,9.95,1.51,15.802,2.401c0.302-0.355,0.606-0.708,0.911-1.061c0.525-0.607,1.054-1.21,1.586-1.81  c1.093-1.233,2.199-2.455,3.314-3.669c1.196-1.302,2.403-2.595,3.616-3.882c1.966-2.085,3.95-4.153,5.944-6.211  c2.78-2.87,5.581-5.72,8.389-8.562c2.852-2.886,5.712-5.764,8.572-8.642c2.798-2.816,5.596-5.633,8.403-8.441  c1.475-1.475,2.952-2.948,4.435-4.415c-0.509-0.174-1.011-0.368-1.504-0.582c-0.799-0.348-1.574-0.754-2.311-1.221  c-0.497-0.315-0.977-0.659-1.433-1.031c-0.959-0.781-1.817-1.686-2.544-2.686c-0.385-0.53-0.734-1.086-1.047-1.661  c-0.329-0.606-0.618-1.233-0.869-1.875c-0.36-0.92-0.641-1.871-0.857-2.836c-0.362-1.617-0.541-3.271-0.596-4.927  c-0.038-1.12-0.019-2.242,0.039-3.361c0.052-1.021,0.137-2.041,0.243-3.059c0.114-1.091,0.253-2.179,0.409-3.265  c0.297-2.063,0.658-4.117,1.051-6.164c0.243-1.261,0.498-2.52,0.762-3.776c0.4-1.901,0.821-3.798,1.253-5.692  c0.643-2.821,1.31-5.636,1.981-8.45c0.844-3.536,1.694-7.071,2.524-10.61c0.744-3.17,1.471-6.344,2.165-9.526  c-25.85,15.92-31.984,22.165-35.277,26.732c-6.936,9.62-1.262,11.796,4.985,13.906c3.867,1.306,7.954,2.587-42.783,45.215  c0.836-0.007,1.672-0.023,2.507-0.051c0.675-0.023,1.349-0.054,2.023-0.096c0.541-0.034,1.082-0.075,1.622-0.123  c0.453-0.041,0.906-0.086,1.358-0.135c0.47-0.051,0.939-0.105,1.409-0.154c0.497-0.051,0.994-0.096,1.493-0.129  c0.833-0.056,1.669-0.081,2.504-0.077c0.667,0.003,1.334,0.024,2,0.065c0.391,0.024,0.781,0.056,1.171,0.096  c0.374,0.038,0.748,0.084,1.12,0.14c0.354,0.053,0.708,0.115,1.059,0.187c0.34,0.07,0.678,0.15,1.012,0.246  c0.341,0.098,0.678,0.213,1.006,0.349c0.201,0.084,0.399,0.176,0.592,0.276c0.169,0.088,0.335,0.184,0.496,0.286  c0.338,0.215,0.656,0.462,0.944,0.74c0.149,0.143,0.29,0.294,0.423,0.452c0.133,0.158,0.257,0.323,0.373,0.494  c0.228,0.338,0.421,0.699,0.579,1.075c0.154,0.365,0.276,0.744,0.371,1.129c0.047,0.191,0.088,0.383,0.123,0.576  c0.027,0.148,0.05,0.297,0.071,0.446c0.028,0.203,0.05,0.408,0.067,0.612c0.036,0.435,0.047,0.872,0.036,1.308  c-0.013,0.47-0.052,0.939-0.118,1.404c-0.071,0.499-0.174,0.993-0.309,1.479c-0.145,0.521-0.326,1.031-0.545,1.525  c-0.233,0.526-0.508,1.033-0.823,1.514c-0.334,0.509-0.713,0.99-1.131,1.433c-0.218,0.231-0.446,0.452-0.683,0.663  c-0.152,0.134-0.307,0.264-0.466,0.39c-0.252,0.199-0.512,0.387-0.778,0.566c-0.262,0.176-0.53,0.343-0.802,0.503  c-0.268,0.157-0.54,0.306-0.815,0.448c-0.456,0.236-0.921,0.455-1.392,0.661c-0.537,0.234-1.081,0.45-1.63,0.654  C261.418,313.671,261.188,313.754,260.957,313.835z" style="fill:none;stroke:red;stroke-width:0.0001px"/><path d="M260.957,313.835c0.26,0.345,0.496,0.708,0.701,1.088c0.183,0.339,0.341,0.69,0.471,1.053  c0.197,0.551,0.327,1.127,0.375,1.71c0.026,0.312,0.029,0.626,0.009,0.939c-0.021,0.324-0.068,0.647-0.139,0.965  c-0.073,0.326-0.173,0.646-0.296,0.957c-0.126,0.317-0.277,0.624-0.449,0.919c-0.172,0.293-0.364,0.574-0.573,0.842  c-0.207,0.265-0.429,0.518-0.664,0.759c-0.236,0.243-0.485,0.474-0.742,0.695c-0.011,0.01-0.022,0.019-0.034,0.029  c4.801,0.702,9.95,1.51,15.802,2.401c0.302-0.355,0.606-0.708,0.911-1.061c0.525-0.607,1.054-1.21,1.586-1.81  c1.093-1.233,2.199-2.455,3.314-3.669c1.196-1.302,2.403-2.595,3.616-3.882c1.966-2.085,3.95-4.153,5.944-6.211  c2.78-2.87,5.581-5.72,8.389-8.562c2.852-2.886,5.712-5.764,8.572-8.642c2.798-2.816,5.596-5.633,8.403-8.441  c1.475-1.475,2.952-2.948,4.435-4.415c-0.509-0.174-1.011-0.368-1.504-0.582c-0.799-0.348-1.574-0.754-2.311-1.221  c-0.497-0.315-0.977-0.659-1.433-1.031c-0.959-0.781-1.817-1.686-2.544-2.686c-0.385-0.53-0.734-1.086-1.047-1.661  c-0.329-0.606-0.618-1.233-0.869-1.875c-0.36-0.92-0.641-1.871-0.857-2.836c-0.362-1.617-0.541-3.271-0.596-4.927  c-0.038-1.12-0.019-2.242,0.039-3.361c0.052-1.021,0.137-2.041,0.243-3.059c0.114-1.091,0.253-2.179,0.409-3.265  c0.297-2.063,0.658-4.117,1.051-6.164c0.243-1.261,0.498-2.52,0.762-3.776c0.4-1.901,0.821-3.798,1.253-5.692  c0.643-2.821,1.31-5.636,1.981-8.45c0.844-3.536,1.694-7.071,2.524-10.61c0.744-3.17,1.471-6.344,2.165-9.526  c-25.85,15.92-31.984,22.165-35.277,26.732c-6.936,9.62-1.262,11.796,4.985,13.906c3.867,1.306,7.954,2.587-42.783,45.215  c0.836-0.007,1.672-0.023,2.507-0.051c0.675-0.023,1.349-0.054,2.023-0.096c0.541-0.034,1.082-0.075,1.622-0.123  c0.453-0.041,0.906-0.086,1.358-0.135c0.47-0.051,0.939-0.105,1.409-0.154c0.497-0.051,0.994-0.096,1.493-0.129  c0.833-0.056,1.669-0.081,2.504-0.077c0.667,0.003,1.334,0.024,2,0.065c0.391,0.024,0.781,0.056,1.171,0.096  c0.374,0.038,0.748,0.084,1.12,0.14c0.354,0.053,0.708,0.115,1.059,0.187c0.34,0.07,0.678,0.15,1.012,0.246  c0.341,0.098,0.678,0.213,1.006,0.349c0.201,0.084,0.399,0.176,0.592,0.276c0.169,0.088,0.335,0.184,0.496,0.286  c0.338,0.215,0.656,0.462,0.944,0.74c0.149,0.143,0.29,0.294,0.423,0.452c0.133,0.158,0.257,0.323,0.373,0.494  c0.228,0.338,0.421,0.699,0.579,1.075c0.154,0.365,0.276,0.744,0.371,1.129c0.047,0.191,0.088,0.383,0.123,0.576  c0.027,0.148,0.05,0.297,0.071,0.446c0.028,0.203,0.05,0.408,0.067,0.612c0.036,0.435,0.047,0.872,0.036,1.308  c-0.013,0.47-0.052,0.939-0.118,1.404c-0.071,0.499-0.174,0.993-0.309,1.479c-0.145,0.521-0.326,1.031-0.545,1.525  c-0.233,0.526-0.508,1.033-0.823,1.514c-0.334,0.509-0.713,0.99-1.131,1.433c-0.218,0.231-0.446,0.452-0.683,0.663  c-0.152,0.134-0.307,0.264-0.466,0.39c-0.252,0.199-0.512,0.387-0.778,0.566c-0.262,0.176-0.53,0.343-0.802,0.503  c-0.268,0.157-0.54,0.306-0.815,0.448c-0.456,0.236-0.921,0.455-1.392,0.661c-0.537,0.234-1.081,0.45-1.63,0.654  C261.418,313.671,261.188,313.754,260.957,313.835z" style="fill:none;stroke:red;stroke-width:0.0001px"/><path d="M348.383,280.305c1.775,2.807,5.388,7.104,3.633,11.773c-1.755,4.669-8.877,9.711-10.077,11.512  s3.522,0.363,6.992,2.213c3.471,1.85,5.69,6.989,2.452,12.909c-3.238,5.92-11.933,12.62-17.204,12.987  c-5.271,0.366-7.116-5.602-8.41-7.092c-1.293-1.49-2.034,1.498-8.243,5.104c-6.209,3.606-17.887,7.831-22.645,6.767  c-4.758-1.064-2.598-7.418-5.46-6.442s-10.747,9.28-15.668,12.1c-4.921,2.82-6.88,0.157-0.208-8.86  c6.672-9.017,21.973-24.388,36.399-38.906c14.426-14.518,27.977-28.185,35.298-33.039c7.32-4.854,8.41-0.896,7.62,2.828  c-0.79,3.724-3.461,7.214-4.828,9.618C346.669,276.181,346.607,277.498,348.383,280.305z" style="fill:none;stroke:red;stroke-width:0.0001px"/><path d="M348.383,280.305c1.775,2.807,5.388,7.104,3.633,11.773c-1.755,4.669-8.877,9.711-10.077,11.512  s3.522,0.363,6.992,2.213c3.471,1.85,5.69,6.989,2.452,12.909c-3.238,5.92-11.933,12.62-17.204,12.987  c-5.271,0.366-7.116-5.602-8.41-7.092c-1.293-1.49-2.034,1.498-8.243,5.104c-6.209,3.606-17.887,7.831-22.645,6.767  c-4.758-1.064-2.598-7.418-5.46-6.442s-10.747,9.28-15.668,12.1c-4.921,2.82-6.88,0.157-0.208-8.86  c6.672-9.017,21.973-24.388,36.399-38.906c14.426-14.518,27.977-28.185,35.298-33.039c7.32-4.854,8.41-0.896,7.62,2.828  c-0.79,3.724-3.461,7.214-4.828,9.618C346.669,276.181,346.607,277.498,348.383,280.305z" style="fill:none;stroke:red;stroke-width:0.0001px"/><path d="M90.927,376.107c3.118-4.992,10.956-6.017,15.085-7.642c9.725-3.828-1.137-10.984,13.328-7.854  c10.576,2.289,34.691,10.076,53.568,14.97c-10.852-13-30.872-30.315-38.499-34.9c-8.593-5.166-1.455,5.829-6.325,9.612  c-4.431,3.443-18.806,0.914-99.271-89.892c1.41,8.264,3.323,16.443,5.727,24.474c3.556,11.883,8.187,23.445,13.816,34.498  c5.675,11.142,12.366,21.768,19.961,31.701C75.155,360.016,82.725,368.397,90.927,376.107z" style="fill:none;stroke:red;stroke-width:0.0001px"/><path d="M90.927,376.107c3.118-4.992,10.956-6.017,15.085-7.642c9.725-3.828-1.137-10.984,13.328-7.854  c10.576,2.289,34.691,10.076,53.568,14.97c-10.852-13-30.872-30.315-38.499-34.9c-8.593-5.166-1.455,5.829-6.325,9.612  c-4.431,3.443-18.806,0.914-99.271-89.892c1.41,8.264,3.323,16.443,5.727,24.474c3.556,11.883,8.187,23.445,13.816,34.498  c5.675,11.142,12.366,21.768,19.961,31.701C75.155,360.016,82.725,368.397,90.927,376.107z" style="fill:none;stroke:red;stroke-width:0.0001px"/><path d="M188.658,350.214c-4.218-8.263-6.482-16.432-1.082-21.828c1.974-1.973,4.971-3.575,8.875-4.801  c-3.621-3.217-8.819-7.801-15.071-13.86c-7.02-6.804-15.37-15.469-23.974-29.091c-8.605-13.622-17.465-32.201-24.51-38.401  c-7.046-6.2-12.278-0.02-12.937,4.702c-0.659,4.722,3.254,7.986,3.246,9.867c-0.009,1.881-3.94,2.379-6.507,4.79  c-2.567,2.412-3.771,6.737-2.727,10.761c1.044,4.024,4.337,7.748,4.507,9.29c0.17,1.543-2.781,0.905-3.825,6.5  c-1.043,5.595-0.178,17.421,5.061,28.038c5.239,10.617,14.85,20.023,20.896,23.68c6.046,3.657,8.525,1.565,9.709,1.867  c1.184,0.302,1.073,2.999,3.967,5.802c2.894,2.804,8.792,5.714,12.589,5.092c3.796-0.622,5.49-4.776,6.182-7.755  c0.691-2.979,0.38-4.781,1.183-4.182c0.803,0.6,2.721,3.602,4.894,5.627c2.174,2.025,4.604,3.073,9.07,3.826  C188.353,350.165,188.504,350.189,188.658,350.214z" style="fill:none;stroke:red;stroke-width:0.0001px"/><path d="M188.658,350.214c-4.218-8.263-6.482-16.432-1.082-21.828c1.974-1.973,4.971-3.575,8.875-4.801  c-3.621-3.217-8.819-7.801-15.071-13.86c-7.02-6.804-15.37-15.469-23.974-29.091c-8.605-13.622-17.465-32.201-24.51-38.401  c-7.046-6.2-12.278-0.02-12.937,4.702c-0.659,4.722,3.254,7.986,3.246,9.867c-0.009,1.881-3.94,2.379-6.507,4.79  c-2.567,2.412-3.771,6.737-2.727,10.761c1.044,4.024,4.337,7.748,4.507,9.29c0.17,1.543-2.781,0.905-3.825,6.5  c-1.043,5.595-0.178,17.421,5.061,28.038c5.239,10.617,14.85,20.023,20.896,23.68c6.046,3.657,8.525,1.565,9.709,1.867  c1.184,0.302,1.073,2.999,3.967,5.802c2.894,2.804,8.792,5.714,12.589,5.092c3.796-0.622,5.49-4.776,6.182-7.755  c0.691-2.979,0.38-4.781,1.183-4.182c0.803,0.6,2.721,3.602,4.894,5.627c2.174,2.025,4.604,3.073,9.07,3.826  C188.353,350.165,188.504,350.189,188.658,350.214z" style="fill:none;stroke:red;stroke-width:0.0001px"/></g></svg>