<svg id="Layer_1" style="enable-background:new 0 0 200 200;" version="1.1" viewBox="0 0 200 200" x="0px" xml:space="preserve" xmlns="http://www.w3.org/2000/svg" xmlns:xlink="http://www.w3.org/1999/xlink" y="0px"><path d="M157.331,154.888c4.038-4.217,7.597-8.867,10.615-13.865c-1.478-0.573-2.983-1.158-4.522-1.752   c-2.902-1.12-5.886-2.318-9.009-3.566c-0.121-0.048-0.242-0.097-0.363-0.145c-2.454-0.98-4.959-2.01-7.569-3.042   c-1.624-0.642-3.276-1.288-4.977-1.939c-0.48-0.184-0.962-0.367-1.448-0.549c-2.977-1.117-6.027-2.223-9.292-3.311   c-0.303-0.101-0.609-0.202-0.917-0.303c-2.684-0.877-5.454-1.738-8.291-2.483c-2.294-0.603-4.62-1.109-6.977-1.413   c-3.702-0.477-7.277-0.399-10.726,0.205c-1.2,0.21-2.384,0.48-3.561,0.807c-1.399,0.388-2.76,0.844-4.087,1.375   c-1.665,0.667-3.246,1.458-4.759,2.39c-2.107,1.298-4.025,2.812-5.829,4.516c-1.816,1.716-3.489,3.592-5.054,5.612   c-0.732,0.945-1.437,1.918-2.117,2.915c-5.977,8.764-10.247,19.933-13.312,30.964c3.417,1.671,6.91,3.078,10.53,4.245   c0.156-0.468,0.314-0.936,0.476-1.402c0.765-2.201,1.604-4.377,2.532-6.516c0.85-1.961,1.774-3.89,2.783-5.773   c0.928-1.733,1.929-3.428,3.012-5.069c1.001-1.518,2.071-2.99,3.218-4.4c1.067-1.313,2.199-2.573,3.398-3.766   c1.124-1.118,2.308-2.176,3.549-3.162c1.173-0.932,2.397-1.798,3.668-2.591c1.21-0.754,2.461-1.441,3.749-2.053   c1.234-0.587,2.5-1.106,3.79-1.553c1.244-0.431,2.511-0.796,3.794-1.095c1.241-0.289,2.497-0.516,3.76-0.683   c2.413-0.318,4.854-0.415,7.287-0.318c2.275,0.091,4.542,0.352,6.783,0.757c1.058,0.191,2.111,0.414,3.155,0.673   c1.027,0.254,2.046,0.543,3.052,0.87c1.01,0.328,2.008,0.696,2.989,1.101c1.005,0.415,1.993,0.869,2.964,1.359   c1.012,0.511,2.005,1.06,2.98,1.641c1.034,0.616,2.047,1.267,3.041,1.945c1.072,0.73,2.123,1.492,3.157,2.275   c1.128,0.854,2.236,1.734,3.329,2.633c1.203,0.988,2.387,1.998,3.56,3.022C156.242,153.922,156.787,154.404,157.331,154.888z" style="fill:#8774E2;"/></svg>