<svg id="Layer_1" style="enable-background:new 0 0 200 200;" version="1.1" viewBox="0 0 200 200" x="0px" xml:space="preserve" xmlns="http://www.w3.org/2000/svg" xmlns:xlink="http://www.w3.org/1999/xlink" y="0px"><path d="M162.917,51.615c-3.504-4.556-7.492-8.719-11.895-12.414c-6.941,6.341-13.799,10.502-19.843,13.378   c-21.383,10.175-32.591,4.277-41.635,0.836c-9.045-3.441-15.927-4.424-28.068-0.049c-9.872,3.557-23.22,10.656-39.279,62.323   c1.296,6.427,3.383,12.668,6.214,18.582c0.981-3.365,2.006-6.717,3.088-10.05c0.875-2.696,1.786-5.379,2.743-8.047   c0.938-2.615,1.918-5.215,2.952-7.793c1-2.494,2.05-4.968,3.166-7.413c1.064-2.334,2.188-4.641,3.388-6.908   c0.393-0.742,0.793-1.479,1.203-2.212c0.901-1.614,1.842-3.206,2.839-4.763c0.807-1.261,1.65-2.498,2.533-3.707   c0.798-1.092,1.629-2.16,2.496-3.197c0.971-1.162,1.989-2.287,3.065-3.353c1.095-1.086,2.252-2.111,3.469-3.058   c0.311-0.242,0.626-0.479,0.945-0.711c0.462-0.335,0.932-0.659,1.41-0.97c0.943-0.613,1.918-1.176,2.918-1.69   c0.497-0.256,1.001-0.499,1.51-0.73c0.255-0.116,0.512-0.229,0.769-0.339c0.231-0.098,0.462-0.194,0.695-0.289   c0.812-0.33,1.633-0.638,2.461-0.927c0.822-0.287,1.65-0.554,2.484-0.805c0.381-0.115,0.763-0.226,1.146-0.333   c0.349-0.098,0.699-0.192,1.049-0.282c0.694-0.179,1.393-0.342,2.095-0.488c0.825-0.171,1.655-0.318,2.489-0.437   c1.004-0.142,2.013-0.243,3.025-0.297c1.013-0.055,2.028-0.064,3.041-0.025c1.034,0.039,2.065,0.128,3.091,0.262   c1.061,0.139,2.116,0.327,3.161,0.558c0.796,0.176,1.585,0.378,2.369,0.599c0.662,0.187,1.32,0.387,1.975,0.598   c1.276,0.41,2.54,0.858,3.801,1.313c0.785,0.284,1.57,0.57,2.357,0.848c0.73,0.258,1.463,0.508,2.2,0.746   c1.435,0.464,2.885,0.882,4.353,1.224c0.723,0.168,1.451,0.319,2.182,0.447c0.441,0.077,0.883,0.146,1.326,0.207   c0.456,0.063,0.914,0.118,1.372,0.164c0.899,0.091,1.801,0.15,2.704,0.178c0.887,0.027,1.774,0.024,2.66-0.007   c1.768-0.063,3.531-0.241,5.279-0.512c0.905-0.141,1.806-0.306,2.702-0.492c0.348-0.072,0.695-0.147,1.041-0.225   c1.002-0.226,1.998-0.479,2.988-0.755c0.988-0.276,1.969-0.574,2.944-0.893c0.629-0.205,1.256-0.419,1.879-0.641   c0.761-0.271,1.518-0.553,2.271-0.848c1.49-0.584,2.96-1.218,4.406-1.904c0.721-0.342,1.437-0.697,2.146-1.064   c0.196-0.101,0.391-0.204,0.585-0.307c0.171-0.09,0.341-0.182,0.511-0.273c1.754-0.949,3.469-1.971,5.136-3.066   c1.645-1.081,3.244-2.233,4.792-3.45c0.847-0.667,1.679-1.353,2.497-2.055c0.95-0.816,1.882-1.655,2.792-2.516   C161.589,52.939,162.259,52.283,162.917,51.615z" style="fill:#3EB0DD;"/><path d="M78.519,176.407c27.201,7.647,56.417,0.257,76.71-19.405c-11.448-10.2-18.303-14.169-27.428-15.985   C112.313,137.935,90.288,141.052,78.519,176.407z" style="fill:#E26D6A;"/><path d="M148.678,37.309c-12.347-9.588-27.251-15.316-42.841-16.465c-15.591-1.15-31.174,2.33-44.794,10.003   c-13.62,7.673-24.671,19.197-31.766,33.127c-7.096,13.93-9.92,29.645-8.118,45.174c0.539-1.646,1.09-3.289,1.655-4.927   c0.66-1.915,1.338-3.823,2.037-5.724c0.65-1.768,1.319-3.529,2.008-5.282c0.641-1.628,1.3-3.249,1.981-4.86   c1.216-2.88,2.502-5.731,3.88-8.537c0.614-1.249,1.246-2.489,1.9-3.717c0.605-1.136,1.229-2.262,1.875-3.376   c0.66-1.14,1.344-2.266,2.053-3.376c1.13-1.766,2.326-3.49,3.61-5.148c1.108-1.431,2.281-2.813,3.532-4.121   c1.085-1.135,2.229-2.214,3.438-3.216c1.057-0.876,2.162-1.694,3.315-2.439c1.021-0.661,2.078-1.265,3.165-1.811   c0.97-0.488,1.964-0.928,2.972-1.332c0.461-0.185,0.926-0.362,1.392-0.534c0.712-0.263,1.428-0.515,2.148-0.755   c1.612-0.538,3.243-1.019,4.896-1.414c1.486-0.355,2.989-0.639,4.504-0.831c1.403-0.177,2.816-0.274,4.23-0.276   c0.678-0.001,1.356,0.019,2.032,0.061c0.664,0.041,1.327,0.103,1.988,0.185c1.302,0.162,2.593,0.402,3.869,0.705   c1.288,0.306,2.561,0.678,3.819,1.091c0.648,0.213,1.292,0.437,1.933,0.67c0.657,0.239,1.311,0.487,1.963,0.74   c1.409,0.546,2.809,1.112,4.225,1.638c0.689,0.256,1.382,0.503,2.08,0.736c0.71,0.237,1.424,0.458,2.145,0.661   c0.743,0.209,1.491,0.397,2.245,0.561c0.79,0.171,1.586,0.316,2.386,0.432c0.841,0.122,1.687,0.211,2.535,0.268   c0.902,0.06,1.807,0.083,2.711,0.07c0.973-0.014,1.945-0.071,2.913-0.166c1.052-0.103,2.1-0.252,3.141-0.44   c1.141-0.206,2.273-0.46,3.394-0.755c1.227-0.322,2.441-0.693,3.641-1.104c1.327-0.454,2.637-0.957,3.93-1.499   c0.703-0.295,1.4-0.601,2.093-0.917c0.729-0.333,1.453-0.677,2.172-1.033c1.539-0.761,3.054-1.572,4.539-2.433   c1.618-0.938,3.202-1.936,4.747-2.99c1.678-1.145,3.311-2.358,4.895-3.631C146.352,39.352,147.53,38.347,148.678,37.309z" style="fill:#F25F89;"/></svg>