<svg xmlns="http://www.w3.org/2000/svg" xmlns:xlink="http://www.w3.org/1999/xlink" version="1.1" id="Layer_1" x="0px" y="0px" xml:space="preserve" width="32in" height="18in"><g transform="translate(41.42135623730951 41.42135623730951) rotate(-45 100.0 100.0)"><path style="fill:none;stroke:red;stroke-width:0.0001px" d="M139.2,31c-2.7-1.5-5.4-2.9-8.3-4.1C114,33.1,99.6,44.7,90,60c12.3,4.4,23.7,11.3,33.3,20.2  C133.2,65.7,138.7,48.6,139.2,31z"/><path style="fill:none;stroke:red;stroke-width:0.0001px" d="M139.2,31c-2.7-1.5-5.4-2.9-8.3-4.1C114,33.1,99.6,44.7,90,60c12.3,4.4,23.7,11.3,33.3,20.2  C133.2,65.7,138.7,48.6,139.2,31z"/><path style="fill:none;stroke:red;stroke-width:0.0001px" d="M139.2,31c-2.7-1.5-5.4-2.9-8.3-4.1C114,33.1,99.6,44.7,90,60c12.3,4.4,23.7,11.3,33.3,20.2  C133.2,65.7,138.7,48.6,139.2,31z"/><path style="fill:none;stroke:red;stroke-width:0.0001px" d="M139.2,31c-2.7-1.5-5.4-2.9-8.3-4.1C114,33.1,99.6,44.7,90,60c12.3,4.4,23.7,11.3,33.3,20.2  C133.2,65.7,138.7,48.6,139.2,31z"/><path style="fill:none;stroke:red;stroke-width:0.0001px" d="M139.2,31c-2.7-1.5-5.4-2.9-8.3-4.1C114,33.1,99.6,44.7,90,60c12.3,4.4,23.7,11.3,33.3,20.2  C133.2,65.7,138.7,48.6,139.2,31z"/></g></svg>