<svg xmlns="http://www.w3.org/2000/svg" xmlns:xlink="http://www.w3.org/1999/xlink" version="1.1" id="Layer_1" x="0px" y="0px" xml:space="preserve" width="32in" height="18in"><g transform="translate(41.42135623730951 41.42135623730951) rotate(-45 100.0 100.0)"><path style="fill:none;stroke:red;stroke-width:0.0001px" d="M78.4,93.2c9.1,3.3,18.7,5.1,28.3,5.4c5.6-4.7,10.6-10,14.8-15.9c-9.5-8.9-20.8-15.7-33.1-20  C83.1,72,79.7,82.4,78.4,93.2z"/><path style="fill:none;stroke:red;stroke-width:0.0001px" d="M78.4,93.2c9.1,3.3,18.7,5.1,28.3,5.4c5.6-4.7,10.6-10,14.8-15.9c-9.5-8.9-20.8-15.7-33.1-20  C83.1,72,79.7,82.4,78.4,93.2z"/><path style="fill:none;stroke:red;stroke-width:0.0001px" d="M78.4,93.2c9.1,3.3,18.7,5.1,28.3,5.4c5.6-4.7,10.6-10,14.8-15.9c-9.5-8.9-20.8-15.7-33.1-20  C83.1,72,79.7,82.4,78.4,93.2z"/><path style="fill:none;stroke:red;stroke-width:0.0001px" d="M78.4,93.2c9.1,3.3,18.7,5.1,28.3,5.4c5.6-4.7,10.6-10,14.8-15.9c-9.5-8.9-20.8-15.7-33.1-20  C83.1,72,79.7,82.4,78.4,93.2z"/><path style="fill:none;stroke:red;stroke-width:0.0001px" d="M78.4,93.2c9.1,3.3,18.7,5.1,28.3,5.4c5.6-4.7,10.6-10,14.8-15.9c-9.5-8.9-20.8-15.7-33.1-20  C83.1,72,79.7,82.4,78.4,93.2z"/></g></svg>