<svg xmlns="http://www.w3.org/2000/svg" xmlns:xlink="http://www.w3.org/1999/xlink" version="1.1" id="Layer_1" x="0px" y="0px" xml:space="preserve" width="32in" height="18in"><g transform="translate(41.42135623730951 41.42135623730951) rotate(-45 100.0 100.0)"><path style="fill:none;stroke:red;stroke-width:0.0001px" d="M174.2,71.8c-10.6,10.6-23.7,18.5-38,22.8c-3.2-4.4-6.7-8.5-10.7-12.4c10.1-14.6,15.8-31.8,16.6-49.6  C156.8,41.9,168,55.6,174.2,71.8z"/><path style="fill:none;stroke:red;stroke-width:0.0001px" d="M174.2,71.8c-10.6,10.6-23.7,18.5-38,22.8c-3.2-4.4-6.7-8.5-10.7-12.4c10.1-14.6,15.8-31.8,16.6-49.6  C156.8,41.9,168,55.6,174.2,71.8z"/><path style="fill:none;stroke:red;stroke-width:0.0001px" d="M174.2,71.8c-10.6,10.6-23.7,18.5-38,22.8c-3.2-4.4-6.7-8.5-10.7-12.4c10.1-14.6,15.8-31.8,16.6-49.6  C156.8,41.9,168,55.6,174.2,71.8z"/></g></svg>