<svg xmlns="http://www.w3.org/2000/svg" xmlns:xlink="http://www.w3.org/1999/xlink" version="1.1" id="Layer_1" x="0px" y="0px" xml:space="preserve" width="32in" height="18in"><g transform="translate(41.42135623730951 41.42135623730951) rotate(-45 100.0 100.0)"><path style="fill:none;stroke:red;stroke-width:0.0001px" d="M31.7,60.7c-0.2,0.1-0.5,0.1-0.7,0.2c-9.6,16.9-12.6,36.6-8.6,55.6c17.5,5.1,36.2,4.8,53.5-0.8  c-1.1-6.8-1.3-13.7-0.7-20.5C57.6,88.3,42.4,76.3,31.7,60.7z"/><path style="fill:none;stroke:red;stroke-width:0.0001px" d="M31.7,60.7c-0.2,0.1-0.5,0.1-0.7,0.2c-9.6,16.9-12.6,36.6-8.6,55.6c17.5,5.1,36.2,4.8,53.5-0.8  c-1.1-6.8-1.3-13.7-0.7-20.5C57.6,88.3,42.4,76.3,31.7,60.7z"/><path style="fill:none;stroke:red;stroke-width:0.0001px" d="M31.7,60.7c-0.2,0.1-0.5,0.1-0.7,0.2c-9.6,16.9-12.6,36.6-8.6,55.6c17.5,5.1,36.2,4.8,53.5-0.8  c-1.1-6.8-1.3-13.7-0.7-20.5C57.6,88.3,42.4,76.3,31.7,60.7z"/></g></svg>