<svg xmlns="http://www.w3.org/2000/svg" xmlns:xlink="http://www.w3.org/1999/xlink" version="1.1" id="Layer_1" x="0px" y="0px" xml:space="preserve" width="32in" height="18in"><g transform="translate(41.42135623730951 41.42135623730951) rotate(-45 100.0 100.0)"><path style="fill:none;stroke:red;stroke-width:0.0001px" d="M23.1,119.8c17.5,4.7,36,4.3,53.3-1.1c1.5,7.9,4.2,15.5,8,22.7c-10.2,7.2-16.2,19-15.9,31.5  C46,163.1,29.3,143.5,23.1,119.8z"/><path style="fill:none;stroke:red;stroke-width:0.0001px" d="M23.1,119.8c17.5,4.7,36,4.3,53.3-1.1c1.5,7.9,4.2,15.5,8,22.7c-10.2,7.2-16.2,19-15.9,31.5  C46,163.1,29.3,143.5,23.1,119.8z"/><path style="fill:none;stroke:red;stroke-width:0.0001px" d="M23.1,119.8c17.5,4.7,36,4.3,53.3-1.1c1.5,7.9,4.2,15.5,8,22.7c-10.2,7.2-16.2,19-15.9,31.5  C46,163.1,29.3,143.5,23.1,119.8z"/></g></svg>