<svg xmlns="http://www.w3.org/2000/svg" xmlns:xlink="http://www.w3.org/1999/xlink" version="1.1" id="Layer_1" x="0px" y="0px" xml:space="preserve" width="32in" height="18in"><g transform="translate(41.42135623730951 41.42135623730951) rotate(-45 100.0 100.0)"><path style="fill:none;stroke:red;stroke-width:0.0001px" d="M107.1,21V0H94.5v20.9c-6.8,0.5-13.6,1.8-20.1,4c-17,5.8-31.5,17.2-41.2,32.3  C51,52.7,69.7,53.4,87.1,59c9.3-15.2,23.2-27,39.7-33.7C120.4,23,113.8,21.6,107.1,21z"/><path style="fill:none;stroke:red;stroke-width:0.0001px" d="M107.1,21V0H94.5v20.9c-6.8,0.5-13.6,1.8-20.1,4c-17,5.8-31.5,17.2-41.2,32.3  C51,52.7,69.7,53.4,87.1,59c9.3-15.2,23.2-27,39.7-33.7C120.4,23,113.8,21.6,107.1,21z"/><path style="fill:none;stroke:red;stroke-width:0.0001px" d="M107.1,21V0H94.5v20.9c-6.8,0.5-13.6,1.8-20.1,4c-17,5.8-31.5,17.2-41.2,32.3  C51,52.7,69.7,53.4,87.1,59c9.3-15.2,23.2-27,39.7-33.7C120.4,23,113.8,21.6,107.1,21z"/><path style="fill:none;stroke:red;stroke-width:0.0001px" d="M107.1,21V0H94.5v20.9c-6.8,0.5-13.6,1.8-20.1,4c-17,5.8-31.5,17.2-41.2,32.3  C51,52.7,69.7,53.4,87.1,59c9.3-15.2,23.2-27,39.7-33.7C120.4,23,113.8,21.6,107.1,21z"/><path style="fill:none;stroke:red;stroke-width:0.0001px" d="M124.2,175.6c5.6-1.8,11-4.2,16.1-7.2c-1.2-11.7-8.3-22-18.9-27.3s-23-4.8-33.1,1.2  C96.5,156.9,109.1,168.5,124.2,175.6z"/><path style="fill:none;stroke:red;stroke-width:0.0001px" d="M124.2,175.6c5.6-1.8,11-4.2,16.1-7.2c-1.2-11.7-8.3-22-18.9-27.3s-23-4.8-33.1,1.2  C96.5,156.9,109.1,168.5,124.2,175.6z"/><path style="fill:none;stroke:red;stroke-width:0.0001px" d="M124.2,175.6c5.6-1.8,11-4.2,16.1-7.2c-1.2-11.7-8.3-22-18.9-27.3s-23-4.8-33.1,1.2  C96.5,156.9,109.1,168.5,124.2,175.6z"/><path style="fill:none;stroke:red;stroke-width:0.0001px" d="M124.2,175.6c5.6-1.8,11-4.2,16.1-7.2c-1.2-11.7-8.3-22-18.9-27.3s-23-4.8-33.1,1.2  C96.5,156.9,109.1,168.5,124.2,175.6z"/><path style="fill:none;stroke:red;stroke-width:0.0001px" d="M103.2,101.4c-8.6-0.6-17-2.3-25.1-5.2c-0.5,6.2-0.3,12.4,0.7,18.5  C87.5,111.5,95.8,107.1,103.2,101.4z"/><path style="fill:none;stroke:red;stroke-width:0.0001px" d="M103.2,101.4c-8.6-0.6-17-2.3-25.1-5.2c-0.5,6.2-0.3,12.4,0.7,18.5  C87.5,111.5,95.8,107.1,103.2,101.4z"/><path style="fill:none;stroke:red;stroke-width:0.0001px" d="M103.2,101.4c-8.6-0.6-17-2.3-25.1-5.2c-0.5,6.2-0.3,12.4,0.7,18.5  C87.5,111.5,95.8,107.1,103.2,101.4z"/><path style="fill:none;stroke:red;stroke-width:0.0001px" d="M103.2,101.4c-8.6-0.6-17-2.3-25.1-5.2c-0.5,6.2-0.3,12.4,0.7,18.5  C87.5,111.5,95.8,107.1,103.2,101.4z"/><path style="fill:none;stroke:red;stroke-width:0.0001px" d="M175.3,74.9c4.8,14.3,5.4,29.7,1.7,44.3c-3.6,14.6-11.4,27.9-22.3,38.3c1.2-21.4-4.7-42.6-16.7-60.3  C152,92.8,164.8,85.1,175.3,74.9z"/><path style="fill:none;stroke:red;stroke-width:0.0001px" d="M175.3,74.9c4.8,14.3,5.4,29.7,1.7,44.3c-3.6,14.6-11.4,27.9-22.3,38.3c1.2-21.4-4.7-42.6-16.7-60.3  C152,92.8,164.8,85.1,175.3,74.9z"/><path style="fill:none;stroke:red;stroke-width:0.0001px" d="M175.3,74.9c4.8,14.3,5.4,29.7,1.7,44.3c-3.6,14.6-11.4,27.9-22.3,38.3c1.2-21.4-4.7-42.6-16.7-60.3  C152,92.8,164.8,85.1,175.3,74.9z"/><path style="fill:none;stroke:red;stroke-width:0.0001px" d="M175.3,74.9c4.8,14.3,5.4,29.7,1.7,44.3c-3.6,14.6-11.4,27.9-22.3,38.3c1.2-21.4-4.7-42.6-16.7-60.3  C152,92.8,164.8,85.1,175.3,74.9z"/></g></svg>