<svg id="Layer_1" style="enable-background:new 0 0 841.89 595.276;" version="1.1" viewBox="0 0 841.89 595.276" x="0px" xml:space="preserve" xmlns="http://www.w3.org/2000/svg" xmlns:xlink="http://www.w3.org/1999/xlink" y="0px"><path d="M711.255,427.064c-1.488,0-2.976,0-4.464,0c-0.457-1.399-1.281-2.649-2.387-3.62  c-0.673-0.435-1.345-0.869-2.018-1.304c-4.454-2.025-9.68,0.272-11.198,4.923c-0.655,0-1.311,0-1.966,0  c-1.348-1.784-3.014-4.292-5.079-7.738c0.441-0.066,0.868-0.226,1.248-0.459c0.284-0.174,0.542-0.388,0.781-0.621  c0.125-0.122,0.245-0.249,0.363-0.379c0.285-0.313,0.557-0.638,0.821-0.969c0.407-0.51,0.794-1.035,1.267-1.485  c0.148-0.141,0.304-0.274,0.48-0.377c0.089-0.052,0.182-0.096,0.277-0.136c0.28-0.118,0.573-0.201,0.865-0.284  c0.229-0.065,0.458-0.13,0.687-0.197c0.445-0.13,0.888-0.269,1.325-0.427c0.644-0.233,1.274-0.506,1.885-0.816  c0.529-0.268,1.045-0.563,1.544-0.883c0.823-0.526,1.604-1.12,2.304-1.803c0.787-0.767,1.472-1.647,1.937-2.639  c0.377-0.807,0.608-1.687,0.663-2.577c1.463,2.924,2.513,5.341,3.231,7.338c1.038,2.403,2.075,4.806,3.113,7.209  C708.774,422.85,710.175,425.185,711.255,427.064z" style="fill:none;stroke:red;stroke-width:0.0001px"/><path d="M670.493,321.838c-0.926-0.948-2.289-2.416-4.299-4.079c-2.602-1.984-7.978-6.112-17.997-12.496  c0.018,0.095,0.034,0.19,0.049,0.286c0.037,0.243,0.062,0.488,0.076,0.733c0.029,0.512,0.006,1.028-0.07,1.535  c-0.075,0.497-0.2,0.986-0.372,1.459c-0.155,0.427-0.347,0.84-0.569,1.236c-0.037,0.066-0.075,0.132-0.114,0.197  c-0.267,0.448-0.801,1.173-1.139,1.571c-0.078,0.092-0.157,0.184-0.237,0.274c-0.453,0.512-0.933,0.998-1.418,1.479  c-0.093,0.093-0.187,0.185-0.281,0.277c3.08,2.043,6.143,4.111,9.182,6.214c2.801,1.939,5.582,3.907,8.329,5.922  c1.906,1.398,3.797,2.819,5.661,4.273c0.967,0.754,1.927,1.517,2.877,2.293c0.846,0.691,1.684,1.391,2.512,2.104  c0.169,0.145,0.337,0.291,0.504,0.437c0.618,0.32,1.135,0.58,1.582,0.793c1.2,0.572,1.898,0.803,2.111,0.646  c2.079-1.44,1.019-3.846-0.125-6.279C675.611,328.281,674.383,325.822,670.493,321.838z" style="fill:none;stroke:red;stroke-width:0.0001px"/><path d="M679.416,358.199c-0.287-7.036-3.148-12.03-4.945-14.361c-4.282-4.782-14.527-12.984-34.106-25.927  c-0.195,0.184-0.389,0.369-0.583,0.553c-0.669,0.635-1.336,1.27-2,1.91c-0.532,0.513-1.061,1.028-1.584,1.55  c-0.37,0.37-0.737,0.743-1.092,1.127c-0.119,0.128-0.236,0.257-0.35,0.389c-0.05,0.058-0.1,0.116-0.149,0.175  c-0.031,0.038-0.062,0.076-0.092,0.115c0.019,0.292,0.046,0.583,0.072,0.874c0.024,0.263,0.048,0.525,0.068,0.788  c0.012,0.153,0.023,0.306,0.033,0.46c0.041,0.634,0.06,1.611,0.023,2.246c-0.005,0.095-0.012,0.191-0.019,0.286  c-0.032,0.411-0.083,0.821-0.156,1.227c-0.081,0.45-0.19,0.895-0.33,1.33c-0.153,0.476-0.343,0.939-0.569,1.385  c-0.224,0.441-0.483,0.865-0.773,1.266c-0.281,0.389-0.591,0.757-0.926,1.101c-0.324,0.332-0.671,0.642-1.038,0.927  c-0.321,0.25-0.656,0.481-1.004,0.692c10.858,5.96,29.268,13.878,38.994,18.015c9.241,3.931,10.642,4.448,10.523,3.768" style="fill:none;stroke:red;stroke-width:0.0001px"/><path d="M598.689,323.662c0.089,0.409,0.167,0.82,0.23,1.233c0.078,0.51,0.135,1.024,0.164,1.54  c0.015,0.263,0.022,0.527,0.022,0.791c0,0.265-0.008,0.53-0.025,0.794c-0.032,0.521-0.095,1.04-0.192,1.553  c-0.188,0.995-0.501,1.966-0.927,2.883c-0.203,0.437-0.433,0.863-0.684,1.275c-0.241,0.394-0.501,0.776-0.78,1.145  c-0.267,0.354-0.55,0.696-0.846,1.027c-0.395,0.442-0.813,0.865-1.248,1.268c-0.64,0.593-1.317,1.146-2.028,1.652  c-0.535,0.381-1.089,0.735-1.66,1.06c-0.398,0.226-0.804,0.438-1.218,0.634c-0.424,0.2-0.857,0.383-1.297,0.546  c-0.378,0.14-0.762,0.265-1.15,0.374c5.543,4.436,11.57,8.784,18.08,13.045c0.289-0.259,0.582-0.514,0.883-0.76  c0.271-0.221,0.548-0.434,0.835-0.634c0.321-0.223,0.655-0.428,1.001-0.61c0.364-0.192,0.742-0.358,1.129-0.498  c0.363-0.13,0.734-0.237,1.109-0.324c0.337-0.078,0.677-0.14,1.019-0.191c0.327-0.048,0.656-0.086,0.985-0.116  c0.244-0.022,0.488-0.04,0.732-0.054c0.324-0.018,0.648-0.029,0.972-0.033c0.32-0.004,0.641-0.003,0.961,0.006  c0.316,0.009,0.631,0.024,0.946,0.046c0.423,0.031,0.845,0.075,1.264,0.14c0.164,0.025,0.327,0.054,0.489,0.086  c0.175,0.035,0.35,0.074,0.523,0.119c0.185,0.048,0.369,0.104,0.551,0.166c0.114,0.039,0.228,0.081,0.34,0.125  c0.13,0.052,0.259,0.109,0.386,0.169c0.15,0.072,0.297,0.149,0.441,0.233c0.171,0.1,0.337,0.209,0.498,0.326  c0.192,0.141,0.376,0.293,0.549,0.457c0.331,0.314,0.623,0.67,0.866,1.056c0.178,0.284,0.33,0.585,0.453,0.897  c0.126,0.322,0.221,0.656,0.283,0.996c0.056,0.308,0.085,0.622,0.087,0.936c0.333-0.141,0.674-0.26,1.021-0.36  c0.313-0.09,0.63-0.164,0.949-0.226c0.316-0.062,0.635-0.113,0.954-0.156c0.52-0.071,1.042-0.122,1.564-0.175  c0.456-0.047,0.912-0.095,1.368-0.15c0.327-0.04,0.654-0.084,0.98-0.134c0.148-0.023,0.296-0.046,0.444-0.072  c0.204-0.289,0.399-0.584,0.592-0.881c0.358-0.552,0.708-1.11,1.055-1.669c0.443-0.715,0.881-1.433,1.316-2.152  c0.701-1.16,1.396-2.324,2.086-3.49c0.387-0.654,0.773-1.309,1.157-1.965c0.073-0.125,0.146-0.249,0.219-0.374  c-0.914-0.445-1.826-0.895-2.735-1.349c-1.158-0.58-2.312-1.169-3.459-1.77c-1.064-0.558-2.122-1.126-3.172-1.711  c-0.95-0.53-1.893-1.072-2.823-1.637c-0.449-0.272-0.897-0.545-1.346-0.817c-0.565-0.051-1.128-0.137-1.684-0.25  c-1.023-0.209-2.024-0.511-3.003-0.874c-0.693-0.257-1.375-0.544-2.048-0.85c-0.473-0.215-0.941-0.439-1.405-0.672  c-0.695-0.349-1.381-0.717-2.054-1.108c-0.894-0.519-1.765-1.077-2.618-1.66c-0.91-0.621-1.8-1.27-2.679-1.935  c-1.164-0.881-2.306-1.79-3.437-2.713C601.988,326.492,600.329,325.088,598.689,323.662z" style="fill:none;stroke:red;stroke-width:0.0001px"/><path d="M602.014,284.186c0.039,0.245,0.064,0.493,0.075,0.741c0.009,0.21,0.008,0.42-0.003,0.629  c-0.011,0.209-0.032,0.417-0.062,0.624c-0.041,0.282-0.1,0.562-0.175,0.837c-0.104,0.379-0.239,0.749-0.4,1.107  c-0.153,0.34-0.329,0.669-0.523,0.986c-0.188,0.306-0.393,0.602-0.611,0.888c-0.217,0.285-0.448,0.56-0.687,0.827  c-0.232,0.259-0.472,0.51-0.717,0.757c-0.244,0.245-0.492,0.486-0.743,0.723c-0.254,0.24-0.51,0.477-0.767,0.714  c-0.648,0.593-1.303,1.178-1.955,1.767c-0.503,0.455-1.002,0.914-1.492,1.383c-0.849,0.814-1.666,1.66-2.436,2.548  c-0.326,0.375-0.643,0.758-0.948,1.151c-0.243,0.313-0.477,0.632-0.698,0.961c-0.073,0.109-0.145,0.22-0.213,0.332  c-0.046,0.076-0.09,0.152-0.132,0.23c-0.017,0.033-0.034,0.066-0.05,0.099c0.004,0.022,0.008,0.045,0.013,0.067  c0.022,0.108,0.05,0.215,0.081,0.321c0.048,0.166,0.102,0.33,0.16,0.492c0.075,0.213,0.156,0.423,0.24,0.633  c0.153,0.38,0.317,0.757,0.486,1.13c0.285,0.633,0.583,1.26,0.884,1.886c0.503,1.049,1.012,2.094,1.517,3.142  c0.664,1.378,1.321,2.76,1.958,4.151c4.892,4.598,9.381,8.46,12.724,11.156c4.782,3.857,7.221,5.326,9.663,6.507  c2.442,1.18,4.888,2.07,7.105,1.915c2.216-0.155,4.203-1.355,4.946-3.184c0.743-1.828,0.242-4.284,0.177-5.935  c-0.065-1.651,0.307-2.497,2.558-4.811c2.251-2.314,6.38-6.096,8.782-8.475c2.402-2.379,3.077-3.353,1.968-5.562  c-1.108-2.209-4-5.651-5.761-7.777c-1.761-2.126-2.391-2.936-8.055-5.693C623.711,288.915,614.234,284.729,602.014,284.186z" style="fill:none;stroke:red;stroke-width:0.0001px"/><path d="M540.669,282.113c-2.122,0.564-5.096,2.034-7.557,3.656c-2.461,1.623-4.411,3.399-5.919,5.256  c-1.509,1.857-2.576,3.796-2.862,4.799c-0.286,1.003,0.211,1.071,2.107,0.951c1.896-0.12,5.191-0.429,9.217-0.819  c4.026-0.39,8.782-0.861,11.726-1.271c2.944-0.41,4.078-0.757,4.646-1.65c0.568-0.893,0.571-2.331,0.426-3.342  c-0.145-1.011-0.437-1.596-1.648-2.767c-1.211-1.172-3.341-2.931-5.042-3.982C544.063,281.892,542.792,281.549,540.669,282.113z" style="fill:none;stroke:red;stroke-width:0.0001px"/><path d="M743.835,391.443c0,3.489,0,6.979,0,10.468c-2.02,0.378-3.825,1.501-5.057,3.146  c-2.058-0.832-4.174-1.607-6.312-2.295c-8.759-2.815-17.888-4.158-27.447-5.62c-9.559-1.463-19.549-3.046-28.886-5.155  c-9.337-2.109-18.02-4.744-24.477-6.052c-6.458-1.308-10.69-1.289-14.851-0.434c-4.161,0.855-8.252,2.548-11.572,3.479  c-3.32,0.931-5.869,1.1-7.901,1.358c-2.032,0.258-3.546,0.605-8.11,2.739c-4.565,2.135-12.18,6.058-17.689,8.995  c-5.509,2.938-8.91,4.89-10.885,6.231c-1.975,1.341-2.522,2.071-3.99,1.255c-1.469-0.816-3.859-3.178-5.77-5.381  s-3.343-4.245-3.834-6.081c-0.491-1.836-0.039-3.464,0.142-4.76c0.156-1.121,0.111-1.993,5.554-3.868  c0.057,0.187,0.12,0.372,0.186,0.556c0.391,1.074,0.939,2.086,1.592,3.024c0.604,0.866,1.298,1.667,2.057,2.402  c0.722,0.699,1.503,1.337,2.336,1.898c0.776,0.522,1.597,0.978,2.452,1.357c0.74,0.328,1.505,0.597,2.289,0.796  c0.368,0.093,0.74,0.171,1.116,0.228c0.359,0.054,0.72,0.09,1.083,0.1c0.221,0.006,0.443,0.003,0.664-0.011  c0.131-0.008,0.261-0.021,0.392-0.037c0.154-0.019,0.307-0.044,0.459-0.075c0.189-0.038,0.375-0.086,0.559-0.143  c0.169-0.053,0.335-0.114,0.498-0.183c0.292-0.124,0.572-0.272,0.838-0.444c0.334-0.217,0.642-0.472,0.918-0.759  c0.293-0.304,0.548-0.644,0.759-1.01c0.226-0.392,0.4-0.813,0.516-1.25c0.056-0.21,0.099-0.424,0.128-0.64  c0.027-0.201,0.043-0.404,0.047-0.607c0.006-0.35-0.023-0.7-0.086-1.045c-0.05-0.268-0.12-0.532-0.211-0.789  c-0.109-0.312-0.247-0.614-0.411-0.9c-0.118-0.206-0.249-0.404-0.391-0.594c-0.092-0.124-0.189-0.244-0.29-0.361  c-0.122-0.142-0.25-0.28-0.38-0.415c-0.112-0.117-0.226-0.231-0.336-0.349c0.01-0.124,0.029-0.248,0.055-0.37  c0.039-0.189,0.093-0.374,0.154-0.557c0.081-0.241,0.176-0.478,0.283-0.709c0.159-0.345,0.344-0.678,0.543-1.002  c0.258-0.42,0.541-0.824,0.839-1.217c0.361-0.477,0.744-0.936,1.14-1.385c0.466-0.528,0.95-1.04,1.444-1.541  c0.968-0.983,1.975-1.925,3.001-2.846c1.573-1.414,3.189-2.779,4.822-4.123c1.457-1.2,2.926-2.385,4.402-3.562  c1.112-0.887,2.227-1.771,3.343-2.652c1.762-1.392,3.528-2.78,5.29-4.172c0.186-0.147,0.372-0.294,0.558-0.441  c0.281-0.103,0.555-0.203,0.825-0.298c-0.063,0.191-0.123,0.383-0.179,0.577c-0.069,0.239-0.133,0.48-0.189,0.723  c-0.06,0.255-0.112,0.511-0.155,0.769c-0.095,0.572-0.143,1.152-0.137,1.731c0.006,0.563,0.064,1.125,0.173,1.677  c0.106,0.534,0.261,1.059,0.468,1.563c0.101,0.246,0.214,0.488,0.34,0.722c0.136,0.252,0.286,0.497,0.452,0.73  c0.118,0.166,0.244,0.326,0.377,0.481c0.125,0.144,0.255,0.282,0.393,0.414c0.165,0.158,0.339,0.306,0.522,0.443  c0.23,0.172,0.472,0.327,0.726,0.461c0.227,0.12,0.463,0.224,0.705,0.31c0.201,0.072,0.407,0.132,0.616,0.179  c0.239,0.054,0.481,0.092,0.725,0.112c0.273,0.023,0.548,0.024,0.822,0.004c0.237-0.018,0.472-0.051,0.704-0.101  c0.082,0.6,0.196,1.196,0.344,1.783c0.136,0.539,0.302,1.071,0.493,1.593c0.165,0.452,0.349,0.897,0.547,1.336  c0.175,0.387,0.361,0.768,0.558,1.144c0.166,0.319,0.34,0.634,0.521,0.944c0.086,0.148,0.174,0.294,0.264,0.439  c0.123,0.199,0.25,0.397,0.382,0.59c0.04,0.058,0.08,0.115,0.121,0.172c0.059,0.081,0.119,0.161,0.182,0.238  c0.061,0.076,0.123,0.15,0.188,0.222c0.077,0.087,0.157,0.172,0.24,0.254c0.118,0.116,0.241,0.227,0.37,0.331  c0.104,0.085,0.211,0.165,0.321,0.242c0.152,0.105,0.309,0.203,0.472,0.291c0.105,0.057,0.212,0.11,0.321,0.16  c0.13,0.059,0.262,0.114,0.396,0.162c0.161,0.058,0.325,0.106,0.49,0.147c0.128,0.032,0.257,0.058,0.387,0.08  c0.226,0.038,0.454,0.06,0.683,0.067c0.264,0.008,0.529-0.005,0.792-0.038c0.29-0.036,0.577-0.098,0.856-0.184  c0.292-0.09,0.576-0.206,0.848-0.346c0.267-0.138,0.522-0.3,0.76-0.484c0.413-0.317,0.777-0.699,1.074-1.126  c0.079-0.113,0.153-0.23,0.223-0.349c0.094-0.16,0.179-0.325,0.254-0.495c0.063-0.142,0.118-0.286,0.168-0.433  c0.041-0.122,0.078-0.245,0.11-0.37c0.049-0.192,0.087-0.387,0.113-0.584c0.019-0.141,0.032-0.283,0.04-0.425  c0.005-0.106,0.008-0.212,0.006-0.318c-0.001-0.117-0.006-0.234-0.015-0.351c-0.01-0.123-0.024-0.246-0.041-0.369  c-0.01-0.066-0.02-0.132-0.032-0.197c-0.009-0.051-0.02-0.102-0.031-0.153c-0.031-0.148-0.067-0.295-0.105-0.441  c-0.05-0.193-0.102-0.386-0.148-0.581c-0.043-0.185-0.081-0.372-0.112-0.559c-0.032-0.191-0.059-0.383-0.082-0.575  c-0.025-0.213-0.046-0.426-0.06-0.639c-0.015-0.216-0.023-0.433-0.024-0.649c-0.001-0.186,0.004-0.373,0.017-0.558  c0.009-0.135,0.023-0.27,0.046-0.403c0.016-0.092,0.036-0.183,0.062-0.272c0.028-0.095,0.063-0.187,0.102-0.278  c0.06-0.14,0.13-0.275,0.205-0.407c0.116-0.206,0.243-0.406,0.375-0.603c0.189-0.281,0.389-0.554,0.592-0.825  c0.267-0.354,0.542-0.702,0.819-1.049c0.437-0.547,0.881-1.089,1.323-1.632c0.35-0.43,0.698-0.861,1.042-1.295  c0.347-0.437,0.689-0.878,1.022-1.326c0.197-0.266,0.391-0.534,0.581-0.805c0.298-0.428,0.584-0.864,0.858-1.308  c0.252-0.408,0.493-0.823,0.726-1.243c0.148-0.267,0.292-0.536,0.433-0.806c0.201-0.385,0.397-0.773,0.592-1.162  c0.166-0.33,0.333-0.661,0.5-0.991c3.513-0.992,5.333-2.718,7.144-3.912c2.379-1.568,4.743-2.217,7.278-1.771  c2.535,0.446,5.243,1.986,11.221,4.442c5.978,2.456,15.228,5.828,21.127,7.853c5.9,2.025,8.45,2.703,13.47,3.079  c5.02,0.376,12.51,0.449,17.431,0.251c4.921-0.198,7.274-0.666,9.96-0.038c2.217,0.518,4.662,1.784,9.891,4.633  c-2.994,1.702-4.608,5.092-4.04,8.489C737.819,388.128,740.449,390.809,743.835,391.443z" style="fill:none;stroke:red;stroke-width:0.0001px"/><path d="M543.149,278.077c5.194-4.253,8.763-5.217,11.825-5.908c3.892-0.879,6.966-1.318,10.342-0.845  c3.376,0.473,7.055,1.859,11.076,3.615c4.022,1.756,8.386,3.882,11.647,5.349c3.26,1.467,5.417,2.276,6.732,2.829  c1.315,0.553,1.787,0.851,2.068,1.391s0.372,1.322-0.795,2.702c-1.167,1.381-3.591,3.36-5.64,5.329  c-2.049,1.969-3.724,3.927-4.768,5.494c-1.044,1.567-1.455,2.743-1.14,4.428c0.316,1.684,1.36,3.877,2.672,6.59  c1.312,2.713,2.891,5.946,4.259,9.123c1.367,3.177,2.523,6.299,2.598,8.781c0.075,2.481-0.929,4.322-2.55,5.983  c-1.621,1.66-3.859,3.141-6.08,3.684c-2.221,0.543-4.426,0.149-7.352-0.861s-6.575-2.637-9.404-4.241  c-2.829-1.604-4.838-3.186-6.666-5.299c-1.828-2.113-3.473-4.756-4.633-7.308c-1.16-2.552-1.834-5.012-2.215-6.848  c-0.381-1.836-0.468-3.048-1.234-5.211c-0.596-1.684-1.604-3.944-4.619-7.502c0.354-0.088,0.704-0.189,1.048-0.308  c0.244-0.084,0.484-0.178,0.72-0.282c0.258-0.114,0.511-0.24,0.756-0.381c0.267-0.152,0.524-0.321,0.77-0.505  c0.26-0.195,0.507-0.408,0.738-0.638c0.232-0.23,0.447-0.478,0.644-0.739c0.095-0.126,0.186-0.256,0.273-0.388  c0.067-0.103,0.132-0.207,0.194-0.313c0.073-0.126,0.143-0.254,0.209-0.383c0.121-0.24,0.229-0.486,0.324-0.738  c0.086-0.229,0.162-0.461,0.228-0.697c0.116-0.414,0.201-0.836,0.259-1.262c0.05-0.372,0.079-0.746,0.09-1.121  c0.01-0.337,0.005-0.674-0.013-1.011c-0.014-0.263-0.037-0.525-0.068-0.787c0.282,0.136,0.573,0.253,0.87,0.351  c0.308,0.101,0.623,0.182,0.941,0.241c0.311,0.058,0.626,0.095,0.941,0.112c0.307,0.016,0.615,0.014,0.921-0.008  c0.588-0.041,1.171-0.151,1.735-0.324c0.538-0.165,1.059-0.386,1.553-0.656c0.478-0.261,0.931-0.568,1.354-0.911  c0.388-0.315,0.751-0.66,1.088-1.028c0.32-0.35,0.618-0.72,0.89-1.109c0.277-0.397,0.528-0.812,0.744-1.245  c0.135-0.271,0.257-0.549,0.362-0.832c0.105-0.283,0.194-0.572,0.264-0.866c0.083-0.351,0.139-0.708,0.165-1.068  c0.029-0.412,0.018-0.827-0.035-1.237c-0.058-0.444-0.165-0.882-0.319-1.303c-0.155-0.42-0.357-0.823-0.601-1.198  c-0.224-0.344-0.482-0.664-0.77-0.957c-0.248-0.252-0.518-0.483-0.804-0.691c-0.242-0.176-0.495-0.335-0.758-0.479  c-0.163-0.089-0.329-0.172-0.498-0.25c-0.21-0.096-0.423-0.183-0.64-0.262c-0.193-0.07-0.389-0.134-0.586-0.192  c-0.193-0.057-0.386-0.11-0.581-0.158c-0.411-0.1-0.826-0.179-1.245-0.236c-0.464-0.063-0.931-0.099-1.399-0.104  c-0.259-0.003-0.518,0.004-0.776,0.022c-0.282,0.019-0.562,0.052-0.841,0.097c-0.309,0.05-0.616,0.117-0.918,0.203  c-0.339,0.097-0.671,0.218-0.993,0.361c-0.669,0.298-1.292,0.699-1.841,1.183c-0.261,0.23-0.506,0.479-0.731,0.745  c-0.218,0.256-0.417,0.526-0.598,0.809c-0.345,0.54-0.619,1.124-0.817,1.734c-0.192,0.591-0.311,1.205-0.354,1.825  c-0.012,0.17-0.018,0.339-0.018,0.509c-0.554-0.482-1.121-0.948-1.699-1.399c-0.348-0.271-0.7-0.537-1.058-0.796  c-0.359-0.259-0.723-0.512-1.094-0.754c-0.379-0.247-0.764-0.483-1.159-0.702c-0.211-0.117-0.425-0.228-0.642-0.333  c-0.229-0.11-0.461-0.213-0.696-0.308c-0.51-0.205-1.036-0.372-1.573-0.491C543.2,278.088,543.174,278.082,543.149,278.077z" style="fill:none;stroke:red;stroke-width:0.0001px"/><path d="M605.661,360.843c-3.576,3.162-10.284,8.74-13.892,11.683c-3.608,2.943-4.115,3.252-5.099,3.34  c-0.985,0.088-2.447-0.044-3.619,0.57c-1.172,0.614-2.054,1.973-3.251,3.876c-1.198,1.903-2.711,4.35-2.389,6.785  c0.322,2.434,2.479,4.855,4.601,6.205c2.122,1.35,4.209,1.629,4.512,1.363c0.303-0.266-1.178-1.078-1.771-2.568  c-0.594-1.49-0.3-3.658,0.774-5.871c1.074-2.214,2.929-4.473,5.507-7.007c2.577-2.534,5.876-5.341,10.253-8.867  c4.377-3.526,9.833-7.77,12.906-10.23c3.073-2.46,3.764-3.136,2.689-3.494c-1.075-0.358-3.915-0.398-5.557-0.045  C609.682,356.935,609.237,357.681,605.661,360.843z" style="fill:none;stroke:red;stroke-width:0.0001px"/><path d="M644.836,349.315c-0.351,0.6-0.8,1.345-1.383,2.358c-1.146,1.988-2.814,5.008-3.963,7.246  c-1.15,2.238-1.781,3.693-3.148,5.607c-1.366,1.914-3.468,4.288-4.796,6.105c-1.328,1.817-1.883,3.077-2.072,4.6  c-0.189,1.523-0.012,3.309,0.227,4.521c0.239,1.213,0.54,1.852,0.175,1.314c-0.366-0.538-1.398-2.254-1.917-4.043  c-0.518-1.789-0.522-3.652-0.361-5.368c0.161-1.716,0.488-3.285,0.762-4.4c0.274-1.115,0.494-1.776,0.015-2.102  s-1.659-0.314-2.948,0.12c-1.289,0.434-2.689,1.29-3.255,2.565c-0.565,1.275-0.297,2.969-0.554,3.281  c-0.257,0.312-1.04-0.757-0.959-2.304c0.081-1.547,1.025-3.571,1.743-4.881c0.718-1.31,1.21-1.905,2.028-2.245  c0.817-0.34,1.96-0.425,3.305-0.564c1.345-0.14,2.891-0.335,3.891-0.596c0.999-0.261,1.451-0.588,3.062-3.088  c1.611-2.5,4.38-7.174,5.835-9.665c0.074-0.127,0.145-0.248,0.212-0.363C642.097,348.053,643.466,348.687,644.836,349.315z" style="fill:none;stroke:red;stroke-width:0.0001px"/></svg>