<svg height="18in" id="Layer_1" version="1.1" width="32in" x="0px" xml:space="preserve" xmlns="http://www.w3.org/2000/svg" xmlns:xlink="http://www.w3.org/1999/xlink" y="0px"><g transform="translate(41.42135623730951 41.42135623730951) rotate(0 100.0 100.0)"><path d="M78.519,176.407c27.201,7.647,56.417,0.257,76.71-19.405c-11.448-10.2-18.303-14.169-27.428-15.985   C112.313,137.935,90.288,141.052,78.519,176.407z" style="fill:none;stroke:red;stroke-width:0.0001px"/><path d="M78.519,176.407c27.201,7.647,56.417,0.257,76.71-19.405c-11.448-10.2-18.303-14.169-27.428-15.985   C112.313,137.935,90.288,141.052,78.519,176.407z" style="fill:none;stroke:red;stroke-width:0.0001px"/><path d="M78.519,176.407c27.201,7.647,56.417,0.257,76.71-19.405c-11.448-10.2-18.303-14.169-27.428-15.985   C112.313,137.935,90.288,141.052,78.519,176.407z" style="fill:none;stroke:red;stroke-width:0.0001px"/><path d="M78.519,176.407c27.201,7.647,56.417,0.257,76.71-19.405c-11.448-10.2-18.303-14.169-27.428-15.985   C112.313,137.935,90.288,141.052,78.519,176.407z" style="fill:none;stroke:red;stroke-width:0.0001px"/><path d="M78.519,176.407c27.201,7.647,56.417,0.257,76.71-19.405c-11.448-10.2-18.303-14.169-27.428-15.985   C112.313,137.935,90.288,141.052,78.519,176.407z" style="fill:none;stroke:red;stroke-width:0.0001px"/></g></svg>