<svg height="18in" id="Layer_1" version="1.1" width="32in" x="0px" xml:space="preserve" xmlns="http://www.w3.org/2000/svg" xmlns:xlink="http://www.w3.org/1999/xlink" y="0px"><g transform="translate(41.42135623730951 41.42135623730951) rotate(0 100.0 100.0)"><path d="M155.156,132.796c3.109,1.242,6.216,2.493,9.34,3.699c1.653,0.638,3.305,1.281,4.958,1.921   c4.913-8.883,8.077-18.625,9.319-28.7c-1.74,0.463-3.538,0.889-5.4,1.266c-0.031,0.006-0.062,0.013-0.094,0.019   c-3.517,0.708-7.233,1.218-11.31,1.579c-3.17,0.281-6.48,0.382-10.024,0.337c-0.137-0.002-0.275-0.004-0.413-0.006   c-2.79-0.043-5.66-0.219-8.673-0.476c-1.874-0.16-3.778-0.359-5.742-0.61c-0.554-0.071-1.111-0.145-1.673-0.222   c-3.445-0.475-6.953-1.117-10.666-2.016c-0.345-0.083-0.692-0.169-1.041-0.257c-3.043-0.766-6.074-1.702-9.16-2.628   c-2.495-0.748-5.002-1.449-7.574-1.898c-4.039-0.705-7.828-0.679-11.582-0.019c-1.305,0.229-2.607,0.533-3.919,0.905   c-1.559,0.442-3.081,0.955-4.567,1.559c-1.866,0.758-3.618,1.669-5.287,2.771c-2.325,1.534-4.377,3.325-6.298,5.335   c-1.933,2.024-3.682,4.205-5.306,6.522c-0.76,1.085-1.49,2.197-2.196,3.332c-6.701,10.78-11.638,24.926-15.227,38.468   c3.127,2.326,6.38,4.395,9.813,6.239c0.009-0.032,0.018-0.063,0.027-0.095c0.612-2.169,1.266-4.326,1.968-6.467   c0.784-2.389,1.628-4.759,2.544-7.101c0.909-2.323,1.889-4.619,2.956-6.874c1.047-2.214,2.177-4.389,3.409-6.505   c0.604-1.038,1.233-2.062,1.89-3.069c0.362-0.555,0.732-1.105,1.111-1.65c0.936-1.345,1.922-2.655,2.964-3.919   c0.896-1.087,1.834-2.14,2.816-3.15c0.49-0.505,0.99-0.998,1.502-1.481c0.509-0.48,1.03-0.948,1.562-1.403   c1.068-0.912,2.182-1.769,3.343-2.559c0.548-0.373,1.106-0.731,1.674-1.072c0.44-0.264,0.885-0.518,1.337-0.762   c0.903-0.488,1.828-0.934,2.771-1.338c0.429-0.184,0.862-0.36,1.298-0.527c0.38-0.146,0.763-0.287,1.147-0.422   c0.771-0.27,1.549-0.518,2.334-0.744c0.684-0.197,1.373-0.377,2.066-0.539c0.673-0.157,1.349-0.298,2.03-0.42   c1.889-0.338,3.804-0.53,5.722-0.576c2.058-0.049,4.119,0.07,6.16,0.336c1.319,0.172,2.63,0.406,3.931,0.681   c0.642,0.136,1.281,0.282,1.918,0.437c0.668,0.162,1.334,0.335,1.998,0.514c1.514,0.407,3.019,0.847,4.517,1.309   c0.732,0.226,1.463,0.457,2.193,0.691c0.423,0.136,0.844,0.273,1.266,0.411c0.165,0.054,0.329,0.108,0.494,0.162   c0.082,0.027,0.163,0.054,0.245,0.081c0.609,0.203,1.217,0.408,1.825,0.616c1.664,0.57,3.32,1.16,4.972,1.764   c0.8,0.293,1.6,0.589,2.398,0.888c0.208,0.078,0.416,0.156,0.624,0.234c0.258,0.098,0.516,0.195,0.774,0.294   c0.605,0.231,1.209,0.463,1.813,0.697c0.878,0.34,1.756,0.683,2.633,1.028c0.509,0.2,1.018,0.401,1.526,0.603   c0.682,0.271,1.364,0.544,2.045,0.818C151.877,131.472,153.514,132.14,155.156,132.796z" style="fill:none;stroke:red;stroke-width:0.0001px"/><path d="M155.156,132.796c3.109,1.242,6.216,2.493,9.34,3.699c1.653,0.638,3.305,1.281,4.958,1.921   c4.913-8.883,8.077-18.625,9.319-28.7c-1.74,0.463-3.538,0.889-5.4,1.266c-0.031,0.006-0.062,0.013-0.094,0.019   c-3.517,0.708-7.233,1.218-11.31,1.579c-3.17,0.281-6.48,0.382-10.024,0.337c-0.137-0.002-0.275-0.004-0.413-0.006   c-2.79-0.043-5.66-0.219-8.673-0.476c-1.874-0.16-3.778-0.359-5.742-0.61c-0.554-0.071-1.111-0.145-1.673-0.222   c-3.445-0.475-6.953-1.117-10.666-2.016c-0.345-0.083-0.692-0.169-1.041-0.257c-3.043-0.766-6.074-1.702-9.16-2.628   c-2.495-0.748-5.002-1.449-7.574-1.898c-4.039-0.705-7.828-0.679-11.582-0.019c-1.305,0.229-2.607,0.533-3.919,0.905   c-1.559,0.442-3.081,0.955-4.567,1.559c-1.866,0.758-3.618,1.669-5.287,2.771c-2.325,1.534-4.377,3.325-6.298,5.335   c-1.933,2.024-3.682,4.205-5.306,6.522c-0.76,1.085-1.49,2.197-2.196,3.332c-6.701,10.78-11.638,24.926-15.227,38.468   c3.127,2.326,6.38,4.395,9.813,6.239c0.009-0.032,0.018-0.063,0.027-0.095c0.612-2.169,1.266-4.326,1.968-6.467   c0.784-2.389,1.628-4.759,2.544-7.101c0.909-2.323,1.889-4.619,2.956-6.874c1.047-2.214,2.177-4.389,3.409-6.505   c0.604-1.038,1.233-2.062,1.89-3.069c0.362-0.555,0.732-1.105,1.111-1.65c0.936-1.345,1.922-2.655,2.964-3.919   c0.896-1.087,1.834-2.14,2.816-3.15c0.49-0.505,0.99-0.998,1.502-1.481c0.509-0.48,1.03-0.948,1.562-1.403   c1.068-0.912,2.182-1.769,3.343-2.559c0.548-0.373,1.106-0.731,1.674-1.072c0.44-0.264,0.885-0.518,1.337-0.762   c0.903-0.488,1.828-0.934,2.771-1.338c0.429-0.184,0.862-0.36,1.298-0.527c0.38-0.146,0.763-0.287,1.147-0.422   c0.771-0.27,1.549-0.518,2.334-0.744c0.684-0.197,1.373-0.377,2.066-0.539c0.673-0.157,1.349-0.298,2.03-0.42   c1.889-0.338,3.804-0.53,5.722-0.576c2.058-0.049,4.119,0.07,6.16,0.336c1.319,0.172,2.63,0.406,3.931,0.681   c0.642,0.136,1.281,0.282,1.918,0.437c0.668,0.162,1.334,0.335,1.998,0.514c1.514,0.407,3.019,0.847,4.517,1.309   c0.732,0.226,1.463,0.457,2.193,0.691c0.423,0.136,0.844,0.273,1.266,0.411c0.165,0.054,0.329,0.108,0.494,0.162   c0.082,0.027,0.163,0.054,0.245,0.081c0.609,0.203,1.217,0.408,1.825,0.616c1.664,0.57,3.32,1.16,4.972,1.764   c0.8,0.293,1.6,0.589,2.398,0.888c0.208,0.078,0.416,0.156,0.624,0.234c0.258,0.098,0.516,0.195,0.774,0.294   c0.605,0.231,1.209,0.463,1.813,0.697c0.878,0.34,1.756,0.683,2.633,1.028c0.509,0.2,1.018,0.401,1.526,0.603   c0.682,0.271,1.364,0.544,2.045,0.818C151.877,131.472,153.514,132.14,155.156,132.796z" style="fill:none;stroke:red;stroke-width:0.0001px"/><path d="M155.156,132.796c3.109,1.242,6.216,2.493,9.34,3.699c1.653,0.638,3.305,1.281,4.958,1.921   c4.913-8.883,8.077-18.625,9.319-28.7c-1.74,0.463-3.538,0.889-5.4,1.266c-0.031,0.006-0.062,0.013-0.094,0.019   c-3.517,0.708-7.233,1.218-11.31,1.579c-3.17,0.281-6.48,0.382-10.024,0.337c-0.137-0.002-0.275-0.004-0.413-0.006   c-2.79-0.043-5.66-0.219-8.673-0.476c-1.874-0.16-3.778-0.359-5.742-0.61c-0.554-0.071-1.111-0.145-1.673-0.222   c-3.445-0.475-6.953-1.117-10.666-2.016c-0.345-0.083-0.692-0.169-1.041-0.257c-3.043-0.766-6.074-1.702-9.16-2.628   c-2.495-0.748-5.002-1.449-7.574-1.898c-4.039-0.705-7.828-0.679-11.582-0.019c-1.305,0.229-2.607,0.533-3.919,0.905   c-1.559,0.442-3.081,0.955-4.567,1.559c-1.866,0.758-3.618,1.669-5.287,2.771c-2.325,1.534-4.377,3.325-6.298,5.335   c-1.933,2.024-3.682,4.205-5.306,6.522c-0.76,1.085-1.49,2.197-2.196,3.332c-6.701,10.78-11.638,24.926-15.227,38.468   c3.127,2.326,6.38,4.395,9.813,6.239c0.009-0.032,0.018-0.063,0.027-0.095c0.612-2.169,1.266-4.326,1.968-6.467   c0.784-2.389,1.628-4.759,2.544-7.101c0.909-2.323,1.889-4.619,2.956-6.874c1.047-2.214,2.177-4.389,3.409-6.505   c0.604-1.038,1.233-2.062,1.89-3.069c0.362-0.555,0.732-1.105,1.111-1.65c0.936-1.345,1.922-2.655,2.964-3.919   c0.896-1.087,1.834-2.14,2.816-3.15c0.49-0.505,0.99-0.998,1.502-1.481c0.509-0.48,1.03-0.948,1.562-1.403   c1.068-0.912,2.182-1.769,3.343-2.559c0.548-0.373,1.106-0.731,1.674-1.072c0.44-0.264,0.885-0.518,1.337-0.762   c0.903-0.488,1.828-0.934,2.771-1.338c0.429-0.184,0.862-0.36,1.298-0.527c0.38-0.146,0.763-0.287,1.147-0.422   c0.771-0.27,1.549-0.518,2.334-0.744c0.684-0.197,1.373-0.377,2.066-0.539c0.673-0.157,1.349-0.298,2.03-0.42   c1.889-0.338,3.804-0.53,5.722-0.576c2.058-0.049,4.119,0.07,6.16,0.336c1.319,0.172,2.63,0.406,3.931,0.681   c0.642,0.136,1.281,0.282,1.918,0.437c0.668,0.162,1.334,0.335,1.998,0.514c1.514,0.407,3.019,0.847,4.517,1.309   c0.732,0.226,1.463,0.457,2.193,0.691c0.423,0.136,0.844,0.273,1.266,0.411c0.165,0.054,0.329,0.108,0.494,0.162   c0.082,0.027,0.163,0.054,0.245,0.081c0.609,0.203,1.217,0.408,1.825,0.616c1.664,0.57,3.32,1.16,4.972,1.764   c0.8,0.293,1.6,0.589,2.398,0.888c0.208,0.078,0.416,0.156,0.624,0.234c0.258,0.098,0.516,0.195,0.774,0.294   c0.605,0.231,1.209,0.463,1.813,0.697c0.878,0.34,1.756,0.683,2.633,1.028c0.509,0.2,1.018,0.401,1.526,0.603   c0.682,0.271,1.364,0.544,2.045,0.818C151.877,131.472,153.514,132.14,155.156,132.796z" style="fill:none;stroke:red;stroke-width:0.0001px"/><path d="M157.331,154.888c4.038-4.217,7.597-8.867,10.615-13.865c-1.478-0.573-2.983-1.158-4.522-1.752   c-2.902-1.12-5.886-2.318-9.009-3.566c-0.121-0.048-0.242-0.097-0.363-0.145c-2.454-0.98-4.959-2.01-7.569-3.042   c-1.624-0.642-3.276-1.288-4.977-1.939c-0.48-0.184-0.962-0.367-1.448-0.549c-2.977-1.117-6.027-2.223-9.292-3.311   c-0.303-0.101-0.609-0.202-0.917-0.303c-2.684-0.877-5.454-1.738-8.291-2.483c-2.294-0.603-4.62-1.109-6.977-1.413   c-3.702-0.477-7.277-0.399-10.726,0.205c-1.2,0.21-2.384,0.48-3.561,0.807c-1.399,0.388-2.76,0.844-4.087,1.375   c-1.665,0.667-3.246,1.458-4.759,2.39c-2.107,1.298-4.025,2.812-5.829,4.516c-1.816,1.716-3.489,3.592-5.054,5.612   c-0.732,0.945-1.437,1.918-2.117,2.915c-5.977,8.764-10.247,19.933-13.312,30.964c3.417,1.671,6.91,3.078,10.53,4.245   c0.156-0.468,0.314-0.936,0.476-1.402c0.765-2.201,1.604-4.377,2.532-6.516c0.85-1.961,1.774-3.89,2.783-5.773   c0.928-1.733,1.929-3.428,3.012-5.069c1.001-1.518,2.071-2.99,3.218-4.4c1.067-1.313,2.199-2.573,3.398-3.766   c1.124-1.118,2.308-2.176,3.549-3.162c1.173-0.932,2.397-1.798,3.668-2.591c1.21-0.754,2.461-1.441,3.749-2.053   c1.234-0.587,2.5-1.106,3.79-1.553c1.244-0.431,2.511-0.796,3.794-1.095c1.241-0.289,2.497-0.516,3.76-0.683   c2.413-0.318,4.854-0.415,7.287-0.318c2.275,0.091,4.542,0.352,6.783,0.757c1.058,0.191,2.111,0.414,3.155,0.673   c1.027,0.254,2.046,0.543,3.052,0.87c1.01,0.328,2.008,0.696,2.989,1.101c1.005,0.415,1.993,0.869,2.964,1.359   c1.012,0.511,2.005,1.06,2.98,1.641c1.034,0.616,2.047,1.267,3.041,1.945c1.072,0.73,2.123,1.492,3.157,2.275   c1.128,0.854,2.236,1.734,3.329,2.633c1.203,0.988,2.387,1.998,3.56,3.022C156.242,153.922,156.787,154.404,157.331,154.888z" style="fill:none;stroke:red;stroke-width:0.0001px"/><path d="M157.331,154.888c4.038-4.217,7.597-8.867,10.615-13.865c-1.478-0.573-2.983-1.158-4.522-1.752   c-2.902-1.12-5.886-2.318-9.009-3.566c-0.121-0.048-0.242-0.097-0.363-0.145c-2.454-0.98-4.959-2.01-7.569-3.042   c-1.624-0.642-3.276-1.288-4.977-1.939c-0.48-0.184-0.962-0.367-1.448-0.549c-2.977-1.117-6.027-2.223-9.292-3.311   c-0.303-0.101-0.609-0.202-0.917-0.303c-2.684-0.877-5.454-1.738-8.291-2.483c-2.294-0.603-4.62-1.109-6.977-1.413   c-3.702-0.477-7.277-0.399-10.726,0.205c-1.2,0.21-2.384,0.48-3.561,0.807c-1.399,0.388-2.76,0.844-4.087,1.375   c-1.665,0.667-3.246,1.458-4.759,2.39c-2.107,1.298-4.025,2.812-5.829,4.516c-1.816,1.716-3.489,3.592-5.054,5.612   c-0.732,0.945-1.437,1.918-2.117,2.915c-5.977,8.764-10.247,19.933-13.312,30.964c3.417,1.671,6.91,3.078,10.53,4.245   c0.156-0.468,0.314-0.936,0.476-1.402c0.765-2.201,1.604-4.377,2.532-6.516c0.85-1.961,1.774-3.89,2.783-5.773   c0.928-1.733,1.929-3.428,3.012-5.069c1.001-1.518,2.071-2.99,3.218-4.4c1.067-1.313,2.199-2.573,3.398-3.766   c1.124-1.118,2.308-2.176,3.549-3.162c1.173-0.932,2.397-1.798,3.668-2.591c1.21-0.754,2.461-1.441,3.749-2.053   c1.234-0.587,2.5-1.106,3.79-1.553c1.244-0.431,2.511-0.796,3.794-1.095c1.241-0.289,2.497-0.516,3.76-0.683   c2.413-0.318,4.854-0.415,7.287-0.318c2.275,0.091,4.542,0.352,6.783,0.757c1.058,0.191,2.111,0.414,3.155,0.673   c1.027,0.254,2.046,0.543,3.052,0.87c1.01,0.328,2.008,0.696,2.989,1.101c1.005,0.415,1.993,0.869,2.964,1.359   c1.012,0.511,2.005,1.06,2.98,1.641c1.034,0.616,2.047,1.267,3.041,1.945c1.072,0.73,2.123,1.492,3.157,2.275   c1.128,0.854,2.236,1.734,3.329,2.633c1.203,0.988,2.387,1.998,3.56,3.022C156.242,153.922,156.787,154.404,157.331,154.888z" style="fill:none;stroke:red;stroke-width:0.0001px"/><path d="M157.331,154.888c4.038-4.217,7.597-8.867,10.615-13.865c-1.478-0.573-2.983-1.158-4.522-1.752   c-2.902-1.12-5.886-2.318-9.009-3.566c-0.121-0.048-0.242-0.097-0.363-0.145c-2.454-0.98-4.959-2.01-7.569-3.042   c-1.624-0.642-3.276-1.288-4.977-1.939c-0.48-0.184-0.962-0.367-1.448-0.549c-2.977-1.117-6.027-2.223-9.292-3.311   c-0.303-0.101-0.609-0.202-0.917-0.303c-2.684-0.877-5.454-1.738-8.291-2.483c-2.294-0.603-4.62-1.109-6.977-1.413   c-3.702-0.477-7.277-0.399-10.726,0.205c-1.2,0.21-2.384,0.48-3.561,0.807c-1.399,0.388-2.76,0.844-4.087,1.375   c-1.665,0.667-3.246,1.458-4.759,2.39c-2.107,1.298-4.025,2.812-5.829,4.516c-1.816,1.716-3.489,3.592-5.054,5.612   c-0.732,0.945-1.437,1.918-2.117,2.915c-5.977,8.764-10.247,19.933-13.312,30.964c3.417,1.671,6.91,3.078,10.53,4.245   c0.156-0.468,0.314-0.936,0.476-1.402c0.765-2.201,1.604-4.377,2.532-6.516c0.85-1.961,1.774-3.89,2.783-5.773   c0.928-1.733,1.929-3.428,3.012-5.069c1.001-1.518,2.071-2.99,3.218-4.4c1.067-1.313,2.199-2.573,3.398-3.766   c1.124-1.118,2.308-2.176,3.549-3.162c1.173-0.932,2.397-1.798,3.668-2.591c1.21-0.754,2.461-1.441,3.749-2.053   c1.234-0.587,2.5-1.106,3.79-1.553c1.244-0.431,2.511-0.796,3.794-1.095c1.241-0.289,2.497-0.516,3.76-0.683   c2.413-0.318,4.854-0.415,7.287-0.318c2.275,0.091,4.542,0.352,6.783,0.757c1.058,0.191,2.111,0.414,3.155,0.673   c1.027,0.254,2.046,0.543,3.052,0.87c1.01,0.328,2.008,0.696,2.989,1.101c1.005,0.415,1.993,0.869,2.964,1.359   c1.012,0.511,2.005,1.06,2.98,1.641c1.034,0.616,2.047,1.267,3.041,1.945c1.072,0.73,2.123,1.492,3.157,2.275   c1.128,0.854,2.236,1.734,3.329,2.633c1.203,0.988,2.387,1.998,3.56,3.022C156.242,153.922,156.787,154.404,157.331,154.888z" style="fill:none;stroke:red;stroke-width:0.0001px"/></g></svg>