<svg id="Layer_1" style="enable-background:new 0 0 433.4 294.9;" version="1.1" viewBox="0 0 433.4 294.9" x="0px" xml:space="preserve" xmlns="http://www.w3.org/2000/svg" xmlns:xlink="http://www.w3.org/1999/xlink" y="0px"><path d="M68.3,162.5c-0.5-1.4-2-2.2-3.5-1.8c-1.7,0.3-1.6,1.6-1.6,2.9c0,2.4-0.8,4.7-0.3,7.1    c0.1,0.8-0.2,1.5-0.8,2.1c-1.5-2.4-2.9-4.8-4.3-7.1c-9.1-15.2-18.2-30.3-27.3-45.5c-0.8-1.2-1-2.8-0.6-4.2    c2.6-9.7,5.1-19.3,7.5-29.1c0.5-1.8,1.2-2.1,2.8-1.7c13.2,3.5,26.6,6.2,40,8.9c1.6,0.3,2,0.7,1.6,2.4    c-3.6,18.2-7.2,36.5-10.7,54.8c-0.5,2.4-0.7,4.8-1.2,7.2C70,160.1,69.4,161.5,68.3,162.5z" style="fill:#7AFF00;"/><path d="M156.1,115.9c-17.1-1.6-33.6-3.7-50-6.1c-1.7-0.2-1.5-1.2-1.3-2.3c1.2-7.6,2.5-15.1,3.7-22.7    c1-6.2,2-12.3,2.9-18.5c0.3-1.7,0.7-2.4,2.7-2.1c15.4,2.3,30.7,4.4,46.2,5.6c2,0.2,1.8,1.3,1.6,2.6c-0.9,10.8-1.8,21.6-2.8,32.4    c-0.2,2.8-0.7,5.7-0.7,8.5C158.6,115.4,158,116.5,156.1,115.9z" style="fill:#7AFF00;"/><path d="M104.9,100c-0.3,2.8-0.8,5.7-1.4,8.5c-0.5,1.9,0.4,2.2,1.8,2.3c3.9,0.5,7.8,1.1,11.6,1.6    c1.5,0.2,2.1,0.8,1.8,2.4c-2,13.9-3.9,27.8-5.8,41.7c-0.2,1.7-0.7,1.9-2.3,1.7c-12.1-1.8-24.1-3.8-36.1-5.9    c-2-0.4-2.2-1.1-1.8-2.8c2.6-13,5.1-26,7.6-39.1c0.9-4.6,1.9-9.2,2.7-13.8c0.2-1.3,0.4-1.8,2-1.5c6.2,1.2,12.3,2.2,18.5,3.2    C104.9,98.5,105.2,99.1,104.9,100z" style="fill:#7AFF00;"/><path d="M219,165.9c-14.3,0.1-29.8-0.6-45.4-1.3c-1.3,0-1.5-0.5-1.4-1.6c0.7-10.3,1.3-20.7,1.9-31    c0.1-1.4,0.6-1.7,1.8-1.6c13.1,0.5,26.2,1,39.3,1.5c3.3,0.2,6.5,0.2,9.8,0c1.9-0.2,3.2,1.1,4.9,1.4c0.7,0.1,0.4,0.7,0.2,0.9    c-2.4,3.2,0.4,5,1.9,6.9c0.6,0.6,0.9,1.3,0.9,2.1c0.1,6.9,0.2,13.9,0.4,20.8c0.1,1.7-0.5,2.1-2.1,2.1    C227.6,165.8,223.9,165.9,219,165.9z" style="fill:#7AFF00;"/><path d="M318.4,238.7c-0.9,0.8-2.1,0.4-3.1,0.9c-0.4,0.3-1.1,0.2-1.4-0.2c0-0.1-0.1-0.1-0.1-0.2    c-1.3-2.8-3.3-1.4-5.1-0.8c-0.8,0.4-1.7,0.5-2.6,0.3c-1.1-0.4-2.5-2.6-3.6,0.2c-0.2,0.4-1-0.1-0.9-0.7c0.2-0.9-0.3-1.9-1.1-2.2    c-0.6-0.4-1.1-0.9-0.9-1.6s1.1-0.7,1.7-0.7c6.6-0.4,13.1-1.1,19.7-2c0.9-0.1,1.6,0.1,1.7,1c0.3,2.1,1.5,2.1,3.3,2    c6.6-0.4,13.2-0.7,19.7-1.1c1.2-0.1,2.3-0.2,2.8,1.3c0.2,0.8,1,0.8,1.7,0.6s0.7-0.8,0.7-1.4c0-0.5,0-1,0-1.5    c0.2-0.8-1.5-2.2,0.2-2.3c0.9,0,2.7-0.5,3.4,1.8c1.8,5.9,4.5,11.4,8,16.5c0.6,1,1,2.1,1.3,3.2c0.8,2.2,1.9,4.2,2.9,6.3    c1.5,3.4,3.4,6.7,5.4,9.8c3,4.2,2.9,8.6,3.5,13.1c0.4,2.8-1.1,5.3-0.9,8.1c0.1,2-2.9,2.7-4.8,1.5c-1.7-1.1-3.2-1.9-3.3-4.4    c0-1.3-1.7-1.4-2.8-1.7c-0.7-0.2-1.7,0-2.2-0.4c-1.7-1.3-1.3-4.1-3-5.2c-2.1-1.5-2.4-3.2-1.6-5.4c0.1-0.4,0.2-0.9-0.2-1.1    s-0.7,0.1-1,0.3c-1.3,0.7-2.6,0.9-3.6-0.7c-1.3-2.2-2.3-4.2-0.8-6.9s-1.3-2.8-2.5-3.1c-1.4-0.3-1.4-0.8-1.1-1.8    c0.7-2.3,0.6-4.7,0-6.9c-0.7-1.9-1.1-3.8-3.8-4.4c-1.6-0.4-3-2.1-4.1-3.6c-1.6-1.9-3.2-3.8-5.6-4.9c-2.6-1.3-4.5,0.3-6.6,1.1    c0.6,3.2-2.6,2.5-3.9,3.7c-0.6,0.6-1.6,0.8-2.2-0.5s-1.2-3-2.8-3.7C317.9,240.4,319.2,239.4,318.4,238.7z" style="fill:#7AFF00;"/><path d="M281.8,243.4c-0.9-2.6-3.3-4.6-2-7.8c0.6-1.4-0.6-1.4-1.6-1.3c-4.3,0.3-8.7,0.5-13,0.8    c-1.7,0.1-2.7,0.1-2-2.4c0.7-3.1,1.9-6,3.4-8.8c1-1.8,1.1-3.9,0.4-5.9c-1.1-3-0.8-6.6-1.3-9.9c-0.7-4.8,1.4-8.3,3.6-12    c0.8-1.2,0.8-2.6,1.3-3.9c0.7-2,1.9-3.1,4-3.3c4.6-0.4,9.1-0.7,13.7-1.1c1.7-0.1,1.7,0.9,1.6,2.1c-0.1,6.8,0.1,13.5-0.3,20.3    c-0.4,9.5,0.1,19,1.7,28.4c0.3,2.2-0.5,2.4-2.1,2.2C286.5,240.5,283.9,240.9,281.8,243.4z" style="fill:#7AFF00;"/><path d="M280.1,251.9c-1,0.1-2-0.2-2.8-0.8c-0.5-0.4-0.9-0.2-1.3,0.2s-0.4,1.1,0,1.3    c1.6,0.8,0.5,2.2,0.9,3.3c-2.1-2.2-4.4-2.2-5.3,0.2c-1.6-2.1-4.3-2.3-6.3-3.8c-0.8-0.5-1.5-1.1-2-1.9c-0.7-1.2-2.2-1.2-3.3-1.4    s-2.5,1.1-2.4,1.8c0.4,2.4-1.2,1.6-2.1,1.5c-1.4-0.2-2.8-0.6-4.1-1.1c-2.2-0.8-4.4-1.5-6.8-0.9c-1.5,0.4-1.7-0.6-1.3-1.4    c0.8-1.7,0.6-3.4,0.4-5.1c-0.2-0.8-0.1-1.7,0.2-2.4c2.5-3.8,1.1-7.2-0.6-10.8c-2.5-4.6-3.6-9.9-3.1-15.2c0.2-1.6,0.6-1.9,2-1.9    c6.5,0,13.1,0,19.5-0.6c2-0.2,3.1,0.4,3.1,2.7c-0.1,1.3,0.3,2.6,1,3.7c0.2,0.2,0.4,0.5,0.4,0.6c-0.8,1.2-0.7,2.8-1.2,3.8    c-1.7,3.7-4.1,7.1-3.6,11.6c0,0.3-0.4,0.6-1,1.4c5.5-0.4,10.4-0.6,15.4-1.1c2-0.2,3.2-0.1,2.3,2.4c-0.5,1.4,0.3,2.2,1,3.1    c0.5,0.6,1.1,1.3,0.5,1.9s-1.4,0.1-2-0.3c-1.2-0.9-2.4-1.3-3.4,0.2c-0.6,0.8-1.6,1.6-0.9,2.9s1.7,0.8,2.6,1s1.9-0.2,3.1,0.6    c1.9,1.3,3.4,1.8,0.5,3.5c-0.2,0.1,0,0.6,0.3,0.8c0.1,0.1,0.2,0.2,0.2,0.3S280.1,251.9,280.1,251.9z" style="fill:#7AFF00;"/></svg>