<svg id="Layer_1" style="enable-background:new 0 0 433.4 294.9;" version="1.1" viewBox="0 0 433.4 294.9" x="0px" xml:space="preserve" xmlns="http://www.w3.org/2000/svg" xmlns:xlink="http://www.w3.org/1999/xlink" y="0px"><path d="M213.9,265c-0.1,1,0.8,1.5,0.5,2.4s0.2,1.8-1.4,1.1c-0.6-0.3-2,1-2.9,1.7c-0.5,0.4,0,0.7,0.3,1    s1.2-0.3,0.9,0.7c-0.2,0.6-0.6,0.6-1.2,0.5c-1.4-0.1-2.8,0.2-4,0.9c1.8,0.3,3.2,0.7,3.2,2.1c0,0.9-0.2,2.3-1.2,2.8    c-1.8,0.9-2.2-1.3-3.6-1.9c-0.2,1,2.1,3-1.7,2.7c1.1,0.4,1.6,0.6,2,0.8c1.7,0.5,3.1,0.5,2,3.3c-0.7,1.9,0.7,4.4,1.1,6.7    c0.1,1.2,0.5,2.4,1.2,3.5c0.6,0.7-0.1,1-0.5,1.3s-1,0.6-1.5,0s-1.2-1.5-2.2-1.4c-4.6,0.3-7.8-3.1-11.8-4.5    c-0.4-0.1-0.7-0.5-0.8-0.9c-1.1-3.6-3.6-6.9-3.3-11c0.1-0.6-0.2-1.6-0.6-1.8c-3.4-1.7-3.9-5.6-6.2-8.2c-1.8-2-2.6-5-3.2-7.7    c-0.6-2.9-2.8-4.4-4.2-6.5c-0.1-0.2-0.6-0.1-0.6-0.3c-1.6-3.8-4.9-3.7-8.2-3.9c-1.2-0.1-2-1-3.8-0.4c-2.1,0.6-3.8,2.4-4.3,4.5    c-0.5,1.6-1.5,3-2.9,4c-1.6,0.9-2.6-1.1-3.9-1.8c-2.6-1.4-5-3.2-7-5.3c-1.1-1.2-1.7-2.7-1.7-4.3c-0.1-2-0.4-3.9-1.1-5.7    c-0.4-1.2-0.7-2.5-1.7-3.2c-3.8-2.8-5.8-7.1-9.3-10.2c-1.4-1.2-1.3-3.6-3.3-4.5c-0.1,0-0.1-0.8,0-0.9c0.5-0.1,1-0.2,1.4-0.2    c5.4,0.5,10.8,1.1,16.2,1.6c4.2,0.4,8.5,0.6,12.7,1.1c1.5,0.2,1.7-0.4,1.8-1.6c0.7-8.7,1.4-17.3,2.1-26c0.6-7.4,1.1-14.8,1.6-22.2    c0.1-1.9,0.8-2.5,2.8-2.3c6.7,0.5,13.4,0.8,20,1.1c1.5,0.1,2,0.5,1.9,2.1c-0.3,6.2-0.5,12.4-0.7,18.5c-0.1,1.9,2.2,4.4,4.1,4.5    c1.2,0.1,2.8-0.4,3,1.6c0.1,0.5,0.8,0.4,1.3,0.5c2.3,0.5,4.3,2.1,7,1.3c0.9-0.3,1.3,1.1,1.9,1.8c0.8,1,1.3,1.5,2.8,0.7    c1.3-0.7,2.8,0.7,4.1,1.4c0.9,0.4,1.1,1.1,2.1-0.2c1.2-1.6,3.3-0.7,4.6,0.3s2,0.6,3.2,0c1.8-0.9,3.8-0.8,5.6-1.2    c4-0.9,5.9,2.5,9,3.3c0.2,0.1,0.5,0.4,0.6,0.4c3.5-0.9,2.6,1.6,2.6,3.3c0.1,3.8,0.2,7.7,0.3,11.5c0.1,1.7,0.6,3.3,1.4,4.8    c1.3,2.9,2.5,5.8,3.5,8.8c0.3,1.4,0,2.9-0.8,4.1c-0.5,0.9-1.1,1.9-0.7,3c1,3.1-1,5.5-1.9,8.1c-0.4,1-2.7,1.6-4.2,2    c-0.8,0.2-1.6-0.3-1.8-1.1c0-0.2-0.1-0.4,0-0.6c0-0.6-0.4-1.3-1.1-0.9c-1.1,0.7-2.9,1-2.7,2.7c0.1,1.1,1.2,2.4,0.2,3.2    c-2.3,1.7-2.7,5-5.9,6c-2.7,0.8-5.2,1.9-8.1,0.7c-1.6-0.6-1.9,0.1-1.2,1.5c0.3,0.7,2,1.2,0.9,2.1c-0.9,0.8-1.4-0.9-2.2-1.1    C214.5,265.3,214.1,265.2,213.9,265z" style="fill:#EDFF60;"/><path d="M5.4,129.3c1,1.7,2,3.2,4.4,2.8c-2.3-1.3-1.4-3.6-2.2-5.4c-0.4-0.9,0.4-1.8,1.6-1.4    c1,0.4,2,0.7,3.1,1c0.6,0.1,1.5,0.2,1.9-0.7c0.3-0.6,0-1-0.3-1.6c-0.7-1.3-1.1-0.1-1.5,0.1c-1.4,0.7-2.6-0.6-3.2-1    c-1.1-0.8-2.5-0.6-3.6-1.9c0.1,1.5,0.2,2.6-0.6,3.6c-1.2-1-1.8-2.5-1.7-4c0.3-2.7-1.5-4.9-2.5-7.2c-1-2.6-1-5.5,0.1-8    c1.3-3.2,1.1-6.8-0.6-9.8c-0.8-1.4-0.7-3.1,0.3-4.4c3.1-4.2,5.8-8.5,5.4-14c-0.1-1.5,1.1-1.3,2.2-0.9c7.4,2.2,14.9,4.2,22.3,6.4    c2.1,0.6,5.2,0.3,6,2.2c0.7,1.6-0.7,4.1-1.3,6.2c-2.2,8.5-4.4,17.1-6.7,25.6c-0.3,1.2-0.1,2.5,0.6,3.5    c10.3,17.2,20.5,34.4,30.9,51.5c1.4,2.5,2.2,5.3,2.5,8.2c0.2,1.4,2.1,2,1.2,3.4c-0.7,1-2.2,1.1-2.9,2.2c-0.5,0.8-0.8,1.6-0.9,2.5    c-0.3,1.5-0.5,2.8-2.1,3.7c-1.4,0.8-1.3,4.4,0,5.5c0.5,0.3,0.7,1,0.4,1.5c-0.3,0.7-1.1,1.1-1.9,0.9l-11.2-1.2    c-2.2-0.2-4.5-0.6-6.7-0.8c-2.8-0.2-3.6-1.2-3.5-4c0.3-5.5-2.5-9.4-6.5-12.7c-0.1-0.1-0.4-0.1-0.4-0.2c0-3.2-2.5-3.6-4.7-4.4    c-0.6-0.2-1-0.6-1.3-1.1c-1.5-4.4-5.4-5.4-9.3-6.4c-1-0.1-1.6-1-1.5-2c0-0.2,0.1-0.3,0.1-0.5c0.5-1.4,0.2-3,1-4.3    c0.2-0.3,0.3-0.8,0.1-0.9c-1.8-2-1.2-4.9-2.8-7c-2-2.8-2.1-6.4-3.7-9.4c-0.5-1.1-0.1-2.4,0.8-3.1c2.2-1.7,1.8-3.3-0.5-4.9    c-1.2-0.9-1.9-2.4-1.6-3.9C5.2,131.7,5.1,130.7,5.4,129.3z" style="fill:#EDFF60;"/><path d="M110,67.3c-0.9-2.2-1.8-3-3-0.7c-0.3,0.5-1,0.7-1.6,0.5c-2.4-0.9-4.8-0.2-7.2-0.3    c-1.4-0.1-1.8-0.2-1.8-1.5s0-2.8-1.7-3.2c-0.2,0-0.5-0.4-0.4-0.5c0.7-2.7-1.6-4.9-1.2-7.5c0.3-2.5-0.8-3.1-3.1-1.9    c-0.5,0.3-1.1,0.6-1.6,0.1c-0.4-0.6-0.4-1.4,0-2.1c1.8-1.1,1-2.9,1.4-4.4c0.1-0.6,0.3-1.2,0.5-1.7c0.8-2,2.5-4-0.6-5.8    c-2.1-1.2-1.7-4.2-3.1-5.8c-2.8-3-2.3-7-3.1-10.4s1.1-7,1.8-10.5c0.2-1.2,1.2-0.5,1.8-0.4c12,2.5,23.9,4.7,36,6.6    c13.2,2,26.5,3.7,39.8,4.8c3.5,0.3,3.4,0.2,3.1,3.7c-0.9,9.6-1.6,19.1-2.4,28.7c-0.3,4-0.7,8-1,12c-0.1,1.6-0.9,2-2.3,1.8    c-7-0.8-14.1-1.4-21.1-2.3c-8.9-1.1-17.8-2.5-26.8-3.7c-0.9-0.1-1.6-0.2-1.7,1.1C110.6,65,110.3,66.2,110,67.3z" style="fill:#EDFF60;"/><path d="M112.2,160.9c-0.7,5.2-1.4,10.4-2.1,15.6c-1.3,9.1-2.5,18.1-3.8,27.2c-0.9,6.3-1.7,12.5-2.5,18.8    c-0.1,1.1-0.6,1.4-1.6,1.3c-5.2-0.8-10.4-1.5-15.6-2.3c-0.8-0.2-1.6-0.6-2.2-1.1c-9.1-5.6-18.2-11.3-27.2-16.9    c-0.6-0.4-1.6-0.5-1.4-1.5c0.2-0.9,1-0.9,1.8-1.1c2.2-0.6,3-2.7,1.6-4.2s-0.7-2.9,0.1-4c1-1.2,1.7-2.6,2-4.1    c0.2-1.6,1.2-3,2.7-3.6c1.5-0.7,2-1.6,1-3.6c-1.3-2.4-2.8-5.3-1.2-8.3c1.1-2,0-4.3,0.5-6.4c0.1-0.6,0.1-1.2,0.1-1.7    c0.5-3.1,0.5-3.1,3.2-1.4c0.9,0.5,1.6,0.3,2.3-0.7c1.4-2.1,1.4-4.6,1.8-6.9c0.4-2,0.7-3,3.4-2.5c11.6,2.2,23.2,4.2,34.9,5.8    C110.8,159.3,112.6,158.8,112.2,160.9z" style="fill:#EDFF60;"/><path d="M168.1,164.1c-11-0.9-21.8-1.6-32.6-2.9c-6.7-0.8-13.4-1.7-20.1-2.5c-1.4-0.2-1.7-0.5-1.5-2    c1.5-10.5,2.9-21,4.3-31.4c0.5-3.7,1-7.4,1.5-11.1c0.1-1,0.5-1.2,1.5-1.1c10.3,1.3,20.5,2.6,30.8,3.7c6.6,0.7,13.3,1.1,20,1.6    c1.6,0.1,1.8,0.6,1.7,2.1c-0.7,9.4-1.2,18.8-1.8,28.2c-0.3,4.8-0.7,9.5-1,14.2C170.9,165.8,168.9,163.4,168.1,164.1z" style="fill:#EDFF60;"/><path d="M104.1,97.4l-11.6-2c-10-1.8-20-3.7-29.9-5.9c-1.5-0.3-1.6-0.7-1.3-2.1c1.3-5.7,2.5-11.5,3.8-17.3    c0.2-0.6,0.5-1.2,0.8-1.8c0.8-1.8,1.8-3.4,0-5.5c-1.5-1.8,0.9-3.2,1.9-4.3c2.6-2.7,3.6-6.3,6-9c0.6-0.9,0.5-2.1-0.3-2.8    c-2.5-2.5-1.8-5.6-1.2-8.3c1.8-9,4.1-18,6.1-27c0.3-1.6,0.8-2,2.2-1.4c0.8,0.3,1.6,0.5,2.4,0.6c0.9,0.1,1.1,0.5,0.8,1.4    c-0.5,1.8-0.8,3.6-1.2,5.4c-0.7,2.7-1.3,5.5,0.2,8.2c0.1,0.2,0.3,0.5,0.2,0.7c-1.5,3.2,1.3,4.9,2.4,7.2c1.2,2.5,1.9,5.2,3.9,7.2    c0.9,0.9,0.3,2-0.2,2.8c-1.5,2.6-1.2,5.7-2.6,8.3c-0.6,1.2,0.8,1.6,1.4,2.4c0.8,1.1,1.3-0.1,1.8-0.4c1.4-0.7,2.1-1.1,1.9,1.2    c-0.2,2.4,0.9,4.8,1.4,7.1c0.5,1.8,2.2,3.5,2.3,5.8c0.1,0.6,0.7,1,1.3,1c3.6-1.7,7.5,1.1,11.2-1c0.9-0.5,1.7,1.9,1.5,3.2    c-0.7,5.2-1.6,10.4-2.4,15.5c-0.5,3-0.9,6.1-1.4,9.1C105.6,96.3,105.7,97.6,104.1,97.4z" style="fill:#EDFF60;"/><path d="M235.3,192.9c0,4.2,0,7.1,0,10.1c0,0.6,0.4,1.4-0.5,1.7c-0.7,0.1-1.4-0.1-1.8-0.6    c-0.8-0.6-1.5-1.2-2.4-1.8s-1.6-1.4-2.4,0c-0.2,0.2-0.6,0.3-0.9,0.3c-2.4-1.1-4.4-0.3-6.5,0.9c-0.6,0.3-1.4,0.5-1.6,0.2    c-1.1-1.8-3.5-0.6-4.6-2.1c-0.2-0.3-0.4-0.3-0.8,0c-1.6,1.7-3.3,1.2-5,0.1c-0.5-0.3-1.1-0.8-1.5-0.4c-1.6,1.4-2.5-0.1-2.8-1    c-0.4-1.6-1.5-1.1-2.3-1.1c-3,0.1-6,0.3-7.7-2.9c-0.4-0.7-1.1-0.7-1.8-0.7c-3.3,0-4.6-1.4-4.4-4.6c0.3-5.8,0.6-11.7,0.9-17.5    c0.1-1.8-0.2-2.4-2.2-2.5c-6.8-0.2-13.5-0.7-20.3-1c-2-0.1-3-0.6-2.7-3c0.2-1.9,0.8-2.1,2.5-2c21.6,1.6,43.2,2.1,64.9,1.9    c1.6,0,2.3,0.3,2.1,2c-0.2,3.4,0.6,6.8,1.1,10.2C235.1,183.7,235.4,188.3,235.3,192.9z" style="fill:#EDFF60;"/><path d="M25.6,3c2.1,3,5.3,5,8.9,5.5c1.6,0.2,1.6,2,0.8,3.3c-1,1.6-2.7,2.9-3.3,5.2    c0.9-0.8,1.6-1.4,2.3-1.8c0.5-0.3,1-0.8,1.5-0.3c0.3,0.2,0.3,0.8,0.3,1.2c0,0.7-0.6,0.8-1,0.8c-1.1,0-1.9,0.7-2.8,0.9    c-1.1,0.2-1.2,1.1-1,1.9c0.1,0.8,0.8,1.3,1.6,1.3c2.7,0.1,5.1-1.8,5.5-4.5c0.1-0.9,0.1-2.1,0.7-2.6c2.1-2,1.6-4.6,1.6-7    c0-1.6,1.2-2.9,0.8-4.6c-0.7-2.7-0.6-2.7,2.2-1.9c10.6,3,21.3,5.8,32,8.2c1.6,0.4,2.1,0.8,1.7,2.6c-2.1,8.6-4,17.2-5.9,25.9    c-0.2,0.7-0.3,1.5-0.3,2.2c-0.1,3.5-0.1,3.5-3.4,2.7c-2.3-0.5-4.7-1-7.1-1.7c-4.1-1.1-8.1-0.6-12.3-0.4c-3.1,0.1-6.2,0.4-9-1.3    c-1.5-0.9-3.3-1.1-5-0.5c-3.2,0.9-4.6-0.5-4.2-3.8c0.2-2-0.1-3.7-2.4-5c-1.4-0.8-2.5-2.2-4.4-2.4c1.4-1,2-5.1,1-5.9    c0.6-0.9,2-0.2,2.8-1.3c-3.2-1-2.3-3.8-2.2-6s0.4-4.2-0.3-6.4C24.2,5.8,24.6,4.2,25.6,3z" style="fill:#EDFF60;"/><path d="M258.3,124.8c-1.1-2-2.6-2.2-4.5-2.1c-9.2,0.7-18.5,1.4-27.8,0.8c-1.3-0.1-1.9-0.6-1.9-2    c-0.1-3.2-0.1-6.4-1.8-9.3c-0.6-1,0.2-2-0.2-3.1c-1-2.4-1.7-4.9-2.5-7.4s-1.5-4.4-0.3-6.8c0.1-0.5,0.1-1,0-1.5    c-0.4-3.2-0.4-3.2,2.7-3.2c11.4,0.1,22.9-0.2,34.3-0.8c1.3-0.1,2.4,0.9,2.5,2.2c0,0.3,0,0.5-0.1,0.8c-0.5,2.7,0.8,5.4,3.1,6.8    c1.3,0.8,2.3,2,2.9,3.4c0.5,1.5,2.5,1.7,2.5,3.6c0,2.3-1.7,5.3-4,6.1c-3.4,1.3-3.3,1.4-2,4.7c0.8,2-0.4,3.9-1.8,5.2    C258.6,122.9,258.2,123.8,258.3,124.8z" style="fill:#EDFF60;"/><path d="M295.2,235.8c-0.8,1.1-0.4,2.3-0.7,3.3c-0.1,0.5-0.1,1.2-0.9,1.2s-0.9-0.6-0.9-1.2    c-1.2-9.5-2.4-19-1.7-28.6c0.5-6.9,0.2-13.9,0.1-20.8c0-1.7,0.4-2.3,2.2-2.4c5.6-0.3,11.2-0.7,16.7-1.3c1.4-0.1,1.6,0.4,1.9,1.5    c1.7,6.5,3.5,13,5.3,19.5c0.5,2.3,1.5,4.6,2.7,6.6c1.3,1.9,0.1,4.1-0.1,6.2c-0.2,3.5,1.8,6.6,0.9,10.4c-5.6,1-12,1.5-18.3,2    c-0.5,0-1,0-1.5,0.1c-0.9,0.2-2.2-0.2-2.6,0.9c-0.4,1.1,0.1,2.4,1.1,3c1.5,0.8,0.6,2.2,1.1,3.3c0.3,0.6-1,1.3-1.5,1.4    c-0.9,0-1.7-0.7-1.8-1.6C297.1,237.9,296.3,236.7,295.2,235.8z" style="fill:#EDFF60;"/><path d="M388.8,163.9c1.1,0.5,1.8,0.6,2,0.9c0.4,0.6,1.8-0.9,1.5,0.7c-0.2,0.9-0.3,1.9-1.5,2.1    c-0.8,0.1-1.6,0.2-1.8-1.1c-0.1-1-1.5-1.4-1.8-0.5c-0.8,2.6-2.4,1.2-3.7,1.1c-0.5-0.1-1-0.2-1.5-0.2c1,1.2,2,2.4,3.8,2.5    c1,0,1.9,0.8,1.9,1.8c0,0,0,0.1,0,0.1c0.2,1.4-0.4,1.8-1.4,1.3c-0.9-0.6-2.2-0.3-2.8,0.6c-0.1,0.1-0.1,0.2-0.2,0.3    c2.2,0.3,4.3,2.8,6.7-0.1c-0.7,2.7-3.1,3.6-5.9,2.6c0.1,1.2-0.4,2.4-1.3,3.3c-1.8,2.2-4.2,4.2-4.1,7.5c0,1.3-3.8,2-5.2,1    c-2.2-1.4-4.2-3-6.1-4.8c-2.9-3.1-6.2-3.5-10-2.5c-2,0.6-3.6,0.6-4.7-1.5c-0.6-1-1.7-1.5-2.8-1.2c-5.4,0.5-10.8,0.4-15.6,3.5    c-2.9,1.9-6.5,1.5-9.7,2c-0.5,0.1-1.1,0.1-1.2-0.6s-0.1-1.2,0.7-1.4c0.3-0.1,0.8-0.1,0.9-0.3c1.5-5.1,7.9-4.9,9.9-9.4    c2.4,0.4,2.8-3.1,5.5-2.8c0.6,0.1,2.7-2.3,2.9-4.4c0.1-1,0.1-1.7,1.5-1.8c10.9-1.1,21.8-2.9,32.5-5.4c2.2-0.5,4.1,0.4,6,1.1    c0.5,0.2,0.6,0.6,0.8,1.1c1.2,3.7,1.2,3.7,4.9,2.7c0.6-0.2,1.3-1.1,1.7,0.2C391.1,163.3,390.3,163.6,388.8,163.9z" style="fill:#EDFF60;"/><path d="M273.3,187.8c0.2-0.5,0.7-1,0.6-1.3c-1.4-2.8,1.1-4.7,1.9-6.9c0.7-2.3,1.3-4.5,1.7-6.9    c0.3-1.4,0.6-1.9,2.1-2c2.8-0.1,5.7-0.4,8.5-0.6c1-0.1,2.1,0.2,2-1.4c0-1,0.9-0.5,1.3-0.6c9.8-0.9,19.6-1.7,29.5-2.6    c6.6-0.6,13.2-1.5,19.8-2.6c0.5-0.1,1.1-0.8,1.5,0c0.3,0.6-0.1,1.1-0.4,1.6c-1.4,2.3-3.7,4-6.3,4.5c-0.9,0.2-1.7,0.8-2.1,1.6    c-1.3,2.7-3.8,4.8-6.7,5.5c-0.4,0.1-1.1,0.5-1.1,0.9c-0.4,2.3-3.4,3-3.2,5.6c0.1,1-0.9,0.8-1.5,0.8c-8.4,0.8-16.8,1.8-25.2,2.4    C288.2,186.7,280.9,187.6,273.3,187.8z" style="fill:#EDFF60;"/><path d="M299.5,153.9c0.6-1.3,1.9-2.2,1.9-3.7c1-0.2,1.4,0.7,2.2,0.7s2.1,0.1,2.1-0.8c0-3.2,4-4.6,3.7-8    c0-0.3,2.3-0.6,3.4-1.4c0.7-0.5,1.5-0.8,1.2-1.8c-0.2-0.7-1-1.5-0.2-1.9s2.3-0.5,2.8,0.4c1,2,2.7,2.4,4.6,3c2.3,0.9,4.8,0.7,7-0.4    c0.8-0.4,3.7,1.9,3.6,3.2c-0.2,3.6,2.1,5.7,4.4,7.8c1.1,1,1.3,1.9,0.1,2.8c-2.8,2-4.1,5.3-6.5,7.6s-5.4,2.9-8.6,3.2    c-9.4,0.8-18.8,1.1-28.1,2.4c-1,0-2,0-3-0.1c-0.5,0-1.4-0.1-1.4,0.3c0.4,3-1.9,1.6-3.1,2c-0.4,0.1-0.8,0.2-1.2,0.2    c-3.9,0.6-3.9,0.6-3.7-3.3c0-0.3,0.1-0.5,0-0.8c-0.1-3.3-0.1-3.3,3.2-2.1c0.6,0.2,1.3,0.6,1.8,0c0.5-0.4,0.6-1.1,0.3-1.6    c-1.1-1.6-0.1-2.2,1.2-2.7c1.1-0.4,1.9-0.8,1.1-2.1c-0.4-0.7-0.1-1.2,0.4-1.8c1.7-1.6,4.2-2.1,6.4-1.2c0.6,0.3,1.2,0.4,1.5-0.3    C297.8,150.6,298.5,152.8,299.5,153.9z" style="fill:#EDFF60;"/><path d="M312.4,136.5c0.5,2.9-0.5,4.3-3.6,4c-0.6,0-1.1,0.6-1,1c0.9,3.5-3.4,4.8-3.3,7.9    c0,0.7-1.1,0.2-1.6-0.2c-1.7-1.5-2.3-1.3-2.8,1.1c-0.2,1-0.5,1.7-1.6,0.6c-0.3-0.3-0.7-0.4-1.1-0.2c-0.1,0.1-0.1,0.1-0.2,0.2    c-1.4,1.8-3.1,1.3-4.8,0.7c-0.4-0.1-1-0.3-1.1-0.2c-0.7,0.9-1.9,1.7-2.4,0.7s0.1-2.5,0.4-3.7c0.5-1,1-1.9,1.6-2.8    c1.1-2.3,0.9-4.5,0-6.9s0.1-4.7-0.1-7.1c-0.8-6.6-1.2-13.3-1.8-20c-0.1-1.4,0.1-1.9,1.7-2.8c5.4-3,11.3-1.8,16.8-3.1    c0.6-0.2,1.3,0,1.5,0.6c0.1,0.1,0.1,0.3,0.1,0.5C310.2,116.8,311.3,126.7,312.4,136.5z" style="fill:#EDFF60;"/><path d="M363.7,201.6c-0.2,1.7,2.3,3.5-0.6,4.6c-1,0.4-1,0.5-2.6-2c0.7,1.8-0.7,2.7-1.8,3.5    s-1.3-0.9-2.2-1.4c0.4,1.5,0.7,2.9,1.1,4.3c0.3,0.9,0.3,1.9-0.5,2.2c-1,0.4-0.9-0.8-1.3-1.4c-2.6-3.4-3.9-7.6-7.5-10.3    c-1.8-1.4-3-3.8-5-5.2c-2.8-1.9-5-4.4-6.4-7.4c-0.3-0.6-1.1-0.3-1.5-0.6c-0.9-0.7-2.8-0.9-2.8-2.1c0.2-1.4,1-2.7,2.3-3.4    c3-2,6.5-3,10.1-3.2c0.9,0,1.8-0.1,2.8-0.3c2.2-0.6,4.5,0.6,5.3,2.7c0.4,0.9,1.1,0.5,1.7,0.4c2-0.2,4-0.5,5.9-0.9    c1.5-0.4,3.2,0,4.3,1.1c2.3,1.9,4.7,3.8,7.1,5.6c1.2,0.9,1.8,1.5,0.4,3c-1.7,1.8-2.2,4.4-3.1,6.7c-0.4,1-0.2,3.1-2.5,2.6    c-0.3-0.1-0.9,0.9-1.3,1.4C364.8,202.4,364.2,201.5,363.7,201.6z" style="fill:#EDFF60;"/><path d="M381,156.5c3.4-0.4,5.9-2.2,9.1-1c-0.9,1.3-3.1,1.4-2.3,3.6c0.1,0.2-1,1.1-1.6,1.3    c-0.8,0.2-0.8-0.7-0.8-1.2C385.4,156.3,383,157.4,381,156.5z" style="fill:#EDFF60;"/></svg>