<svg id="Layer_1" style="enable-background:new 0 0 433.4 294.9;" version="1.1" viewBox="0 0 433.4 294.9" x="0px" xml:space="preserve" xmlns="http://www.w3.org/2000/svg" xmlns:xlink="http://www.w3.org/1999/xlink" y="0px"><path d="M271,176.2c0.6-0.7,1-1.1,1.4-1.6c0.8-0.7,1-1.8,0.5-2.8c-0.5-1-1.6-1.5-2.7-1.3    c-8.4,0.4-16.7,0.8-25.1,1.1c-2.8,0.1-5.5,0-8.3,0.3c-2.2,0.2-2.6-0.8-2.6-2.6c0-3.3,0-6.5-0.1-9.8c-0.1-5.5-0.1-11-0.1-16.6    c0-1.3,0-2.2-1.5-3c-1.7-0.9-2.3-3.9-1.4-5.7c0.7-1.4,0.7-2.5-1.2-2.4c-1.1,0-1.5-0.9-1.8-1.4c-0.7-1.2-1.4-2.4-2.2-3.6    c-0.9-1.4-0.9-2.4,1.3-2.2c5.6,0.5,11.2-0.1,16.8-0.3c3.5-0.1,7-0.3,10.5-0.6c1.5-0.3,2.9,0.7,3.1,2.1c0.1,0.3,0.1,0.5,0,0.8    c-0.4,4.9,2,8.2,5.5,11.1c1.1,0.9,1.7,2.3,1.8,3.7c0.2,1.3,0.4,2.8,2.5,1.6c1-0.6,2.3-0.4,1.8,1.5c-0.1,0.5,0,1-0.1,1.4    c-1.3,5.6-0.9,6.2,4.1,9.2c1.9,1.2,3,3.3,2.9,5.6c0,1.9,0.5,3.4,2.5,4.4s0.5,2.9,0,3.2c-2.1,1.1-2.4,3.3-3.5,4.9    c-0.1,0.2-0.2,0.5-0.2,0.6c1.4,2.6-0.7,2.2-2.1,2.4C272.5,176.2,272,176.2,271,176.2z" style="fill:#00D58C;"/><path d="M269.5,177.5c1.5,0.4,2.8-0.2,4.2-0.3c0.4,0,1-0.3,1.2,0.4c0.1,0.4,0,0.8-0.3,1.1    c-1.7,1.9-3,3.9-2.2,6.6c0.2,0.6-0.1,1-0.5,1.6c-1.5,2.1-3.1,4.2-3,7c0,0.2,0,0.6-0.1,0.7c-3.1,1.9-2.8,5.6-4.4,8.4    c-0.7,1.2-1.2,2.4,0,3.9c1.7,2.2,0,4.7-2.8,4.8c-6.5,0.1-13,0.3-19.5,0.5c-1.6,0.1-2.1-0.4-1.9-1.9c0.1-0.7-0.1-1.4,0-2    c0.3-1.9-0.7-2.7-2.4-2.5s-1.6-0.5-1.6-1.6c0-5.2-0.1-10.4,0-15.6c0.1-4.4-0.7-8.6-1.3-12.9c-0.3-2-0.2-2.7,2.1-2.7    c10.5-0.4,21-0.4,31.5-1.3c0.4,0,0.8,0,1.2,0c0.7-0.2,1.5,0.2,1.8,0.9c0.5,0.9-0.2,1.2-0.6,1.7C270.3,175.1,269.5,176,269.5,177.5    z" style="fill:#00D58C;"/></svg>