<?xml version="1.0" encoding="utf-8"?>
<!-- Generator: Adobe Illustrator 25.4.1, SVG Export Plug-In . SVG Version: 6.00 Build 0)  -->
<svg version="1.1" id="Layer_1" xmlns="http://www.w3.org/2000/svg" xmlns:xlink="http://www.w3.org/1999/xlink" x="0px" y="0px"
	 viewBox="0 0 672.5 672.5" style="enable-background:new 0 0 672.5 672.5;" xml:space="preserve">
<g id="Layer_2_00000014630256614446521880000015321207035421554581_">
	<g id="Layer_3">
		<path d="M336.3,0C150.6,0,0,150.6,0,336.3s150.6,336.3,336.3,336.3S672.5,522,672.5,336.3S522,0,336.3,0z M146,566.1h-1.9
			c-0.3,0-0.4-0.1-0.4-0.4V553c0-0.3,0.1-0.4,0.4-0.4h1.9V566.1z M146.3,566.1v-2h2.6c2.7-0.2,4.7-2.5,4.4-5.2
			c-0.2-2.4-2.1-4.3-4.4-4.4h-2.6v-2h2.6c3.7-0.1,6.9,2.8,7,6.5c0.1,3.7-2.8,6.9-6.5,7c-0.2,0-0.3,0-0.5,0L146.3,566.1z
			 M618.5,455.5c-1.2,2.8-2.4,5.5-3.6,8.2V439H457.3v16.4L403.6,439c-0.4-2.5-2.7-4.1-5.2-3.7s-4.1,2.7-3.7,5.2
			c0.4,2.5,2.7,4.1,5.2,3.7c1-0.2,1.9-0.6,2.6-1.4l54.9,16.7v19.1h150.2c-8.9,16.9-19.3,32.9-31.2,47.9v-32.1H430.5v39.6h16.4
			l-20.3,24.1c-2.4-0.6-4.8,0.9-5.4,3.3s0.9,4.8,3.3,5.4c2.4,0.6,4.8-0.9,5.4-3.3c0.2-1,0.1-2-0.2-2.9l22.5-26.7h118
			c-5.5,6.5-11.2,12.7-17.3,18.8C444.2,661.7,271.5,673,149.6,579.1h253.2v-39.7H264.8l22.9-54.1c2.5-0.2,4.4-2.3,4.2-4.8
			c-0.2-2.5-2.3-4.4-4.8-4.2c-2.5,0.2-4.4,2.3-4.2,4.8c0.1,1,0.4,1.9,1.1,2.7l-23.5,55.6H133v25.9c-4.5-4-9-8.2-13.3-12.5
			c-18.6-18.5-34.7-39.4-47.9-62h192.9v-35.3l27.4-28.4c2.4,0.8,4.9-0.5,5.7-2.9c0.5-1.6,0.1-3.4-1.2-4.6c-1.8-1.7-4.6-1.7-6.4,0.1
			c-1.2,1.2-1.6,3-1,4.6l-25.8,26.8H62.8v23.2c-3.1-6.2-6.1-12.5-8.8-18.9c-25.9-61.7-31-130.1-14.6-195v23.3H100v73.6h34V376h91.1
			v-6.3l29.1,22.8c-0.4,1.7,0.3,3.4,1.6,4.5c2,1.5,4.8,1.2,6.3-0.7c1.5-2,1.2-4.8-0.7-6.3c-1.4-1.1-3.2-1.3-4.8-0.5l-31.5-24.7
			v-28.3h-91.2v17.1H104v-40.7h30v17.5h91.1v-8.6l43.7,53.8c-1,2.3,0,4.9,2.2,6c2.3,1,4.9,0,6-2.2c1-2.3,0-4.9-2.2-6
			c-0.9-0.4-1.9-0.5-2.9-0.3l-46.8-57.6v-24.7h-91.2v18.2H104v-24.9h106.3v-39.7H44.1c2.9-9.1,6.2-18.1,9.9-27
			c15.4-36.4,37.7-69.5,65.6-97.4l1.5-1.5v33.4h68.4l76.2,47.1c-0.2,2.5,1.6,4.7,4.1,4.9c2.5,0.2,4.7-1.6,4.9-4.1s-1.6-4.7-4.1-4.9
			c-1-0.1-2,0.1-2.8,0.7l-70.7-43.7h67.6V112h-137C251.7-3.2,445.6,3.9,560.8,127.9c14.9,16,28,33.5,39.1,52.3H382v39.6h80.5
			l-49.4,57.3c-2.4-0.6-4.9,0.8-5.5,3.2s0.8,4.9,3.2,5.5s4.9-0.8,5.5-3.2c0.3-1,0.2-2-0.2-2.9l51.7-59.9H606V191
			c4.6,8.5,8.7,17.2,12.5,26.1c16,37.7,24.1,78.3,24.1,119.2h-242v39.6h3.1l-21.1,23.8c-2.4-0.6-4.9,0.8-5.5,3.2
			c-0.6,2.4,0.8,4.9,3.2,5.5c2.4,0.6,4.9-0.8,5.5-3.2c0.3-1,0.2-2-0.2-2.9l23.4-26.5h231C636.5,403.3,629.2,430.1,618.5,455.5z
			 M579.8,458.1c-2.1-0.3-4.5-1-4.5-3.7c0-1.6,1.2-4.2,4.8-4.2v2.1c-2.1,0.1-2.6,1.2-2.6,2.1c0,1.3,1.4,1.6,3.4,1.8
			c2.4,0.3,4.6,1,4.6,3.9c0,2.1-1.7,4.2-5.2,4.1v-2c1.8,0,2.9-0.6,2.9-1.9S582,458.4,579.8,458.1z M580,462.1v2
			c-1.7,0-3.3-0.5-4.7-1.5c-0.3-0.2-0.3-0.3-0.1-0.6l0.6-1c0.2-0.3,0.3-0.4,0.6-0.2C577.4,461.7,578.7,462.1,580,462.1L580,462.1z
			 M580.5,452.3v-2.1c1.6,0,3.2,0.5,4.6,1.5c0.3,0.2,0.2,0.3,0.1,0.6l-0.6,1c-0.2,0.3-0.3,0.4-0.6,0.2
			C583,452.6,581.7,452.2,580.5,452.3L580.5,452.3z M572.8,450.8v7.6c0,3.9-2.5,5.8-5.5,5.8v-2c1.9-0.1,3.2-1.2,3.2-3.9v-7.5
			c0-0.3,0.1-0.4,0.4-0.4h1.5C572.7,450.4,572.8,450.5,572.8,450.8L572.8,450.8z M567,462.2v2c-3-0.1-5.5-2-5.5-5.8v-7.6
			c0-0.3,0.1-0.4,0.4-0.4h1.5c0.3,0,0.4,0.1,0.4,0.4v7.5C563.8,461,565.1,462.1,567,462.2z M552.5,452.2v-2.1c3.9,0,7,3.1,7,7
			s-3.1,7-7,7v-2c2.8,0,5-2.2,5-5S555.3,452.1,552.5,452.2L552.5,452.2z M552.2,462.2v2c-3.9,0-7-3.1-7-7s3.1-7,7-7v2.1
			c-2.8,0-5,2.2-5,5S549.4,462.2,552.2,462.2L552.2,462.2z M542.8,450.8v12.8c0,0.3-0.1,0.4-0.4,0.4h-1.5c-0.3,0-0.4-0.1-0.4-0.4
			v-12.8c0-0.3,0.1-0.4,0.4-0.4h1.5C542.6,450.4,542.7,450.5,542.8,450.8L542.8,450.8z M532.6,452.4h-2.4v-2h2.5
			c2.2,0,4.8,0.9,4.8,4.1s-2.6,4.1-4.8,4.1h-2.5v-2h2.4c2,0,2.7-1,2.7-2.2C535.2,453,534.2,452.4,532.6,452.4L532.6,452.4z
			 M533,458.9c0.6,0,1.2-0.1,1.8-0.2l0.1,0.1l3.2,4.7c0.2,0.4,0,0.5-0.3,0.5h-1.4c-0.3,0-0.6-0.2-0.7-0.4l-3.1-4.6L533,458.9z
			 M529.9,450.4v13.2c0,0.3-0.1,0.4-0.4,0.4h-1.5c-0.3,0-0.4-0.1-0.4-0.4v-12.8c0-0.3,0.1-0.4,0.4-0.4H529.9z M518.2,452.2v-2.1
			c3.9,0,7,3.1,7,7s-3.1,7-7,7v-2c2.8,0,5-2.2,5-5S521,452.2,518.2,452.2L518.2,452.2z M517.9,462.2v2c-3.9,0-7-3.1-7-7s3.1-7,7-7
			v2.1c-2.8,0-5,2.2-5,5S515.1,462.3,517.9,462.2L517.9,462.2z M503.5,458.2c-2.1-0.3-4.5-1-4.5-3.7c0-1.6,1.2-4.2,4.8-4.2v2.1
			c-2.1,0.1-2.6,1.2-2.6,2.1c0,1.3,1.4,1.6,3.4,1.8c2.4,0.3,4.6,1,4.6,3.9c0,2.1-1.7,4.2-5.2,4.1v-2c1.8,0,2.9-0.6,2.9-1.9
			S505.6,458.4,503.5,458.2L503.5,458.2z M503.7,462.2v2c-1.7,0-3.3-0.5-4.8-1.5c-0.3-0.2-0.2-0.3-0.1-0.6l0.6-1
			c0.2-0.3,0.3-0.4,0.6-0.2C501.1,461.7,502.4,462.1,503.7,462.2L503.7,462.2z M504.2,452.3v-2.1c1.6,0,3.2,0.5,4.6,1.5
			c0.3,0.2,0.2,0.3,0.1,0.6l-0.6,1c-0.1,0.3-0.3,0.4-0.6,0.2C506.7,452.6,505.4,452.2,504.2,452.3L504.2,452.3z M496,450.8v12.8
			c0,0.3-0.1,0.4-0.4,0.4h-1.5c-0.3,0-0.4-0.1-0.4-0.4v-12.8c0-0.3,0.1-0.4,0.4-0.4h1.5C496,450.4,496,450.5,496,450.8z
			 M485.8,452.4h-2.4v-2h2.5c2.2,0,4.8,0.9,4.8,4.1s-2.6,4.1-4.8,4.1h-2.5v-2h2.4c2,0,2.6-1,2.6-2.2
			C488.5,453,487.5,452.4,485.8,452.4L485.8,452.4z M486.2,458.9c0.6,0,1.2-0.1,1.8-0.2l0.1,0.1l3.2,4.7c0.2,0.4,0,0.5-0.3,0.5h-1.4
			c-0.3,0-0.6-0.2-0.7-0.4l-3.1-4.6L486.2,458.9z M483.1,450.4v13.2c0,0.3-0.1,0.4-0.4,0.4h-1.5c-0.3,0-0.4-0.1-0.4-0.4v-12.8
			c0-0.3,0.1-0.4,0.4-0.4H483.1z M546.1,514.4h6.4l2.4,4.7c0.1,0.1,0,0.3-0.1,0.4c-0.1,0-0.1,0-0.2,0h-1.8c-0.3,0-0.4-0.1-0.5-0.4
			l-1.3-2.7h-5.8L546.1,514.4z M543.6,519.1c-0.2,0.3-0.2,0.4-0.5,0.4h-1.8c-0.2,0-0.3-0.1-0.3-0.3c0,0,0-0.1,0-0.1l6.6-13.1
			c0.1-0.2,0.2-0.4,0.3-0.4h0c0.2,0,0.2,0.2,0.3,0.4l4,8.1h-2.3l-2.1-4.5l0,0L543.6,519.1z M524.2,508.4l0.3-2.7h0.3
			c0.1,0,0.2,0,0.2,0.2l6.3,10.5l6.2-10.5c0.1-0.1,0.2-0.2,0.2-0.2h0.2l0.4,2.7l-6.6,10.9c-0.2,0.3-0.3,0.4-0.5,0.4h-0.2
			c-0.2,0-0.3-0.2-0.4-0.4L524.2,508.4z M526.1,512l-0.8,7c0,0.3-0.1,0.4-0.4,0.4h-1.5c-0.3,0-0.4-0.1-0.4-0.4l1.2-10.2L526.1,512z
			 M538.6,508.9l1.3,10.1c0,0.3-0.1,0.4-0.4,0.4h-1.5c-0.3,0-0.4-0.1-0.4-0.4l-0.8-7L538.6,508.9z M515.2,513.6
			c-2.1-0.3-4.5-1-4.5-3.7c0-1.6,1.2-4.2,4.8-4.2v2c-2.1,0.1-2.6,1.2-2.6,2.1c0,1.3,1.4,1.6,3.3,1.8c2.4,0.3,4.6,1,4.6,3.9
			c0,2.1-1.7,4.2-5.2,4.1v-2c1.8,0,2.9-0.6,2.9-1.9S517.3,513.9,515.2,513.6L515.2,513.6z M515.4,517.6v2c-1.7,0-3.3-0.5-4.8-1.5
			c-0.3-0.2-0.2-0.3-0.1-0.6l0.6-1c0.1-0.3,0.3-0.4,0.6-0.2C512.8,517.1,514,517.5,515.4,517.6L515.4,517.6z M515.8,507.7v-2
			c1.6,0,3.2,0.5,4.6,1.5c0.3,0.2,0.2,0.3,0.1,0.6l-0.6,1c-0.2,0.3-0.3,0.4-0.6,0.2C518.3,508.1,517.1,507.7,515.8,507.7
			L515.8,507.7z M497.1,506.3c-0.2-0.3-0.1-0.4,0.2-0.4h1.7c0.3,0,0.4,0.1,0.5,0.4l4.8,8v0.1v4.7c0,0.3-0.1,0.4-0.4,0.4h-1.5
			c-0.3,0-0.4-0.1-0.4-0.4v-4.7L497.1,506.3z M503.4,511.9l3.5-5.7c0.2-0.3,0.3-0.4,0.5-0.4h1.7c0.3,0,0.4,0.1,0.2,0.4l-4.8,7.7
			L503.4,511.9z M496.7,506.3v1.3c0,0.3-0.1,0.4-0.4,0.4h-3.9v-2.1h3.9C496.6,505.9,496.7,506,496.7,506.3L496.7,506.3z M485.5,508
			c-0.3,0-0.4-0.1-0.4-0.4v-1.3c0-0.3,0.1-0.4,0.4-0.4h6.6V519c0,0.3-0.1,0.4-0.4,0.4h-1.5c-0.3,0-0.4-0.1-0.4-0.4v-11H485.5z
			 M477.3,514.4h6.4l2.3,4.6c0.1,0.1,0,0.3-0.1,0.4c-0.1,0-0.1,0-0.2,0H484c-0.3,0-0.4-0.1-0.5-0.4l-1.3-2.7h-5.8L477.3,514.4z
			 M474.8,519.1c-0.2,0.3-0.2,0.4-0.5,0.4h-1.8c-0.1,0-0.3-0.1-0.3-0.2c0-0.1,0-0.1,0-0.2l6.5-13.1c0.1-0.2,0.2-0.4,0.3-0.4h0
			c0.2,0,0.2,0.2,0.4,0.4l4,8.1h-2.3l-2.1-4.5l0,0L474.8,519.1z M471.4,517.9v1.1c0,0.3-0.1,0.4-0.4,0.4h-5.7v-2h5.7
			C471.3,517.5,471.4,517.5,471.4,517.9L471.4,517.9z M465,506.3v13.2h-2c-0.3,0-0.4-0.1-0.4-0.4v-12.8c0-0.3,0.1-0.4,0.4-0.4h1.5
			C464.9,505.9,465,506,465,506.3z M455.6,507.8h-2.4v-2h2.5c2.3,0,4.8,0.9,4.8,4.1c0,3.1-2.6,4.1-4.8,4.1h-2.5v-2h2.4
			c2,0,2.7-1,2.7-2.2S457.6,507.8,455.6,507.8L455.6,507.8z M453,505.8V519c0,0.3-0.1,0.4-0.4,0.4H451c-0.3,0-0.4-0.1-0.4-0.4v-12.7
			c0-0.3,0.1-0.4,0.4-0.4L453,505.8z M158.2,565.7V553c0-0.3,0.1-0.4,0.4-0.4h1.9v13.6h-1.9C158.4,566.1,158.2,566,158.2,565.7z
			 M167.1,558.3c0.3,0,0.4,0.1,0.4,0.4v1.2c0,0.3-0.1,0.4-0.4,0.4H161v-2L167.1,558.3z M161,554.6v-2h6.4c0.3,0,0.4,0.1,0.4,0.4v1.2
			c0,0.3-0.1,0.4-0.4,0.4L161,554.6z M167.4,564.1c0.3,0,0.4,0.1,0.4,0.4v1.2c0,0.3-0.1,0.4-0.4,0.4H161v-2L167.4,564.1z
			 M170.7,565.7V553c0-0.3,0.1-0.4,0.4-0.4h1.9v13.2c0,0.3-0.1,0.4-0.4,0.4H171C170.7,566.1,170.6,566,170.7,565.7L170.7,565.7z
			 M175.7,554.5h-2.4v-2h2.4c2.3,0,4.9,0.9,4.9,4.1s-2.6,4.1-4.9,4.1h-2.4v-2h2.4c2,0,2.7-1,2.7-2.2S177.7,554.5,175.7,554.5
			L175.7,554.5z M182.7,565.7V553c0-0.3,0.1-0.4,0.4-0.4h1.9v13.2c0,0.3-0.1,0.4-0.4,0.4h-1.5C182.8,566.1,182.7,566.1,182.7,565.7
			L182.7,565.7z M187.7,554.5h-2.4v-2h2.5c2.2,0,4.8,0.9,4.8,4.1s-2.6,4.1-4.8,4.1h-2.5v-2h2.4c2,0,2.6-1,2.6-2.2
			C190.4,555.2,189.4,554.5,187.7,554.5L187.7,554.5z M193.1,565.6c0.2,0.3,0,0.5-0.3,0.5h-1.4c-0.3,0-0.6-0.2-0.7-0.4l-3.1-4.6h0.6
			c0.6,0,1.2-0.1,1.8-0.2l0.1,0.1L193.1,565.6z M195.5,565.7V553c0-0.3,0.1-0.4,0.4-0.4h1.9v13.6h-1.9
			C195.6,566.1,195.5,566,195.5,565.7L195.5,565.7z M204.3,558.3c0.3,0,0.4,0.1,0.4,0.4v1.2c0,0.3-0.1,0.4-0.4,0.4h-6.1v-2
			L204.3,558.3z M198.1,554.6v-2h6.4c0.3,0,0.4,0.1,0.4,0.4v1.2c0,0.3-0.1,0.4-0.4,0.4L198.1,554.6z M204.6,564.1
			c0.3,0,0.4,0.1,0.4,0.4v1.2c0,0.3-0.1,0.4-0.4,0.4h-6.4v-2L204.6,564.1z M213,558.4c2.4,0.3,4.6,1,4.6,3.9c0,2.1-1.7,4.2-5.2,4.1
			v-2.1c1.8,0,2.9-0.6,2.9-1.9s-1.3-1.8-3.5-2s-4.5-1-4.5-3.7c0-1.7,1.2-4.2,4.8-4.2v2.1c-2.1,0.1-2.6,1.2-2.6,2.1
			C209.6,557.8,211,558.1,213,558.4L213,558.4z M212.5,554.4v-2.1c1.6,0,3.2,0.5,4.6,1.5c0.3,0.2,0.2,0.3,0.1,0.6l-0.6,1
			c-0.2,0.3-0.3,0.4-0.6,0.2C215,554.8,213.8,554.4,212.5,554.4L212.5,554.4z M207.8,563.3c0.2-0.3,0.3-0.4,0.6-0.2
			c1.1,0.7,2.4,1.1,3.7,1.1v2c-1.7,0-3.3-0.5-4.8-1.5c-0.3-0.2-0.2-0.3-0.1-0.6L207.8,563.3z M225.4,558.3c2.4,0.3,4.6,1,4.6,3.9
			c0,2.1-1.7,4.2-5.2,4.1v-2c1.8,0,2.9-0.6,2.9-1.9s-1.3-1.8-3.5-2s-4.5-1-4.5-3.7c0-1.7,1.2-4.2,4.8-4.2v2.1
			c-2.1,0.1-2.6,1.2-2.6,2.1C222,557.8,223.4,558.1,225.4,558.3L225.4,558.3z M224.9,554.3v-2.1c1.6,0,3.2,0.5,4.6,1.5
			c0.3,0.2,0.2,0.3,0.1,0.6l-0.6,1c-0.1,0.3-0.3,0.4-0.6,0.2c-1-0.7-2.3-1.1-3.5-1.1L224.9,554.3z M220.2,563.2
			c0.2-0.3,0.3-0.4,0.6-0.2c1.1,0.7,2.4,1.1,3.7,1.1v2c-1.7,0-3.3-0.5-4.8-1.5c-0.3-0.2-0.2-0.3-0.1-0.6L220.2,563.2z M238.6,564.2
			v2c-3.9,0-7-3.1-7-7c0-3.9,3.1-7,7-7v2.1c-2.8,0-5,2.2-5,5S235.9,564.2,238.6,564.2L238.6,564.2z M239,554.2v-2.1c3.9,0,7,3.1,7,7
			c0,3.9-3.1,7-7,7v-2c2.8,0,5-2.2,5-5S241.7,554.2,239,554.2L239,554.2z M248.3,565.5V553c0-0.3,0.1-0.4,0.4-0.4h1.9v13.2
			c0,0.3-0.1,0.4-0.4,0.4h-1.5c-0.3,0-0.4-0.1-0.4-0.4L248.3,565.5z M253.3,554.3H251v-2h2.5c2.2,0,4.8,0.9,4.8,4.1
			s-2.6,4.1-4.8,4.1H251v-2h2.4c2,0,2.7-1,2.7-2.2c0-1.2-1-1.8-2.7-1.8L253.3,554.3z M258.7,565.4c0.2,0.3,0,0.5-0.4,0.5H257
			c-0.3,0-0.6-0.2-0.7-0.4l-3.1-4.6h0.6c0.6,0,1.2-0.1,1.8-0.2l0.1,0.1L258.7,565.4z M273.5,560.5l-2.1-4.5l0,0l-4.3,9.5
			c-0.2,0.3-0.3,0.4-0.5,0.4h-1.8c-0.1,0-0.3-0.1-0.3-0.2c0-0.1,0-0.1,0-0.2l6.5-13.1c0.1-0.2,0.2-0.4,0.3-0.4h0.1
			c0.1,0,0.2,0.2,0.4,0.4l4,8.1H273.5z M276,560.9l2.4,4.7c0.1,0.1,0,0.3-0.1,0.4c0,0-0.1,0-0.2,0h-1.8c-0.3,0-0.4-0.1-0.5-0.4
			l-1.3-2.7h-5.8l0.9-2H276z M291.8,563.6v2.5c0,0.1,0,0.2-0.2,0.2h-0.1c-0.1,0-0.2-0.1-0.3-0.2l-11-11.4v-2.1c0-0.1,0-0.2,0.2-0.2
			h0.2c0.1,0,0.2,0.1,0.3,0.2L291.8,563.6z M289.5,560.7V553c0-0.3,0.1-0.4,0.4-0.4h1.5c0.3,0,0.4,0.1,0.4,0.4v10.3L289.5,560.7z
			 M282.5,557.6v8c0,0.3-0.1,0.4-0.4,0.4h-1.5c-0.3,0-0.4-0.1-0.4-0.4v-10.4L282.5,557.6z M301.3,564.1v2c-3.9,0-7-3.1-7-7
			c0-3.9,3.1-7,7-7v2.1c-2.8,0-5,2.2-5,5S298.5,564.1,301.3,564.1L301.3,564.1z M301.7,558.7h4.7c0.3,0,0.4,0.1,0.4,0.4v4.4
			c0,0.3-0.1,0.5-0.3,0.7c-1.4,1.2-3.1,1.9-5,2v-2c1.1-0.1,2.1-0.4,2.9-1.1v-2.4h-2.7c-0.3,0-0.4-0.1-0.4-0.4v-1.2
			c0-0.1,0.1-0.2,0.4-0.2L301.7,558.7z M301.6,554.2v-2.1c1.8,0.1,3.5,0.8,4.8,2c0.2,0.2,0.2,0.3,0,0.6l-0.9,1
			c-0.2,0.2-0.4,0.3-0.6,0c-0.9-0.8-2.1-1.3-3.3-1.3L301.6,554.2z M314.9,564.2v2c-3-0.1-5.5-2-5.5-5.8V553c0-0.3,0.1-0.4,0.4-0.4
			h1.5c0.3,0,0.4,0.1,0.4,0.4v7.5c0.1,2.7,1.4,3.8,3.2,3.9L314.9,564.2z M315.2,566.2v-2c1.9-0.1,3.2-1.2,3.2-3.9V553
			c0-0.3,0.1-0.4,0.4-0.4h1.5c0.3,0,0.4,0.1,0.4,0.4v7.6c0.1,3.8-2.4,5.7-5.5,5.8L315.2,566.2z M323.7,565.5V553
			c0-0.3,0.1-0.4,0.4-0.4h1.5c0.3,0,0.4,0.1,0.4,0.4v13.2h-1.9c-0.2,0-0.3-0.2-0.3-0.4L323.7,565.5z M326.4,565.9v-2h5.7
			c0.3,0,0.4,0.1,0.4,0.4v1.2c0,0.3-0.1,0.4-0.4,0.4L326.4,565.9z M334.8,565.5V553c0-0.3,0.1-0.4,0.4-0.4h1.5
			c0.3,0,0.4,0.1,0.4,0.4v12.8c0,0.3-0.1,0.4-0.4,0.4h-1.5c-0.2,0-0.3-0.2-0.3-0.4L334.8,565.5z M351.4,564.1v2c-3.9,0-7-3.1-7-7
			c0-3.9,3.1-7,7-7v2.1c-2.8,0-5,2.2-5,5S348.7,564.1,351.4,564.1L351.4,564.1z M351.8,554.1v-2.1c3.9,0,7,3.1,7,7c0,3.9-3.1,7-7,7
			v-2c2.8,0,5-2.2,5-5S354.6,554.2,351.8,554.1L351.8,554.1z M361.1,565.5V553c0-0.3,0.1-0.4,0.4-0.4h1.9v13.2
			c0,0.3-0.1,0.4-0.4,0.4h-1.5c-0.2,0-0.3-0.1-0.3-0.4L361.1,565.5z M366.1,554.3h-2.4v-2h2.5c2.2,0,4.8,0.9,4.8,4.1
			s-2.6,4.1-4.8,4.1h-2.5v-2h2.4c2,0,2.6-1,2.6-2.2c0.1-1.2-0.9-1.8-2.5-1.8L366.1,554.3z M371.5,565.4c0.2,0.3,0,0.5-0.4,0.5h-1.4
			c-0.3,0-0.6-0.2-0.7-0.4l-3-4.4h0.6c0.6,0,1.2-0.1,1.8-0.2l0,0.1L371.5,565.4z M373.9,565.5V553c0-0.3,0.1-0.4,0.4-0.4h1.7
			c0.3,0,0.4,0.1,0.4,0.4v12.8c0,0.3-0.1,0.4-0.4,0.4h-1.5c-0.3,0-0.5-0.2-0.5-0.4L373.9,565.5z M384.8,558.1c2.4,0.3,4.6,1,4.6,3.9
			c0,2.1-1.7,4.2-5.2,4.1v-1.8c1.8,0,2.9-0.6,2.9-1.9s-1.3-1.8-3.5-2s-4.5-1-4.5-3.7c0-1.7,1.2-4.2,4.8-4.2v2.1
			c-2.1,0.1-2.6,1.2-2.6,2.1c0.1,1.3,1.5,1.6,3.5,1.8L384.8,558.1z M384.4,554.1v-2.1c1.6,0,3.2,0.5,4.6,1.5
			c0.3,0.2,0.2,0.3,0.1,0.6l-0.6,1c-0.2,0.3-0.3,0.4-0.6,0.2c-1-0.7-2.2-1-3.4-0.9L384.4,554.1z M379.7,563c0.1-0.3,0.3-0.4,0.6-0.2
			c1.1,0.7,2.4,1.1,3.7,1.1v2c-1.7,0-3.3-0.5-4.8-1.5c-0.3-0.2-0.2-0.3-0.1-0.6L379.7,563z M79.5,476v2.1c-3.9,0-7-3.1-7-7
			s3.1-7,7-7v2c-2.8,0-5,2.2-5,5S76.7,476,79.5,476L79.5,476z M79.8,466v-2c3.9,0,7,3.1,7,7s-3.1,7-7,7V476c2.8,0,5-2.2,5-5
			S82.6,466,79.8,466z M89.1,477.4v-12.7c0-0.3,0.1-0.4,0.4-0.4h1.9v13.2c0,0.3-0.1,0.4-0.4,0.4h-1.5
			C89.2,477.8,89.1,477.8,89.1,477.4L89.1,477.4z M94.1,466.2h-2.3v-2h2.5c2.2,0,4.8,0.9,4.8,4.1s-2.6,4.1-4.8,4.1h-2.5v-2h2.4
			c2,0,2.7-1,2.7-2.2C96.8,466.9,95.8,466.2,94.1,466.2L94.1,466.2z M99.6,477.2c0.2,0.4,0,0.5-0.3,0.5h-1.4c-0.3,0-0.6-0.2-0.7-0.4
			l-3.1-4.6h0.6c0.6,0,1.2-0.1,1.8-0.3l0.1,0.1L99.6,477.2z M101.9,477.4v-12.7c0-0.3,0.1-0.4,0.4-0.4h1.9v13.6h-1.9
			C102.1,477.8,102,477.8,101.9,477.4L101.9,477.4z M107.6,471.8h-3V470h2.7c1.5,0,2.4-0.8,2.4-1.8c0-1.4-0.9-2-2.6-2h-2.4v-2h2.5
			c2.2,0,4.8,0.9,4.8,3.8c0,1.2-0.8,2.3-1.9,2.8l0,0c1.4,0.5,2.4,1.8,2.4,3.2c0,2.8-2.3,3.8-4.8,3.8h-3v-2h2.9c1.8,0,2.6-0.7,2.6-2
			C110.2,472.8,109.2,471.9,107.6,471.8L107.6,471.8z M115,477.4v-12.7c0-0.3,0.1-0.4,0.4-0.4h1.6c0.3,0,0.4,0.1,0.4,0.4v12.8
			c0,0.3-0.1,0.4-0.4,0.4h-1.5C115.1,477.8,115,477.7,115,477.4L115,477.4z M126.8,476v2.1c-3.9,0-7-3.1-7-7s3.1-7,7-7v2
			c-2.8,0-5,2.2-5,5S124,476,126.8,476L126.8,476z M130.5,474.4c0.2-0.2,0.4-0.2,0.6,0l0.9,1c0.2,0.2,0.2,0.4,0,0.6
			c-1.3,1.2-3.1,1.9-4.9,2v-2C128.4,476,129.6,475.4,130.5,474.4L130.5,474.4z M127.1,466v-2c1.8,0.1,3.5,0.8,4.9,2
			c0.2,0.2,0.2,0.4,0,0.6l-0.9,1c-0.2,0.2-0.3,0.3-0.6,0C129.6,466.7,128.4,466.1,127.1,466L127.1,466z M139.7,476v2.1
			c-3-0.1-5.5-2-5.5-5.8v-7.6c0-0.3,0.1-0.4,0.4-0.4h1.5c0.3,0,0.4,0.1,0.4,0.4v7.5C136.5,474.9,137.8,476,139.7,476L139.7,476z
			 M140,478.1V476c1.9-0.1,3.2-1.2,3.2-3.9v-7.5c0-0.3,0.1-0.4,0.4-0.4h1.5c0.3,0,0.4,0.1,0.4,0.4v7.6
			C145.6,476.1,143.1,478,140,478.1L140,478.1z M148.5,477.4v-12.7c0-0.3,0.1-0.4,0.4-0.4h1.5c0.3,0,0.4,0.1,0.4,0.4v13.2h-1.9
			C148.6,477.8,148.5,477.7,148.5,477.4L148.5,477.4z M151.2,477.8v-2h5.7c0.3,0,0.4,0.1,0.4,0.4v1.2c0,0.3-0.1,0.4-0.4,0.4H151.2z
			 M167.1,472.4L165,468l0,0l-4.3,9.5c-0.2,0.3-0.2,0.4-0.5,0.4h-1.8c-0.1,0-0.3-0.1-0.3-0.2c0-0.1,0-0.1,0-0.2l6.6-13.1
			c0.1-0.2,0.2-0.4,0.3-0.4h0c0.2,0,0.2,0.1,0.4,0.4l4,8.1L167.1,472.4z M169.5,472.7l2.4,4.6c0.1,0.1,0,0.3-0.1,0.4
			c0,0-0.1,0-0.2,0h-1.8c-0.3,0-0.4-0.1-0.5-0.4l-1.3-2.7h-5.8l0.9-2L169.5,472.7z M173.9,477.4v-12.7c0-0.3,0.1-0.4,0.4-0.4h1.9
			v13.2c0,0.3-0.1,0.4-0.4,0.4h-1.5C174,477.8,173.9,477.8,173.9,477.4L173.9,477.4z M178.9,466.2h-2.4v-2h2.5
			c2.2,0,4.8,0.9,4.8,4.1s-2.6,4.1-4.8,4.1h-2.5v-2h2.5c2,0,2.6-1,2.6-2.2c0-1.4-1-2-2.6-2L178.9,466.2z M184.3,477.3
			c0.2,0.4,0,0.5-0.4,0.5h-1.4c-0.3,0-0.6-0.2-0.7-0.4l-3.1-4.6h0.6c0.6,0,1.2-0.1,1.8-0.3v0.1L184.3,477.3z M186.7,477.4v-12.7
			c0-0.3,0.1-0.4,0.4-0.4h1.5c0.3,0,0.4,0.1,0.4,0.4v12.8c0,0.3-0.1,0.4-0.4,0.4h-1.5C186.9,477.8,186.8,477.7,186.7,477.4
			L186.7,477.4z M197.6,470c2.4,0.3,4.6,1,4.6,3.9c0,2.1-1.7,4.2-5.2,4.1v-2c1.8,0,2.9-0.6,2.9-1.9s-1.3-1.8-3.5-2.1s-4.5-1-4.5-3.7
			c0-1.6,1.2-4.2,4.8-4.2v2c-2.1,0.1-2.6,1.2-2.6,2.1C194.3,469.5,195.7,469.8,197.6,470L197.6,470z M197.1,466.1v-2
			c1.6,0,3.2,0.5,4.6,1.5c0.3,0.1,0.2,0.3,0.1,0.6l-0.6,1c-0.2,0.3-0.3,0.4-0.6,0.2C199.7,466.5,198.5,466.1,197.1,466.1
			L197.1,466.1z M192.5,475c0.1-0.3,0.3-0.4,0.6-0.2c1.1,0.7,2.4,1.1,3.7,1.1v2.1c-1.7,0-3.3-0.5-4.7-1.5c-0.3-0.2-0.3-0.3-0.1-0.6
			L192.5,475z M215.9,476v2.1c-3.9,0-7-3.1-7-7s3.1-7,7-7v2c-2.8,0-5,2.2-5,5S213.1,476,215.9,476L215.9,476z M216.2,466v-2
			c3.9,0,7,3.1,7,7s-3.1,7-7,7V476c2.8,0,5-2.2,5-5S219,466,216.2,466z M225.5,477.4v-12.7c0-0.3,0.1-0.4,0.4-0.4h1.9v13.2
			c0,0.3-0.1,0.4-0.4,0.4h-1.5C225.6,477.8,225.5,477.8,225.5,477.4L225.5,477.4z M230.5,466.2h-2.4v-2h2.5c2.2,0,4.8,0.9,4.8,4.1
			s-2.6,4.1-4.8,4.1h-2.5v-2h2.4c2,0,2.6-1,2.6-2.2C233.2,466.9,232.2,466.2,230.5,466.2L230.5,466.2z M236,477.3
			c0.2,0.4,0,0.5-0.3,0.5h-1.5c-0.3,0-0.6-0.2-0.7-0.4l-3.1-4.6h0.6c0.6,0,1.2-0.1,1.8-0.3l0.1,0.1L236,477.3z M238.4,477.4v-12.8
			c0-0.3,0.1-0.4,0.4-0.4h1.5c0.3,0,0.4,0.1,0.4,0.4v12.8c0,0.3-0.1,0.4-0.4,0.4h-1.5C238.5,477.8,238.4,477.7,238.4,477.4
			L238.4,477.4z M249.3,470.1c2.4,0.3,4.6,1,4.6,3.9c0,2.1-1.7,4.2-5.2,4.1v-2c1.8,0,2.9-0.6,2.9-1.9s-1.3-1.8-3.5-2.1
			s-4.5-1-4.5-3.7c0-1.6,1.2-4.2,4.8-4.2v2c-2.1,0.1-2.6,1.2-2.6,2.1C245.9,469.5,247.3,469.8,249.3,470.1L249.3,470.1z
			 M248.8,466.1v-2c1.6,0,3.2,0.5,4.6,1.5c0.3,0.1,0.2,0.3,0.1,0.6l-0.6,1c-0.1,0.3-0.3,0.4-0.6,0.2
			C251.3,466.5,250.1,466.1,248.8,466.1L248.8,466.1z M244.1,475c0.2-0.3,0.3-0.4,0.6-0.2c1.1,0.7,2.4,1.1,3.7,1.1v2.1
			c-1.7,0-3.3-0.5-4.8-1.5c-0.3-0.2-0.2-0.3-0.1-0.6L244.1,475z M61.6,257.2h2.1c0.1,0,0.2,0,0.2,0.2v0.2c0,0.1,0,0.1-0.2,0.3
			l-8.7,12.9H53c-0.1,0-0.2,0-0.2-0.2v-0.2c0-0.1,0.1-0.2,0.2-0.3L61.6,257.2z M53.3,258.8v-1.2c0-0.3,0.1-0.4,0.4-0.4h7.5l-1.4,2
			h-6.1C53.4,259.2,53.3,259.1,53.3,258.8z M63.7,269.2v1.2c0,0.3-0.1,0.4-0.4,0.4h-7.8l1.4-2h6.4C63.5,268.7,63.7,268.8,63.7,269.2
			L63.7,269.2z M71.8,265.6L71.8,265.6v4.8c0,0.3-0.1,0.4-0.4,0.4h-1.5c-0.3,0-0.4-0.1-0.4-0.4v-4.7l-5-8c-0.2-0.3-0.1-0.4,0.2-0.4
			h1.8c0.3,0,0.4,0.1,0.5,0.4L71.8,265.6z M70.8,263.3l3.5-5.7c0.2-0.3,0.3-0.4,0.5-0.4h1.7c0.3,0,0.4,0.1,0.2,0.4l-4.8,7.7
			L70.8,263.3z M84.3,268.9v2.1c-3.9,0-7-3.1-7-7s3.1-7,7-7v2.1c-2.8,0-5,2.2-5,5S81.6,269,84.3,268.9L84.3,268.9z M84.8,263.5h4.7
			c0.3,0,0.4,0.1,0.4,0.4v4.4c0,0.3-0.1,0.5-0.3,0.7c-1.4,1.2-3.2,1.9-5,2v-2.1c1.1-0.1,2.1-0.4,2.9-1.1v-2.4h-2.8
			c-0.3,0-0.4-0.1-0.4-0.4v-1.2C84.4,263.5,84.5,263.5,84.8,263.5L84.8,263.5z M84.7,259v-2c1.8,0.1,3.5,0.8,4.8,2
			c0.2,0.2,0.2,0.4,0,0.6l-0.9,1c-0.2,0.2-0.4,0.3-0.6,0C87.1,259.6,85.9,259.1,84.7,259z M98.8,269v2c-3.9,0-7-3.1-7-7s3.1-7,7-7
			v2.1c-2.8,0-5,2.2-5,5S96,269,98.8,269z M99.1,259v-2c3.9,0,7,3.1,7,7s-3.1,7-7,7V269c2.8,0,5-2.2,5-5S101.9,259,99.1,259
			L99.1,259z M154.2,363.9c-0.2,0.2-0.3,0.4-0.4,0.4h-0.2c-0.2,0-0.3-0.2-0.4-0.4l-6.6-11l0.3-2.7h0.3c0.1,0,0.2,0,0.2,0.2l6.3,10.5
			l6.3-10.5c0.1-0.1,0.2-0.2,0.2-0.2h0.2l0.4,2.7L154.2,363.9z M160.9,353.5l1.3,10.2c0,0.3-0.1,0.4-0.4,0.4h-1.5
			c-0.3,0-0.4-0.1-0.4-0.4l-0.8-7L160.9,353.5z M148.4,356.6l-0.8,7c0,0.3-0.1,0.4-0.4,0.4h-1.5c-0.3,0-0.4-0.1-0.4-0.4l1.2-10.2
			L148.4,356.6z M172.4,358.6l-2.1-4.5l0,0l-4.3,9.5c-0.2,0.3-0.2,0.4-0.5,0.4h-1.8c-0.1,0-0.3-0.1-0.3-0.2c0-0.1,0-0.1,0-0.2
			l6.6-13.1c0.1-0.2,0.2-0.4,0.3-0.4h0.1c0.1,0,0.2,0.1,0.4,0.4l4,8.1L172.4,358.6z M174.8,359l2.4,4.6c0.1,0.1,0,0.3-0.1,0.4
			c0,0-0.1,0-0.2,0h-1.8c-0.3,0-0.4-0.1-0.5-0.4l-1.3-2.7h-5.8l0.9-2L174.8,359z M182.6,358.7v-6.1h2.4v6.1c0,4.3-2.7,5.5-6.3,5.5
			c-0.4,0-0.5-0.1-0.5-0.4l-0.1-1.2c0-0.3,0.1-0.4,0.5-0.4C181,362.2,182.6,361.6,182.6,358.7L182.6,358.7z M179.5,351.9v-1
			c0-0.3,0.1-0.4,0.4-0.4h4.6c0.3,0,0.4,0.1,0.4,0.4v1.4h-5C179.7,352.2,179.6,352.1,179.5,351.9L179.5,351.9z M194,362.2v2.1
			c-3.9,0-7-3.1-7-7s3.1-7,7-7v2c-2.8,0-5,2.2-5,5S191.2,362.2,194,362.2L194,362.2z M194.4,352.2v-2c3.9,0,7,3.1,7,7s-3.1,7-7,7v-2
			c2.8,0,5-2.2,5-5S197.1,352.2,194.4,352.2z M203.7,363.6v-12.7c0-0.3,0.1-0.4,0.4-0.4h1.9v13.2c0,0.3-0.1,0.4-0.4,0.4h-1.5
			C203.7,364,203.6,363.9,203.7,363.6L203.7,363.6z M208.7,352.4h-2.4v-2h2.5c2.2,0,4.8,0.9,4.8,4.1s-2.6,4.1-4.8,4.1h-2.5v-2h2.4
			c2,0,2.6-1,2.6-2.2C211.3,353,210.3,352.4,208.7,352.4L208.7,352.4z M214.1,363.4c0.2,0.4,0,0.5-0.4,0.5h-1.4
			c-0.3,0-0.6-0.2-0.7-0.4l-3.1-4.6h0.6c0.6,0,1.2-0.1,1.8-0.3v0.1L214.1,363.4z M156.2,318c-0.2,0.2-0.3,0.4-0.4,0.4h-0.2
			c-0.2,0-0.3-0.2-0.4-0.4l-6.6-11l0.3-2.7h0.3c0.1,0,0.2,0,0.2,0.2l6.3,10.5l6.3-10.5c0.1-0.1,0.2-0.2,0.2-0.2h0.2l0.4,2.7
			L156.2,318z M162.8,307.6l1.3,10.1c0,0.3-0.1,0.4-0.4,0.4h-1.5c-0.3,0-0.4-0.1-0.4-0.4l-0.8-7L162.8,307.6z M150.4,310.8l-0.8,7
			c0,0.3-0.1,0.4-0.4,0.4h-1.5c-0.3,0-0.4-0.1-0.4-0.4l1.2-10.2L150.4,310.8z M166.9,317.8v-12.7c0-0.3,0.1-0.4,0.4-0.4h1.5
			c0.3,0,0.4,0.1,0.4,0.4v12.8c0,0.3-0.1,0.4-0.4,0.4h-1.5C167,318.2,166.9,318.1,166.9,317.8L166.9,317.8z M184.3,315.8v2.5
			c0,0.1,0,0.2-0.2,0.2H184c-0.1,0-0.2-0.1-0.3-0.2l-11-11.4v-2.4c0-0.1,0-0.2,0.2-0.2h0.2c0.1,0,0.2,0.1,0.3,0.1L184.3,315.8z
			 M182,313v-7.9c0-0.3,0.1-0.4,0.4-0.4h1.5c0.3,0,0.4,0.1,0.4,0.4v10.3L182,313z M175,309.9v8c0,0.3-0.1,0.4-0.4,0.4h-1.5
			c-0.3,0-0.4-0.1-0.4-0.4v-10.4L175,309.9z M193.7,316.4v2.1c-3.9,0-7-3.1-7-7s3.1-7,7-7v2c-2.8,0-5,2.2-5,5
			S190.9,316.4,193.7,316.4L193.7,316.4z M194,306.4v-2c3.9,0,7,3.1,7,7s-3.1,7-7,7v-2.1c2.8,0,5-2.2,5-5S196.8,306.4,194,306.4
			L194,306.4z M203.3,317.8v-12.7c0-0.3,0.1-0.4,0.4-0.4h1.9v13.2c0,0.3-0.1,0.4-0.4,0.4h-1.5C203.4,318.2,203.4,318.1,203.3,317.8
			L203.3,317.8z M208.3,306.6H206v-2h2.5c2.2,0,4.8,0.9,4.8,4.1s-2.6,4.1-4.8,4.1H206v-2h2.4c2,0,2.7-1,2.7-2.2
			C211.1,307.3,210.1,306.6,208.3,306.6L208.3,306.6z M213.8,317.7c0.2,0.4,0,0.5-0.4,0.5H212c-0.3,0-0.6-0.2-0.7-0.4l-3.1-4.6h0.6
			c0.6,0,1.2-0.1,1.8-0.2l0.1,0.1L213.8,317.7z M116.8,270.5c-0.2,0.2-0.3,0.4-0.4,0.4h-0.2c-0.2,0-0.3-0.2-0.4-0.4l-6.6-11l0.3-2.7
			h0.3c0.1,0,0.2,0,0.2,0.2l6.3,10.5l6.3-10.5c0.1-0.1,0.2-0.2,0.2-0.2h0.2l0.4,2.7L116.8,270.5z M123.4,260.1l1.3,10.2
			c0,0.3-0.1,0.4-0.4,0.4h-1.5c-0.3,0-0.4-0.1-0.4-0.4l-0.8-7L123.4,260.1z M110.9,263.3l-0.8,7c0,0.3-0.1,0.4-0.4,0.4h-1.5
			c-0.3,0-0.4-0.1-0.4-0.4l1.2-10.2L110.9,263.3z M139.2,259.2c-0.3,0-0.4-0.1-0.4-0.4v-1.3c0-0.3,0.1-0.4,0.4-0.4h6.6v13.2
			c0,0.3-0.1,0.4-0.4,0.4H144c-0.3,0-0.4-0.1-0.4-0.4v-11L139.2,259.2z M139.8,270.3c0.1,0.1,0,0.3-0.1,0.4c-0.1,0-0.1,0-0.2,0h-1.8
			c-0.3,0-0.4-0.1-0.5-0.4l-1.2-2.6h-5.8l0.9-2h6.4L139.8,270.3z M135,265.3l-2.1-4.5l0,0l-4.3,9.5c-0.2,0.3-0.2,0.4-0.5,0.4h-1.8
			c-0.1,0-0.3-0.1-0.3-0.3c0-0.1,0-0.1,0-0.1l6.6-13.1c0.1-0.2,0.2-0.4,0.3-0.4h0.2c0.2,0,0.2,0.1,0.4,0.4l4,8.1H135z M146.1,259.2
			v-2.1h3.9c0.3,0,0.4,0.1,0.4,0.4v1.3c0,0.3-0.1,0.4-0.4,0.4H146.1z M152.4,270.3v-12.7c0-0.3,0.1-0.4,0.4-0.4h1.5
			c0.3,0,0.4,0.1,0.4,0.4v12.8c0,0.3-0.1,0.4-0.4,0.4h-1.5c-0.2,0-0.3-0.1-0.3-0.4L152.4,270.3z M164.2,268.9v2.1c-3.9,0-7-3.1-7-7
			s3.1-7,7-7v2.1c-2.8,0-5,2.2-5,5s2.2,5,5,5V268.9z M167.9,267.3c0.2-0.2,0.4-0.2,0.6,0l0.9,1c0.2,0.2,0.2,0.4,0,0.6
			c-1.3,1.2-3.1,1.9-4.9,2v-2.1c1.3,0,2.6-0.5,3.5-1.5L167.9,267.3z M164.6,259v-2c1.8,0.1,3.5,0.8,4.9,2c0.2,0.2,0.2,0.4,0,0.6
			l-0.9,1c-0.2,0.2-0.4,0.3-0.6,0C167.1,259.6,165.9,259,164.6,259z M177.2,269v2c-3-0.1-5.5-2-5.5-5.8v-7.6c0-0.3,0.1-0.4,0.4-0.4
			h1.5c0.3,0,0.4,0.1,0.4,0.4v7.5C174,267.8,175.3,268.9,177.2,269L177.2,269z M177.5,271.1V269c1.9-0.1,3.2-1.2,3.2-3.9v-7.5
			c0-0.3,0.1-0.4,0.4-0.4h1.5c0.3,0,0.4,0.1,0.4,0.4v7.6C183,269,180.5,270.9,177.5,271.1L177.5,271.1z M191.1,263.1
			c2.4,0.3,4.6,1,4.6,3.9c0,2.1-1.7,4.2-5.2,4.1V269c1.8,0,2.9-0.6,2.9-1.9s-1.3-1.8-3.5-2.1s-4.5-1-4.5-3.7c0-1.6,1.2-4.2,4.8-4.2
			v1.9c-2.1,0.1-2.6,1.2-2.6,2.1C187.8,262.4,189.1,262.7,191.1,263.1L191.1,263.1z M190.7,259.1V257c1.6,0,3.2,0.5,4.6,1.5
			c0.3,0.1,0.2,0.3,0.1,0.6l-0.6,1c-0.2,0.3-0.3,0.4-0.6,0.2c-1-0.8-2.3-1.2-3.6-1.2L190.7,259.1z M186,267.9
			c0.2-0.3,0.3-0.4,0.6-0.2c1.1,0.7,2.4,1.1,3.7,1.1v2.1c-1.7,0-3.3-0.5-4.7-1.5c-0.3-0.2-0.3-0.3-0.1-0.6L186,267.9z M139.2,138.3
			v-12.8c0-0.3,0.1-0.4,0.4-0.4h1.9v13.1c0,0.3-0.1,0.4-0.4,0.4h-1.5C139.3,138.7,139.2,138.6,139.2,138.3z M148.1,130.9
			c0.3,0,0.4,0.1,0.4,0.4v1.2c0,0.3-0.1,0.4-0.4,0.4h-6.3v-2H148.1z M141.9,127.1v-2h6.4c0.3,0,0.4,0.1,0.4,0.4v1.2
			c0,0.3-0.1,0.4-0.4,0.4L141.9,127.1z M151.2,138.3v-12.8c0-0.3,0.1-0.4,0.4-0.4h1.9v13.1c0,0.3-0.1,0.4-0.4,0.4h-1.5
			C151.4,138.7,151.2,138.6,151.2,138.3z M156.2,127.1h-2.4v-1.9h2.5c2.2,0,4.8,0.9,4.8,4.1c0,3.1-2.6,4.1-4.8,4.1h-2.5v-1.9h2.4
			c2,0,2.7-1,2.7-2.2C159,127.7,158,127.1,156.2,127.1L156.2,127.1z M161.7,138.2c0.2,0.4,0,0.5-0.4,0.5H160c-0.3,0-0.6-0.2-0.7-0.4
			l-3.1-4.6h0.6c0.6,0,1.2-0.1,1.8-0.2l0.1,0.1L161.7,138.2z M170,136.9v2.1c-3.9,0-7-3.1-7-7c0-3.9,3.1-7,7-7l0,0v2.1
			c-2.8,0-5,2.2-5,5S167.2,136.9,170,136.9L170,136.9z M170.4,126.9v-2.1c3.9,0,7,3.1,7,7c0,3.9-3.1,7-7,7v-2.1c2.8,0,5-2.2,5-5
			S173.1,126.8,170.4,126.9L170.4,126.9z M191.3,136.3v2.5c0,0.1,0,0.2-0.2,0.2H191c-0.1,0-0.2-0.1-0.3-0.1l-11-11.4V125
			c0-0.1,0-0.2,0.2-0.2h0.2c0.1,0,0.2,0.1,0.3,0.2L191.3,136.3z M189,133.4v-7.9c0-0.3,0.1-0.4,0.4-0.4h1.5c0.3,0,0.4,0.1,0.4,0.4
			v10.3L189,133.4z M182.1,130.3v8c0,0.3-0.1,0.4-0.4,0.4h-1.5c-0.3,0-0.4-0.1-0.4-0.4v-10.4L182.1,130.3z M193.7,127.2
			c-0.3,0-0.4-0.1-0.4-0.4v-1.3c0-0.3,0.1-0.4,0.4-0.4h6.6v13.1c0,0.3-0.1,0.4-0.4,0.4h-1.5c-0.3,0-0.4-0.1-0.4-0.4v-11.1H193.7z
			 M212.9,133.3l-2.1-4.5l0,0l-4.3,9.5c-0.2,0.3-0.2,0.4-0.5,0.4h-1.8c-0.2,0-0.3-0.1-0.3-0.3c0,0,0-0.1,0-0.1l6.6-13.1
			c0.1-0.2,0.2-0.4,0.3-0.4h0.1c0.2,0,0.2,0.2,0.4,0.4l4,8.1H212.9z M215.4,133.6l2.4,4.6c0.1,0.1,0,0.3-0.1,0.4c-0.1,0-0.1,0-0.2,0
			h-1.8c-0.3,0-0.4-0.1-0.6-0.4l-1.3-2.6h-5.8l0.9-2H215.4z M204.9,126.8c0,0.3-0.1,0.4-0.4,0.4h-3.9v-2.1h3.9
			c0.3,0,0.4,0.1,0.4,0.4V126.8z M219.6,138.3v-12.8c0-0.3,0.1-0.4,0.4-0.4h1.5c0.3,0,0.4,0.1,0.4,0.4v13.2H220
			C219.6,138.7,219.5,138.6,219.6,138.3L219.6,138.3z M222.2,138.7v-2h5.7c0.3,0,0.4,0.1,0.4,0.4v1.2c0,0.3-0.1,0.4-0.4,0.4
			L222.2,138.7z M230.7,138.3v-12.8c0-0.3,0.1-0.4,0.4-0.4h1.5c0.3,0,0.4,0.1,0.4,0.4v12.7c0,0.3-0.1,0.4-0.4,0.4h-1.5
			C230.7,138.7,230.6,138.6,230.7,138.3L230.7,138.3z M241.5,130.9c2.4,0.3,4.6,1,4.6,3.9c0,2.1-1.7,4.2-5.2,4.1v-2
			c1.8,0,2.9-0.6,2.9-1.9s-1.3-1.8-3.5-2.1s-4.5-1-4.5-3.7c0-1.7,1.2-4.2,4.8-4.2v2.1c-2.1,0.1-2.6,1.2-2.6,2.1
			C238.2,130.4,239.5,130.7,241.5,130.9L241.5,130.9z M241.1,126.9v-2c1.6,0,3.2,0.5,4.6,1.5c0.3,0.2,0.2,0.3,0.1,0.6l-0.6,1
			c-0.2,0.3-0.3,0.4-0.6,0.2C243.6,127.4,242.4,127,241.1,126.9L241.1,126.9z M236.4,135.8c0.2-0.3,0.3-0.4,0.6-0.2
			c1.1,0.7,2.4,1.1,3.7,1.1v2c-1.7,0-3.3-0.5-4.7-1.5c-0.3-0.2-0.3-0.3-0.1-0.6L236.4,135.8z M589,193.7v12.8c0,0.3-0.1,0.4-0.4,0.4
			H587c-0.3,0-0.4-0.1-0.4-0.4v-12.7c0-0.3,0.1-0.4,0.4-0.4h1.5C588.9,193.4,588.9,193.5,589,193.7L589,193.7z M584.3,205.3v1.2
			c0,0.3-0.1,0.4-0.4,0.4h-5.7v-2h5.7C584.2,204.9,584.2,205,584.3,205.3L584.3,205.3z M577.8,193.7v13.2h-1.9
			c-0.3,0-0.4-0.1-0.4-0.4v-12.7c0-0.3,0.1-0.4,0.4-0.4h1.5C577.7,193.4,577.8,193.5,577.8,193.7L577.8,193.7z M572.5,193.7v7.6
			c0,3.9-2.5,5.8-5.5,5.8v-2.1c1.9-0.1,3.2-1.2,3.2-3.9v-7.5c0-0.3,0.1-0.4,0.4-0.4h1.5C572.4,193.4,572.5,193.5,572.5,193.7
			L572.5,193.7z M566.7,205.1v2.1c-3-0.1-5.5-2-5.5-5.8v-7.6c0-0.3,0.1-0.4,0.4-0.4h1.5c0.3,0,0.4,0.1,0.4,0.4v7.5
			C563.5,204,564.8,205.1,566.7,205.1L566.7,205.1z M557.5,203.5c0.2-0.2,0.4-0.2,0.6,0l0.9,1c0.2,0.2,0.2,0.4,0,0.6
			c-1.3,1.2-3.1,1.9-4.9,2v-2.1C555.4,205,556.6,204.5,557.5,203.5L557.5,203.5z M554.1,195.1v-2c1.8,0.1,3.5,0.8,4.9,2
			c0.2,0.2,0.2,0.4,0,0.6l-0.9,1c-0.2,0.2-0.3,0.3-0.6,0C556.6,195.7,555.4,195.2,554.1,195.1L554.1,195.1z M553.8,205.1v2.1
			c-3.9,0-7-3.1-7-7c0-3.9,3.1-7,7-7l0,0v2c-2.8,0-5,2.2-5,5S551,205.1,553.8,205.1L553.8,205.1z M538.4,195.1v-2c3.9,0,7,3.1,7,7
			c0,3.9-3.1,7-7,7v-2.1c2.8,0,5-2.2,5-5S541.1,195.1,538.4,195.1L538.4,195.1z M538,205.1v2.1c-3.9,0-7-3.1-7-7c0-3.9,3.1-7,7-7v2
			c-2.8,0-5,2.2-5,5S535.3,205.1,538,205.1L538,205.1z M518.8,201.1c-2.1-0.3-4.5-1-4.5-3.7c0-1.6,1.2-4.2,4.8-4.2v2
			c-2.1,0.1-2.6,1.2-2.6,2.1c0,1.3,1.4,1.6,3.4,1.8c2.4,0.3,4.6,1,4.6,3.9c0,2.1-1.7,4.2-5.2,4.1V205c1.8,0,2.9-0.6,2.9-1.9
			S520.9,201.4,518.8,201.1L518.8,201.1z M519,205.1v2.1c-1.7,0-3.3-0.5-4.7-1.5c-0.3-0.2-0.3-0.3-0.1-0.6l0.6-1
			c0.2-0.3,0.3-0.4,0.6-0.2C516.4,204.6,517.6,205,519,205.1L519,205.1z M519.4,195.2v-2c1.6,0,3.2,0.5,4.6,1.5
			c0.3,0.2,0.2,0.3,0.1,0.6l-0.6,1c-0.2,0.3-0.3,0.4-0.6,0.2C521.9,195.7,520.7,195.2,519.4,195.2L519.4,195.2z M511.3,193.8v12.8
			c0,0.3-0.1,0.4-0.4,0.4h-1.5c-0.3,0-0.4-0.1-0.4-0.4v-12.8c0-0.3,0.1-0.4,0.4-0.4h1.5C511.2,193.4,511.3,193.5,511.3,193.8
			L511.3,193.8z M501.1,195.4h-2.4v-2h2.5c2.2,0,4.8,0.9,4.8,4.1s-2.6,4.1-4.8,4.1h-2.5v-2h2.4c2,0,2.6-0.9,2.6-2.2
			C503.8,196,502.8,195.3,501.1,195.4L501.1,195.4z M501.5,201.9c0.6,0,1.2-0.1,1.8-0.2l0,0.1l3.2,4.7c0.2,0.4,0,0.5-0.4,0.5h-1.4
			c-0.3,0-0.6-0.2-0.7-0.4l-3.1-4.6H501.5z M498.4,193.4v13.2c0,0.3-0.1,0.4-0.4,0.4h-1.5c-0.3,0-0.4-0.1-0.4-0.4v-12.8
			c0-0.3,0.1-0.4,0.4-0.4L498.4,193.4z M485.4,201.9h6.4l2.4,4.6c0.1,0.1,0,0.3-0.1,0.4c0,0-0.1,0-0.2,0h-1.8
			c-0.3,0-0.4-0.1-0.5-0.4l-1.3-2.7h-5.8L485.4,201.9z M482.9,206.6c-0.2,0.3-0.2,0.4-0.5,0.4h-1.8c-0.1,0-0.3-0.1-0.3-0.2
			c0-0.1,0-0.1,0-0.2l6.5-13.1c0.1-0.2,0.2-0.4,0.3-0.4h0c0.2,0,0.2,0.1,0.4,0.4l4,8.1h-2.3l-2.1-4.6l0,0L482.9,206.6z M479.5,205.4
			v1.2c0,0.3-0.1,0.4-0.4,0.4h-5.7v-2h5.7C479.4,204.9,479.5,205,479.5,205.4L479.5,205.4z M473,193.8v13.2h-1.9
			c-0.3,0-0.4-0.1-0.4-0.4v-12.8c0-0.3,0.1-0.4,0.4-0.4h1.5C472.9,193.4,473,193.5,473,193.8z M467.7,193.8v7.6
			c0,3.9-2.5,5.8-5.5,5.8v-2.1c1.9-0.1,3.2-1.2,3.2-3.9v-7.5c0-0.3,0.1-0.4,0.4-0.4h1.5C467.6,193.4,467.7,193.5,467.7,193.8
			L467.7,193.8z M461.8,205.1v2.1c-3-0.1-5.5-2-5.5-5.8v-7.6c0-0.3,0.1-0.4,0.4-0.4h1.5c0.3,0,0.4,0.1,0.4,0.4v7.5
			C458.7,204,460,205.1,461.8,205.1L461.8,205.1z M452.6,203.6c0.2-0.2,0.4-0.2,0.6,0l0.9,1c0.2,0.2,0.2,0.4,0,0.6
			c-1.3,1.2-3.1,1.9-4.9,2v-2.1C450.5,205.1,451.8,204.5,452.6,203.6L452.6,203.6z M449.3,195.2v-2c1.8,0.1,3.5,0.8,4.9,2
			c0.2,0.2,0.2,0.4,0,0.6l-0.9,1c-0.2,0.2-0.4,0.3-0.6,0C451.8,195.8,450.6,195.2,449.3,195.2L449.3,195.2z M448.9,205.2v2.1
			c-3.9,0-7-3.1-7-7s3.1-7,7-7v2c-2.8,0-5,2.2-5,5S446.2,205.1,448.9,205.2L448.9,205.2z M439.5,193.8v12.8c0,0.3-0.1,0.4-0.4,0.4
			h-1.5c-0.3,0-0.4-0.1-0.4-0.4v-12.8c0-0.3,0.1-0.4,0.4-0.4h1.5C439.4,193.4,439.5,193.5,439.5,193.8L439.5,193.8z M429.8,201h-3
			v-1.9h2.7c1.5,0,2.4-0.8,2.4-1.8c0-1.4-0.9-2-2.6-2h-2.4v-2h2.5c2.2,0,4.9,0.9,4.9,3.8c0,1.2-0.8,2.3-1.9,2.8l0,0
			c1.4,0.5,2.4,1.8,2.4,3.2c0,2.8-2.3,3.8-4.8,3.8h-3v-2h2.9c1.8,0,2.6-0.7,2.6-2C432.3,201.9,431.3,201,429.8,201z M426.5,193.4
			V207h-1.9c-0.3,0-0.4-0.1-0.4-0.4v-12.8c0-0.3,0.1-0.4,0.4-0.4L426.5,193.4z M416.3,195.4H414v-2h2.5c2.2,0,4.8,0.9,4.8,4.1
			s-2.6,4.1-4.8,4.1H414v-2h2.4c2,0,2.6-0.9,2.6-2.2C419,196,418,195.3,416.3,195.4L416.3,195.4z M416.7,202c0.6,0,1.2-0.1,1.8-0.2
			l0.1,0.1l3.2,4.7c0.2,0.4,0,0.5-0.4,0.5H420c-0.3,0-0.6-0.2-0.7-0.4l-3.1-4.6H416.7z M413.7,193.4v13.2c0,0.3-0.1,0.4-0.4,0.4
			h-1.5c-0.3,0-0.4-0.1-0.4-0.4v-12.8c0-0.3,0.1-0.4,0.4-0.4L413.7,193.4z M402,195.2v-2c3.9,0,7,3.1,7,7s-3.1,7-7,7v-2.1
			c2.8,0,5-2.2,5-5S404.8,195.2,402,195.2L402,195.2z M401.6,205.2v2.1c-3.9,0-7-3.1-7-7s3.1-7,7-7v2c-2.8,0-5,2.2-5,5
			S398.9,205.1,401.6,205.2L401.6,205.2z M626.9,355.3c-2.1-0.3-4.5-1-4.5-3.7c0-1.6,1.2-4.2,4.8-4.2v2.1c-2.1,0.1-2.5,1.2-2.5,2.1
			c0,1.3,1.4,1.6,3.3,1.8c2.4,0.3,4.6,1,4.6,3.9c0,2.1-1.7,4.2-5.2,4.1v-2c1.8,0,2.9-0.6,2.9-1.9S629.1,355.6,626.9,355.3z
			 M627.1,359.3v2c-1.7,0-3.3-0.5-4.8-1.5c-0.3-0.2-0.2-0.3-0.1-0.6l0.6-1c0.2-0.3,0.3-0.4,0.6-0.2
			C624.5,358.9,625.8,359.3,627.1,359.3L627.1,359.3z M627.5,349.4v-2.1c1.6,0,3.2,0.5,4.6,1.5c0.3,0.2,0.2,0.3,0.1,0.6l-0.6,1
			c-0.2,0.3-0.3,0.4-0.6,0.2C630.1,349.8,628.8,349.4,627.5,349.4L627.5,349.4z M619.5,348v12.8c0,0.3-0.1,0.4-0.4,0.4h-1.5
			c-0.3,0-0.4-0.1-0.4-0.4V348c0-0.3,0.1-0.4,0.4-0.4h1.5C619.4,347.6,619.5,347.7,619.5,348z M609.3,349.5h-2.4v-1.9h2.5
			c2.2,0,4.8,0.9,4.8,4.1s-2.6,4.1-4.8,4.1h-2.5v-2h2.4c2,0,2.7-0.9,2.7-2.2C611.9,350.2,611,349.5,609.3,349.5L609.3,349.5z
			 M609.7,356.1c0.6,0,1.2-0.1,1.8-0.2l0.1,0.1l3.2,4.7c0.2,0.4,0,0.5-0.3,0.5h-1.4c-0.3,0-0.6-0.2-0.7-0.4l-3.1-4.6L609.7,356.1z
			 M606.6,347.6v13.1c0,0.3-0.1,0.4-0.4,0.4h-1.5c-0.3,0-0.4-0.1-0.4-0.4V348c0-0.3,0.1-0.4,0.4-0.4H606.6z M594.9,349.4v-2.1
			c3.9,0,7,3.1,7,7s-3.1,7-7,7v-2c2.8,0,5-2.2,5-5S597.7,349.4,594.9,349.4L594.9,349.4z M594.6,359.4v2c-3.9,0-7-3.1-7-7s3.1-7,7-7
			v2.1c-2.8,0-5,2.2-5,5S591.8,359.4,594.6,359.4L594.6,359.4z M580.3,348v12.8c0,0.3-0.1,0.4-0.4,0.4h-1.5c-0.3,0-0.4-0.1-0.4-0.4
			V348c0-0.3,0.1-0.4,0.4-0.4h1.5C580.2,347.6,580.3,347.7,580.3,348z M575.6,359.6v1.2c0,0.3-0.1,0.4-0.4,0.4h-5.7v-2h5.7
			C575.5,359.2,575.6,359.2,575.6,359.6z M569.2,348v13.2h-1.9c-0.3,0-0.4-0.1-0.4-0.4V348c0-0.3,0.1-0.4,0.4-0.4h1.5
			C569.1,347.6,569.2,347.7,569.2,348z M563.9,348v7.6c0,3.9-2.5,5.8-5.5,5.8v-2c1.9-0.1,3.2-1.2,3.2-3.9V348c0-0.3,0.1-0.4,0.4-0.4
			h1.5C563.8,347.6,563.9,347.7,563.9,348z M558,359.4v2c-3-0.1-5.5-2-5.5-5.8V348c0-0.3,0.1-0.4,0.4-0.4h1.5c0.3,0,0.4,0.1,0.4,0.4
			v7.5C554.8,358.2,556.2,359.3,558,359.4z M544.9,355.9c-0.3,0-0.4-0.1-0.4-0.4v-1.2c0-0.3,0.1-0.4,0.4-0.4h4.7
			c0.3,0,0.4,0.1,0.4,0.4v4.4c0,0.3-0.1,0.5-0.3,0.7c-1.4,1.2-3.1,1.9-5,2v-2c1.1-0.1,2.1-0.4,3-1.1v-2.4L544.9,355.9z M544.7,349.4
			v-2.1c1.8,0.1,3.5,0.8,4.8,2c0.2,0.2,0.2,0.4,0,0.6l-0.9,1c-0.2,0.2-0.4,0.3-0.6,0C547.2,350,546,349.5,544.7,349.4L544.7,349.4z
			 M544.4,359.4v2c-3.9,0-7-3.1-7-7s3.1-7,7-7v2.1c-2.8,0-5,2.2-5,5S541.6,359.4,544.4,359.4L544.4,359.4z M523.3,349.9v-2.3
			c0-0.1,0-0.2,0.2-0.2h0.2c0.1,0,0.2,0.1,0.3,0.2l11,11.3v2.5c0,0.1,0,0.2-0.2,0.2h-0.1c-0.1,0-0.2-0.1-0.3-0.1L523.3,349.9z
			 M525.7,352.8v8c0,0.3-0.1,0.4-0.4,0.4h-1.5c-0.3,0-0.4-0.1-0.4-0.4v-10.4L525.7,352.8z M532.6,355.9V348c0-0.3,0.1-0.4,0.4-0.4
			h1.5c0.3,0,0.4,0.1,0.4,0.4v10.3L532.6,355.9z M512.7,356.1h6.4l2.4,4.6c0.1,0.1,0,0.3-0.1,0.4c-0.1,0-0.1,0-0.2,0h-1.8
			c-0.3,0-0.4-0.1-0.5-0.4l-1.3-2.6h-5.8L512.7,356.1z M510.2,360.8c-0.2,0.3-0.2,0.4-0.5,0.4h-1.8c-0.2,0-0.3-0.1-0.3-0.3
			c0,0,0-0.1,0-0.1l6.6-13.1c0.1-0.2,0.2-0.4,0.3-0.4h0.1c0.2,0,0.2,0.2,0.3,0.4l4,8.1h-2.3l-2.1-4.5l0,0L510.2,360.8z M496.4,349.6
			H494v-2h2.5c2.2,0,4.8,0.9,4.8,4.1s-2.6,4.1-4.8,4.1H494v-2h2.4c2,0,2.6-0.9,2.6-2.2C499.1,350.2,498.1,349.5,496.4,349.6
			L496.4,349.6z M496.8,356.2c0.6,0,1.2-0.1,1.8-0.2l0.1,0.1l3.2,4.7c0.2,0.4,0,0.5-0.4,0.5h-1.4c-0.3,0-0.6-0.2-0.7-0.4l-3.1-4.6
			L496.8,356.2z M493.7,347.6v13.1c0,0.3-0.1,0.4-0.4,0.4h-1.5c-0.3,0-0.4-0.1-0.4-0.4V348c0-0.3,0.1-0.4,0.4-0.4L493.7,347.6z
			 M482.1,349.4v-2.1c3.9,0,7,3.1,7,7s-3.1,7-7,7v-2c2.8,0,5-2.2,5-5S484.8,349.4,482.1,349.4L482.1,349.4z M481.7,359.4v2
			c-3.9,0-7-3.1-7-7s3.1-7,7-7v2.1c-2.8,0-5,2.2-5,5S479,359.5,481.7,359.4L481.7,359.4z M474,348v1.3c0,0.3-0.1,0.4-0.4,0.4h-3.9
			v-2.1h3.9C474,347.6,474,347.7,474,348z M462.8,349.7c-0.3,0-0.4-0.1-0.4-0.4V348c0-0.3,0.1-0.4,0.4-0.4h6.6v13.1
			c0,0.3-0.1,0.4-0.4,0.4h-1.5c-0.3,0-0.4-0.1-0.4-0.4v-11.1H462.8z M444.2,356.6l4.1-8.6c0.1-0.3,0.3-0.4,0.5-0.4h1.8
			c0.2,0,0.3,0.1,0.3,0.3c0,0.1,0,0.1,0,0.1l-5.5,11.1L444.2,356.6z M445.2,359.4l-0.9,1.6c-0.1,0.2-0.2,0.4-0.4,0.4h0
			c-0.1,0-0.2-0.1-0.3-0.4l-6.6-13.1c-0.1-0.1,0-0.3,0.1-0.4c0,0,0.1,0,0.1,0h1.8c0.3,0,0.4,0.1,0.5,0.4L445.2,359.4z M449.5,360.8
			l6.5-13.1c0.1-0.2,0.2-0.4,0.3-0.4h0.1c0.1,0,0.2,0.2,0.4,0.4l4,8.1h-2.3l-2.1-4.5l0,0l-4.3,9.5c-0.2,0.3-0.2,0.4-0.5,0.4h-1.8
			c-0.1,0-0.3-0.1-0.3-0.3C449.5,360.8,449.5,360.8,449.5,360.8L449.5,360.8z M454.6,356.1h6.4l2.4,4.6c0.1,0.1,0,0.3-0.1,0.4
			c0,0-0.1,0-0.2,0h-1.8c-0.3,0-0.4-0.1-0.5-0.4l-1.3-2.6h-5.8L454.6,356.1z M435.3,359.2c0.3,0,0.4,0.1,0.4,0.4v1.2
			c0,0.3-0.1,0.4-0.4,0.4h-6.4v-2H435.3z M428.8,355.3v-2h6.2c0.3,0,0.4,0.1,0.4,0.4v1.2c0,0.3-0.1,0.4-0.4,0.4H428.8z M435.3,349.6
			h-6.4v-2h6.4c0.3,0,0.4,0.1,0.4,0.4v1.2C435.8,349.5,435.6,349.6,435.3,349.6L435.3,349.6z M428.5,347.6v13.6h-1.9
			c-0.3,0-0.4-0.1-0.4-0.4V348c0-0.3,0.1-0.4,0.4-0.4L428.5,347.6z M423.9,359.6v1.2c0,0.3-0.1,0.4-0.4,0.4h-5.7v-2h5.7
			C423.8,359.2,423.9,359.2,423.9,359.6L423.9,359.6z M417.5,348v13.2h-1.9c-0.3,0-0.4-0.1-0.4-0.4V348c0-0.3,0.1-0.4,0.4-0.4h1.5
			C417.4,347.6,417.5,347.7,417.5,348z"/>
	</g>
</g>
</svg>
