<?xml version="1.0" encoding="utf-8"?>
<!-- Generator: Adobe Illustrator 25.4.1, SVG Export Plug-In . SVG Version: 6.00 Build 0)  -->
<svg version="1.1" id="Layer_1" xmlns="http://www.w3.org/2000/svg" xmlns:xlink="http://www.w3.org/1999/xlink" x="0px" y="0px"
	 viewBox="0 0 485 558.3" style="enable-background:new 0 0 485 558.3;" xml:space="preserve">
<g id="Layer_2_00000128451713276311204160000010993397555328750992_">
	<g id="Layer_1-2">
		<path style="fill:#0091D6;" d="M362.9,536.3c-0.5-1.3-1.8-1.4-2.8-1.9c-7.6-3.3-15.6-5.6-23.8-6.8c-4.4-0.8-8.5-2.7-12.9-3.8
			c-7.8-2-15.7-3.8-23.5-5.9c-4.6-1.2-9.1-2.6-13.9-4c1.7-0.2,3.4-0.3,5.1-0.7s3.3-0.7,5-1.1c6.5-1.7,13.3-2,19.2-5.4
			c0.9-0.4,1.8-0.8,2.7-0.9c1.7-0.3,3.3-0.9,4.8-1.7c5.7-3.6,12.1-5.2,18.4-7.2c3.6-1.2,7.3-2.4,11-3.5c8.9-2.7,16.6-7.7,24.6-12.1
			c2-1.2,4.1-2.2,6.3-3.1c2.2-0.8,4.3-1.8,6.2-3.2c0.8-0.8,2-0.8,2.8-0.1c5.4,4.1,11.6,7.1,17,11.4c4.1,3.2,7.6,7.1,10.3,11.6
			c1.5,2.5,2.8,5.3,5,7.3c-7.4,5-15.1,9.6-23.1,13.7C388.8,525.7,376,531.5,362.9,536.3z"/>
		<path style="fill:#0091D6;" d="M58.9,504.2c1.9-1.1,2.7-3,3.6-4.8c4-7.9,10.6-13.2,17.9-17.8c3.2-2,6.6-3.9,9.6-6.2
			c1.3-1,2.3-1.2,3.7-0.1c1.7,1.3,3.6,2.3,5.6,2.9c3.7,1.4,7.2,3.2,10.5,5.4c10.4,6.5,21.8,10.5,33.4,14c5.7,1.6,11.3,3.8,16.6,6.5
			c4.7,2.4,9.7,4.3,14.9,5.6c5.7,1.5,11.6,2.7,17.4,3.8c1.5,0.2,3.1,0.4,4.7,0.4c-0.2,0.4-0.3,0.6-0.4,0.7
			c-12.3,3.1-24.6,6-36.8,9.2c-5.9,1.6-11.7,3.9-17.8,4.8c-6.7,1-13,3.3-19.2,5.9c-0.7,0.2-1.3,0.7-1.8,1.2
			c-12.5-4.7-24.6-10.2-36.3-16.5C75.6,514.8,67.1,509.7,58.9,504.2z"/>
		<path style="fill:#FAF600;" d="M224.2,557.6c-0.7-6.6-4.1-11.8-8.8-16.2c-2-2-3.8-4.3-5.3-6.8c-2.1-3.2-2.7-6.9-2.9-10.6
			c-0.2-3.2-0.7-6.3-1.6-9.4c-0.6-2-0.5-2,1.6-2.3c1.1-0.1,2.1-0.2,3.1-0.5c2.9-0.6,3.4-1.2,3.4-4c0-0.3-0.1-0.6-0.1-1
			s-0.1-0.6,0.2-0.9c1-0.1,1.6,0.9,2.4,1.2c0.7,0.4,1.5,0.8,2.3,1.1c4.4,1.2,6.1-0.5,5-4.9c-0.7-2.3-1.2-4.6-1.6-6.9
			c12.6,1.8,25.4,1.7,38-0.1c0.1,2.6-0.9,4.7-1.4,6.8c-0.4,1.6-1.2,3.3,0.2,4.5c1.5,1.4,3.6,1,5.5,0.3c1.3-0.6,2.6-1.3,3.8-2.1
			c0.2,0.2,0.5,0.3,0.4,0.4c-0.2,4.7,0.2,5.2,5,5.9c3.7,0.5,3.7,0.5,2.7,4c-0.8,3.1-1.3,6.3-1.3,9.5c-0.2,3.7-1.5,7.3-3.6,10.4
			c-1.5,2.2-3.2,4.3-5.1,6.1c-4.5,4.2-7.4,9.3-8,15.5c-0.4,0.2-0.8,0.3-1.2,0.3C246.1,558.3,235.2,558.7,224.2,557.6z"/>
		<path style="fill:#FF2EF8;" d="M428,502.9c-3.6-6.3-7.4-12.4-12.9-17.3c-5.3-4.5-10.9-8.5-16.9-12c-1-0.5-1.9-1.1-2.7-1.9
			c7.2-7.1,16.7-10,25.9-13.3c6.7-2.4,13.6-4.1,20.7-5.2c2.4-0.4,4.9-0.4,7.3-0.6c3-0.3,6.1-0.5,8.9-2c0.7-0.3,1.5-0.3,2.1,0
			c2.2,0.5,4.4,0.9,6.5,1.6c5.9,1.7,12,3,18.1,3.7c-16.1,16.6-33.8,31.5-53,44.5L428,502.9z"/>
		<path style="fill:#FF2EF8;" d="M0,455.5c7.3-0.7,14.3-3.4,21.5-4.8c1.2-0.3,2.5-0.2,3.6,0.3c3.2,1.1,6.6,1.7,10,1.7
			c7.9,0.5,15.6,2.1,23.1,4.7c5.6,1.9,11.2,4.1,16.8,6.1c1.8,0.7,3.5,1.7,5,2.8c2.4,1.6,4.5,3.5,7.3,5.1c-2.3,1.9-4.8,3.6-7.5,5.1
			c-6.6,4.1-12.8,8.5-17.6,14.6c-2.7,3.3-5,6.9-7,10.7c-10.2-6.9-20-14.2-29.5-22.1c-8.8-7.4-17.2-15.2-25.2-23.4
			C0.3,456.1,0.1,455.8,0,455.5z"/>
		<path style="fill:#847DAF;" d="M266.8,557.4c2.2-4.3,4.5-8.4,7.1-12.4c3.5-5.8,6.3-12.1,6.1-19.2c-0.1-2,0-4,0.2-6.1
			c0.2-1.9,0.5-2,2.2-1.5c10.8,3.3,21.7,6.1,32.7,8.7c4.6,1,9.1,2.3,13.5,3.9c3.7,1.3,7.6,1.9,11.3,3.3c4.8,1.8,9.6,3.5,14.4,5.2
			c-18.6,6.6-37.7,11.5-57.2,14.6C287.1,555.6,277,556.8,266.8,557.4z"/>
		<path style="fill:#847DAF;" d="M129.1,538.9c4.5-1.2,8.8-3.2,13.2-4.6c10.3-3.1,20.4-6.5,31-8.8c5.1-1.1,10.1-2.6,15.1-4
			c4-1.2,8.1-1.6,12-3.4c1.2-0.6,1.7,0,1.9,1.2c0.3,2,0.5,4,0.4,6c-0.2,3.2,0.3,6.4,1.4,9.4c1.9,4.7,3.5,9.5,6.9,13.5
			c2.1,2.6,3.7,5.5,4.6,8.7c-5.6,0.2-11-0.8-16.5-1.5c-17.3-2.2-34.4-5.8-51.2-10.7C141.6,543,135.3,541,129.1,538.9z"/>
		<path style="fill:#0091D6;" d="M150.6,133.5c0.6-4.7,1.1-9.2,1.7-13.6c1-6.1,1.6-12.3,1.7-18.4c0-4.7,0.7-9.4,0.5-14
			c-0.3-6.4-0.4-12.9-2.3-19.2s-3.5-12.7-5.9-18.9c-0.5-1.2-0.5-2.5,0.2-3.6c1.1-1.6,1.8-3.3,2.2-5.2c0.4-1.4,1.1-2.6,2.2-3.6
			c3.6-4.2,7.6-8.1,11.9-11.6c5.8-4.6,12.5-7.2,20.1-6.9c3.7,0.2,7.5,0.2,11.2,0c5-0.4,9.7,0.9,14.6,1.6c3.1,0.5,6.2,1.2,9.4,1.9
			c5.3,1.1,8.9,4.2,11.9,8.4c3.7,5.2,6.1,11.2,9.6,16.5c0.6,0.9,0.8,2,1.9,2.7c2.3-5.3,5.9-9.7,8.2-14.9c1.7-3.7,4.3-6.9,7.4-9.5
			c3.2-2.7,7.3-3.3,11.3-4.2c4.5-1,9-1.6,13.5-2.3c1.2-0.2,2.3-0.2,3.5-0.2c5.1,0,10.2,0.1,15.3,0c7.6-0.2,14.1,2.9,19.8,7.6
			c3.8,3.1,7.3,6.6,10.5,10.3c1.4,1.6,2.8,3.2,2.9,5.5c0.1,1.2,1,2.1,1.6,3.1c0.9,1.4,1.1,3.2,0.4,4.8c-2.7,7.1-4.9,14.3-6.4,21.7
			c-1.6,8.2-2,16.5-1.2,24.8c0.2,1.7,0.3,3.4,0.3,5.1c0,6.5,0.6,13,1.7,19.4c0.6,4.1,1.1,8.2,1.6,12.3c-0.9,0.6-1.2-0.2-1.6-0.6
			c-3.5-3.5-7.6-5.4-12.3-7c-4.4-1.5-8.9-2.7-13.2-4.5c-4.1-1.7-8.5-2.7-13-2.9c-3.3-0.2-6.5-1.3-9.6-2.2
			c-5.7-1.7-11.4-3.5-17.1-5.2c-2.1-0.6-4.3-1.4-6.3-2.3c-10.7-4.9-21.6-5.3-32.5-0.9c-4.6,1.9-9.4,3.4-14.2,4.9
			c-6.3,1.9-12.6,3.9-19,5.5c-2.1,0.5-4.2,0.2-6.3,0.6c-5.3,0.9-10.1,3.3-15.2,4.7c-3.3,0.8-6.3,2.4-9.6,3.3c-3.3,1-6.2,2.8-8.6,5.3
			C152.6,132.6,151.7,133.2,150.6,133.5z"/>
		<path style="fill:#9ACF2C;" d="M173,374.1c1.4,1.9,2.7,3.9,3.8,6c3,5.4,4,11.4,5.4,17.3c2.4,10.2,2.1,20.5,0.8,30.8
			c-1,8-2.1,16.1-1.9,24.2c-0.1,4.4-1,8.7-2.8,12.6c-2.1,5.1-3.9,10.4-7.6,14.7c-0.7,0.8-1.4,1.5-2.2,2.3c-1.1,1.2-2.2,1.4-3.9,1
			c-5.1-1.1-10.3-1.7-15.4-2.7c-5.1-0.8-9.8-3-13.7-6.4c-3.1-2.9-6.5-5.5-9.8-8.2c-1.2-0.7-1.7-2.3-1-3.5c2.8-6.9,5.5-13.9,9.2-20.4
			c1.6-3,3-6.1,4.3-9.3c2.2-5.3,5.3-10.2,8.1-15.2c6.2-10.9,13.4-21.2,20-31.9C168.6,381.8,171.2,378.5,173,374.1z"/>
		<path style="fill:#9ACF2C;" d="M309.5,374c1.8,4.6,4.4,8.1,6.8,11.7c4.8,7.5,9.8,14.9,14.5,22.6c6,9.9,11.8,19.9,16.5,30.6
			c2.9,6.6,6.5,12.9,9.1,19.7s3.2,4.6-2.5,9.5c-2.3,2-4.8,3.9-7,6c-3.6,3.5-8.1,5.1-12.7,6.2c-5.7,1.3-11.5,1.7-17.2,3.1
			c-0.8,0.2-1.7-0.1-2.3-0.8c-3.6-3.2-6.3-7.2-8.1-11.7c-1.4-3.2-2.6-6.5-3.9-9.8c-0.5-1.1-0.7-2.2-0.7-3.4
			c0.2-11.4-1.6-22.7-2.9-34c-1.5-12.9,0.5-25.3,4.1-37.5C304.5,381.7,306.7,377.6,309.5,374z"/>
		<path style="fill:#42C274;" d="M350.4,203.1c-0.3-3.9-1.7-7.5-2.6-11.2c-1.5-6.5-2-13.2-3.2-19.8c-0.3-1.6-0.5-3.2-0.9-4.7
			c-2-6.8-2.5-13.8-3.6-20.7c-1-6.3-1.8-12.6-2.7-18.9c-1.8-12.2-3.4-24.5-2.9-36.9c0.2-3.9,1.3-7.5,2-11.3
			c1.4-7.8,4.5-15.1,7.9-22.2c1.6-3.3,3.4-3.4,5.5-0.4c5.6,8.2,10.3,16.9,12.9,26.6c0.6,2.4,1,4.8,1.3,7.2
			c0.8,6.6,2.7,12.9,3.8,19.4c1.5,9,1.7,18,1.5,27.1c-0.2,8.4-1.8,16.5-3.4,24.6c-0.6,3.1-0.6,6.3-1.2,9.5c-1.2,7-3.8,13.5-6.4,20
			c-1.6,4.1-3.4,8-6.6,11.1C351.5,202.7,351.3,203.1,350.4,203.1z"/>
		<path style="fill:#42C274;" d="M132.1,204c-3.2-3.6-5.8-6.7-7.2-10.7c-2-5.8-4.8-11.4-6.2-17.4c-1-4-1.7-8.1-2-12.3
			c-0.2-2-0.5-4-1.1-5.9c-1.8-7.2-2.1-14.5-2.4-21.9c-0.6-12.1,0.7-24.1,3.7-35.8c0.8-3.5,1.4-7.1,1.8-10.7
			c0.9-6.3,2.9-12.5,5.7-18.2c2.3-4.8,5-9.4,8-13.8c0.2-0.3,0.5-0.7,0.7-1c1.8-2,3.5-2,4.7,0.5c3.6,7.7,6.8,15.6,8.5,24
			c2.6,13,1.6,25.8-0.2,38.8c-0.9,6.3-1.4,12.7-2.5,19c-1,6-1.9,12-2.7,18c-1.2,8.2-3.8,16.2-4.5,24.5c-0.6,5.9-1.8,11.8-3.6,17.5
			C132.4,200.2,132.2,202.1,132.1,204z"/>
		<path style="fill:#847DAF;" d="M402.9,440.4c-4.8,2.1-9.4,4.1-13.9,6.1c-8.1,3.5-16,7.5-23.6,12.1c-1.9,1.2-2,1.3-3.1-0.6
			c-2.8-4.6-5-9.6-7.5-14.4c-4.9-9.9-8.9-20.2-15-29.4c-2.1-3.2-3.9-6.6-6.1-9.8c-6.5-9.1-12.4-18.5-18.7-27.8
			c-1.3-2-2.4-4.3-3.2-6.6c-0.5-1.2-0.3-2.5,0.5-3.6c4-6,7.4-12.5,10.2-19.1c0.8-2.3,2.6-4,4.9-4.6c2.3-0.6,4.4-2,7-2.4
			c0.5,3.4,0.3,6.9-0.6,10.2c-1.9,7.5-0.7,14.8,0.4,22.2c0.5,3.8,1.4,7.5,2.1,11.3c0.5,2.6,1.6,5.1,3.3,7.2c1.7,2.3,3.6,4.5,5.6,6.6
			c3,3,5.9,6.1,8.6,9.4c1.4,1.6,3,3.1,4.8,4.2c14.1,9.3,28.2,18.8,42.6,27.7L402.9,440.4z"/>
		<path style="fill:#847DAF;" d="M148.3,340.1c3.3,1.3,6.2,2.4,9.1,3.5c0.7,0.3,1.2,0.9,1.6,1.5c0.6,1.2,1.3,2.4,1.9,3.7
			c2.5,5.9,5.5,11.5,9.1,16.8c1.2,1.5,1.4,3.6,0.6,5.3c-0.9,2.2-2,4.3-3.2,6.2c-4.6,6.8-9.3,13.5-13.7,20.4s-8.9,13.5-13,20.5
			s-7.3,14.2-10.6,21.5c-2.7,6.4-5.9,12.7-9.5,18.6c-1.2,1.8-1.2,1.9-2.8,0.8c-7.5-4.9-15.7-8.6-23.8-12.3c-4.5-2.1-9.1-4-13.7-6
			c0.5-1.1,1.5-1.4,2.3-1.9c14.2-9,28.2-18.3,42.3-27.6c1.2-0.7,2.3-1.6,3.2-2.6c3.4-4.2,7.2-8.1,11-12c4.6-4.8,7.8-10.2,8.7-17
			s2.1-13.5,2.6-20.3c0.2-3.4-1-6.7-1.4-10.1C148.3,346.1,148.2,343.1,148.3,340.1z"/>
		<path style="fill:#FAF600;" d="M454.9,448c-2.9,1.1-5.6,1-8.2,1c-11.2,0-21.6,3.1-32,6.8c-2.6,0.9-5.2,2-7.8,2.8
			c-2.4,0.7-4.6,1.9-6.5,3.4c-5.3,4.2-11.6,7-17.3,10.7c-5,3.3-10.8,5.1-15.8,8.4c-7.3,4.8-15.3,8.4-23.3,11.8c-2.5,1-5,1.8-7.6,2.4
			c-10,2.4-19.9,5.4-29.8,8.2c-4.6,1.3-9.1,3.1-13.8,3.9c-5.9,0.9-11.9,1-17.8,0.2c-2.1-0.3-2.4-1-1.8-3.1c0.8-2.9,3.1-4.6,5.4-6
			c2.9-1.9,6.1-3.5,8.4-6.2c0.3-0.5,0.8-0.7,1.4-0.7c2,0.4,4-0.1,6,0c1.7,0,3.4,0.7,4.5,2c2.5,3.2,8.5,2.9,11.5,1.1
			c2.4-1.5,4.8-3.1,7.1-4.9c0.6-0.4,1.5-1,1.5-1.5c0.1-2.1,1.7-2.1,3.1-2.2c5.4-0.5,10.7-1.7,16-2.7c4-0.8,7.7-2.7,10.8-5.3
			c5.8-4.9,11.4-9.9,17.6-14.3c4.8-3.3,10-6.1,15.3-8.5c10.2-4.8,20.5-9.5,30.8-14c4.6-2,9.7-2.7,14.7-2c2.5,0.3,4.9-0.5,7.3-0.8
			c5.2-0.7,10.2-0.5,14.9,2.3C452.1,442.4,453.7,444.9,454.9,448z"/>
		<path style="fill:#FAF600;" d="M27.8,448c1.5-5.4,5.5-8,10.4-9.3c3.2-0.8,6.6-0.9,9.8-0.3c3.1,0.5,6.3,0.7,9.5,0.6
			c5.2-0.4,10.5,0.7,15.2,3.2c8.1,4.3,16.7,7.6,25,11.4c11.5,5.1,22.1,12.1,31.4,20.5c4.4,4,8.9,8,15,9.3c5.1,1,10.3,1.8,15.4,2.6
			c1.8,0.3,3.3,0.3,4.3,2.6s3.8,3.4,5.9,4.7c1.8,1.1,3.5,2.4,5.7,2.7c3,0.4,5.8,0.2,8-2.1c1.8-1.9,3.9-2.2,6.4-2.2
			c3.3-0.1,6,0.5,8.4,3.1s6,3.6,8.6,6c1.2,1.1,2.1,2.4,2.6,3.9c0.7,2,0.2,2.7-1.9,3c-6.1,0.9-12.3,0.8-18.4-0.3
			c-4.4-0.8-8.6-2.6-12.9-3.7c-6-1.6-11.8-3.5-17.8-5.1c-4.6-1.3-9.3-2.4-13.9-3.6c-5.8-1.5-11.1-4.2-16.6-6.6
			c-3.1-1.4-6.1-3-8.9-4.9c-3.3-2.4-6.9-4.3-10.7-5.7c-0.4-0.1-0.8-0.3-1.2-0.5c-7.7-4.8-16-8.5-23.2-14c-2.7-2.1-5.7-3.7-9-4.8
			c-4.4-1.4-8.6-3.1-12.9-4.6c-9.4-3.3-19.2-5-29.1-4.9C31.2,448.8,29.5,448.6,27.8,448z"/>
		<path style="fill:#FA0044;" d="M314.4,487.6c-2,2-4.3,3.5-6.8,4.7c-2.9,1.5-7-0.5-8.6-4c-1.8-3.7-3.2-7.7-4.1-11.7
			c-0.7-3.8-1.7-7.5-3-11.1c-0.4-1.3-0.5-2.7-0.1-4.1c0.2-0.7,0.3-1.5,0.1-2.2c-0.2-0.7-0.8-1-1.4-0.4c-0.5,0.6-0.8,1.3-0.9,2
			c-1.8,6.2-4.4,12.2-6.5,18.3c-1.6,4.7-4,9.1-6.1,13.7c-1,2-2.5,3.7-4.4,5c-2.5,1.8-4.2,4.5-7.1,5.9c-1.1,0.5-2,1.6-3.7,1.5
			c0.8-2.7,1.6-5.2,2.4-7.8c2.1-6.5,3.8-13.1,5.1-19.8c0.9-4.6,0.9-9.3,1.7-13.9c1.1-6.7,2.4-13.4,3.7-20.1
			c0.6-3.4,0.9-6.8,1.4-10.1c1.4-10,4.2-19.8,8.4-29c3.2-6.7,7.4-12.7,13.5-17.1c0.4-0.4,0.9-0.6,1.4-0.7c0.4,0.8-0.1,1.5-0.3,2.1
			c-5,14.7-5,29.9-3.9,45.1c0.5,7,1.6,14,2.1,21c0.2,3.6,1.7,7,2.9,10.4c1.5,4,3.3,7.9,5.2,11.6c1.1,2.1,2.4,4,3.9,5.9
			C310.7,484.6,312.6,486,314.4,487.6z"/>
		<path style="fill:#FA0044;" d="M168.1,487.5c5.9-4.4,9.3-10.2,11.8-16.9c0.9-2.4,2.2-4.6,3.1-7c3.5-10.3,3.5-21.1,4.5-31.8
			c0.4-3.9,0.4-7.9,0.5-11.8c0.3-10.3-1.2-20.6-4.3-30.5c-0.4-0.9-0.6-2-0.6-3c3.9,2.1,6.6,5.2,9.2,8.5c5.2,6.7,8.3,14.3,10.6,22.4
			c2.2,7.4,3.7,15.1,4.4,22.8c0.3,3.2,0.9,6.3,1.7,9.4c1.6,6.6,2.2,13.4,3.5,20.1c0.2,1.1,0.3,2.3,0.3,3.5c-0.1,2.3,0.2,4.7,0.8,6.9
			c2.2,8,3.8,16.2,6.8,23.9c0.1,0.3,0.2,0.6-0.4,1.2c-2.8-1.2-5.4-2.9-7.6-5.1c-0.6-0.7-1.3-1.4-2-2c-3.5-2-5-5.3-6.6-8.7
			c-3.8-7.8-6.2-16-9.5-24c-0.8-1.9-1.2-3.8-1.9-5.8c-0.2-0.6-0.6-1.3-1.3-1.1s-0.8,1-0.6,1.6c1.1,3.5-0.5,6.7-1.4,9.9
			c-1.4,5.8-2.7,11.6-5.2,17.1c-1.3,2.9-3.1,5.2-6.7,5.5c-1.1,0.2-2.1,0-3.1-0.6C172.3,490.6,169.9,489.7,168.1,487.5z"/>
		<path style="fill:#FF9D00;" d="M122.4,233.9c1.6,1.8,2.9,3.8,3.7,6.1c2.4,5.8,5.6,11.3,9.5,16.2c0.2,0.3,0.4,0.5,0.6,0.7
			c4.8,3.7,7.9,8.8,11.6,13.4c3.6,4.6,7.7,8.8,12.3,12.5c1.8,1.2,2.7,3.3,2.4,5.4c-0.3,4,0.8,7.8,1.5,11.7c0.5,2.8,1.2,5.6,1.9,8.4
			c0.5,2.2,0.3,4.1-1.5,5.8c-1.3,1.4-2.6,2.8-3.7,4.4c-1.6,2.1-4.4,2.9-6.9,1.9c-2.3-0.7-4.5-1.8-6.5-3.2c-4.1-2.9-8.2-5.7-12.5-8.3
			c-1.7-0.9-2.8-2.7-2.9-4.6c-0.2-1.2-0.3-2.3-0.4-3.5c0-6-1.8-11.8-2.3-17.7c0-0.5-0.1-1.1-0.3-1.6c-1.6-4.1-1.9-8.5-2.1-12.9
			c-0.5-8-2.2-15.8-3-23.8C123.4,241.3,122.8,237.6,122.4,233.9z"/>
		<path style="fill:#FF9D00;" d="M360.1,234c-0.5,4.1-1.1,8.2-1.5,12.3c-1,9.2-2.9,18.3-3.2,27.6c0,0.6-0.1,1.3-0.3,1.9
			c-1.4,5.1-2,10.4-3.1,15.6c-0.7,3-0.3,6.2-0.9,9.2c-0.1,0.4-0.1,0.8-0.1,1.3c-0.1,3.5-1.3,6.1-4.6,8c-4.5,2.6-8.7,5.8-13,8.7
			c-1.9,1.2-4,2-6.2,2.2c-1.8,0.3-3.7-0.4-4.9-1.8c-1.7-2-3.5-4-5.2-6c-1.2-1.5-0.8-3.2-0.4-4.9c0.9-4.4,2-8.7,2.7-13.1
			c0.5-2.3,0.6-4.7,0.5-7c-0.3-1.7,0.4-3.4,1.9-4.4c8.4-6.6,14.5-15.2,21-23.5c0.3-0.5,0.6-0.9,1-1.3c6.1-4.5,9.2-11,12.2-17.6
			C357,238.8,358.1,236.2,360.1,234z"/>
		<path style="fill:#FAF600;" d="M241.2,39.6c-2-4.4-4.3-8.5-7.1-12.5c-1.3-1.9-2.8-3.7-4.5-5.4c-2.2-2.2-4.9-3.8-7.9-4.5
			c-9.9-2.4-19.9-4.5-30.2-3.9c-3.6,0.2-7.2,0-10.8,0c-0.2-1.1,0.6-1.2,1.1-1.4c10.8-3.5,21.4-7.8,32.6-10.1
			c8.4-1.8,17-1.7,25.5-1.8c9.7-0.1,19.4,0,29,1.8c2.8,0.6,5.6,1.3,8.3,2.2c7.1,2.3,14.2,4.6,21.2,7c1.6,0.3,3,1.1,4.1,2.3
			c-4.4,0-8.3,0.2-12.2-0.1c-6.5-0.4-12.8,0.5-19,1.6c-2.8,0.5-5.6,1.1-8.4,1.7c-4.8,1-9.2,3.7-12.2,7.6c-3.2,4-5.9,8.4-8.2,13
			C242.1,37.8,241.8,38.5,241.2,39.6z"/>
		<path style="fill:#FF2EF8;" d="M213,118.6c0.6-0.3,0.8-0.5,1.1-0.6c4-1.7,8.1-3.1,11.7-5.7c4.5-3.2,9.9-3.7,15.2-3.8
			c6.8-0.1,13.1,1.3,18.5,5.7c1.8,1.4,4.1,1.7,6.1,2.7c1.3,0.4,2.5,1,3.6,1.8c-1.5,1.5-2.8,3.1-4.3,4.6c-2.3,2.2-4.4,4.6-6.3,7.2
			c-0.8,1.2-1.8,2.2-2.9,3c-4.4,3.1-6.5,7.6-7.6,12.6c-2.1,10-3.6,20.1-3.1,30.4c0.2,3.7,0,7.4,0.1,11.2c0,1.4-0.4,2-1.8,1.7
			c-0.9-0.2-1.9-0.2-2.9-0.1c-3.3,0.1-3.2,0.1-3.2-3.3c0-6.9,0.3-13.9-0.2-20.8c-0.6-8.1-1.6-16.3-4.5-24.1c-1-2.6-2.6-4.9-4.8-6.6
			c-1.8-1.4-3.3-3-4.7-4.8C220.2,125.6,216.5,122.3,213,118.6z"/>
		<path style="fill:#FF2E50;" d="M116.8,221c-1.6-4.6-3.1-8.5-3.6-12.8c-0.3-2.3-0.9-4.6-1.8-6.8c-0.9-2.3-1.9-2.5-3.8-0.8
			c-1.7,1.5-3,3.4-3.9,5.4c-0.8,1.8-1.5,3.5-2.3,5.3c-1.2,2.6-2.2,5.1,0.4,7.5c2.4,6,5.8,11.6,8.1,17.7c1.2,3,2.7,5.8,4.3,8.5
			c0.9,1.6,2.1,3,4,3.4c0.8,0,1.4,0.7,1.3,1.5c0.5,6,1.7,11.8,1.8,17.8c0,0.4-0.1,0.9-0.2,1.3c-4.4-2-8.2-5-11.4-8.6
			c-4.7-5.5-9-11.4-12.8-17.6c-2.2-3.6-3-7.8-3.7-11.8c-2.6-14.4-3.3-29-2-43.6c0.4-3.8,0.8-7.6,1.2-11.4c0.3-2.1,1.2-4.1,2.6-5.8
			c3.2-4.3,8.8-4.3,12.3-0.1c2.3,2.8,4.1,6,5.3,9.4c2.4,7.2,4.1,14.5,5.2,22c0.2,0.9,0.2,1.9,0,2.9c-1.5,4.8-1.3,9.7-1.2,14.6
			C117,219.5,116.9,219.9,116.8,221z M95.9,203.9c0.1,1.2,0.1,2.3,0.2,3.3c0.1,0.6,0.2,1.3,1,1.4s1.3-0.5,1.5-1.3
			c0.2-1.3,0.5-2.5,0.8-3.7c1.7-5.4,3.3-10.8,5.1-16.1c0.4-0.8,0.3-1.7-0.1-2.4c-1.6-2.4-3.2-4.7-4.9-7.1c-0.6-0.9-1.4-0.8-2,0.1
			c-0.8,1.3-1.2,2.8-1.1,4.2C96.6,189.6,95.9,196.8,95.9,203.9z"/>
		<path style="fill:#FF2E50;" d="M365.7,219.4c0-1.3,0-2.5,0-3.8c0.1-1.7,0.1-3.4-0.2-5.1c-2.4-9,0.5-17.4,2.7-25.9
			c1.3-5.1,3.2-9.9,6.5-14.1s8.5-4.6,11.7-1.2c1.6,1.6,2.7,3.6,3.1,5.8c0.8,4.8,1.4,9.7,1.6,14.6c0.5,7.3,0.9,14.7,0.2,22
			c-0.9,9.5-1.6,19.1-4.6,28.3c-0.4,1.1-0.9,2.2-1.5,3.1c-3.8,6-8,11.8-12.6,17.3c-3.1,3.7-7.1,6.4-11.9,9c0.2-3.1,0.4-5.7,0.7-8.2
			c0.4-3.6,1.2-7.2,1.2-10.8c0-0.9,0.2-1.6,1.3-1.8c2.1-0.4,3.2-1.9,4.2-3.6c2.7-4.3,4.5-8.9,6.5-13.5c1.7-4.2,3.7-8.4,6-12.3
			c2-3.2,1.2-5.5,0-8.2c-1.3-3-2.2-6.3-4.5-8.8c-1-1.1-1.9-3-3.7-2.5c-1.5,0.4-1.6,2.3-2.1,3.7c-1.4,4.6-1.5,9.5-3.4,13.9
			c-0.3,0.7-0.5,1.4-0.8,2L365.7,219.4z M386.8,200.7c-0.2-2-0.5-3.7-0.5-5.4c-0.1-4.3-0.1-8.5-0.1-12.8c0.1-1.2-0.1-2.3-0.6-3.4
			c-1-2-1.8-2.2-3.2-0.5s-2.7,3.8-4,5.8c-0.8,0.9-0.9,2.3-0.2,3.3c0.4,0.8,0.6,1.6,0.7,2.4c1.4,5.9,4.1,11.4,5,17.5
			c0.1,0.7,0.7,1.1,1.4,1c0.8,0,1-0.6,1.1-1.3C386.5,205.1,386,202.7,386.8,200.7z"/>
		<path style="fill:#810026;" d="M194.4,159.3c-7.2,0.7-14.4,0.7-21.6,1.6c-3.4,0.3-6.7,1.1-9.9,2.4c-8.7,3.9-16.7,8.7-18.7,19.3
			c-0.3,1.5-0.2,3,0.2,4.4c0.9,3.1,1.4,6.4,3.8,9c0.3,0.3,0.5,0.7,0.6,1.1c1.5,6.1,5.1,11,9.4,15.3c3.3,3.2,7.5,5.4,12.1,6.2
			c4.1,0.9,8.3,2,12.6,1.6c7.5-0.8,15.1-1.4,21.9-4.9c4.2-2.1,7.9-5,11-8.6c1.9-2.4,3.4-5.2,4.3-8.1c0.7-1.9,2.5-3.1,4.6-3.2
			c1.2,0.1,1,1,0.6,1.6c-1.4,2.5-2.9,5-4.4,7.4c-2.2,3.6-4.5,7.2-6.7,10.9c-0.5,0.8-1.2,1.4-2.1,1.8c-7.8,4.8-16.6,6.4-25.3,8.3
			c-5.6,1.2-11.4,1.2-17-0.1c-0.5,0-1.1-0.1-1.6-0.3c-5.6-3-11.3-5.9-15.4-11.1c-2-2.4-3.8-4.8-5.6-7.4c-1-1.7-2.1-3.2-2.2-5.4
			c-0.2-2.4-1.9-4.5-3.6-6.3s-1.9-4-1.5-6.5c1.3-7.4,3.3-14.5,4.9-21.8c0.3-1.7,1.2-3.2,2.6-4.3c2.3-2.1,4.9-3.8,7.8-4.9
			c2.7-0.9,5.4-2.1,8-3.3c2.3-0.9,4.7-1.4,7.1-1.5c3.4-0.4,6.8-0.6,10.2-0.7c2.1-0.1,4.2-0.7,6.3-0.6c7.1,0.2,14.2,0.6,20.9,3.6
			c2.1,1,3.5,2.7,5.2,4.1c3.4,2.6,5.9,6.1,8.5,9.5c2.2,3,2.5,6.8,3.2,10.3c0.6,3.2,1.1,6.5,1.4,9.8c0.3,3-1.2,4.5-4.2,4.8
			c-0.9,0.1-1.4-0.3-1.4-1.2s0.2-1.9,0.3-2.9c1.1-7-0.5-13.3-5.4-18.6c-2.7-2.8-5.5-5.3-8.5-7.7C203.4,159.7,199,159.1,194.4,159.3z
			"/>
		<path style="fill:#810026;" d="M256.9,195c2.8,0.5,4.9,1.3,5.9,4.4c1.9,5.8,5.9,10.1,11.1,13.4c6.5,4.2,13.6,5.5,21,6.6
			c5.6,0.7,11.3,0.4,16.8-1c5-1.1,9.6-3.5,13.3-7.1c3.9-4,6.9-8.9,8.8-14.3c1-2.6,2.8-4.9,3.6-7.7c1.4-3.9,1.1-8.3-0.8-12
			c-2-4.1-5.1-7.6-9.1-10c-6.6-4.2-14.1-6.5-21.9-6.9c-6.5-0.4-12.9-0.8-19.4-1c-4.7-0.2-9.3,1.7-12.7,5c-2.5,2.4-5.3,4.5-7.5,7.3
			c-2.9,3.7-4.6,7.6-4.5,12.3c0.1,3.1-0.2,6.1,0.7,9.5c-1.9-0.1-3.3-1-4.7-1.5c-1.1-0.4-1.1-1.4-1.1-2.4c-0.1-4.1,0.9-8,1.5-12
			c0.2-1.5,0.7-2.9,1-4.4c0.9-4.6,3.4-8.2,6.8-11.3c1.6-1.4,3.2-2.8,4.8-4.2c3.4-3.1,7.7-5,12.3-5.5c2.8-0.4,5.7-0.9,8.5-1.1
			c1.7-0.3,3.4-0.3,5.1,0c4,0.9,8.1,0.8,12.1,0.9c8.2,0.3,15.3,3.4,22.3,7c2,1,3.5,2.7,5.3,4c0.8,0.8,1.2,1.8,1.3,2.8
			c1.3,5.6,2.7,11.2,3.9,16.8c0.5,2.7,0.3,5.5,0.9,8.2c0.2,1.1-0.1,2.2-0.8,3c-0.9,1.2-1.8,2.4-2.5,3.7c-0.6,1-1.5,2.1-1.5,3.1
			c0,2.8-1.6,4.8-3,6.9c-2.4,3.4-4.7,6.9-7.9,9.5c-5.7,4.5-11.5,8.4-19.3,9c-5.1,0.4-9.7-0.8-14.5-1.6c-7.9-1.1-15.5-3.6-22.4-7.5
			c-0.9-0.4-1.6-1-2.2-1.8c-3.7-6.1-7.4-12.2-11.1-18.3C256.6,196.3,256.5,195.6,256.9,195z"/>
		<path style="fill:#FA0044;" d="M305.7,128.1c-4.2,1.6-8.5,3.2-12.7,4.9c-3.4,1.3-6.4,3.3-9,5.9c-2.3,2.3-4.8,4.5-7.5,6.4
			c-2.7,2-5.1,4.2-7.2,6.7c-2.2,2.5-4.6,4.8-6.9,7.1c-2.4,2.2-4.1,4.9-5,8c-0.4,1.2-0.9,2.4-1.4,3.5c-2.7,5.9-3.5,12.2-3.4,18.7
			c0.1,0.4,0.1,0.8,0,1.3c-0.2,1.1,0.8,2.8-1.2,3.1c-1.2,0.2-3-1.7-3.2-3.1c0-0.3,0-0.7,0-1c-0.1-7.4,0.1-14.7,0.4-22
			c0.4-7.2,1.8-14.1,3.2-21.1c0.9-4,3-7.7,6-10.6c4.7-4.6,9.7-9,14.5-13.5c1.1-1.2,2.7-1.7,4.3-1.6c5.4,0.5,10.8,0.6,15.9,3.1
			c3.6,1.6,7.4,2.7,11.3,3.3C304.5,127.3,305.3,127.2,305.7,128.1z"/>
		<path style="fill:#FA0044;" d="M177,127.6c1.5-0.3,3.1-0.6,4.6-1c3.2-0.7,6.4-1.7,9.4-3c1.7-0.8,3.6-1.3,5.5-1.7
			c3.1-0.6,6.3-0.8,9.5-1c1.6-0.2,3.2,0.4,4.3,1.6c4.9,4.8,10,9.2,14.9,13.9c2.8,2.7,4.7,6.1,5.6,9.9c3.5,14.2,3.9,28.6,3.8,43.1
			c0.1,1.2-0.3,2.4-1.2,3.1c-0.8,0.6-1.4,1.5-2.5,1.1c-1.2-0.4-0.8-1.7-0.7-2.5c0.3-4-0.5-7.8-0.6-11.8c-0.1-1.1-0.3-2.1-0.7-3.1
			c-1.4-3.8-2.8-7.6-4.3-11.3c-0.9-2-2.1-3.7-3.7-5.2c-3.1-3.1-6.2-6.1-9.1-9.4c-0.3-0.3-0.6-0.6-0.9-0.9c-4.7-4.3-9.9-8-14.5-12.4
			c-2.3-2-4.9-3.4-7.8-4.4c-3.9-1.4-7.7-3-11.6-4.5L177,127.6z"/>
		<path style="fill:#008FD2;" d="M227.9,487.4c-0.1-2.6-0.3-5.2-0.3-7.9c-0.1-7.8-0.1-15.5-1.3-23.2c-0.9-6.3-2.4-12.5-3.5-18.8
			c-0.9-5.4-1.6-10.8-3.5-15.9c-1.5-4.3-2.6-8.8-3.3-13.3c-0.9-4.1-2.4-8.2-4.2-12c-0.8-1.6-0.5-3.4,0.6-4.7
			c0.8-1.2,2.2-1.8,3.6-1.5c4.4,0.9,8.9,0.8,13.4,0.8c3.5,0,3.5,0.2,4,3.5c1.7,10.2,1.6,20.6,1.7,30.9c0,6.6-0.5,13.2-1.6,19.7
			c-1.3,8.7-2.6,17.5-2.3,26.4C231.4,477.5,230.3,483.2,227.9,487.4z"/>
		<path style="fill:#008FD2;" d="M254.5,487.3c-2.1-4.2-3.2-8.8-3.2-13.5c0.3-11.6-1.5-22.9-3.1-34.3c-0.5-4.1-0.8-8.3-0.7-12.4
			c-0.1-8.4,0.1-16.8,0.6-25.2c0.2-3,0.9-5.9,1.2-8.9c0-1.1,0.9-2.1,2-2.1c0.1,0,0.2,0,0.3,0c1,0,1.9,0,2.9,0
			c3.9,0.1,7.9-0.2,11.8-0.8c2.2-0.4,4.4,1,4.8,3.3c0.1,0.7,0.1,1.4-0.1,2c-0.1,0.5-0.3,1-0.5,1.5c-2.4,4.9-3.9,10.1-4.7,15.5
			c-0.5,4.3-2.5,8.1-3.6,12.2c-1.7,6.5-2.2,13.2-3.8,19.7c-2.7,11.6-3.4,23.3-3.4,35.2C255,482.2,254.6,484.7,254.5,487.3z"/>
		<path style="fill:#FF2E50;" d="M234.1,301.9c1.6-0.2,3.2,0,4.7,0.6c1.6,0.8,3.4,0.8,4.9,0c1.3-0.6,2.6-0.8,4-0.6
			c5.3,0.6,10.7,0.2,15.9,1.2c1.3,0.1,2.5,0.4,3.7,0.9c5.5,2.6,11.1,5,16.1,8.4c1.2,0.8,3.4,1.7,2.7,3.4c-0.5,1.4-2.6,0.6-4.1,0.7
			c-1-0.1-1.9,0-2.9,0.1c-4.4,1.2-9.2,0.8-13.4-1.1c-4.9-2.1-10.3-1.9-15.4-1.2c-6.1,0.8-12.3,0.8-18.4,0
			c-5.8-0.7-11.8-0.8-17.2,1.8c-2.8,1.2-6,1.6-9,1c-2.4-0.5-4.8-0.7-7.3-0.6c-0.4,0-0.9,0-1.3-0.1c-0.5,0-1.1-0.2-1.4-0.7
			c-0.2-0.5,0.2-1,0.6-1.4c1.3-1,2.5-2,3.8-2.9c4.4-2.8,9.2-4.8,13.9-7.1c2.6-1.3,5.5-1.5,8.4-1.8
			C226.4,302.3,230.3,302.4,234.1,301.9z"/>
		<path style="fill:#810026;" d="M216.7,198.5c-1.1,3.6-3.4,6.8-6.6,8.9c-6.4,4.7-13.9,7.5-21.8,8.1c-3,0.4-5.9,0.6-8.9,0.6
			c-4.2-0.1-8.3-0.8-12.2-2.2c-7.4-2.6-12.1-8-15.1-15.1c-1.6-3.7-2.8-7.6-4-11.4c-1.9-5.9,1.6-12.5,6.4-15.9
			c4.6-3.2,9.5-6,15.1-7.2c4-0.7,8-1.2,12-1.3c5.2-0.3,10.4-0.1,15.7-0.1c2.7-0.1,5.3,0.7,7.5,2.3c4.1,3.2,8.2,6.5,11,11
			c1.5,2.2,2.4,4.8,2.3,7.5c-0.1,2.9,0.5,5.7-0.1,8.6c0,0.5-0.1,1.1-0.2,1.6c-0.4,1-1.5,1.7-2.6,1.5c-1.2,0-1.3-1-1.3-1.8
			c-0.2-3.6-0.7-7.2-1.6-10.7c-1.1-3.9-2.6-7.6-5.6-10.6c-3.6-3.5-8.5-5.5-13.5-5.6c-4.9-0.3-9.8-0.1-14.6,0.7
			c-7.1,1.4-13.9,4-20.1,7.9c-3.1,1.9-5.4,5-6.2,8.6c-0.4,1.5-0.5,3.2,0.7,4.2c2.6,2.5,3.4,5.9,4.6,9c1.6,4.1,4.5,6.9,8.2,8.9
			c4.2,2.2,8.8,3.4,13.5,3.6c5.7,0.5,11.5,0.1,17.1-1.2c6.3-1.4,12-4.5,16.6-9C214.1,198.4,215,197.8,216.7,198.5z"/>
		<path style="fill:#810026;" d="M294.1,163c4.6-0.4,10.2,0.2,15.8,0.9c4.2,0.5,8.4,1.5,12,4c1.5,1,3.1,1.9,4.7,2.7
			c3.4,1.8,5.5,4.6,7.2,7.9c1.4,2.7,1.7,5.8,0.8,8.7c-1.8,5.6-3.4,11.2-6.5,16.2c-2.6,4.5-6.5,8-11.3,9.9
			c-6.7,2.7-14.1,3.5-21.3,2.4c-2.6-0.4-5.2-0.9-7.8-1.3c-6.3-1-11.6-4.1-16.5-7.9c-2.1-1.7-3.8-3.8-4.8-6.3c-0.2-0.6-0.6-1.2,0-1.7
			c0.5-0.4,1.2-0.4,1.8-0.1c0.5,0.3,1,0.8,1.5,1.2c5.9,5.6,13.6,9,21.7,9.7c3.7,0.4,7.4,0.5,11.1,0.4c4.9-0.1,9.7-1.3,14.1-3.5
			c4.8-2.4,7.7-6.3,9.2-11.3c0.7-2.5,1.9-4.7,3.6-6.7c1.1-1.2,1.4-2.9,0.8-4.5c-1.1-3.9-3.8-7.3-7.3-9.3c-6.4-3.5-13-6.4-20.2-7.4
			c-6.4-0.9-12.9-1.3-19.2,0.7c-5.9,1.7-10.5,6.2-12.2,12.1c-1.4,4.3-2.3,8.8-2.6,13.4c0,0.9,0.4,2.2-1.1,2.1c-1.2,0-2.4-0.2-2.8-2
			c-2.3-10.2,0.9-18.5,9.1-24.8c1.9-1.4,3.4-3.2,5.5-4.3c1.7-0.9,3.6-1.4,5.5-1.4C287.5,163,290.3,163,294.1,163z"/>
		<path style="fill:#FF2E50;" d="M198.8,321c1.7,0,3.6-0.1,5.6,0c3.7,0.2,7.5-0.3,11-1.6c4.6-1.6,9.6-2,14.4-1.1
			c8,1.3,16.2,1.3,24.1-0.2c4.3-0.8,8.8-0.4,12.9,1.1c3.9,1.4,8.1,2,12.2,1.8c1.6-0.1,3.4-0.5,5,0.3c-0.1,2.3-2.3,2.5-3.5,3.7
			c-3.1,3-6.9,4.3-11,5.2c-6.1,1.2-12.2,1.8-18.4,1.9c-7.6,0.2-15.1-0.2-22.6,0c-6.2,0.1-12.2-1.1-18.3-2.5
			c-4.7-1.1-7.9-4.4-11.4-7.3C198.4,322.1,198.3,321.7,198.8,321z"/>
		<path style="fill:#008FD2;" d="M295.8,319.3c-2.6,3.8-4.8,7.8-7.9,11.1c-2,2.2-3.5,4.8-6,6.6c-4.9,3.7-10.4,5.1-16.4,5.6
			c-4.8,0.3-9.5,0.8-14.3,1.1c-0.6,0.1-1.3,0.1-1.9,0c-5.5-0.6-11.1-0.6-16.6,0c-1.7,0.1-3.4,0-5.1-0.3c-6.1-0.7-12.4-0.5-18.4-2.1
			c-5-1.3-9.4-4.1-12.6-8.2c-3.2-3.9-6.3-8.1-9.1-12.3c-0.5-0.6-0.8-1.3-0.9-2h4.2c0.9,0,1.9,0.4,2.5,1.1c2.8,2.9,5.2,6.1,8.6,8.5
			c1.8,1.5,3.9,2.6,6.1,3.4c7.3,2,14.6,3.6,22.3,3.3c4.4-0.2,8.7,0.6,13.1,0.3c6.9-0.5,13.9,0.2,20.7-1.2c3.4-0.7,6.9-1.5,10.2-2.5
			c4.7-1.4,7.9-4.8,11.3-8.1c0.4-0.5,0.8-1,1.1-1.5C289,319.3,291.8,318.1,295.8,319.3z"/>
		<path style="fill:#FF9D00;" d="M305.1,370.8c-0.2,3.3-1.7,6.3-4.2,8.4c-6.6,5.8-12.8,11.9-17.2,19.6c-2.9,4.9-5.2,10.2-6.9,15.8
			c-1.8,6.3-3.8,12.6-5.7,19c-0.3,0.8-0.5,1.6-0.5,2.5c0.2,5.3-1.4,10.3-2.2,15.5c-1.3,8.6-3,17.2-3.5,25.9c-0.1,2.3-1,4.4-1.5,6.5
			s-1.1,4.3-1.6,6.5c-0.1,0.6-0.4,1-1,1s-0.9-0.5-0.9-1.1c0-1.6,0-3.2,0.1-4.8c0.2-2,0.3-4,0.3-6.1c0.2-10.9,0.4-21.7,1.9-32.5
			c1-6.2,2.3-12.3,4.1-18.4c1.4-5.2,2.6-10.5,3.5-15.9c1-6.6,3.8-12.6,5.8-18.9c0.2-0.5,0.5-1,0.6-1.5c1.5-6.1,5.6-9.4,11.4-11.4
			c5-1.7,9.6-4.3,13.5-7.8C302.1,372.3,303.2,371.1,305.1,370.8z"/>
		<path style="fill:#FF9D00;" d="M177.2,370.8c2,0.1,3.1,1.4,4.3,2.4c4,3.4,8.6,6,13.5,7.8c1.6,0.6,3.1,1.4,4.6,2.1
			c2.4,1,4.3,2.9,5.2,5.4c2.9,7.4,6.2,14.7,7.7,22.6c1.4,7.3,3,14.6,5,21.8c2.6,9.5,4,19.2,4.3,29c0.3,8.9,0.6,17.9,0.8,26.8
			c0,0.9,0.8,2.5-0.8,2.7s-1.1-1.5-1.4-2.4c-0.3-1.1-0.6-2.3-0.9-3.4c-1.1-4.2-1.9-8.5-2.3-12.8c-1.1-8.8-2.1-17.5-4-26.2
			c-0.4-1.2-0.7-2.5-0.8-3.7c0.2-7.8-2.9-14.8-4.9-22c-1.2-4.6-2.7-9.2-4.4-13.6c-4-9.1-9.8-17.3-17.2-24c-1.1-1-2.1-2.1-3.2-3.1
			C178.7,376.4,178.7,376.4,177.2,370.8z"/>
		<path style="fill:#42C274;" d="M245.9,268.4c-3.1-0.9-6.6-0.3-10.2,0c-2,0.2-3.2-0.5-4.1-2.6c-1.4-3.5-3.3-6.9-5.1-10.3
			c-1.1-2.1-2.5-4-4.2-5.5c-3-2.8-3.2-5.8-0.5-8.9c1.2-1.3,2.6-2.5,4.1-3.6c0.7-0.6,1.7-0.6,2.4,0c2.1,1.9,4.8,2.8,7.2,4
			c1.2,0.7,2.4,1.4,3.4,2.3c1.9,1.6,3,1.6,4.8,0.1c1.8-1.6,4-2.9,6.3-3.7c1.5-0.6,2.8-1.5,4-2.5c0.6-0.7,1.6-0.8,2.3-0.4
			c2.5,1.8,5.1,3.5,6,6.8c0.5,1.9,0.4,3.6-1.2,4.9c-3.5,2.9-5.4,6.8-7.2,10.7c-1.1,2.3-2.2,4.6-3.2,6.9
			C249.7,268.7,248,268.4,245.9,268.4z"/>
		<path style="fill:#8DCA07;" d="M296.8,336.5c0.2,0.5,0.3,1.1,0.3,1.7c0,9,1,18,1.4,27.1c0.3,1.9-0.7,3.7-2.3,4.6
			c-5.1,3.5-11,5.7-16,9.2c-2.5,1.8-5.6,2-8.4,2.7c-1.3,0.3-1.8-0.2-1.8-1.5c0.1-2-0.2-4-0.7-6c-0.4-1.3,0.4-2.3,1-3.3
			c4.1-7,7.1-14.6,8.9-22.5c0.2-0.9,0.4-1.9,0.6-2.8c0.6-3.7,3.5-6.5,7.2-7C290.1,338.3,293.4,338.1,296.8,336.5z"/>
		<path style="fill:#8DCA07;" d="M212.1,381.9c-3.5-0.7-7.1-1.1-10.2-3.1c-5.1-3.5-11-5.7-16-9.2c-1.2-0.7-1.9-1.9-1.8-3.3
			c0-7,1-14,1.2-21c0.1-2.8,0-5.5,0-8.4c2.3-0.1,4,1.2,5.9,1.4c1.9,0.1,3.8,0.3,5.7,0.9c3,1.1,5.4,2.8,6.1,6.6
			c1.6,8.8,4.7,17.3,9.3,25c1.1,1.5,1.4,3.4,0.8,5.1C212.3,377.7,212.8,379.8,212.1,381.9z"/>
		<path style="fill:#FB9BC5;" d="M214.4,369c-4-7.6-6.9-15.8-8.6-24.2c23.5,3.7,47.4,3.7,70.9,0c-1.6,8.4-4.5,16.5-8.5,24
			c-3-1.7-4.8-4.3-6.9-6.7c-3.9-4.4-9-7.6-14.6-9.3c-7.3-2.4-13.3,0.4-19.3,3.8c-3.4,2-5.9,4.9-8.3,7.9
			C217.8,366.3,216.2,367.8,214.4,369z"/>
		<path style="fill:#FAF600;" d="M236.5,392.1h9.5c0.2,1.1,0.2,2.2-0.1,3.2c-2.1,13.2-2.5,26.5-1.2,39.8c0.7,6.1-0.2,12.4,0.7,18.5
			c1.1,8.5,0.6,17,1.3,25.5c0.1,3.1-0.1,6.1-0.4,9.2c-3.3,1-6.8,1-10.1,0c-0.1-3.2-0.3-6.6-0.2-10c0.2-4.1,0.3-8.3,0.3-12.5
			c0.1-5.4,0.8-10.8,1.1-16.2c0.3-5.1-0.2-10.2,0.4-15.3c1.4-11.8,0.6-23.6-0.7-35.4C236.9,396.7,236.2,394.6,236.5,392.1z"/>
		<path style="fill:#008FD2;" d="M184.8,314.4c0.4-1.1,1.2-2.1,2.2-2.8c6.7-5.9,14-11.1,21.8-15.5c4.5-2.5,9.5-3.6,14.4-5
			c1.5-0.4,3.1-0.8,4.7-1.1c2.7-0.6,5.5-0.7,8.2-0.2c3.4,0.8,7,0.8,10.5,0c2.3-0.5,4.6-0.5,6.9,0c6.5,1.3,13,2.8,18.9,5.7
			c6.2,2.9,11.9,6.7,17,11.2c2.2,2,4.9,3.4,6.9,5.6c0.5,0.5,1.3,0.8,1.2,2c-1.9,0.5-3.9,0.2-5.9,0.2c-0.5,0-0.7-0.4-1-0.7
			c-2.3-2.9-5.6-4.5-8.5-6.6c-6.7-4.7-14.6-7.5-22.9-8.1c-1.5-0.2-2.9-0.6-4.4-1c-3.2-0.7-6.5-1.1-9.8-0.1c-2.6,0.8-5.3,0.8-7.9,0
			c-2.8-0.7-5.7-0.8-8.5-0.1c-4.7,1-9.4,1.9-14.1,2.6c-3.1,0.5-6,1.7-8.6,3.3c-4.1,2.3-8,4.8-11.9,7.5c-0.4,0.2-0.7,0.5-1,0.8
			C191.2,315.6,188.1,314.7,184.8,314.4z"/>
		<path style="fill:#FF2EF8;" d="M236,356.4c-0.5,2.8-0.7,5.5-1.1,8.2c-0.6,3.9,0,7.9,1.5,11.6c0.7,2.1,2.7,3.5,4.9,3.3
			c2.2,0.2,4.2-1.2,4.9-3.3c1.5-3.5,2-7.4,1.5-11.2c-0.5-2.8-0.5-5.7-1.7-8.6c1.4,0.1,2.7,0.6,3.9,1.4c1.7,1,3.4,2.2,5.1,3.3
			c0.8,0.4,1.3,1.2,1.4,2c1.1,4.9,2.7,9.6,2.8,14.7c0.1,1.4,0.1,2.8,0.1,4.1c-0.2,2.9-2.4,5.1-5.3,5.3c-8.5,0.7-17,0.7-25.5,0
			c-3.4-0.3-5.3-2.4-5.4-5.8c-0.1-3.8,0.3-7.7,1.2-11.4c0.4-1.1,0.7-2.2,0.9-3.4C225.8,359.9,231.5,358.9,236,356.4z"/>
		<path style="fill:#810026;" d="M341.3,244.2c0.6,2.8,1,5.6,1.2,8.4c0,2.6-1,5.1-2.7,7c-4,4.7-8,9.4-12.1,14
			c-4.2,4.5-8.9,8.5-14,12c-2.2,1.5-4.2,3.3-6.1,5.1c-4.2,4.3-8.8,8.4-11.6,13.9c-1.1,2.2-2.4,2.2-3.7,0.7c-0.4-0.5-0.6-1.1-0.5-1.7
			c0.3-3.9,1.5-7.8,3.6-11.1c5.8-9.3,13-17.7,21.4-24.8c3.9-3.3,7.3-7.1,11-10.7c4-3.9,7.8-7.8,11.8-11.7
			C340,244.9,340.3,244.2,341.3,244.2z"/>
		<path style="fill:#810026;" d="M141.4,244.5c1.1,0.2,1.7,1.1,2.3,1.7c5.8,5.8,11.5,11.6,17.4,17.4c2.4,2.4,5.1,4.6,7.6,6.8
			c3.5,2.9,6.6,6.1,9.3,9.6c2.9,3.9,5.7,7.7,8.4,11.6c2.2,3.3,3.6,7.1,4,11c0.2,0.8,0.1,1.7-0.3,2.5c-1.2,1.7-2.4,1.9-3.3,0.1
			c-3.2-6.5-8.7-10.9-13.6-15.9c-3.2-3.3-7.2-5.6-10.7-8.5c-4.8-4.2-9.3-8.8-13.3-13.8c-2.1-2.5-4.3-5-6.4-7.5
			c-2.4-2.9-3.4-6.1-2.3-9.8C140.9,248,140.2,246.1,141.4,244.5z"/>
		<path style="fill:#810026;" d="M272.4,197.5c1-1,2.4-1.2,3.6-0.7c4.2,1.2,8,3.3,12.3,4.2c6.8,1.5,13.8,1.1,20.4-1.1
			c4.4-1.4,8.6-3.7,12.2-6.7c1.2-0.8,1.6-2.3,1.1-3.6c-1-3.2-3.1-5.9-5.9-7.7c-5.1-3.6-11.2-5.5-17.4-5.3c-3.6,0-7.2-0.4-10.8,0.5
			c-2.9,0.6-5.6,2-7.8,4.1c-1.4,1.4-2.7,2.7-3.9,4.2c-1.5,1.8-2.9,3.8-2.6,6.3c0,0.4-0.1,0.8-0.2,1.2c-0.1,0.4-0.5,0.7-1,0.7
			c-0.5,0-0.7-0.4-0.7-0.8c0-1,0-1.9,0.1-2.9c0.7-3.7,1.7-7.3,3.2-10.7c2.1-5.1,6.9-8.5,12.4-8.9c5.6-0.8,11.3-0.6,16.8,0.5
			c6.7,1.4,13,4.1,18.7,7.8c1.1,0.7,2,1.6,2.7,2.6c1.5,2.1,2,4.1,0.4,6.4c-1.2,1.8-1.5,3.9-2.1,5.9c-1.2,4.2-4,7.7-7.8,9.7
			c-3.8,2.1-8.1,3.3-12.5,3.4c-5.5,0-11,0.3-16.5-1.3C281.7,203.8,276.7,201.2,272.4,197.5z"/>
		<path style="fill:#810026;" d="M188.3,170.2c3.8-0.2,7.6-0.4,11.3,1.2c3.5,1.4,6.3,4.1,7.9,7.5c1.6,3.9,2.7,8,3.5,12.2
			c0.1,0.5,0.1,1.1,0,1.6c0,0.4-0.3,0.8-0.8,0.8c0,0,0,0-0.1,0c-0.4,0-0.8-0.3-0.9-0.7c-0.1-0.2-0.1-0.4-0.1-0.6
			c-1.6-9.2-9.7-15.9-19-15.9c-5.1,0-10.2-0.3-15.2,1.3s-9.5,3.8-12.6,8.2c-0.7,1-1.2,2-1.6,3.1c-0.7,2.1-0.2,3,1.4,4.5
			c5.2,4.7,11.6,6.6,18.2,7.9c7.8,1.4,15.2-0.1,22.3-3.3c1.6-0.6,3.2-1.2,4.8-1.6c0.7-0.3,1.5-0.1,2,0.6c0.6,0.9-0.2,1.4-0.8,1.8
			c-3.8,2.8-8,4.9-12.5,6.3c-4.8,1.5-9.9,1.7-14.8,1.7c-5,0.1-10-1-14.5-3.4c-4.3-2.4-7.5-5.8-8.3-11c-0.4-1.9-1.2-3.7-2.3-5.2
			c-1-1.6-1-3.6,0.1-5.1c1.2-2,2.9-3.7,5-4.8c5.9-3.5,12.3-5.9,19-7.1C182.9,169.9,185.7,170.2,188.3,170.2z"/>
		<path style="fill:#FF2EF8;" d="M330.3,249c-1.7,2.1-3.6,4.1-5.7,5.8c-4.6,3.5-9.1,7-13.5,10.8c-3.5,3-7.5,4.2-11.9,5
			c-4.1,0.6-8.1,1.7-12,3.2c-3,1.2-5.3,3.6-6.3,6.7c-1.4,4.6-2.2,9.3-2.1,14.1c-2.5-1.1-4.6-2.5-6.9-3.3c-0.9-0.3-0.8-1.2-0.6-1.9
			c1.3-7.1,4.9-13.6,10.3-18.3c2.9-2.5,5.6-5.2,8.5-7.7c2.8-2.3,5.5-4.7,8.3-7c3.5-2.9,7.9-4,12.2-4.2c4.8-0.3,9.4-2,14.1-2.5
			C326.3,249.5,327.9,248.6,330.3,249z"/>
		<path style="fill:#FF2EF8;" d="M203.8,294.9c-0.2-2.4-0.3-4.3-0.4-6.2c-0.3-3.3-1.1-6.5-2.3-9.6c-1-2.6-3.1-4.2-5.6-5.3
			c-3.7-1.5-7.7-2.6-11.7-3.2c-5-0.7-9.6-2.7-13.5-6c-3.7-3.3-7.7-6.3-11.7-9.4c-2.3-1.6-4.3-3.7-5.9-6.1c1.2-0.7,2-0.1,2.9,0.1
			c4,0.8,7.9,1.5,11.9,2.5c2.4,0.6,5,0.3,7.6,0.8c4.4,0.9,8.4,3,11.7,6c4.5,3.9,8.9,7.9,13.4,11.8c5.7,4.8,9.5,11.3,11,18.6
			c0.3,1.4,0.1,2.2-1.3,2.7C207.7,292.4,205.6,293.5,203.8,294.9z"/>
		<path style="fill:#810026;" d="M136.3,209.2c1.2,0,2.3,0.8,2.7,1.9c1.9,3.8,4.9,6.9,6.7,10.8c1,1.8,2.2,3.4,3.7,4.8
			c1.4,1.3,2.8,2.6,4.1,4.1c4.1,4.7,9.6,6.3,15.5,7.2c7.6,1,15.3,0.8,22.9-0.7c0.6-0.2,1.3-0.1,1.9,0.1c0.1,1-0.9,1.1-1.4,1.5
			c-2.2,1.6-4.5,3.3-6.8,4.8c-4.6,3.1-10.2,4.4-15.7,3.9c-3.8-0.2-7.6-0.7-11.4-1.3c-2.3-0.5-4.5-1.2-6.7-2.1c-2-0.8-3.7-2.1-5-3.8
			c-3.8-5.2-7.7-10.2-9.4-16.5C136.3,219,135.9,214.1,136.3,209.2z"/>
		<path style="fill:#810026;" d="M287.7,237.2c2.8-0.4,5.5,0.6,8.2,0.9c8,0.8,15.9,0.8,23.7-1.5c3.3-0.8,6.3-2.6,8.7-5.1
			c2.2-2.5,4.8-4.8,7-7.4c1.9-2.4,2.8-5.3,4.7-7.5s2.7-5,4.6-7.1c1.1,0.6,0.7,1.4,0.7,2.1c0.1,3.2,0,6.4-0.3,9.6
			c-0.6,5.5-3.8,9.8-6.7,14.3c-0.3,0.5-0.9,1-1.1,1.5c-3.9,7.1-10.6,9-17.8,10c-3,0.4-5.9,0.6-8.9,0.6c-5.7,0.3-11.3-1.4-15.8-4.9
			c-1.6-1.2-3.3-2.3-5-3.5C288.9,238.6,288,238.2,287.7,237.2L287.7,237.2z"/>
		<path style="fill:#FA0044;" d="M209,276.3c-1.1-1.7-1.9-2.8-2.7-3.9c-4.3-5.6-9.6-10.2-15.2-14.4c-1.9-1.5-3.7-3.2-5.1-5.2
			c-1.5-2.2-0.9-5.1,1.3-6.6c0,0,0.1,0,0.1-0.1c4.4-2.9,8.9-5.9,13.3-8.7c2.4-1.7,4.7-3.7,6.8-5.9c2.6,2.9,3.9,5.6,3.1,9.7
			c-2.1,9.9-1.8,20.1-1.6,30.2C209,272.8,209,274.2,209,276.3z"/>
		<path style="fill:#FA0044;" d="M273.8,275.3c-0.2-5.6,0-11.1-0.1-16.6c-0.2-6.4-0.4-12.8-1.9-19c-0.8-3.2,1.2-5.2,2.8-7.4
			c0.4-0.6,1-0.3,1.4,0.1c4.2,5,10.4,7.4,15.3,11.4c1.1,0.8,2.3,1.6,3.5,2.3c2.8,1.7,3.5,4.8,1.5,7.3c-1.2,1.5-2.5,2.9-4,4.1
			C285.5,262.6,278.9,268.1,273.8,275.3z"/>
		<path style="fill:#810026;" d="M334.8,158.4c-4.5-4.1-10.2-5.4-15.2-8.1c-3-1.6-6.6-1.2-10-1.9c-4.3-0.8-8.7-0.5-13-1.2
			c-2.4-0.4-4.9-0.3-7.3,0.2c-1.8,0.2-3.7,0.4-5.5,0.4c2-2.9,4.6-4.2,6.9-5.8c6.3-4.2,13.4-7,20.9-8.1c4-0.9,8.1-0.6,11.9,0.9
			c3.9,1.7,5.5,5.3,7.1,8.7c2,4.3,2.9,9.1,4.4,13.6C335.1,157.4,334.9,157.8,334.8,158.4z"/>
		<path style="fill:#810026;" d="M198.9,147.7c-2.9,0.4-5.7-0.6-8.6-0.5c-8,0.1-15.9,0.8-23.7,2.2c-6,1.2-11.5,4.3-16.8,7.4
			c-0.5,0.3-1,0.8-1.7,0.8c-0.1-0.2-0.3-0.4-0.3-0.5c1.8-6.4,3.3-12.9,7.1-18.7c1.9-2.9,5.1-4.7,8.5-4.7c8.6-0.6,16.6,1.8,24,6.1
			c3.1,1.8,6.3,3.6,9.2,5.7C197.4,146.2,198.4,146.6,198.9,147.7L198.9,147.7z"/>
		<path style="fill:#FAF600;" d="M222.2,233.6c0.5-2.6,1.2-5.1,2-7.6c1.8-4.9,3.1-10,3.9-15.1c0.9-4.4,2.6-8.6,5.1-12.3
			c4.5-7,11.7-6.9,16.2,0.1c2.5,3.8,4.3,8.1,5.1,12.6c0.8,4.9,2,9.8,3.7,14.5c0.9,2.7,1.6,5.4,2.1,8.1c-1.5-0.5-1.8-1.6-2.3-2.5
			c-2.7-4.4-5.1-8.8-7.5-13.4c-1.6-3.6-5.2-5.9-9.2-5.8c-4.4-0.1-7.5,2.2-9.5,5.9c-2.4,4.4-4.8,8.8-7.4,13.1
			C224.1,232.2,223.2,233.1,222.2,233.6z"/>
		<path style="fill:#FA0044;" d="M346.2,318.2c-2.6,4.6-5.8,8.7-9.6,12.3c-3,2.7-6.3,5-9.9,7c-0.9,0.5-1.9,0.8-3,0.8
			c-1.2,0.2-2.3-0.5-2.8-1.6c-1.6-3.1-3.3-6.2-5.1-9.2c-1.5-2.6-1.7-2.5-4.6-1.7c-4.1,1.2-8,3-11.5,5.5c-3.2,2-6.7,3.3-10.4,3.8
			c0-0.5,0-0.8,0.1-0.9c3.9-4.2,6.5-9.4,9.9-14.1c0.8-1,1.4-1.6,2.9-1.2c3.6,1,6.9,0.5,9.7-2.3c1.7-1.7,2.2-1.5,3.9,0.3
			c1,1.1,2,2.2,2.8,3.5c2.9,4,6.9,4.7,11.4,3.6c3.2-0.7,6.3-1.8,9.3-3.4C341.4,319.4,343.8,318.6,346.2,318.2z"/>
		<path style="fill:#FA0044;" d="M193.1,334.6c-3.8-0.4-7.4-1.3-10.5-3.4c-3.6-2.5-7.6-4.4-11.8-5.5c-2.3-0.7-2.6-0.7-3.9,1.5
			c-1.7,2.8-3.3,5.7-4.9,8.6s-3.2,3.4-6.2,1.8c-6.1-3.2-11.5-7.8-15.7-13.3c-1.2-1.6-2.4-3.2-3.6-4.9c-0.3-0.4-0.4-0.9-0.1-1.3
			c2.5,0.5,4.8,1.4,7,2.7c2.8,1.5,5.9,2.6,9,3.3c4.6,1.1,8.7,0.4,11.6-3.8c1-1.4,2.1-2.7,3.3-3.9c0.6-0.8,1.8-1,2.7-0.4
			c0.1,0,0.1,0.1,0.2,0.1c0.3,0.2,0.5,0.4,0.8,0.6c2.6,2.9,5.9,3.1,9.4,2.2c1-0.4,2.2,0,2.7,0.9C186.5,324.6,189.1,330,193.1,334.6z
			"/>
		<path style="fill:#810026;" d="M210.3,222.5c-0.2,5-4,7.1-7.6,9.5c-0.2,0.1-0.4,0.2-0.6,0.1c-4.6-0.6-8.9,1.3-13.4,1.6
			c-6.1,0.4-12.2,1.8-18.4,0.4c-1.8-0.4-3.8-0.3-5.6-0.9c-3.4-0.9-6.5-2.7-9-5.1c-4-3.9-7.4-8.2-10.3-12.9c-2.1-3.4-4.4-6.8-7.7-9.3
			c-0.7-0.5-1-1.4-0.8-2.2c0.5-2.6,0.5-5.3,1.7-8c2.4,1.8,3.5,4.3,4.7,6.7c1.5,3.4,3.5,6.6,5.8,9.5c1.4,1.7,2.6,3.7,4.1,5.3
			c3.3,3.3,7,6.2,11,8.6c5.7,3.6,12.1,4.2,18.5,3.4c6.9-0.7,13.7-2.1,20.3-4.1C205.4,224.4,207.6,222.9,210.3,222.5L210.3,222.5z"/>
		<path style="fill:#810026;" d="M343.5,197c1.4,2.7,0.9,5.4,1.5,8c0.2,0.9-0.5,1.4-1.1,1.8c-3.8,3.1-6.1,7.3-8.6,11.4
			c-1.2,2-2.6,3.9-4.2,5.5c-1.5,1.4-2.9,2.8-4.3,4.3c-3.3,4-7.8,5.3-12.6,6.1c-9.7,1.6-19.2-0.1-28.8-1.7c-1.6-0.3-3.2-1.3-4.9,0
			c-0.3,0.2-0.6,0.2-0.9,0.1c-2-1.2-4.2-2.4-5.5-4.2c-1.3-1.9-2.1-4.1-2.6-6.3c3.8,2,7.8,3.5,12,4.5c6.8,1.4,13.6,3.3,20.7,3.2
			s13.2-2.6,19-7c7.3-5.6,12.2-12.8,16.3-20.8C341.3,198.6,341.2,198.6,343.5,197z"/>
		<path style="fill:#FAF600;" d="M301.8,366.3c-0.1-2-0.2-3.7-0.4-5.4c-0.5-8.1-1-16.1-1.6-24.2c-0.1-0.9,0.3-1.7,1-2.1
			c3.1-1.8,6.5-3.2,10-4c2-0.5,3.5,0.4,4.4,2.3c0.4,1.1,0.9,2.2,1.4,3.2c2.1,2.8,1.7,5.4,0.4,8.3c-3.1,6.7-7.1,13.1-11.8,18.8
			C304.3,364.5,303.1,365.5,301.8,366.3z"/>
		<path style="fill:#FAF600;" d="M180.7,366.2c-3.6-2.3-5.7-5.5-7.8-8.6c-3.2-4.6-6-9.6-8.1-14.8c-0.8-1.8-0.7-3.8,0.3-5.5
			c0.8-1.4,1.4-2.8,2-4.3c0.9-2.1,2.5-3,4.6-2.4c3.4,0.9,6.7,2.2,9.7,3.9c0.8,0.3,1.3,1.1,1.2,2C182,346.3,181.4,356,180.7,366.2z"
			/>
		<path style="fill:#FF2EF8;" d="M253.8,232.4c0.2,0.9-0.2,1.3-0.7,1.4c-3.8,1.2-6.7,4-9.9,6.3c-1.1,1-2.8,1-3.9,0
			c-3.2-2.3-6.1-5-9.9-6.3c-1-0.3-0.8-1-0.6-1.8c0.4-1.9,1.7-3.4,2.4-5.2c1.2-2.9,2.9-5.7,4.9-8.2c2.1-2.9,6.2-3.5,9.1-1.3
			c0.5,0.4,0.9,0.8,1.3,1.3c3.1,3.8,4.8,8.2,7,12.5C253.6,231.5,253.7,231.9,253.8,232.4z"/>
		<path style="fill:#008FD2;" d="M358.8,205.1c0.7,2.7,1,5.4,1.1,8.2c-0.1,3.9-0.3,7.9-0.6,11.8c-0.2,1.9-0.9,3.7-2,5.3
			c-2.1,3.6-3.9,7.3-5.2,11.2c-1.5,3.8-3.5,7.3-6.1,10.4c-0.4-5-0.9-9.3-1.2-13.7c-0.1-1.3,0.7-2.4,1.3-3.5c2.7-5,4.4-10.4,4.8-16.1
			c0.2-2.2,1-4.4,0.9-6.6c-0.1-0.5,0.1-1.1,0.6-1.4C354.8,209.4,356.4,207.2,358.8,205.1z"/>
		<path style="fill:#008FD2;" d="M123.7,205.4c2.5,1.7,4.1,4,6.4,5.5c0.2,0.1,0.3,0.6,0.3,0.9c0.4,2.8,0.8,5.7,1.2,8.5
			c0.6,4.2,1.4,8.5,3.6,12.2c2.1,3.4,2.8,7.4,2.1,11.3c-0.4,2.5-0.6,5.1-0.7,7.6c-1.1,0.4-1.3-0.6-1.7-1.1c-2.1-2.9-3.8-6.1-5-9.6
			c-1.3-3.6-2.9-7.1-4.9-10.4c-1.4-2.3-2-4.9-2-7.6c0-3.3-0.6-6.6-0.4-9.9C122.7,210.3,123.1,207.8,123.7,205.4z"/>
		<path style="fill:#FA0044;" d="M241.2,286.5c-2.3-0.5-4.6-0.7-7-0.7c-0.9,0.1-1.7-0.5-1.9-1.4c-1.5-3.7-3.4-7.1-5.7-10.3
			c-1.2-1.8-0.7-2.6,1.4-2.9s4.2,0.4,6.3,0.7c5.7,1,11.2,0.4,16.8-0.4c0.4-0.1,0.8-0.2,1.2-0.3c1.3,0,3-0.6,3.9,0.7
			s-0.6,2.3-1.2,3.3c-1.7,2.8-3.6,5.5-4.7,8.7c-0.2,1.2-1.3,2-2.5,1.8c0,0,0,0,0,0C245.6,285.6,243.4,286.2,241.2,286.5z"/>
		<path style="fill:#8DCA07;" d="M193.4,302.1c-1-2.6-1.7-4.8-2.6-6.9c-1.9-4.4-4-8.7-6.5-12.8c-0.9-1.7-1.4-3.6-1.4-5.5
			c0-2.1,0.9-2.6,3.1-2.2c2.9,0.6,5.7,1.6,8.4,2.9c2.2,0.9,3.8,2.9,4.3,5.2c1,3.9,1.4,8,1.3,12c0.1,1.4-0.6,2.7-1.8,3.5
			C196.7,299.4,195.2,300.6,193.4,302.1z"/>
		<path style="fill:#8DCA07;" d="M289.2,302.2c-2.2-1.7-3.9-3.1-5.7-4.5c-0.6-0.5-0.9-1.2-0.9-1.9c-0.4-4.7,0.1-9.3,1.5-13.8
			c0.5-1.8,1.7-3.2,3.4-4c3-1.5,6.2-2.6,9.5-3.4c0.9-0.3,1.9,0.1,2.2,1c0.1,0.2,0.1,0.3,0.1,0.5c0.5,1.8,0.2,3.6-0.6,5.3
			C295.2,287.9,291.5,294.4,289.2,302.2z"/>
		<path style="fill:#FAF600;" d="M198.3,182.6c3.3,2.8,6.1,5.1,7.5,8.5c0.8,1.9,0.6,2.6-1.3,3.2c-3,1-5.8,2.6-8.9,3.4
			c-6.4,1.7-13.2,1.4-19.5-0.8c-4.7-1.5-9.3-3.1-13-6.8c2.4-4.6,6.6-6.7,11.1-8.5c0.9,0.9,0.2,1.6,0.1,2.2c-0.7,3.9,0.8,7.1,3.2,10
			c1.4,1.7,3.4,2.2,5.4,2.5c3.2,0.4,6.4,0.1,9.5-0.7c3-0.8,5.6-4.4,5.8-8.1C198.4,186.1,198.3,184.8,198.3,182.6z"/>
		<path style="fill:#FAF600;" d="M283.9,183.1c0.8,1.2,0.2,2.1,0.2,3c-0.3,4.9,3.2,9.1,8,9.9c2,0.4,4,0.5,6,0.4
			c5.9-0.3,10.4-5.3,10.2-11.1c0-0.3,0-0.6-0.1-1c-0.1-0.8-0.8-1.6-0.1-2.8c4.6,1.8,8.8,3.9,11.2,8.6c-5.1,5-11.6,6.7-18.1,8.1
			c-7,1.6-13.7,0.3-20.1-2.8c-1-0.5-2.2-0.8-3.3-1.2c-1-0.2-1.6-1.3-1.4-2.3c0-0.2,0.1-0.3,0.2-0.5c0.7-1.8,1.8-3.4,3.2-4.7
			C280.8,185.3,282.3,184,283.9,183.1z"/>
		<path style="fill:#FAF600;" d="M211.8,263.9c0.8,2.3,1.6,4,4.5,3.6c1.3-0.1,2.6,0.6,3.3,1.7c3.6,5.2,7.4,10.4,9.8,16.2
			c-0.8,1.3-2,0.9-3,1.2c-3.4,1-6.8,1.5-10.1,2.8c-0.9,0.4-1.7,0.3-1.9-0.9c-0.9-7.9-3-15.7-2.7-23.7
			C211.7,264.5,211.7,264.2,211.8,263.9z"/>
		<path style="fill:#FAF600;" d="M270.8,263.7c0.5,8.9-1.6,17.3-3,26.3c-3.5-1.3-7.2-2.3-10.9-3.1c-4.3-1-4.4-1.2-2.2-4.9
			c2.4-4.1,5-8.2,7.7-12.1c1-1.4,2.2-2.5,3.9-2.4c2.2,0.1,3.4-0.7,3.7-3C270.1,264.3,270.4,264.1,270.8,263.7z"/>
		<path style="fill:#810026;" d="M269.7,248.1c-2.1-0.4-3.9-1.8-4.6-3.8c-1.2-2.8-1.8-5.9-1.6-8.9c0.2-4.2-1.3-8.2-2.4-12.1
			c-1.1-4.2-2.2-8.4-2.9-12.7c-0.4-1.9-1-3.7-1.6-5.5c-0.1-0.5-0.4-1.1,0.3-1.4s1,0.2,1.3,0.7c0.7,1.2,1.2,2.5,1.9,3.7
			c1.4,2.5,2.8,5,4.2,7.5c2.1,3.6,2.9,7.6,3.5,11.5c1,6.5,1.4,13.1,2.1,19.6C269.8,247.1,269.8,247.6,269.7,248.1z"/>
		<path style="fill:#810026;" d="M212.6,248.2c0.8-8.7,1.3-17,3-25.2c0.7-3.7,2.5-7,4.3-10.3c1.3-2.4,2.6-4.9,3.9-7.3
			c0.2-0.4,0.4-0.8,0.6-1.1c0.3-0.6,0.8-1.1,1.5-0.7s0.2,0.9,0.1,1.4c-1.2,3.1-1.6,6.4-2.4,9.6c-1.2,5.4-2.7,10.7-4.1,16.1
			c-0.8,2.5-1,5.2-0.5,7.9c0.2,0.9,0.1,1.9-0.4,2.8c-0.5,0.9-0.9,1.9-1.2,2.9C216.9,246.6,215.2,247.6,212.6,248.2z"/>
		<path style="fill:#FF2E50;" d="M297.1,180.1c1.7,0.1,3.4,0.2,5.1,0.3c1.1,0,2,0.7,2.4,1.7c2.1,4.2,0.1,10.9-6.5,10.8
			c-1.8,0-3.6-0.2-5.4-0.4c-2.7-0.2-4.8-2.4-4.8-5.1c0-1.8,0.1-3.6,0.5-5.4c0.1-1.1,0.9-1.4,1.8-1.5c1.1-0.3,2.3-0.5,3.5-0.5
			c1.2,0.1,2.3,0,3.5,0V180.1z M296.2,188.5c1.7,0,2.8-0.9,2.8-2.3c0-1.9-1.3-3.6-2.9-3.6c-1.8,0-3.2,1.4-3.3,3.2
			C292.9,187.3,294.3,188.5,296.2,188.5L296.2,188.5z"/>
		<path style="fill:#FF2E50;" d="M185.4,180.1c2.2,0,4.4-0.3,6.7,0.2c1.3,0.3,2.1,0.9,2.2,2.3c0,0.1,0,0.2,0,0.3
			c0.7,7.3,0,9.4-7.7,9.9c-1.1,0.1-2.1,0.1-3.2,0c-5.7-0.3-7.8-6.8-5.2-11.3c0.4-0.7,1.1-1.1,1.8-1L185.4,180.1z M186.4,188.5
			c1.8-0.1,3.3-1.4,3.2-2.8c-0.2-1.8-1.6-3.1-3.4-3.1c-1.5,0.1-2.8,1.9-2.7,3.7C183.6,187.8,184.7,188.6,186.4,188.5L186.4,188.5z"
			/>
		<path style="fill:#847DAF;" d="M227,263.2c-2,0-3.7,0-5.4,0c-0.9,0-1.7,0.1-2.5,0.3c-2.7,0.8-2.9,0.8-4-1.6
			c-1.6-3.6-0.8-7.1,0.9-10.4c0.9-1.8,2.4-1.7,3.9-0.3C223.4,254.4,225.2,258.6,227,263.2z"/>
		<path style="fill:#847DAF;" d="M255.5,263.2c1.8-4.6,3.7-8.8,7.2-12.1c1.5-1.4,2.9-1.4,3.8,0.4c1.6,3,2,6.6,1,9.9
			c-0.3,1-0.9,1.9-1.7,2.6c-0.9,0.7-1.7-0.4-2.6-0.6C260.8,263,258.3,263.4,255.5,263.2z"/>
		<path style="fill:#FAF600;" d="M244.3,365.3c0.2,2.9-0.2,5.8-1,8.5c-0.3,1.1-0.8,2-2.2,1.9c-1.1-0.1-1.6-0.9-1.9-1.9
			c-1.8-5.5-1.1-10.9,0-16.4c0.2-1.2,1.1-1.3,2.1-1.4c1.2-0.1,1.7,0.6,1.9,1.6C243.8,360.3,244.1,362.8,244.3,365.3z"/>
		<path style="fill:#FAF600;" d="M222.6,365.2c-1.7,6.5-3.5,12.9-2.5,19.7c-3.7-0.7-4.4-1.4-4.4-4.5c0.1-3.8,0.5-7.4,3.4-10.3
			C220.4,368.6,221.5,366.9,222.6,365.2z"/>
		<path style="fill:#FAF600;" d="M262.4,384.9c1-6.7-0.9-13-2.6-19.4c3.3,4.6,7.7,8.5,7,15.1C266.4,383.7,266,384.3,262.4,384.9z"/>
		<path style="fill:#FAF600;" d="M176.9,315.3c1.8-4.8,1.9-9.5,1.7-14.1c0-0.6,0.1-1.1,0.7-1.2c0.4,0,0.8,0.2,1,0.6
			c0.4,0.6,0.7,1.3,1,2c0.5,1.1,0.9,2.2,1.1,3.3c0.2,1.5,2.4,2.7,1.1,4.3C182,312.3,180.6,314.9,176.9,315.3z"/>
		<path style="fill:#FAF600;" d="M305.8,315.2c-1.6,0.1-3.2-0.6-4.4-1.8c-0.8-0.8-1.5-1.8-2.3-2.6c-0.6-0.5-0.7-1.3-0.4-2
			c1.3-2.2,1.7-4.8,2.8-7.1c0.2-0.4,0.4-0.7,0.6-1.1c0.2-0.4,0.6-0.6,1.1-0.5c0.5,0.1,0.5,0.6,0.5,1c0,2,0,4,0.1,6
			C303.8,309.9,304.4,312.7,305.8,315.2z"/>
		<path style="fill:#810026;" d="M198.8,147.7c0.1,0.1,0.3,0.1,0.2,0.1C199,148,198.9,148,198.8,147.7L198.8,147.7z"/>
		<path style="fill:#810026;" d="M287.7,237.2l-0.3-0.3c0.1,0,0.2,0,0.2,0C287.7,237.1,287.7,237.1,287.7,237.2L287.7,237.2z"/>
		<path style="fill:#810026;" d="M210.4,222.5l0.3-0.2c0,0.1,0,0.1,0,0.2C210.6,222.5,210.5,222.5,210.4,222.5L210.4,222.5z"/>
	</g>
</g>
</svg>
