<?xml version="1.0" encoding="iso-8859-1"?>
<!-- Generator: Adobe Illustrator 24.2.3, SVG Export Plug-In . SVG Version: 6.00 Build 0)  -->
<svg version="1.1" id="Layer_1" xmlns="http://www.w3.org/2000/svg" xmlns:xlink="http://www.w3.org/1999/xlink" x="0px" y="0px"
	 viewBox="0 0 841.89 595.276" style="enable-background:new 0 0 841.89 595.276;" xml:space="preserve">
<g>
	<path style="fill:#FF8383;" d="M198.428,165.554c-1.049,0-1.786,0.51-2.211,0.964c-0.596,0.651-0.737,1.332-0.879,1.956h6.039
		c-0.085-0.624-0.198-1.446-0.822-2.098C200.016,165.837,199.193,165.554,198.428,165.554z"/>
	<path style="fill:#FF8383;" d="M406.771,161.925h-2.013v11.766h1.531c2.665-0.057,6.351-0.199,6.351-5.954
		c0-1.39-0.142-2.778-1.049-4.025C410.23,161.897,408.303,161.925,406.771,161.925z"/>
	<path style="fill:#FF8383;" d="M382.083,165.554c-1.049,0-1.786,0.51-2.211,0.964c-0.596,0.651-0.737,1.332-0.879,1.956h6.039
		c-0.085-0.624-0.198-1.446-0.822-2.098C383.67,165.837,382.848,165.554,382.083,165.554z"/>
	<path style="fill:#FF8383;" d="M246.248,165.554c-1.049,0-1.786,0.51-2.211,0.964c-0.595,0.651-0.737,1.332-0.879,1.956h6.039
		c-0.085-0.624-0.198-1.446-0.822-2.098C247.835,165.837,247.013,165.554,246.248,165.554z"/>
	<path style="fill:#FF8383;" d="M298.376,165.922c-1.248,0.085-1.984,0.511-2.58,1.446c-0.539,0.851-0.737,1.871-0.737,2.892
		c0,2.353,1.134,4.423,3.572,4.423c2.353,0,3.515-1.899,3.515-4.225c0-1.645-0.397-2.92-1.219-3.714
		C300.021,165.894,299,165.866,298.376,165.922z"/>
	<path style="fill:#FF8383;" d="M212.005,173.407c0,0.709,0.624,1.503,1.645,1.503c0.539,0,1.049-0.198,1.502-0.482
		c1.446-0.907,1.502-2.268,1.531-3.799l-2.807,0.936C213.14,171.848,212.005,172.273,212.005,173.407z"/>
	<path style="fill:#FF8383;" d="M303.35,210.608c0,0.619,0.545,1.312,1.437,1.312c0.471,0,0.916-0.173,1.312-0.421
		c1.263-0.792,1.312-1.98,1.337-3.318l-2.452,0.817C304.341,209.247,303.35,209.618,303.35,210.608z"/>
	<path style="fill:#FF8383;" d="M172.265,161.386h-3.175v6.067h3.005c1.871,0,4.139-0.057,4.139-3.147
		C176.234,161.386,173.711,161.386,172.265,161.386z"/>
	<path style="fill:#FF8383;" d="M516.101,195.816v-33.043c0-37.577-30.745-68.322-68.322-68.322H180.061
		c-37.577,0-68.322,30.745-68.322,68.322v33.043c0,37.577,30.745,68.322,68.322,68.322H440.46
		c6.311,7.409,19.11,14.092,39.175,24.563c5.976,3.119,22.002,11.482,24.531,8.177c1.364-1.783-2.072-5.82-5.451-11.811
		c-4.738-8.401-6.55-17.5-9.724-34.863C505.432,237.697,516.101,217.945,516.101,195.816z M330.748,162.435
		c0.879,0,3.43,0.085,5.33,2.127c1.928,2.069,2.041,4.961,2.098,6.634h-10.575c-0.028,1.843,1.021,3.686,3.374,3.686
		c2.382,0,3.204-1.56,3.742-2.608l3.289,1.673c-0.51,0.766-1.021,1.503-1.786,2.211c-1.276,1.191-3.204,2.099-5.585,2.099
		c-4.395,0-7.485-2.807-7.485-7.655C323.15,167.028,324.908,162.435,330.748,162.435z M283.409,157.701h4.366v20.016h-4.366V157.701
		z M180.544,167.454c-1.729,3.572-5.415,3.657-8.137,3.714h-3.317v6.549h-5.018v-20.016h8.052c3.289,0,6.209,0,7.966,2.523
		c0.766,1.134,1.134,2.75,1.134,4.11C181.224,165.44,180.997,166.518,180.544,167.454z M187.968,177.716h-4.366v-20.016h4.366
		V177.716z M198.683,174.881c2.381,0,3.204-1.56,3.743-2.608l3.289,1.673c-0.51,0.766-1.021,1.503-1.786,2.211
		c-1.276,1.191-3.204,2.099-5.585,2.099c-4.394,0-7.484-2.807-7.484-7.655c0-3.572,1.758-8.165,7.598-8.165
		c0.879,0,3.43,0.085,5.33,2.127c1.928,2.069,2.042,4.961,2.098,6.634H195.31C195.281,173.039,196.33,174.881,198.683,174.881z
		 M217.108,177.716v-1.361c-1.105,0.822-2.353,1.758-4.536,1.758c-3.402,0-4.848-2.438-4.848-4.508c0-2.381,1.899-3.742,3.119-4.252
		c1.19-0.511,3.997-1.021,5.84-1.361v-0.794c-0.057-0.68-0.114-1.814-1.673-1.814c-1.928,0-2.183,1.191-2.296,1.729h-4.366
		c0.085-1.021,0.227-2.239,1.56-3.288c1.361-1.077,3.118-1.305,4.848-1.305c1.814,0,6.209,0.426,6.209,4.253v8.618
		c0,1.588,0.085,1.814,0.425,2.325H217.108z M230.119,178.084c-4.111,0-6.237-1.984-7.173-2.863l2.75-2.495
		c1.191,1.163,2.665,2.042,4.309,2.042c1.049,0,2.637-0.341,2.637-1.446c0-0.51-0.312-0.709-0.567-0.851
		c-0.652-0.34-1.673-0.425-2.523-0.566c-0.652-0.114-1.332-0.256-1.984-0.454c-0.907-0.255-1.814-0.624-2.466-1.275
		c-0.652-0.652-1.106-1.673-1.106-2.778c0-2.438,2.098-4.962,6.237-4.962c3.487,0,5.585,1.503,6.605,2.212l-2.693,2.494
		c-1.389-1.077-2.693-1.474-3.714-1.474c-1.701,0-2.098,0.68-2.098,1.105c0,0.851,0.936,1.021,2.353,1.275
		c2.977,0.539,6.436,1.333,6.436,4.849C237.122,176.384,233.606,178.084,230.119,178.084z M246.503,174.881
		c2.382,0,3.204-1.56,3.742-2.608l3.289,1.673c-0.51,0.766-1.021,1.503-1.786,2.211c-1.276,1.191-3.204,2.099-5.585,2.099
		c-4.395,0-7.485-2.807-7.485-7.655c0-3.572,1.758-8.165,7.598-8.165c0.879,0,3.43,0.085,5.33,2.127
		c1.928,2.069,2.041,4.961,2.098,6.634h-10.575C243.101,173.039,244.15,174.881,246.503,174.881z M263.084,167.68
		c0-5.926,4.026-10.604,9.696-10.604c2.296,0,4.337,0.794,5.84,1.984c1.389,1.106,2.041,2.212,2.608,3.204l-3.969,1.984
		c-0.284-0.652-0.624-1.332-1.503-2.069c-0.964-0.766-1.928-0.992-2.75-0.992c-3.232,0-4.933,3.005-4.933,6.351
		c0,4.395,2.24,6.577,4.933,6.577c2.608,0,3.657-1.814,4.338-2.977l3.941,2.013c-0.737,1.162-1.446,2.297-3.034,3.402
		c-0.851,0.595-2.807,1.758-5.585,1.758C267.365,178.312,263.084,174.456,263.084,167.68z M283.779,200.331h-4.532v14.042h-4.384
		v-14.042h-4.557v-3.467h13.472V200.331z M296.858,214.373h-3.789v-6.761c0-1.04-0.025-1.535-0.173-1.981
		c-0.372-1.164-1.387-1.288-1.783-1.288c-0.668,0-1.238,0.322-1.56,0.743c-0.495,0.669-0.495,1.733-0.495,2.849v6.438h-3.814
		v-17.509h3.814v5.943c0.544-0.545,1.659-1.709,3.714-1.709c0.941,0,1.981,0.272,2.749,0.917c1.139,0.966,1.337,2.179,1.337,3.863
		V214.373z M290.665,170.289c0-4.536,2.863-8.137,8.534-7.825c6.039,0.341,7.371,5.132,7.371,7.825c0,3.742-2.155,7.853-7.938,7.853
		C294.464,178.141,290.665,175.76,290.665,170.289z M307.808,214.373v-1.188c-0.966,0.718-2.056,1.535-3.962,1.535
		c-2.972,0-4.235-2.13-4.235-3.938c0-2.08,1.659-3.27,2.724-3.715c1.04-0.445,3.492-0.892,5.102-1.188v-0.693
		c-0.05-0.595-0.099-1.585-1.461-1.585c-1.684,0-1.907,1.04-2.006,1.511h-3.814c0.075-0.892,0.198-1.957,1.362-2.873
		c1.188-0.941,2.724-1.14,4.235-1.14c1.585,0,5.423,0.372,5.423,3.715v7.529c0,1.387,0.074,1.585,0.372,2.03H307.808z
		 M307.417,175.221l2.75-2.495c1.191,1.163,2.665,2.042,4.309,2.042c1.049,0,2.637-0.341,2.637-1.446
		c0-0.51-0.312-0.709-0.567-0.851c-0.652-0.34-1.673-0.425-2.523-0.566c-0.652-0.114-1.333-0.256-1.984-0.454
		c-0.907-0.255-1.814-0.624-2.466-1.275c-0.652-0.652-1.106-1.673-1.106-2.778c0-2.438,2.098-4.962,6.237-4.962
		c3.487,0,5.585,1.503,6.606,2.212l-2.693,2.494c-1.39-1.077-2.693-1.474-3.714-1.474c-1.701,0-2.098,0.68-2.098,1.105
		c0,0.851,0.936,1.021,2.353,1.275c2.977,0.539,6.436,1.333,6.436,4.849c0,3.487-3.516,5.188-7.002,5.188
		C310.479,178.084,308.353,176.1,307.417,175.221z M326.187,214.373h-3.789v-7.281c0-1.164-0.025-1.585-0.173-1.932
		c-0.297-0.693-0.966-0.99-1.709-0.99c-2.006,0-2.006,1.609-2.006,3.22v6.983h-3.814V201.47h3.839v1.139
		c0.371-0.396,0.619-0.693,1.288-1.015c0.594-0.248,1.437-0.471,2.353-0.471c0.768,0,1.635,0.148,2.303,0.52
		c1.362,0.719,1.709,1.883,1.709,3.889V214.373z M338.25,214.373l-3.319-5.572l-1.634,1.535v4.037h-3.715v-17.484h3.74v8.99
		l4.185-4.434h4.582l-4.458,4.606l5.027,8.321H338.25z M348.581,214.695c-3.591,0-5.448-1.733-6.265-2.502l2.402-2.179
		c1.04,1.015,2.328,1.783,3.765,1.783c0.916,0,2.303-0.298,2.303-1.264c0-0.445-0.272-0.619-0.495-0.742
		c-0.57-0.298-1.461-0.372-2.204-0.496c-0.569-0.099-1.164-0.223-1.733-0.396c-0.792-0.224-1.585-0.545-2.155-1.115
		c-0.569-0.569-0.966-1.461-0.966-2.427c0-2.13,1.833-4.334,5.448-4.334c3.046,0,4.879,1.312,5.771,1.932l-2.353,2.18
		c-1.213-0.941-2.353-1.288-3.244-1.288c-1.486,0-1.833,0.595-1.833,0.966c0,0.743,0.817,0.892,2.056,1.114
		c2.6,0.471,5.622,1.164,5.622,4.235C354.698,213.208,351.627,214.695,348.581,214.695z M356.118,165.922h-2.892v6.662
		c-0.028,0.907-0.028,1.673,1.134,1.673l1.56-0.057v3.402c-0.936,0.142-1.502,0.227-2.296,0.227c-1.503,0-3.147-0.085-4.083-1.445
		c-0.595-0.879-0.624-1.929-0.624-3.346v-7.145h-2.154v-2.665h2.154v-4.593h4.338v4.621h2.863V165.922z M361.461,214.373h-3.962
		v-4.21h3.962V214.373z M361.461,201.941l-1.189,6.414h-1.659l-1.114-6.241v-5.226h3.962V201.941z M371.709,177.716h-4.338v-7.74
		c0-1.19-0.028-1.757-0.198-2.268c-0.425-1.332-1.588-1.475-2.042-1.475c-0.766,0-1.417,0.369-1.786,0.851
		c-0.567,0.766-0.567,1.984-0.567,3.261v7.371h-4.366v-20.044h4.366v6.804c0.624-0.623,1.899-1.956,4.252-1.956
		c1.078,0,2.268,0.312,3.147,1.049c1.304,1.106,1.531,2.495,1.531,4.423V177.716z M382.337,174.881c2.381,0,3.204-1.56,3.743-2.608
		l3.289,1.673c-0.51,0.766-1.021,1.503-1.786,2.211c-1.276,1.191-3.204,2.099-5.585,2.099c-4.394,0-7.484-2.807-7.484-7.655
		c0-3.572,1.758-8.165,7.598-8.165c0.879,0,3.43,0.085,5.33,2.127c1.928,2.069,2.042,4.961,2.098,6.634h-10.575
		C378.936,173.039,379.984,174.881,382.337,174.881z M417.12,171.394c-1.843,6.181-7.428,6.294-9.526,6.322h-7.881v-20.016h6.379
		c2.438,0.028,6.123,0.085,8.675,2.354c2.069,1.871,2.863,4.678,2.863,7.484C417.63,169.268,417.375,170.543,417.12,171.394z
		 M427.352,178.141c-4.168,0-7.967-2.381-7.967-7.853c0-4.536,2.863-8.137,8.533-7.825c6.039,0.341,7.372,5.132,7.372,7.825
		C435.29,174.031,433.135,178.141,427.352,178.141z M445.067,178.141c-4.168,0-7.967-2.381-7.967-7.853
		c0-4.536,2.863-8.137,8.533-7.825c6.039,0.341,7.372,5.132,7.372,7.825C453.006,174.031,450.851,178.141,445.067,178.141z
		 M464.314,166.603l-1.445,0.227c-2.098,0.368-2.722,0.681-2.722,2.552v8.335h-4.366v-14.827h4.253v1.559
		c0.964-0.822,2.013-1.474,4.28-1.7V166.603z M469.133,177.716h-4.479v-4.734h4.479V177.716z"/>
	<path style="fill:#FF8383;" d="M444.812,165.922c-1.247,0.085-1.984,0.511-2.579,1.446c-0.539,0.851-0.737,1.871-0.737,2.892
		c0,2.353,1.134,4.423,3.572,4.423c2.353,0,3.516-1.899,3.516-4.225c0-1.645-0.397-2.92-1.22-3.714
		C446.456,165.894,445.436,165.866,444.812,165.922z"/>
	<path style="fill:#FF8383;" d="M332.846,166.376c-0.539-0.539-1.361-0.822-2.126-0.822c-1.049,0-1.786,0.51-2.211,0.964
		c-0.595,0.651-0.737,1.332-0.879,1.956h6.039C333.583,167.85,333.47,167.028,332.846,166.376z"/>
	<path style="fill:#FF8383;" d="M427.097,165.922c-1.248,0.085-1.985,0.511-2.58,1.446c-0.539,0.851-0.737,1.871-0.737,2.892
		c0,2.353,1.134,4.423,3.572,4.423c2.353,0,3.516-1.899,3.516-4.225c0-1.645-0.397-2.92-1.22-3.714
		C428.74,165.894,427.72,165.866,427.097,165.922z"/>
</g>
<path style="fill:#4D4BFB;" d="M543.149,278.077c5.194-4.253,8.763-5.217,11.825-5.908c3.892-0.879,6.966-1.318,10.342-0.845
	c3.376,0.473,7.055,1.859,11.076,3.615c4.022,1.756,8.386,3.882,11.647,5.349c3.26,1.467,5.417,2.276,6.732,2.829
	c1.315,0.553,1.787,0.851,2.068,1.391s0.372,1.322-0.795,2.702c-1.167,1.381-3.591,3.36-5.64,5.329
	c-2.049,1.969-3.724,3.927-4.768,5.494c-1.044,1.567-1.455,2.743-1.14,4.428c0.316,1.684,1.36,3.877,2.672,6.59
	c1.312,2.713,2.891,5.946,4.259,9.123c1.367,3.177,2.523,6.299,2.598,8.781c0.075,2.481-0.929,4.322-2.55,5.983
	c-1.621,1.66-3.859,3.141-6.08,3.684c-2.221,0.543-4.426,0.149-7.352-0.861s-6.575-2.637-9.404-4.241
	c-2.829-1.604-4.838-3.186-6.666-5.299c-1.828-2.113-3.473-4.756-4.633-7.308c-1.16-2.552-1.834-5.012-2.215-6.848
	c-0.381-1.836-0.468-3.048-1.234-5.211c-0.596-1.684-1.604-3.944-4.619-7.502c0.354-0.088,0.704-0.189,1.048-0.308
	c0.244-0.084,0.484-0.178,0.72-0.282c0.258-0.114,0.511-0.24,0.756-0.381c0.267-0.152,0.524-0.321,0.77-0.505
	c0.26-0.195,0.507-0.408,0.738-0.638c0.232-0.23,0.447-0.478,0.644-0.739c0.095-0.126,0.186-0.256,0.273-0.388
	c0.067-0.103,0.132-0.207,0.194-0.313c0.073-0.126,0.143-0.254,0.209-0.383c0.121-0.24,0.229-0.486,0.324-0.738
	c0.086-0.229,0.162-0.461,0.228-0.697c0.116-0.414,0.201-0.836,0.259-1.262c0.05-0.372,0.079-0.746,0.09-1.121
	c0.01-0.337,0.005-0.674-0.013-1.011c-0.014-0.263-0.037-0.525-0.068-0.787c0.282,0.136,0.573,0.253,0.87,0.351
	c0.308,0.101,0.623,0.182,0.941,0.241c0.311,0.058,0.626,0.095,0.941,0.112c0.307,0.016,0.615,0.014,0.921-0.008
	c0.588-0.041,1.171-0.151,1.735-0.324c0.538-0.165,1.059-0.386,1.553-0.656c0.478-0.261,0.931-0.568,1.354-0.911
	c0.388-0.315,0.751-0.66,1.088-1.028c0.32-0.35,0.618-0.72,0.89-1.109c0.277-0.397,0.528-0.812,0.744-1.245
	c0.135-0.271,0.257-0.549,0.362-0.832c0.105-0.283,0.194-0.572,0.264-0.866c0.083-0.351,0.139-0.708,0.165-1.068
	c0.029-0.412,0.018-0.827-0.035-1.237c-0.058-0.444-0.165-0.882-0.319-1.303c-0.155-0.42-0.357-0.823-0.601-1.198
	c-0.224-0.344-0.482-0.664-0.77-0.957c-0.248-0.252-0.518-0.483-0.804-0.691c-0.242-0.176-0.495-0.335-0.758-0.479
	c-0.163-0.089-0.329-0.172-0.498-0.25c-0.21-0.096-0.423-0.183-0.64-0.262c-0.193-0.07-0.389-0.134-0.586-0.192
	c-0.193-0.057-0.386-0.11-0.581-0.158c-0.411-0.1-0.826-0.179-1.245-0.236c-0.464-0.063-0.931-0.099-1.399-0.104
	c-0.259-0.003-0.518,0.004-0.776,0.022c-0.282,0.019-0.562,0.052-0.841,0.097c-0.309,0.05-0.616,0.117-0.918,0.203
	c-0.339,0.097-0.671,0.218-0.993,0.361c-0.669,0.298-1.292,0.699-1.841,1.183c-0.261,0.23-0.506,0.479-0.731,0.745
	c-0.218,0.256-0.417,0.526-0.598,0.809c-0.345,0.54-0.619,1.124-0.817,1.734c-0.192,0.591-0.311,1.205-0.354,1.825
	c-0.012,0.17-0.018,0.339-0.018,0.509c-0.554-0.482-1.121-0.948-1.699-1.399c-0.348-0.271-0.7-0.537-1.058-0.796
	c-0.359-0.259-0.723-0.512-1.094-0.754c-0.379-0.247-0.764-0.483-1.159-0.702c-0.211-0.117-0.425-0.228-0.642-0.333
	c-0.229-0.11-0.461-0.213-0.696-0.308c-0.51-0.205-1.036-0.372-1.573-0.491C543.2,278.088,543.174,278.082,543.149,278.077z"/>
<path style="fill:#FD5C5C;" d="M540.669,282.113c-2.122,0.564-5.096,2.034-7.557,3.656c-2.461,1.623-4.411,3.399-5.919,5.256
	c-1.509,1.857-2.576,3.796-2.862,4.799c-0.286,1.003,0.211,1.071,2.107,0.951c1.896-0.12,5.191-0.429,9.217-0.819
	c4.026-0.39,8.782-0.861,11.726-1.271c2.944-0.41,4.078-0.757,4.646-1.65c0.568-0.893,0.571-2.331,0.426-3.342
	c-0.145-1.011-0.437-1.596-1.648-2.767c-1.211-1.172-3.341-2.931-5.042-3.982C544.063,281.892,542.792,281.549,540.669,282.113z"/>
<path style="fill:#F47272;" d="M605.661,360.843c-3.576,3.162-10.284,8.74-13.892,11.683c-3.608,2.943-4.115,3.252-5.099,3.34
	c-0.985,0.088-2.447-0.044-3.619,0.57c-1.172,0.614-2.054,1.973-3.251,3.876c-1.198,1.903-2.711,4.35-2.389,6.785
	c0.322,2.434,2.479,4.855,4.601,6.205c2.122,1.35,4.209,1.629,4.512,1.363c0.303-0.266-1.178-1.078-1.771-2.568
	c-0.594-1.49-0.3-3.658,0.774-5.871c1.074-2.214,2.929-4.473,5.507-7.007c2.577-2.534,5.876-5.341,10.253-8.867
	c4.377-3.526,9.833-7.77,12.906-10.23c3.073-2.46,3.764-3.136,2.689-3.494c-1.075-0.358-3.915-0.398-5.557-0.045
	C609.682,356.935,609.237,357.681,605.661,360.843z"/>
<path d="M556.35,279.758c-1.329,0.591-2.002,2.024-1.906,3.366c0.096,1.342,0.963,2.593,2.104,3.098s2.559,0.264,3.82-0.661
	c1.262-0.925,2.368-2.535,2.555-3.631c0.187-1.096-0.545-1.679-1.904-2.096C559.662,279.418,557.679,279.167,556.35,279.758z"/>
<path style="fill:#00F1FF;" d="M711.255,427.064c-1.488,0-2.976,0-4.464,0c-0.457-1.399-1.281-2.649-2.387-3.62
	c-0.673-0.435-1.345-0.869-2.018-1.304c-4.454-2.025-9.68,0.272-11.198,4.923c-0.655,0-1.311,0-1.966,0
	c-1.348-1.784-3.014-4.292-5.079-7.738c0.441-0.066,0.868-0.226,1.248-0.459c0.284-0.174,0.542-0.388,0.781-0.621
	c0.125-0.122,0.245-0.249,0.363-0.379c0.285-0.313,0.557-0.638,0.821-0.969c0.407-0.51,0.794-1.035,1.267-1.485
	c0.148-0.141,0.304-0.274,0.48-0.377c0.089-0.052,0.182-0.096,0.277-0.136c0.28-0.118,0.573-0.201,0.865-0.284
	c0.229-0.065,0.458-0.13,0.687-0.197c0.445-0.13,0.888-0.269,1.325-0.427c0.644-0.233,1.274-0.506,1.885-0.816
	c0.529-0.268,1.045-0.563,1.544-0.883c0.823-0.526,1.604-1.12,2.304-1.803c0.787-0.767,1.472-1.647,1.937-2.639
	c0.377-0.807,0.608-1.687,0.663-2.577c1.463,2.924,2.513,5.341,3.231,7.338c1.038,2.403,2.075,4.806,3.113,7.209
	C708.774,422.85,710.175,425.185,711.255,427.064z"/>
<path style="fill:#5878FF;" d="M698.614,404.207c-0.125-0.88-0.494-1.829-1.186-2.845c-0.041-0.093-0.082-0.187-0.123-0.28
	c-2.851-0.453-5.699-0.924-8.542-1.423c-1.885-0.331-3.767-0.674-5.646-1.034c-1.879-0.361-3.755-0.739-5.626-1.14
	c-2.001-0.429-3.995-0.885-5.984-1.365c-1.989-0.48-3.972-0.984-5.953-1.496c-0.025-0.006-0.049-0.013-0.074-0.019
	c1.317,2.157,2.483,3.947,3.521,5.435c2.473,3.163,4.945,6.326,7.418,9.489c1.8,2.791,3.19,4.659,4.285,5.874
	c0.028-0.026,0.055-0.052,0.083-0.079c0.099-0.096,0.196-0.194,0.291-0.293c0.165-0.171,0.326-0.345,0.484-0.521
	c0.17-0.19,0.336-0.383,0.502-0.575c0.43-0.496,0.866-0.988,1.333-1.455c0.283-0.282,0.577-0.555,0.882-0.817
	c0.134-0.114,0.27-0.227,0.409-0.336c0.384-0.303,0.79-0.584,1.218-0.833c0.467-0.272,0.959-0.506,1.467-0.708
	c0.394-0.157,0.796-0.294,1.205-0.415c0.329-0.097,0.662-0.184,0.995-0.27c0.422-0.109,0.843-0.216,1.263-0.332
	c0.496-0.137,0.989-0.284,1.473-0.454c0.609-0.213,1.204-0.462,1.782-0.738c0.56-0.268,1.105-0.562,1.632-0.882
	c0.374-0.228,0.739-0.469,1.089-0.727c0.29-0.214,0.569-0.44,0.833-0.679c0.272-0.247,0.529-0.51,0.756-0.792
	c0.089-0.111,0.174-0.225,0.252-0.344"/>
<path style="fill:#7BFEFF;" d="M670.493,321.838c-0.926-0.948-2.289-2.416-4.299-4.079c-2.602-1.984-7.978-6.112-17.997-12.496
	c0.018,0.095,0.034,0.19,0.049,0.286c0.037,0.243,0.062,0.488,0.076,0.733c0.029,0.512,0.006,1.028-0.07,1.535
	c-0.075,0.497-0.2,0.986-0.372,1.459c-0.155,0.427-0.347,0.84-0.569,1.236c-0.037,0.066-0.075,0.132-0.114,0.197
	c-0.267,0.448-0.801,1.173-1.139,1.571c-0.078,0.092-0.157,0.184-0.237,0.274c-0.453,0.512-0.933,0.998-1.418,1.479
	c-0.093,0.093-0.187,0.185-0.281,0.277c3.08,2.043,6.143,4.111,9.182,6.214c2.801,1.939,5.582,3.907,8.329,5.922
	c1.906,1.398,3.797,2.819,5.661,4.273c0.967,0.754,1.927,1.517,2.877,2.293c0.846,0.691,1.684,1.391,2.512,2.104
	c0.169,0.145,0.337,0.291,0.504,0.437c0.618,0.32,1.135,0.58,1.582,0.793c1.2,0.572,1.898,0.803,2.111,0.646
	c2.079-1.44,1.019-3.846-0.125-6.279C675.611,328.281,674.383,325.822,670.493,321.838z"/>
<path style="fill:#7BFEFF;" d="M679.416,358.199c-0.287-7.036-3.148-12.03-4.945-14.361c-4.282-4.782-14.527-12.984-34.106-25.927
	c-0.195,0.184-0.389,0.369-0.583,0.553c-0.669,0.635-1.336,1.27-2,1.91c-0.532,0.513-1.061,1.028-1.584,1.55
	c-0.37,0.37-0.737,0.743-1.092,1.127c-0.119,0.128-0.236,0.257-0.35,0.389c-0.05,0.058-0.1,0.116-0.149,0.175
	c-0.031,0.038-0.062,0.076-0.092,0.115c0.019,0.292,0.046,0.583,0.072,0.874c0.024,0.263,0.048,0.525,0.068,0.788
	c0.012,0.153,0.023,0.306,0.033,0.46c0.041,0.634,0.06,1.611,0.023,2.246c-0.005,0.095-0.012,0.191-0.019,0.286
	c-0.032,0.411-0.083,0.821-0.156,1.227c-0.081,0.45-0.19,0.895-0.33,1.33c-0.153,0.476-0.343,0.939-0.569,1.385
	c-0.224,0.441-0.483,0.865-0.773,1.266c-0.281,0.389-0.591,0.757-0.926,1.101c-0.324,0.332-0.671,0.642-1.038,0.927
	c-0.321,0.25-0.656,0.481-1.004,0.692c10.858,5.96,29.268,13.878,38.994,18.015c9.241,3.931,10.642,4.448,10.523,3.768"/>
<path style="fill:#FF975C;" d="M743.835,391.443c0,3.489,0,6.979,0,10.468c-2.02,0.378-3.825,1.501-5.057,3.146
	c-2.058-0.832-4.174-1.607-6.312-2.295c-8.759-2.815-17.888-4.158-27.447-5.62c-9.559-1.463-19.549-3.046-28.886-5.155
	c-9.337-2.109-18.02-4.744-24.477-6.052c-6.458-1.308-10.69-1.289-14.851-0.434c-4.161,0.855-8.252,2.548-11.572,3.479
	c-3.32,0.931-5.869,1.1-7.901,1.358c-2.032,0.258-3.546,0.605-8.11,2.739c-4.565,2.135-12.18,6.058-17.689,8.995
	c-5.509,2.938-8.91,4.89-10.885,6.231c-1.975,1.341-2.522,2.071-3.99,1.255c-1.469-0.816-3.859-3.178-5.77-5.381
	s-3.343-4.245-3.834-6.081c-0.491-1.836-0.039-3.464,0.142-4.76c0.156-1.121,0.111-1.993,5.554-3.868
	c0.057,0.187,0.12,0.372,0.186,0.556c0.391,1.074,0.939,2.086,1.592,3.024c0.604,0.866,1.298,1.667,2.057,2.402
	c0.722,0.699,1.503,1.337,2.336,1.898c0.776,0.522,1.597,0.978,2.452,1.357c0.74,0.328,1.505,0.597,2.289,0.796
	c0.368,0.093,0.74,0.171,1.116,0.228c0.359,0.054,0.72,0.09,1.083,0.1c0.221,0.006,0.443,0.003,0.664-0.011
	c0.131-0.008,0.261-0.021,0.392-0.037c0.154-0.019,0.307-0.044,0.459-0.075c0.189-0.038,0.375-0.086,0.559-0.143
	c0.169-0.053,0.335-0.114,0.498-0.183c0.292-0.124,0.572-0.272,0.838-0.444c0.334-0.217,0.642-0.472,0.918-0.759
	c0.293-0.304,0.548-0.644,0.759-1.01c0.226-0.392,0.4-0.813,0.516-1.25c0.056-0.21,0.099-0.424,0.128-0.64
	c0.027-0.201,0.043-0.404,0.047-0.607c0.006-0.35-0.023-0.7-0.086-1.045c-0.05-0.268-0.12-0.532-0.211-0.789
	c-0.109-0.312-0.247-0.614-0.411-0.9c-0.118-0.206-0.249-0.404-0.391-0.594c-0.092-0.124-0.189-0.244-0.29-0.361
	c-0.122-0.142-0.25-0.28-0.38-0.415c-0.112-0.117-0.226-0.231-0.336-0.349c0.01-0.124,0.029-0.248,0.055-0.37
	c0.039-0.189,0.093-0.374,0.154-0.557c0.081-0.241,0.176-0.478,0.283-0.709c0.159-0.345,0.344-0.678,0.543-1.002
	c0.258-0.42,0.541-0.824,0.839-1.217c0.361-0.477,0.744-0.936,1.14-1.385c0.466-0.528,0.95-1.04,1.444-1.541
	c0.968-0.983,1.975-1.925,3.001-2.846c1.573-1.414,3.189-2.779,4.822-4.123c1.457-1.2,2.926-2.385,4.402-3.562
	c1.112-0.887,2.227-1.771,3.343-2.652c1.762-1.392,3.528-2.78,5.29-4.172c0.186-0.147,0.372-0.294,0.558-0.441
	c0.281-0.103,0.555-0.203,0.825-0.298c-0.063,0.191-0.123,0.383-0.179,0.577c-0.069,0.239-0.133,0.48-0.189,0.723
	c-0.06,0.255-0.112,0.511-0.155,0.769c-0.095,0.572-0.143,1.152-0.137,1.731c0.006,0.563,0.064,1.125,0.173,1.677
	c0.106,0.534,0.261,1.059,0.468,1.563c0.101,0.246,0.214,0.488,0.34,0.722c0.136,0.252,0.286,0.497,0.452,0.73
	c0.118,0.166,0.244,0.326,0.377,0.481c0.125,0.144,0.255,0.282,0.393,0.414c0.165,0.158,0.339,0.306,0.522,0.443
	c0.23,0.172,0.472,0.327,0.726,0.461c0.227,0.12,0.463,0.224,0.705,0.31c0.201,0.072,0.407,0.132,0.616,0.179
	c0.239,0.054,0.481,0.092,0.725,0.112c0.273,0.023,0.548,0.024,0.822,0.004c0.237-0.018,0.472-0.051,0.704-0.101
	c0.082,0.6,0.196,1.196,0.344,1.783c0.136,0.539,0.302,1.071,0.493,1.593c0.165,0.452,0.349,0.897,0.547,1.336
	c0.175,0.387,0.361,0.768,0.558,1.144c0.166,0.319,0.34,0.634,0.521,0.944c0.086,0.148,0.174,0.294,0.264,0.439
	c0.123,0.199,0.25,0.397,0.382,0.59c0.04,0.058,0.08,0.115,0.121,0.172c0.059,0.081,0.119,0.161,0.182,0.238
	c0.061,0.076,0.123,0.15,0.188,0.222c0.077,0.087,0.157,0.172,0.24,0.254c0.118,0.116,0.241,0.227,0.37,0.331
	c0.104,0.085,0.211,0.165,0.321,0.242c0.152,0.105,0.309,0.203,0.472,0.291c0.105,0.057,0.212,0.11,0.321,0.16
	c0.13,0.059,0.262,0.114,0.396,0.162c0.161,0.058,0.325,0.106,0.49,0.147c0.128,0.032,0.257,0.058,0.387,0.08
	c0.226,0.038,0.454,0.06,0.683,0.067c0.264,0.008,0.529-0.005,0.792-0.038c0.29-0.036,0.577-0.098,0.856-0.184
	c0.292-0.09,0.576-0.206,0.848-0.346c0.267-0.138,0.522-0.3,0.76-0.484c0.413-0.317,0.777-0.699,1.074-1.126
	c0.079-0.113,0.153-0.23,0.223-0.349c0.094-0.16,0.179-0.325,0.254-0.495c0.063-0.142,0.118-0.286,0.168-0.433
	c0.041-0.122,0.078-0.245,0.11-0.37c0.049-0.192,0.087-0.387,0.113-0.584c0.019-0.141,0.032-0.283,0.04-0.425
	c0.005-0.106,0.008-0.212,0.006-0.318c-0.001-0.117-0.006-0.234-0.015-0.351c-0.01-0.123-0.024-0.246-0.041-0.369
	c-0.01-0.066-0.02-0.132-0.032-0.197c-0.009-0.051-0.02-0.102-0.031-0.153c-0.031-0.148-0.067-0.295-0.105-0.441
	c-0.05-0.193-0.102-0.386-0.148-0.581c-0.043-0.185-0.081-0.372-0.112-0.559c-0.032-0.191-0.059-0.383-0.082-0.575
	c-0.025-0.213-0.046-0.426-0.06-0.639c-0.015-0.216-0.023-0.433-0.024-0.649c-0.001-0.186,0.004-0.373,0.017-0.558
	c0.009-0.135,0.023-0.27,0.046-0.403c0.016-0.092,0.036-0.183,0.062-0.272c0.028-0.095,0.063-0.187,0.102-0.278
	c0.06-0.14,0.13-0.275,0.205-0.407c0.116-0.206,0.243-0.406,0.375-0.603c0.189-0.281,0.389-0.554,0.592-0.825
	c0.267-0.354,0.542-0.702,0.819-1.049c0.437-0.547,0.881-1.089,1.323-1.632c0.35-0.43,0.698-0.861,1.042-1.295
	c0.347-0.437,0.689-0.878,1.022-1.326c0.197-0.266,0.391-0.534,0.581-0.805c0.298-0.428,0.584-0.864,0.858-1.308
	c0.252-0.408,0.493-0.823,0.726-1.243c0.148-0.267,0.292-0.536,0.433-0.806c0.201-0.385,0.397-0.773,0.592-1.162
	c0.166-0.33,0.333-0.661,0.5-0.991c3.513-0.992,5.333-2.718,7.144-3.912c2.379-1.568,4.743-2.217,7.278-1.771
	c2.535,0.446,5.243,1.986,11.221,4.442c5.978,2.456,15.228,5.828,21.127,7.853c5.9,2.025,8.45,2.703,13.47,3.079
	c5.02,0.376,12.51,0.449,17.431,0.251c4.921-0.198,7.274-0.666,9.96-0.038c2.217,0.518,4.662,1.784,9.891,4.633
	c-2.994,1.702-4.608,5.092-4.04,8.489C737.819,388.128,740.449,390.809,743.835,391.443z"/>
<path style="fill:#7BFEFF;" d="M598.689,323.662c0.089,0.409,0.167,0.82,0.23,1.233c0.078,0.51,0.135,1.024,0.164,1.54
	c0.015,0.263,0.022,0.527,0.022,0.791c0,0.265-0.008,0.53-0.025,0.794c-0.032,0.521-0.095,1.04-0.192,1.553
	c-0.188,0.995-0.501,1.966-0.927,2.883c-0.203,0.437-0.433,0.863-0.684,1.275c-0.241,0.394-0.501,0.776-0.78,1.145
	c-0.267,0.354-0.55,0.696-0.846,1.027c-0.395,0.442-0.813,0.865-1.248,1.268c-0.64,0.593-1.317,1.146-2.028,1.652
	c-0.535,0.381-1.089,0.735-1.66,1.06c-0.398,0.226-0.804,0.438-1.218,0.634c-0.424,0.2-0.857,0.383-1.297,0.546
	c-0.378,0.14-0.762,0.265-1.15,0.374c5.543,4.436,11.57,8.784,18.08,13.045c0.289-0.259,0.582-0.514,0.883-0.76
	c0.271-0.221,0.548-0.434,0.835-0.634c0.321-0.223,0.655-0.428,1.001-0.61c0.364-0.192,0.742-0.358,1.129-0.498
	c0.363-0.13,0.734-0.237,1.109-0.324c0.337-0.078,0.677-0.14,1.019-0.191c0.327-0.048,0.656-0.086,0.985-0.116
	c0.244-0.022,0.488-0.04,0.732-0.054c0.324-0.018,0.648-0.029,0.972-0.033c0.32-0.004,0.641-0.003,0.961,0.006
	c0.316,0.009,0.631,0.024,0.946,0.046c0.423,0.031,0.845,0.075,1.264,0.14c0.164,0.025,0.327,0.054,0.489,0.086
	c0.175,0.035,0.35,0.074,0.523,0.119c0.185,0.048,0.369,0.104,0.551,0.166c0.114,0.039,0.228,0.081,0.34,0.125
	c0.13,0.052,0.259,0.109,0.386,0.169c0.15,0.072,0.297,0.149,0.441,0.233c0.171,0.1,0.337,0.209,0.498,0.326
	c0.192,0.141,0.376,0.293,0.549,0.457c0.331,0.314,0.623,0.67,0.866,1.056c0.178,0.284,0.33,0.585,0.453,0.897
	c0.126,0.322,0.221,0.656,0.283,0.996c0.056,0.308,0.085,0.622,0.087,0.936c0.333-0.141,0.674-0.26,1.021-0.36
	c0.313-0.09,0.63-0.164,0.949-0.226c0.316-0.062,0.635-0.113,0.954-0.156c0.52-0.071,1.042-0.122,1.564-0.175
	c0.456-0.047,0.912-0.095,1.368-0.15c0.327-0.04,0.654-0.084,0.98-0.134c0.148-0.023,0.296-0.046,0.444-0.072
	c0.204-0.289,0.399-0.584,0.592-0.881c0.358-0.552,0.708-1.11,1.055-1.669c0.443-0.715,0.881-1.433,1.316-2.152
	c0.701-1.16,1.396-2.324,2.086-3.49c0.387-0.654,0.773-1.309,1.157-1.965c0.073-0.125,0.146-0.249,0.219-0.374
	c-0.914-0.445-1.826-0.895-2.735-1.349c-1.158-0.58-2.312-1.169-3.459-1.77c-1.064-0.558-2.122-1.126-3.172-1.711
	c-0.95-0.53-1.893-1.072-2.823-1.637c-0.449-0.272-0.897-0.545-1.346-0.817c-0.565-0.051-1.128-0.137-1.684-0.25
	c-1.023-0.209-2.024-0.511-3.003-0.874c-0.693-0.257-1.375-0.544-2.048-0.85c-0.473-0.215-0.941-0.439-1.405-0.672
	c-0.695-0.349-1.381-0.717-2.054-1.108c-0.894-0.519-1.765-1.077-2.618-1.66c-0.91-0.621-1.8-1.27-2.679-1.935
	c-1.164-0.881-2.306-1.79-3.437-2.713C601.988,326.492,600.329,325.088,598.689,323.662z"/>
<path style="fill:#7BFEFF;" d="M602.014,284.186c0.039,0.245,0.064,0.493,0.075,0.741c0.009,0.21,0.008,0.42-0.003,0.629
	c-0.011,0.209-0.032,0.417-0.062,0.624c-0.041,0.282-0.1,0.562-0.175,0.837c-0.104,0.379-0.239,0.749-0.4,1.107
	c-0.153,0.34-0.329,0.669-0.523,0.986c-0.188,0.306-0.393,0.602-0.611,0.888c-0.217,0.285-0.448,0.56-0.687,0.827
	c-0.232,0.259-0.472,0.51-0.717,0.757c-0.244,0.245-0.492,0.486-0.743,0.723c-0.254,0.24-0.51,0.477-0.767,0.714
	c-0.648,0.593-1.303,1.178-1.955,1.767c-0.503,0.455-1.002,0.914-1.492,1.383c-0.849,0.814-1.666,1.66-2.436,2.548
	c-0.326,0.375-0.643,0.758-0.948,1.151c-0.243,0.313-0.477,0.632-0.698,0.961c-0.073,0.109-0.145,0.22-0.213,0.332
	c-0.046,0.076-0.09,0.152-0.132,0.23c-0.017,0.033-0.034,0.066-0.05,0.099c0.004,0.022,0.008,0.045,0.013,0.067
	c0.022,0.108,0.05,0.215,0.081,0.321c0.048,0.166,0.102,0.33,0.16,0.492c0.075,0.213,0.156,0.423,0.24,0.633
	c0.153,0.38,0.317,0.757,0.486,1.13c0.285,0.633,0.583,1.26,0.884,1.886c0.503,1.049,1.012,2.094,1.517,3.142
	c0.664,1.378,1.321,2.76,1.958,4.151c4.892,4.598,9.381,8.46,12.724,11.156c4.782,3.857,7.221,5.326,9.663,6.507
	c2.442,1.18,4.888,2.07,7.105,1.915c2.216-0.155,4.203-1.355,4.946-3.184c0.743-1.828,0.242-4.284,0.177-5.935
	c-0.065-1.651,0.307-2.497,2.558-4.811c2.251-2.314,6.38-6.096,8.782-8.475c2.402-2.379,3.077-3.353,1.968-5.562
	c-1.108-2.209-4-5.651-5.761-7.777c-1.761-2.126-2.391-2.936-8.055-5.693C623.711,288.915,614.234,284.729,602.014,284.186z"/>
<path style="fill:#F47272;" d="M644.836,349.315c-0.351,0.6-0.8,1.345-1.383,2.358c-1.146,1.988-2.814,5.008-3.963,7.246
	c-1.15,2.238-1.781,3.693-3.148,5.607c-1.366,1.914-3.468,4.288-4.796,6.105c-1.328,1.817-1.883,3.077-2.072,4.6
	c-0.189,1.523-0.012,3.309,0.227,4.521c0.239,1.213,0.54,1.852,0.175,1.314c-0.366-0.538-1.398-2.254-1.917-4.043
	c-0.518-1.789-0.522-3.652-0.361-5.368c0.161-1.716,0.488-3.285,0.762-4.4c0.274-1.115,0.494-1.776,0.015-2.102
	s-1.659-0.314-2.948,0.12c-1.289,0.434-2.689,1.29-3.255,2.565c-0.565,1.275-0.297,2.969-0.554,3.281
	c-0.257,0.312-1.04-0.757-0.959-2.304c0.081-1.547,1.025-3.571,1.743-4.881c0.718-1.31,1.21-1.905,2.028-2.245
	c0.817-0.34,1.96-0.425,3.305-0.564c1.345-0.14,2.891-0.335,3.891-0.596c0.999-0.261,1.451-0.588,3.062-3.088
	c1.611-2.5,4.38-7.174,5.835-9.665c0.074-0.127,0.145-0.248,0.212-0.363C642.097,348.053,643.466,348.687,644.836,349.315z"/>
</svg>
