<?xml version="1.0" encoding="utf-8"?>
<!-- Generator: Adobe Illustrator 25.3.1, SVG Export Plug-In . SVG Version: 6.00 Build 0)  -->
<svg version="1.1" xmlns="http://www.w3.org/2000/svg" xmlns:xlink="http://www.w3.org/1999/xlink" x="0px" y="0px"
	 viewBox="0 0 158.7 159.6" style="enable-background:new 0 0 158.7 159.6;" xml:space="preserve">
<g id="Default">
</g>
<g id="Layer_01">
</g>
<g id="Layer_02">
</g>
<g id="Layer_03">
	<path style="fill:#D07000;" d="M112.5,75.7c-2.9-3.8-6-7.4-9.4-10.8c-3.7,5-7.9,9.7-12.5,13.9C98,78.7,105.3,77.6,112.5,75.7z"/>
	<path style="fill:#D07000;" d="M82.6,81.6c-8.6-0.6-17-2.3-25.1-5.2c-0.5,6.2-0.3,12.4,0.7,18.5C66.9,91.8,75.2,87.3,82.6,81.6z"/>
	<path style="fill:#8D00B9;" d="M104.9,62.5c3.9,3.8,7.4,7.9,10.7,12.4c14.4-4.4,27.4-12.2,38-22.8c-6.1-16-17.3-29.8-32.1-39.1
		C120.7,30.7,115,47.9,104.9,62.5z"/>
	<path style="fill:#D07000;" d="M117.3,77.4c14-4.4,26.8-12.1,37.3-22.3c1.8,5.5,3.1,11.2,3.7,17.1c2.5,24.4-6.5,48.6-24.3,65.5
		C135.2,116.3,129.4,95.1,117.3,77.4z"/>
	<path style="fill:#D07000;" d="M12.5,37.4c9.7-15.1,24.2-26.5,41.2-32.3c17-5.8,35.5-5.6,52.4,0.4c-16.5,6.7-30.4,18.6-39.7,33.7
		C49,33.6,30.3,33,12.5,37.4z"/>
	<path style="fill:#D000CF;" d="M54.9,72.3c-16.4-6.6-30.6-17.8-40.8-32.2c16.8-4,34.3-3.4,50.8,1.8C59.7,51.3,56.3,61.6,54.9,72.3z
		"/>
	<path style="fill:#8D00B9;" d="M57.8,73.4c9.1,3.3,18.7,5.1,28.3,5.4c5.6-4.7,10.6-10,14.9-15.9c-9.5-8.9-20.8-15.7-33.1-20
		C62.5,52.2,59,62.6,57.8,73.4z"/>
	<path style="fill:#297300;" d="M69.4,40.2c12.3,4.4,23.7,11.3,33.3,20.2c9.9-14.5,15.4-31.6,15.9-49.2c-2.7-1.5-5.4-2.9-8.3-4.1
		C93.3,13.3,78.9,24.9,69.4,40.2z"/>
	<path style="fill:#007D8B;" d="M54.6,75.4c-17.6-6.9-32.8-18.9-43.5-34.5l-0.7,0.2C0.8,58-2.3,77.7,1.7,96.7
		c17.5,5.1,36.2,4.8,53.5-0.8C54.2,89.1,53.9,82.2,54.6,75.4z"/>
	<path style="fill:none;" d="M122.4,146.9c3-1.9,5.8-4,8.4-6.3"/>
	<path style="fill:#297300;" d="M122.4,146.9c-1.8-12.4-9.6-23.1-20.9-28.5c-11.3-5.4-24.5-4.8-35.3,1.5c-3.6-6.9-6.2-14.3-7.6-22
		c10.4-3.7,20-9.1,28.5-16.1c9.2,0.2,18.3-1,27.2-3.5c12.6,18.2,18.5,40.2,16.5,62.3"/>
	<path style="fill:#0500A2;" d="M55.8,98.9c-17.3,5.5-35.8,5.9-53.3,1.1c6.1,23.7,22.9,43.3,45.4,53.1c-0.3-12.5,5.7-24.3,15.9-31.5
		C60,114.4,57.3,106.8,55.8,98.9z"/>
	<path style="fill:#D07000;" d="M103.6,155.8c5.6-1.8,11-4.2,16.1-7.2c-1.2-11.7-8.3-22-18.9-27.3s-23-4.8-33.1,1.2
		C75.9,137.1,88.5,148.7,103.6,155.8z"/>
	<path style="fill:#D000CF;" d="M99.4,157c-16,4.2-33,3.2-48.5-2.7c-0.7-11.8,4.7-23.2,14.3-30.1C73.2,138.2,85,149.6,99.4,157z"/>
</g>
</svg>
