<?xml version="1.0" encoding="utf-8"?>
<!-- Generator: Adobe Illustrator 25.4.1, SVG Export Plug-In . SVG Version: 6.00 Build 0)  -->
<svg version="1.1" id="Layer_1" xmlns="http://www.w3.org/2000/svg" xmlns:xlink="http://www.w3.org/1999/xlink" x="0px" y="0px"
	 viewBox="0 0 434.1 295.6" style="enable-background:new 0 0 434.1 295.6;" xml:space="preserve">
<g id="Layer_2_00000043428798191453449870000009881351884329407373_">
	<g id="Layer_5">
		<path style="fill:#00D58C;" d="M187.8,184c-0.1,2.6-0.3,5.2-0.4,7.8c-0.2,4,1.5,5.8,5.6,6c0.4,0,0.8-0.2,1,0.2
			c1.9,3.3,5.2,3,8.3,3c1.4,0,1.6,1.1,2.2,1.8c0.9,1.1,1.5,2.1,2.9,0.7c0.3-0.3,0.7-0.6,1-0.1c0.9,1.5,3.1,0.4,3.9,2.1
			c0.2,0.3,0.7,0.3,1,0.1c0,0,0.1-0.1,0.1-0.1c1.7-3,3.6-1,5.3-0.2c0.9,0.4,1.3,0.7,2.3,0.2c2-1.1,4.4-1,6.5-1.5
			c3.8-1,5.3,2.5,8.2,2.9c0.8,0.1,1.4,1,2.6,0.6s1.3,0.8,1.3,1.8c0,4.3,0.1,8.5,0.2,12.8c0.1,1.9,0.6,3.7,1.5,5.3
			c1.4,2.9,2.5,5.9,3.4,8.9c0.3,1.4-0.1,2.9-0.9,4.1c-0.8,1.4-1.1,3.1-0.6,4.7c0.4,1.4,0.6,2.6-0.9,3.5c-0.4,0.2-0.6,0.6-0.6,1.1
			c0.2,2.8-2.4,2.5-3.9,3.5c-0.8,0.5-1.9,0.2-2.3-0.6c0-0.1-0.1-0.1-0.1-0.2c-0.4-0.6,0.1-2.2-1.3-1.7c-1.1,0.5-2.8,1.1-2.5,2.9
			c0.2,1,1.2,2.2,0.1,3c-2.2,1.6-2.5,4.9-5.4,5.8c-1.4,0.3-2.8,0.9-4.1,1.6c-1.6,1-2.8-1.3-4.5-0.7c-0.4,0.2-1.1-0.7-1.5,0.1
			c-0.3,0.6,0.2,1.1,0.5,1.6s1.5,1.1,1.1,1.7c-0.5,1-1.2,0-1.8-0.2c-1.1-0.4-0.8,0.7-1.1,1.2s0.2,2.4-1.7,1.1
			c-0.4-0.2-1.9,1.1-2.8,1.8c-0.1,0,0,0.5,0.1,0.6c0.6,0.9,0.4,1.1-0.8,1.4c-1,0.2-1.9,0.7-0.6,1.7c1.6,1.3,0.5,2.6,0,3.7
			s-1.6,0.8-2.5,0.1c-0.2-0.2-0.6-0.1-0.8,0.1c-0.1,0.1-0.1,0.3-0.1,0.4c0,0.7-0.6,1.6,0.6,1.9c1.8,0.4,2.2,1.2,1,2.7
			c-0.2,0.5-0.2,1.2,0,1.7c1.4,2.8,0.8,6.2,2.5,8.9c0.5,0.8-0.4,1-0.7,1.3c-0.6,0.6-1.2,0.3-1.4-0.3c-0.5-1-1.6-1.6-2.7-1.4
			c-4.5,0.2-7.4-3.3-11.3-4.5c-0.4-0.2-0.7-0.7-0.9-1.1c-1-3.6-3.8-6.8-3-10.9c0.1-0.6-0.2-1.2-0.6-1.5c-3.5-1.5-3.9-5.4-6.1-7.9
			c-1.8-2.1-2.8-5.3-3.4-8.1s-2.6-4.5-4.4-6.4c-0.5-0.6-0.9-1.2-1.3-1.9c-1.4-2.2-3.8-2.1-5.8-2.2s-3.6-1.7-5.9-0.4
			c-1.4,0.6-2.5,1.7-3.2,3.1c-0.1,0.3-0.1,0.7-0.2,1c-0.8,1.6-1.5,3.3-2.9,4.2c-1.8,1.1-2.8-1.1-4.1-1.8c-2.5-1.3-4.8-3.1-6.8-5.2
			c-1.3-1.4-2.1-3.2-2.1-5.2c0.1-3.2-0.6-6.3-2.9-8.2c-3.5-3-5.6-7.1-9-10.1c-1.4-1.1-1.7-3.2-3.2-4.6c-1.1-1,0.8-0.9,1.4-0.9
			c4,0.4,8,0.8,12,1.2c5.7,0.5,11.4,1,17,1.5c1.7,0.2,1.6-0.9,1.7-2c1.3-16.3,2.6-32.5,3.9-48.8c0.1-1.6,0.7-1.6,2-1.5
			c7,0.5,14,0.9,21.1,1.2c1.2,0.1,1.7,0.1,1.6,1.6c-0.2,3.2-0.1,6.5-0.1,9.8L187.8,184z"/>
		<path style="fill:#00D58C;" d="M5.3,129.7c0.6,0.9,1,1.3,1.3,1.8s0.8,1.2,1.6,0.9c1.1-0.5-0.1-1.1,0-1.6c0-0.1-0.1-0.2,0-0.2
			c0.3-1.6-1.3-3.4-0.3-4.5c1.2-1.2,2.8,0.3,4.3,0.6c0.6,0.1,1.7,0.6,2.1-0.6c0.1-0.4,0.7-0.8,0.1-1.3c-0.7-0.7-1.2-0.6-2.1-0.1
			s-2.4-0.5-2.9-0.9c-2.5-2-3.5-1.2-4,2c-1.2-1.5-2.1-2.4-1.8-4.3c0.4-2.7-1.5-5-2.5-7.4c-1-2.6-0.9-5.4,0.2-7.9
			c1.2-3.1,1-6.7-0.6-9.6c-0.9-1.5-0.7-3.5,0.4-4.8c2.9-4.1,5.6-8.2,5.1-13.6c-0.1-1.7,1.1-1.5,2.2-1.2c7.5,2.2,15,4.3,22.5,6.5
			c2,0.6,4.8,0.6,5.7,2s-0.7,3.9-1.2,5.9c-2.2,8.8-4.4,17.6-6.8,26.3c-0.3,1-0.1,2.1,0.5,3c10.4,17.3,20.7,34.6,31.2,51.9
			c1.5,2.6,1.3,5.6,2.7,8.1c1.6,2.8,0.4,4.3-1.8,5.7c-1,0.6-0.8,1.8-1.1,2.7c-0.4,1.4-0.5,2.9-2.2,3.6c-1.1,0.5-1.3,4.7-0.4,5.3
			c0.8,0.5,1.2,0.9,0.8,1.7c-0.5,1.1-1.4,1-2.4,0.9l-15-1.7c-0.9-0.1-1.8-0.2-2.8-0.3c-2.4-0.2-3.4-1.4-3.2-4
			c0.3-5.6-2.6-9.5-6.8-12.8c-0.2-0.1-0.5-0.3-0.5-0.4c0.2-2.7-1.5-3.5-3.8-3.9c-1-0.2-1.9-0.9-2.3-1.9c-1-4.1-4.7-4.6-7.7-5.8
			c-2.7-1-3.1-1.1-2.4-3.9c0.3-1.1,0.1-2.3,0.8-3.3c0.2-0.2,0.2-0.8,0.1-0.9c-2-1.8-1-4.7-2.6-6.6c-2.2-2.8-2.1-6.6-3.8-9.7
			c-0.6-1.2-0.1-2.6,1-3.2c2.1-1.4,1.6-3.4-0.6-4.8c-1.4-0.9-2-2.6-1.6-4.1C5.2,132,5.1,131.1,5.3,129.7z"/>
		<path style="fill:#00D58C;" d="M110.1,67.6c-0.8-2.1-1.6-2.9-2.8-0.7c-0.3,0.6-1.1,0.9-1.7,0.7c-2.4-1.1-5-0.3-7.4-0.4
			c-1.2,0-1.5-0.1-1.5-1.2c0-1.5,0.1-3.1-1.8-3.6c-0.2,0-0.5-0.4-0.4-0.5c0.9-2.8-1.9-5.1-1.1-8c0.1-0.9-0.3-1.9-1.1-2.4
			c-0.9-0.7-1.2,0.4-1.8,0.7s-1.1,0.8-1.8,0.3c-0.9-0.5-0.3-1.3,0-1.7c1.5-2.1,1-4.7,2-7c0.8-1.3,1.2-2.8,1.3-4.4
			c-2.2,0.5-2.9-1.5-3.6-2.8c-1-2.2-1.5-4.5-3.3-6.3c-0.7-0.7-0.4-1.7-0.5-2.6c-0.1-0.6,0.2-1.5-0.1-2c-2.6-4.7,0.3-9.1,0.7-13.6
			c0.2-1.6,1.3-0.9,2.1-0.8c9,1.7,17.9,3.5,26.9,5.1c16.3,2.8,32.8,4.9,49.3,6.3c2,0.2,3,0.5,2.7,2.9c-0.7,7.1-1.2,14.1-1.8,21.2
			c-0.6,6.7-1.3,13.5-1.7,20.2c-0.1,1.8-0.8,2.1-2.2,1.9c-14.5-1.5-29.1-3-43.5-5.4c-0.5-0.1-1-0.1-1.5-0.1
			C111.3,63.1,111.3,63.1,110.1,67.6z"/>
		<path style="fill:#00D58C;" d="M156.4,222.4c-9.7-0.9-19-1.7-28.3-2.6c-0.8-0.1-1.6-0.4-1.8,0.6c-0.3,1.9-1.6,1.5-2.8,1.4
			c-3.2-0.4-6.5-0.8-9.7-1.3c-1.3-0.2-2-0.1-2.1,1.5c0,1.1,0,3-0.8,3.1c-1.9,0.1-3.8-0.1-5.7-0.6c-0.8-0.2-0.4-1-0.3-1.5
			c2.7-19.8,5.5-39.6,8.3-59.4c0.5-3.6,0.6-3.6,4-3.2c14.8,1.9,29.6,3.7,44.4,4.6c2,0.1,1.6,1.4,1.5,2.4c-0.6,3.8-0.8,7.6-1.1,11.5
			c-0.9,11.8-1.9,23.6-2.9,35.4c-0.3,1.8-0.4,3.6-0.4,5.5C158.7,221.9,158.3,223,156.4,222.4z"/>
		<path style="fill:#00D58C;" d="M63.9,170.3c0.2-2.1,0.4-4.3,0.6-6.4c0.1-0.6-0.2-1.4,0.7-1.6c0.7-0.2,1.4,0.1,1.8,0.7
			c1.4,2.3,2.3,1,3.2-0.4c1.4-2.3,1.2-5,1.8-7.5c0.3-1.4,0.7-1.8,2.1-1.6c10.2,1.8,20.3,3.6,30.5,5.3c2,0.3,4,0.5,6,0.7
			c1.5,0.1,2.2,0.8,1.9,2.4c-1.1,7.7-2.2,15.3-3.2,23l-3.8,27.5c-0.5,3.6-1.1,7.3-1.5,10.9c-0.1,1-0.5,1.1-1.3,0.9
			c-5.3-0.8-10.6-1.5-15.9-2.4c-0.7-0.2-1.4-0.5-2-0.9c-9.1-5.6-18.2-11.3-27.3-16.9c-0.6-0.4-1.8-0.5-1.6-1.6s1.1-1,1.9-1.2
			c1.4-0.2,2.3-1.6,2-2.9c-0.1-0.5-0.3-1-0.7-1.3c-1.4-1.3-0.8-2.8,0.1-3.8c1.1-1,1.8-2.4,2-3.9c0.1-1.7,1.2-3.3,2.8-4
			c1.6-0.8,1.8-1.7,0.9-3.6c-1.2-2.4-2.7-5.2-1.2-8.2C64,172.5,64.1,171.4,63.9,170.3z"/>
		<path style="fill:#00D58C;" d="M68.4,163c-0.6-1.4-2.1-2.2-3.6-1.8c-1.6,0.3-1.2,1.6-1.4,2.8c-0.5,3-0.2,6.1-1.2,9.2
			c-1.3-2.1-2.5-4.1-3.8-6.2c-9.2-15.4-18.5-30.8-27.7-46.2c-0.9-1.3-1.1-3-0.6-4.4c2.6-9.9,5.2-19.7,7.7-29.6
			c0.3-1.3,0.6-1.5,2-1.2c13.5,3.4,27.1,6.3,40.7,9c1.6,0.3,1.8,0.9,1.6,2.3c-3.6,18.4-7.2,36.9-10.8,55.3c-0.5,2.5-0.8,4.9-1.2,7.4
			C69.9,160.9,69.3,162.1,68.4,163z"/>
		<path style="fill:#7AFF00;" d="M113.9,158.9c1.8-13.4,3.6-26.7,5.4-40c0-0.3,0.2-0.6,0.2-1c1-4.9,1-4.8,5.9-4.1
			c10.5,1.5,21,2.7,31.6,3.5c5.2,0.4,10.3,0.9,15.5,1.3c1.2,0.1,1.7,0.4,1.6,1.8c-0.9,13.7-1.8,27.5-2.7,41.2
			c-0.1,2.4-0.7,3.3-3.3,3c-8.9-0.9-17.8-1.7-26.7-2.4C132.2,161.5,123.1,160,113.9,158.9z"/>
		<path style="fill:#00D58C;" d="M162.1,73.3c-1.2,13.9-2.4,27.8-3.5,41.6c-0.1,1.9-1.2,1.4-2.2,1.3c-9.8-0.8-19.5-1.9-29.2-3.2
			c-6.5-0.9-12.9-1.8-19.4-2.7c-3.2-0.4-3.2-0.4-2.7-3.8c2.1-13.4,4.3-26.9,6.4-40.4c0.3-1.8,0.8-2,2.5-1.7
			c15.4,2.2,30.8,4.4,46.3,5.6C163.5,70.2,161.7,72.2,162.1,73.3z"/>
		<path style="fill:#00D58C;" d="M6.1,72.3C7.5,68,7.7,63.2,11,59.1s4.3-9.2,6.2-13.9C19,40.8,21,36.4,22,31.6
			c0.3-1.5,2.5-1.6,4.2-1.2c2.8,0.7,3.2,2.3,2.7,4.8c-0.5,2.1,0.8,4.1,2.9,4.6c0.6,0.1,1.2,0.1,1.8,0c2.5-0.5,4.8-1,6.5,1.4
			c0.1,0.2,0.6,0.2,1,0.2c3.3-0.2,6.5,0.6,9.8,0c3.9-0.6,7.9-0.3,11.6,0.9c1.7,0.6,3.5,1,5.4,1.1c2.8,0.2,3.8,2.3,5,4.2
			c0.4,0.6,0.3,1.3-0.1,1.9c-2.6,3.4-4.4,7.3-7.3,10.5c-1.2,1.3-1.5,2.6-0.1,3.9c0.9,0.9,0.5,2,0.2,2.8c-2.7,6.4-3.3,13.3-4.9,19.9
			c-0.5,1.9-0.9,2.6-3.1,2.1c-16.2-3.6-32.2-8.2-48.2-12.8C6.2,75,6,74.7,6.1,72.3z"/>
		<path style="fill:#00D58C;" d="M111.5,158.8c-9.2-1.5-18.5-3-27.7-4.6c-3.2-0.5-6.4-1.3-9.6-1.7c-1.8-0.2-1.8-1-1.5-2.3
			c3.2-16.6,6.4-33.1,9.7-49.7c0.3-1.8-0.1-4.2,1.4-5c1.2-0.7,3.3,0.3,5.1,0.7c4.9,0.8,9.9,1.8,14.8,2.5c1.4,0.2,1.6,0.7,1.3,2
			c-0.6,2.8-0.7,5.6-1.4,8.4c-0.4,1.6,0.3,1.9,1.5,2c3.9,0.6,7.7,1.3,11.6,1.7c1.9,0.2,2.4,0.8,2.1,2.7c-2,13.8-3.9,27.7-5.9,41.5
			C112.9,157.6,113.4,159.1,111.5,158.8z"/>
		<path style="fill:#7AFF00;" d="M229.1,21.1c1.8,1,1.7,2.7,1.7,3.8c-0.1,3.1,1.6,4.1,4.2,4.6c1,0.2,2.1,0.2,2.8,1.3
			c0.5,0.7,1.6,0.2,2.3-0.1c3.1-1.5,5.1-0.9,6.8,2c0.3,0.6,0.3,1.6,1.3,1.5s0.9-1,1.3-1.7c1.1,1.4,2.6,2.2,3.9,3.2
			c1,0.8,2.5,0,3.5-0.8c0.7-0.6,1.3-1.8,2.2,0c0.4,0.9,1.4,0.2,2.1,0.2c1.6-0.1,3.2-0.7,4.3,1.7c0,0-0.5,0.2-0.9,0.4
			c-4.1,1.5-6.9,4.5-9.3,8c-1.7,2.4-3.9,4.5-6.2,6.3c-0.6,0.5-0.4,0.7-0.3,1.1c0.2,1.7,0.2,3.3,0.4,5c0.2,0.9-0.3,1.9-1.2,2.2
			c-1.9,0.8-2.2,2.6-2.9,4.2c-0.1,0.3-0.2,0.8-0.1,0.9c3.1,2.5,0.6,5.8,1,8.7c0.3,1.8,1,3.1,2.1,3.4c4,1.3,5.4,5.4,8.9,7.2
			c1.4,0.7,1.1,2.5,1.3,3.9c0.2,0.8-0.7,0.5-1.1,0.5c-11.9,0.6-23.9,1-35.9,1c-1.6,0-1.4-1-1.4-2c0.1-5.7,0.1-11.3,0.2-17
			c0-1.4,0-2.7-1.6-3.6c-1-0.6-1.6-1.5-0.3-3c1.9-2.1,1.6-5.2,0.7-7.4c-1.6-3.6-1-7.3-1.5-11c-0.3-2.5-0.2-5.1-1.1-7.6
			s-0.8-5.4-0.8-8.1c0-0.3,0-0.5,0.1-0.7c0.4-1.2-1.5-2.8,0-3.6c1-0.5,2.6,0,3.9,0c2.3,0,4.5-0.1,6.8,0s3.2-0.4,2.8-2.7
			C228.9,22.3,229,21.7,229.1,21.1z"/>
		<path style="fill:#00D58C;" d="M222.2,166.2c-15.9,0.1-31.8-0.3-47.7-1.1c-1.5-0.1-2.2-0.4-2.1-2.2c0.7-10,1.2-20,1.8-30
			c0.1-1.6,0.3-2.2,2.3-2.1c14.5,0.8,29.1,1.4,43.6,1.4c2.1,0.1,4.2,0.1,6.2-0.1c1.7-0.2,2.3,1.6,3.8,1.6c0.5,0,0.3,0.7,0.1,1
			c-0.5,0.9-1.4,1.8-0.9,2.7c0.9,1.4,1.4,3.1,2.8,4.1c0.8,0.5,1.2,1.3,1.1,2.2c0,6.9,0.1,13.7,0.2,20.6c0,1.4-0.2,2.1-1.9,2
			C228.5,166.1,225.4,166.2,222.2,166.2z"/>
		<path style="fill:#00D58C;" d="M93.1,61.7C93.1,61.3,93,61.6,93.1,61.7c1.4,2,2.3,4.2,2.9,6.6c0.3,0.6,0.9,0.8,1.5,0.6
			c2-1,4.1-0.5,6.1-0.3c1.7,0.1,3.2,0.5,4.4-0.9c0.7-0.8,0.7,0,0.9,0.3c0.6,1.2,0.9,2.5,0.7,3.8c-1.4,8-2.7,15.9-3.8,23.9
			c-0.2,1.6-0.7,2.2-2.3,1.9c-13.6-2.5-27.2-4.8-40.7-7.9c-1.4-0.3-1.8-0.5-1.4-2c1.4-5.7,2.5-11.5,3.8-17.3c0.3-1,0.8-2,1.3-3
			c0.6-1.5,1-2.8-0.4-4.4c-1.7-2,0.9-3.4,1.9-4.4c2.6-2.7,3.5-6.3,6-9.1c0.5-0.9,0.4-2.1-0.3-2.8c-2.5-2.5-1.7-5.5-1.2-8.2
			c1.8-9.1,4.1-18.2,6.1-27.3c0.3-1.3,0.6-1.8,2-1.4c0.7,0.2,1.5,0.4,2.2,0.5c1.2,0.2,1.7,0.7,1.3,2.1c-0.5,1.8-0.8,3.7-1.3,5.6
			c-0.6,2.5-1.1,4.9,0.3,7.3c0.2,0.4,0.5,1.1,0.3,1.4c-1.2,2.3,0.2,3.6,1.5,5.3c1,1.3,1.7,2.9,2,4.5c0.3,1.4,1,2.7,2.2,3.6
			c1.9,1.2,0.7,2.4,0.3,3.3c-1.2,2.6-1.2,5.7-2.6,8.2c-0.7,1.3,0.8,1.6,1.3,2.4c0.6,1,1.1,0.2,1.6-0.1c1.4-0.7,2.8-1.5,2.4,1.3
			C91.7,57.2,93.4,59,93.1,61.7z"/>
		<path style="fill:#7AFF00;" d="M201,130.8c-8-0.4-16-0.8-24.1-1.1c-1.8-0.1-2.6-0.5-2.2-2.5c0.3-2.2,0.2-4.4,0.6-6.5
			c0.5-2.7-0.7-3.3-3-3.3c-3.5-0.1-7-0.5-10.5-0.6c-1.7-0.1-2.1-0.7-1.9-2.5c0.6-5.4,1-10.8,1.4-16.2c0.3-3.9,0.5-4.2,4.3-3.8
			c9.6,1.1,19.2,1.4,28.8,1.9c1.8,0.1,3.5,0,5.3,0c1.7-0.1,3.5,0.3,4.9,1.3c1.3,1.2,3.2,1.5,4.8,0.9c2.9-1,5.6,0.4,7.8,2.9
			c2.8,3.2,3.4,7,4.4,10.9c0.6,2.3,1.6,4.6,1.7,7.1c0.2,3.7,1.3,7.3,3.3,10.4c1.1,1.9-0.9,1.3-1.6,1.3c-6.4,0-12.7-0.1-19.1-0.1
			L201,130.8L201,130.8z"/>
		<path style="fill:#7AFF00;" d="M187.8,60.8c11.4,0.4,19.5,1,27.6,0.8c0.8,0,1.7-0.2,2.1,0.5s-0.5,1.2-1,1.8
			c-1.6,1.7-0.1,3.2,0.9,4c0.9,0.6,1.3,1.7,1.2,2.7c0,5.8,0.6,11.7-0.4,17.3c-0.6,3.4,1.3,6.8-0.7,10c-0.5,0.8-0.6,1.5-1.7,0.9
			c-2.8-1.5-5.5-2.5-8.7-1c-0.5,0.2-1.8-0.6-2.3-1.2c-1.1-1.4-2.6-1.3-4-1.3c-12.3-0.2-24.6-1-36.8-2c-1.6-0.1-2.6-0.2-2.3-2.4
			c1-9.5,1.8-19,2.4-28.5c0.2-2.3,0.7-3.1,3.2-2.9C175.2,60.1,183.1,60.5,187.8,60.8z"/>
		<path style="fill:#7AFF00;" d="M208.8,60.5c-12.4-0.6-24.7-0.8-37.1-1.9c-2.3-0.2-5.4,0.6-6.8-0.9s0-4.5,0.2-6.8
			c0.6-8.7,1.4-17.3,2-26c0.2-2.2,1.6-1.7,2.8-1.6c11.1,1,22.2,1.5,33.3,1.9c2.5,0.1,5,0.1,7.5,0.1c2.9,0,3.7,0.9,3.4,3.9
			c-0.4,3.6,0,7.3,1.3,10.7c1.1,3,0.4,6.3,0.7,9.5c0.2,2.7,0.7,5.4,1.4,8.1c0.9,2.7,0.5,3-2.3,3L208.8,60.5z"/>
		<path style="fill:#0064FD;" d="M225,124.9c6.1,0,11.5,0.1,16.9,0c4.2-0.1,8.4-0.4,12.5-0.6c2.2-0.1,3.8,1.1,3.6,3.3
			c-0.4,4.4,1.8,7.5,4.8,10.2c1.4,1.1,2.3,2.6,2.4,4.4c0.1,1.2,0.5,2.9,2.6,1.3c0.8-0.6,2-0.2,1.9,1.2c0,0.6-0.1,1.1-0.2,1.7
			c-1.3,6-1.3,6,4.2,9.4c1.8,1.2,2.9,3.3,2.8,5.4c0,1.9,0.5,3.6,2.5,4.4c1.1,0.5,0.9,2.4-0.2,3.4c-2,1.7-3.3,3.6-3,6.4
			c0.1,0.6-0.3,1.2-0.9,1.3c-0.1,0-0.2,0-0.3,0c-1,0-2,0.1-3,0.2c0-1,0.9-1.3,1.2-1.9c0.6-0.7,0.7-1.7,0.3-2.6
			c-0.4-0.9-1.4-1.4-2.4-1.2c-11,0.6-22.1,1.1-33.1,1.3c-2.7,0.1-3-0.9-3-3c0-8.5-0.2-17.1-0.3-25.6c0-1.3,0.2-2.5-1.5-3.2
			s-2.2-3.8-1.4-5.7c0.6-1.4,0.9-2.6-1.4-2.4c-0.7,0.1-1-0.6-1.3-1C227.6,129.4,226.5,127.4,225,124.9z"/>
		<path style="fill:#0064FD;" d="M235.5,194.6c0,3-0.1,6,0,9c0.1,2-0.8,1.9-2,1.1c-0.5-0.3-0.8-1-1.3-1.1c-1.3-0.4-2.1-2.6-4.3-0.9
			c-0.6,0.5-2.9,0.1-4.4,0.2c-0.6,0-1.1,0.2-1.6,0.5c-1.5,1-2.5,1.1-4.1-0.2c-0.7-0.6-2.9-2.2-4.6-0.2c-0.5,0.6-1.3-0.4-2.1-0.3
			c-1.7,0.3-3.4-1.8-5.2-0.4c-1.4-3.8-4.9-1.9-7.4-2.8c-1.4-0.5-3.3-0.4-3.8-2.5c-0.2-1-1.4-1-2.4-1c-2.7,0.1-4.1-1.4-4-4.1
			c0.3-6,0.5-12,0.8-18c0.1-1.8-0.3-2.4-2.3-2.4c-7-0.3-14-0.9-21-1.2c-2.8-0.1-1.8-1.9-1.9-3.2c-0.2-1.9,1.1-1.6,2.3-1.6
			c20,1.4,40.1,1.9,60.2,2c1.8,0,3.7-0.1,5.5-0.1c0.8,0,1.5-0.1,1.5,1.1C233.8,177.2,236.5,185.8,235.5,194.6z"/>
		<path style="fill:#00D58C;" d="M23.6,27.3c1.7-1.5,0.5-3.8,1.9-5.2c0.3-0.3-1,0-1.2-0.9c2.2-0.5,2.1-1.4,0.8-3.2
			c-0.8-1-0.4-3.1-0.1-4.6c0.4-1.8,0.3-3.7-0.2-5.4c-0.5-1.7-0.2-3.5,0.8-4.9c1.9,2,3.6,4.1,6.4,4.9c1.1,0.4,2.4,0,3.3,1
			s3.3,1.6,0.2,2.9c-0.9,0.4-1.4,1.8-2.1,2.7c-0.2,0.3-0.2,0.6,0.1,0.9c0,0,0,0,0,0c0.4,0.3,0.7-0.2,1.1-0.3
			c0.6-0.2,1.3-1.2,1.7,0.2c0.3,1-0.1,1.7-1.1,1.7c-0.8,0-1.2,0.5-1.9,0.6c-1.5,0.3-2.4,1-1.9,2.5s2.4,1.3,3.2,0.8
			c1.8-1,4.5-1.5,3.9-4.7c-0.1-0.8,0.1-1.6,0.6-2.1c2.1-1.8,1.9-4.3,1.8-6.5s1.6-4.6-0.2-7.1c-0.8-1.1,1.1-0.6,1.6-0.4
			c5.8,1.5,11.5,3.1,17.2,4.6c5.4,1.4,10.9,2.8,16.3,4c1.9,0.4,2.1,1.1,1.7,2.9c-2.1,8.7-4,17.4-6,26.1c-0.1,0.5-0.2,1-0.3,1.5
			c-0.3,3.8-0.3,3.8-4.2,2.9c-2.1-0.5-4.2-1-6.3-1.5c-4-1-8-0.7-12.1-0.4c-3.2,0.2-6.3,0.3-9.3-1.3c-1.4-0.8-3.2-1-4.8-0.6
			c-3.4,0.9-4.8-0.4-4.3-3.8c0.5-2-0.5-4-2.4-4.9C26.4,28.9,25.4,27.4,23.6,27.3z"/>
		<path style="fill:#00D58C;" d="M332.6,183.8c-1.6,3.1-1.3,4,2.3,5.4c1.1,0.4,2,1.2,2.4,2.2c1.4,3,4.2,4.9,6.7,6.7
			c1.7,1.2,2,3.3,3.6,4.3c2.2,1.3,3.1,3.7,4.5,5.5c1.7,2.1,2.3,5,4.5,6.7c0.3,0.2,0.6,0.4,0.4,0.8s-0.6,0.5-1,0.2
			c-0.6-0.4-1.3-0.4-2-0.2c1.5,1.6,0.9,3.9,1.7,5.7c0.1,0.6-0.2,1.2-0.7,1.5c-0.8,0.5-1.9,0.8,0,1.3c0.1,0.2,0.1,0.4,0,0.6
			c-2.4,0.7-0.7,2.2-0.8,3.4c-0.1,0.7,0.6,2-1.2,1.6c-3.2-0.7-3.5-0.3-2.8,3.1c0,0.2,0.1,0.5,0,0.7c0,0.2-0.1,0.5-0.2,1.2
			c-0.5-2-1.5-2.2-3.1-2.1c-6.7,0.6-13.4,0.9-20,1.3c-1.5,0.1-2.3-0.1-3-1.8c-0.9-2.2-2-4.2-1.7-6.8c0.2-1.7-1.7-3.5-0.8-5.5
			c1.5-3.2-0.1-5.7-1.3-8.5c-2.9-6.8-3.9-14.1-6.1-21.1c-0.4-1.3-0.7-2.6-1-4L332.6,183.8z"/>
		<path style="fill:#7AFF00;" d="M258.5,124.9c-1.2-2-2.8-2-4.7-1.8c-9.2,0.8-18.4,1.1-27.6,0.8c-1.3,0-1.7-0.7-1.8-1.9
			c-0.3-3.2-0.8-6.5-1.7-9.6c-1.1-4.6-2.7-8.9-4.1-13.3c-0.3-0.9,0.2-1.5,0.5-2.1c0.6-1.3,0.7-2.8,0.2-4.1c-0.6-1.7-0.2-2.3,1.7-2.3
			c10.6,0.3,21.1-0.4,31.6-0.6c1.3,0,2.7-0.2,4-0.3c1.3-0.1,2.5,0.9,2.5,2.3c0,0.2,0,0.4,0,0.6c-0.5,3,0.5,5.2,3.2,6.8
			c1.2,0.7,1.5,2.2,2.6,3.2c0.7,0.6,1.2,1.7,2,2.4c0.7,0.7,0.9,1.7,0.5,2.6c-0.9,2.4-1.7,4.7-4.7,5.3c-2.1,0.4-2.6,1.8-1.6,3.7
			s0.4,5-1.2,6C259.1,123.1,258.6,124,258.5,124.9z"/>
		<path style="fill:#7AFF00;" d="M259.1,49c0.4,1.5-0.8,2.7-0.4,4.1c2.4-1,4.5-0.5,5.8,1.8c0.4,0.6,1,1,1.7,1
			c4.1,0.5,7.7,2.9,11.8,3c1.9,0,1.2,2.2,2.9,2.3c2,0.2,1.2,1.9,1,3.2c-0.2,1.5,1.7,2,1.7,3.6c0,0.7,0.4,1.1-0.4,1.8
			c-1.1,1.1-1.3,2.8-1.7,4.3c-0.1,0.5-0.2,1,0.4,1.2s1,0.4,1.5-0.4c0.7-0.8,1.2-1.6,1.6-2.5c0.1-0.4,0.6-0.6,1-0.5
			c0.5,0.2,0.4,0.7,0.2,1c-1.3,2.6-1.3,5.6-1.4,8.2c-0.2,4.8-2.2,9.8,0.3,14.6c0.9,1.8,0.2,3.1-2.2,3.2c-5.8,0.2-11.5,0.7-17.3,0.9
			c-2.9,0.1-6.1-3.9-5.4-6.7c0.4-1.1,0.2-2.3-0.5-3.1c-0.6-0.9-0.5-2.4-0.7-3.6c-0.1-1.7-1.1-3.3-2.7-4c-0.9-0.4-1.7-1.1-2.2-2
			c-1-2.2-3.1-3.1-5-4.1c-1.4-0.7-2.2-1.6-2.1-3.3s-0.3-3.8,0.5-5.7c0.3-0.7,0.1-1.6-0.5-2.1c-2-2-0.5-3.5,0.9-4.3
			c1.6-0.8,2.4-2.6,2-4.4c-0.1-1-0.1-2-0.2-3c-0.1-0.8,0.4-1.5,1-1.5C254,52.3,256.2,50.1,259.1,49z"/>
		<path style="fill:#7AFF00;" d="M265.6,101.2c6-0.3,12-0.7,18-1.1c0.9,0,1.6,0,1.6,1.2c0,1.7,1.3,2.8,1.8,4.3
			c2,5.6,1.5,11.5,2.2,17.3c0.4,3,0.6,6.1,0.9,9.2c0.2,1.4,0.2,2.8-0.1,4.2c-0.4,1.2-0.3,2.4,0.2,3.5c1.1,2,1,4.5-0.5,6.4
			c-2.2,3.3-2.2,7.2-2.5,10.9c0,0.6,0.1,1.1-0.7,1.3c-2.5,0.6-2.3,2.3-1.4,4.3c-2.1-0.6-4-2.3-5.9,0.1c-0.4,0.6-1.7-0.1-1.6-1.2
			c0.1-3.8-1.5-6.4-5-8.1c-3.3-1.7-3.5-2.8-2.2-6.5c1.3-4,0.6-5-3.4-4.9c-0.6,0-0.9-0.2-0.8-0.5c0.4-3.4-2.6-4.7-4.3-6.6
			c-2.5-2.8-3.3-5.4-2.2-9.2c0.6-2.1,2.3-3.5,2.8-5.6c0.3-1.5,0.6-2.7-0.3-3.9c-1.2-1.5-0.2-2.3,1-2.5c3.5-0.5,4.4-3.3,5.3-6
			c0.6-1.4,0.2-3-1-3.9C266.6,103.4,265.9,102.3,265.6,101.2z"/>
		<path style="fill:#4824DA;" d="M269.8,178.1c1.7-0.2,3.1-0.4,4.5-0.5c0.4,0,0.9-0.1,1.1,0.4c0.2,0.4,0.1,0.9-0.2,1.2
			c-1.8,1.9-2.9,4-2.2,6.7c0.3,1.1-1,1.5-1.2,2.1c-0.6,2.3-2.7,4.1-2.3,6.7c0.2,1.4-1.1,1.1-1.6,1.8c-1.6,2.6-1.7,5.7-3.4,8.2
			c-1,1.5,0.9,2.8,0.9,4.4c0,2.3-0.8,3.1-2.9,3.2c-6.7,0.2-13.4,0.3-20.1,0.6c-1.5,0-1.9-0.4-1.8-1.8c0.1-0.8-0.1-1.5,0-2.3
			c0.3-1.9-0.7-2.7-2.4-2.4c-1.5,0.2-1.6-0.4-1.6-1.6c0.1-5.3-0.1-10.6,0.1-15.8c-0.1-4.6-0.5-9.2-1.4-13.7c-0.2-1.4,0-1.7,1.4-1.7
			c7.7-0.2,15.4-0.7,23-0.8c3.5-0.1,7-0.4,10.5-0.6c0.7,0,1.4-0.1,1.9,0.8s-0.2,1.4-0.7,1.9C270.5,175.7,269.9,176.9,269.8,178.1z"
			/>
		<path style="fill:#4824DA;" d="M327.1,241.7l1.6,1c-1.3,1.8-3.2,2.1-4.9,3.1c-0.3,0.2-1.1,0.3-1.2,0.1c-0.6-1.2-1.3-2.3-2.1-3.4
			c-1.5-1.6-1.6-1.5-1.4-3.4c-1.1,0.8-2.4,0.6-3.5,1.1c-0.5,0.3-1.1,0.2-1.4-0.3c0-0.1-0.1-0.1-0.1-0.2c-1.2-2.7-3.2-1.6-4.8-1
			c-1.4,0.5-2.4,0.8-3.7-0.1c-0.6-0.4-2-2-2.4,0.5c-0.1,0.6-1,0.4-1.2-0.3s0.3-1.4-0.3-1.9c-0.8-0.7-2.2-1.2-1.5-2.4
			c0.5-0.9,2-0.5,3-0.6c5.7-0.6,11.3-1.1,17-1.8c1.7-0.2,2.9-0.3,3.3,1.8c0.2,1.2,1.1,1.2,2.1,1.1c6.8-0.4,13.7-0.8,20.5-1.1
			c1.2-0.1,2.5-0.4,2.9,1.4c0.2,0.7,0.9,0.7,1.5,0.6s0.7-0.6,0.8-1.1c0-0.6,0.1-1.2,0.2-1.8c0.2-0.9-1.5-2.2,0.1-2.4
			c1.2-0.1,3-0.1,3.7,2.2c1.7,5.6,4.3,11,7.6,15.9c0.7,1,1.2,2.1,1.5,3.3c0.8,2.2,1.7,4.3,2.8,6.4c1.6,3.5,3.5,6.8,5.5,10
			c2.8,4,2.9,8,3.5,12.3c0.5,3.1-1,6-1,9.1c0,1.8-2.9,2.5-4.5,1.4s-3.3-2.1-3.5-4.6c-0.1-1.5-2.2-1.5-3.5-1.9
			c-0.5-0.1-1.5,0.3-1.6-0.3c-0.8-3.9-6.1-6.1-4.5-11c0.1-0.2-0.1-0.4-0.4-1c-0.6,1.2-2,1.7-3.2,1.1c-0.2-0.1-0.4-0.2-0.5-0.4
			c-1.4-1.7-2.8-3.7-2-6.3c1.1-3.5,1.2-3.8-2-4.4c-1.4-0.3-1.3-0.8-1.1-1.6c0.7-2.3,0.7-4.8-0.1-7.1c-0.6-1.8-1.1-3.6-3.6-4.3
			c-1.7-0.5-3.1-2.2-4.3-3.7c-1.7-2.1-3.4-4.2-6.1-5.1c-1.5-0.5-3.3-0.8-4.6,0.8C328.8,242.5,327.9,241.1,327.1,241.7z"/>
		<path style="fill:#0064FD;" d="M295.5,236.3c-0.4,1-0.6,2.1-0.7,3.2c-0.1,0.6,0.1,1.5-0.9,1.4c-0.8-0.1-1-0.6-1.1-1.4
			c-1-8.9-2.1-17.7-1.6-26.7c0.4-7.6,0.3-15.2,0.3-22.8c0-1.8,0.6-2.1,2.1-2.2c5.8-0.4,11.5-0.8,17.2-1.4c1.6-0.2,1.3,1.1,1.5,1.7
			c1.8,6.5,3.5,13,5.2,19.5c0.5,2.3,1.4,4.4,2.6,6.4c0.7,1.2,0.9,2.6,0.4,3.9c-1.3,4.4,1,8.5,0.9,13c-6.4,1-13.2,1.7-20.1,2.1
			c-0.9,0.1-2.2-0.3-2.6,0.9c-0.5,1.2,0,2.6,1.1,3.2c1.5,0.8,0.7,2.2,0.9,3.2c0.1,0.7-1.1,1.4-1.5,1.4c-0.9-0.1-1.7-0.8-1.8-1.8
			C297.5,238.5,296.7,237.1,295.5,236.3z"/>
		<path style="fill:#4824DA;" d="M282.4,244.1c-1-2.7-3.6-4.6-2.2-7.8c0.5-1.2-0.3-1.5-1.5-1.4c-4.3,0.3-8.7,0.5-13,0.7
			c-1.8,0.1-2.8,0.4-2.1-2.4c0.7-3.1,1.8-6.1,3.4-8.8c0.9-1.7,1-3.8,0.4-5.6c-1.1-3.2-0.8-7-1.3-10.4c-0.8-4.6,1.5-8,3.6-11.5
			c0.6-1.2,1.1-2.6,1.4-3.9c0.5-2.1,2.3-3.6,4.5-3.6c4.3-0.3,8.7-0.6,13-1c1.6-0.2,1.9,0.5,1.9,1.8c-0.1,6.9,0.2,13.9-0.2,20.8
			c-0.5,9.1,0,18.2,1.5,27.2c0.5,3.6,0.5,3-3,3.1C286.8,241.3,283.4,240.5,282.4,244.1z"/>
		<path style="fill:#00D58C;" d="M386.4,160.8c-1.1-3.4-1.1-3.4-3.3-2.9c0.2,0.8,1.2,0.9,1.5,1.8c1.2,3.8,1.4,3.9,5,2.6
			c1.9-0.6,1.9,0.2,1.7,1.4c-0.1,0.6-0.6,1.3,0.4,1.5c0.4,0.1,1.4-0.6,1.1,0.6c-0.2,0.9-0.2,2.2-1.6,2.2c-0.6,0-1.4,0.3-1.6-1
			c-0.2-1.9-1.4-0.8-1.8-0.2c-0.8,1-1.5,1.4-2.8,0.8c-0.4-0.2-1.2-0.5-1.5,0.3s0.5,1,1,1.3c0.6,0.3,1.3,0.4,1.9,0.5
			c1.7,0.1,1.8,1.6,1.7,2.5c-0.2,1.4-1.2,0.6-2.1,0.4c-0.9-0.3-1.9,0.2-2.2,1.1c0,0,0,0.1,0,0.1c0.8,0.3,1.7,0.1,2.4,0.9
			s1.9,0.3,2.9,0.2c0.6,0,0.6-1.7,1.3-0.7c0.5,0.7-0.5,1.4-1.2,1.8c-1.5,0.7-3.2,0.8-4.8,0.1c0.5,1.4-0.2,2.2-1,3.1
			c-1.9,2.3-4.3,4.3-4.2,7.7c0,1.3-3.9,2-5.2,1c-2.1-1.4-4-3-5.8-4.7c-3.1-3.3-6.7-3.8-10.7-2.6c-1.9,0.5-3.3,0.6-4.2-1.5
			c-0.5-1-1.6-1.6-2.7-1.3c-5.5,0.5-11.1,0.4-16.1,3.7c-2.8,1.8-6.3,1.4-9.5,1.9c-0.5,0.1-1,0.1-1-0.7c0-0.5-0.2-1,0.5-1.3
			c0.3-0.1,0.9-0.1,0.9-0.3c1.5-5.2,7.9-5.1,10.1-9.5c2.4,0.4,2.6-3.4,5.1-2.6c0.4,0.1,0.8-0.2,0.9-0.6c0,0,0,0,0,0
			c0.1-1.9,2.7-2.6,2.3-4.8c-0.1-0.7,0.6-0.8,1.2-0.9c14.4-1.5,28.5-4.4,42.5-7.5c0.7-0.3,1.5-0.2,2.2,0.1c0.3,0.2,0.9,0.7,0.5,0.9
			C388.2,157.4,389.1,160.6,386.4,160.8z"/>
		<path style="fill:#7AFF00;" d="M359.7,79.1c1.5,0.2,2.9,0.3,4.4,0.3c3.8-0.3,5.1-3.4,7.5-5.1c0.2-0.2,0.5-0.7,0.4-0.9
			c-1.1-1.8,0.6-4.3-1.2-6c-0.3-0.3-0.4-0.5-0.1-0.8c2.4-2.7,2.9-6.5,5.4-9.2c1.7-1.7,4-2.8,6.5-3c2-0.3,4.5-2.2,5.7-0.9
			s1.5,3.8,1.7,5.8c0.3,2.7,0.8,5.5,1.4,8.1c0.4,1.6,1.9,2.2,2.3,3.8c1.8,6.9,1.2,14.1,2.8,21c0.5,1.9,1.2,3.9,0.1,6
			c-0.5,0.9-0.4,0.8-1.2,0.6c-3-0.9-5.7-2.7-8.6-3.7c-0.7-0.3-0.9-1-1.1-1.6c-1.2-3.1-3-3.9-6.1-3.3c-9.7,2-19.4,3.9-29.1,5.8
			c-0.5,0.1-1.4,0.6-1.7-0.4c-0.4-0.9-0.2-1.9,0.4-2.6c1.5-1.6,2.8-3.2,3.9-5c1.3-2.1,0.5-3.6-0.7-5c-0.9-1.1-0.8-1.4,0.3-2
			C354.9,79.9,357.3,79.2,359.7,79.1z"/>
		<path style="fill:#7AFF00;" d="M347.5,95c-0.2,3.4,1.8,2.4,3.3,2.2c9.6-1.8,19.2-3.7,28.8-5.7c2.7-0.5,4,0.2,5,2.8
			c0.3,0.8,0.7,1.8,1.5,1.9c2.2,0.2,1.6,1.6,1,2.6c-1.2,2-0.9,4.2-1.2,6.2c-0.3,1.8,1.5,2.5,2.3,3.6c0.6,0.9,2.5,1.5,2,2.4
			c-1,1.6-1.7,3.5-3.8,4.4c-11.9,5.2-24.8,5.6-37.2,8.3c-1.1,0.2-1.9,0.4-2.1-1.3c-1.1-7.5-2.5-15-3.8-22.5c-0.5-2.5,2-2.8,3-4.1
			C346.7,95.5,347.1,95.2,347.5,95z"/>
		<path style="fill:#4824DA;" d="M261.3,237l18-1.1c-1.6,3.1,0.2,5.4,1.7,7.9c-1.1-0.1-2.2-0.4-3.1-1c-0.9-0.6-2.2-1.1-3,0.3
			c-0.5,0.9-1.6,1.7-1,2.9c0.5,1,1.8,1.5,2.8,1c2.2-0.6,3.1,1.4,4.8,1.8c0.2,0.1,0.4,0.3,0.5,0.5c0.2,1.3-2.9,1.2-1.4,3.1
			c-0.7,0.3-1.3-0.2-1.9-0.2s-1.2-1.5-2.1-0.5s0.2,1.4,0.8,2.1c0.4,0.5,0,1.7-0.2,2.9c-0.6-2.4-2.3-1.9-3.8-1.7
			c-0.5,0.1-1,0-0.7,0.8c0.1,0.5-0.3,1.1-0.8,0.5c-1.8-2-4.5-2.4-6.7-3.9c-1.1-0.8-1.2-2.4-3-2.8c-1.5-0.3-3.9,0.2-3.9,1.7
			c0,1.9-1,1.6-2,1.4c-1.4-0.3-2.8-0.6-4.1-1.1c-2.2-0.8-4.4-1.5-6.8-1c-1.5,0.3-2-0.3-1.4-1.6c0.6-1.4,0.8-3,0.4-4.6
			c-0.3-0.9-0.3-2,0.1-2.9c2.4-3.6,1.4-7-0.4-10.5c-2.5-4.7-3.7-10-3.4-15.4c0.1-1.5,0.4-2,1.9-2c6.9-0.1,13.7-0.3,20.6-0.6
			c1.5-0.1,2,0.6,2.2,2c0.3,1.6,0,3.3,1.3,4.6c0.1,0.2,0.2,0.4,0.2,0.7c-2,1.2-0.9,3.7-2.1,5.5c-1.6,2.4-3.4,5.4-2.6,8.7
			C262.3,235.7,261.6,236.1,261.3,237z"/>
		<path style="fill:#0064FD;" d="M274.2,188.3c-0.8-2.9,0.7-5.1,1.6-7.4c1.2-2.8,2-5.8,2.1-8.9c0-1,1-0.7,1.6-0.7
			c3.1-0.3,6.2-0.5,9.3-0.7c0.8-0.1,1.8,0.1,1.6-1.2c-0.1-1,0.6-0.7,1.1-0.8c5.6-0.5,11.2-1,16.7-1.5c11.2-0.7,22.3-2,33.3-3.8
			c1.7-0.3,1.3,0.6,1,1.3c-0.5,1.1-1.4,2.8-1.9,3c-1.6,0.4-2.6,2-4.1,2c-1.2,0-2.2,0.7-2.8,1.7c-1.4,2.7-3.8,4.7-6.8,5.4
			c-0.5,0.1-1.1,0.5-1.2,0.9c-0.3,2.3-3.3,3-3.1,5.6c0,0.9-0.9,0.9-1.5,0.9c-9.2,1-18.5,1.9-27.7,2.6
			C287,187.2,280.4,188.1,274.2,188.3z"/>
		<path style="fill:#7AFF00;" d="M342,99.1c0.8,4.4,1.9,8.5,2.1,12.7c0.2,4.5,0.5,9.2-0.6,13.6c-0.3,1.3-0.8,4-3.5,3.5
			c-0.2,0-0.5,0.1-0.6,0.4c-1.6,2.5-3.1,5.1-4.7,7.6c-0.6,1.1,0,2.3-0.5,3.5s-0.8,2-2.1,0.7c-0.4-0.4-1.2-0.5-1.4-0.9
			c-1-2.2-1.7-1.7-3.3-0.3c-1,0.9-3.3,0.3-4.8,0.1c-1.8-0.3-4.1-0.6-4.8-3c-0.1-0.3-0.8-1.3-1.5-1.1c-2.6,0.9-2.5-1-2.7-2.6
			c-0.9-8.2-1.8-16.5-2.8-24.7c-0.2-1.6,0.2-2.1,1.6-2.3c2.2-0.3,4.5-0.7,6.7-1c1.4-0.2,3,0,3.8,0.9c2.5,3,5,1.2,7.8,0.7
			c3.4-0.7,5.4-2.9,7.5-5.2C339.4,100.8,340.6,99.9,342,99.1z"/>
		<path style="fill:#7AFF00;" d="M295.7,106.6c1-4,2.7-7.3,2.4-11c-0.2-1.9-0.1-4-1.2-5.6c-2-3.1-1.8-6.6-2.3-10
			c-0.2-1.5,1.3-2.8,1.2-4.5c-0.1-1.6,0.1-3.2,0.7-4.7c0.4-0.9,0.8-1.6,1.5-1.7c1-0.2,0.8,0.8,0.9,1.3s0.5,0.6,0.9,0.7
			c0.5,0.1,1-0.2,1.2-0.7c0.4-0.9,0.6-2,0.5-3c-0.3-2-0.2-3.6,2.3-4.1c0.6-0.1,1.2-0.9,0.1-1.4s-1-1.2-0.5-2.2s1.2-1.2,2.2-0.7
			c2.6,1.2,5.3,2.3,7.9,3.4c1.2,0.5,2,1.3,1.3,2.7c-0.3,0.6-0.2,1.4,0.2,1.9c1.9,2.4,1.9,4.8,0.5,7.6c-0.7,1.3-0.7,2.8-2.1,4
			c-0.9,0.7-0.9,2.8,0.6,3.9s2.4,0.3,3.3-1.1s0.9-3,2.5-3.9c1-0.5,1.7-0.5,2.3,0.5c0.6,0.9,1,1.9,1.2,3c0.6,3.3,2.4,6.4,2.4,9.9
			c0,0.6,0.4,1.7-1,1.2c-0.5-0.2-0.8,0.3-0.9,0.7c-0.4,2.5-2.3,4.5-2.5,7.1s-1.1,4.3-4.1,4.7C310.1,105.5,303.1,105.2,295.7,106.6z"
			/>
		<path style="fill:#0064FD;" d="M299.6,154.6c0.4-1.4,1.7-2.1,2-3.5c0.2-1.2,0.9-0.4,1.5-0.2c1.6,0.4,3.3,0.8,3.2-1.8
			c0-1.5,1.6-2.1,2.2-3.4c0.8-1.1,1.1-2.5,0.9-3.9c1.7,1.1,2.6-0.4,3.7-0.7c2-0.6,1.1-1.8,0.8-3c-0.1-0.6-0.2-0.9,0.6-0.9
			c1.3,0.1,2.6,0,3.1,1.5c0.4,1.3,1.5,1.2,2.4,1.7c2.1,1.1,4.2,0.4,6.3,0.9c0.4,0.1,0.8,0.1,1.2-0.1c2.6-0.9,4.4,0.5,4.5,3.4
			s2.1,4.9,4,6.6c1.5,1.3,1.7,2.2,0.3,3.1c-2.4,1.6-3.7,4.2-5.4,6.3c-2.6,3.2-6.1,4-9.8,4.3c-9.5,0.8-19,1.2-28.5,2.4
			c-0.8,0-1.7,0-2.5-0.1c-0.5,0-1-0.1-1.4,0.4s1,1.6-0.4,1.8c-2.4,0.3-4.8,0.4-7.2,0.5c-0.1,0-0.4-0.1-0.4-0.2
			c-0.1-2.3,0-4.5,0.3-6.8c0.1-0.7,1.5,0.1,2.2,0.3s1.6,1.3,2.5,0.4s0.5-1.6,0.1-2.5c-0.7-1.4,0.7-1.5,1.4-1.8
			c1.1-0.5,2.4-0.8,1.2-2.4c-0.4-0.5,0-0.9,0.3-1.3c1.2-1.6,4.7-2.5,6.5-1.6c0.7,0.4,1.2,0.6,1.6-0.2c0.3-0.6,0.3-1.6,1.4-1.3
			C299.2,152.9,299.8,153.8,299.6,154.6z"/>
		<path style="fill:#7AFF00;" d="M330,164c3.3-3.2,5.2-7.6,9-10.2c1.8,2.4,2.7,2.1,5.4,1.4c2.4-0.6,4.1-1.9,6.2-2.9s3.3-1.9,3-4.8
			c-0.2-1.8,1.8-3.8,2.1-6c0.1-0.7,0.4-1.4,0.7-2.1c0.3-0.7,0.5-1.8,1.8-0.9c0.5,0.4,1.3,0.4,1.7-0.2c0.2-0.2,0.3-0.5,0.3-0.8
			c0.2-2.6,2.3-3.9,3.5-5.9c0.9-1.2,1.5-2.6,1.6-4.1c0-1.6,0.5-1.8,1.7-0.9c0.4,0.3,0.9,0.5,1.3,0.8c1.1,0.8,2,1.1,2-0.8
			c0-0.4-0.1-0.9,0.5-1c0.2,0,0.6,0.2,0.6,0.3c-0.1,2.2,2,2.1,3.2,2.8c1.5,0.9,1.9,1.5,0.6,3c-0.8,0.9-0.7,2.3-0.5,3.6
			c0.1,0.4,0.2,0.9,0.7,0.9c2.8-0.2,5,1.7,7.4,2.6c1.4,0.5,1.8,1.2,1.3,2.8c-0.8-0.6-1.6-1.1-2.3-1.7c-0.5-0.4-1.2-1-1.7-0.4
			s0.4,1.1,0.8,1.6c0.5,0.6,1.2,1.2,1.8,1.7c0.7,0.5,1.5,1.1,1.3,2s-1.4-0.4-1.9,0.5c-0.2,0.7,0.9,0.9,0.8,1.6
			c-0.3,0.3-0.6,0.2-0.9,0c-0.8-0.4-1,0.1-1.3,0.6c-0.2,0.3-0.2,0.7,0.1,0.9c0.1,0.1,0.3,0.1,0.4,0.1c1.9,0.2,2.8,1.7,4,2.8
			c0.7,0.7,1.6,1.5,2.6,0.2c0.4-0.5,0.7-1.3,1.5-0.8s0.6,1.3,0.7,2.1c0,1-0.8,1-1.3,1.1c-4.5,0.9-9,1.8-13.5,2.8
			c-9.5,2.1-19.1,3.7-28.7,4.7C340.9,162.3,335.6,163.5,330,164z"/>
		<path style="fill:#00D58C;" d="M312.5,137.8c0.8,2.6-0.5,3.3-2.8,3.1c-0.8-0.1-1.5,0.4-1.3,1.1c0.5,2.4-1.3,3.6-2.4,5.2
			c-0.4,0.4-0.7,1-0.8,1.5c-0.1,1.9-0.8,1.8-1.9,0.6c-0.4-0.5-0.6-1.3-1.5-0.8c-0.7,0.4-1.4,0.6-1.3,1.7s0,2.3-1.5,0.9
			c-0.3-0.3-0.8-0.3-1.1,0c-0.1,0.1-0.1,0.1-0.2,0.2c-1.3,1.7-2.8,1.5-4.5,0.7c-0.6-0.3-1.5-0.8-2,0.5c-0.2,0.6-1,0.5-1.6,0.3
			c-0.9-0.4-0.2-1-0.2-1.5c-0.1-2.7,2.2-4.5,2.7-7c0.2-0.6,0.3-1.3,0.3-1.9c-1.4-8.8-1.5-17.8-2.5-26.6c0-0.3-0.1-0.7-0.1-1
			c0-1.7-1-4.6-0.2-4.7c2.2-0.6,3.8-2.3,6.1-2.5c3.9-0.3,7.8-0.9,11.7-1.4c1.5-0.2,2.1,0.2,2.2,1.9c0.9,9,1.9,17.9,3,26.9
			C312.8,135.9,312.7,136.9,312.5,137.8z"/>
		<path style="fill:#7AFF00;" d="M424.4,50.7c-0.9-0.8-0.5-1.5-0.7-2c-0.3-0.8-0.9-1.4-1.6-1.2s0.1,1,0,1.4
			c-0.6,1.9-0.2,3.8-0.3,5.7c0,0.6,0,1.2-1,1c-0.4-0.1-1-0.1-1,0.4c-0.4,2.7-1.1,1.8-2.1,0.3c-0.3-0.4-0.7-0.3-1,0.2
			c-1.6,3.7-2.2,7.6-3.2,11.5c-1.8-0.8-2.2-2.4-2.8-4.2c-1.6-5.2-3.1-10.5-5-15.7c-0.8-2.2-0.1-3.5,1.4-4.7c0.2-0.2,0.8-0.2,0.5-0.5
			c-1.6-1.6-0.1-2.7,0.4-4.2c0.4-1.3,0.4-2.7,0.2-4c-0.9-6,0.5-11.8,2.5-17.6c1,0.7,1,2.1,2.3,2.2s1.6-1,2.4-1.5
			c1.5-1.3,3.8-1.2,5.1,0.3c0.4,0.4,0.6,1,0.8,1.5c1.4,4.3,2.7,8.6,4,12.9c0.3,0.9,0.4,1.6,1.6,1.8c1.5,0.2,2.1,1.5,2.5,3
			c0.3,1.2,0.8,2.5,2.5,1.7c0.6-0.3,0.7,0.3,0.9,0.5c0.6,0.7-0.1,2,1.3,2.4c0.4,0.1-0.2,1.2-0.4,1.2c-2.8,0.9-4,4.2-7,4.7
			C425.4,48.2,424.6,49.2,424.4,50.7z"/>
		<path style="fill:#0064FD;" d="M362.5,207.2l-1.3-2.8c-1.1,0.8,0.9,2.2-1,2.7c-0.9,0.2-1.5,2.5-2.8-0.4c-0.1,1.6,0.1,3.2,0.8,4.6
			c0.3,0.7,0,1.6-0.7,1.9c-0.8,0.3-0.8-0.7-1.2-1.2c-2.5-3.5-3.8-7.8-7.6-10.5c-1.8-1.3-2.8-3.6-4.8-5c-2.8-1.9-5.1-4.5-6.6-7.6
			c-0.3-0.7-1.3-0.4-1.7-0.8c-0.9-0.7-2.7-0.9-2.6-1.9c0.1-1.4,0.9-2.7,2.2-3.4c2.7-1.4,5.3-3.1,8.6-3.1c1.8,0,3.5-0.6,5.2-0.4
			s3.9,0.2,4.4,2.6c0.2,1.1,1,0.6,1.6,0.6c1.9-0.2,3.8-0.5,5.7-0.9c1.9-0.6,3.9,0,5.2,1.4c2.3,2,4.8,3.9,7.3,5.8
			c0.9,0.7,1,1.2,0.2,2.1c-2.3,2.4-2.9,5.6-3.9,8.7c-0.1,0.4-0.2,0.9-0.6,0.8c-1.9-0.4-2.3,2.1-4,1.9c-0.6-0.1-0.3,0.6-0.3,1
			C364.8,205.9,364.8,205.9,362.5,207.2z"/>
		<path style="fill:#0064FD;" d="M345.2,119.9c1.2,5.3,1.2,5.3,6.4,4.4c3.2-0.5,3.1-0.5,3.6,2.8c0.1,1,0.4,2,0.6,3.3
			c1.5-1.9,3.1-3.6,4.9-5.3c1.1-1,2.1-0.3,3.2-0.4c0.8,0,0.5,1.1,0.4,1.7c-0.4,2.5-0.7,4.9-3.6,6c-1,0.4-0.8,2.2-1.2,3.4
			s-0.3,2.7-2,0.9c-1.1-1.1-1.8-0.5-2,0.9c-0.4,2.9-1.2,5.7-2.5,8.2c-0.5,0.7-0.8,1.5-0.7,2.4c0.3,1.4-0.4,1.8-1.4,2.5
			s-2.9,0.6-3.5,2.3c-0.4,0.6-1.2,0.8-1.8,0.4c-1-0.8-1.4-0.2-1.9,0.6c-0.4,0.7-1.3,1-2,0.6c-0.2-0.1-0.4-0.3-0.5-0.4
			c-1.4-3-5.1-3.6-6.4-6.5c-0.9-2-2.8-3.6,0.2-5.7c1.1-0.9,1.5-2.4,1-3.8c-0.3-0.7,0.2-1.7,0.4-2.6c0.7,0.1,0.3,1.5,1.1,1
			c0.6-0.3,1.6-0.6,1.4-1.8c-0.5-2.4,0.8-3.6,2.9-4.8c2.9-1.7,3.5-5,3.6-8.2C345.1,121.2,345.2,120.6,345.2,119.9z"/>
		<path style="fill:#7AFF00;" d="M276.5,49.4c3.6-2.4,4.5-2.2,7,1.3c1.4,2,6.4,2.3,7.8,0.4c0.9-1.2,2.3-2,3.8-2.1
			c1.9-0.1,3.8-0.6,5.4-1.6c0.9,3.7,1.3,3.9,5.3,3.1c1.2-0.2,1.2,0.7,1.4,1.3c0.2,0.9,0.7,1.7,1.4,2.3c-1.1,2-4.4-1.3-4.7,2.3
			c-1.2-1.3-3.1-2.4-4.1-1.8c-2.3,1.4-5.4,1.3-7.3,3.5c-0.2,0.3-0.2,0.6-0.8,0.7c-3.2,0.2-5.2,1.8-5.9,5c-0.1,0.5-0.1,1.7-1.3,1.2
			c-0.5-0.2-1.1,0-1.2-1.1c-0.2-3.8-2.7-5.9-6.7-6.5c-3.5-0.5-6.8-2.1-10.3-2.8c-1.5-0.3-1.4-2-0.5-3.3c1.6-2.5,5.1-1.6,6.6-4
			c0.1-0.2,0.4-0.2,0.7-0.3c0.8-0.3,0.5-2.2,1.8-1.6s1.3,1.8,1.2,3C276.1,48.8,276.4,49.1,276.5,49.4z"/>
		<path style="fill:#7AFF00;" d="M402.3,54.4c-0.1,0.3,0,0.8-0.2,1c-3.4,2.1-1.3,5.5-2.1,8.2c-0.9,3-0.2,5.9,0.2,8.9
			c0.2,1.2,0.2,2.4,0,3.7c-0.2,1.3-2.2,0.8-3.4,1.3c-1,0.4-1.1-0.4-1.2-1.1c-0.3-1.1-0.5-2.3-0.6-3.4c-0.1-3-2-5.1-3-7.7
			c-0.6-1.2-0.8-2.6-0.5-3.9c0.5-2.6-1.6-4.6-1.8-7.1c-0.1-1.2,0-1.6,1.1-1.9c3.2-0.7,6.3-1.6,9.5-2.4c0.5-0.1,1.4-0.6,1.3,0.4
			C401.5,51.7,401.7,53.1,402.3,54.4z"/>
		<path style="fill:#7AFF00;" d="M401.5,73.7c-0.1-0.9-0.3-1.9-0.5-2.8c-0.9-3.2,0.2-6.2,0.2-9.3c0-2.1,0-4,1.8-5.6
			c0.7-0.7,0.8-1.7,0.3-2.6c-1.3-2-0.5-4.1-0.7-6.2c0-0.4-0.2-1.1,0.6-1.1s0.8,0.5,1,1c0.9,2.9,1.9,5.7,2.8,8.6
			c1.1,3.4,2.2,6.8,3.1,10.3c0.4,1.7,2.3,2.4,2.6,4.2c0.1,0.4,0.5,1,0.2,1.2c-1.9,1.2-2.7,3.8-5.5,3.8c-1.2,0.2-2.5,0.4-3.7,0.8
			C401.6,76.4,401.4,76.2,401.5,73.7z"/>
		<path style="fill:#7AFF00;" d="M413,72.7c1.6,1.3,1.5,2.6,0.7,4.2s-1.3,3.1,1.6,3c1.7-0.1,1.7,2.1,2.8,3.1
			c0.8,0.7-0.1,1.5-0.7,2.1c-0.6,0.5-1.1,1.2-1.5,1.9c-1-0.9-2.2-1.7-2.8-2.8c-0.8-1.7-1.7-1.7-3.4-1.3c-3.7,1-7.5,1.7-11.2,2.6
			c-1.4,0.3-2.2,0.3-2.2-1.7c0-5.4-0.1-5.3,5.4-6.3c2.4-0.4,4.8-1.2,7.3-1.6C411,75.6,411.8,73.9,413,72.7z"/>
		<path style="fill:#7AFF00;" d="M393.8,122.3c-1.6-0.7-3.5-0.5-5-1.7c-2.1-1.6-2.2-3.3-0.2-5c1.6-1.4,2-3.8,3.5-4.7
			c-0.9-1.1-1.7-2-2.5-3s-2.4-1.9-2.3-2.7c0.3-2.4,0.2-4.9,1.3-7.1c0.1-0.4,0.5-0.6,0.9-0.4c0,0,0.1,0,0.1,0
			c0.5,0.2,0.9,0.3,1.4,0.6c4.2,1.7,4.3,1.7,3.1,6c-0.4,1.3-0.8,2.5,1.3,2.5c0.7,0,1.2,0.5,1.2,1.2c0,0.1,0,0.3-0.1,0.4
			c-0.6,1.1-0.1,2.1,0,3.1c0.3,3.1-1,5.6-2.2,8.3C394,120.7,393.9,121.5,393.8,122.3z"/>
		<path style="fill:#7AFF00;" d="M382.5,118.9c-0.2,2.2-2.3,3.2-3.1,5c-0.2,0.4-0.7,0.8-0.2,1.3c2.4,2.4,1.3,5.4,1.4,8.2
			c0.1,1.4,1.5,1.2,1.5,2.3c-2.1,0.8-3.1-3.4-6-0.7c0.5-1.8,1-3.5,1.7-5.2c0.5-1.2-0.3-1.8-1-1.8c-2,0-3-1-4.4-2.4s-3-2.2-3.9-4.2
			l13.9-2.6L382.5,118.9z"/>
		<path style="fill:#7AFF00;" d="M398.8,97.3c-0.5-2.5-0.9-4.9-1.6-7.3s-0.3-3.3,2.3-3.6c2.4-0.4,4.7-0.9,7-1.7
			c1.2-0.3,2.1-0.3,2.3,1.3c0.2,1.4,0.6,2.8,0.8,4.2c0.2,0.9-0.4,1.8-1.3,2c-0.2,0-0.4,0.1-0.6,0c-1.1-0.1-1.9,0.7-2.5,0.8
			C402.4,93.4,401.1,96.1,398.8,97.3z"/>
		<path style="fill:#7AFF00;" d="M392.5,132.8c-0.4,1.1-0.8,2.2-1.4,3.2c-0.5,0.7-1.4,0.8-2,0.4c-0.4-0.3-0.6-0.7-0.6-1.1
			c-0.1-1.8-0.5-2.4-2.2-1.4c-0.9,0.5-1.4-0.3-1.8-0.9s0.1-1,0.7-1.2s1.1-0.5,0.5-1c-2.2-1.8-0.7-4.8-2.6-6.8
			c-0.5-0.5,0.3-1.4,1-1.7c1-0.4,1.1,0.3,1.3,1c0.6,2.2,1.3,4.3,1.7,6.5c0.4,2,1.1,3,3.3,2.1C391.1,131.7,392.3,131.2,392.5,132.8z"
			/>
		<path style="fill:#7AFF00;" d="M385.8,120.9c1.3,0.6,2.3,1.7,2.7,3.1c0.4,1.5,1.4,2.7,2.8,3.4c0.9,0.5,1.4,1.5,1.1,2.5
			c-0.4,1.1-1.8,0.9-2.8,1.1c-1.3,0.3-1.3-0.7-1.5-1.4C387.4,126.7,386.6,123.8,385.8,120.9z"/>
		<path style="fill:#7AFF00;" d="M411.2,90.8c-0.5-2-1-3.8-1.5-5.5c-0.2-0.6-0.3-1.2,0.5-1.3c0.4-0.1,0.8-0.4,1.3,0
			C412.7,85.1,412.6,89.7,411.2,90.8z"/>
		<path style="fill:#0064FD;" d="M369.1,126.7c-0.6-0.3-1-0.6-1.5-0.8c-1.1-0.7-2.2-1.4-3.4-2.1c0.9-1.3,2.1-1.7,3.2-0.9
			S369.7,124.7,369.1,126.7z"/>
		<path style="fill:#7AFF00;" d="M360.5,122.9c-1,2.1-3,2.8-3.7,4.8C355.5,123.9,355.5,123.9,360.5,122.9z"/>
		<path style="fill:#7AFF00;" d="M382.4,118.7c1.6-0.4,1.6-0.4,2,1.7l-1.9-1.4L382.4,118.7z"/>
	</g>
</g>
</svg>
