<?xml version="1.0" encoding="utf-8"?>
<!-- Generator: Adobe Illustrator 25.4.1, SVG Export Plug-In . SVG Version: 6.00 Build 0)  -->
<svg version="1.1" id="Layer_1" xmlns="http://www.w3.org/2000/svg" xmlns:xlink="http://www.w3.org/1999/xlink" x="0px" y="0px"
	 viewBox="0 0 433.4 294.9" style="enable-background:new 0 0 433.4 294.9;" xml:space="preserve">
<g id="Layer_2_00000026153781995153961420000008847596584637309879_">
	<g id="Layer_1-2">
		<path style="fill:#EDFF60;" d="M213.9,265c-0.1,1,0.8,1.5,0.5,2.4s0.2,1.8-1.4,1.1c-0.6-0.3-2,1-2.9,1.7c-0.5,0.4,0,0.7,0.3,1
			s1.2-0.3,0.9,0.7c-0.2,0.6-0.6,0.6-1.2,0.5c-1.4-0.1-2.8,0.2-4,0.9c1.8,0.3,3.2,0.7,3.2,2.1c0,0.9-0.2,2.3-1.2,2.8
			c-1.8,0.9-2.2-1.3-3.6-1.9c-0.2,1,2.1,3-1.7,2.7c1.1,0.4,1.6,0.6,2,0.8c1.7,0.5,3.1,0.5,2,3.3c-0.7,1.9,0.7,4.4,1.1,6.7
			c0.1,1.2,0.5,2.4,1.2,3.5c0.6,0.7-0.1,1-0.5,1.3s-1,0.6-1.5,0s-1.2-1.5-2.2-1.4c-4.6,0.3-7.8-3.1-11.8-4.5
			c-0.4-0.1-0.7-0.5-0.8-0.9c-1.1-3.6-3.6-6.9-3.3-11c0.1-0.6-0.2-1.6-0.6-1.8c-3.4-1.7-3.9-5.6-6.2-8.2c-1.8-2-2.6-5-3.2-7.7
			c-0.6-2.9-2.8-4.4-4.2-6.5c-0.1-0.2-0.6-0.1-0.6-0.3c-1.6-3.8-4.9-3.7-8.2-3.9c-1.2-0.1-2-1-3.8-0.4c-2.1,0.6-3.8,2.4-4.3,4.5
			c-0.5,1.6-1.5,3-2.9,4c-1.6,0.9-2.6-1.1-3.9-1.8c-2.6-1.4-5-3.2-7-5.3c-1.1-1.2-1.7-2.7-1.7-4.3c-0.1-2-0.4-3.9-1.1-5.7
			c-0.4-1.2-0.7-2.5-1.7-3.2c-3.8-2.8-5.8-7.1-9.3-10.2c-1.4-1.2-1.3-3.6-3.3-4.5c-0.1,0-0.1-0.8,0-0.9c0.5-0.1,1-0.2,1.4-0.2
			c5.4,0.5,10.8,1.1,16.2,1.6c4.2,0.4,8.5,0.6,12.7,1.1c1.5,0.2,1.7-0.4,1.8-1.6c0.7-8.7,1.4-17.3,2.1-26c0.6-7.4,1.1-14.8,1.6-22.2
			c0.1-1.9,0.8-2.5,2.8-2.3c6.7,0.5,13.4,0.8,20,1.1c1.5,0.1,2,0.5,1.9,2.1c-0.3,6.2-0.5,12.4-0.7,18.5c-0.1,1.9,2.2,4.4,4.1,4.5
			c1.2,0.1,2.8-0.4,3,1.6c0.1,0.5,0.8,0.4,1.3,0.5c2.3,0.5,4.3,2.1,7,1.3c0.9-0.3,1.3,1.1,1.9,1.8c0.8,1,1.3,1.5,2.8,0.7
			c1.3-0.7,2.8,0.7,4.1,1.4c0.9,0.4,1.1,1.1,2.1-0.2c1.2-1.6,3.3-0.7,4.6,0.3s2,0.6,3.2,0c1.8-0.9,3.8-0.8,5.6-1.2
			c4-0.9,5.9,2.5,9,3.3c0.2,0.1,0.5,0.4,0.6,0.4c3.5-0.9,2.6,1.6,2.6,3.3c0.1,3.8,0.2,7.7,0.3,11.5c0.1,1.7,0.6,3.3,1.4,4.8
			c1.3,2.9,2.5,5.8,3.5,8.8c0.3,1.4,0,2.9-0.8,4.1c-0.5,0.9-1.1,1.9-0.7,3c1,3.1-1,5.5-1.9,8.1c-0.4,1-2.7,1.6-4.2,2
			c-0.8,0.2-1.6-0.3-1.8-1.1c0-0.2-0.1-0.4,0-0.6c0-0.6-0.4-1.3-1.1-0.9c-1.1,0.7-2.9,1-2.7,2.7c0.1,1.1,1.2,2.4,0.2,3.2
			c-2.3,1.7-2.7,5-5.9,6c-2.7,0.8-5.2,1.9-8.1,0.7c-1.6-0.6-1.9,0.1-1.2,1.5c0.3,0.7,2,1.2,0.9,2.1c-0.9,0.8-1.4-0.9-2.2-1.1
			C214.5,265.3,214.1,265.2,213.9,265z"/>
		<path style="fill:#EDFF60;" d="M5.4,129.3c1,1.7,2,3.2,4.4,2.8c-2.3-1.3-1.4-3.6-2.2-5.4c-0.4-0.9,0.4-1.8,1.6-1.4
			c1,0.4,2,0.7,3.1,1c0.6,0.1,1.5,0.2,1.9-0.7c0.3-0.6,0-1-0.3-1.6c-0.7-1.3-1.1-0.1-1.5,0.1c-1.4,0.7-2.6-0.6-3.2-1
			c-1.1-0.8-2.5-0.6-3.6-1.9c0.1,1.5,0.2,2.6-0.6,3.6c-1.2-1-1.8-2.5-1.7-4c0.3-2.7-1.5-4.9-2.5-7.2c-1-2.6-1-5.5,0.1-8
			c1.3-3.2,1.1-6.8-0.6-9.8c-0.8-1.4-0.7-3.1,0.3-4.4c3.1-4.2,5.8-8.5,5.4-14c-0.1-1.5,1.1-1.3,2.2-0.9c7.4,2.2,14.9,4.2,22.3,6.4
			c2.1,0.6,5.2,0.3,6,2.2c0.7,1.6-0.7,4.1-1.3,6.2c-2.2,8.5-4.4,17.1-6.7,25.6c-0.3,1.2-0.1,2.5,0.6,3.5
			c10.3,17.2,20.5,34.4,30.9,51.5c1.4,2.5,2.2,5.3,2.5,8.2c0.2,1.4,2.1,2,1.2,3.4c-0.7,1-2.2,1.1-2.9,2.2c-0.5,0.8-0.8,1.6-0.9,2.5
			c-0.3,1.5-0.5,2.8-2.1,3.7c-1.4,0.8-1.3,4.4,0,5.5c0.5,0.3,0.7,1,0.4,1.5c-0.3,0.7-1.1,1.1-1.9,0.9l-11.2-1.2
			c-2.2-0.2-4.5-0.6-6.7-0.8c-2.8-0.2-3.6-1.2-3.5-4c0.3-5.5-2.5-9.4-6.5-12.7c-0.1-0.1-0.4-0.1-0.4-0.2c0-3.2-2.5-3.6-4.7-4.4
			c-0.6-0.2-1-0.6-1.3-1.1c-1.5-4.4-5.4-5.4-9.3-6.4c-1-0.1-1.6-1-1.5-2c0-0.2,0.1-0.3,0.1-0.5c0.5-1.4,0.2-3,1-4.3
			c0.2-0.3,0.3-0.8,0.1-0.9c-1.8-2-1.2-4.9-2.8-7c-2-2.8-2.1-6.4-3.7-9.4c-0.5-1.1-0.1-2.4,0.8-3.1c2.2-1.7,1.8-3.3-0.5-4.9
			c-1.2-0.9-1.9-2.4-1.6-3.9C5.2,131.7,5.1,130.7,5.4,129.3z"/>
		<path style="fill:#EDFF60;" d="M110,67.3c-0.9-2.2-1.8-3-3-0.7c-0.3,0.5-1,0.7-1.6,0.5c-2.4-0.9-4.8-0.2-7.2-0.3
			c-1.4-0.1-1.8-0.2-1.8-1.5s0-2.8-1.7-3.2c-0.2,0-0.5-0.4-0.4-0.5c0.7-2.7-1.6-4.9-1.2-7.5c0.3-2.5-0.8-3.1-3.1-1.9
			c-0.5,0.3-1.1,0.6-1.6,0.1c-0.4-0.6-0.4-1.4,0-2.1c1.8-1.1,1-2.9,1.4-4.4c0.1-0.6,0.3-1.2,0.5-1.7c0.8-2,2.5-4-0.6-5.8
			c-2.1-1.2-1.7-4.2-3.1-5.8c-2.8-3-2.3-7-3.1-10.4s1.1-7,1.8-10.5c0.2-1.2,1.2-0.5,1.8-0.4c12,2.5,23.9,4.7,36,6.6
			c13.2,2,26.5,3.7,39.8,4.8c3.5,0.3,3.4,0.2,3.1,3.7c-0.9,9.6-1.6,19.1-2.4,28.7c-0.3,4-0.7,8-1,12c-0.1,1.6-0.9,2-2.3,1.8
			c-7-0.8-14.1-1.4-21.1-2.3c-8.9-1.1-17.8-2.5-26.8-3.7c-0.9-0.1-1.6-0.2-1.7,1.1C110.6,65,110.3,66.2,110,67.3z"/>
		<path style="fill:#87F5DA;" d="M156.2,221.9c-9.1-0.9-17.4-1.8-25.7-2.4c-1.6-0.1-4.1-1.7-4.8,1.6c-0.1,0.6-1,0.3-1.6,0.2
			c-3.2-0.3-6.5-0.6-9.7-1.2c-2.1-0.4-2.7,0.3-3,2.2c-0.1,0.8,0.5,2.4-1,2.4c-1.8-0.1-3.6-0.3-5.4-0.9c-0.5-0.1-0.2-1.2-0.1-1.9
			c2.6-18.5,5.2-37,7.8-55.5c0.3-2.3-0.3-5.4,1.4-6.5c1.5-0.9,4.3,0.3,6.5,0.6c13.6,1.7,27.2,3.3,40.9,4.1c1.4,0.1,1.6,0.6,1.5,1.9
			c-1.3,14.5-2.6,29-3.8,43.6c-0.2,2.9-0.5,5.8-0.6,8.7C158.5,220.9,158.2,222.6,156.2,221.9z"/>
		<path style="fill:#EDFF60;" d="M112.2,160.9c-0.7,5.2-1.4,10.4-2.1,15.6c-1.3,9.1-2.5,18.1-3.8,27.2c-0.9,6.3-1.7,12.5-2.5,18.8
			c-0.1,1.1-0.6,1.4-1.6,1.3c-5.2-0.8-10.4-1.5-15.6-2.3c-0.8-0.2-1.6-0.6-2.2-1.1c-9.1-5.6-18.2-11.3-27.2-16.9
			c-0.6-0.4-1.6-0.5-1.4-1.5c0.2-0.9,1-0.9,1.8-1.1c2.2-0.6,3-2.7,1.6-4.2s-0.7-2.9,0.1-4c1-1.2,1.7-2.6,2-4.1
			c0.2-1.6,1.2-3,2.7-3.6c1.5-0.7,2-1.6,1-3.6c-1.3-2.4-2.8-5.3-1.2-8.3c1.1-2,0-4.3,0.5-6.4c0.1-0.6,0.1-1.2,0.1-1.7
			c0.5-3.1,0.5-3.1,3.2-1.4c0.9,0.5,1.6,0.3,2.3-0.7c1.4-2.1,1.4-4.6,1.8-6.9c0.4-2,0.7-3,3.4-2.5c11.6,2.2,23.2,4.2,34.9,5.8
			C110.8,159.3,112.6,158.8,112.2,160.9z"/>
		<path style="fill:#7AFF00;" d="M68.3,162.5c-0.5-1.4-2-2.2-3.5-1.8c-1.7,0.3-1.6,1.6-1.6,2.9c0,2.4-0.8,4.7-0.3,7.1
			c0.1,0.8-0.2,1.5-0.8,2.1c-1.5-2.4-2.9-4.8-4.3-7.1c-9.1-15.2-18.2-30.3-27.3-45.5c-0.8-1.2-1-2.8-0.6-4.2
			c2.6-9.7,5.1-19.3,7.5-29.1c0.5-1.8,1.2-2.1,2.8-1.7c13.2,3.5,26.6,6.2,40,8.9c1.6,0.3,2,0.7,1.6,2.4
			c-3.6,18.2-7.2,36.5-10.7,54.8c-0.5,2.4-0.7,4.8-1.2,7.2C70,160.1,69.4,161.5,68.3,162.5z"/>
		<path style="fill:#EDFF60;" d="M168.1,164.1c-11-0.9-21.8-1.6-32.6-2.9c-6.7-0.8-13.4-1.7-20.1-2.5c-1.4-0.2-1.7-0.5-1.5-2
			c1.5-10.5,2.9-21,4.3-31.4c0.5-3.7,1-7.4,1.5-11.1c0.1-1,0.5-1.2,1.5-1.1c10.3,1.3,20.5,2.6,30.8,3.7c6.6,0.7,13.3,1.1,20,1.6
			c1.6,0.1,1.8,0.6,1.7,2.1c-0.7,9.4-1.2,18.8-1.8,28.2c-0.3,4.8-0.7,9.5-1,14.2C170.9,165.8,168.9,163.4,168.1,164.1z"/>
		<path style="fill:#7AFF00;" d="M156.1,115.9c-17.1-1.6-33.6-3.7-50-6.1c-1.7-0.2-1.5-1.2-1.3-2.3c1.2-7.6,2.5-15.1,3.7-22.7
			c1-6.2,2-12.3,2.9-18.5c0.3-1.7,0.7-2.4,2.7-2.1c15.4,2.3,30.7,4.4,46.2,5.6c2,0.2,1.8,1.3,1.6,2.6c-0.9,10.8-1.8,21.6-2.8,32.4
			c-0.2,2.8-0.7,5.7-0.7,8.5C158.6,115.4,158,116.5,156.1,115.9z"/>
		<path style="fill:#87F5DA;" d="M29,33.8c-0.1,5.2,1,6.1,6.4,5.3c1.5-0.4,3.1,0.1,4.1,1.2c0.5,0.6,1.2,0.9,2,0.8
			c3.1-0.3,6.2,0.6,9.3,0c3.8-0.6,7.7-0.3,11.3,0.9c1.7,0.6,3.5,1,5.4,1.1c2.8,0.2,3.9,2.1,5.1,4c0.5,0.7,0.4,1.7-0.2,2.3
			c-2.6,3.4-4.5,7.3-7.3,10.5c-0.9,1-1.4,2.3,0,3.5c0.7,0.7,0.9,1.9,0.4,2.8c-2.7,6.2-3.2,12.9-4.9,19.3c-0.8,3.2-0.7,3.2-3.9,2.5
			C40.6,84.7,24.8,80,9,75.5c-2.3-0.6-3.5-1.8-2.7-4.1C7.5,68,7.1,64.1,9.6,61c5.1-6.3,6.4-14.4,9.9-21.5c1-2.2,1.7-4.5,2.2-6.9
			c0.5-2,1.8-3.2,3.5-3C28,29.9,29,31.4,29,33.8z"/>
		<path style="fill:#7AFF00;" d="M104.9,100c-0.3,2.8-0.8,5.7-1.4,8.5c-0.5,1.9,0.4,2.2,1.8,2.3c3.9,0.5,7.8,1.1,11.6,1.6
			c1.5,0.2,2.1,0.8,1.8,2.4c-2,13.9-3.9,27.8-5.8,41.7c-0.2,1.7-0.7,1.9-2.3,1.7c-12.1-1.8-24.1-3.8-36.1-5.9
			c-2-0.4-2.2-1.1-1.8-2.8c2.6-13,5.1-26,7.6-39.1c0.9-4.6,1.9-9.2,2.7-13.8c0.2-1.3,0.4-1.8,2-1.5c6.2,1.2,12.3,2.2,18.5,3.2
			C104.9,98.5,105.2,99.1,104.9,100z"/>
		<path style="fill:#87F5DA;" d="M229.2,21.2c1.3,0.8,1.3,2.3,1.3,3.5c-0.1,3,1.8,4.1,4.2,4.6c1,0.2,2,0.2,2.8,1.3
			c0.4,0.7,1.6,0.1,2.3-0.2c3.1-1.5,4.9-1,6.7,2c1.3,2.1,1.4,2.1,2.8,0.2c1.2,1,2.3,2,3.6,2.9s2.6,0.1,3.7-0.7
			c0.4-0.3,1-1.2,1.3-0.8c1.3,2,3,0.9,4.5,0.7c1-0.1,2,0.4,2.4,1.4c0.3,0.8-0.9,1-1.5,1.3c-3,1.3-5.6,3.5-7.4,6.2
			c-1.5,2.1-3,4.3-5.2,5.7c-2.7,1.7-2.3,4.2-2.2,6.6c0.1,1.8,0.3,3.5-1.9,4.3c-1.2,0.5-1.1,1.9-1.8,2.9c-0.8,1.3-0.2,2.1,0.9,2.9
			c0.5,0.3,0.3,1.1,0.1,1.6c-0.8,2.2,0,4.6-0.3,6.9c-0.1,1.1,1.1,2,2,2.3c4,1.3,5.6,5.4,9,7.4c1.2,0.7,1,2.2,1.1,3.4
			c0.1,1-0.7,0.7-1.2,0.8c-11.9,0.7-23.7,0.9-35.6,1c-1.5,0-1.5-0.8-1.5-1.9c0.1-5.7,0.1-11.4,0.2-17.1c0-1.5,0.1-3-1.6-3.9
			c-0.6-0.3-1.5-1.4-0.6-2.3c2.5-2.3,2-5.3,1.1-7.7c-1.3-3.6-1.1-7.1-1.4-10.6c-0.3-3.1-0.3-6.1-1.3-9.1c-0.8-2.5-0.9-5.2-0.4-7.8
			c0-0.1,0-0.2,0-0.2c0.2-1.1-1.3-2.5-0.1-3.2c1-0.6,2.6-0.3,3.9-0.3c2.3,0,4.5-0.1,6.8,0s3.1-0.5,2.8-2.8
			C228.4,22.1,228.7,21.5,229.2,21.2z"/>
		<path style="fill:#7AFF00;" d="M219,165.9c-14.3,0.1-29.8-0.6-45.4-1.3c-1.3,0-1.5-0.5-1.4-1.6c0.7-10.3,1.3-20.7,1.9-31
			c0.1-1.4,0.6-1.7,1.8-1.6c13.1,0.5,26.2,1,39.3,1.5c3.3,0.2,6.5,0.2,9.8,0c1.9-0.2,3.2,1.1,4.9,1.4c0.7,0.1,0.4,0.7,0.2,0.9
			c-2.4,3.2,0.4,5,1.9,6.9c0.6,0.6,0.9,1.3,0.9,2.1c0.1,6.9,0.2,13.9,0.4,20.8c0.1,1.7-0.5,2.1-2.1,2.1
			C227.6,165.8,223.9,165.9,219,165.9z"/>
		<path style="fill:#EDFF60;" d="M104.1,97.4l-11.6-2c-10-1.8-20-3.7-29.9-5.9c-1.5-0.3-1.6-0.7-1.3-2.1c1.3-5.7,2.5-11.5,3.8-17.3
			c0.2-0.6,0.5-1.2,0.8-1.8c0.8-1.8,1.8-3.4,0-5.5c-1.5-1.8,0.9-3.2,1.9-4.3c2.6-2.7,3.6-6.3,6-9c0.6-0.9,0.5-2.1-0.3-2.8
			c-2.5-2.5-1.8-5.6-1.2-8.3c1.8-9,4.1-18,6.1-27c0.3-1.6,0.8-2,2.2-1.4c0.8,0.3,1.6,0.5,2.4,0.6c0.9,0.1,1.1,0.5,0.8,1.4
			c-0.5,1.8-0.8,3.6-1.2,5.4c-0.7,2.7-1.3,5.5,0.2,8.2c0.1,0.2,0.3,0.5,0.2,0.7c-1.5,3.2,1.3,4.9,2.4,7.2c1.2,2.5,1.9,5.2,3.9,7.2
			c0.9,0.9,0.3,2-0.2,2.8c-1.5,2.6-1.2,5.7-2.6,8.3c-0.6,1.2,0.8,1.6,1.4,2.4c0.8,1.1,1.3-0.1,1.8-0.4c1.4-0.7,2.1-1.1,1.9,1.2
			c-0.2,2.4,0.9,4.8,1.4,7.1c0.5,1.8,2.2,3.5,2.3,5.8c0.1,0.6,0.7,1,1.3,1c3.6-1.7,7.5,1.1,11.2-1c0.9-0.5,1.7,1.9,1.5,3.2
			c-0.7,5.2-1.6,10.4-2.4,15.5c-0.5,3-0.9,6.1-1.4,9.1C105.6,96.3,105.7,97.6,104.1,97.4z"/>
		<path style="fill:#87F5DA;" d="M166.8,59.1c16.6,1.3,32.8,2,49,2.3c0.5,0,1.2-0.3,1.5,0.5c0.2,0.6-0.3,0.9-0.6,1.2
			c-1.9,1.7-0.6,3.3,0.6,4.2c0.8,0.6,1.3,1.7,1.2,2.7c0,5.8,0.6,11.7-0.3,17.3c-0.6,3.2,0.8,6.3-0.5,9.5c-0.8,1.8-1.5,1.9-2.8,1
			c-2.2-1.4-4.9-1.7-7.4-0.7c-1.2,0.4-2.2-0.6-3.1-1.3c-0.8-0.7-1.8-1.1-2.9-1.1c-12.7-0.2-25.4-1-38-2c-2-0.2-1.9-1.2-1.8-2.5
			c0.5-6.6,1.1-13.1,1.7-19.7c0.3-2.9,0.8-5.8,0.7-8.7C163.9,59.4,164.7,58.5,166.8,59.1z"/>
		<path style="fill:#87F5DA;" d="M211.5,130.6c-11.3,0-22.6-0.9-33.8-1.2c-2.4-0.1-3.6-0.7-3.1-3.5c0.4-2.3,0.3-4.7,0.5-7
			c0.1-1.2-0.2-1.6-1.4-1.7c-3.9-0.2-7.8-0.7-11.7-0.8c-1.8-0.1-2.6-0.5-2.4-2.5c0.6-6.1,1.1-12.3,1.5-18.4c0.1-1.7,1-1.8,2.3-1.7
			c4.3,0.3,8.6,0.6,13,1c7.8,0.7,15.7,1,23.5,1.1c2.3,0,3.9,1.2,5.6,2.2c0.7,0.6,1.8,0.7,2.6,0.2c2.4-1.3,6.4,0.6,8.4,2.4
			c2.5,2.2,3.2,5.3,3.9,7.9c1,4.2,2.8,8.3,2.6,12.9c-0.1,2.5,1.4,4.7,2.6,6.8c0.3,0.6,1,1.1,0.7,1.8c-0.4,0.9-1.3,0.5-2,0.5
			C220,130.6,215.7,130.6,211.5,130.6z"/>
		<path style="fill:#87F5DA;" d="M207.3,60.2c-11.9-0.5-24.5-0.8-37-2c-0.5,0-1-0.1-1.5-0.1c-4.7-0.1-4.6-0.1-4.2-4.6
			c0.9-9.5,1.7-19,2.4-28.4c0.1-1.8,0.7-2.2,2.4-2c13.5,1.3,27,1.9,40.5,2c3.8,0,4.2,0.7,4,4.4c-0.4,3.3,0.1,6.7,1.2,9.8
			c0.4,1,0.7,2.1,0.7,3.2c0,5.1-0.1,10.3,1.7,15.2c0.7,1.8,0.1,2.6-1.9,2.5C213,60.2,210.5,60.2,207.3,60.2z"/>
		<path style="fill:#00D58C;" d="M271,176.2c0.6-0.7,1-1.1,1.4-1.6c0.8-0.7,1-1.8,0.5-2.8c-0.5-1-1.6-1.5-2.7-1.3
			c-8.4,0.4-16.7,0.8-25.1,1.1c-2.8,0.1-5.5,0-8.3,0.3c-2.2,0.2-2.6-0.8-2.6-2.6c0-3.3,0-6.5-0.1-9.8c-0.1-5.5-0.1-11-0.1-16.6
			c0-1.3,0-2.2-1.5-3c-1.7-0.9-2.3-3.9-1.4-5.7c0.7-1.4,0.7-2.5-1.2-2.4c-1.1,0-1.5-0.9-1.8-1.4c-0.7-1.2-1.4-2.4-2.2-3.6
			c-0.9-1.4-0.9-2.4,1.3-2.2c5.6,0.5,11.2-0.1,16.8-0.3c3.5-0.1,7-0.3,10.5-0.6c1.5-0.3,2.9,0.7,3.1,2.1c0.1,0.3,0.1,0.5,0,0.8
			c-0.4,4.9,2,8.2,5.5,11.1c1.1,0.9,1.7,2.3,1.8,3.7c0.2,1.3,0.4,2.8,2.5,1.6c1-0.6,2.3-0.4,1.8,1.5c-0.1,0.5,0,1-0.1,1.4
			c-1.3,5.6-0.9,6.2,4.1,9.2c1.9,1.2,3,3.3,2.9,5.6c0,1.9,0.5,3.4,2.5,4.4s0.5,2.9,0,3.2c-2.1,1.1-2.4,3.3-3.5,4.9
			c-0.1,0.2-0.2,0.5-0.2,0.6c1.4,2.6-0.7,2.2-2.1,2.4C272.5,176.2,272,176.2,271,176.2z"/>
		<path style="fill:#EDFF60;" d="M235.3,192.9c0,4.2,0,7.1,0,10.1c0,0.6,0.4,1.4-0.5,1.7c-0.7,0.1-1.4-0.1-1.8-0.6
			c-0.8-0.6-1.5-1.2-2.4-1.8s-1.6-1.4-2.4,0c-0.2,0.2-0.6,0.3-0.9,0.3c-2.4-1.1-4.4-0.3-6.5,0.9c-0.6,0.3-1.4,0.5-1.6,0.2
			c-1.1-1.8-3.5-0.6-4.6-2.1c-0.2-0.3-0.4-0.3-0.8,0c-1.6,1.7-3.3,1.2-5,0.1c-0.5-0.3-1.1-0.8-1.5-0.4c-1.6,1.4-2.5-0.1-2.8-1
			c-0.4-1.6-1.5-1.1-2.3-1.1c-3,0.1-6,0.3-7.7-2.9c-0.4-0.7-1.1-0.7-1.8-0.7c-3.3,0-4.6-1.4-4.4-4.6c0.3-5.8,0.6-11.7,0.9-17.5
			c0.1-1.8-0.2-2.4-2.2-2.5c-6.8-0.2-13.5-0.7-20.3-1c-2-0.1-3-0.6-2.7-3c0.2-1.9,0.8-2.1,2.5-2c21.6,1.6,43.2,2.1,64.9,1.9
			c1.6,0,2.3,0.3,2.1,2c-0.2,3.4,0.6,6.8,1.1,10.2C235.1,183.7,235.4,188.3,235.3,192.9z"/>
		<path style="fill:#EDFF60;" d="M25.6,3c2.1,3,5.3,5,8.9,5.5c1.6,0.2,1.6,2,0.8,3.3c-1,1.6-2.7,2.9-3.3,5.2
			c0.9-0.8,1.6-1.4,2.3-1.8c0.5-0.3,1-0.8,1.5-0.3c0.3,0.2,0.3,0.8,0.3,1.2c0,0.7-0.6,0.8-1,0.8c-1.1,0-1.9,0.7-2.8,0.9
			c-1.1,0.2-1.2,1.1-1,1.9c0.1,0.8,0.8,1.3,1.6,1.3c2.7,0.1,5.1-1.8,5.5-4.5c0.1-0.9,0.1-2.1,0.7-2.6c2.1-2,1.6-4.6,1.6-7
			c0-1.6,1.2-2.9,0.8-4.6c-0.7-2.7-0.6-2.7,2.2-1.9c10.6,3,21.3,5.8,32,8.2c1.6,0.4,2.1,0.8,1.7,2.6c-2.1,8.6-4,17.2-5.9,25.9
			c-0.2,0.7-0.3,1.5-0.3,2.2c-0.1,3.5-0.1,3.5-3.4,2.7c-2.3-0.5-4.7-1-7.1-1.7c-4.1-1.1-8.1-0.6-12.3-0.4c-3.1,0.1-6.2,0.4-9-1.3
			c-1.5-0.9-3.3-1.1-5-0.5c-3.2,0.9-4.6-0.5-4.2-3.8c0.2-2-0.1-3.7-2.4-5c-1.4-0.8-2.5-2.2-4.4-2.4c1.4-1,2-5.1,1-5.9
			c0.6-0.9,2-0.2,2.8-1.3c-3.2-1-2.3-3.8-2.2-6s0.4-4.2-0.3-6.4C24.2,5.8,24.6,4.2,25.6,3z"/>
		<path style="fill:#87F5DA;" d="M349.5,233.8c-0.4-1.9-1.7-1.8-3.2-1.7c-6.6,0.5-13.2,0.8-19.8,1.2c-1.4,0.3-2.8-0.5-3.1-1.9
			c-1.8-4.1-2.9-8.4-2.1-12.6c0.6-3-0.4-5.1-1.5-7.6c-2.5-5.6-3.3-11.7-5.1-17.5c-0.4-1.3-0.7-2.6-1-3.9c-1.3-4.5-1.3-4.4,3.5-4.9
			s9.8-1.1,14.9-1.7c-1.9,2.5-0.7,4.1,1.7,5c1.8,0.7,3.2,2.1,3.9,3.9c1.2,2.5,4,3.4,5.6,5.5c2.7,3.5,7.2,5.4,8.4,10.2
			c2.8,1.2,2.3,4.9,4.7,6.4c0.4,0.2,0.5,0.5,0.2,0.8s-0.6,0.2-0.9,0.1c-0.7-0.1-1.2-1-2.1,0.4c-1,1.6,0.6,1.3,0.8,1.9
			c0.4,1.7,2.1,3.4-0.3,5c1.1,1.5-1.1,2.6-0.5,4.2s0.8,3.2-2,2.2c-1.7-0.6-2.2,0.6-2.2,2.1C349.4,231.9,350.3,232.6,349.5,233.8z"/>
		<path style="fill:#EDFF60;" d="M258.3,124.8c-1.1-2-2.6-2.2-4.5-2.1c-9.2,0.7-18.5,1.4-27.8,0.8c-1.3-0.1-1.9-0.6-1.9-2
			c-0.1-3.2-0.1-6.4-1.8-9.3c-0.6-1,0.2-2-0.2-3.1c-1-2.4-1.7-4.9-2.5-7.4s-1.5-4.4-0.3-6.8c0.1-0.5,0.1-1,0-1.5
			c-0.4-3.2-0.4-3.2,2.7-3.2c11.4,0.1,22.9-0.2,34.3-0.8c1.3-0.1,2.4,0.9,2.5,2.2c0,0.3,0,0.5-0.1,0.8c-0.5,2.7,0.8,5.4,3.1,6.8
			c1.3,0.8,2.3,2,2.9,3.4c0.5,1.5,2.5,1.7,2.5,3.6c0,2.3-1.7,5.3-4,6.1c-3.4,1.3-3.3,1.4-2,4.7c0.8,2-0.4,3.9-1.8,5.2
			C258.6,122.9,258.2,123.8,258.3,124.8z"/>
		<path style="fill:#87F5DA;" d="M259,48.7c-0.3,1.6-0.6,2.9-0.9,4.4c2.6-1.2,4.5-0.7,6,1.6c0.2,0.4,0.5,0.6,0.9,0.8
			c3.7,1.1,7.5,2.3,11.3,3c3.1,0.6,5.3,2.6,5.2,5.7c0,1.4,1.4,2.1,1.5,3.5c0.1,0.8,0.5,1.2-0.3,2c-0.9,1.1-1.5,2.5-1.6,4
			c-0.1,0.6-0.2,1.2,0.5,1.5s1-0.2,1.5-0.5c1.1-0.8,1.2-3.3,2.4-2.7s-0.4,2.4-0.5,3.7c-0.3,4.3-1,8.5-1.5,12.7
			c-0.2,2.2,0.1,4.5,0.9,6.6c1,2.9,0.6,3.6-2.4,3.8l-16.2,1c-3.6,0.2-6.8-3.8-5.8-7.3c0.2-0.8,0.5-1.4-0.2-2.1
			c-1.3-1.2-0.9-3-1.2-4.5c-0.2-0.9-0.4-2-1.1-2.4c-3.4-2.1-5-6.4-9.2-7.6c-1-0.3-1.7-1.2-1.6-2.3c0.2-2.1-0.5-4.3,0.5-6.4
			c0.3-0.7,0-1.6-0.5-2.1c-1.9-2-0.4-3.5,1-4.3c1.7-0.8,2.5-2.6,2-4.4c-0.5-2.5-0.5-4.3,2.9-4.9C254.7,51.2,256.6,49.8,259,48.7z"/>
		<path style="fill:#87F5DA;" d="M285,162.2c-2.4-0.4-4.1-1.9-5.9,0.2c-0.7,0.8-1.8,0-1.8-1.4c0.2-3.1-1.4-6-4.2-7.4
			c-4.1-2.4-4.1-2.6-2.9-7.2c0.3-1.1,1.2-2.5,0-3.8c-0.8-0.9-2.5-1.2-4.4-0.7c0.6-3.7-2.4-5.3-4.5-7.3c-2.8-2.6-3.5-8-0.6-12
			c1.3-1.8,2.9-4.2,0.9-6.9c-0.9-1.1-0.2-1.9,1-2.1c3.4-0.6,4.5-3.2,5.3-6c0.6-1.4,0.2-2.9-0.9-3.9c-1-0.8-1.3-1.8-2.2-2.9
			c6.2-0.4,12.1-0.7,18-1.1c1.1-0.1,1.4,0.3,1.9,1.3c4,7.4,3.2,15.5,4.2,23.4c0.3,2.5,0.4,5,0.7,7.5c0.3,1.5,0.3,3-0.1,4.4
			c-0.4,1.1-0.2,2.3,0.4,3.2c1.7,2.9,0.2,5.5-1.3,7.8c-1.3,2-1,4.1-1.5,6.2c-0.5,1.9,0.7,4.2-2.2,5.2
			C283.9,159.1,283.9,160.7,285,162.2z"/>
		<path style="fill:#00D58C;" d="M269.5,177.5c1.5,0.4,2.8-0.2,4.2-0.3c0.4,0,1-0.3,1.2,0.4c0.1,0.4,0,0.8-0.3,1.1
			c-1.7,1.9-3,3.9-2.2,6.6c0.2,0.6-0.1,1-0.5,1.6c-1.5,2.1-3.1,4.2-3,7c0,0.2,0,0.6-0.1,0.7c-3.1,1.9-2.8,5.6-4.4,8.4
			c-0.7,1.2-1.2,2.4,0,3.9c1.7,2.2,0,4.7-2.8,4.8c-6.5,0.1-13,0.3-19.5,0.5c-1.6,0.1-2.1-0.4-1.9-1.9c0.1-0.7-0.1-1.4,0-2
			c0.3-1.9-0.7-2.7-2.4-2.5s-1.6-0.5-1.6-1.6c0-5.2-0.1-10.4,0-15.6c0.1-4.4-0.7-8.6-1.3-12.9c-0.3-2-0.2-2.7,2.1-2.7
			c10.5-0.4,21-0.4,31.5-1.3c0.4,0,0.8,0,1.2,0c0.7-0.2,1.5,0.2,1.8,0.9c0.5,0.9-0.2,1.2-0.6,1.7C270.3,175.1,269.5,176,269.5,177.5
			z"/>
		<path style="fill:#7AFF00;" d="M318.4,238.7c-0.9,0.8-2.1,0.4-3.1,0.9c-0.4,0.3-1.1,0.2-1.4-0.2c0-0.1-0.1-0.1-0.1-0.2
			c-1.3-2.8-3.3-1.4-5.1-0.8c-0.8,0.4-1.7,0.5-2.6,0.3c-1.1-0.4-2.5-2.6-3.6,0.2c-0.2,0.4-1-0.1-0.9-0.7c0.2-0.9-0.3-1.9-1.1-2.2
			c-0.6-0.4-1.1-0.9-0.9-1.6s1.1-0.7,1.7-0.7c6.6-0.4,13.1-1.1,19.7-2c0.9-0.1,1.6,0.1,1.7,1c0.3,2.1,1.5,2.1,3.3,2
			c6.6-0.4,13.2-0.7,19.7-1.1c1.2-0.1,2.3-0.2,2.8,1.3c0.2,0.8,1,0.8,1.7,0.6s0.7-0.8,0.7-1.4c0-0.5,0-1,0-1.5
			c0.2-0.8-1.5-2.2,0.2-2.3c0.9,0,2.7-0.5,3.4,1.8c1.8,5.9,4.5,11.4,8,16.5c0.6,1,1,2.1,1.3,3.2c0.8,2.2,1.9,4.2,2.9,6.3
			c1.5,3.4,3.4,6.7,5.4,9.8c3,4.2,2.9,8.6,3.5,13.1c0.4,2.8-1.1,5.3-0.9,8.1c0.1,2-2.9,2.7-4.8,1.5c-1.7-1.1-3.2-1.9-3.3-4.4
			c0-1.3-1.7-1.4-2.8-1.7c-0.7-0.2-1.7,0-2.2-0.4c-1.7-1.3-1.3-4.1-3-5.2c-2.1-1.5-2.4-3.2-1.6-5.4c0.1-0.4,0.2-0.9-0.2-1.1
			s-0.7,0.1-1,0.3c-1.3,0.7-2.6,0.9-3.6-0.7c-1.3-2.2-2.3-4.2-0.8-6.9s-1.3-2.8-2.5-3.1c-1.4-0.3-1.4-0.8-1.1-1.8
			c0.7-2.3,0.6-4.7,0-6.9c-0.7-1.9-1.1-3.8-3.8-4.4c-1.6-0.4-3-2.1-4.1-3.6c-1.6-1.9-3.2-3.8-5.6-4.9c-2.6-1.3-4.5,0.3-6.6,1.1
			c0.6,3.2-2.6,2.5-3.9,3.7c-0.6,0.6-1.6,0.8-2.2-0.5s-1.2-3-2.8-3.7C317.9,240.4,319.2,239.4,318.4,238.7z"/>
		<path style="fill:#EDFF60;" d="M295.2,235.8c-0.8,1.1-0.4,2.3-0.7,3.3c-0.1,0.5-0.1,1.2-0.9,1.2s-0.9-0.6-0.9-1.2
			c-1.2-9.5-2.4-19-1.7-28.6c0.5-6.9,0.2-13.9,0.1-20.8c0-1.7,0.4-2.3,2.2-2.4c5.6-0.3,11.2-0.7,16.7-1.3c1.4-0.1,1.6,0.4,1.9,1.5
			c1.7,6.5,3.5,13,5.3,19.5c0.5,2.3,1.5,4.6,2.7,6.6c1.3,1.9,0.1,4.1-0.1,6.2c-0.2,3.5,1.8,6.6,0.9,10.4c-5.6,1-12,1.5-18.3,2
			c-0.5,0-1,0-1.5,0.1c-0.9,0.2-2.2-0.2-2.6,0.9c-0.4,1.1,0.1,2.4,1.1,3c1.5,0.8,0.6,2.2,1.1,3.3c0.3,0.6-1,1.3-1.5,1.4
			c-0.9,0-1.7-0.7-1.8-1.6C297.1,237.9,296.3,236.7,295.2,235.8z"/>
		<path style="fill:#7AFF00;" d="M281.8,243.4c-0.9-2.6-3.3-4.6-2-7.8c0.6-1.4-0.6-1.4-1.6-1.3c-4.3,0.3-8.7,0.5-13,0.8
			c-1.7,0.1-2.7,0.1-2-2.4c0.7-3.1,1.9-6,3.4-8.8c1-1.8,1.1-3.9,0.4-5.9c-1.1-3-0.8-6.6-1.3-9.9c-0.7-4.8,1.4-8.3,3.6-12
			c0.8-1.2,0.8-2.6,1.3-3.9c0.7-2,1.9-3.1,4-3.3c4.6-0.4,9.1-0.7,13.7-1.1c1.7-0.1,1.7,0.9,1.6,2.1c-0.1,6.8,0.1,13.5-0.3,20.3
			c-0.4,9.5,0.1,19,1.7,28.4c0.3,2.2-0.5,2.4-2.1,2.2C286.5,240.5,283.9,240.9,281.8,243.4z"/>
		<path style="fill:#87F5DA;" d="M396,99.3c-0.5-1-1.6-1.1-2.5-1.3c-2.7-0.6-4.9-2.5-7.5-3.3c-0.7-0.2-0.8-1-1-1.7
			c-0.7-2.4-3.2-3.8-5.7-3.1c-9.6,1.9-19.2,3.9-28.9,5.8c-0.7,0.1-1.6,0.7-2.2-0.4s-0.1-1.8,0.6-2.6c1.3-1.5,2.5-3.1,3.6-4.7
			c1.3-2.1,0.7-3.7-0.6-5.2c-0.6-0.8-0.8-1.3,0.1-1.8c2.8-1.4,5.7-2.8,9-1.5c1.1,0.4,6.8-1.2,7.3-2.3c0.6-1.2,1.5-2.2,2.7-2.9
			c0.5-0.3,0.8-0.9,0.5-1.3c-1.1-1.8,0.6-4.2-1.3-5.8c-0.2-0.2-0.3-0.6-0.1-0.8c0,0,0-0.1,0.1-0.1c2.1-2.4,2.7-5.7,4.6-8.2
			s4.8-3.4,7.8-3.9c1.6-0.2,3.2-1.4,4.6-1s0.6,2.7,1.4,3.9c1,1.5,0.9,3.2,1,5c0.1,2.5,1,5,2.5,7c1.6,2,1.4,4.9,1.9,7.4
			c1,5.4,0.3,11,2.1,16.3C396.9,94.9,395.9,97,396,99.3z"/>
		<path style="fill:#87F5DA;" d="M346.9,94.3c0.2,2.6,1.1,2.9,3,2.6c9.9-1.7,19.6-3.8,29.5-5.8c2.3-0.5,4,0.4,4.7,2.6
			c0.2,0.8,0.5,1.7,1.2,1.8c2.7,0.6,1.7,2.3,1.1,3.7c-1.7,4.4-1.2,6.6,2.5,9.8c1.1,0.9,1,1.4,0.3,2.6c-1.9,3.2-5,4.7-8.2,5.5
			c-10.7,2.6-21.6,4.3-32.4,6.3c-1.2,0.2-1.8-0.2-2-1.5c-1.2-7.5-2.5-14.9-3.8-22.4C342.4,96.7,345.3,96.5,346.9,94.3z"/>
		<path style="fill:#EDFF60;" d="M388.8,163.9c1.1,0.5,1.8,0.6,2,0.9c0.4,0.6,1.8-0.9,1.5,0.7c-0.2,0.9-0.3,1.9-1.5,2.1
			c-0.8,0.1-1.6,0.2-1.8-1.1c-0.1-1-1.5-1.4-1.8-0.5c-0.8,2.6-2.4,1.2-3.7,1.1c-0.5-0.1-1-0.2-1.5-0.2c1,1.2,2,2.4,3.8,2.5
			c1,0,1.9,0.8,1.9,1.8c0,0,0,0.1,0,0.1c0.2,1.4-0.4,1.8-1.4,1.3c-0.9-0.6-2.2-0.3-2.8,0.6c-0.1,0.1-0.1,0.2-0.2,0.3
			c2.2,0.3,4.3,2.8,6.7-0.1c-0.7,2.7-3.1,3.6-5.9,2.6c0.1,1.2-0.4,2.4-1.3,3.3c-1.8,2.2-4.2,4.2-4.1,7.5c0,1.3-3.8,2-5.2,1
			c-2.2-1.4-4.2-3-6.1-4.8c-2.9-3.1-6.2-3.5-10-2.5c-2,0.6-3.6,0.6-4.7-1.5c-0.6-1-1.7-1.5-2.8-1.2c-5.4,0.5-10.8,0.4-15.6,3.5
			c-2.9,1.9-6.5,1.5-9.7,2c-0.5,0.1-1.1,0.1-1.2-0.6s-0.1-1.2,0.7-1.4c0.3-0.1,0.8-0.1,0.9-0.3c1.5-5.1,7.9-4.9,9.9-9.4
			c2.4,0.4,2.8-3.1,5.5-2.8c0.6,0.1,2.7-2.3,2.9-4.4c0.1-1,0.1-1.7,1.5-1.8c10.9-1.1,21.8-2.9,32.5-5.4c2.2-0.5,4.1,0.4,6,1.1
			c0.5,0.2,0.6,0.6,0.8,1.1c1.2,3.7,1.2,3.7,4.9,2.7c0.6-0.2,1.3-1.1,1.7,0.2C391.1,163.3,390.3,163.6,388.8,163.9z"/>
		<path style="fill:#7AFF00;" d="M280.1,251.9c-1,0.1-2-0.2-2.8-0.8c-0.5-0.4-0.9-0.2-1.3,0.2s-0.4,1.1,0,1.3
			c1.6,0.8,0.5,2.2,0.9,3.3c-2.1-2.2-4.4-2.2-5.3,0.2c-1.6-2.1-4.3-2.3-6.3-3.8c-0.8-0.5-1.5-1.1-2-1.9c-0.7-1.2-2.2-1.2-3.3-1.4
			s-2.5,1.1-2.4,1.8c0.4,2.4-1.2,1.6-2.1,1.5c-1.4-0.2-2.8-0.6-4.1-1.1c-2.2-0.8-4.4-1.5-6.8-0.9c-1.5,0.4-1.7-0.6-1.3-1.4
			c0.8-1.7,0.6-3.4,0.4-5.1c-0.2-0.8-0.1-1.7,0.2-2.4c2.5-3.8,1.1-7.2-0.6-10.8c-2.5-4.6-3.6-9.9-3.1-15.2c0.2-1.6,0.6-1.9,2-1.9
			c6.5,0,13.1,0,19.5-0.6c2-0.2,3.1,0.4,3.1,2.7c-0.1,1.3,0.3,2.6,1,3.7c0.2,0.2,0.4,0.5,0.4,0.6c-0.8,1.2-0.7,2.8-1.2,3.8
			c-1.7,3.7-4.1,7.1-3.6,11.6c0,0.3-0.4,0.6-1,1.4c5.5-0.4,10.4-0.6,15.4-1.1c2-0.2,3.2-0.1,2.3,2.4c-0.5,1.4,0.3,2.2,1,3.1
			c0.5,0.6,1.1,1.3,0.5,1.9s-1.4,0.1-2-0.3c-1.2-0.9-2.4-1.3-3.4,0.2c-0.6,0.8-1.6,1.6-0.9,2.9s1.7,0.8,2.6,1s1.9-0.2,3.1,0.6
			c1.9,1.3,3.4,1.8,0.5,3.5c-0.2,0.1,0,0.6,0.3,0.8c0.1,0.1,0.2,0.2,0.2,0.3S280.1,251.9,280.1,251.9z"/>
		<path style="fill:#EDFF60;" d="M273.3,187.8c0.2-0.5,0.7-1,0.6-1.3c-1.4-2.8,1.1-4.7,1.9-6.9c0.7-2.3,1.3-4.5,1.7-6.9
			c0.3-1.4,0.6-1.9,2.1-2c2.8-0.1,5.7-0.4,8.5-0.6c1-0.1,2.1,0.2,2-1.4c0-1,0.9-0.5,1.3-0.6c9.8-0.9,19.6-1.7,29.5-2.6
			c6.6-0.6,13.2-1.5,19.8-2.6c0.5-0.1,1.1-0.8,1.5,0c0.3,0.6-0.1,1.1-0.4,1.6c-1.4,2.3-3.7,4-6.3,4.5c-0.9,0.2-1.7,0.8-2.1,1.6
			c-1.3,2.7-3.8,4.8-6.7,5.5c-0.4,0.1-1.1,0.5-1.1,0.9c-0.4,2.3-3.4,3-3.2,5.6c0.1,1-0.9,0.8-1.5,0.8c-8.4,0.8-16.8,1.8-25.2,2.4
			C288.2,186.7,280.9,187.6,273.3,187.8z"/>
		<path style="fill:#87F5DA;" d="M341.5,98.9c0.8,4.4,2,8.5,2.1,12.6c0,3.9,0.3,7.9-0.3,11.8c-0.4,2.1-1,3.9-2.4,5.1
			c-0.8,0.6-2.2,0.4-2.8,1.9c-1.1,3-4.7,4.9-4.1,8.8c0.1,0.6-0.1,2.2-1.2,2.2c-1.2-0.2-2.3-0.9-2.9-2c-0.8-1.4-1.4-1.3-2.4-0.3
			c-1.3,1.2-8,0.7-9.1-0.7c-0.2-0.3-0.3-0.8-0.6-1.1c-0.8-0.7-1.2-1.9-2.8-1.4c-1.2,0.4-1.7-0.6-1.8-1.8c-0.8-7.6-1.7-15.2-2.5-22.9
			c-0.5-4.6-0.4-4.7,4.2-5.4c1.9-0.3,3.9-1.3,5.9-0.4c0.6,0.3,2.7-0.3,1.5,1.8c-0.3,0.4,0.5,0.3,0.9,0.4c1.3,0.5,2.8,0.5,4.1,0
			c2.9-1.2,6.5-1,8.5-4C337.1,101.3,339.3,100.3,341.5,98.9z"/>
		<path style="fill:#87F5DA;" d="M295.4,106.2c0.9-3.9,2.8-7,2.3-10.8c-0.2-2-0.2-4.2-1.2-5.8c-1.8-2.9-2.6-6.3-2.1-9.7
			c0.5-3.3,0.6-6.8,1.9-10c0.3-0.5,0.8-0.9,1.3-1c0.9-0.2,0.8,0.6,0.9,1.1c0.1,0.6,0.6,1.1,1.2,1c0,0,0,0,0.1,0c0.6,0,0.8-0.5,0.9-1
			c0.5-1.2,0.6-2.5,0.3-3.7c-0.5-1.5,0.2-2.2,1.4-2.7c1.1-0.4,2.8-0.7,0.5-2.1c-0.6-0.4-0.4-1.2,0-1.8s0.7-1.3,1.5-1
			c1.1,0.5,2.8,0.5,3.4,1.1c1.5,1.5,3.5,1.6,5.2,2.5c0.6,0.3,1.5,0.6,1.4,1.2c-0.8,2.9,2.3,5,1.5,7.9c-0.6,2.3-0.6,4.8-2.7,6.5
			c-1,0.8-0.8,3.6,0.2,4.3c1.5,1,2.5,0.6,3.4-1c0.4-0.8,0.8-1.6,1.2-2.5c0.4-0.9,1.3-1.6,2.3-1.8c1.1-0.2,1.6,0.9,1.9,1.7
			c0.7,1.9,1.2,3.8,1.7,5.7s1.7,3.8,1.4,6c-0.1,0.7,0.5,1.9-1.1,1.4c-0.5-0.2-0.8,0.3-0.8,0.7c-0.2,2.7-2.4,4.6-2.5,7.4
			c-0.1,2.1-1,3.8-3.7,4.2C309.9,105.2,302.7,104.9,295.4,106.2z"/>
		<path style="fill:#EDFF60;" d="M299.5,153.9c0.6-1.3,1.9-2.2,1.9-3.7c1-0.2,1.4,0.7,2.2,0.7s2.1,0.1,2.1-0.8c0-3.2,4-4.6,3.7-8
			c0-0.3,2.3-0.6,3.4-1.4c0.7-0.5,1.5-0.8,1.2-1.8c-0.2-0.7-1-1.5-0.2-1.9s2.3-0.5,2.8,0.4c1,2,2.7,2.4,4.6,3c2.3,0.9,4.8,0.7,7-0.4
			c0.8-0.4,3.7,1.9,3.6,3.2c-0.2,3.6,2.1,5.7,4.4,7.8c1.1,1,1.3,1.9,0.1,2.8c-2.8,2-4.1,5.3-6.5,7.6s-5.4,2.9-8.6,3.2
			c-9.4,0.8-18.8,1.1-28.1,2.4c-1,0-2,0-3-0.1c-0.5,0-1.4-0.1-1.4,0.3c0.4,3-1.9,1.6-3.1,2c-0.4,0.1-0.8,0.2-1.2,0.2
			c-3.9,0.6-3.9,0.6-3.7-3.3c0-0.3,0.1-0.5,0-0.8c-0.1-3.3-0.1-3.3,3.2-2.1c0.6,0.2,1.3,0.6,1.8,0c0.5-0.4,0.6-1.1,0.3-1.6
			c-1.1-1.6-0.1-2.2,1.2-2.7c1.1-0.4,1.9-0.8,1.1-2.1c-0.4-0.7-0.1-1.2,0.4-1.8c1.7-1.6,4.2-2.1,6.4-1.2c0.6,0.3,1.2,0.4,1.5-0.3
			C297.8,150.6,298.5,152.8,299.5,153.9z"/>
		<path style="fill:#87F5DA;" d="M329.3,163.6c1.5-1.4,3-2.5,3.7-4.2c1-2.5,3.6-3.6,5-5.7c0.2-0.3,0.5-0.6,0.9,0
			c1.4,1.8,2.8,1.9,5.2,1.2c2.7-0.8,4.6-2.6,7.2-3.4c1.5-0.5,1.6-2.2,1.9-3.9c0.6-3.2,2-6.2,3.1-9.2c0.1-0.2,0.4-0.3,0.6-0.2
			c2.8,1.2,3-1.1,3.1-2.6c0.2-1.9,2.1-2.2,2.8-3.6c1-1.9,2-3.7,2.1-5.9c0.7,0,1.4,0.3,1.9,0.7c2.4,1.5,2.4,1.5,3.5-1.5
			c0.4,2.4,2.2,2.8,3.7,3.6s2,1.4,0.7,2.8c-0.6,0.9-0.9,2-0.8,3.1c0,0.6,0.1,1.5,1,1.5c2.8-0.1,4.9,1.8,7.3,2.6
			c1.4,0.5,1.8,1.2,1.1,2.8c-0.8-0.6-1.5-1.2-2.3-1.7c-0.5-0.3-1-0.9-1.5-0.3s0.1,1.2,0.5,1.4c1.5,1,1.4,3.2,3.7,3.9
			c-2.2-0.1-3.2,0.2-1.5,2.1c-0.8,0.3-2-0.7-2.2,0.7c-0.2,1.1,0.8,0.8,1.4,1.2c1.2,0.7,2.3,1.6,3.2,2.6c0.7,0.8,1.6,1.3,2.5,0.3
			c0.4-0.5,0.6-1.4,1.4-0.8c0.5,0.5,0.8,1.1,0.7,1.8c0,0.9-0.5,1.1-1.2,1.3c-2.7,0.6-5.4,1.2-8.1,1.7c-11.3,2.3-22.5,4.7-34,5.8
			C340.5,161.9,335,163.2,329.3,163.6z"/>
		<path style="fill:#EDFF60;" d="M312.4,136.5c0.5,2.9-0.5,4.3-3.6,4c-0.6,0-1.1,0.6-1,1c0.9,3.5-3.4,4.8-3.3,7.9
			c0,0.7-1.1,0.2-1.6-0.2c-1.7-1.5-2.3-1.3-2.8,1.1c-0.2,1-0.5,1.7-1.6,0.6c-0.3-0.3-0.7-0.4-1.1-0.2c-0.1,0.1-0.1,0.1-0.2,0.2
			c-1.4,1.8-3.1,1.3-4.8,0.7c-0.4-0.1-1-0.3-1.1-0.2c-0.7,0.9-1.9,1.7-2.4,0.7s0.1-2.5,0.4-3.7c0.5-1,1-1.9,1.6-2.8
			c1.1-2.3,0.9-4.5,0-6.9s0.1-4.7-0.1-7.1c-0.8-6.6-1.2-13.3-1.8-20c-0.1-1.4,0.1-1.9,1.7-2.8c5.4-3,11.3-1.8,16.8-3.1
			c0.6-0.2,1.3,0,1.5,0.6c0.1,0.1,0.1,0.3,0.1,0.5C310.2,116.8,311.3,126.7,312.4,136.5z"/>
		<path style="fill:#87F5DA;" d="M410.1,16.8c1.9,2.9,2.1,2.9,4.5,1s5.1-1.2,6.1,1.8c1.1,3.3,2,6.7,3.2,10c0.7,1.9,0.4,4.6,3.5,5
			c0.5,0.1,1,1.3,1.3,2c0.5,1.5,0.5,2.7,2.8,2.3c1.1-0.2,0.8,2.3,1.9,3.2c0.2,0.1-0.4,1.1-1.5,1.1c-1.4,0-1.7,1.7-2.5,2.5
			c-1.7,1.8-5,1.3-5.8,4.3c-0.2-1.8-1.5-3-2.2-5.1c-0.6,4.6,1.3,9.1-3.1,12.2c-1.3-0.5-0.9-2-1.4-3.2c-0.7,3.4-3.1,6.2-3.1,9.8
			c0,1.2-0.4,3.1-1.5,3.2c-1.5,0.2-1.7-1.7-2.1-3c-1.7-5.4-3.2-10.8-5.1-16.1c-0.8-1.7-0.3-3.7,1.3-4.8c0.2-0.2,0.9-0.1,0.6-0.5
			c-1.7-1.8,0.2-3,0.5-4.4c0.3-1.2,0.3-2.4,0.1-3.6C406.7,28.6,408.1,22.8,410.1,16.8z"/>
		<path style="fill:#EDFF60;" d="M363.7,201.6c-0.2,1.7,2.3,3.5-0.6,4.6c-1,0.4-1,0.5-2.6-2c0.7,1.8-0.7,2.7-1.8,3.5
			s-1.3-0.9-2.2-1.4c0.4,1.5,0.7,2.9,1.1,4.3c0.3,0.9,0.3,1.9-0.5,2.2c-1,0.4-0.9-0.8-1.3-1.4c-2.6-3.4-3.9-7.6-7.5-10.3
			c-1.8-1.4-3-3.8-5-5.2c-2.8-1.9-5-4.4-6.4-7.4c-0.3-0.6-1.1-0.3-1.5-0.6c-0.9-0.7-2.8-0.9-2.8-2.1c0.2-1.4,1-2.7,2.3-3.4
			c3-2,6.5-3,10.1-3.2c0.9,0,1.8-0.1,2.8-0.3c2.2-0.6,4.5,0.6,5.3,2.7c0.4,0.9,1.1,0.5,1.7,0.4c2-0.2,4-0.5,5.9-0.9
			c1.5-0.4,3.2,0,4.3,1.1c2.3,1.9,4.7,3.8,7.1,5.6c1.2,0.9,1.8,1.5,0.4,3c-1.7,1.8-2.2,4.4-3.1,6.7c-0.4,1-0.2,3.1-2.5,2.6
			c-0.3-0.1-0.9,0.9-1.3,1.4C364.8,202.4,364.2,201.5,363.7,201.6z"/>
		<path style="fill:#87F5DA;" d="M344.8,120.3c1.3,4.5,1.3,4.5,6,3.7c3.4-0.6,3.3-0.6,4,2.7c0.2,1-0.1,2,0.8,3
			c1.6-1.4,2.9-3.1,4.3-4.6c1.2-1.2,2.3-0.8,3.3-0.7c1.4,0.2,0.6,1.4,0.5,2.2c-0.2,2.3-1,4.1-3.2,5.2c-1.3,0.6-1,2.3-1.4,3.5
			s-0.3,2.6-2,0.9c-1.1-1.1-1.9-0.6-2.1,1c-0.3,2.6-1.1,5.2-2.2,7.6c-0.4,0.9-1.1,1.9-1,2.8c0.2,1.6-0.6,2.2-1.7,2.9
			s-2.8,0.1-3.1,2.1c-0.1,0.4-1.3,0.8-2,0.4s-1.1-0.2-1.6,0.5c-1.3,1.8-2.6,0.9-3.3-0.4c-0.5-1-1.4-1.9-2.5-2.3
			c-2.2-1.2-3.4-3.4-4.5-5.5c-0.6-1-0.4-2.2,0.6-2.9c1.4-0.9,2.1-2.6,1.8-4.2c-0.2-1.4,0-1.2,1.5-1.8c1-0.2,1.7-1.2,1.5-2.2
			c0,0,0,0,0-0.1c-0.4-2,0.6-3.1,2.5-4.2c2.1-1.1,3.5-3.2,3.5-5.6C344.4,123,344.6,121.7,344.8,120.3z"/>
		<path style="fill:#87F5DA;" d="M308.5,54.1c-1.6,1.5-4.3-1.6-5,2c-1.2-1.2-3-2.4-4-1.8c-2.4,1.4-5.4,1.3-7.3,3.5
			c-0.2,0.4-0.7,0.6-1.1,0.7c-2.9,0.4-4.9,1.8-5.6,4.8c-0.1,0.7-0.2,2-1.2,1.8c-0.8-0.2-1.4-1-1.3-2.3c0.2-2.7-3.2-5.1-6.9-5.7
			c-3.5-0.7-6.9-1.6-10.3-2.7c-1.5-0.5-1.4-1.9-0.5-3.2c1.7-2.4,5-1.9,6.8-4.2c2.3-2.9,3.4-2.1,3.7,1.3c0,0.7,0.6,0.7,1.3,0.3
			c2.8-1.8,3.8-1.6,5.5,0.9c0.6,0.8,0.9,2.3,1.9,2.2c1.9-0.2,3.5,0.4,5.3,0.5c0.2,0,0.5-0.2,0.6-0.4c1.5-2.7,4-3.2,6.8-3.3
			c0.4,0,0.8-0.2,1.2-0.4c1.5-1.1,2-0.9,2.4,1.1c0.5,2.6,2.9,1.2,4.4,1.2c0.5,0,1.3-0.4,1.3,0.3C306.3,52.4,307.4,53.2,308.5,54.1z"
			/>
		<path style="fill:#87F5DA;" d="M401,51.1c-0.2,0.5-0.1,1.1,0.2,1.5c1,1.6,0.4,2.9-0.9,3.9c-0.9,0.6-1.3,1.3-1,2.3
			c0.5,1.9,0.5,3.8-0.1,5.6c-0.3,1.6-0.3,3.2,0,4.7c0.4,1.6,0.5,3.3,0.4,5c-0.1,0.8,0.8,1.8-0.4,2.2c-1.1,0.4-2.2,0.6-3.4,0.7
			c-0.6,0.1-0.6-0.6-0.7-1.1c-0.2-0.9-0.3-1.8-0.5-2.7c-0.5-2.2-0.8-4.4-2.2-6.5c-1.4-1.8-1.9-4.1-1.4-6.3c0.5-2.2-1.5-4.3-1.7-6.6
			c-0.1-1.2,0-1.6,1.2-1.9c3-0.7,6-1.5,9-2.3C400.4,49.4,401.4,49.3,401,51.1z"/>
		<path style="fill:#87F5DA;" d="M402.8,75.8c-1.6,0-2.5-0.3-2-1.7c0.2-0.8,0.1-1.7-0.2-2.4c-1.3-4.4,0.8-8.8-0.1-13.2
			c0-0.1,0-0.2,0-0.2c4.2-2.8,1.1-6.8,1.6-10.1c0.1-0.8-0.5-2,0.5-2.2c1.2-0.2,1.2,1.2,1.5,2c1.8,5.5,3.5,11.1,5.2,16.7
			c0.4,1.2,0.5,2.5,1.7,3.2c0.7,0.4,0.5,0.9,0.2,1.5c-0.1,0.2-0.4,0.6-0.3,0.8c0.8,1.2-0.3,3.7-2.1,4.3
			C406.7,75,404.5,75.4,402.8,75.8z"/>
		<path style="fill:#87F5DA;" d="M412.4,72.3c1.2,1.3,1.6,2.4,0.9,3.8s-1.9,3.5,1.7,3.4c1.8,0,2.8,4.3,1.5,5.7l-1.1,1.2
			c-1.2-1-2.8-1.6-3.3-3.5c-0.3-1-1.3-0.7-2.2-0.5c-3.9,0.9-7.8,1.8-11.7,2.8c-1.7,0.4-2.6,0.4-2.5-1.9c0.1-5.2,0-5.2,5.2-6.1
			c2-0.4,3.9-0.8,5.9-1.1C409.1,75.8,411.3,74.4,412.4,72.3z"/>
		<path style="fill:#87F5DA;" d="M394.6,100.9c0.5,1.2-1,1.9-1.2,3c-0.2,1.3-0.8,2.4,1.3,2.6c0.7,0,1.3,0.7,1.3,1.4
			c0,0.1,0,0.3-0.1,0.4c-0.4,1.2-0.5,2.4-0.1,3.7c0.7,3.6-2.2,6.1-2.4,9.4c0,0.2-0.1,0.3-0.3,0.4c-0.9,0.5-5.3-1.3-5.9-2.5
			c-0.9-1.6-0.8-3,1-4.2c1.5-1,1.6-3.2,3.2-4.3c0.6-0.4,0-0.9-0.3-1.2c-0.5-0.5-1.1-1-1.6-1.5c-1-1-2.7-2-2.6-3
			c-0.1-2.4,0.3-4.8,1.2-7c0.1-0.2,0.1-0.4,0.2-0.4c2.1-0.1,3.6,1.3,5.6,1.7C394.7,99.4,394.6,100.1,394.6,100.9z"/>
		<path style="fill:#87F5DA;" d="M382,118.8c-0.1,2-2.1,2.8-2.8,4.5c-0.4,1-0.9,1.4,0.1,2.1c0.6,0.5,0.9,1.3,0.6,2
			c-0.5,1.8,0.2,3.4,0.7,5.1c-0.6,0.7-1.3-0.3-1.9,0.3l3,2.4c-1.4,0.5-2-0.3-2.8-1.2c-0.9-1-2-0.1-3.1-0.1c-0.1-1.6,1-2.9,1.4-4.3
			s-0.1-2-1.2-2c-1.8,0-2.6-1.1-3.9-2.1c-1.7-1.2-3.2-2.7-4.3-4.4l13.8-2.7C382,118.1,382.1,118.4,382,118.8z"/>
		<path style="fill:#87F5DA;" d="M398.6,96.7c-1.4-2.8-1.6-5.7-2.2-8.6c-0.2-1.2,0.2-1.5,1.1-1.7c3-0.7,6-1.4,9-2.1
			c0.2,0,0.5,0,0.8,0c0.8,0.2,2.3,4.7,1.9,6.1s-1.6,2-3.1,1.2c-0.7-0.4-0.9-0.2-0.8,0.5c0,0.3-0.2,0.6-0.5,0.8
			c-1.1,0.6-2.6,0.2-3.4,1.4C400.6,95.3,399.7,96.1,398.6,96.7z"/>
		<path style="fill:#87F5DA;" d="M389.2,130.6c-1.1,0.6-1.2-0.5-1.5-1.2c-0.7-2.3-1.3-4.7-1.9-7c-0.1-0.5-0.5-1,0.2-1.3
			s0.9,0.3,1.2,0.7c0.9,1,0.7,2.6,1.8,3.5c0.5,0.4,0.8,1.2,1.3,1.4c1.2,0.4,1.9,1.6,1.6,2.8C391.7,130.6,390.3,130.3,389.2,130.6z"
			/>
		<path style="fill:#87F5DA;" d="M387,130.6c-0.2,1.1-0.7,2.2-1.5,3c-0.4,0.4-0.9-0.3-1.2-0.5c-0.8-0.5-0.8-1.3,0-1.5
			c1.7-0.4,1-1.1,0.4-1.8c-1.7-1.9-0.6-4.6-2-6.5c-0.3-0.4,0.4-1,1-1.3c0.8-0.3,1,0.2,1.2,0.8C385.5,125.4,386.2,127.9,387,130.6z"
			/>
		<path style="fill:#EDFF60;" d="M381,156.5c3.4-0.4,5.9-2.2,9.1-1c-0.9,1.3-3.1,1.4-2.3,3.6c0.1,0.2-1,1.1-1.6,1.3
			c-0.8,0.2-0.8-0.7-0.8-1.2C385.4,156.3,383,157.4,381,156.5z"/>
		<path style="fill:#87F5DA;" d="M390.3,131.5c0.9-0.1,1.6-0.1,1.6,0.9c0.1,1.3-1.9,4.1-2.8,3.9c-1.7-0.5-1.9-2.5-1.9-3.5
			C387.3,131.2,389.5,132.1,390.3,131.5z"/>
		<path style="fill:#87F5DA;" d="M412.1,88.5c0.1,0.8-0.2,1.5-0.9,1.7s-0.8-0.6-0.9-1.1c-0.4-1.3-0.7-2.6-1-3.8
			c-0.1-0.6-0.4-1.3,0.6-1.6s0.9,0.3,1.2,0.9C411.8,85.9,411.6,87.3,412.1,88.5z"/>
		<path style="fill:#87F5DA;" d="M368.9,124.8c0,0.3,0,0.5-0.1,0.8c-0.4,0.6-0.9,0.4-1.2,0.1c-1.1-1-2.8-1-3.4-2.6
			c0.5-0.7,1.4-1,2.2-0.8C368.1,122.7,368.1,124.2,368.9,124.8z"/>
		<path style="fill:#87F5DA;" d="M356.1,127.5c-0.1-0.8-0.3-1.6-0.6-2.4c-0.6-1.4,0.2-2,1.4-2.2c0.8-0.1,1.9-0.6,2.3,0.1
			c0.6,1.1-0.8,1.1-1.3,1.6C357.3,125.6,356.7,126.5,356.1,127.5z"/>
	</g>
</g>
</svg>
