<?xml version="1.0" encoding="utf-8"?>
<!-- Generator: Adobe Illustrator 26.1.0, SVG Export Plug-In . SVG Version: 6.00 Build 0)  -->
<svg version="1.1" id="Layer_2_00000054268047372416206210000009258989596957192096_"
	 xmlns="http://www.w3.org/2000/svg" xmlns:xlink="http://www.w3.org/1999/xlink" x="0px" y="0px" viewBox="0 0 200 200"
	 style="enable-background:new 0 0 200 200;" xml:space="preserve">
<path d="M107.1,20.5V0H94.5v20.4C53.2,23.2,20.6,57.8,20.6,100c0,44.1,35.5,79.8,79.4,79.8c43.8,0,79.4-35.7,79.4-79.8
	C179.3,58.3,147.6,24.2,107.1,20.5z M165.4,84.4c-10.9,8-21.7,15.9-32.6,23.9c-3,2.2-4.2,6-3.1,9.5c4.1,12.8,8.2,25.7,12.4,38.5
	c0.4,1.2,0,2.4-1,3.2c-1,0.7-2.3,0.7-3.3,0c-10.9-7.9-21.8-15.8-32.8-23.6c-3-2.1-7-2.1-10,0c-10.9,7.9-21.8,15.8-32.8,23.6
	c-1,0.7-2.3,0.7-3.3,0s-1.4-2-1-3.2c4.1-12.8,8.2-25.7,12.4-38.5c1.1-3.5-0.1-7.3-3.1-9.5c-10.9-8-21.7-15.9-32.6-23.9
	c-1-0.7-1.4-2-1-3.2s1.5-2,2.7-2c13.4,0.1,26.8,0,40.3,0c3.7,0,6.9-2.4,8-5.8C88.8,60.6,93,47.8,97.2,35c0.4-1.2,1.5-1.9,2.7-1.9
	c1.2,0,2.3,0.8,2.7,1.9c4.2,12.8,8.4,25.6,12.6,38.4c1.1,3.5,4.4,5.8,8,5.8c13.5,0,26.9,0.1,40.4,0.1c1.2,0,2.3,0.8,2.7,2
	C166.8,82.4,166.4,83.7,165.4,84.4z"/>
</svg>
