<?xml version="1.0" encoding="iso-8859-1"?>
<!-- Generator: Adobe Illustrator 24.2.3, SVG Export Plug-In . SVG Version: 6.00 Build 0)  -->
<svg version="1.1" id="Layer_1" xmlns="http://www.w3.org/2000/svg" xmlns:xlink="http://www.w3.org/1999/xlink" x="0px" y="0px"
	 viewBox="0 0 531.421 500" style="enable-background:new 0 0 531.421 500;" xml:space="preserve">
<g>
	<polygon style="fill:#FDC964;" points="318.977,335.221 314.387,330.309 314.386,323.585 307.837,325.104 302.014,321.742 
		300.054,328.174 294.232,331.536 298.822,336.449 298.822,343.172 305.372,341.654 311.195,345.015 313.154,338.583 	"/>
	<circle style="fill:#FDE664;" cx="271.199" cy="359.388" r="6.029"/>
	<polygon style="fill:#FF652E;" points="234.579,400.475 236.999,406.748 234.486,412.984 241.128,414.024 245.272,419.318 
		249.494,414.086 256.152,413.145 253.731,406.872 256.245,400.636 249.602,399.596 245.458,394.301 241.236,399.534 	"/>
	<polygon style="fill:#FFA92E;" points="113.112,200.967 110.765,197.122 111.674,192.71 107.17,192.821 103.804,189.827 
		101.648,193.783 97.373,195.201 99.72,199.046 98.811,203.458 103.315,203.347 106.681,206.341 108.837,202.385 	"/>
	<polygon style="fill:#FFA92E;" points="185.982,113.351 184.607,106.77 188.095,101.022 181.708,98.922 178.474,93.027 
		173.462,97.508 166.74,97.361 168.115,103.943 164.627,109.691 171.014,111.791 174.248,117.686 179.26,113.204 	"/>
	<polygon style="fill:#FF652E;" points="316.433,96.602 317.991,92.375 322.015,90.35 319.134,86.887 319.392,82.39 314.953,83.154 
		311.187,80.682 309.629,84.908 305.605,86.933 308.486,90.396 308.228,94.893 312.668,94.129 	"/>
	<polygon style="fill:#FDC964;" points="434.637,151.101 430.143,150.802 427.062,147.515 424.556,151.258 420.169,152.282 
		422.157,156.324 420.851,160.635 425.346,160.934 428.426,164.221 430.932,160.478 435.319,159.454 433.331,155.412 	"/>
	<polygon style="fill:#FF652E;" points="452.411,261.887 449.336,258.595 449.336,254.09 444.947,255.108 441.046,252.856 
		439.733,257.165 435.832,259.417 438.907,262.709 438.908,267.214 443.296,266.196 447.197,268.448 448.51,264.139 	"/>
	<path style="fill:#E7BB00;" d="M225.799,178.134c9.763,8.67,23.553,11.155,35.728,6.438c12.175-4.717,20.691-15.844,22.065-28.828
		c1.374-12.984-4.626-25.647-15.545-32.807c-10.919-7.16-24.923-7.616-36.284-1.18c9.007-1.413,18.16,1.441,24.767,7.724
		c6.607,6.283,9.918,15.281,8.958,24.348s-6.079,17.173-13.855,21.934C243.859,180.525,234.312,181.401,225.799,178.134z"/>
	<circle style="fill:#FFA92E;" cx="392.715" cy="330.848" r="6.029"/>
	<polygon style="fill:#FF652E;" points="221.18,296.186 218.104,292.894 218.104,288.39 213.716,289.407 209.814,287.155 
		208.501,291.464 204.6,293.717 207.676,297.008 207.676,301.513 212.064,300.496 215.965,302.748 217.278,298.439 	"/>
	<circle style="fill:#FDE664;" cx="156.789" cy="170.674" r="6.029"/>
	<circle style="fill:#FFA92E;" cx="85.039" cy="264.129" r="6.029"/>
	<polygon style="fill:#FFA92E;" points="342.649,380.201 339.574,376.909 339.574,372.404 335.185,373.422 331.284,371.17 
		329.971,375.479 326.07,377.731 329.146,381.023 329.146,385.528 333.534,384.51 337.435,386.762 338.748,382.453 	"/>
	<polygon style="fill:#FF9A2E;" points="166.882,359.646 163.806,356.355 163.806,351.85 159.418,352.867 155.517,350.615 
		154.204,354.924 150.303,357.177 153.378,360.469 153.378,364.973 157.766,363.956 161.668,366.208 162.981,361.899 	"/>
	<polygon style="fill:#FFA92E;" points="380.022,133.441 375.432,128.528 375.432,121.805 368.882,123.324 363.059,119.962 
		361.1,126.394 355.277,129.756 359.867,134.669 359.867,141.392 366.417,139.873 372.24,143.235 374.2,136.803 	"/>
	<polygon style="fill:#FDC964;" points="163.113,281.745 158.523,276.832 158.523,270.108 151.973,271.627 146.15,268.266 
		144.191,274.697 138.368,278.059 142.958,282.972 142.958,289.696 149.508,288.177 155.331,291.538 157.291,285.107 	"/>
	<polygon style="fill:#FFA92E;" points="384.263,272.674 379.672,267.761 379.672,261.038 373.122,262.557 367.3,259.195 
		365.34,265.627 359.517,268.989 364.108,273.902 364.108,280.625 370.658,279.106 376.48,282.468 378.44,276.036 	"/>
	<polygon style="fill:#FDE664;" points="342.993,210.752 339.158,213.116 334.742,212.226 334.873,216.729 331.894,220.108 
		335.859,222.247 337.296,226.516 341.13,224.152 345.546,225.042 345.416,220.539 348.395,217.159 344.43,215.021 	"/>
</g>
</svg>
