<?xml version="1.0" encoding="utf-8"?>
<!-- Generator: Adobe Illustrator 26.1.0, SVG Export Plug-In . SVG Version: 6.00 Build 0)  -->
<svg version="1.1" id="Layer_1" xmlns="http://www.w3.org/2000/svg" xmlns:xlink="http://www.w3.org/1999/xlink" x="0px" y="0px"
	 viewBox="0 0 200 200" style="enable-background:new 0 0 200 200;" xml:space="preserve">
<path style="fill:#E26D6A;" d="M78.5,176.4c27.2,7.6,56.4,0.3,76.7-19.4c-11.4-10.2-18.3-14.2-27.4-16
	C112.3,137.9,90.3,141.1,78.5,176.4z"/>
<path style="fill:#FFDC48;" d="M174.6,73c-2.4-6.7-5.8-13.1-9.9-19c-1.8,1.8-3.7,3.5-5.6,5.2c-3.7,3.1-7.7,5.8-12.1,8.1
	c-0.2,0.1-0.3,0.2-0.5,0.3c-3.5,1.8-7.1,3.4-10.9,4.7c-2.4,0.8-4.8,1.5-7.3,2c-0.7,0.2-1.4,0.3-2.1,0.4c-4.4,0.8-8.8,1.1-13.4,0.6
	c-0.4,0-0.9-0.1-1.3-0.2c-3.8-0.5-7.3-1.6-10.9-2.9c-2.9-1-5.8-2.1-8.8-2.9c-4.7-1.2-8.9-1.2-13.3-0.5c-1.5,0.3-3.1,0.6-4.6,1.1
	c-1.9,0.5-3.7,1.2-5.5,1.9C66.1,72.9,64,74,62,75.5c-2.8,2-5.1,4.4-7.2,7c-2.2,2.6-4.1,5.4-5.8,8.3c-0.8,1.4-1.6,2.8-2.4,4.2
	c-6.5,12.1-11.9,27.8-16.2,43.2c2.4,4.3,5.1,8.3,8.2,12.1c1-3.6,2.1-7.2,3.2-10.8c0.7-2.1,1.4-4.2,2.1-6.3c0.7-2.1,1.5-4.1,2.2-6.2
	c0.8-2,1.6-4,2.4-6c0.8-1.9,1.7-3.8,2.6-5.7c0.9-1.8,1.8-3.6,2.8-5.4c0.7-1.3,1.5-2.6,2.2-3.8c0.9-1.5,1.8-2.9,2.8-4.3
	c0.7-1,1.4-1.9,2.1-2.8c0.7-0.9,1.5-1.8,2.3-2.7c0.8-0.9,1.6-1.7,2.5-2.5c0.9-0.8,1.8-1.6,2.7-2.3c0.5-0.4,1-0.7,1.5-1.1
	c0.4-0.3,0.8-0.5,1.1-0.8c0.7-0.5,1.5-0.9,2.3-1.3c0.8-0.4,1.6-0.8,2.4-1.1c0.4-0.2,0.7-0.3,1.1-0.5c0.3-0.1,0.6-0.3,1-0.4
	c1.3-0.5,2.6-0.9,3.9-1.3c1.1-0.3,2.2-0.6,3.3-0.8c1.4-0.3,2.8-0.5,4.2-0.7c0.8-0.1,1.6-0.1,2.4-0.1c0.8,0,1.6,0,2.5,0
	c1.7,0.1,3.4,0.3,5,0.6c1,0.2,2,0.4,3,0.7c1,0.3,2.1,0.6,3.1,0.9c1.1,0.3,2.1,0.7,3.2,1c1.2,0.4,2.4,0.8,3.5,1.1
	c1.2,0.3,2.3,0.7,3.5,1c0.6,0.1,1.2,0.3,1.7,0.4c0.3,0.1,0.6,0.1,1,0.2c0.3,0.1,0.5,0.1,0.8,0.1c0.8,0.1,1.5,0.3,2.3,0.4
	c1.4,0.2,2.8,0.3,4.1,0.4c1.4,0.1,2.7,0.1,4.1,0c0.5,0,1,0,1.6-0.1c0.4,0,0.9,0,1.3-0.1c1.5-0.1,3-0.3,4.5-0.4
	c0.9-0.1,1.7-0.2,2.6-0.4c1.2-0.2,2.3-0.4,3.5-0.6c1.1-0.2,2.2-0.5,3.3-0.8c0.5-0.1,1.1-0.3,1.6-0.4c0.1,0,0.1,0,0.2-0.1
	c0.1,0,0.2-0.1,0.3-0.1c1-0.3,2-0.6,3-0.9c1.3-0.4,2.6-0.9,3.9-1.4c1.2-0.5,2.5-1.1,3.7-1.6c0.7-0.4,1.5-0.7,2.2-1.1
	c0.7-0.4,1.5-0.8,2.2-1.2c1.4-0.8,2.8-1.6,4.1-2.5c0.5-0.4,1.1-0.7,1.6-1.1c0.5-0.4,1-0.7,1.5-1.1c0,0,0,0,0.1-0.1c0,0,0,0,0.1-0.1
	c0.6-0.4,1.1-0.8,1.6-1.3s1.1-0.9,1.6-1.3C174.2,73.3,174.4,73.2,174.6,73z"/>
<path style="fill:#89CE46;" d="M155.2,132.8c3.1,1.2,6.2,2.5,9.3,3.7c1.7,0.6,3.3,1.3,5,1.9c4.9-8.9,8.1-18.6,9.3-28.7
	c-1.7,0.5-3.5,0.9-5.4,1.3c0,0-0.1,0-0.1,0c-3.5,0.7-7.2,1.2-11.3,1.6c-3.2,0.3-6.5,0.4-10,0.3c-0.1,0-0.3,0-0.4,0
	c-2.8,0-5.7-0.2-8.7-0.5c-1.9-0.2-3.8-0.4-5.7-0.6c-0.6-0.1-1.1-0.1-1.7-0.2c-3.4-0.5-7-1.1-10.7-2c-0.3-0.1-0.7-0.2-1-0.3
	c-3-0.8-6.1-1.7-9.2-2.6c-2.5-0.7-5-1.4-7.6-1.9c-4-0.7-7.8-0.7-11.6,0c-1.3,0.2-2.6,0.5-3.9,0.9c-1.6,0.4-3.1,1-4.6,1.6
	c-1.9,0.8-3.6,1.7-5.3,2.8c-2.3,1.5-4.4,3.3-6.3,5.3c-1.9,2-3.7,4.2-5.3,6.5c-0.8,1.1-1.5,2.2-2.2,3.3
	c-6.7,10.8-11.6,24.9-15.2,38.5c3.1,2.3,6.4,4.4,9.8,6.2c0,0,0-0.1,0-0.1c0.6-2.2,1.3-4.3,2-6.5c0.8-2.4,1.6-4.8,2.5-7.1
	c0.9-2.3,1.9-4.6,3-6.9c1-2.2,2.2-4.4,3.4-6.5c0.6-1,1.2-2.1,1.9-3.1c0.4-0.6,0.7-1.1,1.1-1.6c0.9-1.3,1.9-2.7,3-3.9
	c0.9-1.1,1.8-2.1,2.8-3.1c0.5-0.5,1-1,1.5-1.5c0.5-0.5,1-0.9,1.6-1.4c1.1-0.9,2.2-1.8,3.3-2.6c0.5-0.4,1.1-0.7,1.7-1.1
	c0.4-0.3,0.9-0.5,1.3-0.8c0.9-0.5,1.8-0.9,2.8-1.3c0.4-0.2,0.9-0.4,1.3-0.5c0.4-0.1,0.8-0.3,1.1-0.4c0.8-0.3,1.5-0.5,2.3-0.7
	c0.7-0.2,1.4-0.4,2.1-0.5c0.7-0.2,1.3-0.3,2-0.4c1.9-0.3,3.8-0.5,5.7-0.6c2.1,0,4.1,0.1,6.2,0.3c1.3,0.2,2.6,0.4,3.9,0.7
	c0.6,0.1,1.3,0.3,1.9,0.4c0.7,0.2,1.3,0.3,2,0.5c1.5,0.4,3,0.8,4.5,1.3c0.7,0.2,1.5,0.5,2.2,0.7c0.4,0.1,0.8,0.3,1.3,0.4
	c0.2,0.1,0.3,0.1,0.5,0.2c0.1,0,0.2,0.1,0.2,0.1c0.6,0.2,1.2,0.4,1.8,0.6c1.7,0.6,3.3,1.2,5,1.8c0.8,0.3,1.6,0.6,2.4,0.9
	c0.2,0.1,0.4,0.2,0.6,0.2c0.3,0.1,0.5,0.2,0.8,0.3c0.6,0.2,1.2,0.5,1.8,0.7c0.9,0.3,1.8,0.7,2.6,1c0.5,0.2,1,0.4,1.5,0.6
	c0.7,0.3,1.4,0.5,2,0.8C151.9,131.5,153.5,132.1,155.2,132.8z"/>
<path style="fill:#3EB0DD;" d="M162.9,51.6c-3.5-4.6-7.5-8.7-11.9-12.4c-6.9,6.3-13.8,10.5-19.8,13.4c-21.4,10.2-32.6,4.3-41.6,0.8
	c-9-3.4-15.9-4.4-28.1,0c-9.9,3.6-23.2,10.7-39.3,62.3c1.3,6.4,3.4,12.7,6.2,18.6c1-3.4,2-6.7,3.1-10.1c0.9-2.7,1.8-5.4,2.7-8
	c0.9-2.6,1.9-5.2,3-7.8c1-2.5,2-5,3.2-7.4c1.1-2.3,2.2-4.6,3.4-6.9c0.4-0.7,0.8-1.5,1.2-2.2c0.9-1.6,1.8-3.2,2.8-4.8
	c0.8-1.3,1.7-2.5,2.5-3.7c0.8-1.1,1.6-2.2,2.5-3.2c1-1.2,2-2.3,3.1-3.4c1.1-1.1,2.3-2.1,3.5-3.1c0.3-0.2,0.6-0.5,0.9-0.7
	c0.5-0.3,0.9-0.7,1.4-1c0.9-0.6,1.9-1.2,2.9-1.7c0.5-0.3,1-0.5,1.5-0.7c0.3-0.1,0.5-0.2,0.8-0.3c0.2-0.1,0.5-0.2,0.7-0.3
	c0.8-0.3,1.6-0.6,2.5-0.9c0.8-0.3,1.7-0.6,2.5-0.8c0.4-0.1,0.8-0.2,1.1-0.3c0.3-0.1,0.7-0.2,1-0.3c0.7-0.2,1.4-0.3,2.1-0.5
	c0.8-0.2,1.7-0.3,2.5-0.4c1-0.1,2-0.2,3-0.3c1-0.1,2-0.1,3,0c1,0,2.1,0.1,3.1,0.3c1.1,0.1,2.1,0.3,3.2,0.6c0.8,0.2,1.6,0.4,2.4,0.6
	c0.7,0.2,1.3,0.4,2,0.6c1.3,0.4,2.5,0.9,3.8,1.3c0.8,0.3,1.6,0.6,2.4,0.8c0.7,0.3,1.5,0.5,2.2,0.7c1.4,0.5,2.9,0.9,4.4,1.2
	c0.7,0.2,1.5,0.3,2.2,0.4c0.4,0.1,0.9,0.1,1.3,0.2c0.5,0.1,0.9,0.1,1.4,0.2c0.9,0.1,1.8,0.2,2.7,0.2c0.9,0,1.8,0,2.7,0
	c1.8-0.1,3.5-0.2,5.3-0.5c0.9-0.1,1.8-0.3,2.7-0.5c0.3-0.1,0.7-0.1,1-0.2c1-0.2,2-0.5,3-0.8c1-0.3,2-0.6,2.9-0.9
	c0.6-0.2,1.3-0.4,1.9-0.6c0.8-0.3,1.5-0.6,2.3-0.8c1.5-0.6,3-1.2,4.4-1.9c0.7-0.3,1.4-0.7,2.1-1.1c0.2-0.1,0.4-0.2,0.6-0.3
	c0.2-0.1,0.3-0.2,0.5-0.3c1.8-0.9,3.5-2,5.1-3.1c1.6-1.1,3.2-2.2,4.8-3.5c0.8-0.7,1.7-1.4,2.5-2.1c0.9-0.8,1.9-1.7,2.8-2.5
	C161.6,52.9,162.3,52.3,162.9,51.6z"/>
<path style="fill:#365DBF;" d="M179.1,106.5c0.9-10.3-0.3-20.7-3.4-30.5c-1,0.9-2.1,1.7-3.1,2.5c0,0-0.1,0-0.1,0.1
	c-3.6,2.7-7.5,5.1-11.9,7.3c-3.4,1.7-7.1,3.1-11,4.2c-0.2,0-0.3,0.1-0.5,0.1c-3.1,0.9-6.4,1.6-9.8,2.1c-2.1,0.3-4.3,0.6-6.5,0.7
	c-0.6,0-1.3,0.1-1.9,0.1c-3.9,0.2-7.9,0-12-0.7c-0.4-0.1-0.8-0.1-1.2-0.2c-3.4-0.7-6.7-1.7-10-2.8c-2.7-0.9-5.4-1.8-8.2-2.4
	c-4.4-0.9-8.4-1-12.4-0.2c-1.4,0.2-2.8,0.6-4.3,1c-1.7,0.5-3.4,1.1-5,1.7c-2.1,0.8-4,1.9-5.8,3.2c-2.5,1.8-4.7,3.8-6.8,6.2
	c-2.1,2.3-3.9,4.8-5.6,7.4c-0.8,1.2-1.5,2.5-2.3,3.7c-6.9,12-12.3,27.8-16.3,42.9c2.8,3.1,5.9,6,9.1,8.7c0.9-3.4,1.9-6.7,2.9-10
	c0.6-1.8,1.2-3.6,1.8-5.4c1.3-3.6,2.6-7.1,4.2-10.5c0.7-1.7,1.5-3.3,2.3-5c0.8-1.6,1.6-3.2,2.5-4.7c0.4-0.8,0.9-1.5,1.3-2.3
	c0.1-0.2,0.3-0.5,0.4-0.7c0.3-0.4,0.5-0.8,0.8-1.2c0.7-1.1,1.5-2.2,2.3-3.3c1.2-1.7,2.6-3.3,4-4.8c0.7-0.8,1.4-1.5,2.2-2.2
	c0.8-0.7,1.6-1.4,2.4-2.1c0.8-0.7,1.7-1.3,2.6-1.9c0.7-0.4,1.3-0.8,2-1.2c1.3-0.7,2.7-1.4,4.1-2c1.1-0.5,2.3-0.9,3.4-1.2
	c0.6-0.2,1.1-0.3,1.7-0.5c0.5-0.1,1-0.3,1.5-0.4c0.5-0.1,1-0.2,1.5-0.3c0.6-0.1,1.2-0.2,1.8-0.3c1.4-0.2,2.9-0.3,4.4-0.4
	c1.5,0,3,0,4.5,0.2c0.8,0.1,1.5,0.2,2.3,0.3c0.9,0.1,1.8,0.3,2.7,0.5c0.9,0.2,1.9,0.4,2.8,0.7c0.9,0.2,1.8,0.5,2.7,0.8
	c1.2,0.4,2.5,0.7,3.7,1.1c1.1,0.3,2.1,0.6,3.2,0.9c0.5,0.1,1.1,0.3,1.6,0.4c0.3,0.1,0.6,0.1,0.9,0.2c0.1,0,0.2,0.1,0.4,0.1
	c0.7,0.2,1.4,0.3,2.1,0.5c1.2,0.3,2.5,0.5,3.7,0.8c1.2,0.2,2.4,0.4,3.6,0.6c0.5,0.1,1.1,0.2,1.6,0.2c0.1,0,0.2,0,0.3,0
	c0.2,0,0.4,0.1,0.6,0.1c0.2,0,0.4,0.1,0.6,0.1c0.5,0.1,1.1,0.1,1.6,0.2c1.3,0.2,2.6,0.3,3.9,0.4c2,0.2,4,0.3,5.9,0.4
	c0.9,0,1.8,0.1,2.7,0.1c0.1,0,0.2,0,0.3,0c0.8,0,1.6,0,2.4,0c1.2,0,2.3,0,3.5-0.1c1.1,0,2.2-0.1,3.3-0.2c0.3,0,0.6,0,0.9-0.1
	c0.3,0,0.7-0.1,1-0.1c0.7-0.1,1.4-0.1,2-0.2c2.5-0.3,5.1-0.7,7.5-1.2c0.3-0.1,0.6-0.1,0.9-0.2c1-0.2,2.1-0.5,3.1-0.7
	C177.4,107,178.2,106.8,179.1,106.5z"/>
<path style="fill:#8774E2;" d="M157.3,154.9c4-4.2,7.6-8.9,10.6-13.9c-1.5-0.6-3-1.2-4.5-1.8c-2.9-1.1-5.9-2.3-9-3.6
	c-0.1,0-0.2-0.1-0.4-0.1c-2.5-1-5-2-7.6-3c-1.6-0.6-3.3-1.3-5-1.9c-0.5-0.2-1-0.4-1.4-0.5c-3-1.1-6-2.2-9.3-3.3
	c-0.3-0.1-0.6-0.2-0.9-0.3c-2.7-0.9-5.5-1.7-8.3-2.5c-2.3-0.6-4.6-1.1-7-1.4c-3.7-0.5-7.3-0.4-10.7,0.2c-1.2,0.2-2.4,0.5-3.6,0.8
	c-1.4,0.4-2.8,0.8-4.1,1.4c-1.7,0.7-3.2,1.5-4.8,2.4c-2.1,1.3-4,2.8-5.8,4.5c-1.8,1.7-3.5,3.6-5.1,5.6c-0.7,0.9-1.4,1.9-2.1,2.9
	c-6,8.8-10.2,19.9-13.3,31c3.4,1.7,6.9,3.1,10.5,4.2c0.2-0.5,0.3-0.9,0.5-1.4c0.8-2.2,1.6-4.4,2.5-6.5c0.8-2,1.8-3.9,2.8-5.8
	c0.9-1.7,1.9-3.4,3-5.1c1-1.5,2.1-3,3.2-4.4c1.1-1.3,2.2-2.6,3.4-3.8c1.1-1.1,2.3-2.2,3.5-3.2c1.2-0.9,2.4-1.8,3.7-2.6
	c1.2-0.8,2.5-1.4,3.7-2.1c1.2-0.6,2.5-1.1,3.8-1.6c1.2-0.4,2.5-0.8,3.8-1.1c1.2-0.3,2.5-0.5,3.8-0.7c2.4-0.3,4.9-0.4,7.3-0.3
	c2.3,0.1,4.5,0.4,6.8,0.8c1.1,0.2,2.1,0.4,3.2,0.7c1,0.3,2,0.5,3.1,0.9c1,0.3,2,0.7,3,1.1c1,0.4,2,0.9,3,1.4c1,0.5,2,1.1,3,1.6
	c1,0.6,2,1.3,3,1.9c1.1,0.7,2.1,1.5,3.2,2.3c1.1,0.9,2.2,1.7,3.3,2.6c1.2,1,2.4,2,3.6,3C156.2,153.9,156.8,154.4,157.3,154.9z"/>
<path style="fill:#F25F89;" d="M107.1,21V0H94.5v20.8C82.8,21.6,71.4,25,61,30.8C47.4,38.5,36.4,50,29.3,64
	c-7.1,13.9-9.9,29.6-8.1,45.2c0.5-1.6,1.1-3.3,1.7-4.9c0.7-1.9,1.3-3.8,2-5.7c0.6-1.8,1.3-3.5,2-5.3c0.6-1.6,1.3-3.2,2-4.9
	c1.2-2.9,2.5-5.7,3.9-8.5c0.6-1.2,1.2-2.5,1.9-3.7c0.6-1.1,1.2-2.3,1.9-3.4c0.7-1.1,1.3-2.3,2.1-3.4c1.1-1.8,2.3-3.5,3.6-5.1
	c1.1-1.4,2.3-2.8,3.5-4.1c1.1-1.1,2.2-2.2,3.4-3.2c1.1-0.9,2.2-1.7,3.3-2.4c1-0.7,2.1-1.3,3.2-1.8c1-0.5,2-0.9,3-1.3
	c0.5-0.2,0.9-0.4,1.4-0.5c0.7-0.3,1.4-0.5,2.1-0.8c1.6-0.5,3.2-1,4.9-1.4c1.5-0.4,3-0.6,4.5-0.8c1.4-0.2,2.8-0.3,4.2-0.3
	c0.7,0,1.4,0,2,0.1c0.7,0,1.3,0.1,2,0.2c1.3,0.2,2.6,0.4,3.9,0.7c1.3,0.3,2.6,0.7,3.8,1.1c0.6,0.2,1.3,0.4,1.9,0.7
	c0.7,0.2,1.3,0.5,2,0.7c1.4,0.5,2.8,1.1,4.2,1.6c0.7,0.3,1.4,0.5,2.1,0.7c0.7,0.2,1.4,0.5,2.1,0.7c0.7,0.2,1.5,0.4,2.2,0.6
	c0.8,0.2,1.6,0.3,2.4,0.4c0.8,0.1,1.7,0.2,2.5,0.3c0.9,0.1,1.8,0.1,2.7,0.1c1,0,1.9-0.1,2.9-0.2c1.1-0.1,2.1-0.3,3.1-0.4
	c1.1-0.2,2.3-0.5,3.4-0.8c1.2-0.3,2.4-0.7,3.6-1.1c1.3-0.5,2.6-1,3.9-1.5c0.7-0.3,1.4-0.6,2.1-0.9c0.7-0.3,1.5-0.7,2.2-1
	c1.5-0.8,3.1-1.6,4.5-2.4c1.6-0.9,3.2-1.9,4.7-3c1.7-1.1,3.3-2.4,4.9-3.6c1.2-1,2.4-2,3.5-3C136.7,28,122.2,22.3,107.1,21z"/>
</svg>
