<?xml version="1.0" encoding="utf-8"?>
<!-- Generator: Adobe Illustrator 26.1.0, SVG Export Plug-In . SVG Version: 6.00 Build 0)  -->
<svg version="1.1" id="Layer_1" xmlns="http://www.w3.org/2000/svg" xmlns:xlink="http://www.w3.org/1999/xlink" x="0px" y="0px"
	 viewBox="0 0 200 200" style="enable-background:new 0 0 200 200;" xml:space="preserve">
<path style="fill:#F77737;" d="M133.1,95.5c-2.9-3.8-6-7.4-9.4-10.8c-3.7,5-7.9,9.7-12.5,13.9C118.6,98.5,126,97.4,133.1,95.5z"/>
<path style="fill:#E5974A;" d="M124.2,175.6c5.6-1.8,11-4.2,16.1-7.2c-1.2-11.7-8.3-22-18.9-27.3s-23-4.8-33.1,1.2
	C96.5,156.9,109.1,168.5,124.2,175.6z"/>
<path style="fill:#2C84CE;" d="M23.1,119.8c17.5,4.7,36,4.3,53.3-1.1c1.5,7.9,4.2,15.5,8,22.7c-10.2,7.2-16.2,19-15.9,31.5
	C46,163.1,29.3,143.5,23.1,119.8z"/>
<path style="fill:#8F4F9E;" d="M139.2,31c-2.7-1.5-5.4-2.9-8.3-4.1C114,33.1,99.6,44.7,90,60c12.3,4.4,23.7,11.3,33.3,20.2
	C133.2,65.7,138.7,48.6,139.2,31z"/>
<path style="fill:#EF5C3F;" d="M78.4,93.2c9.1,3.3,18.7,5.1,28.3,5.4c5.6-4.7,10.6-10,14.8-15.9c-9.5-8.9-20.8-15.7-33.1-20
	C83.1,72,79.7,82.4,78.4,93.2z"/>
<path style="fill:#72CC52;" d="M71.5,174.1c15.5,5.9,32.4,6.9,48.5,2.7c-14.3-7.4-26.2-18.8-34.2-32.8
	C76.2,150.9,70.8,162.3,71.5,174.1z"/>
<path style="fill:#FFA64D;" d="M103.2,101.4c-8.6-0.6-17-2.3-25.1-5.2c-0.5,6.2-0.3,12.4,0.7,18.5
	C87.5,111.5,95.8,107.1,103.2,101.4z"/>
<path style="fill:#EF6FCE;" d="M135,98.1c-8.8,2.5-18,3.6-27.2,3.5c-8.5,7-18.2,12.4-28.5,16.1c1.5,7.7,4,15.1,7.6,22
	c10.8-6.4,24-7,35.3-1.5c11.3,5.4,19.1,16.1,20.9,28.5c3-1.9,5.8-4,8.4-6.3C153.4,138.3,147.6,116.3,135,98.1z"/>
<path style="fill:#55B755;" d="M34.8,59.9C45,74.3,59.1,85.5,75.5,92.1c1.4-10.7,4.8-21,10.1-30.4C69.1,56.5,51.6,55.8,34.8,59.9z"
	/>
<path style="fill:#F9EE6B;" d="M31.7,60.7c-0.2,0.1-0.5,0.1-0.7,0.2c-9.6,16.9-12.6,36.6-8.6,55.6c17.5,5.1,36.2,4.8,53.5-0.8
	c-1.1-6.8-1.3-13.7-0.7-20.5C57.6,88.3,42.4,76.3,31.7,60.7z"/>
<path style="fill:#DD6688;" d="M174.2,71.8c-10.6,10.6-23.7,18.5-38,22.8c-3.2-4.4-6.7-8.5-10.7-12.4c10.1-14.6,15.8-31.8,16.6-49.6
	C156.8,41.9,168,55.6,174.2,71.8z"/>
<path style="fill:#FFA64D;" d="M175.3,74.9c4.8,14.3,5.4,29.7,1.7,44.3c-3.6,14.6-11.4,27.9-22.3,38.3c1.2-21.4-4.7-42.6-16.7-60.3
	C152,92.8,164.8,85.1,175.3,74.9z"/>
<path style="fill:#E75FFF;" d="M107.1,21V0H94.5v20.9c-6.8,0.5-13.6,1.8-20.1,4c-17,5.8-31.5,17.2-41.2,32.3
	C51,52.7,69.7,53.4,87.1,59c9.3-15.2,23.2-27,39.7-33.7C120.4,23,113.8,21.6,107.1,21z"/>
</svg>
