<svg id="Layer_1" style="enable-background:new 0 0 531.421 500;" version="1.1" viewBox="0 0 531.421 500" x="0px" xml:space="preserve" xmlns="http://www.w3.org/2000/svg" xmlns:xlink="http://www.w3.org/1999/xlink" y="0px"><polygon points="234.579,400.475 236.999,406.748 234.486,412.984 241.128,414.024 245.272,419.318    249.494,414.086 256.152,413.145 253.731,406.872 256.245,400.636 249.602,399.596 245.458,394.301 241.236,399.534  " style="fill:none;stroke:red;stroke-width:0.0001px"/><polygon points="316.433,96.602 317.991,92.375 322.015,90.35 319.134,86.887 319.392,82.39 314.953,83.154    311.187,80.682 309.629,84.908 305.605,86.933 308.486,90.396 308.228,94.893 312.668,94.129  " style="fill:none;stroke:red;stroke-width:0.0001px"/><polygon points="452.411,261.887 449.336,258.595 449.336,254.09 444.947,255.108 441.046,252.856    439.733,257.165 435.832,259.417 438.907,262.709 438.908,267.214 443.296,266.196 447.197,268.448 448.51,264.139  " style="fill:none;stroke:red;stroke-width:0.0001px"/><polygon points="221.18,296.186 218.104,292.894 218.104,288.39 213.716,289.407 209.814,287.155    208.501,291.464 204.6,293.717 207.676,297.008 207.676,301.513 212.064,300.496 215.965,302.748 217.278,298.439  " style="fill:none;stroke:red;stroke-width:0.0001px"/><polygon points="113.112,200.967 110.765,197.122 111.674,192.71 107.17,192.821 103.804,189.827    101.648,193.783 97.373,195.201 99.72,199.046 98.811,203.458 103.315,203.347 106.681,206.341 108.837,202.385  " style="fill:none;stroke:red;stroke-width:0.0001px"/><polygon points="185.982,113.351 184.607,106.77 188.095,101.022 181.708,98.922 178.474,93.027    173.462,97.508 166.74,97.361 168.115,103.943 164.627,109.691 171.014,111.791 174.248,117.686 179.26,113.204  " style="fill:none;stroke:red;stroke-width:0.0001px"/><circle cx="392.715" cy="330.848" r="6.029" style="fill:none;stroke:red;stroke-width:0.0001px"/><circle cx="85.039" cy="264.129" r="6.029" style="fill:none;stroke:red;stroke-width:0.0001px"/><polygon points="342.649,380.201 339.574,376.909 339.574,372.404 335.185,373.422 331.284,371.17    329.971,375.479 326.07,377.731 329.146,381.023 329.146,385.528 333.534,384.51 337.435,386.762 338.748,382.453  " style="fill:none;stroke:red;stroke-width:0.0001px"/><polygon points="166.882,359.646 163.806,356.355 163.806,351.85 159.418,352.867 155.517,350.615    154.204,354.924 150.303,357.177 153.378,360.469 153.378,364.973 157.766,363.956 161.668,366.208 162.981,361.899  " style="fill:none;stroke:red;stroke-width:0.0001px"/><polygon points="380.022,133.441 375.432,128.528 375.432,121.805 368.882,123.324 363.059,119.962    361.1,126.394 355.277,129.756 359.867,134.669 359.867,141.392 366.417,139.873 372.24,143.235 374.2,136.803  " style="fill:none;stroke:red;stroke-width:0.0001px"/><polygon points="384.263,272.674 379.672,267.761 379.672,261.038 373.122,262.557 367.3,259.195    365.34,265.627 359.517,268.989 364.108,273.902 364.108,280.625 370.658,279.106 376.48,282.468 378.44,276.036  " style="fill:none;stroke:red;stroke-width:0.0001px"/></svg>