<svg height="18in" id="Layer_1" version="1.1" width="32in" x="0px" xml:space="preserve" xmlns="http://www.w3.org/2000/svg" xmlns:xlink="http://www.w3.org/1999/xlink" y="0px"><g transform="translate(94.59653282640573 217.90353282640575) rotate(-45 420.945 297.638)"><path d="M540.669,282.113c-2.122,0.564-5.096,2.034-7.557,3.656c-2.461,1.623-4.411,3.399-5.919,5.256  c-1.509,1.857-2.576,3.796-2.862,4.799c-0.286,1.003,0.211,1.071,2.107,0.951c1.896-0.12,5.191-0.429,9.217-0.819  c4.026-0.39,8.782-0.861,11.726-1.271c2.944-0.41,4.078-0.757,4.646-1.65c0.568-0.893,0.571-2.331,0.426-3.342  c-0.145-1.011-0.437-1.596-1.648-2.767c-1.211-1.172-3.341-2.931-5.042-3.982C544.063,281.892,542.792,281.549,540.669,282.113z" style="fill:none;stroke:red;stroke-width:0.0001px"/><path d="M540.669,282.113c-2.122,0.564-5.096,2.034-7.557,3.656c-2.461,1.623-4.411,3.399-5.919,5.256  c-1.509,1.857-2.576,3.796-2.862,4.799c-0.286,1.003,0.211,1.071,2.107,0.951c1.896-0.12,5.191-0.429,9.217-0.819  c4.026-0.39,8.782-0.861,11.726-1.271c2.944-0.41,4.078-0.757,4.646-1.65c0.568-0.893,0.571-2.331,0.426-3.342  c-0.145-1.011-0.437-1.596-1.648-2.767c-1.211-1.172-3.341-2.931-5.042-3.982C544.063,281.892,542.792,281.549,540.669,282.113z" style="fill:none;stroke:red;stroke-width:0.0001px"/><path d="M540.669,282.113c-2.122,0.564-5.096,2.034-7.557,3.656c-2.461,1.623-4.411,3.399-5.919,5.256  c-1.509,1.857-2.576,3.796-2.862,4.799c-0.286,1.003,0.211,1.071,2.107,0.951c1.896-0.12,5.191-0.429,9.217-0.819  c4.026-0.39,8.782-0.861,11.726-1.271c2.944-0.41,4.078-0.757,4.646-1.65c0.568-0.893,0.571-2.331,0.426-3.342  c-0.145-1.011-0.437-1.596-1.648-2.767c-1.211-1.172-3.341-2.931-5.042-3.982C544.063,281.892,542.792,281.549,540.669,282.113z" style="fill:none;stroke:red;stroke-width:0.0001px"/><path d="M605.661,360.843c-3.576,3.162-10.284,8.74-13.892,11.683c-3.608,2.943-4.115,3.252-5.099,3.34  c-0.985,0.088-2.447-0.044-3.619,0.57c-1.172,0.614-2.054,1.973-3.251,3.876c-1.198,1.903-2.711,4.35-2.389,6.785  c0.322,2.434,2.479,4.855,4.601,6.205c2.122,1.35,4.209,1.629,4.512,1.363c0.303-0.266-1.178-1.078-1.771-2.568  c-0.594-1.49-0.3-3.658,0.774-5.871c1.074-2.214,2.929-4.473,5.507-7.007c2.577-2.534,5.876-5.341,10.253-8.867  c4.377-3.526,9.833-7.77,12.906-10.23c3.073-2.46,3.764-3.136,2.689-3.494c-1.075-0.358-3.915-0.398-5.557-0.045  C609.682,356.935,609.237,357.681,605.661,360.843z" style="fill:none;stroke:red;stroke-width:0.0001px"/><path d="M605.661,360.843c-3.576,3.162-10.284,8.74-13.892,11.683c-3.608,2.943-4.115,3.252-5.099,3.34  c-0.985,0.088-2.447-0.044-3.619,0.57c-1.172,0.614-2.054,1.973-3.251,3.876c-1.198,1.903-2.711,4.35-2.389,6.785  c0.322,2.434,2.479,4.855,4.601,6.205c2.122,1.35,4.209,1.629,4.512,1.363c0.303-0.266-1.178-1.078-1.771-2.568  c-0.594-1.49-0.3-3.658,0.774-5.871c1.074-2.214,2.929-4.473,5.507-7.007c2.577-2.534,5.876-5.341,10.253-8.867  c4.377-3.526,9.833-7.77,12.906-10.23c3.073-2.46,3.764-3.136,2.689-3.494c-1.075-0.358-3.915-0.398-5.557-0.045  C609.682,356.935,609.237,357.681,605.661,360.843z" style="fill:none;stroke:red;stroke-width:0.0001px"/><path d="M605.661,360.843c-3.576,3.162-10.284,8.74-13.892,11.683c-3.608,2.943-4.115,3.252-5.099,3.34  c-0.985,0.088-2.447-0.044-3.619,0.57c-1.172,0.614-2.054,1.973-3.251,3.876c-1.198,1.903-2.711,4.35-2.389,6.785  c0.322,2.434,2.479,4.855,4.601,6.205c2.122,1.35,4.209,1.629,4.512,1.363c0.303-0.266-1.178-1.078-1.771-2.568  c-0.594-1.49-0.3-3.658,0.774-5.871c1.074-2.214,2.929-4.473,5.507-7.007c2.577-2.534,5.876-5.341,10.253-8.867  c4.377-3.526,9.833-7.77,12.906-10.23c3.073-2.46,3.764-3.136,2.689-3.494c-1.075-0.358-3.915-0.398-5.557-0.045  C609.682,356.935,609.237,357.681,605.661,360.843z" style="fill:none;stroke:red;stroke-width:0.0001px"/><path d="M644.836,349.315c-0.351,0.6-0.8,1.345-1.383,2.358c-1.146,1.988-2.814,5.008-3.963,7.246  c-1.15,2.238-1.781,3.693-3.148,5.607c-1.366,1.914-3.468,4.288-4.796,6.105c-1.328,1.817-1.883,3.077-2.072,4.6  c-0.189,1.523-0.012,3.309,0.227,4.521c0.239,1.213,0.54,1.852,0.175,1.314c-0.366-0.538-1.398-2.254-1.917-4.043  c-0.518-1.789-0.522-3.652-0.361-5.368c0.161-1.716,0.488-3.285,0.762-4.4c0.274-1.115,0.494-1.776,0.015-2.102  s-1.659-0.314-2.948,0.12c-1.289,0.434-2.689,1.29-3.255,2.565c-0.565,1.275-0.297,2.969-0.554,3.281  c-0.257,0.312-1.04-0.757-0.959-2.304c0.081-1.547,1.025-3.571,1.743-4.881c0.718-1.31,1.21-1.905,2.028-2.245  c0.817-0.34,1.96-0.425,3.305-0.564c1.345-0.14,2.891-0.335,3.891-0.596c0.999-0.261,1.451-0.588,3.062-3.088  c1.611-2.5,4.38-7.174,5.835-9.665c0.074-0.127,0.145-0.248,0.212-0.363C642.097,348.053,643.466,348.687,644.836,349.315z" style="fill:none;stroke:red;stroke-width:0.0001px"/><path d="M644.836,349.315c-0.351,0.6-0.8,1.345-1.383,2.358c-1.146,1.988-2.814,5.008-3.963,7.246  c-1.15,2.238-1.781,3.693-3.148,5.607c-1.366,1.914-3.468,4.288-4.796,6.105c-1.328,1.817-1.883,3.077-2.072,4.6  c-0.189,1.523-0.012,3.309,0.227,4.521c0.239,1.213,0.54,1.852,0.175,1.314c-0.366-0.538-1.398-2.254-1.917-4.043  c-0.518-1.789-0.522-3.652-0.361-5.368c0.161-1.716,0.488-3.285,0.762-4.4c0.274-1.115,0.494-1.776,0.015-2.102  s-1.659-0.314-2.948,0.12c-1.289,0.434-2.689,1.29-3.255,2.565c-0.565,1.275-0.297,2.969-0.554,3.281  c-0.257,0.312-1.04-0.757-0.959-2.304c0.081-1.547,1.025-3.571,1.743-4.881c0.718-1.31,1.21-1.905,2.028-2.245  c0.817-0.34,1.96-0.425,3.305-0.564c1.345-0.14,2.891-0.335,3.891-0.596c0.999-0.261,1.451-0.588,3.062-3.088  c1.611-2.5,4.38-7.174,5.835-9.665c0.074-0.127,0.145-0.248,0.212-0.363C642.097,348.053,643.466,348.687,644.836,349.315z" style="fill:none;stroke:red;stroke-width:0.0001px"/><path d="M644.836,349.315c-0.351,0.6-0.8,1.345-1.383,2.358c-1.146,1.988-2.814,5.008-3.963,7.246  c-1.15,2.238-1.781,3.693-3.148,5.607c-1.366,1.914-3.468,4.288-4.796,6.105c-1.328,1.817-1.883,3.077-2.072,4.6  c-0.189,1.523-0.012,3.309,0.227,4.521c0.239,1.213,0.54,1.852,0.175,1.314c-0.366-0.538-1.398-2.254-1.917-4.043  c-0.518-1.789-0.522-3.652-0.361-5.368c0.161-1.716,0.488-3.285,0.762-4.4c0.274-1.115,0.494-1.776,0.015-2.102  s-1.659-0.314-2.948,0.12c-1.289,0.434-2.689,1.29-3.255,2.565c-0.565,1.275-0.297,2.969-0.554,3.281  c-0.257,0.312-1.04-0.757-0.959-2.304c0.081-1.547,1.025-3.571,1.743-4.881c0.718-1.31,1.21-1.905,2.028-2.245  c0.817-0.34,1.96-0.425,3.305-0.564c1.345-0.14,2.891-0.335,3.891-0.596c0.999-0.261,1.451-0.588,3.062-3.088  c1.611-2.5,4.38-7.174,5.835-9.665c0.074-0.127,0.145-0.248,0.212-0.363C642.097,348.053,643.466,348.687,644.836,349.315z" style="fill:none;stroke:red;stroke-width:0.0001px"/></g></svg>