<svg height="18in" id="Layer_1" version="1.1" width="32in" x="0px" xml:space="preserve" xmlns="http://www.w3.org/2000/svg" xmlns:xlink="http://www.w3.org/1999/xlink" y="0px">
<path d="M201,1C91.1,1,2,90.1,2,200c0,109.9,89.1,199,199,199c109.9,0,199-89.1,199-199  C400,90.1,310.9,1,201,1z M274.6,138.2c0.4,0.1,0.8,0.6,0.9,1c1.2,6.1,2.4,12.2,3.6,18.4c0.1,0.5,0.1,1-0.1,1.5  c-2.7,6-5.4,12-8.1,18.1c-4.6-0.4-9.2-0.7-13.7-1.1c-0.1,0-0.2,0-0.3,0c-4.6-0.5-4.6-0.5-6.8-4.9c3.2-1.4,6.3-2.8,9.6-4  c1.9-0.7,2.6-1.8,3-3.7c1.5-9,3.2-17.9,4.9-27.1C270,137,272.3,137.6,274.6,138.2z M277.6,181.2c0.3-0.6,0.7-1.1,1.1-1.6  c0.2,0.1,0.4,0.1,0.6,0.2c-0.4,8-0.9,15.9-1.4,23.9c-7.5,1.5-11.6,6.6-14.5,13.1c-1.2-0.5-1.3-1.2-1-2.2c1.2-3.9,2.3-7.9,3.5-11.9  c0.3-1,0.8-2.1,1.4-3C270.7,193.5,274.2,187.4,277.6,181.2z M169.1,102.2c6.8-3.4,13.5-6.8,20.2-10.2c0.6-0.3,1.5-0.3,2,0  c23.6,11.9,47.3,23.9,70.9,35.8c0.7,0.4,1.1,0.7,0.9,1.6c-2,10.7-3.9,21.3-5.9,32c-0.1,0.4-0.6,1-1,1.1c-7.6,3.3-15.2,6.5-22.8,9.7  c-0.4,0.2-0.9,0.3-1.3,0.1c-3.8-1.5-7.5-3.1-11.6-4.8c5.8-3.5,11.4-6.9,17-10.4c-2.6-3.1-5.1-6.1-7.6-9.1  c-5.7-6.8-11.5-13.7-17.2-20.5c-0.8-1-1.6-1.3-2.9-1.2c-8.2,0.6-16.4,1.1-24.6,1.6c-1,0.1-1.6,0.4-2.1,1.3c-2.2,4.1-4.5,8.2-7,12.7  c-1.2-4.2-2.1-8-3.4-11.8c-2.8-8.5-3.5-17.4-4.8-26.1C168,103.1,168.2,102.6,169.1,102.2z M157.2,183.3c4.5-6.4,8.9-12.7,13.4-19.1  c6.6,5.9,13.1,11.7,19.7,17.5c-5.7,5.3-11.4,10.4-17.1,15.7C167.8,192.8,162.5,188.1,157.2,183.3z M171.4,202.5  c-1.7,1.6-3.3,3-4.7,4.6c-3.8,4.2-8.2,7.4-13.6,9.2c-1,0.3-1.7,0.3-2.5-0.3c-2.4-1.7-4.9-3.4-7.3-5.1c-0.8-0.5-1-1-0.8-1.9  c0.5-2.5,1-4.9,1.5-7.4c0.4-1.9,1.2-3.4,2.5-4.9c2.5-2.8,4.8-5.7,7.4-8.8c4,3.5,7.9,6.8,11.7,10.2c1,0.9,2,1.9,3.1,2.7  C169.4,201.5,170.3,201.9,171.4,202.5z M158.7,156c0.2-2.4,0.4-4.8,0.6-7.2c0-0.5,0.2-1,0.5-1.3c3.3-2.5,6.6-5,10.1-7.6  c0.8,3,1.6,5.7,2.3,8.4c0.1,0.5-0.1,1.1-0.4,1.5c-2.2,4-4.5,8-6.6,12c-0.7,1.2-1.4,1.6-2.7,0.9c-1.3-0.8-3.4-1-4-2.1  C157.9,159.4,158.6,157.5,158.7,156z M175.5,161.2c-0.7-0.6-1.7-1-2.7-1.5c4.1-7.4,8.5-14.9,12.5-22.7c1.6-3,3.4-4.1,6.7-4.1  c5.3,0,10.7-0.6,16-1c0.9-0.1,1.5,0.1,2.1,0.8c6.4,7.6,12.7,15.2,19.2,23c-0.4,0.3-0.7,0.5-1.1,0.8c-11.1,6.7-22.1,13.5-33.2,20.3  c-1,0.6-1.5,0.5-2.3-0.2C187,171.4,181.3,166.3,175.5,161.2z M163.2,108.4c0.7,5.2,1.5,10.3,2.2,15.5c0.5,3.3,0.9,6.6,1.4,9.9  c0.2,1,0,1.6-0.9,2.2c-1.9,1.3-3.7,2.8-5.9,4.4c1-10.9,1.9-21.4,2.8-31.9C163,108.4,163.1,108.4,163.2,108.4z M149.1,32.7  c0.3-2.4,1.9-3.7,4.3-3.5c1.8,0.1,3.5,0.3,5.3,0.5c1.7,0.2,3.1,1.5,3.1,3.2c0,2.4-0.3,4.8-0.5,7.3c-4.3-0.4-8.5-0.8-12.7-1.1  C148.8,36.7,148.9,34.7,149.1,32.7z M134.7,154.8c1-10.8,1.9-21.6,2.8-32.4c1.1-12,2.1-23.9,3.2-35.9c1-10.8,1.9-21.7,2.9-32.6  c0.2-2,0.4-4,0.6-6c0.2-2.1,1.7-3.5,3.8-3.3c3.8,0.2,7.6,0.6,11.4,1c2,0.2,3.3,2,3.1,4c-0.6,6.7-1.2,13.5-1.8,20.2  c-0.9,9.7-1.7,19.4-2.6,29.1c-1,11-2,22-2.9,33c-0.8,9.6-1.7,19.2-2.5,28.8c-0.7,7.4-1.3,14.8-2,22.2c-0.1,0.8,0,1.6-1.1,1.8  c-0.3,0-0.5,0.5-0.7,0.7c-2.2,2.6-4.3,5.3-6.5,7.7c-1.9,2.1-3.2,4.5-3.7,7.3c-0.3,1.6-0.6,3.3-1.1,4.9c-0.9,2.9-0.7,5.6,1,8.1  c0.6,0.9,1.2,1.7,2,2.3c2,1.5,4.1,2.8,6.1,4.3c0.4,0.3,0.8,0.8,0.7,1.1c-0.3,4.6-0.8,9.2-1.2,14c-6.2-0.6-12.2-1.1-18.3-1.6  c0.2-2,0.3-3.9,0.4-5.8c1.2-13.5,2.4-26.9,3.6-40.4C132.8,176.5,133.8,165.6,134.7,154.8z M129.4,257.9c-0.3,0-0.8-0.5-0.9-0.8  c-0.3-6-0.6-11.9-0.9-18.2c6.1,0.5,11.9,1.1,18,1.6c-1.4,6.2-2.7,12.3-4,18.4C137.4,258.7,133.4,258.3,129.4,257.9z M138,264.3  c-0.1,2.1,0.1,4.2-2.1,5.4c-1.4,0.8-2.7,0.6-3.9-0.3c-1.9-1.5-1.5-3.5-1.1-5.7C133.4,263.9,135.7,264.1,138,264.3z M130.6,134.1  c0.1,0,0.2,0,0.4,0.1c-0.3,3.9-0.7,7.8-1,12c-2.5-1.1-4.9-2.2-7.4-3.3C125.3,139.9,128,137,130.6,134.1z M119.7,147.4  c0.6,0.4,1.1,0.7,1.7,1c2.3,1.1,4.7,2.1,7,3.2c0.4,0.2,0.9,0.8,0.9,1.1c-0.6,7-1.2,13.9-1.8,21.1c-5.6-0.5-11.1-1.1-16.8-1.6  C113.7,163.8,116.7,155.6,119.7,147.4z M109.2,177.5c6,0.6,11.9,1.2,17.8,1.8c-0.9,10.5-1.8,20.8-2.8,31.3c-2.6-0.2-5.1-0.3-7.5-0.6  c-0.5-0.1-0.9-0.7-1.2-1.2c-3-4.6-4.6-9.6-4.8-15.2c-0.2-5.1-1-10.1-1.5-15.2C109.1,178.2,109.2,178,109.2,177.5z M108.7,317.4  c7.2-14.2,14.3-28.3,21.5-42.4c5.7,1.4,8.4,0.6,11.8-3.5c10.9,4.2,21.9,8.4,33,12.7c-8.6,20-17.2,39.9-25.9,60  C135.6,335.2,122.2,326.4,108.7,317.4z M160.3,332.5c2.5-5.8,5-11.5,7.4-17.2c3.9-8.9,7.7-17.8,11.6-26.8c0.4-0.9,0.9-1.4,1.9-1.8  c2.7-0.9,5.3-1.9,7.9-2.9c0.6-0.2,1.3-0.7,1.7-1.2c6.6-7.9,13.2-15.8,19.8-23.7c3.6-4.4,7.1-8.8,10.6-13.2c0.9-1.1,1.9-2.1,2.8-3.2  c4.2-5.6,10.3-8.2,16.5-10.7c0.8-0.3,1.5-0.9,2.1-1.4c3.8-2.9,7.7-5.9,11.5-8.8c0.5-0.4,1.1-0.6,1.8-0.9c2.3-1,4.3-0.4,5.2,2  c0.7,1.9,1.2,4.1,1.3,6.2c0.3,6.1-1.1,12-3,17.8c-1,2.8-3.1,4.8-5.2,6.7c-3.5,3.2-7,6.2-10.5,9.3c-0.4,0.4-0.9,0.9-1.1,1.4  c-2.5,5.5-4.5,11.2-5.4,17.3c-0.2,1.2-0.5,2.4,0.9,3.2c0.2,0.1,0.1,0.9-0.1,1.4c-4.1,13.9-8.2,27.8-12.3,41.7  c-0.7,2.2-1.3,4.5-2,6.6c-0.2,0.5-0.8,1.1-1.3,1.1C201.5,336.9,180.9,336.2,160.3,332.5z M228,376.2c-0.8,2.6-2.6,3.6-5.2,2.9  c-1.2-0.3-2.3-0.7-3.5-1c-2.7-0.8-3.6-2.5-2.9-5.2c5.8-20.2,11.6-40.3,17.4-60.5c3.1-10.7,6.2-21.4,9.3-32.1  c1.2-4.3,2.5-8.5,3.9-12.7c0.2-0.7,0.8-1.3,1.4-1.9c3.9-3.6,7.9-7.2,11.8-10.8c2.2-2,3.5-4.6,4.4-7.5c0.1,0,0.3,0,0.4,0.1  c-0.1,0.5-0.1,1.1-0.2,1.6c-2,7.1-4.1,14.1-6.1,21.2c-8.3,28.7-16.7,57.3-25,86C231.9,363,230,369.6,228,376.2z M295.1,272.1  c-2.4,9-5.1,17.8-7.5,26.8c-1.3,4.7-2.2,9.5-3.6,14.2c-0.9,3.2-2.1,6.3-3.3,9.4c-0.8,2.1-2.4,3.4-4.5,4.1  c-7.6,2.5-15.5,4.1-23.4,5.5c-2.5,0.4-5.1,0.8-7.8,1.3c3.2-10.9,6.2-21.4,9.3-32c1.5-5.1,3-10.2,4.4-15.2c0.3-1.1,0.8-1.8,1.9-2  c1.1-0.2,1.7-0.9,2.1-1.9c3.1-6.5,6.2-12.9,9.4-19.3c0.6-1.2,0.7-2.3,0.5-3.6c-1.1-7.5-2.4-15-3.3-22.6c-0.5-4.8-0.5-9.8-0.6-14.6  c-0.2-5.8,3.1-9.4,7.8-11.9c3.5-1.8,6.6-0.5,8.2,3c2.1,4.6,3.3,9.5,4,14.5c1.1,7.7,3.9,15,5.8,22.5c0.8,3,1.5,6.1,2,9.2  C297.2,263.6,296.2,267.9,295.1,272.1z M302.3,175.9c-0.4,1.4-0.8,2.8-1.2,4.2c-0.4,1.4-1.3,1.9-2.7,1.5c-4.4-1.3-8.9-2.6-13.3-3.9  c-0.4-0.1-0.8-0.4-1.1-0.7c-1.9-2.3-2.5-2.6-5.5-3c1-2.3,2-4.5,3-6.8c2.9,0.8,5.7,1.7,8.6,2.5c3.5,1,7,2,10.4,3  C302.4,173.3,302.8,174,302.3,175.9z M309.5,157c-0.3,1.1-0.6,2.2-1,3.3c-0.4,1.3-1.3,1.9-2.7,1.5c-6.9-2-13.8-4-20.7-6.1  c-0.4-0.1-0.9-0.8-1-1.2c-0.6-2.7-1.1-5.4-1.7-8.4c5.1,1.5,10,2.9,14.9,4.3c3.4,1,6.8,2,10.1,3C309.8,154,310.2,154.7,309.5,157z" style="fill:none;stroke:red;stroke-width:0.0001px"/>
</svg>