<svg id="Layer_1" style="enable-background:new 0 0 200 200;" version="1.1" viewBox="0 0 200 200" x="0px" xml:space="preserve" xmlns="http://www.w3.org/2000/svg" xmlns:xlink="http://www.w3.org/1999/xlink" y="0px"><path d="M179.1,106.541c0.851-10.292-0.314-20.651-3.431-30.497c-1.016,0.854-2.06,1.687-3.135,2.497   c-0.032,0.024-0.064,0.048-0.096,0.072c-3.602,2.705-7.501,5.112-11.923,7.276c-3.438,1.682-7.075,3.081-11.04,4.241   c-0.154,0.045-0.308,0.089-0.462,0.134c-3.126,0.894-6.361,1.573-9.777,2.09c-2.125,0.322-4.281,0.569-6.506,0.719   c-0.628,0.042-1.26,0.077-1.899,0.104c-3.913,0.167-7.879-0.012-12.039-0.721c-0.387-0.066-0.775-0.136-1.165-0.212   c-3.402-0.655-6.695-1.666-10.029-2.772c-2.696-0.894-5.385-1.789-8.171-2.383c-4.376-0.933-8.379-0.959-12.438-0.243   c-1.412,0.249-2.83,0.586-4.277,1.003c-1.72,0.496-3.402,1.067-5.048,1.743c-2.067,0.85-3.989,1.88-5.815,3.152   c-2.543,1.771-4.73,3.839-6.767,6.155c-2.051,2.332-3.875,4.818-5.558,7.433c-0.788,1.224-1.544,2.475-2.275,3.749   c-6.885,11.989-12.262,27.835-16.321,42.927c2.826,3.149,5.855,6.028,9.144,8.69c0.908-3.358,1.884-6.698,2.946-10.01   c0.585-1.824,1.195-3.64,1.835-5.445c1.262-3.559,2.638-7.078,4.168-10.531c0.744-1.679,1.524-3.341,2.348-4.982   c0.804-1.601,1.649-3.181,2.543-4.734c0.437-0.76,0.886-1.513,1.348-2.258c0.143-0.231,0.287-0.461,0.432-0.69   c0.261-0.411,0.525-0.82,0.793-1.227c0.732-1.109,1.493-2.199,2.288-3.263c1.246-1.67,2.575-3.278,3.995-4.802   c0.709-0.761,1.441-1.501,2.2-2.213c0.765-0.718,1.556-1.409,2.376-2.064c0.83-0.665,1.689-1.295,2.576-1.883   c0.651-0.432,1.317-0.842,1.996-1.226c1.324-0.748,2.703-1.398,4.114-1.965c1.125-0.452,2.27-0.851,3.427-1.211   c0.551-0.171,1.104-0.334,1.661-0.486c0.491-0.134,0.984-0.259,1.478-0.376c0.492-0.116,0.987-0.224,1.483-0.323   c0.592-0.117,1.187-0.221,1.785-0.31c1.447-0.215,2.907-0.344,4.37-0.381c1.492-0.037,2.986,0.021,4.471,0.168   c0.761,0.076,1.52,0.175,2.275,0.297c0.919,0.147,1.833,0.327,2.742,0.531c0.937,0.21,1.867,0.445,2.793,0.697   c0.907,0.247,1.81,0.511,2.711,0.779c1.242,0.37,2.481,0.748,3.724,1.117c1.057,0.314,2.116,0.622,3.178,0.917   c0.525,0.146,1.051,0.288,1.578,0.426c0.284,0.074,0.567,0.146,0.851,0.218c0.119,0.03,0.238,0.06,0.357,0.089   c0.704,0.174,1.411,0.342,2.118,0.502c1.225,0.277,2.454,0.531,3.688,0.763c1.194,0.224,2.392,0.428,3.593,0.61   c0.525,0.08,1.051,0.156,1.577,0.228c0.097,0.013,0.194,0.027,0.291,0.04c0.194,0.026,0.388,0.052,0.581,0.078   c0.193,0.025,0.386,0.051,0.579,0.076c0.542,0.07,1.084,0.137,1.627,0.2c1.311,0.153,2.624,0.283,3.939,0.399   c1.98,0.174,3.962,0.313,5.947,0.401c0.912,0.041,1.826,0.07,2.739,0.084c0.095,0.001,0.19,0.003,0.285,0.004   c0.806,0.01,1.613,0.014,2.419,0.009c1.152-0.007,2.304-0.033,3.455-0.08c1.104-0.045,2.206-0.11,3.307-0.198   c0.285-0.023,0.571-0.048,0.856-0.073c0.347-0.031,0.693-0.064,1.04-0.098c0.677-0.067,1.354-0.138,2.029-0.216   c2.529-0.292,5.05-0.67,7.547-1.167c0.294-0.059,0.589-0.119,0.882-0.181c1.034-0.218,2.065-0.454,3.091-0.708   C177.374,107.011,178.239,106.782,179.1,106.541z" style="fill:#365DBF;"/></svg>