<svg id="Layer_1" style="enable-background:new 0 0 200 200;" version="1.1" viewBox="0 0 200 200" x="0px" xml:space="preserve" xmlns="http://www.w3.org/2000/svg" xmlns:xlink="http://www.w3.org/1999/xlink" y="0px"><path d="M20.632,100.717c0.035,3.882,0.35,7.71,0.95,11.546c29.056-27.094,44.022-22.671,63.41-21.198   c21.419,1.628,48.235-0.342,79.254-37.669c-4.782-6.592-10.55-12.41-17.102-17.247c-0.327,0.409-0.655,0.816-0.987,1.221   c-0.831,1.018-1.677,2.024-2.538,3.017c-1.634,1.886-3.322,3.724-5.07,5.505c-3.138,3.197-6.469,6.208-10.014,8.946   c-3.109,2.402-6.384,4.593-9.814,6.508c-3.07,1.714-6.266,3.206-9.556,4.448c-1.533,0.578-3.087,1.103-4.657,1.573   c-1.507,0.452-3.029,0.854-4.562,1.209c-2.378,0.55-4.783,0.986-7.2,1.325c-1.413,0.198-2.83,0.364-4.25,0.503   c-1.387,0.136-2.776,0.246-4.166,0.338c-1.344,0.088-2.688,0.159-4.033,0.221c-1.089,0.049-2.178,0.093-3.267,0.134   c-1.46,0.056-2.921,0.109-4.381,0.176c-2.384,0.109-4.767,0.254-7.139,0.517c-1.164,0.129-2.326,0.286-3.482,0.48   c-1.162,0.195-2.318,0.427-3.464,0.701c-1.175,0.281-2.339,0.607-3.488,0.98c-1.203,0.39-2.389,0.831-3.556,1.319   c-1.246,0.522-2.469,1.098-3.666,1.722c-1.301,0.678-2.573,1.412-3.816,2.192c-1.368,0.859-2.7,1.774-4,2.732   c-1.443,1.064-2.847,2.181-4.216,3.339c-1.527,1.291-3.011,2.633-4.458,4.012c-1.618,1.541-3.19,3.128-4.726,4.75   c-1.716,1.811-3.386,3.665-5.019,5.551C21.288,99.951,20.959,100.333,20.632,100.717z" style="fill:none;stroke:red;stroke-width:0.0001px"/><path d="M25.857,128.332c1.171,3.064,2.518,6.027,4.058,8.924c34.575-18.982,49.393-6.113,70.043-0.262   c20.003,5.668,45.477,4.753,77.146-18.17c2.742-11.233,2.997-22.93,0.747-34.271c-1.443,1.438-2.909,2.854-4.4,4.243   c-1.918,1.787-3.878,3.531-5.881,5.222c-1.884,1.59-3.807,3.135-5.771,4.625c-1.831,1.389-3.698,2.731-5.602,4.017   c-1.798,1.215-3.628,2.38-5.493,3.489c-1.783,1.06-3.596,2.069-5.44,3.018c-2.348,1.209-4.745,2.323-7.188,3.326   c-3.323,1.364-6.73,2.523-10.202,3.443c-3.194,0.847-6.443,1.491-9.719,1.921c-1.983,0.26-3.977,0.441-5.974,0.544   c-2.945,0.152-5.898,0.135-8.841-0.038c-2.777-0.164-5.546-0.466-8.296-0.884c-1.181-0.18-2.358-0.381-3.533-0.6   c-0.638-0.119-1.275-0.244-1.911-0.374c-1.248-0.254-2.493-0.524-3.736-0.803c-1.382-0.31-2.762-0.629-4.143-0.943   c-2.326-0.529-4.656-1.042-7.005-1.458c-1.151-0.204-2.307-0.386-3.466-0.534s-2.324-0.263-3.49-0.338   c-1.184-0.075-2.371-0.109-3.557-0.095c-1.224,0.014-2.449,0.079-3.668,0.196c-1.283,0.123-2.56,0.303-3.827,0.538   c-1.365,0.253-2.718,0.571-4.055,0.943c-1.456,0.406-2.894,0.879-4.311,1.406c-1.552,0.578-3.079,1.223-4.582,1.921   c-1.667,0.774-3.303,1.613-4.912,2.503c-1.792,0.991-3.549,2.045-5.276,3.146c-1.926,1.229-3.814,2.516-5.67,3.848   C27.217,127.328,26.535,127.827,25.857,128.332z" style="fill:none;stroke:red;stroke-width:0.0001px"/><path d="M23.73,78.03c-1.693,5.878-2.701,11.932-3.004,18.041C44.984,68.684,59.544,68.8,77.508,68.101   c19.152-0.745,42.172-2.416,67.205-33.677c-6.692-4.563-14.043-8.075-21.798-10.413c-0.721,0.763-1.455,1.514-2.202,2.251   c-1.552,1.531-3.161,3.003-4.832,4.403c-1.554,1.303-3.16,2.543-4.817,3.711c-1.553,1.094-3.151,2.125-4.79,3.084   c-1.547,0.906-3.132,1.749-4.748,2.525c-1.536,0.738-3.101,1.415-4.689,2.033c-1.518,0.591-3.058,1.128-4.612,1.614   c-1.494,0.467-3.002,0.888-4.52,1.269c-1.463,0.367-2.936,0.697-4.414,0.999c-1.427,0.291-2.86,0.556-4.296,0.804   c-1.387,0.24-2.776,0.465-4.166,0.685c-1.548,0.245-3.098,0.485-4.645,0.738c-1.284,0.21-2.566,0.429-3.845,0.669   c-1.254,0.235-2.504,0.489-3.747,0.773c-1.228,0.281-2.45,0.592-3.661,0.941c-1.217,0.351-2.422,0.741-3.612,1.174   c-1.22,0.445-2.422,0.936-3.603,1.475c-1.237,0.565-2.45,1.182-3.636,1.848c-1.269,0.713-2.506,1.481-3.711,2.297   c-1.312,0.889-2.586,1.834-3.823,2.825c-1.365,1.093-2.685,2.241-3.966,3.431c-1.426,1.324-2.802,2.701-4.138,4.116   c-1.493,1.581-2.934,3.211-4.334,4.875C26.604,74.341,25.147,76.171,23.73,78.03z" style="fill:none;stroke:red;stroke-width:0.0001px"/><path d="M39.248,151.079c12.425,14.778,29.812,24.52,48.903,27.402c19.091,2.882,38.579-1.294,54.813-11.746   c-0.158,0.021-0.316,0.042-0.475,0.062c-3.54,0.453-7.109,0.682-10.678,0.658c-3.342-0.023-6.683-0.266-9.991-0.74   c-3.123-0.447-6.216-1.098-9.255-1.948c-1.464-0.409-2.914-0.864-4.349-1.363c-1.018-0.354-2.028-0.731-3.03-1.128   c-1.37-0.543-2.726-1.124-4.069-1.731c-2.613-1.182-5.178-2.464-7.737-3.756c-2.664-1.345-5.323-2.701-8.031-3.957   c-1.255-0.582-2.52-1.142-3.799-1.669c-1.273-0.524-2.559-1.015-3.861-1.463c-1.315-0.452-2.645-0.859-3.989-1.213   c-1.376-0.362-2.767-0.668-4.169-0.911c-1.459-0.253-2.929-0.438-4.406-0.555c-1.563-0.124-3.133-0.171-4.701-0.144   c-1.689,0.028-3.377,0.141-5.056,0.329c-1.845,0.207-3.679,0.503-5.497,0.875c-2.009,0.411-4,0.914-5.968,1.49   C42.337,150.03,40.786,150.535,39.248,151.079z" style="fill:none;stroke:red;stroke-width:0.0001px"/></svg>