<svg id="Layer_1" style="enable-background:new 0 0 434.1 295.6;" version="1.1" viewBox="0 0 434.1 295.6" x="0px" xml:space="preserve" xmlns="http://www.w3.org/2000/svg" xmlns:xlink="http://www.w3.org/1999/xlink" y="0px"><path d="M269.8,178.1c1.7-0.2,3.1-0.4,4.5-0.5c0.4,0,0.9-0.1,1.1,0.4c0.2,0.4,0.1,0.9-0.2,1.2    c-1.8,1.9-2.9,4-2.2,6.7c0.3,1.1-1,1.5-1.2,2.1c-0.6,2.3-2.7,4.1-2.3,6.7c0.2,1.4-1.1,1.1-1.6,1.8c-1.6,2.6-1.7,5.7-3.4,8.2    c-1,1.5,0.9,2.8,0.9,4.4c0,2.3-0.8,3.1-2.9,3.2c-6.7,0.2-13.4,0.3-20.1,0.6c-1.5,0-1.9-0.4-1.8-1.8c0.1-0.8-0.1-1.5,0-2.3    c0.3-1.9-0.7-2.7-2.4-2.4c-1.5,0.2-1.6-0.4-1.6-1.6c0.1-5.3-0.1-10.6,0.1-15.8c-0.1-4.6-0.5-9.2-1.4-13.7c-0.2-1.4,0-1.7,1.4-1.7    c7.7-0.2,15.4-0.7,23-0.8c3.5-0.1,7-0.4,10.5-0.6c0.7,0,1.4-0.1,1.9,0.8s-0.2,1.4-0.7,1.9C270.5,175.7,269.9,176.9,269.8,178.1z" style="fill:#4824DA;"/><path d="M327.1,241.7l1.6,1c-1.3,1.8-3.2,2.1-4.9,3.1c-0.3,0.2-1.1,0.3-1.2,0.1c-0.6-1.2-1.3-2.3-2.1-3.4    c-1.5-1.6-1.6-1.5-1.4-3.4c-1.1,0.8-2.4,0.6-3.5,1.1c-0.5,0.3-1.1,0.2-1.4-0.3c0-0.1-0.1-0.1-0.1-0.2c-1.2-2.7-3.2-1.6-4.8-1    c-1.4,0.5-2.4,0.8-3.7-0.1c-0.6-0.4-2-2-2.4,0.5c-0.1,0.6-1,0.4-1.2-0.3s0.3-1.4-0.3-1.9c-0.8-0.7-2.2-1.2-1.5-2.4    c0.5-0.9,2-0.5,3-0.6c5.7-0.6,11.3-1.1,17-1.8c1.7-0.2,2.9-0.3,3.3,1.8c0.2,1.2,1.1,1.2,2.1,1.1c6.8-0.4,13.7-0.8,20.5-1.1    c1.2-0.1,2.5-0.4,2.9,1.4c0.2,0.7,0.9,0.7,1.5,0.6s0.7-0.6,0.8-1.1c0-0.6,0.1-1.2,0.2-1.8c0.2-0.9-1.5-2.2,0.1-2.4    c1.2-0.1,3-0.1,3.7,2.2c1.7,5.6,4.3,11,7.6,15.9c0.7,1,1.2,2.1,1.5,3.3c0.8,2.2,1.7,4.3,2.8,6.4c1.6,3.5,3.5,6.8,5.5,10    c2.8,4,2.9,8,3.5,12.3c0.5,3.1-1,6-1,9.1c0,1.8-2.9,2.5-4.5,1.4s-3.3-2.1-3.5-4.6c-0.1-1.5-2.2-1.5-3.5-1.9    c-0.5-0.1-1.5,0.3-1.6-0.3c-0.8-3.9-6.1-6.1-4.5-11c0.1-0.2-0.1-0.4-0.4-1c-0.6,1.2-2,1.7-3.2,1.1c-0.2-0.1-0.4-0.2-0.5-0.4    c-1.4-1.7-2.8-3.7-2-6.3c1.1-3.5,1.2-3.8-2-4.4c-1.4-0.3-1.3-0.8-1.1-1.6c0.7-2.3,0.7-4.8-0.1-7.1c-0.6-1.8-1.1-3.6-3.6-4.3    c-1.7-0.5-3.1-2.2-4.3-3.7c-1.7-2.1-3.4-4.2-6.1-5.1c-1.5-0.5-3.3-0.8-4.6,0.8C328.8,242.5,327.9,241.1,327.1,241.7z" style="fill:#4824DA;"/><path d="M282.4,244.1c-1-2.7-3.6-4.6-2.2-7.8c0.5-1.2-0.3-1.5-1.5-1.4c-4.3,0.3-8.7,0.5-13,0.7    c-1.8,0.1-2.8,0.4-2.1-2.4c0.7-3.1,1.8-6.1,3.4-8.8c0.9-1.7,1-3.8,0.4-5.6c-1.1-3.2-0.8-7-1.3-10.4c-0.8-4.6,1.5-8,3.6-11.5    c0.6-1.2,1.1-2.6,1.4-3.9c0.5-2.1,2.3-3.6,4.5-3.6c4.3-0.3,8.7-0.6,13-1c1.6-0.2,1.9,0.5,1.9,1.8c-0.1,6.9,0.2,13.9-0.2,20.8    c-0.5,9.1,0,18.2,1.5,27.2c0.5,3.6,0.5,3-3,3.1C286.8,241.3,283.4,240.5,282.4,244.1z" style="fill:#4824DA;"/><path d="M261.3,237l18-1.1c-1.6,3.1,0.2,5.4,1.7,7.9c-1.1-0.1-2.2-0.4-3.1-1c-0.9-0.6-2.2-1.1-3,0.3    c-0.5,0.9-1.6,1.7-1,2.9c0.5,1,1.8,1.5,2.8,1c2.2-0.6,3.1,1.4,4.8,1.8c0.2,0.1,0.4,0.3,0.5,0.5c0.2,1.3-2.9,1.2-1.4,3.1    c-0.7,0.3-1.3-0.2-1.9-0.2s-1.2-1.5-2.1-0.5s0.2,1.4,0.8,2.1c0.4,0.5,0,1.7-0.2,2.9c-0.6-2.4-2.3-1.9-3.8-1.7    c-0.5,0.1-1,0-0.7,0.8c0.1,0.5-0.3,1.1-0.8,0.5c-1.8-2-4.5-2.4-6.7-3.9c-1.1-0.8-1.2-2.4-3-2.8c-1.5-0.3-3.9,0.2-3.9,1.7    c0,1.9-1,1.6-2,1.4c-1.4-0.3-2.8-0.6-4.1-1.1c-2.2-0.8-4.4-1.5-6.8-1c-1.5,0.3-2-0.3-1.4-1.6c0.6-1.4,0.8-3,0.4-4.6    c-0.3-0.9-0.3-2,0.1-2.9c2.4-3.6,1.4-7-0.4-10.5c-2.5-4.7-3.7-10-3.4-15.4c0.1-1.5,0.4-2,1.9-2c6.9-0.1,13.7-0.3,20.6-0.6    c1.5-0.1,2,0.6,2.2,2c0.3,1.6,0,3.3,1.3,4.6c0.1,0.2,0.2,0.4,0.2,0.7c-2,1.2-0.9,3.7-2.1,5.5c-1.6,2.4-3.4,5.4-2.6,8.7    C262.3,235.7,261.6,236.1,261.3,237z" style="fill:#4824DA;"/></svg>