<svg id="Layer_1" style="enable-background:new 0 0 434.1 295.6;" version="1.1" viewBox="0 0 434.1 295.6" x="0px" xml:space="preserve" xmlns="http://www.w3.org/2000/svg" xmlns:xlink="http://www.w3.org/1999/xlink" y="0px"><path d="M187.8,184c-0.1,2.6-0.3,5.2-0.4,7.8c-0.2,4,1.5,5.8,5.6,6c0.4,0,0.8-0.2,1,0.2    c1.9,3.3,5.2,3,8.3,3c1.4,0,1.6,1.1,2.2,1.8c0.9,1.1,1.5,2.1,2.9,0.7c0.3-0.3,0.7-0.6,1-0.1c0.9,1.5,3.1,0.4,3.9,2.1    c0.2,0.3,0.7,0.3,1,0.1c0,0,0.1-0.1,0.1-0.1c1.7-3,3.6-1,5.3-0.2c0.9,0.4,1.3,0.7,2.3,0.2c2-1.1,4.4-1,6.5-1.5    c3.8-1,5.3,2.5,8.2,2.9c0.8,0.1,1.4,1,2.6,0.6s1.3,0.8,1.3,1.8c0,4.3,0.1,8.5,0.2,12.8c0.1,1.9,0.6,3.7,1.5,5.3    c1.4,2.9,2.5,5.9,3.4,8.9c0.3,1.4-0.1,2.9-0.9,4.1c-0.8,1.4-1.1,3.1-0.6,4.7c0.4,1.4,0.6,2.6-0.9,3.5c-0.4,0.2-0.6,0.6-0.6,1.1    c0.2,2.8-2.4,2.5-3.9,3.5c-0.8,0.5-1.9,0.2-2.3-0.6c0-0.1-0.1-0.1-0.1-0.2c-0.4-0.6,0.1-2.2-1.3-1.7c-1.1,0.5-2.8,1.1-2.5,2.9    c0.2,1,1.2,2.2,0.1,3c-2.2,1.6-2.5,4.9-5.4,5.8c-1.4,0.3-2.8,0.9-4.1,1.6c-1.6,1-2.8-1.3-4.5-0.7c-0.4,0.2-1.1-0.7-1.5,0.1    c-0.3,0.6,0.2,1.1,0.5,1.6s1.5,1.1,1.1,1.7c-0.5,1-1.2,0-1.8-0.2c-1.1-0.4-0.8,0.7-1.1,1.2s0.2,2.4-1.7,1.1    c-0.4-0.2-1.9,1.1-2.8,1.8c-0.1,0,0,0.5,0.1,0.6c0.6,0.9,0.4,1.1-0.8,1.4c-1,0.2-1.9,0.7-0.6,1.7c1.6,1.3,0.5,2.6,0,3.7    s-1.6,0.8-2.5,0.1c-0.2-0.2-0.6-0.1-0.8,0.1c-0.1,0.1-0.1,0.3-0.1,0.4c0,0.7-0.6,1.6,0.6,1.9c1.8,0.4,2.2,1.2,1,2.7    c-0.2,0.5-0.2,1.2,0,1.7c1.4,2.8,0.8,6.2,2.5,8.9c0.5,0.8-0.4,1-0.7,1.3c-0.6,0.6-1.2,0.3-1.4-0.3c-0.5-1-1.6-1.6-2.7-1.4    c-4.5,0.2-7.4-3.3-11.3-4.5c-0.4-0.2-0.7-0.7-0.9-1.1c-1-3.6-3.8-6.8-3-10.9c0.1-0.6-0.2-1.2-0.6-1.5c-3.5-1.5-3.9-5.4-6.1-7.9    c-1.8-2.1-2.8-5.3-3.4-8.1s-2.6-4.5-4.4-6.4c-0.5-0.6-0.9-1.2-1.3-1.9c-1.4-2.2-3.8-2.1-5.8-2.2s-3.6-1.7-5.9-0.4    c-1.4,0.6-2.5,1.7-3.2,3.1c-0.1,0.3-0.1,0.7-0.2,1c-0.8,1.6-1.5,3.3-2.9,4.2c-1.8,1.1-2.8-1.1-4.1-1.8c-2.5-1.3-4.8-3.1-6.8-5.2    c-1.3-1.4-2.1-3.2-2.1-5.2c0.1-3.2-0.6-6.3-2.9-8.2c-3.5-3-5.6-7.1-9-10.1c-1.4-1.1-1.7-3.2-3.2-4.6c-1.1-1,0.8-0.9,1.4-0.9    c4,0.4,8,0.8,12,1.2c5.7,0.5,11.4,1,17,1.5c1.7,0.2,1.6-0.9,1.7-2c1.3-16.3,2.6-32.5,3.9-48.8c0.1-1.6,0.7-1.6,2-1.5    c7,0.5,14,0.9,21.1,1.2c1.2,0.1,1.7,0.1,1.6,1.6c-0.2,3.2-0.1,6.5-0.1,9.8L187.8,184z" style="fill:#00D58C;"/><path d="M5.3,129.7c0.6,0.9,1,1.3,1.3,1.8s0.8,1.2,1.6,0.9c1.1-0.5-0.1-1.1,0-1.6c0-0.1-0.1-0.2,0-0.2    c0.3-1.6-1.3-3.4-0.3-4.5c1.2-1.2,2.8,0.3,4.3,0.6c0.6,0.1,1.7,0.6,2.1-0.6c0.1-0.4,0.7-0.8,0.1-1.3c-0.7-0.7-1.2-0.6-2.1-0.1    s-2.4-0.5-2.9-0.9c-2.5-2-3.5-1.2-4,2c-1.2-1.5-2.1-2.4-1.8-4.3c0.4-2.7-1.5-5-2.5-7.4c-1-2.6-0.9-5.4,0.2-7.9    c1.2-3.1,1-6.7-0.6-9.6c-0.9-1.5-0.7-3.5,0.4-4.8c2.9-4.1,5.6-8.2,5.1-13.6c-0.1-1.7,1.1-1.5,2.2-1.2c7.5,2.2,15,4.3,22.5,6.5    c2,0.6,4.8,0.6,5.7,2s-0.7,3.9-1.2,5.9c-2.2,8.8-4.4,17.6-6.8,26.3c-0.3,1-0.1,2.1,0.5,3c10.4,17.3,20.7,34.6,31.2,51.9    c1.5,2.6,1.3,5.6,2.7,8.1c1.6,2.8,0.4,4.3-1.8,5.7c-1,0.6-0.8,1.8-1.1,2.7c-0.4,1.4-0.5,2.9-2.2,3.6c-1.1,0.5-1.3,4.7-0.4,5.3    c0.8,0.5,1.2,0.9,0.8,1.7c-0.5,1.1-1.4,1-2.4,0.9l-15-1.7c-0.9-0.1-1.8-0.2-2.8-0.3c-2.4-0.2-3.4-1.4-3.2-4    c0.3-5.6-2.6-9.5-6.8-12.8c-0.2-0.1-0.5-0.3-0.5-0.4c0.2-2.7-1.5-3.5-3.8-3.9c-1-0.2-1.9-0.9-2.3-1.9c-1-4.1-4.7-4.6-7.7-5.8    c-2.7-1-3.1-1.1-2.4-3.9c0.3-1.1,0.1-2.3,0.8-3.3c0.2-0.2,0.2-0.8,0.1-0.9c-2-1.8-1-4.7-2.6-6.6c-2.2-2.8-2.1-6.6-3.8-9.7    c-0.6-1.2-0.1-2.6,1-3.2c2.1-1.4,1.6-3.4-0.6-4.8c-1.4-0.9-2-2.6-1.6-4.1C5.2,132,5.1,131.1,5.3,129.7z" style="fill:#00D58C;"/><path d="M110.1,67.6c-0.8-2.1-1.6-2.9-2.8-0.7c-0.3,0.6-1.1,0.9-1.7,0.7c-2.4-1.1-5-0.3-7.4-0.4    c-1.2,0-1.5-0.1-1.5-1.2c0-1.5,0.1-3.1-1.8-3.6c-0.2,0-0.5-0.4-0.4-0.5c0.9-2.8-1.9-5.1-1.1-8c0.1-0.9-0.3-1.9-1.1-2.4    c-0.9-0.7-1.2,0.4-1.8,0.7s-1.1,0.8-1.8,0.3c-0.9-0.5-0.3-1.3,0-1.7c1.5-2.1,1-4.7,2-7c0.8-1.3,1.2-2.8,1.3-4.4    c-2.2,0.5-2.9-1.5-3.6-2.8c-1-2.2-1.5-4.5-3.3-6.3c-0.7-0.7-0.4-1.7-0.5-2.6c-0.1-0.6,0.2-1.5-0.1-2c-2.6-4.7,0.3-9.1,0.7-13.6    c0.2-1.6,1.3-0.9,2.1-0.8c9,1.7,17.9,3.5,26.9,5.1c16.3,2.8,32.8,4.9,49.3,6.3c2,0.2,3,0.5,2.7,2.9c-0.7,7.1-1.2,14.1-1.8,21.2    c-0.6,6.7-1.3,13.5-1.7,20.2c-0.1,1.8-0.8,2.1-2.2,1.9c-14.5-1.5-29.1-3-43.5-5.4c-0.5-0.1-1-0.1-1.5-0.1    C111.3,63.1,111.3,63.1,110.1,67.6z" style="fill:#00D58C;"/><path d="M156.4,222.4c-9.7-0.9-19-1.7-28.3-2.6c-0.8-0.1-1.6-0.4-1.8,0.6c-0.3,1.9-1.6,1.5-2.8,1.4    c-3.2-0.4-6.5-0.8-9.7-1.3c-1.3-0.2-2-0.1-2.1,1.5c0,1.1,0,3-0.8,3.1c-1.9,0.1-3.8-0.1-5.7-0.6c-0.8-0.2-0.4-1-0.3-1.5    c2.7-19.8,5.5-39.6,8.3-59.4c0.5-3.6,0.6-3.6,4-3.2c14.8,1.9,29.6,3.7,44.4,4.6c2,0.1,1.6,1.4,1.5,2.4c-0.6,3.8-0.8,7.6-1.1,11.5    c-0.9,11.8-1.9,23.6-2.9,35.4c-0.3,1.8-0.4,3.6-0.4,5.5C158.7,221.9,158.3,223,156.4,222.4z" style="fill:#00D58C;"/><path d="M63.9,170.3c0.2-2.1,0.4-4.3,0.6-6.4c0.1-0.6-0.2-1.4,0.7-1.6c0.7-0.2,1.4,0.1,1.8,0.7    c1.4,2.3,2.3,1,3.2-0.4c1.4-2.3,1.2-5,1.8-7.5c0.3-1.4,0.7-1.8,2.1-1.6c10.2,1.8,20.3,3.6,30.5,5.3c2,0.3,4,0.5,6,0.7    c1.5,0.1,2.2,0.8,1.9,2.4c-1.1,7.7-2.2,15.3-3.2,23l-3.8,27.5c-0.5,3.6-1.1,7.3-1.5,10.9c-0.1,1-0.5,1.1-1.3,0.9    c-5.3-0.8-10.6-1.5-15.9-2.4c-0.7-0.2-1.4-0.5-2-0.9c-9.1-5.6-18.2-11.3-27.3-16.9c-0.6-0.4-1.8-0.5-1.6-1.6s1.1-1,1.9-1.2    c1.4-0.2,2.3-1.6,2-2.9c-0.1-0.5-0.3-1-0.7-1.3c-1.4-1.3-0.8-2.8,0.1-3.8c1.1-1,1.8-2.4,2-3.9c0.1-1.7,1.2-3.3,2.8-4    c1.6-0.8,1.8-1.7,0.9-3.6c-1.2-2.4-2.7-5.2-1.2-8.2C64,172.5,64.1,171.4,63.9,170.3z" style="fill:#00D58C;"/><path d="M68.4,163c-0.6-1.4-2.1-2.2-3.6-1.8c-1.6,0.3-1.2,1.6-1.4,2.8c-0.5,3-0.2,6.1-1.2,9.2    c-1.3-2.1-2.5-4.1-3.8-6.2c-9.2-15.4-18.5-30.8-27.7-46.2c-0.9-1.3-1.1-3-0.6-4.4c2.6-9.9,5.2-19.7,7.7-29.6    c0.3-1.3,0.6-1.5,2-1.2c13.5,3.4,27.1,6.3,40.7,9c1.6,0.3,1.8,0.9,1.6,2.3c-3.6,18.4-7.2,36.9-10.8,55.3c-0.5,2.5-0.8,4.9-1.2,7.4    C69.9,160.9,69.3,162.1,68.4,163z" style="fill:#00D58C;"/><path d="M162.1,73.3c-1.2,13.9-2.4,27.8-3.5,41.6c-0.1,1.9-1.2,1.4-2.2,1.3c-9.8-0.8-19.5-1.9-29.2-3.2    c-6.5-0.9-12.9-1.8-19.4-2.7c-3.2-0.4-3.2-0.4-2.7-3.8c2.1-13.4,4.3-26.9,6.4-40.4c0.3-1.8,0.8-2,2.5-1.7    c15.4,2.2,30.8,4.4,46.3,5.6C163.5,70.2,161.7,72.2,162.1,73.3z" style="fill:#00D58C;"/><path d="M6.1,72.3C7.5,68,7.7,63.2,11,59.1s4.3-9.2,6.2-13.9C19,40.8,21,36.4,22,31.6    c0.3-1.5,2.5-1.6,4.2-1.2c2.8,0.7,3.2,2.3,2.7,4.8c-0.5,2.1,0.8,4.1,2.9,4.6c0.6,0.1,1.2,0.1,1.8,0c2.5-0.5,4.8-1,6.5,1.4    c0.1,0.2,0.6,0.2,1,0.2c3.3-0.2,6.5,0.6,9.8,0c3.9-0.6,7.9-0.3,11.6,0.9c1.7,0.6,3.5,1,5.4,1.1c2.8,0.2,3.8,2.3,5,4.2    c0.4,0.6,0.3,1.3-0.1,1.9c-2.6,3.4-4.4,7.3-7.3,10.5c-1.2,1.3-1.5,2.6-0.1,3.9c0.9,0.9,0.5,2,0.2,2.8c-2.7,6.4-3.3,13.3-4.9,19.9    c-0.5,1.9-0.9,2.6-3.1,2.1c-16.2-3.6-32.2-8.2-48.2-12.8C6.2,75,6,74.7,6.1,72.3z" style="fill:#00D58C;"/><path d="M111.5,158.8c-9.2-1.5-18.5-3-27.7-4.6c-3.2-0.5-6.4-1.3-9.6-1.7c-1.8-0.2-1.8-1-1.5-2.3    c3.2-16.6,6.4-33.1,9.7-49.7c0.3-1.8-0.1-4.2,1.4-5c1.2-0.7,3.3,0.3,5.1,0.7c4.9,0.8,9.9,1.8,14.8,2.5c1.4,0.2,1.6,0.7,1.3,2    c-0.6,2.8-0.7,5.6-1.4,8.4c-0.4,1.6,0.3,1.9,1.5,2c3.9,0.6,7.7,1.3,11.6,1.7c1.9,0.2,2.4,0.8,2.1,2.7c-2,13.8-3.9,27.7-5.9,41.5    C112.9,157.6,113.4,159.1,111.5,158.8z" style="fill:#00D58C;"/><path d="M222.2,166.2c-15.9,0.1-31.8-0.3-47.7-1.1c-1.5-0.1-2.2-0.4-2.1-2.2c0.7-10,1.2-20,1.8-30    c0.1-1.6,0.3-2.2,2.3-2.1c14.5,0.8,29.1,1.4,43.6,1.4c2.1,0.1,4.2,0.1,6.2-0.1c1.7-0.2,2.3,1.6,3.8,1.6c0.5,0,0.3,0.7,0.1,1    c-0.5,0.9-1.4,1.8-0.9,2.7c0.9,1.4,1.4,3.1,2.8,4.1c0.8,0.5,1.2,1.3,1.1,2.2c0,6.9,0.1,13.7,0.2,20.6c0,1.4-0.2,2.1-1.9,2    C228.5,166.1,225.4,166.2,222.2,166.2z" style="fill:#00D58C;"/><path d="M93.1,61.7C93.1,61.3,93,61.6,93.1,61.7c1.4,2,2.3,4.2,2.9,6.6c0.3,0.6,0.9,0.8,1.5,0.6    c2-1,4.1-0.5,6.1-0.3c1.7,0.1,3.2,0.5,4.4-0.9c0.7-0.8,0.7,0,0.9,0.3c0.6,1.2,0.9,2.5,0.7,3.8c-1.4,8-2.7,15.9-3.8,23.9    c-0.2,1.6-0.7,2.2-2.3,1.9c-13.6-2.5-27.2-4.8-40.7-7.9c-1.4-0.3-1.8-0.5-1.4-2c1.4-5.7,2.5-11.5,3.8-17.3c0.3-1,0.8-2,1.3-3    c0.6-1.5,1-2.8-0.4-4.4c-1.7-2,0.9-3.4,1.9-4.4c2.6-2.7,3.5-6.3,6-9.1c0.5-0.9,0.4-2.1-0.3-2.8c-2.5-2.5-1.7-5.5-1.2-8.2    c1.8-9.1,4.1-18.2,6.1-27.3c0.3-1.3,0.6-1.8,2-1.4c0.7,0.2,1.5,0.4,2.2,0.5c1.2,0.2,1.7,0.7,1.3,2.1c-0.5,1.8-0.8,3.7-1.3,5.6    c-0.6,2.5-1.1,4.9,0.3,7.3c0.2,0.4,0.5,1.1,0.3,1.4c-1.2,2.3,0.2,3.6,1.5,5.3c1,1.3,1.7,2.9,2,4.5c0.3,1.4,1,2.7,2.2,3.6    c1.9,1.2,0.7,2.4,0.3,3.3c-1.2,2.6-1.2,5.7-2.6,8.2c-0.7,1.3,0.8,1.6,1.3,2.4c0.6,1,1.1,0.2,1.6-0.1c1.4-0.7,2.8-1.5,2.4,1.3    C91.7,57.2,93.4,59,93.1,61.7z" style="fill:#00D58C;"/><path d="M23.6,27.3c1.7-1.5,0.5-3.8,1.9-5.2c0.3-0.3-1,0-1.2-0.9c2.2-0.5,2.1-1.4,0.8-3.2    c-0.8-1-0.4-3.1-0.1-4.6c0.4-1.8,0.3-3.7-0.2-5.4c-0.5-1.7-0.2-3.5,0.8-4.9c1.9,2,3.6,4.1,6.4,4.9c1.1,0.4,2.4,0,3.3,1    s3.3,1.6,0.2,2.9c-0.9,0.4-1.4,1.8-2.1,2.7c-0.2,0.3-0.2,0.6,0.1,0.9c0,0,0,0,0,0c0.4,0.3,0.7-0.2,1.1-0.3    c0.6-0.2,1.3-1.2,1.7,0.2c0.3,1-0.1,1.7-1.1,1.7c-0.8,0-1.2,0.5-1.9,0.6c-1.5,0.3-2.4,1-1.9,2.5s2.4,1.3,3.2,0.8    c1.8-1,4.5-1.5,3.9-4.7c-0.1-0.8,0.1-1.6,0.6-2.1c2.1-1.8,1.9-4.3,1.8-6.5s1.6-4.6-0.2-7.1c-0.8-1.1,1.1-0.6,1.6-0.4    c5.8,1.5,11.5,3.1,17.2,4.6c5.4,1.4,10.9,2.8,16.3,4c1.9,0.4,2.1,1.1,1.7,2.9c-2.1,8.7-4,17.4-6,26.1c-0.1,0.5-0.2,1-0.3,1.5    c-0.3,3.8-0.3,3.8-4.2,2.9c-2.1-0.5-4.2-1-6.3-1.5c-4-1-8-0.7-12.1-0.4c-3.2,0.2-6.3,0.3-9.3-1.3c-1.4-0.8-3.2-1-4.8-0.6    c-3.4,0.9-4.8-0.4-4.3-3.8c0.5-2-0.5-4-2.4-4.9C26.4,28.9,25.4,27.4,23.6,27.3z" style="fill:#00D58C;"/><path d="M332.6,183.8c-1.6,3.1-1.3,4,2.3,5.4c1.1,0.4,2,1.2,2.4,2.2c1.4,3,4.2,4.9,6.7,6.7    c1.7,1.2,2,3.3,3.6,4.3c2.2,1.3,3.1,3.7,4.5,5.5c1.7,2.1,2.3,5,4.5,6.7c0.3,0.2,0.6,0.4,0.4,0.8s-0.6,0.5-1,0.2    c-0.6-0.4-1.3-0.4-2-0.2c1.5,1.6,0.9,3.9,1.7,5.7c0.1,0.6-0.2,1.2-0.7,1.5c-0.8,0.5-1.9,0.8,0,1.3c0.1,0.2,0.1,0.4,0,0.6    c-2.4,0.7-0.7,2.2-0.8,3.4c-0.1,0.7,0.6,2-1.2,1.6c-3.2-0.7-3.5-0.3-2.8,3.1c0,0.2,0.1,0.5,0,0.7c0,0.2-0.1,0.5-0.2,1.2    c-0.5-2-1.5-2.2-3.1-2.1c-6.7,0.6-13.4,0.9-20,1.3c-1.5,0.1-2.3-0.1-3-1.8c-0.9-2.2-2-4.2-1.7-6.8c0.2-1.7-1.7-3.5-0.8-5.5    c1.5-3.2-0.1-5.7-1.3-8.5c-2.9-6.8-3.9-14.1-6.1-21.1c-0.4-1.3-0.7-2.6-1-4L332.6,183.8z" style="fill:#00D58C;"/><path d="M386.4,160.8c-1.1-3.4-1.1-3.4-3.3-2.9c0.2,0.8,1.2,0.9,1.5,1.8c1.2,3.8,1.4,3.9,5,2.6    c1.9-0.6,1.9,0.2,1.7,1.4c-0.1,0.6-0.6,1.3,0.4,1.5c0.4,0.1,1.4-0.6,1.1,0.6c-0.2,0.9-0.2,2.2-1.6,2.2c-0.6,0-1.4,0.3-1.6-1    c-0.2-1.9-1.4-0.8-1.8-0.2c-0.8,1-1.5,1.4-2.8,0.8c-0.4-0.2-1.2-0.5-1.5,0.3s0.5,1,1,1.3c0.6,0.3,1.3,0.4,1.9,0.5    c1.7,0.1,1.8,1.6,1.7,2.5c-0.2,1.4-1.2,0.6-2.1,0.4c-0.9-0.3-1.9,0.2-2.2,1.1c0,0,0,0.1,0,0.1c0.8,0.3,1.7,0.1,2.4,0.9    s1.9,0.3,2.9,0.2c0.6,0,0.6-1.7,1.3-0.7c0.5,0.7-0.5,1.4-1.2,1.8c-1.5,0.7-3.2,0.8-4.8,0.1c0.5,1.4-0.2,2.2-1,3.1    c-1.9,2.3-4.3,4.3-4.2,7.7c0,1.3-3.9,2-5.2,1c-2.1-1.4-4-3-5.8-4.7c-3.1-3.3-6.7-3.8-10.7-2.6c-1.9,0.5-3.3,0.6-4.2-1.5    c-0.5-1-1.6-1.6-2.7-1.3c-5.5,0.5-11.1,0.4-16.1,3.7c-2.8,1.8-6.3,1.4-9.5,1.9c-0.5,0.1-1,0.1-1-0.7c0-0.5-0.2-1,0.5-1.3    c0.3-0.1,0.9-0.1,0.9-0.3c1.5-5.2,7.9-5.1,10.1-9.5c2.4,0.4,2.6-3.4,5.1-2.6c0.4,0.1,0.8-0.2,0.9-0.6c0,0,0,0,0,0    c0.1-1.9,2.7-2.6,2.3-4.8c-0.1-0.7,0.6-0.8,1.2-0.9c14.4-1.5,28.5-4.4,42.5-7.5c0.7-0.3,1.5-0.2,2.2,0.1c0.3,0.2,0.9,0.7,0.5,0.9    C388.2,157.4,389.1,160.6,386.4,160.8z" style="fill:#00D58C;"/><path d="M312.5,137.8c0.8,2.6-0.5,3.3-2.8,3.1c-0.8-0.1-1.5,0.4-1.3,1.1c0.5,2.4-1.3,3.6-2.4,5.2    c-0.4,0.4-0.7,1-0.8,1.5c-0.1,1.9-0.8,1.8-1.9,0.6c-0.4-0.5-0.6-1.3-1.5-0.8c-0.7,0.4-1.4,0.6-1.3,1.7s0,2.3-1.5,0.9    c-0.3-0.3-0.8-0.3-1.1,0c-0.1,0.1-0.1,0.1-0.2,0.2c-1.3,1.7-2.8,1.5-4.5,0.7c-0.6-0.3-1.5-0.8-2,0.5c-0.2,0.6-1,0.5-1.6,0.3    c-0.9-0.4-0.2-1-0.2-1.5c-0.1-2.7,2.2-4.5,2.7-7c0.2-0.6,0.3-1.3,0.3-1.9c-1.4-8.8-1.5-17.8-2.5-26.6c0-0.3-0.1-0.7-0.1-1    c0-1.7-1-4.6-0.2-4.7c2.2-0.6,3.8-2.3,6.1-2.5c3.9-0.3,7.8-0.9,11.7-1.4c1.5-0.2,2.1,0.2,2.2,1.9c0.9,9,1.9,17.9,3,26.9    C312.8,135.9,312.7,136.9,312.5,137.8z" style="fill:#00D58C;"/></svg>