<svg id="Layer_1" style="enable-background:new 0 0 434.1 295.6;" version="1.1" viewBox="0 0 434.1 295.6" x="0px" xml:space="preserve" xmlns="http://www.w3.org/2000/svg" xmlns:xlink="http://www.w3.org/1999/xlink" y="0px"><path d="M113.9,158.9c1.8-13.4,3.6-26.7,5.4-40c0-0.3,0.2-0.6,0.2-1c1-4.9,1-4.8,5.9-4.1    c10.5,1.5,21,2.7,31.6,3.5c5.2,0.4,10.3,0.9,15.5,1.3c1.2,0.1,1.7,0.4,1.6,1.8c-0.9,13.7-1.8,27.5-2.7,41.2    c-0.1,2.4-0.7,3.3-3.3,3c-8.9-0.9-17.8-1.7-26.7-2.4C132.2,161.5,123.1,160,113.9,158.9z" style="fill:#7AFF00;"/><path d="M229.1,21.1c1.8,1,1.7,2.7,1.7,3.8c-0.1,3.1,1.6,4.1,4.2,4.6c1,0.2,2.1,0.2,2.8,1.3    c0.5,0.7,1.6,0.2,2.3-0.1c3.1-1.5,5.1-0.9,6.8,2c0.3,0.6,0.3,1.6,1.3,1.5s0.9-1,1.3-1.7c1.1,1.4,2.6,2.2,3.9,3.2    c1,0.8,2.5,0,3.5-0.8c0.7-0.6,1.3-1.8,2.2,0c0.4,0.9,1.4,0.2,2.1,0.2c1.6-0.1,3.2-0.7,4.3,1.7c0,0-0.5,0.2-0.9,0.4    c-4.1,1.5-6.9,4.5-9.3,8c-1.7,2.4-3.9,4.5-6.2,6.3c-0.6,0.5-0.4,0.7-0.3,1.1c0.2,1.7,0.2,3.3,0.4,5c0.2,0.9-0.3,1.9-1.2,2.2    c-1.9,0.8-2.2,2.6-2.9,4.2c-0.1,0.3-0.2,0.8-0.1,0.9c3.1,2.5,0.6,5.8,1,8.7c0.3,1.8,1,3.1,2.1,3.4c4,1.3,5.4,5.4,8.9,7.2    c1.4,0.7,1.1,2.5,1.3,3.9c0.2,0.8-0.7,0.5-1.1,0.5c-11.9,0.6-23.9,1-35.9,1c-1.6,0-1.4-1-1.4-2c0.1-5.7,0.1-11.3,0.2-17    c0-1.4,0-2.7-1.6-3.6c-1-0.6-1.6-1.5-0.3-3c1.9-2.1,1.6-5.2,0.7-7.4c-1.6-3.6-1-7.3-1.5-11c-0.3-2.5-0.2-5.1-1.1-7.6    s-0.8-5.4-0.8-8.1c0-0.3,0-0.5,0.1-0.7c0.4-1.2-1.5-2.8,0-3.6c1-0.5,2.6,0,3.9,0c2.3,0,4.5-0.1,6.8,0s3.2-0.4,2.8-2.7    C228.9,22.3,229,21.7,229.1,21.1z" style="fill:#7AFF00;"/><path d="M201,130.8c-8-0.4-16-0.8-24.1-1.1c-1.8-0.1-2.6-0.5-2.2-2.5c0.3-2.2,0.2-4.4,0.6-6.5    c0.5-2.7-0.7-3.3-3-3.3c-3.5-0.1-7-0.5-10.5-0.6c-1.7-0.1-2.1-0.7-1.9-2.5c0.6-5.4,1-10.8,1.4-16.2c0.3-3.9,0.5-4.2,4.3-3.8    c9.6,1.1,19.2,1.4,28.8,1.9c1.8,0.1,3.5,0,5.3,0c1.7-0.1,3.5,0.3,4.9,1.3c1.3,1.2,3.2,1.5,4.8,0.9c2.9-1,5.6,0.4,7.8,2.9    c2.8,3.2,3.4,7,4.4,10.9c0.6,2.3,1.6,4.6,1.7,7.1c0.2,3.7,1.3,7.3,3.3,10.4c1.1,1.9-0.9,1.3-1.6,1.3c-6.4,0-12.7-0.1-19.1-0.1    L201,130.8L201,130.8z" style="fill:#7AFF00;"/><path d="M187.8,60.8c11.4,0.4,19.5,1,27.6,0.8c0.8,0,1.7-0.2,2.1,0.5s-0.5,1.2-1,1.8    c-1.6,1.7-0.1,3.2,0.9,4c0.9,0.6,1.3,1.7,1.2,2.7c0,5.8,0.6,11.7-0.4,17.3c-0.6,3.4,1.3,6.8-0.7,10c-0.5,0.8-0.6,1.5-1.7,0.9    c-2.8-1.5-5.5-2.5-8.7-1c-0.5,0.2-1.8-0.6-2.3-1.2c-1.1-1.4-2.6-1.3-4-1.3c-12.3-0.2-24.6-1-36.8-2c-1.6-0.1-2.6-0.2-2.3-2.4    c1-9.5,1.8-19,2.4-28.5c0.2-2.3,0.7-3.1,3.2-2.9C175.2,60.1,183.1,60.5,187.8,60.8z" style="fill:#7AFF00;"/><path d="M208.8,60.5c-12.4-0.6-24.7-0.8-37.1-1.9c-2.3-0.2-5.4,0.6-6.8-0.9s0-4.5,0.2-6.8    c0.6-8.7,1.4-17.3,2-26c0.2-2.2,1.6-1.7,2.8-1.6c11.1,1,22.2,1.5,33.3,1.9c2.5,0.1,5,0.1,7.5,0.1c2.9,0,3.7,0.9,3.4,3.9    c-0.4,3.6,0,7.3,1.3,10.7c1.1,3,0.4,6.3,0.7,9.5c0.2,2.7,0.7,5.4,1.4,8.1c0.9,2.7,0.5,3-2.3,3L208.8,60.5z" style="fill:#7AFF00;"/><path d="M258.5,124.9c-1.2-2-2.8-2-4.7-1.8c-9.2,0.8-18.4,1.1-27.6,0.8c-1.3,0-1.7-0.7-1.8-1.9    c-0.3-3.2-0.8-6.5-1.7-9.6c-1.1-4.6-2.7-8.9-4.1-13.3c-0.3-0.9,0.2-1.5,0.5-2.1c0.6-1.3,0.7-2.8,0.2-4.1c-0.6-1.7-0.2-2.3,1.7-2.3    c10.6,0.3,21.1-0.4,31.6-0.6c1.3,0,2.7-0.2,4-0.3c1.3-0.1,2.5,0.9,2.5,2.3c0,0.2,0,0.4,0,0.6c-0.5,3,0.5,5.2,3.2,6.8    c1.2,0.7,1.5,2.2,2.6,3.2c0.7,0.6,1.2,1.7,2,2.4c0.7,0.7,0.9,1.7,0.5,2.6c-0.9,2.4-1.7,4.7-4.7,5.3c-2.1,0.4-2.6,1.8-1.6,3.7    s0.4,5-1.2,6C259.1,123.1,258.6,124,258.5,124.9z" style="fill:#7AFF00;"/><path d="M259.1,49c0.4,1.5-0.8,2.7-0.4,4.1c2.4-1,4.5-0.5,5.8,1.8c0.4,0.6,1,1,1.7,1    c4.1,0.5,7.7,2.9,11.8,3c1.9,0,1.2,2.2,2.9,2.3c2,0.2,1.2,1.9,1,3.2c-0.2,1.5,1.7,2,1.7,3.6c0,0.7,0.4,1.1-0.4,1.8    c-1.1,1.1-1.3,2.8-1.7,4.3c-0.1,0.5-0.2,1,0.4,1.2s1,0.4,1.5-0.4c0.7-0.8,1.2-1.6,1.6-2.5c0.1-0.4,0.6-0.6,1-0.5    c0.5,0.2,0.4,0.7,0.2,1c-1.3,2.6-1.3,5.6-1.4,8.2c-0.2,4.8-2.2,9.8,0.3,14.6c0.9,1.8,0.2,3.1-2.2,3.2c-5.8,0.2-11.5,0.7-17.3,0.9    c-2.9,0.1-6.1-3.9-5.4-6.7c0.4-1.1,0.2-2.3-0.5-3.1c-0.6-0.9-0.5-2.4-0.7-3.6c-0.1-1.7-1.1-3.3-2.7-4c-0.9-0.4-1.7-1.1-2.2-2    c-1-2.2-3.1-3.1-5-4.1c-1.4-0.7-2.2-1.6-2.1-3.3s-0.3-3.8,0.5-5.7c0.3-0.7,0.1-1.6-0.5-2.1c-2-2-0.5-3.5,0.9-4.3    c1.6-0.8,2.4-2.6,2-4.4c-0.1-1-0.1-2-0.2-3c-0.1-0.8,0.4-1.5,1-1.5C254,52.3,256.2,50.1,259.1,49z" style="fill:#7AFF00;"/><path d="M265.6,101.2c6-0.3,12-0.7,18-1.1c0.9,0,1.6,0,1.6,1.2c0,1.7,1.3,2.8,1.8,4.3    c2,5.6,1.5,11.5,2.2,17.3c0.4,3,0.6,6.1,0.9,9.2c0.2,1.4,0.2,2.8-0.1,4.2c-0.4,1.2-0.3,2.4,0.2,3.5c1.1,2,1,4.5-0.5,6.4    c-2.2,3.3-2.2,7.2-2.5,10.9c0,0.6,0.1,1.1-0.7,1.3c-2.5,0.6-2.3,2.3-1.4,4.3c-2.1-0.6-4-2.3-5.9,0.1c-0.4,0.6-1.7-0.1-1.6-1.2    c0.1-3.8-1.5-6.4-5-8.1c-3.3-1.7-3.5-2.8-2.2-6.5c1.3-4,0.6-5-3.4-4.9c-0.6,0-0.9-0.2-0.8-0.5c0.4-3.4-2.6-4.7-4.3-6.6    c-2.5-2.8-3.3-5.4-2.2-9.2c0.6-2.1,2.3-3.5,2.8-5.6c0.3-1.5,0.6-2.7-0.3-3.9c-1.2-1.5-0.2-2.3,1-2.5c3.5-0.5,4.4-3.3,5.3-6    c0.6-1.4,0.2-3-1-3.9C266.6,103.4,265.9,102.3,265.6,101.2z" style="fill:#7AFF00;"/><path d="M359.7,79.1c1.5,0.2,2.9,0.3,4.4,0.3c3.8-0.3,5.1-3.4,7.5-5.1c0.2-0.2,0.5-0.7,0.4-0.9    c-1.1-1.8,0.6-4.3-1.2-6c-0.3-0.3-0.4-0.5-0.1-0.8c2.4-2.7,2.9-6.5,5.4-9.2c1.7-1.7,4-2.8,6.5-3c2-0.3,4.5-2.2,5.7-0.9    s1.5,3.8,1.7,5.8c0.3,2.7,0.8,5.5,1.4,8.1c0.4,1.6,1.9,2.2,2.3,3.8c1.8,6.9,1.2,14.1,2.8,21c0.5,1.9,1.2,3.9,0.1,6    c-0.5,0.9-0.4,0.8-1.2,0.6c-3-0.9-5.7-2.7-8.6-3.7c-0.7-0.3-0.9-1-1.1-1.6c-1.2-3.1-3-3.9-6.1-3.3c-9.7,2-19.4,3.9-29.1,5.8    c-0.5,0.1-1.4,0.6-1.7-0.4c-0.4-0.9-0.2-1.9,0.4-2.6c1.5-1.6,2.8-3.2,3.9-5c1.3-2.1,0.5-3.6-0.7-5c-0.9-1.1-0.8-1.4,0.3-2    C354.9,79.9,357.3,79.2,359.7,79.1z" style="fill:#7AFF00;"/><path d="M347.5,95c-0.2,3.4,1.8,2.4,3.3,2.2c9.6-1.8,19.2-3.7,28.8-5.7c2.7-0.5,4,0.2,5,2.8    c0.3,0.8,0.7,1.8,1.5,1.9c2.2,0.2,1.6,1.6,1,2.6c-1.2,2-0.9,4.2-1.2,6.2c-0.3,1.8,1.5,2.5,2.3,3.6c0.6,0.9,2.5,1.5,2,2.4    c-1,1.6-1.7,3.5-3.8,4.4c-11.9,5.2-24.8,5.6-37.2,8.3c-1.1,0.2-1.9,0.4-2.1-1.3c-1.1-7.5-2.5-15-3.8-22.5c-0.5-2.5,2-2.8,3-4.1    C346.7,95.5,347.1,95.2,347.5,95z" style="fill:#7AFF00;"/><path d="M342,99.1c0.8,4.4,1.9,8.5,2.1,12.7c0.2,4.5,0.5,9.2-0.6,13.6c-0.3,1.3-0.8,4-3.5,3.5    c-0.2,0-0.5,0.1-0.6,0.4c-1.6,2.5-3.1,5.1-4.7,7.6c-0.6,1.1,0,2.3-0.5,3.5s-0.8,2-2.1,0.7c-0.4-0.4-1.2-0.5-1.4-0.9    c-1-2.2-1.7-1.7-3.3-0.3c-1,0.9-3.3,0.3-4.8,0.1c-1.8-0.3-4.1-0.6-4.8-3c-0.1-0.3-0.8-1.3-1.5-1.1c-2.6,0.9-2.5-1-2.7-2.6    c-0.9-8.2-1.8-16.5-2.8-24.7c-0.2-1.6,0.2-2.1,1.6-2.3c2.2-0.3,4.5-0.7,6.7-1c1.4-0.2,3,0,3.8,0.9c2.5,3,5,1.2,7.8,0.7    c3.4-0.7,5.4-2.9,7.5-5.2C339.4,100.8,340.6,99.9,342,99.1z" style="fill:#7AFF00;"/><path d="M295.7,106.6c1-4,2.7-7.3,2.4-11c-0.2-1.9-0.1-4-1.2-5.6c-2-3.1-1.8-6.6-2.3-10    c-0.2-1.5,1.3-2.8,1.2-4.5c-0.1-1.6,0.1-3.2,0.7-4.7c0.4-0.9,0.8-1.6,1.5-1.7c1-0.2,0.8,0.8,0.9,1.3s0.5,0.6,0.9,0.7    c0.5,0.1,1-0.2,1.2-0.7c0.4-0.9,0.6-2,0.5-3c-0.3-2-0.2-3.6,2.3-4.1c0.6-0.1,1.2-0.9,0.1-1.4s-1-1.2-0.5-2.2s1.2-1.2,2.2-0.7    c2.6,1.2,5.3,2.3,7.9,3.4c1.2,0.5,2,1.3,1.3,2.7c-0.3,0.6-0.2,1.4,0.2,1.9c1.9,2.4,1.9,4.8,0.5,7.6c-0.7,1.3-0.7,2.8-2.1,4    c-0.9,0.7-0.9,2.8,0.6,3.9s2.4,0.3,3.3-1.1s0.9-3,2.5-3.9c1-0.5,1.7-0.5,2.3,0.5c0.6,0.9,1,1.9,1.2,3c0.6,3.3,2.4,6.4,2.4,9.9    c0,0.6,0.4,1.7-1,1.2c-0.5-0.2-0.8,0.3-0.9,0.7c-0.4,2.5-2.3,4.5-2.5,7.1s-1.1,4.3-4.1,4.7C310.1,105.5,303.1,105.2,295.7,106.6z" style="fill:#7AFF00;"/><path d="M330,164c3.3-3.2,5.2-7.6,9-10.2c1.8,2.4,2.7,2.1,5.4,1.4c2.4-0.6,4.1-1.9,6.2-2.9s3.3-1.9,3-4.8    c-0.2-1.8,1.8-3.8,2.1-6c0.1-0.7,0.4-1.4,0.7-2.1c0.3-0.7,0.5-1.8,1.8-0.9c0.5,0.4,1.3,0.4,1.7-0.2c0.2-0.2,0.3-0.5,0.3-0.8    c0.2-2.6,2.3-3.9,3.5-5.9c0.9-1.2,1.5-2.6,1.6-4.1c0-1.6,0.5-1.8,1.7-0.9c0.4,0.3,0.9,0.5,1.3,0.8c1.1,0.8,2,1.1,2-0.8    c0-0.4-0.1-0.9,0.5-1c0.2,0,0.6,0.2,0.6,0.3c-0.1,2.2,2,2.1,3.2,2.8c1.5,0.9,1.9,1.5,0.6,3c-0.8,0.9-0.7,2.3-0.5,3.6    c0.1,0.4,0.2,0.9,0.7,0.9c2.8-0.2,5,1.7,7.4,2.6c1.4,0.5,1.8,1.2,1.3,2.8c-0.8-0.6-1.6-1.1-2.3-1.7c-0.5-0.4-1.2-1-1.7-0.4    s0.4,1.1,0.8,1.6c0.5,0.6,1.2,1.2,1.8,1.7c0.7,0.5,1.5,1.1,1.3,2s-1.4-0.4-1.9,0.5c-0.2,0.7,0.9,0.9,0.8,1.6    c-0.3,0.3-0.6,0.2-0.9,0c-0.8-0.4-1,0.1-1.3,0.6c-0.2,0.3-0.2,0.7,0.1,0.9c0.1,0.1,0.3,0.1,0.4,0.1c1.9,0.2,2.8,1.7,4,2.8    c0.7,0.7,1.6,1.5,2.6,0.2c0.4-0.5,0.7-1.3,1.5-0.8s0.6,1.3,0.7,2.1c0,1-0.8,1-1.3,1.1c-4.5,0.9-9,1.8-13.5,2.8    c-9.5,2.1-19.1,3.7-28.7,4.7C340.9,162.3,335.6,163.5,330,164z" style="fill:#7AFF00;"/><path d="M424.4,50.7c-0.9-0.8-0.5-1.5-0.7-2c-0.3-0.8-0.9-1.4-1.6-1.2s0.1,1,0,1.4    c-0.6,1.9-0.2,3.8-0.3,5.7c0,0.6,0,1.2-1,1c-0.4-0.1-1-0.1-1,0.4c-0.4,2.7-1.1,1.8-2.1,0.3c-0.3-0.4-0.7-0.3-1,0.2    c-1.6,3.7-2.2,7.6-3.2,11.5c-1.8-0.8-2.2-2.4-2.8-4.2c-1.6-5.2-3.1-10.5-5-15.7c-0.8-2.2-0.1-3.5,1.4-4.7c0.2-0.2,0.8-0.2,0.5-0.5    c-1.6-1.6-0.1-2.7,0.4-4.2c0.4-1.3,0.4-2.7,0.2-4c-0.9-6,0.5-11.8,2.5-17.6c1,0.7,1,2.1,2.3,2.2s1.6-1,2.4-1.5    c1.5-1.3,3.8-1.2,5.1,0.3c0.4,0.4,0.6,1,0.8,1.5c1.4,4.3,2.7,8.6,4,12.9c0.3,0.9,0.4,1.6,1.6,1.8c1.5,0.2,2.1,1.5,2.5,3    c0.3,1.2,0.8,2.5,2.5,1.7c0.6-0.3,0.7,0.3,0.9,0.5c0.6,0.7-0.1,2,1.3,2.4c0.4,0.1-0.2,1.2-0.4,1.2c-2.8,0.9-4,4.2-7,4.7    C425.4,48.2,424.6,49.2,424.4,50.7z" style="fill:#7AFF00;"/><path d="M276.5,49.4c3.6-2.4,4.5-2.2,7,1.3c1.4,2,6.4,2.3,7.8,0.4c0.9-1.2,2.3-2,3.8-2.1    c1.9-0.1,3.8-0.6,5.4-1.6c0.9,3.7,1.3,3.9,5.3,3.1c1.2-0.2,1.2,0.7,1.4,1.3c0.2,0.9,0.7,1.7,1.4,2.3c-1.1,2-4.4-1.3-4.7,2.3    c-1.2-1.3-3.1-2.4-4.1-1.8c-2.3,1.4-5.4,1.3-7.3,3.5c-0.2,0.3-0.2,0.6-0.8,0.7c-3.2,0.2-5.2,1.8-5.9,5c-0.1,0.5-0.1,1.7-1.3,1.2    c-0.5-0.2-1.1,0-1.2-1.1c-0.2-3.8-2.7-5.9-6.7-6.5c-3.5-0.5-6.8-2.1-10.3-2.8c-1.5-0.3-1.4-2-0.5-3.3c1.6-2.5,5.1-1.6,6.6-4    c0.1-0.2,0.4-0.2,0.7-0.3c0.8-0.3,0.5-2.2,1.8-1.6s1.3,1.8,1.2,3C276.1,48.8,276.4,49.1,276.5,49.4z" style="fill:#7AFF00;"/><path d="M402.3,54.4c-0.1,0.3,0,0.8-0.2,1c-3.4,2.1-1.3,5.5-2.1,8.2c-0.9,3-0.2,5.9,0.2,8.9    c0.2,1.2,0.2,2.4,0,3.7c-0.2,1.3-2.2,0.8-3.4,1.3c-1,0.4-1.1-0.4-1.2-1.1c-0.3-1.1-0.5-2.3-0.6-3.4c-0.1-3-2-5.1-3-7.7    c-0.6-1.2-0.8-2.6-0.5-3.9c0.5-2.6-1.6-4.6-1.8-7.1c-0.1-1.2,0-1.6,1.1-1.9c3.2-0.7,6.3-1.6,9.5-2.4c0.5-0.1,1.4-0.6,1.3,0.4    C401.5,51.7,401.7,53.1,402.3,54.4z" style="fill:#7AFF00;"/><path d="M401.5,73.7c-0.1-0.9-0.3-1.9-0.5-2.8c-0.9-3.2,0.2-6.2,0.2-9.3c0-2.1,0-4,1.8-5.6    c0.7-0.7,0.8-1.7,0.3-2.6c-1.3-2-0.5-4.1-0.7-6.2c0-0.4-0.2-1.1,0.6-1.1s0.8,0.5,1,1c0.9,2.9,1.9,5.7,2.8,8.6    c1.1,3.4,2.2,6.8,3.1,10.3c0.4,1.7,2.3,2.4,2.6,4.2c0.1,0.4,0.5,1,0.2,1.2c-1.9,1.2-2.7,3.8-5.5,3.8c-1.2,0.2-2.5,0.4-3.7,0.8    C401.6,76.4,401.4,76.2,401.5,73.7z" style="fill:#7AFF00;"/><path d="M413,72.7c1.6,1.3,1.5,2.6,0.7,4.2s-1.3,3.1,1.6,3c1.7-0.1,1.7,2.1,2.8,3.1    c0.8,0.7-0.1,1.5-0.7,2.1c-0.6,0.5-1.1,1.2-1.5,1.9c-1-0.9-2.2-1.7-2.8-2.8c-0.8-1.7-1.7-1.7-3.4-1.3c-3.7,1-7.5,1.7-11.2,2.6    c-1.4,0.3-2.2,0.3-2.2-1.7c0-5.4-0.1-5.3,5.4-6.3c2.4-0.4,4.8-1.2,7.3-1.6C411,75.6,411.8,73.9,413,72.7z" style="fill:#7AFF00;"/><path d="M393.8,122.3c-1.6-0.7-3.5-0.5-5-1.7c-2.1-1.6-2.2-3.3-0.2-5c1.6-1.4,2-3.8,3.5-4.7    c-0.9-1.1-1.7-2-2.5-3s-2.4-1.9-2.3-2.7c0.3-2.4,0.2-4.9,1.3-7.1c0.1-0.4,0.5-0.6,0.9-0.4c0,0,0.1,0,0.1,0    c0.5,0.2,0.9,0.3,1.4,0.6c4.2,1.7,4.3,1.7,3.1,6c-0.4,1.3-0.8,2.5,1.3,2.5c0.7,0,1.2,0.5,1.2,1.2c0,0.1,0,0.3-0.1,0.4    c-0.6,1.1-0.1,2.1,0,3.1c0.3,3.1-1,5.6-2.2,8.3C394,120.7,393.9,121.5,393.8,122.3z" style="fill:#7AFF00;"/><path d="M382.5,118.9c-0.2,2.2-2.3,3.2-3.1,5c-0.2,0.4-0.7,0.8-0.2,1.3c2.4,2.4,1.3,5.4,1.4,8.2    c0.1,1.4,1.5,1.2,1.5,2.3c-2.1,0.8-3.1-3.4-6-0.7c0.5-1.8,1-3.5,1.7-5.2c0.5-1.2-0.3-1.8-1-1.8c-2,0-3-1-4.4-2.4s-3-2.2-3.9-4.2    l13.9-2.6L382.5,118.9z" style="fill:#7AFF00;"/><path d="M398.8,97.3c-0.5-2.5-0.9-4.9-1.6-7.3s-0.3-3.3,2.3-3.6c2.4-0.4,4.7-0.9,7-1.7    c1.2-0.3,2.1-0.3,2.3,1.3c0.2,1.4,0.6,2.8,0.8,4.2c0.2,0.9-0.4,1.8-1.3,2c-0.2,0-0.4,0.1-0.6,0c-1.1-0.1-1.9,0.7-2.5,0.8    C402.4,93.4,401.1,96.1,398.8,97.3z" style="fill:#7AFF00;"/><path d="M392.5,132.8c-0.4,1.1-0.8,2.2-1.4,3.2c-0.5,0.7-1.4,0.8-2,0.4c-0.4-0.3-0.6-0.7-0.6-1.1    c-0.1-1.8-0.5-2.4-2.2-1.4c-0.9,0.5-1.4-0.3-1.8-0.9s0.1-1,0.7-1.2s1.1-0.5,0.5-1c-2.2-1.8-0.7-4.8-2.6-6.8    c-0.5-0.5,0.3-1.4,1-1.7c1-0.4,1.1,0.3,1.3,1c0.6,2.2,1.3,4.3,1.7,6.5c0.4,2,1.1,3,3.3,2.1C391.1,131.7,392.3,131.2,392.5,132.8z" style="fill:#7AFF00;"/><path d="M385.8,120.9c1.3,0.6,2.3,1.7,2.7,3.1c0.4,1.5,1.4,2.7,2.8,3.4c0.9,0.5,1.4,1.5,1.1,2.5    c-0.4,1.1-1.8,0.9-2.8,1.1c-1.3,0.3-1.3-0.7-1.5-1.4C387.4,126.7,386.6,123.8,385.8,120.9z" style="fill:#7AFF00;"/><path d="M411.2,90.8c-0.5-2-1-3.8-1.5-5.5c-0.2-0.6-0.3-1.2,0.5-1.3c0.4-0.1,0.8-0.4,1.3,0    C412.7,85.1,412.6,89.7,411.2,90.8z" style="fill:#7AFF00;"/><path d="M360.5,122.9c-1,2.1-3,2.8-3.7,4.8C355.5,123.9,355.5,123.9,360.5,122.9z" style="fill:#7AFF00;"/><path d="M382.4,118.7c1.6-0.4,1.6-0.4,2,1.7l-1.9-1.4L382.4,118.7z" style="fill:#7AFF00;"/></svg>