<svg id="Layer_1" style="enable-background:new 0 0 434.1 295.6;" version="1.1" viewBox="0 0 434.1 295.6" x="0px" xml:space="preserve" xmlns="http://www.w3.org/2000/svg" xmlns:xlink="http://www.w3.org/1999/xlink" y="0px"><path d="M225,124.9c6.1,0,11.5,0.1,16.9,0c4.2-0.1,8.4-0.4,12.5-0.6c2.2-0.1,3.8,1.1,3.6,3.3    c-0.4,4.4,1.8,7.5,4.8,10.2c1.4,1.1,2.3,2.6,2.4,4.4c0.1,1.2,0.5,2.9,2.6,1.3c0.8-0.6,2-0.2,1.9,1.2c0,0.6-0.1,1.1-0.2,1.7    c-1.3,6-1.3,6,4.2,9.4c1.8,1.2,2.9,3.3,2.8,5.4c0,1.9,0.5,3.6,2.5,4.4c1.1,0.5,0.9,2.4-0.2,3.4c-2,1.7-3.3,3.6-3,6.4    c0.1,0.6-0.3,1.2-0.9,1.3c-0.1,0-0.2,0-0.3,0c-1,0-2,0.1-3,0.2c0-1,0.9-1.3,1.2-1.9c0.6-0.7,0.7-1.7,0.3-2.6    c-0.4-0.9-1.4-1.4-2.4-1.2c-11,0.6-22.1,1.1-33.1,1.3c-2.7,0.1-3-0.9-3-3c0-8.5-0.2-17.1-0.3-25.6c0-1.3,0.2-2.5-1.5-3.2    s-2.2-3.8-1.4-5.7c0.6-1.4,0.9-2.6-1.4-2.4c-0.7,0.1-1-0.6-1.3-1C227.6,129.4,226.5,127.4,225,124.9z" style="fill:#0064FD;"/><path d="M235.5,194.6c0,3-0.1,6,0,9c0.1,2-0.8,1.9-2,1.1c-0.5-0.3-0.8-1-1.3-1.1c-1.3-0.4-2.1-2.6-4.3-0.9    c-0.6,0.5-2.9,0.1-4.4,0.2c-0.6,0-1.1,0.2-1.6,0.5c-1.5,1-2.5,1.1-4.1-0.2c-0.7-0.6-2.9-2.2-4.6-0.2c-0.5,0.6-1.3-0.4-2.1-0.3    c-1.7,0.3-3.4-1.8-5.2-0.4c-1.4-3.8-4.9-1.9-7.4-2.8c-1.4-0.5-3.3-0.4-3.8-2.5c-0.2-1-1.4-1-2.4-1c-2.7,0.1-4.1-1.4-4-4.1    c0.3-6,0.5-12,0.8-18c0.1-1.8-0.3-2.4-2.3-2.4c-7-0.3-14-0.9-21-1.2c-2.8-0.1-1.8-1.9-1.9-3.2c-0.2-1.9,1.1-1.6,2.3-1.6    c20,1.4,40.1,1.9,60.2,2c1.8,0,3.7-0.1,5.5-0.1c0.8,0,1.5-0.1,1.5,1.1C233.8,177.2,236.5,185.8,235.5,194.6z" style="fill:#0064FD;"/><path d="M295.5,236.3c-0.4,1-0.6,2.1-0.7,3.2c-0.1,0.6,0.1,1.5-0.9,1.4c-0.8-0.1-1-0.6-1.1-1.4    c-1-8.9-2.1-17.7-1.6-26.7c0.4-7.6,0.3-15.2,0.3-22.8c0-1.8,0.6-2.1,2.1-2.2c5.8-0.4,11.5-0.8,17.2-1.4c1.6-0.2,1.3,1.1,1.5,1.7    c1.8,6.5,3.5,13,5.2,19.5c0.5,2.3,1.4,4.4,2.6,6.4c0.7,1.2,0.9,2.6,0.4,3.9c-1.3,4.4,1,8.5,0.9,13c-6.4,1-13.2,1.7-20.1,2.1    c-0.9,0.1-2.2-0.3-2.6,0.9c-0.5,1.2,0,2.6,1.1,3.2c1.5,0.8,0.7,2.2,0.9,3.2c0.1,0.7-1.1,1.4-1.5,1.4c-0.9-0.1-1.7-0.8-1.8-1.8    C297.5,238.5,296.7,237.1,295.5,236.3z" style="fill:#0064FD;"/><path d="M274.2,188.3c-0.8-2.9,0.7-5.1,1.6-7.4c1.2-2.8,2-5.8,2.1-8.9c0-1,1-0.7,1.6-0.7    c3.1-0.3,6.2-0.5,9.3-0.7c0.8-0.1,1.8,0.1,1.6-1.2c-0.1-1,0.6-0.7,1.1-0.8c5.6-0.5,11.2-1,16.7-1.5c11.2-0.7,22.3-2,33.3-3.8    c1.7-0.3,1.3,0.6,1,1.3c-0.5,1.1-1.4,2.8-1.9,3c-1.6,0.4-2.6,2-4.1,2c-1.2,0-2.2,0.7-2.8,1.7c-1.4,2.7-3.8,4.7-6.8,5.4    c-0.5,0.1-1.1,0.5-1.2,0.9c-0.3,2.3-3.3,3-3.1,5.6c0,0.9-0.9,0.9-1.5,0.9c-9.2,1-18.5,1.9-27.7,2.6    C287,187.2,280.4,188.1,274.2,188.3z" style="fill:#0064FD;"/><path d="M299.6,154.6c0.4-1.4,1.7-2.1,2-3.5c0.2-1.2,0.9-0.4,1.5-0.2c1.6,0.4,3.3,0.8,3.2-1.8    c0-1.5,1.6-2.1,2.2-3.4c0.8-1.1,1.1-2.5,0.9-3.9c1.7,1.1,2.6-0.4,3.7-0.7c2-0.6,1.1-1.8,0.8-3c-0.1-0.6-0.2-0.9,0.6-0.9    c1.3,0.1,2.6,0,3.1,1.5c0.4,1.3,1.5,1.2,2.4,1.7c2.1,1.1,4.2,0.4,6.3,0.9c0.4,0.1,0.8,0.1,1.2-0.1c2.6-0.9,4.4,0.5,4.5,3.4    s2.1,4.9,4,6.6c1.5,1.3,1.7,2.2,0.3,3.1c-2.4,1.6-3.7,4.2-5.4,6.3c-2.6,3.2-6.1,4-9.8,4.3c-9.5,0.8-19,1.2-28.5,2.4    c-0.8,0-1.7,0-2.5-0.1c-0.5,0-1-0.1-1.4,0.4s1,1.6-0.4,1.8c-2.4,0.3-4.8,0.4-7.2,0.5c-0.1,0-0.4-0.1-0.4-0.2    c-0.1-2.3,0-4.5,0.3-6.8c0.1-0.7,1.5,0.1,2.2,0.3s1.6,1.3,2.5,0.4s0.5-1.6,0.1-2.5c-0.7-1.4,0.7-1.5,1.4-1.8    c1.1-0.5,2.4-0.8,1.2-2.4c-0.4-0.5,0-0.9,0.3-1.3c1.2-1.6,4.7-2.5,6.5-1.6c0.7,0.4,1.2,0.6,1.6-0.2c0.3-0.6,0.3-1.6,1.4-1.3    C299.2,152.9,299.8,153.8,299.6,154.6z" style="fill:#0064FD;"/><path d="M362.5,207.2l-1.3-2.8c-1.1,0.8,0.9,2.2-1,2.7c-0.9,0.2-1.5,2.5-2.8-0.4c-0.1,1.6,0.1,3.2,0.8,4.6    c0.3,0.7,0,1.6-0.7,1.9c-0.8,0.3-0.8-0.7-1.2-1.2c-2.5-3.5-3.8-7.8-7.6-10.5c-1.8-1.3-2.8-3.6-4.8-5c-2.8-1.9-5.1-4.5-6.6-7.6    c-0.3-0.7-1.3-0.4-1.7-0.8c-0.9-0.7-2.7-0.9-2.6-1.9c0.1-1.4,0.9-2.7,2.2-3.4c2.7-1.4,5.3-3.1,8.6-3.1c1.8,0,3.5-0.6,5.2-0.4    s3.9,0.2,4.4,2.6c0.2,1.1,1,0.6,1.6,0.6c1.9-0.2,3.8-0.5,5.7-0.9c1.9-0.6,3.9,0,5.2,1.4c2.3,2,4.8,3.9,7.3,5.8    c0.9,0.7,1,1.2,0.2,2.1c-2.3,2.4-2.9,5.6-3.9,8.7c-0.1,0.4-0.2,0.9-0.6,0.8c-1.9-0.4-2.3,2.1-4,1.9c-0.6-0.1-0.3,0.6-0.3,1    C364.8,205.9,364.8,205.9,362.5,207.2z" style="fill:#0064FD;"/><path d="M345.2,119.9c1.2,5.3,1.2,5.3,6.4,4.4c3.2-0.5,3.1-0.5,3.6,2.8c0.1,1,0.4,2,0.6,3.3    c1.5-1.9,3.1-3.6,4.9-5.3c1.1-1,2.1-0.3,3.2-0.4c0.8,0,0.5,1.1,0.4,1.7c-0.4,2.5-0.7,4.9-3.6,6c-1,0.4-0.8,2.2-1.2,3.4    s-0.3,2.7-2,0.9c-1.1-1.1-1.8-0.5-2,0.9c-0.4,2.9-1.2,5.7-2.5,8.2c-0.5,0.7-0.8,1.5-0.7,2.4c0.3,1.4-0.4,1.8-1.4,2.5    s-2.9,0.6-3.5,2.3c-0.4,0.6-1.2,0.8-1.8,0.4c-1-0.8-1.4-0.2-1.9,0.6c-0.4,0.7-1.3,1-2,0.6c-0.2-0.1-0.4-0.3-0.5-0.4    c-1.4-3-5.1-3.6-6.4-6.5c-0.9-2-2.8-3.6,0.2-5.7c1.1-0.9,1.5-2.4,1-3.8c-0.3-0.7,0.2-1.7,0.4-2.6c0.7,0.1,0.3,1.5,1.1,1    c0.6-0.3,1.6-0.6,1.4-1.8c-0.5-2.4,0.8-3.6,2.9-4.8c2.9-1.7,3.5-5,3.6-8.2C345.1,121.2,345.2,120.6,345.2,119.9z" style="fill:#0064FD;"/><path d="M369.1,126.7c-0.6-0.3-1-0.6-1.5-0.8c-1.1-0.7-2.2-1.4-3.4-2.1c0.9-1.3,2.1-1.7,3.2-0.9    S369.7,124.7,369.1,126.7z" style="fill:#0064FD;"/></svg>