<svg xmlns="http://www.w3.org/2000/svg" xmlns:xlink="http://www.w3.org/1999/xlink" version="1.1" id="Layer_1" x="0px" y="0px" viewBox="0 0 200 200" style="enable-background:new 0 0 200 200;" xml:space="preserve"><path style="fill:none;stroke:red;stroke-width:0.0001px" d="M71.5,174.1c15.5,5.9,32.4,6.9,48.5,2.7c-14.3-7.4-26.2-18.8-34.2-32.8  C76.2,150.9,70.8,162.3,71.5,174.1z"/><path style="fill:none;stroke:red;stroke-width:0.0001px" d="M34.8,59.9C45,74.3,59.1,85.5,75.5,92.1c1.4-10.7,4.8-21,10.1-30.4C69.1,56.5,51.6,55.8,34.8,59.9z"/><path style="fill:none;stroke:red;stroke-width:0.0001px" d="M139.2,31c-2.7-1.5-5.4-2.9-8.3-4.1C114,33.1,99.6,44.7,90,60c12.3,4.4,23.7,11.3,33.3,20.2  C133.2,65.7,138.7,48.6,139.2,31z"/><path style="fill:none;stroke:red;stroke-width:0.0001px" d="M174.2,71.8c-10.6,10.6-23.7,18.5-38,22.8c-3.2-4.4-6.7-8.5-10.7-12.4c10.1-14.6,15.8-31.8,16.6-49.6  C156.8,41.9,168,55.6,174.2,71.8z"/><path style="fill:none;stroke:red;stroke-width:0.0001px" d="M107.1,21V0H94.5v20.9c-6.8,0.5-13.6,1.8-20.1,4c-17,5.8-31.5,17.2-41.2,32.3  C51,52.7,69.7,53.4,87.1,59c9.3-15.2,23.2-27,39.7-33.7C120.4,23,113.8,21.6,107.1,21z"/><path style="fill:none;stroke:red;stroke-width:0.0001px" d="M23.1,119.8c17.5,4.7,36,4.3,53.3-1.1c1.5,7.9,4.2,15.5,8,22.7c-10.2,7.2-16.2,19-15.9,31.5  C46,163.1,29.3,143.5,23.1,119.8z"/><path style="fill:none;stroke:red;stroke-width:0.0001px" d="M78.4,93.2c9.1,3.3,18.7,5.1,28.3,5.4c5.6-4.7,10.6-10,14.8-15.9c-9.5-8.9-20.8-15.7-33.1-20  C83.1,72,79.7,82.4,78.4,93.2z"/></svg>