<svg id="Layer_1" style="enable-background:new 0 0 200 200;" version="1.1" viewBox="0 0 200 200" x="0px" xml:space="preserve" xmlns="http://www.w3.org/2000/svg" xmlns:xlink="http://www.w3.org/1999/xlink" y="0px"><path d="M58.182,32.546c-6.638,4.115-12.632,9.186-17.788,15.051c10.294-0.29,20.546,1.435,30.178,5.078   C67.398,45.423,63.228,38.648,58.182,32.546z" style="fill:none;stroke:red;stroke-width:0.0001px"/><path d="M118.919,106.029c20.779-1.918,41.019-7.687,59.687-17.013c3.34,23.89-4.366,48.003-20.941,65.529   c-7.907-12.514-21.579-20.21-36.379-20.48C122.18,124.653,121.379,115.158,118.919,106.029z" style="fill:none;stroke:red;stroke-width:0.0001px"/><path d="M79.503,176.684c5.845,1.562,11.849,2.452,17.896,2.65c11.126-11.555,18.313-26.333,20.534-42.22   c-10.179,0.635-19.757,5.041-26.863,12.357C83.963,156.788,79.839,166.49,79.503,176.684z" style="fill:none;stroke:red;stroke-width:0.0001px"/><path d="M72.139,56.506c-10.84-4.567-22.592-6.556-34.332-5.812c-7.415,9.352-12.625,20.255-15.244,31.899   c16.722,9.395,34.952,15.806,53.874,18.945C79.09,86.414,77.605,70.855,72.139,56.506z" style="fill:none;stroke:red;stroke-width:0.0001px"/></svg>