<svg id="Layer_1" style="enable-background:new 0 0 200 200;" version="1.1" viewBox="0 0 200 200" x="0px" xml:space="preserve" xmlns="http://www.w3.org/2000/svg" xmlns:xlink="http://www.w3.org/1999/xlink" y="0px"><path d="M75.926,58.225c4.825,14.066,6.013,29.125,3.453,43.774c11.799,1.739,23.753,2.195,35.651,1.36   C108.695,83.612,94.569,67.308,75.926,58.225z" style="fill:none;stroke:red;stroke-width:0.0001px"/><path d="M75.872,104.461c-18.919-3.148-37.16-9.509-53.933-18.808c-4.651,25.294,3.242,51.273,21.177,69.705   C59.851,142.946,71.551,124.875,75.872,104.461z" style="fill:none;stroke:red;stroke-width:0.0001px"/><path d="M58.182,32.546c-6.638,4.115-12.632,9.186-17.788,15.051c10.294-0.29,20.546,1.435,30.178,5.078   C67.398,45.423,63.228,38.648,58.182,32.546z" style="fill:none;stroke:red;stroke-width:0.0001px"/></svg>