<svg id="Layer_1" style="enable-background:new 0 0 200 200;" version="1.1" viewBox="0 0 200 200" x="0px" xml:space="preserve" xmlns="http://www.w3.org/2000/svg" xmlns:xlink="http://www.w3.org/1999/xlink" y="0px"><path d="M118.919,106.029c20.779-1.918,41.019-7.687,59.687-17.013c3.34,23.89-4.366,48.003-20.941,65.529   c-7.907-12.514-21.579-20.21-36.379-20.48C122.18,124.653,121.379,115.158,118.919,106.029z" style="fill:none;stroke:red;stroke-width:0.0001px"/><path d="M79.503,176.684c5.845,1.562,11.849,2.452,17.896,2.65c11.126-11.555,18.313-26.333,20.534-42.22   c-10.179,0.635-19.757,5.041-26.863,12.357C83.963,156.788,79.839,166.49,79.503,176.684z" style="fill:none;stroke:red;stroke-width:0.0001px"/><path d="M72.139,56.506c-10.84-4.567-22.592-6.556-34.332-5.812c-7.415,9.352-12.625,20.255-15.244,31.899   c16.722,9.395,34.952,15.806,53.874,18.945C79.09,86.414,77.605,70.855,72.139,56.506z" style="fill:none;stroke:red;stroke-width:0.0001px"/><path d="M78.816,104.924c12.274,1.819,24.712,2.274,37.086,1.356c2.482,8.958,3.301,18.295,2.416,27.549   c-10.85,0.804-21.113,5.449-28.828,13.142c-7.716,7.694-12.381,17.949-12.931,28.865c-11.712-3.62-22.426-9.904-31.302-18.359   C62.473,144.633,74.406,125.945,78.816,104.924z" style="fill:none;stroke:red;stroke-width:0.0001px"/></svg>