<svg height="18in" version="1.1" width="32in" x="0px" xml:space="preserve" xmlns="http://www.w3.org/2000/svg" xmlns:xlink="http://www.w3.org/1999/xlink" y="0px"><g transform="translate(33.18649408080918 32.73649408080918) rotate(-45 79.35 79.8)"><path d="M55.8,98.9c-17.3,5.5-35.8,5.9-53.3,1.1c6.1,23.7,22.9,43.3,45.4,53.1c-0.3-12.5,5.7-24.3,15.9-31.5   C60,114.4,57.3,106.8,55.8,98.9z" style="fill:none;stroke:red;stroke-width:0.0001px"/><path d="M55.8,98.9c-17.3,5.5-35.8,5.9-53.3,1.1c6.1,23.7,22.9,43.3,45.4,53.1c-0.3-12.5,5.7-24.3,15.9-31.5   C60,114.4,57.3,106.8,55.8,98.9z" style="fill:none;stroke:red;stroke-width:0.0001px"/><path d="M54.6,75.4c-17.6-6.9-32.8-18.9-43.5-34.5l-0.7,0.2C0.8,58-2.3,77.7,1.7,96.7   c17.5,5.1,36.2,4.8,53.5-0.8C54.2,89.1,53.9,82.2,54.6,75.4z" style="fill:none;stroke:red;stroke-width:0.0001px"/><path d="M54.6,75.4c-17.6-6.9-32.8-18.9-43.5-34.5l-0.7,0.2C0.8,58-2.3,77.7,1.7,96.7   c17.5,5.1,36.2,4.8,53.5-0.8C54.2,89.1,53.9,82.2,54.6,75.4z" style="fill:none;stroke:red;stroke-width:0.0001px"/><path d="M69.4,40.2c12.3,4.4,23.7,11.3,33.3,20.2c9.9-14.5,15.4-31.6,15.9-49.2c-2.7-1.5-5.4-2.9-8.3-4.1   C93.3,13.3,78.9,24.9,69.4,40.2z" style="fill:none;stroke:red;stroke-width:0.0001px"/><path d="M69.4,40.2c12.3,4.4,23.7,11.3,33.3,20.2c9.9-14.5,15.4-31.6,15.9-49.2c-2.7-1.5-5.4-2.9-8.3-4.1   C93.3,13.3,78.9,24.9,69.4,40.2z" style="fill:none;stroke:red;stroke-width:0.0001px"/><path d="M122.4,146.9c-1.8-12.4-9.6-23.1-20.9-28.5c-11.3-5.4-24.5-4.8-35.3,1.5c-3.6-6.9-6.2-14.3-7.6-22   c10.4-3.7,20-9.1,28.5-16.1c9.2,0.2,18.3-1,27.2-3.5c12.6,18.2,18.5,40.2,16.5,62.3" style="fill:none;stroke:red;stroke-width:0.0001px"/><path d="M122.4,146.9c-1.8-12.4-9.6-23.1-20.9-28.5c-11.3-5.4-24.5-4.8-35.3,1.5c-3.6-6.9-6.2-14.3-7.6-22   c10.4-3.7,20-9.1,28.5-16.1c9.2,0.2,18.3-1,27.2-3.5c12.6,18.2,18.5,40.2,16.5,62.3" style="fill:none;stroke:red;stroke-width:0.0001px"/><path d="M104.9,62.5c3.9,3.8,7.4,7.9,10.7,12.4c14.4-4.4,27.4-12.2,38-22.8c-6.1-16-17.3-29.8-32.1-39.1   C120.7,30.7,115,47.9,104.9,62.5z" style="fill:none;stroke:red;stroke-width:0.0001px"/><path d="M104.9,62.5c3.9,3.8,7.4,7.9,10.7,12.4c14.4-4.4,27.4-12.2,38-22.8c-6.1-16-17.3-29.8-32.1-39.1   C120.7,30.7,115,47.9,104.9,62.5z" style="fill:none;stroke:red;stroke-width:0.0001px"/><path d="M57.8,73.4c9.1,3.3,18.7,5.1,28.3,5.4c5.6-4.7,10.6-10,14.9-15.9c-9.5-8.9-20.8-15.7-33.1-20   C62.5,52.2,59,62.6,57.8,73.4z" style="fill:none;stroke:red;stroke-width:0.0001px"/><path d="M57.8,73.4c9.1,3.3,18.7,5.1,28.3,5.4c5.6-4.7,10.6-10,14.9-15.9c-9.5-8.9-20.8-15.7-33.1-20   C62.5,52.2,59,62.6,57.8,73.4z" style="fill:none;stroke:red;stroke-width:0.0001px"/></g></svg>