<svg height="18in" version="1.1" width="32in" x="0px" xml:space="preserve" xmlns="http://www.w3.org/2000/svg" xmlns:xlink="http://www.w3.org/1999/xlink" y="0px"><g transform="translate(33.18649408080918 32.73649408080918) rotate(-45 79.35 79.8)"><path d="M54.9,72.3c-16.4-6.6-30.6-17.8-40.8-32.2c16.8-4,34.3-3.4,50.8,1.8C59.7,51.3,56.3,61.6,54.9,72.3z   " style="fill:none;stroke:red;stroke-width:0.0001px"/><path d="M54.9,72.3c-16.4-6.6-30.6-17.8-40.8-32.2c16.8-4,34.3-3.4,50.8,1.8C59.7,51.3,56.3,61.6,54.9,72.3z   " style="fill:none;stroke:red;stroke-width:0.0001px"/><path d="M99.4,157c-16,4.2-33,3.2-48.5-2.7c-0.7-11.8,4.7-23.2,14.3-30.1C73.2,138.2,85,149.6,99.4,157z" style="fill:none;stroke:red;stroke-width:0.0001px"/><path d="M99.4,157c-16,4.2-33,3.2-48.5-2.7c-0.7-11.8,4.7-23.2,14.3-30.1C73.2,138.2,85,149.6,99.4,157z" style="fill:none;stroke:red;stroke-width:0.0001px"/></g></svg>