<svg height="18in" version="1.1" width="32in" x="0px" xml:space="preserve" xmlns="http://www.w3.org/2000/svg" xmlns:xlink="http://www.w3.org/1999/xlink" y="0px"><g transform="translate(33.18649408080918 32.73649408080918) rotate(-45 79.35 79.8)"><path d="M54.6,75.4c-17.6-6.9-32.8-18.9-43.5-34.5l-0.7,0.2C0.8,58-2.3,77.7,1.7,96.7   c17.5,5.1,36.2,4.8,53.5-0.8C54.2,89.1,53.9,82.2,54.6,75.4z" style="fill:none;stroke:red;stroke-width:0.0001px"/><path d="M54.6,75.4c-17.6-6.9-32.8-18.9-43.5-34.5l-0.7,0.2C0.8,58-2.3,77.7,1.7,96.7   c17.5,5.1,36.2,4.8,53.5-0.8C54.2,89.1,53.9,82.2,54.6,75.4z" style="fill:none;stroke:red;stroke-width:0.0001px"/><path d="M54.6,75.4c-17.6-6.9-32.8-18.9-43.5-34.5l-0.7,0.2C0.8,58-2.3,77.7,1.7,96.7   c17.5,5.1,36.2,4.8,53.5-0.8C54.2,89.1,53.9,82.2,54.6,75.4z" style="fill:none;stroke:red;stroke-width:0.0001px"/></g></svg>