<svg height="18in" id="Layer_1" version="1.1" width="32in" x="0px" xml:space="preserve" xmlns="http://www.w3.org/2000/svg" xmlns:xlink="http://www.w3.org/1999/xlink" y="0px"><g transform="translate(126.74935008616711 126.74935008616711) rotate(-45 306.0 306.0)"><path d="M175.4,344.4c-0.5-0.9-1.1-1.7-1.6-2.6c-9.7-16.2-19.4-32.4-29.2-48.4c-1-1.6-1.1-3.1-0.7-4.9  c2.4-9.3,4.8-18.5,7.1-27.8c0.6-2.1,0.8-2.3,3-1.7c12.7,3.3,25.5,6,38.4,8.6c2.4,0.6,2.4,0.4,1.9,2.9c-3.5,18-7,36-10.5,53.9  c-0.6,2.4-0.8,4.9-1.2,7.4c-0.1,0.6-0.3,1.3-0.5,1.9c-0.1,0.7-0.5,0.9-1.1,0.3c-1.1-1-2.4-1.1-3.7-0.5c-1.3,0.5-1.3,1.8-1.3,3  c-0.1,2.7-0.8,5.4-0.2,8.1C175.8,344.3,175.6,344.3,175.4,344.4z" style="fill:none;stroke:red;stroke-width:0.0001px"/><path d="M175.4,344.4c-0.5-0.9-1.1-1.7-1.6-2.6c-9.7-16.2-19.4-32.4-29.2-48.4c-1-1.6-1.1-3.1-0.7-4.9  c2.4-9.3,4.8-18.5,7.1-27.8c0.6-2.1,0.8-2.3,3-1.7c12.7,3.3,25.5,6,38.4,8.6c2.4,0.6,2.4,0.4,1.9,2.9c-3.5,18-7,36-10.5,53.9  c-0.6,2.4-0.8,4.9-1.2,7.4c-0.1,0.6-0.3,1.3-0.5,1.9c-0.1,0.7-0.5,0.9-1.1,0.3c-1.1-1-2.4-1.1-3.7-0.5c-1.3,0.5-1.3,1.8-1.3,3  c-0.1,2.7-0.8,5.4-0.2,8.1C175.8,344.3,175.6,344.3,175.4,344.4z" style="fill:none;stroke:red;stroke-width:0.0001px"/><path d="M274.8,245.3c-0.8,9.7-1.7,19.4-2.5,29.1c-0.4,3.9-0.9,7.7-0.8,11.6c0,2.3-0.3,2.3-2.6,2.1  c-8.5-0.8-17.1-1.7-25.6-2.8c-7.6-1-15.3-2.1-22.9-3.1c-1.5-0.2-1.8-0.8-1.6-2.3c2.2-13.5,4.2-27,6.5-40.4c0.4-1.9,0.7-2.3,2.6-1.9  c14.9,2.3,29.8,4.3,44.9,5.4C274.8,243.2,274.8,243.2,274.8,245.3z" style="fill:none;stroke:red;stroke-width:0.0001px"/><path d="M274.8,245.3c-0.8,9.7-1.7,19.4-2.5,29.1c-0.4,3.9-0.9,7.7-0.8,11.6c0,2.3-0.3,2.3-2.6,2.1  c-8.5-0.8-17.1-1.7-25.6-2.8c-7.6-1-15.3-2.1-22.9-3.1c-1.5-0.2-1.8-0.8-1.6-2.3c2.2-13.5,4.2-27,6.5-40.4c0.4-1.9,0.7-2.3,2.6-1.9  c14.9,2.3,29.8,4.3,44.9,5.4C274.8,243.2,274.8,243.2,274.8,245.3z" style="fill:none;stroke:red;stroke-width:0.0001px"/><path d="M224.2,330.5c-7.7-1.2-15.4-2.5-23.1-3.7c-4.2-0.7-8.4-1.5-12.7-2.2c-2.1-0.4-2.3-0.7-1.9-2.8  c3.4-17.3,6.8-34.6,10.2-52c0.1-1,0.4-1.6,1.7-1.4c6,1.1,12,2.2,18,3.2c1.2,0.2,1.4,0.6,1.2,1.8c-0.5,2.8-0.7,5.5-1.4,8.2  c-0.3,1.4,0.2,2.3,1.7,2.5c3.9,0.5,7.8,1.2,11.7,1.6c1.6,0.2,2.1,0.8,1.8,2.4c-1.3,9-2.5,18.1-3.9,27.1c-0.6,4.6-1.2,9.1-1.9,13.6  C225.7,329.6,225.7,330.6,224.2,330.5z" style="fill:none;stroke:red;stroke-width:0.0001px"/><path d="M224.2,330.5c-7.7-1.2-15.4-2.5-23.1-3.7c-4.2-0.7-8.4-1.5-12.7-2.2c-2.1-0.4-2.3-0.7-1.9-2.8  c3.4-17.3,6.8-34.6,10.2-52c0.1-1,0.4-1.6,1.7-1.4c6,1.1,12,2.2,18,3.2c1.2,0.2,1.4,0.6,1.2,1.8c-0.5,2.8-0.7,5.5-1.4,8.2  c-0.3,1.4,0.2,2.3,1.7,2.5c3.9,0.5,7.8,1.2,11.7,1.6c1.6,0.2,2.1,0.8,1.8,2.4c-1.3,9-2.5,18.1-3.9,27.1c-0.6,4.6-1.2,9.1-1.9,13.6  C225.7,329.6,225.7,330.6,224.2,330.5z" style="fill:none;stroke:red;stroke-width:0.0001px"/><path d="M342.7,306.6c-1.3,2.9-1.2,4,1.1,6.3c1.4,1.6,2,3,2,4.9c0,6.1,0.2,12.2,0.4,18.3c0,1.6-0.5,2.1-2,2  c-10.5-0.1-21.1-0.1-31.6-0.4c-8.4-0.2-16.7-0.7-25.1-0.9c-1.1,0-1.5-0.5-1.4-1.6c0.6-10,1.3-20,1.8-30c0.1-1.7,1-1.7,2.2-1.6  c8.8,0.3,17.6,0.6,26.4,1c6.4,0.2,12.7,0.5,19.2,0.5C338.1,305.1,340.4,305,342.7,306.6z" style="fill:none;stroke:red;stroke-width:0.0001px"/><path d="M342.7,306.6c-1.3,2.9-1.2,4,1.1,6.3c1.4,1.6,2,3,2,4.9c0,6.1,0.2,12.2,0.4,18.3c0,1.6-0.5,2.1-2,2  c-10.5-0.1-21.1-0.1-31.6-0.4c-8.4-0.2-16.7-0.7-25.1-0.9c-1.1,0-1.5-0.5-1.4-1.6c0.6-10,1.3-20,1.8-30c0.1-1.7,1-1.7,2.2-1.6  c8.8,0.3,17.6,0.6,26.4,1c6.4,0.2,12.7,0.5,19.2,0.5C338.1,305.1,340.4,305,342.7,306.6z" style="fill:none;stroke:red;stroke-width:0.0001px"/><path d="M464,403.3c2.1-0.5,2.8,0.3,3.3,2c1.6,5.1,3.8,9.9,6.8,14.4c2.1,3.1,2.9,6.7,4.7,9.9  c2.1,3.9,3.9,8,6.5,11.6c1.8,2.6,2.1,5.6,2.7,8.6c0.8,4.1-0.4,7.9-0.7,11.9c-0.1,0.9-0.9,1.1-1.8,1.2c-2.1,0.2-4.9-1.7-5.1-3.7  c-0.2-1.9-1.2-2.6-2.8-2.7c-2.4-0.1-3.6-1.3-4.1-3.5c-0.1-1-0.8-1.8-1.7-2.4c-1.4-1-1.9-2.3-1.4-4.1c0.1-0.7,0.6-1.5-0.2-2.2  c-0.7-0.6-1.2,0.1-1.8,0.4c-1.2,0.6-2.1,0.3-2.8-0.8c-1.2-2.1-1.8-4-0.6-6.2c0.8-1.7,0.1-3.1-1.8-3.4c-1.7-0.3-2-1-1.6-2.5  c0.6-2.3,0.4-4.6-0.5-6.9c-0.7-2-1.8-3.5-4-4c-1.4-0.4-2.3-1.6-3.2-2.6c-1.7-2-3.4-4.1-5.8-5.5c-2.1-1.1-6.1-0.7-7.7,0.8  c-0.1,0.1-0.2,0.4-0.2,0.6c0.3,1.7-0.9,2.1-2.1,2.4c-0.9,0.2-1.6,1.4-2.5,0.9c-0.8-0.4-0.9-1.6-1.4-2.4c-0.4-0.6-0.8-1.2-1.4-1.6  c-0.4-0.2-0.6-0.3-0.6-0.7c0.1-1.7-0.4-1.9-2-1.3c-1.3,0.5-2.8,0.9-3.8-0.8c-0.5-0.9-1.6-0.9-2.6-0.6c-0.8,0.2-1.6,0.5-2.4,0.8  c-1.2,0.5-2.2,0.5-3.2-0.4c-0.9-0.8-1.9-0.8-2.9,0.4c-0.2-1.1-0.7-1.8-1.4-2.3c-0.4-0.2-0.8-0.5-0.6-1c0.2-0.5,0.7-0.4,1.1-0.4  c4.2-0.4,8.5-0.8,12.7-1.2c2.2-0.2,4.5-0.5,6.6-0.8c0.8-0.1,1.3,0,1.6,1c0.3,1.6,1.4,2.1,3,2c6.8-0.4,13.5-0.6,20.3-1.1  c1.2-0.1,2.2-0.1,2.7,1.3c0.3,0.8,1.2,0.8,2,0.7s1.1-0.7,1.1-1.4C464.4,405.7,464.6,404.5,464,403.3z" style="fill:none;stroke:red;stroke-width:0.0001px"/><path d="M464,403.3c2.1-0.5,2.8,0.3,3.3,2c1.6,5.1,3.8,9.9,6.8,14.4c2.1,3.1,2.9,6.7,4.7,9.9  c2.1,3.9,3.9,8,6.5,11.6c1.8,2.6,2.1,5.6,2.7,8.6c0.8,4.1-0.4,7.9-0.7,11.9c-0.1,0.9-0.9,1.1-1.8,1.2c-2.1,0.2-4.9-1.7-5.1-3.7  c-0.2-1.9-1.2-2.6-2.8-2.7c-2.4-0.1-3.6-1.3-4.1-3.5c-0.1-1-0.8-1.8-1.7-2.4c-1.4-1-1.9-2.3-1.4-4.1c0.1-0.7,0.6-1.5-0.2-2.2  c-0.7-0.6-1.2,0.1-1.8,0.4c-1.2,0.6-2.1,0.3-2.8-0.8c-1.2-2.1-1.8-4-0.6-6.2c0.8-1.7,0.1-3.1-1.8-3.4c-1.7-0.3-2-1-1.6-2.5  c0.6-2.3,0.4-4.6-0.5-6.9c-0.7-2-1.8-3.5-4-4c-1.4-0.4-2.3-1.6-3.2-2.6c-1.7-2-3.4-4.1-5.8-5.5c-2.1-1.1-6.1-0.7-7.7,0.8  c-0.1,0.1-0.2,0.4-0.2,0.6c0.3,1.7-0.9,2.1-2.1,2.4c-0.9,0.2-1.6,1.4-2.5,0.9c-0.8-0.4-0.9-1.6-1.4-2.4c-0.4-0.6-0.8-1.2-1.4-1.6  c-0.4-0.2-0.6-0.3-0.6-0.7c0.1-1.7-0.4-1.9-2-1.3c-1.3,0.5-2.8,0.9-3.8-0.8c-0.5-0.9-1.6-0.9-2.6-0.6c-0.8,0.2-1.6,0.5-2.4,0.8  c-1.2,0.5-2.2,0.5-3.2-0.4c-0.9-0.8-1.9-0.8-2.9,0.4c-0.2-1.1-0.7-1.8-1.4-2.3c-0.4-0.2-0.8-0.5-0.6-1c0.2-0.5,0.7-0.4,1.1-0.4  c4.2-0.4,8.5-0.8,12.7-1.2c2.2-0.2,4.5-0.5,6.6-0.8c0.8-0.1,1.3,0,1.6,1c0.3,1.6,1.4,2.1,3,2c6.8-0.4,13.5-0.6,20.3-1.1  c1.2-0.1,2.2-0.1,2.7,1.3c0.3,0.8,1.2,0.8,2,0.7s1.1-0.7,1.1-1.4C464.4,405.7,464.6,404.5,464,403.3z" style="fill:none;stroke:red;stroke-width:0.0001px"/><path d="M402.7,372.4c0.1,6.9-0.7,14.6-0.3,22.3c0.3,5.4,0.9,10.7,1.6,16c0.3,2.3,0.1,2.4-2.1,2.2  c-2.2-0.2-4.2,0.1-6,1.5c-0.6,0.5-0.9,0.4-1.3-0.3c-1.1-1.9-1.9-3.7-1.1-6c0.5-1.3-0.6-1.7-1.7-1.7c-3.4,0.1-6.7,0.4-10.1,0.6  c-1.2,0.1-2.4,0.1-3.6,0.2c-1.3,0.1-1.5-0.4-1.2-1.6c0.8-2.9,1.7-5.7,3.2-8.4c1.3-2.2,1.2-4.5,0.7-6.9c-1.1-4.6-1.6-9.3-1.1-14  c0.1-1.2,0.7-2.3,1.2-3.5c1.4-2.5,3-5.1,3.7-8.1c0.4-1.7,1.7-2.5,3.5-2.8c4.4-0.3,8.8-0.7,13.2-1c1.1-0.1,1.4,0.3,1.4,1.4  C402.6,365.6,402.6,368.7,402.7,372.4z" style="fill:none;stroke:red;stroke-width:0.0001px"/><path d="M402.7,372.4c0.1,6.9-0.7,14.6-0.3,22.3c0.3,5.4,0.9,10.7,1.6,16c0.3,2.3,0.1,2.4-2.1,2.2  c-2.2-0.2-4.2,0.1-6,1.5c-0.6,0.5-0.9,0.4-1.3-0.3c-1.1-1.9-1.9-3.7-1.1-6c0.5-1.3-0.6-1.7-1.7-1.7c-3.4,0.1-6.7,0.4-10.1,0.6  c-1.2,0.1-2.4,0.1-3.6,0.2c-1.3,0.1-1.5-0.4-1.2-1.6c0.8-2.9,1.7-5.7,3.2-8.4c1.3-2.2,1.2-4.5,0.7-6.9c-1.1-4.6-1.6-9.3-1.1-14  c0.1-1.2,0.7-2.3,1.2-3.5c1.4-2.5,3-5.1,3.7-8.1c0.4-1.7,1.7-2.5,3.5-2.8c4.4-0.3,8.8-0.7,13.2-1c1.1-0.1,1.4,0.3,1.4,1.4  C402.6,365.6,402.6,368.7,402.7,372.4z" style="fill:none;stroke:red;stroke-width:0.0001px"/><path d="M389.4,427.1c-1.6-0.8-3.1-1.3-4.5,0.2c-0.2,0.2-0.5,0.2-0.7,0c-1.4-1.1-3.1-1.6-4.6-2.3  c-1-0.6-2-1.4-2.7-2.4c-1-1.3-3.5-1.9-5-1.2c-0.7,0.3-1.5,0.9-1.5,1.6c0.1,1.9-1,1.6-2.1,1.2c-1.3-0.4-2.7-0.7-4-1.2  c-2.1-0.7-4.2-1.2-6.3-0.8c-1,0.1-1.3-0.1-0.8-1c0-0.1,0.1-0.2,0.1-0.3c0.1-3.7,0.6-7.3,1.6-11c0.6-2.4-0.7-4.7-1.8-6.9  c-2.3-4.6-3.7-9.5-3.3-14.7c0.1-1.2,0.5-1.8,1.8-1.8c6.5,0.1,13,0,19.4-0.5c1.9-0.2,2.4,0.4,2.5,2.3c0,1.4,0.5,2.5,0.8,3.8  c0.5,1.5-0.3,3.1-0.9,4.5c-0.8,1.8-1.7,3.5-2.5,5.4c-0.5,1.1-0.8,2.2-0.8,3.4c-0.1,1.5,0.1,3.1-1.3,4.4c3.7-0.2,7.3-0.5,11-0.7  c1.9-0.1,3.8-0.3,5.6-0.5c1.2-0.1,1.9,0.1,1.3,1.6c-0.6,1.4,0,2.5,0.9,3.6c0.3,0.4,0.9,0.8,0.6,1.2c-0.4,0.5-0.9-0.1-1.3-0.3  c-2.4-1.4-4.2-0.7-5.2,1.9c-0.5,1.3,0.4,2.7,2.1,2.9c1.7,0.1,3.5,0,5,1.3c0.8,0.7,1,1,0.1,1.7c-0.9,0.6-1.7,0.8-2.9,0.6  c-0.8-0.2-1.3,0.1-1.7,0.7s-0.4,1.2,0.2,1.6C389.3,425.9,389.7,426.2,389.4,427.1z" style="fill:none;stroke:red;stroke-width:0.0001px"/><path d="M389.4,427.1c-1.6-0.8-3.1-1.3-4.5,0.2c-0.2,0.2-0.5,0.2-0.7,0c-1.4-1.1-3.1-1.6-4.6-2.3  c-1-0.6-2-1.4-2.7-2.4c-1-1.3-3.5-1.9-5-1.2c-0.7,0.3-1.5,0.9-1.5,1.6c0.1,1.9-1,1.6-2.1,1.2c-1.3-0.4-2.7-0.7-4-1.2  c-2.1-0.7-4.2-1.2-6.3-0.8c-1,0.1-1.3-0.1-0.8-1c0-0.1,0.1-0.2,0.1-0.3c0.1-3.7,0.6-7.3,1.6-11c0.6-2.4-0.7-4.7-1.8-6.9  c-2.3-4.6-3.7-9.5-3.3-14.7c0.1-1.2,0.5-1.8,1.8-1.8c6.5,0.1,13,0,19.4-0.5c1.9-0.2,2.4,0.4,2.5,2.3c0,1.4,0.5,2.5,0.8,3.8  c0.5,1.5-0.3,3.1-0.9,4.5c-0.8,1.8-1.7,3.5-2.5,5.4c-0.5,1.1-0.8,2.2-0.8,3.4c-0.1,1.5,0.1,3.1-1.3,4.4c3.7-0.2,7.3-0.5,11-0.7  c1.9-0.1,3.8-0.3,5.6-0.5c1.2-0.1,1.9,0.1,1.3,1.6c-0.6,1.4,0,2.5,0.9,3.6c0.3,0.4,0.9,0.8,0.6,1.2c-0.4,0.5-0.9-0.1-1.3-0.3  c-2.4-1.4-4.2-0.7-5.2,1.9c-0.5,1.3,0.4,2.7,2.1,2.9c1.7,0.1,3.5,0,5,1.3c0.8,0.7,1,1,0.1,1.7c-0.9,0.6-1.7,0.8-2.9,0.6  c-0.8-0.2-1.3,0.1-1.7,0.7s-0.4,1.2,0.2,1.6C389.3,425.9,389.7,426.2,389.4,427.1z" style="fill:none;stroke:red;stroke-width:0.0001px"/></g></svg>