<svg height="18in" id="Layer_1" version="1.1" width="32in" x="0px" xml:space="preserve" xmlns="http://www.w3.org/2000/svg" xmlns:xlink="http://www.w3.org/1999/xlink" y="0px"><g transform="translate(126.74935008616711 126.74935008616711) rotate(-45 306.0 306.0)"><path d="M385.4,348.4c0.4-0.5,0.3-0.7,0.4-0.8c0.8-1.1,1.2-2.2,0.4-3.5c-0.8-1.3-2.1-1.5-3.3-1.4  c-5.7,0.3-11.4,0.6-17.1,0.8c-5.4,0.2-10.7,0.4-16.1,0.6c-1.4,0.1-1.8-0.8-1.8-2c0-3.4,0-6.9-0.1-10.3c0-5.1-0.1-10.2-0.1-15.3  c0-1.8-0.1-3.4-2.1-4.5c-1.3-0.7-1.6-2.9-0.9-4.7c0.8-2.4,0.7-2.5-1.7-3.1c-0.5-0.1-0.8-0.3-1.1-0.7c-0.9-1.5-1.9-3-2.8-4.6  c-0.7-1.3,0.4-1.1,1-1c7.2,0.6,14.4-0.3,21.6-0.5c1.8,0,3.8-0.3,5.6-0.4c1.8-0.1,2.8,0.8,2.7,2.5c-0.3,4.5,1.6,8,4.9,10.7  c1.3,1.2,2.2,2.5,2.4,4.2c0.2,2.1,1,2.5,3,1.7c1.2-0.4,1.5-0.2,1.3,1c-0.2,1.3-0.4,2.8-0.7,4.2c-0.4,2.2,0.5,3.9,2.3,5.1  c0.7,0.4,1.3,0.9,2.1,1.2c2.3,1.1,3.3,3.1,3.3,5.5c0,2.1,0.7,3.8,2.7,4.7c1.2,0.6,0.9,1.6,0.1,2.1c-2,1.3-2.7,3.3-3.7,5.2  c-0.2,0.4-0.4,0.7-0.3,0.8C388.8,349.1,386.8,348,385.4,348.4z" style="fill:none;stroke:red;stroke-width:0.0001px"/><path d="M385.4,348.4c0.4-0.5,0.3-0.7,0.4-0.8c0.8-1.1,1.2-2.2,0.4-3.5c-0.8-1.3-2.1-1.5-3.3-1.4  c-5.7,0.3-11.4,0.6-17.1,0.8c-5.4,0.2-10.7,0.4-16.1,0.6c-1.4,0.1-1.8-0.8-1.8-2c0-3.4,0-6.9-0.1-10.3c0-5.1-0.1-10.2-0.1-15.3  c0-1.8-0.1-3.4-2.1-4.5c-1.3-0.7-1.6-2.9-0.9-4.7c0.8-2.4,0.7-2.5-1.7-3.1c-0.5-0.1-0.8-0.3-1.1-0.7c-0.9-1.5-1.9-3-2.8-4.6  c-0.7-1.3,0.4-1.1,1-1c7.2,0.6,14.4-0.3,21.6-0.5c1.8,0,3.8-0.3,5.6-0.4c1.8-0.1,2.8,0.8,2.7,2.5c-0.3,4.5,1.6,8,4.9,10.7  c1.3,1.2,2.2,2.5,2.4,4.2c0.2,2.1,1,2.5,3,1.7c1.2-0.4,1.5-0.2,1.3,1c-0.2,1.3-0.4,2.8-0.7,4.2c-0.4,2.2,0.5,3.9,2.3,5.1  c0.7,0.4,1.3,0.9,2.1,1.2c2.3,1.1,3.3,3.1,3.3,5.5c0,2.1,0.7,3.8,2.7,4.7c1.2,0.6,0.9,1.6,0.1,2.1c-2,1.3-2.7,3.3-3.7,5.2  c-0.2,0.4-0.4,0.7-0.3,0.8C388.8,349.1,386.8,348,385.4,348.4z" style="fill:none;stroke:red;stroke-width:0.0001px"/><path d="M385.4,348.4c0.4-0.5,0.3-0.7,0.4-0.8c0.8-1.1,1.2-2.2,0.4-3.5c-0.8-1.3-2.1-1.5-3.3-1.4  c-5.7,0.3-11.4,0.6-17.1,0.8c-5.4,0.2-10.7,0.4-16.1,0.6c-1.4,0.1-1.8-0.8-1.8-2c0-3.4,0-6.9-0.1-10.3c0-5.1-0.1-10.2-0.1-15.3  c0-1.8-0.1-3.4-2.1-4.5c-1.3-0.7-1.6-2.9-0.9-4.7c0.8-2.4,0.7-2.5-1.7-3.1c-0.5-0.1-0.8-0.3-1.1-0.7c-0.9-1.5-1.9-3-2.8-4.6  c-0.7-1.3,0.4-1.1,1-1c7.2,0.6,14.4-0.3,21.6-0.5c1.8,0,3.8-0.3,5.6-0.4c1.8-0.1,2.8,0.8,2.7,2.5c-0.3,4.5,1.6,8,4.9,10.7  c1.3,1.2,2.2,2.5,2.4,4.2c0.2,2.1,1,2.5,3,1.7c1.2-0.4,1.5-0.2,1.3,1c-0.2,1.3-0.4,2.8-0.7,4.2c-0.4,2.2,0.5,3.9,2.3,5.1  c0.7,0.4,1.3,0.9,2.1,1.2c2.3,1.1,3.3,3.1,3.3,5.5c0,2.1,0.7,3.8,2.7,4.7c1.2,0.6,0.9,1.6,0.1,2.1c-2,1.3-2.7,3.3-3.7,5.2  c-0.2,0.4-0.4,0.7-0.3,0.8C388.8,349.1,386.8,348,385.4,348.4z" style="fill:none;stroke:red;stroke-width:0.0001px"/><path d="M387.6,350.3c0.2,0.8-0.4,1.2-0.7,1.6c-1.4,1.8-2.2,3.7-1.7,5.9c0.2,0.8-0.2,1.3-0.6,1.8  c-1.5,2.1-3,4.2-2.8,6.9c0,0.4-0.2,0.6-0.5,0.8c-1.5,1.2-2.1,2.9-2.7,4.7c-0.4,1.3-0.8,2.6-1.5,3.7c-0.7,1.3-0.6,2.6,0.2,3.9  c1.3,2.1,0.4,3.9-2.1,4c-6.5,0.1-13,0.4-19.4,0.6c-1.3,0-1.8-0.4-1.6-1.7c0.1-0.6,0-1.1,0-1.8c0-2.3-0.6-3-2.8-2.9  c-1.1,0-1.2-0.6-1.2-1.5c0-5.9,0-11.9,0-17.8c0-3.3-0.7-6.6-1.1-9.9c-0.4-2.4-0.2-2.6,2.1-2.7c9.9-0.4,19.7-0.3,29.5-1.2  c0.4,0,0.8-0.1,1.2-0.1c0.9,0.1,2.2-0.6,2.8,0.5c0.5,1.1-0.8,1.4-1.2,2.1c-0.2,0.4-0.4,0.6-0.6,1c-0.7,1.7-0.1,2.4,1.6,2.2  C385.3,350.6,386.4,350.4,387.6,350.3z" style="fill:none;stroke:red;stroke-width:0.0001px"/><path d="M387.6,350.3c0.2,0.8-0.4,1.2-0.7,1.6c-1.4,1.8-2.2,3.7-1.7,5.9c0.2,0.8-0.2,1.3-0.6,1.8  c-1.5,2.1-3,4.2-2.8,6.9c0,0.4-0.2,0.6-0.5,0.8c-1.5,1.2-2.1,2.9-2.7,4.7c-0.4,1.3-0.8,2.6-1.5,3.7c-0.7,1.3-0.6,2.6,0.2,3.9  c1.3,2.1,0.4,3.9-2.1,4c-6.5,0.1-13,0.4-19.4,0.6c-1.3,0-1.8-0.4-1.6-1.7c0.1-0.6,0-1.1,0-1.8c0-2.3-0.6-3-2.8-2.9  c-1.1,0-1.2-0.6-1.2-1.5c0-5.9,0-11.9,0-17.8c0-3.3-0.7-6.6-1.1-9.9c-0.4-2.4-0.2-2.6,2.1-2.7c9.9-0.4,19.7-0.3,29.5-1.2  c0.4,0,0.8-0.1,1.2-0.1c0.9,0.1,2.2-0.6,2.8,0.5c0.5,1.1-0.8,1.4-1.2,2.1c-0.2,0.4-0.4,0.6-0.6,1c-0.7,1.7-0.1,2.4,1.6,2.2  C385.3,350.6,386.4,350.4,387.6,350.3z" style="fill:none;stroke:red;stroke-width:0.0001px"/><path d="M387.6,350.3c0.2,0.8-0.4,1.2-0.7,1.6c-1.4,1.8-2.2,3.7-1.7,5.9c0.2,0.8-0.2,1.3-0.6,1.8  c-1.5,2.1-3,4.2-2.8,6.9c0,0.4-0.2,0.6-0.5,0.8c-1.5,1.2-2.1,2.9-2.7,4.7c-0.4,1.3-0.8,2.6-1.5,3.7c-0.7,1.3-0.6,2.6,0.2,3.9  c1.3,2.1,0.4,3.9-2.1,4c-6.5,0.1-13,0.4-19.4,0.6c-1.3,0-1.8-0.4-1.6-1.7c0.1-0.6,0-1.1,0-1.8c0-2.3-0.6-3-2.8-2.9  c-1.1,0-1.2-0.6-1.2-1.5c0-5.9,0-11.9,0-17.8c0-3.3-0.7-6.6-1.1-9.9c-0.4-2.4-0.2-2.6,2.1-2.7c9.9-0.4,19.7-0.3,29.5-1.2  c0.4,0,0.8-0.1,1.2-0.1c0.9,0.1,2.2-0.6,2.8,0.5c0.5,1.1-0.8,1.4-1.2,2.1c-0.2,0.4-0.4,0.6-0.6,1c-0.7,1.7-0.1,2.4,1.6,2.2  C385.3,350.6,386.4,350.4,387.6,350.3z" style="fill:none;stroke:red;stroke-width:0.0001px"/></g></svg>