<svg id="Layer_1" style="enable-background:new 0 0 2072.8 2762.8;" version="1.1" viewBox="0 0 2072.8 2762.8" x="0px" xml:space="preserve" xmlns="http://www.w3.org/2000/svg" xmlns:xlink="http://www.w3.org/1999/xlink" y="0px"><path d="M747.9,1192.6c-17.8,3.5-31,11.6-44.2,20.1c-9.6,6.2-18.6,12.6-24.6,22.8    c-3.6,6.1-4.1,5.8-10.1,2.4c-1.7-1-3.5-2-5.3-2.8c-26-10.8-46.2-29.8-66.9-47.9c-0.7-0.9-1.3-1.9-1.8-2.9c5.5-2.7,10.7-5.5,16-7.9    c21.5-9.5,39.1-25.1,58.8-37.4c10.6-6.6,10.8-7.3,20,1.8c14.4,14.3,29.9,27.4,45.1,40.7C738.7,1184.6,742.4,1187.8,747.9,1192.6z" style="fill:#29633B;"/><path d="M1053.9,1419.4c-2.3,9.9,4.5,15.9,9.8,21.7c11.6,12.5,20.3,27.1,31.1,40.1c1.2,1.6,2.3,3.2,3.3,4.9    c2.4,3.7,1.2,6.3-2.7,7.8c-7.1,2.8-14.1,5.9-21.5,8c-7.6,2.1-15.6,3.1-23.4,4.6c-4.3,0.8-6.8-0.3-7.4-5.4    c-2.4-20.1-2.5-40.5-0.4-60.6c0.6-5.2,0.6-10.6,2.5-15.7C1046.8,1420.8,1049.2,1419.2,1053.9,1419.4z" style="fill:#29633B;"/></svg>