<svg id="Layer_1" style="enable-background:new 0 0 2072.8 2762.8;" version="1.1" viewBox="0 0 2072.8 2762.8" x="0px" xml:space="preserve" xmlns="http://www.w3.org/2000/svg" xmlns:xlink="http://www.w3.org/1999/xlink" y="0px"><path d="M1036.4,705.6c-9.2,17.6-20.4,32-29.6,47.9c-21.5,37.2-36.7,77.6-59.5,114.1    c-5.8,9.3-12.1,18.3-18.1,27.6c-5.6,8.7-11.5,17.1-15.5,26.7s-11.6,17-16.8,26c-2,3.4-11.8,6.2-15.4,5.2c-2.3-0.6-3-2.5-3.6-4.3    c-2.7-7.2-5-14.4-7.9-21.5c-1.8-4.5,0.7-7.5,2.5-11c14.2-26.4,31.1-51.1,47-76.5c10.1-16.1,17.8-33.5,26-50.6    c15.4-32.1,33-63.1,52.7-92.8c4.6-6.9,8.5-14.3,13.2-21.2c3.1-4.5,2.5-8.1,0-12.7c-12.4-22-25.6-43.7-36.3-66.6    c-22.7-48.6-48.6-95.4-75.5-141.8c-9.8-16.7-18-34.2-26.6-51.4c-2.2-4.3-2.2-7.9,0.1-12.2c4.1-7.5,7.7-15.3,11.8-23.8    c2.9,2.3,3.8,4.7,4.9,7c19.6,39.4,42.9,76.6,65.7,114.2c17,27.8,32.6,56.5,46.7,85.9c9.6,20.2,22,38.7,33.3,58.1    c3.7-1.2,4.4-4.3,5.9-6.6c15.5-24.8,29.6-50.5,42.1-77c10.6-22.3,24-43,36.3-64.3c14.7-25.3,30.9-49.8,44.8-75.6    c6-11.1,11.7-22.4,17.7-33.5c1.3-2.5,2-5.5,5.2-7.7c5.5,8.5,9.2,17.7,13.7,26.5c1.8,3.5-0.1,6.5-1.6,9.4    c-9.1,18.5-18,37.1-28.5,54.9c-12.8,21.8-24.6,44.2-37,66.2c-14.6,25.8-26.3,53-39.7,79.4c-9.8,19.3-20.6,38.1-31.4,56.8    c-3.6,6.2-3.8,10.6,0,17c11.8,19.7,25.1,38.4,36.5,58.4c15,26.3,28.1,53.6,41.6,80.7c5.3,10.7,10.9,21.4,17.5,31.3    c15,22.4,29.1,45.3,42.5,68.7c2.6,4.5,3.2,8.2,0.9,13s-3.6,10-5.7,14.9c-1.3,3.2-0.8,8.2-5.5,8.5c-5.3,0.3-11.3,0.1-14.4-5    c-5.4-8.8-12.8-16.3-16.8-25.9c-4.2-9.9-9.9-18.9-16.1-27.5c-21.4-29.9-37.5-62.8-53.4-95.8c-12.3-25.5-25.5-50.5-41.5-73.9    C1044.7,719.1,1041.2,713.1,1036.4,705.6z" style="fill:#78CED7;"/><path d="M384.8,595.8c0.2-1.9,0.7-2.9,0.5-3.8c-7.1-26-12.2-52.6-25.1-76.6c-2.4-4.8-4.2-9.8-5.5-14.9    c-5.3-18.6-8-37.8-11.4-56.8c-0.8-4.2,0.4-5.6,4.5-6.9c18.2-5.7,18.2-5.8,23.4,12.6c2.1,7.7,4.4,15.4,6.2,23.1    c3.8,15.5,9.1,30.6,15.9,45c12.6,27.6,20.3,57,28.2,86.2c0.8,2.2,1.4,4.4,1.8,6.7c0.7,6,4.4,9.2,9.6,11.7    c23.9,11.7,48.4,22.4,71.5,35.6c32.7,18.6,67.2,33.6,99.7,52.6c20.9,12.2,42.9,22.8,65,32.9c25.4,11.7,49.8,25.3,75.1,37.2    c11.1,5.2,22.3,10.4,33.6,15.3c7.3,3.2,12.6,7.3,15.2,15.6c3.8,11.7,9.3,22.8,14,34.2c-2.3,2.1-4.5,0.2-6.3-0.7    c-15.7-7.1-31.4-14.3-46.9-21.8c-36.8-17.8-73.8-35.2-110.2-53.9c-26.9-13.8-54.5-26.3-80.3-42.3c-1.1-0.7-2.3-1.4-3.5-2    c-39.2-17.5-75.5-40.6-114.7-58.2c-1.5-0.7-2.9-1.6-5.6-1c4,13.6,7.5,27.3,12.2,40.7c4.8,13.5,9.7,26.9,13.9,40.5    c8.7,27.9,17.6,55.8,26.7,83.6c9.5,28.9,14.3,58.8,17.3,88.9c0.6,5.6,2.2,11.2,1.4,17.2c-3.2-0.3-4-3.1-5.1-5.1    c-8.8-14.4-16.6-29.6-26.3-43.4c-9.2-13.1-14.5-27.1-18.3-42.5c-4.8-19.3-10.5-38.5-18.1-57c-4.5-10.8-6.5-22.3-10.3-33.4    c-11.6-34.3-22.7-68.9-31.8-104c-1.6-6.3-4.6-10.4-10.5-13.5c-30.6-16.2-59.6-35.1-89.6-52.5c-21.9-12.7-44.5-24-67.4-34.8    C211.7,540,191.3,527,171.4,513c-1.6-1.1-3.6-1.9-4.1-5c6.1-4.5,12.4-9.2,18.8-13.9c2.5-1.9,4.8-1.7,7.3,0    c2.8,1.9,5.6,3.5,8.4,5.4c19.9,12.9,41.7,22.2,63.2,32c34.6,15.7,67.9,33.9,100.4,53.5C371.6,588.6,378,592,384.8,595.8z" style="fill:#78CED7;"/><path d="M1561.3,939c0.4-17.3,2.9-32.4,4.9-47.6c1.2-8.9,2.3-17.9,4.5-26.6c3.9-15.1,8.3-30.1,13.2-44.9    c12.9-38.4,24-77.5,38-115.6c4.6-12.4,7.6-25.4,11.4-38.2c-2.6-2.3-4.4-0.1-6.3,0.8c-23.2,11.5-47,21.9-69,35.9    c-2.2,1.4-4.6,2.7-7,3.7c-24.8,10.7-47.9,24.6-71.8,37c-19.7,10.3-39.2,21.2-59.5,30.3c-26.1,11.7-51.1,25.6-76.9,37.9    c-17.4,8.3-34.9,16.4-52.3,24.7c-7.6,3.6-15.4,7.6-23.8,9.9c-2.1-3,0.5-5.2,1.4-7.4c3.7-9.3,8.4-18.2,11.4-27.6    c2.5-7.8,7.3-12,14.3-15.2c13.7-6,27.4-12,40.7-18.9c34.8-18.2,70.3-35.1,105.5-52.4c31.7-15.6,62.4-32.8,93.7-48.9    c35.5-18.2,71.4-35.8,106.8-54.2c4.8-2.3,8.3-6.6,9.4-11.8c6.9-26,13.9-52.1,23.5-77.3c1-2.8,1.8-5.8,3.2-8.4    c12.5-22.7,17.8-47.9,24.6-72.5c0.5-1.9,1-3.9,1.6-5.8c1.5-4.3,0.7-10.9,5.2-12.1c6.8-1.8,13.6,2,20.3,3.8    c1.9,0.5,1.7,2.7,1.4,4.3c-5,26.7-6.8,54.2-19.8,79c-9,17.3-13,36.3-18.2,54.9c-1.7,6-3,12.1-4.8,19.4c6.9-2,11.8-5.3,16.7-8.3    c41.5-25.2,84.7-47.6,129.2-67.1c14.9-6.6,29.2-14.5,42.8-23.6c4.6-3,8-3.6,12.3,0.3c5.2,4.6,10.9,8.6,16.8,13.3    c-6.9,6.3-14.5,10.5-21.5,15.3c-12.3,8.6-25.3,16.1-38.8,22.5c-37.1,17.3-73.1,36.8-107.9,58.3c-18.1,11.3-36.5,22-55.2,32.1    c-5.2,2.8-7.8,6.5-9.3,12c-5.1,18.9-10.4,37.9-16,56.7c-6.1,20.4-13.8,40.2-19.6,60.7c-7,24.3-17.4,47.6-22.9,72.2    c-4.7,20.9-13.5,39.2-25.7,56.5c-7.4,10.5-13,22.4-19.5,33.6C1566.7,932.5,1565.4,935.6,1561.3,939z" style="fill:#78CED7;"/><path d="M684,1870.2c-18.3,2.7-36.3,5.7-54.6,6.7c-26.3,1.4-52.2,6.2-77.9,11.8c-21.5,4.7-43.3,7-65.1,9.9    c-10.2,1.3-20.4,2.8-30.6,3.9c-3.5,0.4-4.7,2.1-6.1,5.2c-8.5,18.2-9,38.1-11.3,57.4c-4.1,34.7-8.2,69.4-13.4,103.9    c-0.9,6.1-1.9,12.3-0.4,18.8c1.4,5.8-0.6,8.3-6.4,10.3c-17.5,6.1-35.1,12-53.5,18.3c0.2-10.2,2.1-19.9,3.9-29.4    c8.6-46.8,18-93.4,26.2-140.3c1.9-10.8,5.2-21.8,3.3-33.6c-5.4-0.9-10.3-1.2-15.7,1.9c-4.1,2.4-9.6,2.5-14.5,3.2    c-26.4,3.4-52.8,6.7-79.3,10c-0.8,0.1-1.7-0.3-4-0.7c6.5-8.9,12.4-17.2,18.4-25.4c2-2.7,5.3-2.7,8.2-3.1c21.3-3.5,42.7-7,64-10.1    c4.3-0.6,8.4-1.7,12.4-3.3c4.3-1.8,8.8-3,13.4-3.5c11.4-1.2,13.4-3.2,15.8-14.2c2.3-10.4,4.6-20.8,6.4-31.3    c6.9-38.7,13.3-77.4,20.4-116c2.7-14.7,6.1-29.1,13.5-42.5c8.9-16.3,16.2-33.5,24.3-50.3c1.4-3,2.3-6.3,5.2-8.4    c-1.8,34.3-9.3,67.7-15.8,101.2c-6.9,35.6-11.6,71.6-15.2,107.7c-1.3,13.2-3,26.4-4,39.7c-0.6,7.2-0.1,7.7,6.9,6.7    c7.8-1.2,15.5-3.4,23.2-5.2c38.7-8.5,77.6-15.6,116.7-21.1c22.1-3.1,44-7.2,66.5-6.3c12.2,0.5,9.1-1.4,13.8,10    c1.9,4.6,3.3,9.4,4.8,14.2C683.9,1867.5,684,1868.9,684,1870.2z" style="fill:#78CED7;"/><path d="M1674.7,1912.4c-1.8,12.9,1.5,24.5,3.5,36c8.3,47.2,17.6,94.2,26.4,141.3c1.6,8.4,2.6,17,3.8,25.3    c-2.9,2.4-4.9,0.1-6.8-0.6c-15.7-5.3-31.4-10.9-47.1-16.2c-4.8-1.6-7.5-4.2-6.6-9.3c1.7-10.3,0.3-20.6-1.5-30.6    c-5.1-28.2-7.6-56.7-11.1-85.1c-2.1-16.5-3.2-33.1-7.1-49.3c-1.4-6.1-3.8-12-5.7-18c-0.9-2.8-3.2-2.9-5.6-3.3    c-13.8-1.8-27.6-4.2-41.5-5.5c-26.6-2.4-52.7-7.8-78.7-13.2c-17.6-3.5-35.5-5.8-53.4-6.9c-18.3-1.3-36.3-4.2-54.9-6.7    c1.2-9,5.2-16.7,7.9-24.7c1.2-3.8,4.2-3.5,7.3-3.6c16.7-0.2,33.3,0,49.8,2.8c35.4,6.1,71.1,10.3,106.2,18    c16.5,3.6,33.3,6.1,49.5,11.3c2.2,0.7,4.6,0.4,6.9,0.7c4.6,0.6,5.8-1.7,5.4-5.8c-1.6-14.5-3.4-29-4.8-43.6    c-5.1-54.4-15.5-108-25.8-161.5c-2.8-14.3-4-28.9-3.5-43.5c4.1,8.2,8.2,16.5,12.2,24.7c7,14.3,14.2,28.6,20.8,43.1    c4.8,10.3,6.9,21.6,8.7,32.7c8.1,48.9,16.8,97.7,26.7,146.2c2.3,11.5,4.3,13.4,16.2,15c2,0.3,4.1,0.1,5.9,0.8    c25.8,10,53.5,9.7,80.1,15.4c7.3,1.6,12.9,3.6,16.9,10.3c3.8,6.5,8.6,12.4,13.8,19.8c-13.9-1.5-26.1-2.7-38.2-4.2    c-17.8-2.1-35.7-4-53.4-7.5c-3.5-0.7-7.1-0.8-10.2-3.5C1683.1,1910,1678.7,1914.1,1674.7,1912.4z" style="fill:#79CED7;"/><path d="M1036.4,2200.9c-5.7,6.7-11,13.7-15.8,21c-7.6,11.7-16,22.9-25.1,33.6    c-18.5,21.9-33.7,46.3-52.3,68.1c-8,9.4-17.8,17.3-23.2,28.6c-4,8.2-9.8,15-15.7,21.8c-0.8,1-1.5,2.2-3.8,1.8    c-4-11.6-5.2-24.2-8.7-36.2c-1.1-3.8,1.7-6.2,3.5-8.9c16.9-25.6,36-49.6,54.8-73.8c15.7-20.3,32.1-40,49.2-59.1    c4.7-5.3,11.4-8.4,15.6-14.7c2.9-4.4,2.8-7.2,0-11.4c-18.4-27.7-38.3-54.5-59.5-80.2c-12-14.6-23-30-33.7-45.6    c2.5-2.5,4.7-1.2,6.8-0.8c5.2,1,10.4,3.1,15.6,3c7.6-0.2,12.2,3.5,16.6,8.9c20.5,25,39.5,51.2,60.6,75.7c1.1,1.2,2,2.6,2.6,4.2    c1.8,5.2,4.9,5.2,10.2,5.5c8.5,0.5,12.1-2.3,17.3-8.8c20.7-25.7,40.5-52.1,61.5-77.5c4-4.8,8.1-8.2,15.1-7.8    c5.2,0.2,10.4-1.7,15.6-2.8c2.3-0.5,4.4-1.2,7.1,0.3c-4.6,8.5-10.4,16.2-16.2,23.8c-15.7,20.7-31.8,41.1-47.7,61.6    c-10,12.9-19.2,26.4-28.2,40c-4.5,6.8-4.4,6.8,0.9,13.7c6.8,8.9,16.2,15,23.4,23.6c33.5,39.7,65.8,80.4,95.4,123.2    c2.7,3.9,3.2,7.2,1.9,11.9c-3,10.8-5.1,21.8-7.9,34.1c-6.7-6.8-12.4-12.3-16-19.3c-5.6-10.8-13-20-21.3-28.7    c-10.2-11-19.6-22.7-28.1-35.1c-11.6-16.3-23.9-32-36.5-47.5c-7.7-9.6-14.8-19.6-21.3-30.1    C1045.6,2211.2,1040.9,2206.4,1036.4,2200.9z" style="fill:#78CED7;"/></svg>