<svg id="Layer_1" style="enable-background:new 0 0 2072.8 2762.8;" version="1.1" viewBox="0 0 2072.8 2762.8" x="0px" xml:space="preserve" xmlns="http://www.w3.org/2000/svg" xmlns:xlink="http://www.w3.org/1999/xlink" y="0px"><path d="M1036.1,590.8c-3.8-6.5-7.6-12-10.3-18c-16.9-36.6-36.4-71.8-57.6-106    c-24-38.8-46.7-78.2-67.4-118.9c-1.6-3.1-2.9-5.7-1-9.3c14.3-27,26.2-55.6,45.5-79.6c24.9-30.9,50.9-60.8,83.1-84.6    c8.2-6.1,8-5.8,16.1-0.3c19.7,13.5,34.8,31.8,51.7,48.3c29.3,28.6,50.5,62.5,68.3,99c3.3,6.9,9.7,13.4,9.3,20.6    c-0.3,6.7-5.7,13.1-9,19.6c-15.1,29.6-31.5,58.5-49,86.9c-15,24.4-29.6,49-43.4,74c-9.7,17.4-17.9,35.6-26.8,53.5    C1043,581.4,1039.9,586.3,1036.1,590.8z" style="fill:#D22651;"/><path d="M1036.3,2675.2c-22.8-26.3-45.7-50.8-61-82c-15.3-31.4-28.6-63.7-39.8-96.8    c-9.9-28.6-18-57.8-27-86.7c-1.6-5.2-0.9-7.8,4.6-10.8c11-6,18.2-16.5,24.5-27c5.8-9.7,12.6-18.7,20.3-27    c10.9-11.7,20.8-24.2,29.8-37.4c14.9-21.7,32.5-41.3,48.6-62.9c16.8,22.4,34.9,43.1,50.6,65.6c10.2,14.8,21.6,28.7,34.1,41.7    c4,4.1,7.7,8.4,10.1,13.6c5.1,10.7,13.1,19.2,20.6,28c2.1,2.5,4.8,5.2,7.8,6.1c6.6,1.9,6,5.5,4.4,10.6    c-14.4,48.5-28.9,97-48.1,143.8c-8.2,20-18.2,39.2-28.6,58.2c-10.6,19.4-26.2,35.2-40.6,51.8    C1043.7,2667.3,1040.5,2670.6,1036.3,2675.2z" style="fill:#D22651;"/><path d="M1295.4,770.8c8.8-28.2,18.3-55.4,29.3-82.1c6.7-16.3,13.4-32.6,19.4-49.2    c10.2-28,27.2-51.6,46-74.2c9.8-11.8,20.6-22.6,29.8-34.9c6.8-9.4,14.8-18.1,23.6-25.7c6.6-5.6,12.3-12.2,17-19.6    c4.6-7,11-12.6,18.5-16.2c25.9-12.9,52.1-25.2,79-36.1c6.6-2.7,13.7-2.6,20.7-2.8c32-1,63.9-0.9,95.9-0.3c1.7,0,3.3,0.2,5,0.3    c3.5,0.2,4.8,2.1,3.8,5.3c-7.2,22.1-10,45.4-20.4,66.6c-13.6,27.6-21.8,57.1-29.4,86.7c-2.6,10.1-7,16.5-16.8,21.2    c-29.9,14.3-59.7,29-88.9,45c-25.6,14-51.5,27.7-77.6,40.7c-24.4,12.1-48.2,25.3-73.2,36.3c-20.3,9-40,19.5-59.7,29.9    C1310.4,765.3,1302.6,767,1295.4,770.8z" style="fill:#D22651;"/><path d="M778,770.4c-15.9-5.5-30.8-12.7-45.5-20.2c-17.4-9-34.7-18.2-52.8-25.9c-6.1-2.6-12-5.8-17.8-8.9    c-30.6-16-61-32.4-91.8-48.1c-40-20.4-79.3-42-120-61c-5.1-2.4-7.4-5.7-8.7-11c-7.1-27.7-14-55.7-26.3-81.5    c-11.6-24.3-17.2-50.2-24.9-75.6c-2.2-7.4-1.8-8.2,5.8-8.3c37-0.5,73.9-1.6,110.9,1.1c3,0.2,5.9,0.8,8.7,1.9    c26.2,10.7,51.8,22.7,77.2,35.2c7.8,3.8,14.5,9.6,19.3,16.8c6.1,9.1,13.6,17.3,22.1,24.3c7.3,5.9,12.9,13.5,18.4,21    c7.4,9.8,15.4,19.2,23.9,28.2c27.8,30,47.5,64.7,61,103.2c6.7,19.2,14.4,38,22.4,56.6C767.2,734.9,770.8,753,778,770.4z" style="fill:#D22651;"/><path d="M859.5,895.6c-3.8-4.9-4.9-9.8-6.8-14.2C829.9,827,808,772.4,786.9,717.4c-0.3-1-0.7-1.9-1.2-2.8    c-7.6-11.4-6.6-23.5-4.3-36.3c4.4-25.2,7.9-50.6,12-75.9c6.2-38,17.9-74.3,32.3-109.8c2.6-6.5,5.5-12.9,7.9-19.4    c5.5-15.4,14.6-29,21.2-43.8c0.8-1.8,1.7-3.6,4.2-4.5c3.7,7.4,7.1,14.9,11.2,22.1c13.6,24.4,27.5,48.6,41.2,73    c15.5,27.5,29.2,55.9,43,84.3c9.7,20,20.8,39.4,31.7,58.8c2.6,4.7,2.8,8.4-0.1,12.7c-6.3,9.4-12.8,18.7-18.6,28.4    c-19.5,32.1-37.2,65.3-53,99.4c-6.5,13.9-14,27.2-22.6,39.9c-10.7,16-21.9,31.8-30.7,49.1C860.8,893.5,860.2,894.3,859.5,895.6z" style="fill:#D22651;"/><path d="M1214.2,896.4c-14.9-29.3-35-52.7-48.9-80c-6.6-13-13.3-26.1-19.4-39.4c-4-9.1-8.5-18-13.5-26.7    c-12.9-21.7-23.8-44.6-39.1-64.9c-0.2-0.3-0.4-0.6-0.6-0.8c-7.4-9-8.9-17.1-2-28.3c15.9-25.7,29-53.1,42-80.4    c20.2-42.7,45-82.9,67.6-124.3c4.8-8.7,9.1-17.7,13.6-26.5c2.3,0.4,2.9,1.9,3.7,3.4c19.2,37.2,35.2,76,47.7,115.9    c10.6,34,15.9,68.7,21.2,103.5c2.2,14.5,4.5,28.9,6.8,43.4c0.7,4.6,0.1,9.3-1.7,13.5c-16.8,41.7-33.2,83.5-50,125.2    C1232.9,851.4,1223.9,872.9,1214.2,896.4z" style="fill:#D22651;"/><path d="M476.2,707.7c7.6,1.7,13,5.8,18.5,9.3c16.6,10.7,35.4,16.8,52.6,26.3c7.8,4.3,15.5,9.1,23.4,13.3    c32.4,16.8,64.7,33.9,98,49.1c14.8,6.8,29,14.9,43.6,22c25.4,12.3,51,24.3,76.6,36.2c7.5,3.5,15.3,6.8,24,3.9    c4.2-1.4,5.1,1.8,6.2,4.6c4.6,11.4,9.7,22.7,13.6,34.3c5.1,15.1,10.2,30.2,16.6,44.7c-2.5,2.8-4.6,0.4-6.4-0.2    c-10.3-3.7-20.5-8-30.9-11.4C775,927.5,735.9,922.8,697,926c-23.1,1.8-45,8.7-67.6,12.2c-2,0.3-3.9,0.9-5.7,1.8    c-18.5,9.9-39,15.1-57.8,24.3c-6.4,3.2-11.9,8.3-17.8,12.6c-1.9,1.4-3.7,2.8-5.7,4c-5.2,3.2-8.7,1.7-8.2-4.1    c1.9-19.3-1.3-38.4-2.9-57.5c-1.7-20.8-4-41.8-8.9-62.1c-6.8-28.4-15.4-56.4-25.6-83.8c-5.2-13.7-7.9-28.1-13-41.8    C481,724.2,478.9,716.5,476.2,707.7z" style="fill:#D22651;"/><path d="M1222.6,954c12.3-27.8,19.1-55,30.7-80.4c1.8-3.9,2.9-6.6,8.6-5.2c7.7,1.8,15-1.7,22.1-4.6    c9.2-3.8,18.3-7.7,27.3-12.2c22.3-11.2,45.2-21,67.3-32.6c29.5-15.4,59.7-29.4,89.4-44.3c24.1-12.1,46.6-27,71.3-37.8    c17.1-7.3,33.7-16,49.4-26c2.3-1.3,4.6-2.4,7.1-3.4c1.6,4.3-1.4,7.2-2.3,10.5c-8.8,32.8-21.3,64.3-30.6,96.9    c-4.8,16.9-12.2,33.1-14.4,50.6c-3.3,26-8.7,51.8-8.9,78.2c-0.1,11.6-3.5,23-1.5,34.8c0.8,4.5-1.9,5.8-6.1,3.3    c-2.9-1.6-5.7-3.5-8.2-5.6c-15.8-13.3-35.1-19.5-53.8-26.8c-2.2-0.8-4.5-1.3-6.6-2.3c-42.3-19-87.1-24-132.6-21.5    c-31.3,1.9-62,9.2-90.8,21.7C1235,949.3,1230,951.1,1222.6,954z" style="fill:#D22651;"/><path d="M1703.5,1943.2c10.4,1.3,21.2,2.6,32,4c14.2,1.7,28.4,3.6,42.6,5.1c6.6,0.7,13.3,1.1,19.7-1.5    c3.3-1.3,5.8-1.3,8.4,2.2c28.1,37.3,62.2,69.4,90,107c6.7,9.2,15.3,16.9,25.2,22.5c11.8,6.7,24.1,11,38,10.6    c26.6-0.7,53.3-0.9,79.5-6.4c2.3-0.5,4.6-0.6,6.9-1.1s4.6-1.4,6.1,1.4c1.3,2.4,0.6,4.5-0.8,6.5c-5.7,8.2-11.7,16.2-20.1,22    s-16.5,11.2-25,16.5c-15.5,9.8-32.9,14.3-50.9,16.2c-44.2,4.7-88.5,3.1-132.6-2.2c-29.4-3.5-57.9-12.2-86.1-21.3    c-1.9-0.6-4.1-1-3.8-3.7c1.6-12.8-2.2-25.1-4.4-37.5c-8.1-45.5-16.8-90.9-25.4-136.3C1702.8,1946.2,1701.9,1945,1703.5,1943.2z" style="fill:#D22651;"/><path d="M185.2,2150.3c-21,0.6-41.9,1.1-62.8-1.3c-23.5-2.7-45.5-8.8-65-22.9    c-11.6-8.4-24.2-15.3-32.3-27.7c-0.5-0.8-1.2-1.6-1.8-2.4c-1.9-2.7-4.6-5.3-2.3-8.9s5.4-1.3,8.1-0.8c28.2,5.4,56.8,6.6,85.4,6.9    c19.1,0.2,34.9-7.6,48.9-19.5c5.7-5.1,11-10.7,15.6-16.8c19.4-24.5,39.2-48.8,60.9-71.4c9.5-9.9,17.8-20.7,25.8-31.7    c2.6-3.5,4.8-4.8,9-2.9c6.6,3,13.8,2.2,20.7,1.4c22.5-2.6,44.9-5.5,67.3-8.3c7.3-0.9,7.6-0.8,6.2,6.3    c-6.8,35.9-14,71.8-20.5,107.7c-3.8,20.6-8.5,41.1-8.9,62.1c-0.1,4.4-3,4.7-5.7,5.5c-20.6,6.5-41.5,12.1-62.6,16.9    C243.1,2148.9,214.2,2149.8,185.2,2150.3z" style="fill:#D22651;"/><path d="M429,819.2c-8.7-9-17.7-17-25-26.3c-11.9-15.2-27.1-26.4-42-38.1c-20.7-16.2-42.5-31-65.9-43    c-4.5-2.3-8.3-5.5-12-8.8c-7.2-6.4-14.3-13-21.9-19c-25.1-20-53.3-33.2-85.2-38.6c-13.4-2.3-26.4-2.6-39.5,1.1    c-11.5,3.2-23,6.7-34.5,10s-23.5,4.7-35.6,3c-9.8-1.3-12-4.3-8.1-13.3c10.1-23.1,18.7-47,32.8-68.2c9.9-14.8,23.9-25.8,36.4-38.2    c4.5-4.4,9.8-8,14.5-12.3c3.6-3.3,6.5-3,10.4-0.2c16.9,12.4,34.2,24.3,52.9,33.9c8.6,4.4,17.1,9,25.8,13    c33.9,15.7,65.9,34.7,97.8,54c14.2,8.6,28.6,16.9,43.1,25.2c4.7,2.5,8.1,6.8,9.2,12c9.2,33.3,19.3,66.3,30.5,99    c5.1,14.7,8.3,30.1,14.6,44.5C428.5,811.5,430,814.8,429,819.2z" style="fill:#D22651;"/><path d="M1644,818.1c-0.9-4.1,0.8-7.2,2.1-10.1c11.3-26.7,17-55.2,27.2-82.3c7.5-20.2,12.4-41.3,18.2-62.1    c1.1-4.1,2.7-7.2,6.6-9.3c32.2-17.3,62.7-37.6,94.8-55.3c17.8-9.8,35.8-19.2,54.1-27.8c25-11.8,48.7-26.1,70.9-42.6    c8-5.9,7.3-4.7,14.1,0.5c15.1,11.6,28.4,25.2,41.6,38.8c10,10.3,16.2,23.5,22.3,36.5c5.7,12,10.9,24.3,16.2,36.5    c1,2.1,1.8,4.3,2.5,6.5c2.3,7.7,0.9,10.4-7.1,11.8c-9.9,1.8-19.9,1-29.8-1.1c-17.2-3.6-33.6-10.7-51.1-13.7    c-8.6-1.5-17.1-1.8-25.7,0.2c-8.4,2-16.9,3.5-25.4,5.3c-11.9,2.5-22.1,8.7-33,13.7c-15.1,6.9-27.6,17.1-40.3,27.2    c-0.8,0.6-1.6,1.2-2.3,1.9c-12.7,14.2-29.4,22.6-45.7,31.6c-17,9.4-31.5,22.3-47.3,33.3c-22.4,15.5-39.2,36.8-57.8,56.3    C1647.6,815.4,1646.8,817.4,1644,818.1z" style="fill:#D22651;"/><path d="M1117.9,1001.3c-8.7-17.1-20.7-31-31.9-45.4c-10.6-13.8-24.5-24.7-40.4-31.8    c-5.8-2.6-12.4-2.6-18.2-0.1c-16.1,6.5-29.1,17.3-39.9,30.8c-11.8,14.8-24,29.3-32.8,46.3l-56.6-27c19-7.9,25.2-25.6,34.3-40.5    c6.6-10.7,12.2-22.1,19.5-32.4c21.8-30.9,37.7-64.9,54-98.8c8.5-17.6,18.5-34.5,27.9-51.7c0.7-1,1.5-2,2.4-2.9    c2.7,1.1,3.5,3.4,4.5,5.5c8.6,18,20.2,34.4,28.3,52.7c16.9,38.4,37.5,75,61.5,109.4c2.9,4.1,5.3,8.4,7.3,13    c5.7,13.3,15.4,24,22.8,36.2c2.8,4.7,8,6.7,14.4,9.2L1117.9,1001.3z" style="fill:#D22651;"/><path d="M663,1816.3c-61.5,4.5-122,16.1-182.8,28.4c-1.7-5.7-0.5-10.9,0-16.1c5.3-51.6,14-102.7,24.4-153.5    c3.4-16.9,4.6-34.2,6.6-51.4c0.3-3.6,0-7.3-1.1-10.8c-2.3-9-2.1-9,2.3-19.4c9.5,5,17.8,11.5,25.9,18.4    c39.4,33.7,67.5,75.6,89,122.4c5.8,12.7,12.3,25,18.8,37.4c6.7,12.7,11.2,26.3,16.5,39.6C663.4,1812.8,664,1814.4,663,1816.3z" style="fill:#D22651;"/><path d="M1560.7,1594c2.6,5.8,3.5,11.2,1.5,17.5c-2.5,8.1-0.4,16.5,0.3,24.8c2.7,31.2,10.2,61.6,15.8,92.3    c5.9,32,10.6,64.3,13.5,96.7c0.6,6.2,2.6,12.3,1.2,19.4c-60.8-12.2-121.4-23.9-183.6-28.4c-0.8-3.6,1.5-6.7,2.7-9.9    c8.3-22.5,18.4-44.2,30.1-65.1c3.3-5.8,5.4-12.2,8.2-18.1c13.6-28.4,31.1-54.4,51-78.5c15.3-18.5,33.2-34.7,53.2-48    C1556.1,1595.5,1557.6,1594.1,1560.7,1594z" style="fill:#D22651;"/><path d="M449.1,2085c-0.4-9.2-0.1-16.9,1.4-24.3c5.5-28.1,7.9-56.7,11.2-85.1c1.7-14.5,4.1-29,6.1-43.5    c0.6-4.7,3-6.8,7.8-7.3c40.4-4.2,80.3-11.6,120.1-19.4c13-2.6,26.4-3.4,39.7-4.2c15.7-0.9,31-3.6,46.6-5.6c7.7-1,7.7-0.9,9.2,6.4    c2.1,9.4,2.7,19.2,1.7,28.8c-0.5,4-1.2,7.8-4.9,10.4c-13,9.3-24.6,20.3-37.2,30.3c-26.3,20.8-55.2,37.2-84.2,53.5    s-58.6,31.5-88.1,47C469.1,2077.3,459.2,2081.6,449.1,2085z" style="fill:#D22651;"/><path d="M1623.2,2084.7c-7.6-2.4-15-5.5-22.1-9.3c-47.6-24.6-95.1-49.3-140.8-77.3    c-23.1-14.1-44.1-30.9-64.8-48.1c-1.3-1.1-2.3-2.5-3.8-3.2c-10.3-5.4-12.6-14.3-12.2-25.1c0.3-7,1.5-13.9,2.4-20.8    c0.6-4.3,2.3-6.5,7.2-5.6c31.1,5.7,62.9,5.7,94.1,11.1c23.9,4.1,47.5,9.8,71.6,13c13.5,1.8,27,3.5,40.6,5.2c7.8,1,8.3,0.9,9.6,8.8    c2.4,14.8,4.7,29.6,6.3,44.4c3.1,28.8,6.1,57.5,11.2,86C1623.9,2070.7,1624.1,2077.8,1623.2,2084.7z" style="fill:#D22651;"/><path d="M881.3,2303.7c-3.2-7.2-3.9-15.2-5-22.9c-5.2-38.6-15.2-76.4-21.6-114.8c-2.6-15.4-5.2-30.8-8-46.2    c-4.1-23.3-11.4-45.8-18.7-68.3c-3-8.8-5.4-17.8-7-27c-0.3-1.6-0.6-3.3-0.8-4.9c-0.4-8.6,1.5-9.9,9.5-6.3    c13.7,6.1,28,10.4,42.3,15.1c4.7,1.6,9.4,3.3,14.1,5c7.5,2.7,14.7,4.8,12.5,16.2c-1.1,5.7,2.8,11.9,6.5,17.3    c18.3,27.1,40.2,51.4,59.4,77.7c6.1,8.3,12,16.8,18.2,25c2.6,3.5,2.7,6-0.5,9.4c-7.7,8.3-15,16.9-22.2,25.6    c-25.8,31.4-51.2,63.1-74.7,96.2C884.5,2302.1,883.8,2303.8,881.3,2303.7z" style="fill:#D22651;"/><path d="M1190.5,2304.7c-3.6-4.9-6.8-9.5-10.2-13.9c-27.8-36.9-56.1-73.6-86.7-108.2    c-8.5-9.6-7.8-6.8-0.5-17.2c15.5-22.1,31.9-43.4,49-64.2c9.3-11.3,17.7-23.3,25.9-35.4c4.1-5.8,5.9-12.8,5.1-19.8    c-0.6-5.5,1.7-7.6,6.2-9.6c15.2-6.9,31.6-10.5,47.1-16.5c6.5-2.5,13-5.1,19.4-7.9c4-1.8,5.6-0.5,6,3.4c0.4,4.3,0.1,8.7-0.9,12.9    c-1.8,7.1-3.4,14.3-5.7,21.2c-6.8,19.9-12.3,40.1-17.3,60.4c-4.6,18.7-6.7,38-10.2,56.9c-5.1,27.1-10.8,54.1-15.9,81.3    c-3.1,16.3-5.4,32.8-8.1,49.2C1193.2,2299.2,1193.2,2301.6,1190.5,2304.7z" style="fill:#D22651;"/><path d="M1224.9,1443.9c-11.7,6.5-23.9,12.1-36.4,16.7c-22.1,8.4-45,14.4-66.8,23.7    c-4.4,1.9-7.5,2.1-10.7-2.9c-14-22.4-30.7-42.6-48.9-61.6c-0.6-0.7-1.2-1.5-1.8-2.3c0.3-3.1,3-3.4,5-4.3    c21.5-10,41.5-22.6,61.9-34.4c2.3-1.3,4.4-3,7.2-3.1c12.3-0.7,24.2-3.5,36-6.8c4.1-1.1,6.7-0.3,9.5,2.9c6.3,7.3,12.2,15,16.6,23.6    c7.9,15,16.5,29.7,25.9,43.8C1223.3,1440.6,1224,1442.1,1224.9,1443.9z" style="fill:#C31E56;"/><path d="M933.2,1076.2c-19.6,22-38.9,43.5-58,65.3c-3.4,3.9-5.5,3.4-8.7,0.1    c-18.2-18.5-37.7-35.8-52.9-57.1c-10.6-14.7-22-28.8-34-42.3c6.1-6.4,11.2-13.1,19.2-17.3c4.6-2.4,9.2-5.5,12.2-10.1    c2-3.1,4.2-3.6,7.5-1.9c36.7,18.9,74.7,35.3,109.2,58.1C929.6,1072.4,931.8,1073.4,933.2,1076.2z" style="fill:#C31E56;"/><path d="M350,550.8c-41.7-26.1-86.1-41.7-127.1-64.3c-2-1.1-4.1-2.2-5.3-4.3c0.2-2.1,1.9-2.5,3.4-3.1    c30.4-11.6,61.3-22,92.3-31.8c7.9-2.5,8.3-2.4,9.4,5.8c2.3,16.1,5.3,32.1,9.1,47.9c2.6,11,6.2,21.7,11.8,31.6    C347,538.2,349.1,544.4,350,550.8z" style="fill:#D22651;"/><path d="M1857.5,481.2c-11.1,7.9-22.9,14.6-35.4,19.9c-32.2,14.2-64,29.2-94.6,46.6c-0.8,0.5-1.8,0.8-4.5,2    c5.3-18.2,15.2-33.2,18.7-50.7s6.5-35.1,10.1-53.9C1787.3,455.7,1821.4,467.7,1857.5,481.2z" style="fill:#D22651;"/><path d="M1543.3,1379.7c-1.5,16.8-4.8,32.7-8,48.6c-0.6,2.8-2.3,4.7-4.1,6.7c-7.1,7.9-14.1,15.9-21.2,23.7    c-14.6,15.9-29.3,31.7-44.1,47.5c-1,1-2.2,1.8-3.3,2.6c-7.7-14.3-15-28.4-22.8-42.2c-2.7-4.8-1.8-7.4,2.5-10.6    c21.5-16.2,42.8-32.6,64.1-49.1c9.5-7.3,18.7-14.9,28.2-22.2C1536.7,1382.8,1538.8,1380.6,1543.3,1379.7z" style="fill:#C31E56;"/><path d="M1744.6,1870.2c-21-2.3-41.8-3.9-61.7-11c-4.1-1.4-4.7-4.1-5.3-7.4c-3.4-18.3-6.8-36.5-10.3-54.8    c-2.6-13.9-5.2-27.8-7.1-41.9C1688.9,1793,1714.9,1832.7,1744.6,1870.2z" style="fill:#D12651;"/><path d="M413,1755.2c-2.4,12.9-4.6,25.8-7,38.6c-3.4,18.3-6.3,36.6-10.1,54.8c-1.5,7.2-4.8,9.9-11.6,12.2    c-18.1,6.2-37.1,6.3-56,9.7C357.4,1832.6,384,1793.3,413,1755.2z" style="fill:#D12651;"/><path d="M1036.1,2110.6c-13.3-15.3-25.6-30.5-38.4-47.7c25.9-1.2,50.5-0.5,75.2-0.4    C1070.3,2070.4,1051.2,2095.3,1036.1,2110.6z" style="fill:#D12651;"/></svg>