<svg id="Layer_1" style="enable-background:new 0 0 2072.8 2762.8;" version="1.1" viewBox="0 0 2072.8 2762.8" x="0px" xml:space="preserve" xmlns="http://www.w3.org/2000/svg" xmlns:xlink="http://www.w3.org/1999/xlink" y="0px"><path d="M902.8,1718.2c13.3,3.3,26.1,4.5,38.8,7.3c19.5,4.3,39.3,6.9,59.3,3.1c1.7-0.2,3.3-0.7,4.8-1.3    c15.5-7.6,32-4,48.1-4.4c2,0.1,3.9,0.7,5.7,1.7c13.8,6.3,28.2,5.9,43,5c21.1-1.3,41.1-7.5,61.8-10.6c1.6-0.2,3.3-0.2,5.2-0.3    c0.8,4-1.1,6.6-3.5,8.8c-9.2,8.4-16,18.7-23.6,28.3c-4.8,6-11.3,10.5-18.6,12.8c-17.8,6-35.9,9.2-54.9,6.5    c-10.2-1.5-20.6-0.9-30.7-3.7c-1.3-0.3-2.7-0.3-3.9,0.1c-12.6,3.7-25.8,3.1-38.6,4.4c-17.4,1.7-34.3-2.6-50.7-8.5    c-5.3-2-10-5.4-13.5-10c-8.2-10.5-16-21.2-25.5-30.7C904.1,1724.8,902.7,1722.6,902.8,1718.2z" style="fill:#898232;"/></svg>