<svg id="Layer_1" style="enable-background:new 0 0 2072.8 2762.8;" version="1.1" viewBox="0 0 2072.8 2762.8" x="0px" xml:space="preserve" xmlns="http://www.w3.org/2000/svg" xmlns:xlink="http://www.w3.org/1999/xlink" y="0px"><path d="M847.1,1672.3c14.8,3.4,28.7,9.3,43.5,10.9c21.4,2.3,43.1,5,63.6-5.5c5.9-3,12.4-4.8,18.5-7.5    c8.6-3.8,17.3-4.8,26.2-1.7c7.2,2.6,14.7,4.5,21.4,8.1c8.5,4.7,16.4,4.6,24.7,0.3c7.1-3.7,14.2-7.3,21-11.5    c9.8-6.1,20.3-5.8,30.9-3.9c11.1,2,22,5.2,32.4,9.6c11.4,4.7,23.9,5.5,36,7.5c9.8,1.6,19.7,0.2,29.5,1.8c5.9,1,11.7-2.7,17.8-1.8    c1.6,0.2,3.3,0.3,7.2,0.6c-9.3,6.4-12,17.4-23.3,18.9c-1.3,0.1-2.6,0.6-3.8,1.3c-11.5,7.7-24.4,7.7-37.5,7.3    c-17.6-0.5-35.1,3.2-52.6,2.8c-12.9-0.3-26,0.6-38.7-1.9c-7.7-1.5-16.1,0.4-23.2-4.5c-0.7-0.4-2-0.2-2.9,0.1    c-20.7,6-42.1,5-63.2,6.4c-9.3,0.6-18.6,0.2-27.8-1.2c-12.6-2.1-25.2-2-37.8-1.4c-12.7,0.6-23.6-3.4-33.8-10    c-6.7-4.3-13.2-8.8-18-15.5C854.3,1677.8,850.9,1674.7,847.1,1672.3z" style="fill:#3E3A18;"/></svg>