<svg id="Layer_1" style="enable-background:new 0 0 2072.8 2762.8;" version="1.1" viewBox="0 0 2072.8 2762.8" x="0px" xml:space="preserve" xmlns="http://www.w3.org/2000/svg" xmlns:xlink="http://www.w3.org/1999/xlink" y="0px"><path d="M582.4,1024.7c20-14.5,40.5-24.9,63.1-29.9c22-4.9,43.8-11.2,66.8-10.5c5.5,0.2,8.9,1.5,11.9,6.6    c8.6,15.2,21.7,26.9,31.8,41c7,9.8,7.5,9.9-1.8,18c-22.8,20-46,39.5-69.7,58.4c-3.8,3.1-6.7,3.1-10.5-0.1    c-23.7-20.5-47.6-40.7-71.2-61.2C595.4,1040.7,588.9,1033.1,582.4,1024.7z" style="fill:#904C9E;"/><path d="M1366.7,1366.7c-14.3,9.1-28.7,18.7-43.4,27.6c-24.6,15.2-50.1,28.8-76.4,40.7    c-7.8,3.5-7.9,3.5-12.6-3.6c-5.3-8.1-10.4-16.2-15.6-24.3c-9.5-15.1-17.7-31.1-30.6-45c11.2-4.7,21.2-9,31.2-13.1    c24.9-10.2,50.7-17.6,76.2-26.1c8.5-2.8,16.8-6.2,25.2-9.3c3.4-1.3,6.3-1.3,8.7,2.1c10.2,14.4,23.1,26.6,32.4,41.7    C1363.6,1360.1,1366.1,1362.5,1366.7,1366.7z" style="fill:#904C9E;"/></svg>