<svg id="Layer_1" style="enable-background:new 0 0 2072.8 2762.8;" version="1.1" viewBox="0 0 2072.8 2762.8" x="0px" xml:space="preserve" xmlns="http://www.w3.org/2000/svg" xmlns:xlink="http://www.w3.org/1999/xlink" y="0px"><path d="M1501.9,83.9c-15.3,0.2-29.1-2.7-41.3-11.3c-8.8-6.2-12-13.5-10.1-24.8    c2.1-12.4,7.3-22.5,13.9-32.6c6.8-10.4,29.8-18.4,39.2-13.7c5.5,2.7,10.7,5.5,14.2,10.5c6.5,9.3,12.3,19,16.3,29.6    c2.7,6.9,3.6,14.3,2.7,21.6c-1.2,9.6-6.5,15.7-15.9,18.4C1514.7,83.4,1508.3,84.2,1501.9,83.9z" style="fill:#FAEE87;"/><path d="M571.4,83.6c-6.3,0.5-12.7-0.1-18.8-1.8c-10.4-3.1-15.6-9.1-16.5-20c-0.7-8.3,0.8-16.7,4.6-24.2    c3.4-6.8,7.2-13.5,11-20.1c13-22.5,35.2-21.5,52.4-6.6c13,11.4,18.3,27.4,19.4,44.5c0.4,6.2-3,10.7-7.5,14.5    c-10,8.5-21.8,12.5-34.7,13.7C578.1,83.8,574.8,83.6,571.4,83.6z" style="fill:#FAEE87;"/><path d="M124.5,817.8c25.4,0.5,43.4,17.5,45,38.2c0.9,12.2-4.3,21.4-14.2,27.8c-13.6,8.8-28.3,9.4-42.9,3.1    c-15.4-6.7-22.3-27.2-15.6-44.4c1.1-2.8,2.9-5.3,3.9-8.1C105.7,821,116.3,817.5,124.5,817.8z" style="fill:#FAEE87;"/><path d="M1945.9,817.9c5.3,1.5,13-0.6,17.9,4.6c6.9,7.3,12.3,16,13.9,26c2.3,14.4-1.7,31.1-15.8,37.7    c-15.6,7.4-36.4,5.9-49.3-6.4c-9.7-9.2-11.1-20-7.3-31.9c2.2-6.7,6.2-12.5,10.4-18C1923,820.2,1933.5,818,1945.9,817.9z" style="fill:#FAEE87;"/><path d="M1036.1,136.3c-3.8-0.2-7.5-0.3-11.1-0.6c-18.6-1.7-30.1-18.5-24.1-37.7    c3.8-11.8,10.6-22.4,19.7-30.7c10.7-10.1,21-10.1,31.7-0.1c9,8.5,15.8,19,19.8,30.7c6.2,18-5.1,35.6-24.1,37.7    C1044,136.1,1040,136.1,1036.1,136.3z" style="fill:#FAEE87;"/><path d="M1035.7,2762.8c-5-0.2-10,0-14.9-0.8c-14.8-2.2-20.7-11.7-18-26.1c1.5-8.8,4.7-17.2,9.5-24.8    c11.3-17.4,36.5-17.2,48-0.5c6.7,9.7,9.3,20.4,10.7,31.6c1,7.9-3.5,14.1-11.7,17.8C1051.7,2763.4,1043.6,2762.4,1035.7,2762.8z" style="fill:#FAEE87;"/><path d="M32.6,733.2c-3.7,0.1-7.3-0.1-10.9-0.8c-16.3-3.6-23.4-11.8-21.3-28.2c1.8-14.3,7.1-27.6,18.8-37.3    c4.1-3.4,8-4.3,12.8-2.1c4.5,2.1,9.2,4.1,12.7,7.8c8.4,8.8,14.8,19,18.2,30.6c4.5,15.3-2.6,26.1-18.3,29.1    c-2.6,0.5-5.3,0.7-7.9,0.9C35.3,733.3,33.9,733.2,32.6,733.2z" style="fill:#FAEE87;"/><path d="M2039.5,733.6c-3.6-0.4-7.2-0.8-10.9-1.2c-16-2.2-21.9-12.9-18.8-26.1c4-17.1,12.4-32.2,29.2-40.7    c6.2-3.1,11.2-2.5,16.1,2.6c10.7,11.2,17.3,24.4,17.6,39.9c0.2,13.3-5.7,20-18.4,23.5C2049.5,732.9,2044.5,733.5,2039.5,733.6z" style="fill:#FAEE87;"/><path d="M1921.7,1939.7c-12.5,0.9-21.9-4.3-28.9-14.4c-4.7-6.9-5.8-14-1.6-21.5    c8.6-15.1,20.4-25.1,38.8-25.3c3.7-0.2,7.3,1.4,9.6,4.3c11.8,13.5,13.9,28.9,8.6,45.6c-1.4,4.4-4.5,7.1-8.8,8.8    C1933.5,1939.3,1927.6,1939.2,1921.7,1939.7z" style="fill:#FAEE87;"/><path d="M149.8,1939.7c-4.9-0.2-10.8-0.5-16.6-2.6c-4.5-1.5-8-5.2-9.1-9.8c-4.2-15.2-2.9-29.5,7.2-42.4    c3.6-4.6,7.6-6.7,13.6-6.5c15.8,0.5,34.6,14.8,38.6,30c1.5,5.8,0.1,11.2-3.1,16.1C173.4,1935.4,165.2,1939.6,149.8,1939.7z" style="fill:#FAEE87;"/><path d="M1867.7,2261.2c-7.2,0.3-13.8-1-19.9-5.2c-8.3-5.7-12.7-13.2-12.2-23.6c0.6-12.8,6.9-22.8,16-31    c6-5.4,16.8-4.9,24.3,0.1c10.2,6.8,14.9,17.5,18.7,28.6c1.3,3.9-1.9,6.9-2.4,10.4c-1,6.6-5.8,11-9,16.2    S1873.3,2260.9,1867.7,2261.2z" style="fill:#FAEE87;"/><path d="M205,2261c-13.7,0.1-17.8-2.6-23.3-16.8c-2.6-6.6-5.6-13.3-1.3-20.9c5.5-9.5,9.8-19.8,21.1-24.2    c8.8-3.4,18.6-1,24.2,6.5c6,8,11.6,16.2,11.5,27c-0.2,15.2-11.1,27-26.3,28.4C209,2261.1,207,2261,205,2261z" style="fill:#FAEE87;"/><path d="M1500.3,1520.2c-19.3,19.5-42.1,34.7-63.6,51.6c-23.7,18.7-50.5,31.1-80.3,35.6    c-23.4,3.5-47.1,4.9-70.7,2.8c-14.5-1.3-29.4-1.5-42.9-8.1c-12.9-6.3-26.2-11.7-38.3-19.3c-10.2-6.2-21.3-10.7-33-13.2    c-10-2.3-20.1-6.6-30.4-4.8c-15.2,2.7-30.2,4.8-45.6,3.1c-1.3,0-2.6,0.3-3.9,0.9c-13.5,4.7-27.3,8.8-37.7,19.4    c-9.2,9.3-25.1,10.1-34.9,0.2c-9.5-9.6-21.8-13.7-33.9-18.2c-4.3-1.6-9-2.2-13.6-1.9c-11.3,0.7-22.6,0.8-33.7-2.6    c-5.5-1.7-11.2-1.5-16.8-0.4c-6.5,1.2-13.2,2.3-19.5,4.3c-8.2,2.6-16.9,3.4-24.6,7.8c-26.4,15.4-52.5,30.7-84.7,32.5    c-25.5,1.4-50.7,1.1-75.7-2.4c-30.2-4.2-57.1-17.3-81.1-36.1c-21.8-17-44.8-32.5-64.3-52.3c-0.4-0.4-1.2-0.4-2.5-0.9    c0.7,3.4,1.2,6.5,1.9,9.6c5.8,24.3,14.4,47.8,21.6,71.6c4.4,14.7,7.9,29.6,15.5,43.1c14.4,25.5,27.6,51.7,40.9,77.7    c2.6,5,5.5,9.9,8.5,14.7c18.6,28.8,37.1,57.6,55.9,86.3c6,9.2,12.7,17.9,19.7,27.7c5.3-8.2,12.7-9.9,20.5-10.5    c19.1-1.5,37.6,0.4,55.9,7.2c24.3,9.1,47.3,19.7,63.2,41.4c1.9,2.7,4.3,2.8,7,1.7c4.7-1.9,8.7-4.8,12.8-7.8    c10-7.3,20.5-13.6,32.8-16.3c22.7-5,43.5,1.3,63.8,10.6c2.2,1,4,3.6,7.5,2.2c-0.3-5.6-0.5-11.2-1-16.8    c-1.3-16.9-2.8-33.9-0.3-50.8c0.5-3.7-0.9-4.8-4.1-4.9c-9.8-0.4-18.6-4.8-27.8-7.5c-7.8-2.2-14.3-6.9-21.6-10.2    c-6.7-3.1-10.5-9.8-15-15.6c-14.1-18.1-28.7-35.8-43-53.7c-4.2-5.3-9.6-9.2-15.3-12.6c-2.5-1.5-5.2-2.8-7.4-5    c-10.5-10.6-21.3-21.1-32-31.6c-2.5-2.3-4.5-5-5.9-8c-1.8-4.1,0.4-7.2,2.8-9.9c2.6-3,4.7,0.3,7,1.2c4.4,1.7,7.2,5.8,11.7,7.4    c17.3,6,34.7,11.8,52.8,14.5c15.9,2.4,31.7,1.8,46.7-6c9.4-4.9,19.6-8.2,29.5-12.3c3.6-1.7,7.6-2.5,11.6-2.6    c16.1,0.4,30.9,4.6,43.3,15.2c3.7,3.2,6.3,3.7,10.4,1c7.8-5.1,15.8-9.8,23.9-14.5c7.5-4.5,16.2-6.5,24.9-5.7    c11.3,1,22.6,2.2,33.2,6.5c16.1,6.7,33,10.2,50.3,12c19.6,2.1,39.1,2.2,58.2-4.7c7-2.6,13.9-6.2,22-6c-1.9,5-7.4,7.1-8.6,11.3    c-2.6,8.9-9.2,14.6-15.2,20.7c-8.4,8.5-15.8,18-25.8,25c-10.1,6.9-19.4,14.9-27.9,23.7c-8,8.5-14.1,18.5-21.9,27.2    c-5.5,6.2-8.7,14.2-15.8,19c-15.7,10.7-33.5,17.8-52.2,20.7c-4.8,0.7-6.6,1.9-5.3,6.8c1.7,6.2,0.9,12.5,0.8,18.9    c-0.2,16.2-1.8,32.3-2.8,48.3c2.2,0.7,3.1-0.5,4.2-1.1c41-21.6,71.8-19,101.6,4.3c4.8,3.8,9.9,7.3,15.3,11.2    c3.5-7.9,8.9-14.8,15.8-20c29.9-23,63-36.7,101.5-35c9.8,0.4,19.2,1.6,25.8,10.2c21.1-27.5,38.4-56.8,57.2-85    c9-13.6,17.8-27.3,25.7-41.6c14.4-26.2,27.2-53.3,42-79.4c3.6-6.4,6.4-13.2,8.6-20.2c8.5-26.9,16.8-54,24.9-81.1    c2.1-7.1,4.5-14.3,4.9-22.5C1501.9,1519.3,1500.9,1519.6,1500.3,1520.2z M1124.6,1601.7c-0.4,0.5-0.9,1-1.4,1.4    c-16.3,11-30.8,24.3-45.2,37.7c-11.9,11.1-26.9,12-39.5,13.3c-20.6-0.4-37-5.1-50.1-18.9c-10.8-11.4-23.3-20.9-36-30    c-9.8-7-10.2-13.4-1.3-21.7c9.8-9.2,24.2-11.2,36.1-5.1c7.7,3.9,14.4,9.4,21.5,14.3c11.2,7.6,23.5,14.1,38,8.5    c7.3-2.8,14.5-5.4,20.7-11.1c7.5-6.9,16.4-12.2,26.9-14.4c12.3-2.6,26.2,3.6,32.2,14.5C1129,1594.9,1128.2,1598.3,1124.6,1601.7z" style="fill:#EEE151;"/></svg>