<svg id="Layer_1" style="enable-background:new 0 0 2072.8 2762.8;" version="1.1" viewBox="0 0 2072.8 2762.8" x="0px" xml:space="preserve" xmlns="http://www.w3.org/2000/svg" xmlns:xlink="http://www.w3.org/1999/xlink" y="0px"><path d="M1444.4,1205.7c12.9,22.8,30.9,40.6,44,61.8c4,6.4,4.2,6.6-1.8,11c-32.8,23.9-63.8,50.1-97.4,72.9    c-2.2,1.5-4.4,2.9-6.6,4.5s-3.6,1-5-0.9c-0.4-0.5-0.8-1.1-1.1-1.6c-8.5-13.6-19.2-25.4-29.8-37.4c-1.7-2-3.8-3.7-4.7-6.9    c9.8-5.1,20.2-8.3,30.4-12c7.8-2.8,15.7-5.4,23.5-8.2c1.2-0.5,2.5-1,3.7-1.6c9.6-4.7,11-7.4,8.9-17.8c-1.8-9.2-4.4-18.1-9.4-26    c-2.5-3.9-1.7-5.8,1.7-8c5-3.3,9.8-6.9,14.8-10.2C1425,1219.3,1434.8,1213.7,1444.4,1205.7z" style="fill:#FBAA1D;"/><path d="M1295,1539.7c11.6-5.5,22.8-11.2,34.3-16.2c30.9-13.5,59.8-30.4,87.8-49.3    c6.8-4.6,7.2-4.7,10.6,2.8c5.6,12.5,14,23.4,20,35.7c2.2,4.6,1.5,6.6-2.1,9.8c-12.7,11.2-27.1,20.3-42.7,27    c-23.7,10.4-47.1,21.6-72.3,28.1c-14.5,3.8-14.4,3.8-20.8-9.2C1304.9,1559,1300.1,1549.5,1295,1539.7z" style="fill:#FBAA1D;"/><path d="M831.1,1203.5c12.9-14.7,28.6-24,41.9-37.7c32.9,35.7,65.2,71.5,102.8,101.8    c-12.1,12.8-24,25.3-37,36.6C914.5,1258.7,878.8,1225.4,831.1,1203.5z" style="fill:#FBAA1D;"/></svg>