<svg id="Layer_1" style="enable-background:new 0 0 2072.8 2762.8;" version="1.1" viewBox="0 0 2072.8 2762.8" x="0px" xml:space="preserve" xmlns="http://www.w3.org/2000/svg" xmlns:xlink="http://www.w3.org/1999/xlink" y="0px"><path d="M861.3,1154.7c-7.7,8.3-14.6,16-21.8,23.3c-5.6,5.7-11.9,10.7-17.4,16.4c-3.3,3.4-6.3,3.6-10.6,2.2    c-13.4-4.1-26.8-8-41.1-6.3c-3,0.4-6-0.6-8.1-2.8c-21.7-20.1-45.3-38.2-66.2-59.2c-5.3-5.3-5.7-5.4,0.6-10.4    c19.3-15.3,38.3-31.1,56.8-47.2c4.3-3.7,8.6-7.3,12.8-11.1c6.9-6.3,6.8-6.3,13,1.2c7.2,8.7,14.2,17.6,20.7,26.9    c15.8,22.4,35,41.8,54.4,61C856.9,1151.1,859.5,1153.1,861.3,1154.7z" style="fill:#8B9E4B;"/><path d="M1501.9,1288.2c7.8,15.7,15.2,30.2,22.3,44.8c4.1,8.4,7.7,17,11.7,25.4c1.7,3.5,1.7,5.9-1.7,8.5    c-33.7,26-67.4,52.1-101.1,78.2c-1,0.6-2.1,1.1-3.2,1.6c-4.2-7.6-8.3-15.1-12.5-22.7c-8.5-15.4-16.9-31-25.6-46.3    c-2.4-4.2-2.4-6.8,2-9.7c35.5-23.6,68.1-51.2,102.6-76.2C1497.9,1290.7,1499.3,1289.9,1501.9,1288.2z" style="fill:#8B9E4B;"/></svg>