<svg id="Layer_1" style="enable-background:new 0 0 2072.8 2762.8;" version="1.1" viewBox="0 0 2072.8 2762.8" x="0px" xml:space="preserve" xmlns="http://www.w3.org/2000/svg" xmlns:xlink="http://www.w3.org/1999/xlink" y="0px"><path d="M1025.2,1173.8c-0.1,0.7-0.1,1.3,0,2c3.1,19.8-3.4,36.2-16.3,51.1c-6.9,8-12.4,17.3-18.8,25.8    c-4.2,5.5-4.5,5.4-10.1,0.9s-11.5-9.1-16.7-14.2c-22.2-21.5-45-42.6-65.2-66.1c-3.7-4.3-7.7-8.3-11.6-12.4    c-6.8-7.1-6.8-5.6-0.1-13.3c12.4-14.3,25.1-28.4,37.8-42.5c5.8-6.4,11.8-12.6,17.6-19.1c2.5-2.7,4.3-3,7.5-0.5    c13.1,10.2,28,18,40.6,29c6.3,5.5,12.7,10.8,18.6,16.7c2.8,2.8,5.4,6.3,9.2,7.5c6.5,2,7.6,6.7,7.5,12.4    C1025.1,1158.5,1025.2,1166.2,1025.2,1173.8L1025.2,1173.8z" style="fill:#22BCBA;"/><path d="M1247.5,1452.5c45.5-20.2,87-45.2,126.7-71.5c2.7-0.2,3.3,1.1,3.9,2.2c11.8,22,23.7,43.9,35.4,65.9    c4.3,8,4.2,8.2-3.2,13.3c-28.2,19-57.4,36.1-88.3,50.3c-8.8,4-17.4,8.3-26.2,12.1c-7.6,3.3-7.8,3.2-11.5-3.7    c-7.3-13.4-14.3-27-21.5-40.5C1258,1471.6,1253,1462.6,1247.5,1452.5z" style="fill:#22BCBA;"/><path d="M1565.5,1097.5c1.5,5.4,1.1,10.4,1.2,15.3c0.2,29.3,0,58.6,0.4,87.9c0.1,6.8-2.2,11.3-7.3,15.3    c-18.8,14.8-37.6,29.7-55.6,47.7c-15.2-23.3-33.9-43-50.6-66.1C1495.1,1168.8,1531,1134.6,1565.5,1097.5z" style="fill:#22BCBA;"/></svg>