<svg id="Layer_1" style="enable-background:new 0 0 2072.8 2762.8;" version="1.1" viewBox="0 0 2072.8 2762.8" x="0px" xml:space="preserve" xmlns="http://www.w3.org/2000/svg" xmlns:xlink="http://www.w3.org/1999/xlink" y="0px"><path d="M760.6,648.6c-3.8-4.3-4.8-8.2-6.2-11.8c-10.7-27-25.6-51.9-39.8-77.1c-0.7-1.5-1.8-2.8-3-3.9    c-19.4-15-33.6-34.7-49.1-53.3c-4.8-6-10.1-11.5-16-16.5c-10.9-8.9-18.1-21.3-28.3-30.9c-1.1-1-1.5-2.9-2.1-4.5    c-20-54-32.9-109.7-37.8-167c-4-46.2-4.5-92.5,1.1-138.6c1.6-13.6,5.5-26.7,13.4-38.3c5.5-8,7.3-8.6,12.9-0.9    c10.6,14.6,22.5,28,34.2,41.7c17.3,20.3,32.1,42.6,50.2,62.2c13.1,14.2,25.7,28.9,38.4,43.4c39.4,45,69.7,95.6,95.1,149.5    c2.7,5.8,2.8,10.8,0.7,16.9c-11.8,35-26.9,68.8-38.2,104c-9.3,29-15.1,58.6-20.2,88.4C763.8,623.5,762.4,635.4,760.6,648.6z" style="fill:#32358A;"/><path d="M1313.8,647.5c-4.8-27.8-9.8-55.2-15.6-82.4s-14.5-53.3-24.5-79c-8.9-23-17.1-46.2-26-69.1    c-1.8-4.5-1-8.2,0.9-12.3c13.5-29,28.8-57,45.7-84.1c24.4-39.3,54.7-73.7,85.7-107.7c18.7-20.4,34.3-43.3,52.2-64.4    c11.8-13.9,24.3-27.4,34.7-42.5c0.8-1,1.7-2,2.6-3c2.9-3.3,5.7-3.2,8.1,0.4c4.4,6.7,9,13.3,11.1,21.1c2.6,9.3,4.4,18.8,5.5,28.3    c4.8,45.9,3.9,91.8-0.6,137.6c-4.7,47.1-14.6,93.5-29.3,138.4c-6.3,19.4-16.6,35.1-30.1,49.5c-1.7,2-3.6,3.9-5.6,5.7    c-8.8,6.7-15.9,15.1-22.6,23.9c-11.1,14.6-24.2,27.5-36,41.5c-0.4,0.5-0.8,1.2-1.3,1.5c-10.8,5.1-14.2,16.1-19.8,25.4    c-12.1,19.9-22.5,40.8-31.3,62.4C1316.6,641.5,1315.1,644.5,1313.8,647.5z" style="fill:#32358A;"/><path d="M1610.3,900.5c2.5-6.6,7-11,10.9-15.7c1.9-2.3,4.4-4.2,5.9-6.7c14.8-24.4,35.2-44.1,53.7-65.5    c17.8-20.6,38.7-37.4,59.5-54.5c7-5.8,13.9-7.1,22.9-5.5c37.9,6.5,73.3,18.8,105.5,40.3c6.4,4.2,11.7,9.9,15.3,16.7    c4.8,9,1.7,14.3-8.4,13.7c-73.5-4.5-168.7,22.8-218.2,49.8c-12.9,7-25.3,14.7-37.7,22.6C1616.9,897.3,1614.6,899.6,1610.3,900.5z" style="fill:#32358A;"/><path d="M461.1,900.5c-5-3.2-10-6.3-14.9-9.6c-46.8-30.9-98.8-48.5-153.3-59.8c-25.8-5.4-52.1-6.9-78.2-9.5    c-5.5-0.6-10.5,1.3-15.8,1.5c-3.9,0.2-8.7,1.5-11-2.6c-2.5-4.3-1.3-8.8,1.6-13c4.1-6,9.3-11.2,15.4-15.3    c33.3-22.2,70.3-34.3,109.6-40.5c5.3-0.8,9.7,0,13.9,3.4c21.3,17,42.9,33.5,60.9,54.4c13.7,15.9,28.5,30.8,41.5,47.2    c10.8,13.8,20.4,28.6,31.8,42C462.2,899.4,461.7,899.9,461.1,900.5z" style="fill:#32358A;"/><path d="M210.7,2285.1c3.3,1,4.2,2.9,5.1,4.6c8.3,16.6,22.8,27.5,36.1,39.5c4.1,3.7,9,5.2,14.6,5.7    c9.6,0.8,11.2,3.3,6.4,11c-11.4,18.1-23.4,35.7-42.9,46.4c-3.5,1.9-6.9,4-10.3,6.1c-5.2,3.3-10.2,2.8-14.8-0.9    c-10.7-8.6-17.5-19.2-19.7-33.4c-2.7-17.7,1.2-33.7,8.6-49.3C198.5,2304.3,204.2,2294.4,210.7,2285.1z" style="fill:#2E2C74;"/><path d="M1861.9,2285.4c7.2,8.7,11.9,19.4,17.2,29.6c7.9,15.2,10.1,31.4,8.5,48.4    c-1.4,15.1-9.4,26-20.9,34.8c-4,3.1-8.5,2.8-13.1,0.6c-23.8-11.4-40-30.5-53.5-52.3c-4.9-7.9-3.3-11,5.6-11.6    c7-0.4,13.7-3.4,18.7-8.4c12.4-12,26.3-22.6,34-38.8C1858.9,2286.3,1860.3,2285.4,1861.9,2285.4z" style="fill:#2E2C74;"/></svg>