<svg id="Layer_1" style="enable-background:new 0 0 2072.8 2762.8;" version="1.1" viewBox="0 0 2072.8 2762.8" x="0px" xml:space="preserve" xmlns="http://www.w3.org/2000/svg" xmlns:xlink="http://www.w3.org/1999/xlink" y="0px"><path d="M1025.9,1412.7c-16.2-13.6-32.2-25.3-50.2-34.2c-8.3-4.1-16-9.4-23.8-14.4c-1.8-1.1-4.4-1.9-4-5    c1.1-8-0.5-15.9-0.9-23.8s-3.3-15.4-6-23.3c12.6-3.6,20.4-12.8,28.9-21.1c4.3-4.2,8.5-8.4,12.7-12.7c2.2-2.2,4.2-3,6.7-0.4    c9.6,9.8,21.3,16.9,32.3,24.9c4,2.9,4.1,6.3,4.1,10.3c0,23.9,0.1,47.8,0.2,71.8C1025.9,1393.7,1025.9,1402.6,1025.9,1412.7z" style="fill:#323C97;"/><path d="M1137.2,1535.6c-32.7,9.2-64.1,18.1-91.2,39.3c-1.7-14.4-1.2-27.6-1.3-40.7    c0-4.8-2.8-10.9,0.7-14.2c2.8-2.7,8.7-2.4,13.3-2.8c15.9-1.7,31.4-4.9,46.2-11.3c3.3-1.4,5.5-1.1,7.7,1.9    C1119.7,1517.9,1128,1527.3,1137.2,1535.6z" style="fill:#323C97;"/><path d="M1565.2,1233.7c-3.3,39.2-6.8,77.8-13.7,116.1c-4.2-1.4-4.7-5.1-6-8c-8.9-20.4-18.5-40.4-29.4-59.8    c-1.9-3.4-2.1-5.7,1-8.5c14.7-13.5,29.4-26.9,45.1-39.2C1562.6,1234,1563.4,1234.1,1565.2,1233.7z" style="fill:#323C97;"/><path d="M1299.9,1581.9c-15,4.2-64-8.7-78.1-20.5c18.5-5.4,36.6-10.5,54.6-16c4-1.2,5.5,1.1,7,3.8    C1289.2,1559.6,1294.8,1570.2,1299.9,1581.9z" style="fill:#323C97;"/><path d="M771,1032.4c-12.6-14.9-24.8-29.2-37-43.6l0.9-1.8c21.2,5,41.7,12.5,64.2,17.3    C788.9,1013.8,781.8,1024,771,1032.4z" style="fill:#323C97;"/></svg>