<svg id="Layer_1" style="enable-background:new 0 0 2072.8 2762.8;" version="1.1" viewBox="0 0 2072.8 2762.8" x="0px" xml:space="preserve" xmlns="http://www.w3.org/2000/svg" xmlns:xlink="http://www.w3.org/1999/xlink" y="0px"><path d="M667,1121.1c-2.3,3.7-6.2,5.2-9.3,7.4c-6,4.2-12.3,8-18.1,12.3c-15,11.2-31.4,19.6-48.7,26.8    c-10.7,4.5-17.8,2.8-25.4-5.2c-12.4-13-25.5-25.3-38.2-38c-4.7-4.7-9.2-9.6-13.8-14.4c-8.7-9.2-9.3-18.4-0.8-27.9    c7.1-8,14.6-15.5,22.6-22.5c8.7-7.7,17.8-15,26.2-23c1.9-1.8,4.3-3.2,6.3-4.8c2.5-2,4.4-2.2,6.7,0.6    c24.3,30.3,54.8,54.1,83.8,79.5c2.5,2.2,5,4.4,7.4,6.7C666.1,1119.4,666.6,1120.2,667,1121.1z" style="fill:#E75025;"/><path d="M1125.6,1499c10.3-5.2,20.8-8.3,31.2-11.5c23.6-7.3,46.9-14.9,69.3-25.3c7.8-3.6,8.1-3.5,12.2,3.9    c11.2,20.5,22.1,41.1,33.1,61.6c1.5,2.8,3.1,5.8-1.6,7c-20.9,5.5-41,13.8-62.1,18.7c-6.2,1.5-12.7,0.5-18.2-2.8    c-6.1-3.5-12-7.2-18.4-10c-4.6-2-9.3-3.9-14.4-3.8c-5.6,0.2-8.8-2-11.7-7.1C1139.3,1519.3,1132.3,1509.6,1125.6,1499z" style="fill:#E75024;"/><path d="M1025.2,1226.8v17.8c0,12.6,0.2,25.2-0.1,37.9c-0.1,5.8-3.2,7.5-7.5,3.9    c-7.4-6.1-14.3-12.9-21.3-19.5c-1.4-1.3-1.1-3,0.1-4.5L1025.2,1226.8z" style="fill:#E24F24;"/></svg>