<svg id="Layer_1" style="enable-background:new 0 0 2072.8 2762.8;" version="1.1" viewBox="0 0 2072.8 2762.8" x="0px" xml:space="preserve" xmlns="http://www.w3.org/2000/svg" xmlns:xlink="http://www.w3.org/1999/xlink" y="0px"><path d="M1026.6,1575.4c-20.3-17-43.9-25.1-67.6-32.9c-13.8-4.6-27.6-7.2-42.2-5.9c-5,0.3-9.9,1.5-14.4,3.5    c-18.8,8.6-37.5,17.2-56.4,25.4c-9.4,4.1-19,8.2-28.9,11.1c-11.1,3.2-22.8,4-34.1,7c-4.8,1.3-10.5-0.4-15.8-1.2    c-19.8-2.9-39.1-7.8-57.5-15.9c-14.9-6.5-30.4-11.9-44.8-19.6c-28.1-15-53.6-33.6-74.3-58c-15.1-17.8-32.1-33.8-47.3-51.5    c-3.6-4.2-6.2-8.5-7.1-13.9c-2.5-13.7-5.2-27.4-6.7-41.3c-0.4-4.3-1.3-8.6-2.6-12.7c-6.6-18.3-8.3-37.6-11-56.7    c-4.5-31.6-6.7-63.4-8.7-95.3c-1.6-26.6-0.8-53.2-1.1-79.8c-0.1-1.7,0-3.3,0.2-5c0.8-4.3,3.8-5.3,6.9-2.2c7.5,7.6,15,15.1,22.2,23    c14.5,15.6,30.4,29.9,47.5,42.7c7.2,5.5,12.3,12.9,19.6,18.2c16.8,12.2,35.4,21.2,53.7,30.7c1.5,0.8,2.9,1.6,4.5,2.2    c7,2.8,10.8,7.4,9.3,15.4c-0.4,2.3,0.2,4.7-0.2,7c-2.6,12,2.7,17.9,13.5,23.3c30.7,15.5,63,24.6,96.8,29.7c1.3,0.1,2.6,0.3,4,0.6    c29.8,9.3,60.7,15.3,89.5,27.7c12.8,5.5,25.4,11.6,38.4,16.9c9.5,3.9,18.9,8.7,29.8,5.5c2.3-0.7,3.7,0.9,5.3,2    c12.2,8.1,24.9,15.4,38,22c4.8,2.4,8.9,5.8,13.2,9c5.8,4.4,11.5,9.5,18,12.5c8.9,4.2,11.6,10.2,11.6,19.7    c-0.3,41.6,0.1,83.2,0.1,124.9C1027.6,1567.1,1028.2,1570.8,1026.6,1575.4z" style="fill:#A55125;"/><path d="M1046.3,1406.4c0-12.7-0.6-24.3,0.2-35.8c0.7-11.3,0.6-22.6,0.9-33.9c0.2-6.9-0.6-13.9,1.8-20.8    c0.8-2.6,0.8-5.3,0.1-7.9c-2.7-8.5-1.6-17.2-1.6-25.8c-0.1-43,0.1-85.9-0.1-128.9c0-7.3,0.7-13.1,9-15.5c2.6-0.8,4.7-3.6,6.8-5.7    c14.5-14.3,30.6-26.5,47.5-37.9c23.4-15.8,46.7-32,71.8-45.1c24.2-12.7,48.5-25.1,73.2-36.6c16.6-7.7,34.3-12.6,52-17    c3.9-1,7.7-2.1,11.4-3.5c22.4-8.1,46.5-9.7,69.8-4.7c20.8,4.3,42,6.9,61.7,15.8c9.7,4.4,19.3,8.8,28.3,14.6    c7.5,4.8,14.8,10.2,23.6,12.8c2.4,0.7,4.6,2.7,6.5,4.5c16.2,14.8,33.7,28.3,48.4,44.7c4.6,5.1,4.7,5.6,0.5,9.7    c-18,17.3-36,34.7-54.1,51.8c-34,32.1-71.4,59.8-110.5,85.4c-3.1,2-5,2.2-7.6-0.6c-9.6-10-22-16-33.5-23.3    c-12.7-8.1-27.5-9.4-42-11.5c-18.7-2.7-36.3,1-53.9,7c-21.7,7.5-42.2,18.3-60.8,31.8c-3.3,2.3-6.4,4.8-9.2,7.6    c-11.2,11.8-23.1,23-33.7,35.5c-12.6,14.8-19.8,32.4-24.7,50.8c-2,7.5-1,15.9-0.5,23.9c0.7,10.1-2.8,16.9-11.9,21.8    C1093.4,1381.8,1071.9,1395.9,1046.3,1406.4z" style="fill:#A55125;"/><path d="M1117.5,1997.8c-53.5,9.9-108.5,9.9-162,0c5.3-2.2,10.4-5.2,15.9-6.4c22.3-4.8,30.5-40.5,17.2-58.3    c-11.5-15.4-35.9-24.4-53.2-18.2c-12.1,4.4-19.9,13-24,25c-2.7,7.8-0.2,12.9,7.5,15.8c5.1,1.8,10.6,2,15.8,0.7    c4.4-1,5.2-4,1.9-7.2c-2.8-2.7-6.2-5-9.8-7.8c3.4-7.3,10.6-12.2,18.7-12.6c12.6-0.8,23.7,3.2,31.6,13.7s2.9,28.4-8.6,34.2    c-18.2,9.2-37.8,10.8-57.5,9.1c-18.6-1.6-33.8-11.2-46-25.5c-3.9-4.6-3.8-9.9-2.8-15.2c3.2-17,12.3-30.8,24.9-42.2    c5.7-5.1,12.2-9.2,18.5-13.6c16.3-11.4,34.3-13.6,53.4-9.2c13,3,25.8,6.5,36.3,15.4c2.4,2,4.7,3.6,4.9,6.9c0,0.3,0.1,0.7,0.2,1    c8.5,21.5,11.3,23.4,34.6,23.3c4.7,0,9.3-0.1,14,0c7.5,0.3,12.7-3.2,16.1-9.6c1.7-3.2,3.9-6.4,4.7-9.9c2.4-9.8,9.8-14.7,17.8-18.6    c16.5-8.2,34.9-11.7,53.3-10.2c4.3,0.5,8.5,1.7,12.4,3.6c19.8,9.5,37.3,21.8,48.9,41.1c4.9,8.1,7.4,17,8.7,26.3    c0.6,4.6-1.2,8.2-4.3,11.7c-16.3,18.5-36.7,26.9-61.3,24.9c-13.6-1.1-27.1-2.4-39.7-8.7c-11.5-5.7-17.3-19.9-11.9-31.7    c6.9-15.1,35-24.3,48.7-9.7c3.9,4.2,4,4.8-0.5,8.4c-0.8,0.6-1.7,1.1-2.4,1.8c-2.2,2.2-6.4,3.6-4.8,7.7c1.3,3.2,5,2.9,7.9,3    c2.3,0.1,4.7,0,7-0.3c11.2-1.8,15-8.9,10.7-19.5c-7.8-19-27.2-27.2-43.6-23.4c-11.4,2.7-21.4,6.5-29.3,15.5    c-14.8,16.8-10.9,37.9-1,52.6c2.7,4,7,6.1,11.3,7.9C1104.2,1992.5,1110.8,1995.1,1117.5,1997.8z" style="fill:#A55125;"/><path d="M1562.5,1059.8c-12.6-12.3-25.9-23.3-38.5-35c-8.2-7.8-17.6-14.2-27.8-19.1    c-7-3.2-13.6-6.9-19.9-11.3c-18.4-13.1-39.8-18.2-61.2-23c-18.6-4.1-37.6-4.7-56.6-5.8c-15.9-0.9-31,3.3-46.1,7.5    c-8.7,2.4-17.3,4.7-26,6.7c-16.6,3.8-32.6,9.7-47.7,17.5c-31.1,15.9-63.1,30.2-92.8,48.6c-8.7,5.4-17.3,11-26,16.6    c-2.7-2.3-1-4.5-0.8-6.6c1.1-8.2,3.2-16.4,2.4-24.8c-0.5-5,1.4-8.2,5.8-10.5c9.2-4.7,18.2-9.7,27.5-14.2    c27.3-13.1,54.9-25.6,83-36.8c29.1-11.6,58.9-21.5,90.2-24.2c27.1-2.3,54.5-3.5,81.3,3.8c3.9,1,7.8,1.7,11.7,2.2    c20.8,2.6,39.3,11.4,58.2,19.7c28,12.4,51.8,31,74.9,50.5c3.2,2.7,5.3,5.6,5.9,9.9C1561.4,1040.8,1562.9,1050,1562.5,1059.8z" style="fill:#A55125;"/><path d="M509.5,1059c0.7-10.2,2.1-20.4,4.1-30.5c0.5-2.5,2-4.1,3.8-5.7c19.2-17.5,40.4-32.7,63-45.5    c10.3-5.8,21.8-9.7,32.6-14.7c21-9.7,43.6-11.4,65.6-16.2c12.8-2.8,26.3-2.9,39.7-2.1c14.6,0.9,29.2,1.5,43.7,3.7    c30.9,4.8,59.6,16.3,88.2,27.9s56.7,24.8,84.3,38.8c1.8,0.9,3.6,1.8,5.4,2.6c8.3,3.7,13.3,8.8,11.7,19c-1.3,8.5,2.3,16.9,2.6,25.5    c-3.2,0.4-4.9-1.5-6.7-2.8c-41.6-28-86.8-49.1-132.1-70.2c-6.7-3.1-13.7-5.1-20.8-7c-15.1-4.1-30.3-7.6-45.3-11.7    c-20.3-5.6-40.8-4.8-61.5-2.9c-19.9,1.9-39.5,5.1-58.5,11.7c-11.4,3.9-22.2,8.4-32.3,15.2c-10.8,7.2-22.9,12.2-33.7,19.4    c-16.7,11.1-30.5,25.8-44.9,39.5c-2.3,2.2-4.3,4.9-6.4,7.4L509.5,1059z" style="fill:#A55125;"/><path d="M1944.5,2076.7c4.5-18.4,3.9-37.7,7.9-56.6c3.1-14.5,3.8-29.6,3.5-44.6c-0.1-5.3,0.4-10.6,1.6-15.8    c1-4.8,3.8-7.3,9.1-7.4c6.2-0.1,12,0.9,17,4.5c25,17.9,49.3,36.3,62,65.8c3.3,7.6,8.3,14.4,12.7,21.4c2.7,4.2,2.1,7.3-2.3,9.8    c-10.7,6-21.5,12.1-33.4,15.2c-23.1,6.1-46.5,10.9-70.7,9.6c-1.7-0.1-3.3-0.2-5-0.4C1946.3,2078,1945.8,2077.5,1944.5,2076.7z" style="fill:#7F1832;"/><path d="M109.2,2078.5c-27.6-2.2-55-5-80-18.4c-4.1-2.2-8.9-2.9-12.6-5.9c-3.2-2.6-4.6-5-2.4-9.3    c17.3-34.3,38.3-65.4,72-86.1c5.5-3.3,10.8-6.5,17.5-6.4c8.8,0.1,11.8,2.2,12.1,10.8c0.3,9,1,17.9,1.6,26.9    c1,13.6,2.2,27.1,5.1,40.5c1.9,9.1,2.4,18.4,3.1,27.7c0.3,4.6,0.9,9.3,1.9,13.8c0.8,4.1-0.7,6.4-5.2,6.4    C117.9,2078.4,113.5,2078.5,109.2,2078.5z" style="fill:#7F1832;"/><path d="M1037,1804.9c7.4-1,14.9,1.4,22.5,1.5c3.6,0.1,5.3,2.1,6.2,5.3s1.7,6.5,1.3,9.8    c-1.7,17.2-0.9,34.5-1.4,51.8c-0.3,10.5-4.1,20.1-6.4,30.1c-0.4,1.6-1.5,3-2.9,3.8c-9.6,6.4-30.5,6.4-40.1,0.1    c-1.4-0.9-2.4-2.3-2.8-3.9c-2.4-9-5.5-17.7-6.1-27.1c-1.2-17.9-1.2-35.8-1.6-53.8c0-1.7-0.1-3.3,0-5c0.7-9.1,2.1-10.4,11.2-11.4    C1023.5,1805.4,1030.1,1804.4,1037,1804.9z" style="fill:#A55125;"/><path d="M1334.5,1855.5c-7.1,10.3-15.2,19.9-24.1,28.6c-1.6,1.7-4,2.5-6.2,1.9c-15.3-2.9-30.1-1.9-44.9,4.1    c-16,6.6-32.2,12.5-43.3,26.1c-1.3-0.4-1.7-0.4-1.9-0.6c-10.3-12-10.5-13.9,0.9-24.7c10.7-10.1,22.5-18.8,36.2-24.4    c10.4-4.3,21-8.4,31.7-12.1C1300,1848.6,1316.8,1850.4,1334.5,1855.5z" style="fill:#A55125;"/><path d="M738.1,1855.5c19.4-5.8,37.6-6.1,55.7,0.5c8.4,3,16.8,6.2,25.1,9.7c18.3,7.4,34.3,19.4,46.5,34.8    c1.5,1.9,2,3.2,0.6,5.1c-0.6,0.8-1.2,1.6-1.8,2.4c-6.3,9.3-6.5,9.5-14.4,1.6c-9.6-9.5-22.2-13.1-34-18.3    c-14.9-6.8-31.6-8.6-47.7-5c-2.7,0.6-4.4-0.4-6.2-2.1C753.1,1875.3,745.1,1865.8,738.1,1855.5z" style="fill:#A55125;"/><path d="M1036.4,1066.4c-6.2-4.8-12.3-9.4-18.2-14.2c-8.1-6.7-11.7-19.3-7.6-28.8    c5.5-12.8,11.4-25.5,19.9-36.7c4.9-6.4,6.3-6.6,11.1-0.4c8.9,11.7,15.8,24.7,20.6,38.5c3.3,9.5,1.6,19.2-6.7,26.3    C1049.5,1056.2,1043.2,1061,1036.4,1066.4z" style="fill:#A55125;"/><path d="M1296.3,1898.3c-19.8,25.7-41.4,48.8-72.2,63.5c-0.2-9.7,0.8-18.7-2.2-27.2    c-0.8-2.1,0.5-3.8,1.9-5.3c2.3-2.4,4.2-5.2,6.8-7.2C1249.9,1907,1271.4,1898.1,1296.3,1898.3z" style="fill:#A55125;"/><path d="M848.7,1962.1c-31-14.8-52.5-38-74.1-63.9c9.3-0.6,16.8-0.9,23.9,1.9c10.2,4,20.4,8.2,30.4,12.6    c8.1,3.6,14,10,19.8,16.5c2.1,2.3,2.2,4.5,1.3,7.3C847.5,1944.5,847.2,1952.7,848.7,1962.1z" style="fill:#A55125;"/><path d="M1036.2,1075.6c0.5-0.1,1-0.1,1.5,0c11.1,0.6,11,0.6,16.1,10.5c2.2,4.5,4.6,8.8,7.4,13    c2.4,3.5,1.8,5.8-1.1,8.5c-5.5,5.3-10.6,11-16.1,16.4c-5.8,5.8-10.5,5.6-16-0.2c-5.2-5.6-10.4-11.2-15.8-16.7    c-2.5-2.5-3-4.6-0.9-7.8c4.1-6.1,7.6-12.5,10.3-19.3c0.9-2.4,2.3-3.9,5.1-3.8C1029.4,1076.3,1032.1,1075.9,1036.2,1075.6z" style="fill:#A55125;"/><path d="M966.9,1045.6c-4.2-23.2-2.2-42.8,15.7-58.7c5.9,5.8,10.6,12.3,16.9,17.2c2.7,2.1,2.1,4.4,0.7,7    c-3,5.2-5.1,10.8-6.3,16.6c-0.3,2-1.5,3.7-3.3,4.6L966.9,1045.6z" style="fill:#A55125;"/><path d="M1104.7,1045.3c-7.2-4.1-14.3-8.2-21.5-12.3c-1.1-0.7-2.7-1.4-3-2.4c-2.7-7.5-5.2-15-8.5-22.2    c-0.7-1.6,0.4-3.2,1.8-4.3c5.1-4.3,9.7-9.1,13.7-14.4c2.2-2.9,4.3-2.6,6.4,0c8.8,11.2,15.9,22.9,13.8,38    C1106.5,1033.5,1108.8,1039.7,1104.7,1045.3z" style="fill:#A55125;"/><path d="M1045.9,941.3c1.1,0.5,2.1,1,3.1,1.7c11.7,7.8,22.2,16.9,30.3,28.5c2.3,3.3,2.7,5.8-0.3,8.6    c-3.6,3.4-7.1,7-10.8,10.3c-2.9,2.6-5.4,2.8-8.2-0.9c-4.9-6.7-9.2-13.8-15.1-19.8c-0.9-1-1.5-2.2-1.6-3.5    c-0.5-7-0.9-13.9-1.1-20.9C1042.2,943.3,1042.6,941.3,1045.9,941.3z" style="fill:#A55125;"/><path d="M1029.8,956.4c0.7,6.1-0.2,13-6.9,18.8c-4.4,3.8-7.1,9.5-10.4,14.4c-2.1,3.1-4.3,3.9-7.3,1.3    c-0.5-0.4-1.1-0.8-1.6-1.2c-15.1-11.5-15.2-13.2-3.1-27.4c6.7-7.9,15-14,23.6-19.5c3.8-2.5,5.3-1.5,5.6,3    C1030,948.7,1029.8,951.7,1029.8,956.4z" style="fill:#A45125;"/><path d="M996.8,1093.2c-11.7-6.9-22-13.8-25.2-27.4c-0.9-3.9-1.8-7,3.8-7.8c5.3-0.8,9.6-4.2,14.3-6.7    c6.3-3.4,6.4-3.3,10,2.5c2.4,4,5.3,7.6,8.7,10.8c1.8,1.8,2.9,3.5,1.4,6.1C1005.3,1078.2,1001.2,1085.6,996.8,1093.2z" style="fill:#A55125;"/><path d="M1101.5,1063.9c-2,6.9-4.2,14.6-11.2,19.6c-3,2.1-6,4.1-8.7,6.5c-3.5,3-6,3.5-8.4-1.2    c-2.8-5.6-6-11-9.3-16.4c-2.1-3.5-1.4-6,1.4-8.6c3.5-3.1,6.3-6.8,8.3-11c2-4.2,4.5-3.9,8-2c5.5,3,10.7,6.7,17,8    C1101.1,1059.2,1101.8,1060.8,1101.5,1063.9z" style="fill:#A55125;"/></svg>