<svg id="Layer_1" style="enable-background:new 0 0 1280 1024;" version="1.1" viewBox="0 0 1280 1024" x="0px" xml:space="preserve" xmlns="http://www.w3.org/2000/svg" xmlns:xlink="http://www.w3.org/1999/xlink" y="0px"><path d="M611.5,526.2l-1.7,7.4l-3.8,1.8c0,0,0.1-3.4,0.5-4.6  c0.4-1.2,1-2.5,2.2-3.4C610,526.5,611.5,526.2,611.5,526.2z" style="fill:#1600A2;stroke:#000000;stroke-miterlimit:10;"/><path d="M631.7,525.2l-4.1,4.8l-2.7-0.8c0,0,1.6-2.6,2.4-3  C628,525.8,631.7,525.2,631.7,525.2z" style="fill:#1600A2;stroke:#000000;stroke-miterlimit:10;"/><path d="M652.7,538.4l-6.6,1l-1.4-1.9c0,0,0.1-0.6,1-1.2  c0.9-0.5,6.1,1.2,6.1,1.2L652.7,538.4z" style="fill:#1600A2;stroke:#000000;stroke-miterlimit:10;"/><path d="M651.4,592.1c0,0-1.9,1.4-3.3,1.6s-5.8,0-5.8,0l1.9-3.2  L651.4,592.1z" style="fill:#1600A2;stroke:#000000;stroke-miterlimit:10;"/><path d="M779.2,698.6c1.9-3.2,3.6-9.6,3.4-11.7  c-0.2-2.1-1.9-3.6-4.6-6.5s-7.8-1.2-13.4-2.3c-5.5-1.2-13.4-4.4-17-6.9c-1.9-1.3-4.8-3.7-7.2-5.8c-2.7,3.1-7.4,8.7-8.9,10.8  c-1.9,2.6-4.6,8.8-5.2,11.2c-0.6,2.4,0,5.9,1.4,6.7c1.4,0.8,3.1,0.9,5.5-0.7c2.5-1.6,4.6-4.2,7.3-4c1.9,0.2,6.1,1.5,8.3,2.3  c0.3,0.1,0.3,0.6-0.1,0.6c-1.4,0.1-3.4,0.4-4.7,0.7c-2.1,0.6-5.9,2.8-7.1,4.8c-1.2,2-2,4.8-4.8,7.3c-1.7,1.5-2.9,3-4,4.4  c1.5-0.5,2.8-0.9,3.9-1.3c2.2-0.9,3.6-0.9,6.5-2.1c3.5-1.4,4.1-1.4,7.2-3c3.1-1.5,4.9-2.7,8.3-3.9c2.7-1,2.9-0.7,4.9,0.8  c1.8,1.4,0.4,2.6-0.1,4.2c-0.7,2.2-1.4,4.4-3.5,8.5c-2.1,4.1-4.5,9.2-5.5,11.7c-1,2.5-3.5,5.5-5.4,7.9c-1.8,2.4-4.8,2.5-7.5,3.1  c-2.7,0.6-4.8-2.5-8-2.8c-3.2-0.3-3.4-1.6-6.2-2.4c-1.5-0.5-4.9-0.4-7-0.1c-3,0.3-3.9,0.2-7.1,2.8c-2.1,1.7-3.5,3.9-4.4,6.3  c-1.4,3.9-0.7,4.5,0,7.3c0.8,3.3,0.4,3.9,1,2.1c0.6-1.8,1-3.7,1.4-5.4c0.3-1,2.1-3.4,4.8-4.5c1.2-0.5,2.1,0,3.2,0.3  c1.5,0.4,2.3,1,4.4,1.7c2.1,0.7,2,0.8,1,1.3c-1,0.4-2,1.5-4.4,2.4c-2.4,0.8-2.4,2-4.5,4.2c-2.1,2.2-2.5,3.9-3.1,6.5  c-0.9,3.8-0.2,3.9-0.4,4.7c-0.2,1.4,1.4,3.9,2.5,5.7c0.8,1.4,1.1,2.2,1.1,2.3c0-0.2-0.1-1.1,0-3.2c0.1-2.1-0.5-4.4,1.4-7.3  c1.4-2.1,1.8-2,3.4-2.2c1.5-0.3,1.7,0.4,3-0.4c1.3-0.9,1.8-0.1,4.2-0.1c2.4,0,2.3,0.8,2.3,0.8s-0.6,1.8-2.1,3.1  c-1.6,1.3-2.8,6.3-2.2,9c0.6,2.7,0.4,4.4,3.1,7.3c2.7,3,3.4,3.1,5.9,3.5c2.4,0.4,4.4,0.8,4.6,0.8c-0.3-0.3-4.3-4.2-5.6-6.1  c-1.4-2-0.8-3,0-4.8c0.9-1.8,1.6-1.6,1.6-1.6c1.2-0.6-0.2-1.7,1.2-2.9c1.3-1.1,3,0.4,4.4-1.3c1-1.3,0.4-2.1,2.3-2.9  c1.9-0.8,1.9-0.2,3.9-1.7c1.9-1.5,2.5-4.8,4.9-8c2.5-3.2,2.5-1.9,5.3-2.5s2.7,2.7,4,2.7c1.3,0,3.6-0.3,5,2.1  c1.3,2.5,2.3,2.6,5.6,3.6c3.2,1,2.3-1.5,3.8,2.7c1.5,4.2,1.3,3.8,0.6,6.9c-0.8,3.1-2.7,5.9-2.7,5.9s5.6-5,7.1-8.4  c1.5-3.4,2.2-5.6,1-9.8c-1.1-3.5-1.8-5-3.2-6.7c-1.3-1.7-4.5-2.3-5.5-3.5c-1-1.1-3.8-5-6.1-6.1c-2.3-1.1-2.9-2.5-2.9-5.3  s3.2-5.7,5.7-9S777.3,701.9,779.2,698.6z M712.8,736.1l-6.4,3.9c0,0,0-2.3,0.9-3.3c0.9-1,2.3-2.8,3.1-3.3c0.9-0.5,2.4-0.7,2.4-0.7  V736.1z M711.6,755.5c-0.6,0.9-1.2,2.6-1.2,2.6l-1.2-0.4l2.2-6.3c0.1-0.3,0.5-0.3,0.7-0.1c0.3,0.5,0.7,1.2,0.9,1.7  C713.1,753.7,712.2,754.6,711.6,755.5z M725.9,773.2l-2.8-5.5c0,0,2.3-0.7,2.8-0.3s1,1.5,0.7,3.1c-0.3,1.6,0.4,2.8,0.4,2.8H725.9z   M773.8,752.2c0,0,1.6,2.9,1.9,4.1c0.2,1.2-0.9,4.1-0.9,4.1l-2.6-6L773.8,752.2z" style="fill:#69008B;stroke:#000000;stroke-miterlimit:10;"/><path d="M656.7,758.6c0,0-1.1-2-2-3.2c-1.4-1.9-2.9-2.8-5.3-3.4  c0,0-0.1-0.1-0.4-0.2c1.5-0.5,3.1-1,4.6-1.5c1.9,1.3,2,1.9,2.8,4.6C656.7,756.2,656.7,758.6,656.7,758.6z" style="fill:#5400E7;stroke:#000000;stroke-miterlimit:10;"/><path d="M859.1,591.2c-1.4-3-3.1-9.1-3.6-11.3  c-0.6-2.2-1.9-10.4-2.2-13.5c-0.1-0.7-0.2-1.6-0.5-2.6c-0.5-2.4-1.5-5.5-2.4-8.2c0-0.1-0.1-0.2-0.1-0.3c-0.5-1.6-1.1-3-1.5-4  c-1.6-3.6-3.4-5.6-5.5-7.8c-0.7-0.7-1.2-1.3-1.8-1.8c-2.6,0.8-4.8,1.2-8.7,0.7c-4.3-0.6-5.8-0.6-8.4-1.9c-2.3,0.9-4.8,2.4-6.9,3.7  c-2.4,1.5-4.6,3.8-5.7,5.7c-0.3,0.5-0.6,1.2-0.8,1.8c-0.3,0.9-0.5,1.8-0.7,3c-0.2,1-0.3,2.2-0.4,3.5c0,0-0.4,3.4,0,6.3  c0.1,0.5,0.2,1,0.3,1.4c0.9,3,2,5,4.5,8.1c2.4,2.9,3.7,3.9,6,5.8c2.3,1.9,5.5,4.3,8.4,5.5c2.9,1.2,7.5,3.3,10.1,4  c2.6,0.7,3.3,2.7,3.2,4.9c-0.1,2.2-1,1.9-2.7,3.3c-1.7,1.4-21.7,6.1-24.3,6.9c-2.6,0.9-3.9,0.7-6.6,0c-2.8-0.7-3-1.5-3.6-3.9  c-0.6-2.5-2.8-3.8-4.2-6.7c-1.4-2.9-4.1-8.5-5.9-9.6c-2.1-1.3-3.4-1.6-6.4-2.8c-2.1-0.8-5.8-0.3-8.2,1.3c-2,1.4-3.7,3.3-5,5  c-1.2,1.6-3.7,5.1-3.9,5.3c0.2-0.2,4.1-3.1,5.3-3.9c1.1-0.7,3-0.9,4.8-0.9c1.6,0,3.4,0.5,4.4,1.4c1.8,1.5,1.5,1.9,2.2,3.4  c0.7,1.4,2.5,4.3,2.5,4.3s-4.3-1.3-7.1-1.7c-2.1-0.3-4-0.9-7.6-0.2c-2.9,0.6-5.5,3-7.1,4.8c-1.8,2-2.8,3.8-3.6,6.5s0,5.8,0,5.8  s1.5-2,2.3-4c0.7-2,2.2-3.2,3.9-4.3c1.7-1.2,2.3-1.3,4.8-1c2.5,0.3,3.2,1.7,5.5,4.1c2.3,2.3,3.2,3,3.2,3s-6.2,1-8.2,2  c-2,1-4.3,3.6-5.2,5.5c-0.9,1.9-1.2,5.4-1.3,7.3c-0.1,1.9,1.2,4.8,2.3,6.4c1.1,1.6,2.7,3.3,2.7,3.3s-0.3-3.3-0.6-5.8  c-0.2-1.6,0.3-3.8,1.3-5.3c1-1.6,2-1.4,3.6-0.9c1.7,0.5,1.2-0.7,2.3-1.2c1.2-0.4,2.2,0.3,4.9,0.7c2.8,0.4,2.5-0.3,3.8,0.1  c1.3,0.4,3.2,1.5,5.1,1.5c1.9,0,3.8-0.9,5.9-2.2s3.3-1.3,4.9-1.5c1.6-0.1,2.6,1,3.6,2.9c1,1.9,2.2,3.3,2.6,4.8  c0.4,1.4,2.6,3.6,1.5,4.3c-1.1,0.7-0.5,3.7,0.5,5c1.2,1.5,1.3,1.7,2.6,2.4c1.3,0.7,0.1,2.3-0.4,3.8c-0.6,1.5-1.8,4.2-2.7,4.9  c-1.3,1-6.3,3.3-6.3,3.3s6.1-0.2,8.3-1.2c2.2-1,2.9-0.9,5.4-3.1c2.4-2.2,2.7-1.9,3.7-5.2c1-3.3,0.6-3.2,1-3.6c0.4-0.5,0.5-3,0.7-4.6  c0.1-1.6-1.6-3.8-1.9-4.7c-0.3-0.9,0-2.3,0-3.6c0-1.3-0.7-6.9,0.3-9.7c1-2.7,3.3-3,6.7-4c3.3-1,8.1-2,13.5-2.8  c5.3-0.9,7.9-1.9,10.8-3.5c2.9-1.6,3.8-3.8,4.3-6.4C861.6,596.5,860.8,594.9,859.1,591.2z M788.4,586.7c-0.6,0.1-1.2,0.6-2.3,0  c-1.1-0.6-1.1-0.6-2.1-0.9c-1-0.3-3.4-0.6-3.4-0.6s2.9-1.7,4-1.7s2.4-0.2,3.6,0c1.2,0.2,1.4,0.8,1.4,0.8S789,586.6,788.4,586.7z   M776.8,600.2c-0.3,0.6-1,1-1.5,0.8c-0.4-0.2-1.2-0.3-1.8-0.3c-0.6,0.1-2.3,0.7-2.3,0.7s1.5-2.3,2.3-2.9c0.9-0.6,3.3-0.5,3.3-0.5  S777.1,599.6,776.8,600.2z M773.6,624.8h-0.8l1.3-7.1l1,0.4l0.9,2.1L773.6,624.8z M822.5,644.2c-0.9,1-3.6,2.6-3.6,2.6l1.5-5.9  l3.4-0.8C823.7,640.2,823.3,643.2,822.5,644.2z" style="fill:#002C5C;stroke:#000000;stroke-width:0.7982;stroke-miterlimit:10;"/><path d="M852.2,332.9c0.1,4-1,6-1,6s-2.2-15.2-2.8-17.2  s-2.4-9.1-3.3-11.2s-4.2-7.3-6.3-9.8c-2-2.4-5.4-4.9-5.6-5c0.1,0.3,2.4,4.5,3.5,6.7c1.1,2.2,2.7,6.5,2.7,10.1c0,3.6-0.6,6.8-1.4,8.5  s-3.3,2.7-3.3,2.7s2.5-6.2,2.5-8.1c0-2-1.3-7.4-2.4-10.8c-1.1-3.4-2.9-7.1-5.9-9.6c-2.9-2.5-10.2-8.2-10.2-8.2s5.4,1,8.1,2  c2.7,1,7.4,3.9,9.9,5.6c2.5,1.7,6.2,6.7,7.7,8.7c1.5,2,3.6,8.9,4.6,11.9C849.9,318,852,328.9,852.2,332.9z" style="fill:#3600A2;stroke:#000000;stroke-miterlimit:10;"/><path d="M805.1,317c1.1,2.1,0.7,6.9,0.7,6.9s-2.4-5.5-3.3-6.9  c-0.7-1.1-5.5-5.5-6.8-7.1c-1.2-1.5-3.9-6.6-5.1-10c-0.8-2.6-2.2-10.3-2.9-13.8c-0.7-3.5-3.5-7.1-5.9-9.2c-2.4-2.1-8.4-4-8.4-4  s4.3-0.7,7.7,0c3.3,0.7,3.5,1.1,5.2,2.1c1.7,1,3.3,2.7,4.8,4.8c2.1,2.9,2.6,4.6,4.1,8.6c1.5,4,2.4,7,3.5,10c1.1,3,5.7,9.6,7.6,12.1  c1.7,2.4,5.4,5.8,5.8,6.2c-0.5-0.3-5.2-3.4-6.9-5.1c-1.8-1.8-5.7-6.6-6.8-8.5c-1.1-2-3.8-8.8-4.8-11.7c-1-2.9-3.4-7.1-3.4-7.1  l1.1,6.4c0.2,1.6,0.7,4,1.7,7.2c1,3.2,1.1,5.2,2.9,8.1c1.4,2.3,3.3,4.4,4.7,6C802.4,313.9,804,314.9,805.1,317z" style="fill:#3600A2;stroke:#000000;stroke-miterlimit:10;"/><path d="M777.2,321.6c0,0-1.5-0.9-2.6-2.3c-1.1-1.5-1.6-2.9-3.6-6.3  c-1.9-3.4-4.1-7.2-5.2-8.8c-1.1-1.5-4.5-3.6-6.1-4.6c-1.6-1-5.6-2.3-7.7-2.7c-2.1-0.4-5.2-0.5-6.3-0.5c-1.1,0-3.9,1.1-3.9,1.1  s4.7,1.1,5.9,1.9c1.2,0.8,5.3,2.7,6.2,3.6c0.9,1,4.6,4,5.3,4.9s3.3,4.3,3.8,5.5c0.5,1.2,3,6.8,3.2,7.6c0.2,0.8-1.5-1.4-2.5-3  c-1.1-1.6-2.8-4.6-3.8-6c-1-1.4-3-3.8-4.4-5c-1.4-1.2-5.7-4.3-6.8-4.8c-1.1-0.5-5.5-2.3-7-2.3c-1.5,0-5.8-0.5-7-0.3  c-1,0.1-5.3,0.4-7.1,0.5c-0.2,0-0.2-0.2-0.1-0.3c2.1-0.9,8.4-3.7,9.9-4.1c1.8-0.5,6.9-1.6,10.5-1.5c3.6,0.1,6.3,0.4,8.9,1.1  c2.6,0.7,5.9,2.5,7.2,4c1.3,1.5,5.8,6.7,6.7,9.2C772,310.9,777.2,321.6,777.2,321.6z" style="fill:#3600A2;stroke:#000000;stroke-miterlimit:10;"/><path d="M763.3,353c0,0-2.5,1.4-3.5,1.9c-1,0.5-2.7,0.6-4.4,0.5  c-1.7-0.2-5.3-0.6-6.7-1.5c-1.5-1-3.1-1.6-4.9-2.8c-1.8-1.2-5.1-2.8-7.4-4c-2.3-1.2-4.1-2.5-6.7-3.1c-2.6-0.6-5.2-0.5-8.5,0.3  c-3.3,0.8-6.1,2-8.3,3c-2.2,1-5.5,2.9-7.5,3.7c-2,0.8-4.6,2.7-6.8,3.5c-2.1,0.8-6.2,2.2-6.5,2.3c0.4-0.3,13.7-11.4,15.6-12.9  c1.9-1.5,8.3-6.7,9.6-7.1c1.3-0.5,4.8-1.9,6.3-2.3c1.5-0.3,4.4-0.6,5.8-0.3c1.5,0.3,4.9,1.5,5.6,1.9c0.7,0.4,7.3,3.6,8.8,4.5  c1.5,0.9,6,3,7.4,3.3s9.7-0.9,9.7-0.9s-1.8,1.5-3.6,1.9c-1.8,0.4-5.3,0.8-6.6,0.4c-1.4-0.4-3.6-0.4-5.8-1.6  c-2.3-1.2-6.1-2.8-7.5-3.7s-5.3-2.5-7.1-2.9c-1.8-0.4-4.7-0.5-6.6,0c-1.9,0.5-4.9,1.5-6.7,2.7c-1.7,1.2-6,4.6-6.3,4.8  c0.4-0.1,6.5-2.6,8.7-3c2.3-0.4,4.8-0.9,6.9-0.7c2.1,0.2,4.8,0.7,7.3,1.8c2.5,1.1,6.1,3.4,7.7,4.3c1.6,0.9,5.6,3.2,6.9,4.2  c1.3,1,4.9,1.7,6.6,2.1C756.7,353.8,763.3,353,763.3,353z" style="fill:#3600A2;stroke:#000000;stroke-miterlimit:10;"/><path d="M807.2,369.8c0,0-6.2,2-7.5,2.7c-1.2,0.7-2.8,1-5.1,2.6  c-2.3,1.6-7.9,5-9.9,5.6c-1.9,0.7-6.1,2.4-8.3,2.7c-2.3,0.3-6,0-8.1,0.1c-2.1,0.1-6.2-0.2-8.2-0.3c-2-0.1-4.8-0.6-7.5-0.3  c-2.8,0.2-3.7,0.2-6.2,0.8c-2.5,0.6-5.9,1.1-5.9,1.1s4.1-3.3,5.8-4.1c1.8-0.8,4.2-1.8,5.8-2c1.6-0.2,5.7-0.7,7.5-0.8  c1.8-0.1,6.3-0.3,8.8-0.6c2.4-0.2,7-0.4,8.7-0.9c1.7-0.5,6.6-1.9,7.5-2.4c0.9-0.5,7-4.8,7.3-5c-0.1,0.2-2,4.1-3.2,4.9  c-1.3,0.9-4.7,2.6-5.6,3c-0.9,0.4-5.8,1.7-7.9,1.9c-2,0.2-7.5,0.5-8.2,0.6c-0.6,0.1-4.4,0.6-4.4,0.6s4.9,0.6,6.1,0.7s5,0.1,6.4-0.1  c1.4-0.2,6.9-1.4,8-1.8c1-0.4,4.7-2.5,6.2-3.2c1.5-0.7,4.3-1.9,6.1-2.8c1.8-0.8,3.7-1.4,4.8-1.5  C801.1,370.9,807.2,369.8,807.2,369.8z" style="fill:#3600A2;stroke:#000000;stroke-miterlimit:10;"/><path d="M826.9,389.6c-0.1,0.1-0.6,1.1-1.1,1.6  c-0.5,0.5-2.5,2.7-3.8,3.6c-1.3,1-3.5,2-5.5,2.6c-2,0.6-3.1,1.2-5.3,1.3c-2.3,0.1-4.4,0.2-6.3-0.2c-1.9-0.4-2.6-0.8-4.1-1.1  c-2.3-0.4-3.8-0.5-5.7-0.2c-2.8,0.4-2.8,0.1-4.7,0.7c-1.9,0.6-3.6,2.1-4.1,2.5c-0.7,0.5-3.3,3.1-3.6,3.3c0.2-0.3,2.8-5.1,4-6.5  c1.2-1.4,3.4-3,5.2-3.5c1.8-0.5,4.8-1.2,6.2-1.2c1.7-0.1,4.5,0.1,6.4,0c1.9-0.1,4.5-0.7,5.8-0.9c1.8-0.2,3-0.7,5-1.5  c1.9-0.8,4.2-2.8,4.2-2.8s-0.3,2.4-1.2,3c-0.9,0.6-2.9,2.1-4.5,2.5c-1.5,0.4-3.7,1-4.7,1.3c-1.2,0.4-6,1.4-6,1.4s4,0.8,5,0.8  s4.1-0.1,5.6-0.4c1.5-0.3,4.5-1.2,5.8-1.9c1.2-0.7,2.1-1.2,3.5-1.9C823.9,391.6,826.7,389.8,826.9,389.6z" style="fill:#3600A2;stroke:#000000;stroke-miterlimit:10;"/><path d="M679,570.7c-0.9,0.4-1.8,0.8-2.3,0.9c-1.2,0.3-5.8,0.4-6.8,0.3  c-0.4,0-1.6-0.1-2.8-0.2c-0.6-1.8-1.1-3.6-1.7-5.4c2.1,0.2,5.1,0.4,6.7,0.3c1.5-0.1,3.5-0.4,5-0.7  C677.8,567.6,678.4,569.2,679,570.7z" style="fill:#300073;stroke:#000000;stroke-miterlimit:10;"/><path d="M694,633.7c-0.8,0.1-1.6,0.2-2.4,0.2c-2.7,0-2.9,0.2-6.7-0.6  s-2.8-0.2-6.9-1.4c-0.8-0.2-1.5-0.4-2.1-0.6c0.2-2,0.3-3.9,0.3-5.6c4.3,1.4,4.4,1.7,6.4,1.9c2.3,0.2,5.9,0.5,8.2,0.4  c0.8-0.1,1.9-0.1,2.9-0.2C694,629.8,694,631.8,694,633.7z" style="fill:#300073;stroke:#000000;stroke-miterlimit:10;"/><path d="M668.9,689.2c-2,1.7-4,3.1-6.2,4.4c-1.5-0.9-3.1-2-3.6-2.6  c-1-1.1-3.9-4.1-4.5-4.8c-0.4-0.5-2.7-4.4-4.2-7.3c2-1.4,3.7-2.7,4.8-3.7c1.4,2.3,3.2,5.1,3.9,5.9c1.3,1.4,4.5,5.4,5.9,6.2  C665.5,687.7,667.2,688.5,668.9,689.2z" style="fill:#300073;stroke:#000000;stroke-miterlimit:10;"/><path d="M608.1,692.4l-0.4,10.9c-1.8-0.5-3.6-1-5.3-1.5l0.3-9.5  c0.7,0.1,1.3,0.1,1.8,0.2C605.3,692.5,606.6,692.5,608.1,692.4z" style="fill:#300073;stroke:#000000;stroke-miterlimit:10;"/><path d="M904,503.7c-0.3,2.1-0.6,3.9-0.8,5l-6.1-1.2  c0.4-1.5,0.9-3.3,1.5-5.2L904,503.7z" style="fill:#300073;stroke:#000000;stroke-miterlimit:10;"/><path d="M880.3,549.4c-1.9,1.7-3.8,3.3-5.1,4.2c0,0,0,0-0.1,0l-4.8-7.9  c1.3-1,2.5-1.9,3.5-2.8c0.1-0.1,0.3-0.2,0.4-0.4L880.3,549.4z" style="fill:#300073;stroke:#000000;stroke-miterlimit:10;"/><path d="M535.4,386.2c-0.7,4.3-3.9,11.4-5.1,13.2  c-1.2,1.9-4.6,5.3-4.6,5.3l-0.8-0.9c0,0,1.4-2.7,1.7-4s0.9-3.6,0.9-3.6s-2.5,0.9-4,1.7c-1.5,0.8-4.2,1.4-4.2,1.4s4.8-8.5,5.6-9.6  c0.8-1,2.9-2.4,3.9-4.4c1-2,0.9-4.4,0.7-6.4c-0.2-2,0.1-4.3,0.3-5.8c0.1-1.5,2.5-3.1,2.9-3.7c0.4-0.6-0.5-0.7-1.2-0.2  c-0.7,0.5-2.4,1.7-4,2.6c-1.6,0.9-4.4,1.7-6.2,2.2c-1.8,0.4-4.6,2.1-6.6,3.3c-2,1.2-3.1,4.3-3.9,6.5c-0.8,2.2-0.6,5.9-0.6,5.9  s-7.3,1.2-9.6,1.7c-2.2,0.4-6.8,2.2-8.7,3.2c-2,1-4.3,4.9-5.4,6.4c-1.1,1.5-3.3,3.3-4,3.8c-0.7,0.4-2.7,0.5-4.3,0.1  c-1.7-0.4-7.9-0.9-9.1-1.1c-1.2-0.2-7.2,0.7-9.6,1.7c-2.4,1-7.3,4.5-8.5,5.6c-1.2,1.2-2.6,3.2-2.5,4.6c0.1,1.4,1.9,3.9,3.1,4.8  c1.3,0.9,3.3,0.7,4.6,0.4c1.3-0.3,3.6-1.4,3.6-1.4l2.8,14.5l-6.3-2.5l-0.9,0.2c0,0,1.1,2.5,1.5,3.8c0.4,1.3,0.4,4.7-0.1,6.4  c-0.4,1.7-2.9,4.8-2.9,4.8s-3-2.5-4.4-3c-1.4-0.6-3.2-0.2-3.2-0.2s1.4,3.5,1.3,5c-0.2,1.5-1.2,3.4-1.2,3.4s-2.2-1.6-3.3-2.4  c-1.1-0.8-1.7-1-3.8-1.4c-2.1-0.4-3.9,0.1-5.5,0.5c-1.6,0.4-4.6,1.7-7.5,2.5c-2.9,0.8-4.8,1.2-6.4,1.2c-1.7-0.1-2.4-0.6-4.2-1.7  c-1.8-1.1-1.7-1.5-3.3-3c-1.6-1.5-3.1-2.5-4.7-2.8c-1.6-0.4-3.3,1-4.5,1.7c-1.1,0.7-2.8,2.5-2.8,2.5s-0.6-3.1-0.6-4.4  c0.1-1.3,2.2-5.6,2.2-5.6l-6.4,2.1c0,0,0.5-2.6,0.8-3.5c0.3-0.9,3.2-3,3.2-3l-5.1,0.3l9-9.3c0,0,1.2,4.7,1.9,6.4  c0.7,1.7,2.6,2.8,4,2.9c1.4,0.1,4.2-0.6,4.2-0.6s2.3,3.3,3.2,4.3c0.9,0.9,3,2.5,4.2,2.9c1.2,0.4,4-0.2,5.6-0.7  c1.5-0.4,3.5-2.2,4.2-2.7c0.7-0.4,2-5.6,2-5.6s0.4-0.1,1.2,0.2c0.7,0.3,1.9,2.3,2.8,2.9c0.9,0.6,3.1,1.6,4.3,1.8  c1.2,0.2,3.7-0.5,5.4-1.2c1.7-0.7,4.3-4,5.1-5.7c0.7-1.7,0.4-4,0.2-5.1c-0.2-1.1-1.9-3.2-2.8-4.2c-0.9-1-1-0.8-3.1-1.9  c-2-1.1-7.7-2.7-10-3.4c-2.3-0.7-6-1.7-7.7-2c-1.7-0.4-3.6,0.1-5.2,0.4c-1.5,0.3-2.4,0.6-3.6,0.9c-1.1,0.3-1.2,0.5-1.1,0  c0.1-0.5,6.2-4,7.4-4.9c1.3-0.9,4.2-2.6,5.7-4.1c1.5-1.5,2.8-4.5,3-6.4c0.2-1.9-0.7-3.4-1.2-5c-0.6-1.6-2.8-4.8-3.2-6.3  c-0.4-1.5-0.6-5-0.6-5.8c0-0.9,0.2-3.5,0.7-4.1c0.5-0.6,4-2,4-2l0.3,1c0,0-1.2,1.2-2,2.2c-0.7,0.9-0.9,2.2-1.2,3.6  c-0.2,1.4,0,4.5,0,4.5c0.9,3.7,1.5,4.1,3.2,5.3c1.7,1.2,4.9,2.6,7.6,2.3c2.7-0.3,5.2-1.7,7.6-4.8c0.6-0.8,1.3-2.1,2-3.6  c0.3-0.2,0.6-0.5,0.8-0.7c1.7-1.7,1.2-3.3,2.6-3.3s0.9,2.1,1.5,4.1c0.6,2-0.3,3.2,2.3,3.5c0.3,0,0.5,0,0.8,0c0.5,1.3,1,2.3,1.3,2.4  c1.4,0.6,4.3,4.1,6.5,4.7s7.9,0.5,11.4-1.7s4.3-3.8,5.3-6.2c1.1-2.4,2.3-9.1,2.3-9.1s9.6,0.2,11.9-0.8c2.3-0.9,4.6-4.1,5.9-7.1  c1.4-3,0.6-6.9,0-9s-4.1-6.8-4.1-6.8s-1.5,2.7-2.7,4.6c-1.2,1.8-4,6.4-6.1,7c-2.2,0.6-4.2,0-4.2,0s3.4-2.4,4-3.4  c0.6-0.9,0-4.4,0-4.4s-3.2,2.4-4.3,3.2c-1.1,0.8-4.7,1.1-7.8,1.9c-3,0.8-5.5,1.5-7.9,2.8c-0.7,0.4-1.5,0.6-2.2,0.6  c-0.1-0.5,0-1.1-0.6-1.8c-1-1.2-2.3-1.4-3.9-0.8c-0.6-0.5-1.3-0.9-2.1-0.8c-2,0.4-4,0.2-6.5,0c-2.6-0.2-2.6-1.9-4.3-1.1  c-0.6,0.3-0.9,0.9-0.9,1.5c-0.5-0.2-0.9-0.4-1.3-0.4c-0.8-0.1-0.9,0.6-0.6,1.5c-3.6-2.2-10.4-6.4-10.6-7.5c-0.3-1.5,0-12,0-14  c0-2,4-3.3,4-3.3s-0.8,2.4-0.6,3.3c0.2,0.9,2.9,2.6,2.9,2.6s0.3-4.5,0.8-5.9c0.5-1.5,3.5-6.3,4.3-9c0.6-2.1-1-4.6-1.7-5.7  c-0.1-0.2,0-0.4,0.2-0.4c1,0.3,2.9,0.9,3.9,1.6c1.4,0.9,2.7,1.7,4.3,4.5c1.6,2.8,2.2,4.2,2.7,6.4c0.6,2.2,0.9,7,0.9,7l2-0.4l2.8-4.6  c0,0,2.7,4.1,3.7,5.3c1,1.2,3.7,2.7,5.2,2.7s3.9-0.8,6-2.5c2.1-1.7,4.1-3.5,4.1-3.5l-0.1,7.5l0.9,0.6c0,0,1.2-2,1.7-2.6  c0.5-0.7,2.4-1.9,4-2.5c1.7-0.6,4-0.9,5.3-1c1.4-0.1,4.3,0.9,6.2,1.9c1.9,1,3.8,2.5,6.4,3.5c2.5,1,6.4,1.7,6.4,1.7s0,1.5-0.3,2.5  c-0.3,1-1.2,2.2-2.5,3.5c-1.3,1.4-4.1,4.3-4.1,4.3s2,1.1,3.2,1.5c1.3,0.4,4.6-0.6,4.6-0.6s-2,5.3-2.8,6.6c-0.7,1.3-2.2,3.3-4.1,5.5  s-2.8,3.5-2.8,3.5s7.9-4.8,9.6-5.9c1.7-1,7-2.8,8.6-3.6c1.6-0.8,5.9-3,6.9-4c1.1-1.1,3.1-3,3.1-3s1.3,7,1.5,9.6  C536.2,375.6,536.1,381.8,535.4,386.2z" style="fill:#1400B9;stroke:#000000;stroke-miterlimit:10;"/><path d="M488.5,408.6c0,0,2.7-3.4,5.3-4s4.5-0.5,5.5,0.5  c2.1,2,3.5,4.4,3.2,6.2c-0.3,1.8-1.9,6.5-2.7,7s0.3-0.4,0-3.9c-0.3-3.5-0.5-5.1-3.1-5.3c-3.1-0.2-3.7,0.9-4.6,1.9  C491.1,412.3,488.5,408.6,488.5,408.6z" style="fill:#4D00A2;stroke:#000000;stroke-miterlimit:10;"/><path d="M880.3,469.9c-0.1,3.8-0.8,17.5-1.4,20.7  c-0.6,3.2-3.1,14.8-5.8,20.4c-2.7,5.5-3.5,8-6.7,12.1c-3.2,4.1-6.4,7.4-9.9,10.2s-6.8,5.7-11.5,7.1c-1.3,0.4-2.5,0.8-3.5,1.1  c-2.6,0.8-4.8,1.2-8.7,0.7c-4.3-0.6-5.8-0.6-8.4-1.9c-0.7-0.4-1.5-0.8-2.5-1.4c-4.5-2.8-6.2-4.6-8.8-6.9c0,0-5.2-6-7-9.1  c-1.8-3.1-6.1-12.6-7.1-15.5c-0.9-3-4-10.2-4.7-12.8c-0.7-2.6-3.9-8.8-4.8-10.7c-0.9-1.9-4.1-7.4-5.4-9.7  c-1.3-2.2-9.2-11.2-10.6-12.6c-1.4-1.4-8.7-6.6-10.7-7.7s-8.1-3.5-11.7-4c-3.5-0.5-9.7,0.5-14,0.9c-4.4,0.5-12.5,4.5-14.9,6.6  c-2.5,2.1-8,6.6-9.9,9.4c-1.9,2.8-6.6,12.7-7.7,15c-1.1,2.2-1.9,7.7-2.9,11.1c-1.1,3.4-1.1,7.5-1.1,11.7s-0.6,7-0.2,10.1  c0.4,3.2,1.7,10,2.2,12.1c0.6,2.1,3.3,11.9,3.9,14.5c0.6,2.6,6.8,16.4,7.8,18.7c0.9,2.4,4.5,7.5,4.9,8.7c0.5,1.2,0.7-0.2,1.8-2.6  c1.1-2.3,0.8-3.2,0.6-5.8c-0.2-2.6-0.8-4.1,0.1-5.9c0.2-0.4,0.5-0.7,0.8-1c1.3-1.2,3.3-1.9,3.3-1.9s-0.9,2.8-0.7,4.8  c0.2,2,2.4,6.7,3.5,8.5c1.2,1.8,4.8,6.5,6,8.6c1.2,2.1,1.9,2,2.8,5.1c1,3.1,1.2,9.7,1.3,12.2c0.1,2.6-0.6,10.1-0.8,13.1  c-0.2,3-0.7,9.3-0.6,12.5c0.1,3.2,0.6,6,1.3,8.6c0.7,2.6,1.2,3.8,3.4,3.9c2.2,0.1,2.2-0.5,3.2-2c0.9-1.5,0.5-3.5,0.7-6  c0.2-2.5,0.7-5.2,2-6.5c1.3-1.3,4.4-3.4,5.9-4c1.5-0.6,1.3,0.2,1.3,0.2s-1.9,0.6-2.5,2.7c-0.6,2.1-1.6,8-1.2,10.1s1.7,5.7,2,8.8  c0.4,3.2,0.9,5.8,0.7,8c-0.2,2.2-2,8.5-3.3,11.1c-1.3,2.6-7.2,10.4-9.1,12.5c-0.4,0.4-0.9,1-1.5,1.7c-2.7,3.1-7.4,8.7-8.9,10.8  c-1.9,2.6-4.6,8.8-5.2,11.2c-0.6,2.4,0,5.9,1.4,6.7c1.4,0.8,3.1,0.9,5.5-0.7c2.5-1.6,4.6-4.2,7.3-4c1.9,0.2,6.1,1.5,8.3,2.3  c0.3,0.1,0.3,0.6-0.1,0.6c-1.4,0.1-3.4,0.4-4.7,0.7c-2.1,0.6-5.9,2.8-7.1,4.8c-1.2,2-2,4.8-4.8,7.3c-1.7,1.5-2.9,3-4,4.4  c-0.8,1-1.6,1.9-2.5,2.5c-2.1,1.6-10,4.5-12.7,5.4c0,0-6.9,1.7-9.9,2.7s-8.1,3.5-9.8,4.8c-1.6,1.3-3.5,2.5-3.5,4.5s0.7,3.5,2.5,3.8  c1.8,0.2,3.9-0.4,6.1-1.9c2.2-1.5,3.9-2.7,6.5-3.2c2-0.4,5.2-0.4,6.6-0.4c0.2,0,0.2,0.2,0.1,0.3c-1.4,0.8-5.6,3.2-8,4.6  c-2.9,1.8-8.1,6.8-10.9,8.4c0,0-5.9,2.9-8.7,3.5c-2.8,0.6-6.1,1.1-9.3,1c-2-0.1-3.7-0.4-5.7-0.7c-1.2-0.2-2.5-0.3-3.9-0.4  c-3.9-0.2-2.6-0.7-6.8-0.8c-4.2-0.1-5-1.9-7.1-0.5c-2.1,1.4-2.5,3.3-2.8,3.5c-0.4,0.2,3.3,2,4.7,3c0.2,0.1,0.4,0.3,0.6,0.4  c-1.5,0.5-3.1,1-4.6,1.5c-1.2-0.5-5.2-1.8-9-1.4c-2.1,0.2-5.9,1.7-9.2,2.2c-3.3,0.6-5.9,1-10.4,1.2c-4.5,0.2-8.1,0.4-11.9-0.1  c-3.8-0.5-6-0.7-11.1-3.2c-5.1-2.5-8.7-5.2-11.3-7c-2.6-1.8-5.1-4.1-7.2-5.8c-2.2-1.8-3.7-2-4.4-1.4c-0.7,0.5-2.4,2.2-2.8,2.5  c-0.4,0.4,1.9,2,2.9,3.7c1,1.7,1.8,2.6,2.2,4.1c0.7,2.4,0.9,4.9,0.9,5.9c0,0.1,0,0.2,0,0.2c-0.1-0.3-0.4-1.5-1.7-2.7  c-1-1,0.8,0.6-2.7-2.1c-3.5-2.8-4.6-3.6-5.9-4.6c0,0-3.6-2.2-5.3-2.8c-1.7-0.6-4-1.3-5.5-1.9c-1.4-0.6-4.9-1.8-6.2-2.7  c-1.3-0.9-6.5-4.8-8.6-7.5c-2.1-2.8-3.2-4-5.1-7.7c-1.9-3.8-3.1-5.8-4.2-8.1c-1.1-2.3-3.1-7.2-4.2-9c-1.1-1.9-2.3-4.5-4-6.4  c-1.7-1.9-3-3.1-4-3.5c-1-0.4-2-0.4-2.1,0.3c-0.1,0.7,1.3,3.5,2.1,5.1c0.8,1.5,3.1,6.9,3.1,8.5c0,1.6-1.8,5.9-3,8.5  c0,0-1.7,2.3-2.6,2.9c-0.9,0.5,1.2-1,1.2-4.9c0-3.9-1.6-8.6-3.6-11.9c-1.9-3.4-6.4-9.7-7.9-11.2c-1.5-1.5-5.5-8-6.9-11.1  c-1.4-3-2.9-12.7-3.3-15.8c-0.3-3.2-0.9-10-0.6-14.6c0.2-4.7,0.4-14.9,1-19.2c0,0,1.5-12,2.3-15.5c0.8-3.5,5.2-13.2,6.7-16.4  c1.5-3.1,4.3-11.9,6.5-14.8c2.2-2.9,9.5-15.6,12.1-18.9c2.6-3.2,8.9-11.1,11.7-14.2c2.8-3.2,9.5-11,14.4-14.9  c4.9-3.9,13.7-10.8,16.6-13.7c2.9-2.8,11.9-9.8,16.9-13.7c0,0,9.5-7.9,13.7-10.7c4.1-2.8,19.2-16.6,22.9-21  c3.7-4.5,9.1-10.6,12.8-15.8c3.7-5.2,6.6-9.8,9.1-15.5c2.5-5.8,4.7-11.5,5.5-17.9c0.9-6.4,0.7-12.2,0.7-18.9  c0-6.7-0.1-10.3-1.3-16.5c-1.2-6.2-3.4-12.5-4.7-15.6c-1.3-3.1-6.5-13-7.9-15.5c-1.4-2.5-6.2-9.2-11-13.7c-4.8-4.4-8.1-7.7-11.7-10  c-2.7-1.7-6.7-4.8-9-6.5c0.3-0.3,0.6-0.6,0.8-0.9c1.4-1.5,2.8-3,4.1-4.3c5.8,1.3,17.4,4,23.7,6.4c8.5,3.3,13.3,4.4,19,12  c5.7,7.6,3.1,6.4,7.3,12.9l6,5.1l-7.8-0.9c0,0-1.9-0.3-3.3-1.9c-1.4-1.5-0.6-1.4-2.9-4.7c-2.3-3.3-1.6-4.3-3.8-5  c-2.2-0.7-2.2-0.8-4.2,0.1c-2,0.9-2,3.2-2.1,4.3c-0.1,1.2,2.6,4.3,4.1,6.1c1.5,1.8,2.8,2.2,4.8,4.2c2.3,2.3,4.3,3.5,7.3,7.2  c2.6,3.2,3.6,3.2,6,9.7c2.3,6.5,1.5,6.2,2,8.6c0.5,2.4,1.2,2.2,0.9,6.2c-0.2,4-0.1,3.7,0,6.9c0.2,3.1-0.3,4.9,0,7.7  c0.3,2.8,0.7,2,1.7,5.4s3.1,5.5,3.5,5.8c0.4,0.3-2,0.6-3,0c-1-0.6-1.7-0.2-3.3-2.5c-1.5-2.2-2.9-4.2-3.3-5.4  c-0.6-1.7,0.4-3.4-0.6-4.5c-0.9-1.2-1.9-2.1-2.4-0.5c-0.6,1.6-0.2,3.2,0.5,6c0.7,2.8,0.8,7.5,1.9,12.8c1.1,5.4,1.7,8.9,2.1,12.6  c0.4,4.4,0.3,5.9-0.4,9.1c-0.7,3.1-1.8,6.6-2.8,8.9c-1.4,3.1-2.3,3.6-3.7,5.7c-1.4,2.1-2.2,2.7-3.8,5.2c-1.6,2.6-3.6,5.5-4.8,8.2  c-1.2,2.7-1.8,4.2-1.9,5.2c-0.2,2,0.8,7.6,0.8,7.6s-0.8-0.1-2.3-2.7c-1.5-2.6-1.9-2-2.1-5.6c-0.2-3.6-0.6-4.7-0.2-6.8  c0.4-2.1,0.4-3.1-1.2-3.6c-1.6-0.5-2.2-0.1-3.4,1.5c-1.3,1.6-1.2,1.7-2.6,5c0,0-0.8,3.1-1.3,4.8c-0.5,1.6-1.4,4.3-2,5.7  c-0.6,1.4-2.7,5.1-3.6,6.4c-0.9,1.3-2.1,3.3-3.6,4.7c-1.5,1.4-4.3,4.7-5.8,5.5c-1.5,0.8-4.4,3.3-6.2,4.5c-1.8,1.3-4.4,3.7-6.3,5.8  c-1.9,2.1-3.1,3.3-3.7,5.4c-0.6,2.1-1.5,4-1.4,5.5c0.1,1.5,1.1,4.1,1.1,4.1s-1.2,0.3-2.3-0.7c-1.2-1-2.2-2.5-2.2-4.7  c0-2.2,1.2-6.5,0.6-7.7c-0.6-1.2-1.3-2.9-2.9-2.7c-1.6,0.2-2.6-0.2-4.1,1.3c-1.5,1.5-1.9,1.4-3.2,3.7c-1.3,2.3-1.5,2.7-2.5,5.8  c-0.9,3.1-0.7,4.8-1.6,8c-0.9,3.3-1.5,7-2.2,9.4c-0.7,2.4-0.8,4.3-2.9,7.1c-2.1,2.8-4.8,4.4-6.6,6.1c-1.9,1.6-4.2,2.8-6.2,4.4  c-2,1.6-3.6,1.5-6.5,3.9c-0.2,0.1-0.3,0.3-0.5,0.5c-2.6,2.8-3.6,10.3-3.6,10.3s-0.7-0.5-1.3-1.8c-0.5-0.9-1-2.1-1.2-3.8  c-0.1-0.9-0.2-1.7-0.3-2.3c-0.2-2.1,0-2.8,0.9-5.3c1.2-3.2,3.5-3,5.4-5.8c1.9-2.8,1.3-3,0.5-4.3c-1.3-2-3.4-2.1-5.2-0.7  c0,0-2.2,0.5-5.1,4c0,0-4.2,3.2-5.9,6.6c-1.7,3.4-3.9,9.7-4,14.6c-0.1,4.9,0,9.4-1.8,13.9c-1.8,4.5-5.8,12.8-9.3,15.9  c-3.5,3.1-4.2,4.9-5.8,7.1c-1.5,2.1-2.2,2.8-2.5,5.8c-0.2,3,1.1,10,1.1,10s-3.9-3.8-4.6-6c-0.7-2.2-0.9-5.2,0-8.2s3.4-5.4,3.3-7.3  c-0.1-1.9-1.4-1.5-2.9-0.7c-1.5,0.8-3.7,2.1-4.5,4.8c-0.8,2.7-1.8,8-2.2,11.8s-0.9,9.2-0.8,12.6c0.1,3.4,0.7,11.1,1.5,14.4  c0.8,3.3,2.7,9.3,3.8,12.5c1.8,5.1,5.5,12.4,6.4,14.5c0.8,2.1,3.1,4.7,5.6,8.5c0,0,3.4,6.1,5.7,8.7s7.4,8.7,9.4,10.8s8.6,8,10.5,9.4  c1.9,1.4,13.3,9.2,14.8,10.2c1.5,1.1,13.7,6.6,16.4,7.8c2.7,1.2,12.7,4.2,16.7,5.3c4,1.1,12.7,2.1,17.1,2.6c4.4,0.5,11.4,0,14.7,0  c3.3,0,13.9-1.4,16-2.1c2.1-0.7,11.5-2.8,13.8-3.5c2.2-0.7,12.4-5.1,14.2-5.9c1.9-0.8,11.1-6.4,12.8-7.9c1.8-1.5,6.6-4.7,8.7-6.5  c2.1-1.8,6.5-5.8,9.3-9c2.8-3.2,6.2-6.7,8.5-10.2c2.2-3.5,5.4-7.8,7.8-13.5c2.3-5.8,3.9-8.6,5.2-13c1.3-4.4,2.7-10.4,3.4-14.6  c0.7-4.2,1.8-7.5,2-11.2c0.2-3.7,0.5-10,0-13.2c-0.5-3.2-1.2-9.3-1.5-12c-0.3-2.7-2.2-8.6-3.1-11.3c-0.8-2.7-5.5-13.6-6.8-16.2  c-1.3-2.7-7.3-15.8-8.2-17.4c-0.9-1.6-8-12.7-10.1-16.7c-2.1-4-8-12.1-10-15.3c-2-3.2-4.8-8.7-6.1-10.8c-1.3-2.1-2.4-5.8-4.5-11.9  c-1.5-4.5-1.9-6.7-2-11.9c-0.1-6-0.1-5.8,0.8-10.5c0.5-2.4,1.9-5,2.6-9.1c0.6-3.6-1.1-6.4-2.7-9.1c-1.5-2.5-2.5-4-2.7-4.2  c0.2,0.1,1,0.6,3.7,2c3.2,1.5,3.2,1.5,5.4,3.5c2.4,2.1,1.6,4.8,1.8,6.6c0.1,1.8-0.3,3.1,0.8,4s1.8,0.9,2.8-0.5  c1.5-2,1.2-3.8,1.7-6.2c0,0,1.2-5.1,1.4-8c0.2-2.9,2-12.8,2.8-15c0.8-2.1,3.8-8.5,5.4-10.4c1.7-1.9,5.4-6.7,7.8-8.7  c2.4-2,7.4-4.4,9.3-4.8c1.9-0.5,7.9-0.5,9.1-0.9c1.2-0.5,4.8-2,6.6-3.1c0.5-0.3,1.2-1.1,1.8-2c1.5-2.2,3.1-5.2,3.1-5.2  s0.1,1.4,0.6,3.4c0.1,0.6,0.2,1.2,0.2,1.9c0,1.5-0.5,3.1-1.7,4.4c-1.8,1.9-3.5,4.2-6.2,5.5c0,0-4.5,0.7-6.5,1.7  c-2,0.9-2.5,1.6-2.7,3.1c-0.2,1.4-0.4,1.3,1.6,1.1c2-0.2,5.9-2.2,8.6-3.2c2.7-0.9,8.4-3.2,12.8-4.5c4.5-1.3,6.1-2.2,9.5-2.6  c2.8-0.3,5.3-0.5,7.9-0.1c0.2,0,0.4,0.1,0.7,0.1c2.8,0.6,4.6,0.7,8.2,2.4c0,0,3.2,1.1,4.3,2.2c1.2,1.2,3.8,4.2,5.1,5.5  c1.3,1.3,4.7,6,6.1,7.3c1.4,1.3,4.5,2.6,6.5,2.4c2-0.2,3.1,0.1,3.1,0.1s-3.1,1.8-4.2,2.2c-1.2,0.5-4.4,0.5-4.8,0.7  c-0.5,0.2-0.4,1.4,0.3,2.7c0.7,1.3,2.7,5.1,4.7,6.2c2,1.2,6.2,2.9,8.7,5.1c2.3,2,4.1,4.6,5.1,7.3c0.8,2.1,1.4,5.3,2.4,7.8  c1.1,2.7,3.4,8.1,4.5,10c1.1,1.9,3,2.9,5.3,4c2.4,1.1,6.2,1.9,6.2,1.9s-1.6,2-4.7,2s-6-0.5-8-1.8c-2-1.3-3.7-3.2-4.8-3.3  c-1.2-0.1-2.4,0.2-3.3,1.5c-0.9,1.3-1.7,2.9-1.3,4.8c0,0,0.8,2.6,1.8,5.3c0.9,2.7,4.5,3.8,6.6,5c2.1,1.2,5.8,2.6,7.3,2.8  c1.5,0.2,4.7,0.1,6.5-0.6c1.8-0.7,5.3-2.8,6.9-3.3c1.7-0.5,4.8-2.4,6.2-2.5c1.4-0.1,4.7-0.2,6.2,0.6c1.1,0.6,4.2,1.7,5.8,2.2  c0.2,0,0.1,0.3-0.1,0.3c-1.7,0-5.1,0.1-6.4,0.5c-1.8,0.5-4.9,1.3-5.8,2.8c-0.8,1.5-1.5,4.7-1.2,6.2c0.3,1.5,1.7,2.5,2.8,3.2  c1.4,0.8,1.5,1.3,4.5,0.5c2.3-0.7,3.1-0.8,4.7-1.7c1.6-0.8,1.9-1.4,3.3-4c1.3-2.6,1.2-3.9,1.3-6.2c0.1-2.3-0.5-6.8-0.8-11.2  c-0.4-4.4-1.6-7.2-1.6-10.6c0,0-0.4-2,0.6-5.5c0.9-3.5,2.2-5.3,3.3-7.4s2.4-4.2,2.6-7.4c0.2-3.2-1.3-7.9-1.9-8.7  c-0.6-0.8,1.2,0.6,2.9,2.2c1.8,1.7,3.7,4.2,4.1,6.2s0.6,5,0,6.8c-0.6,1.9-1.4,3.4-0.2,5c1.2,1.5,1.9,1.8,3.3,0.8  c1.4-0.9,2.6-3.4,2.8-5.9c0.2-2.5-0.6-10-2.7-14.5c-2.1-4.5-4.8-8-6.5-11.1c-1.7-3.1-3.7-7.8-4.8-11.4c-1.2-3.7-0.2-7.9,0.2-12.1  c0.5-4.2,1.4-6.5-0.2-9.8c-1-1.9-2-3.5-2.7-4.4c-0.3-0.3,0.1-0.8,0.5-0.7c0.8,0.3,1.8,0.7,2.7,1.2c0,0,2.3,1.9,3.2,2.7  c0.8,0.8,2.3,3.1,2.7,4.6c0.5,1.9,0,5.7,0.2,7.3c0.2,1.6,0.5,4.4,1.9,4.6c1.4,0.2,3.1-0.7,3.1-2.2c0-1.5-1.4-12-2.2-16.1  c0,0-0.3-3.4-1.5-7.2c-1.2-3.8-2.9-7.5-4.2-10.2c-1.2-2.6-3.5-7-3.6-7.3c0.1,0.1,0.9,0.8,1.9,1.7c1.7,1.5,4,3.8,4.8,4.9  c1.3,1.9,8.8,17.2,9.5,19.1c0.7,1.9,1.2,3.1,2.6,7.1c1.4,4,3.9,15.5,3.9,20.1C880.3,452.6,880.4,466.2,880.3,469.9z" style="fill:#5400E7;stroke:#000000;stroke-miterlimit:10;"/><path d="M611.5,526.2l-1.7,7.4l-3.8,1.8c0,0,0.1-3.4,0.5-4.6  c0.4-1.2,1-2.5,2.2-3.4C610,526.5,611.5,526.2,611.5,526.2z" style="fill:#1600A2;stroke:#000000;stroke-miterlimit:10;"/><path d="M631.7,525.2l-4.1,4.8l-2.7-0.8c0,0,1.6-2.6,2.4-3  C628,525.8,631.7,525.2,631.7,525.2z" style="fill:#1600A2;stroke:#000000;stroke-miterlimit:10;"/><path d="M652.7,538.4l-6.6,1l-1.4-1.9c0,0,0.1-0.6,1-1.2  c0.9-0.5,6.1,1.2,6.1,1.2L652.7,538.4z" style="fill:#1600A2;stroke:#000000;stroke-miterlimit:10;"/><path d="M651.4,592.1c0,0-1.9,1.4-3.3,1.6s-5.8,0-5.8,0l1.9-3.2  L651.4,592.1z" style="fill:#1600A2;stroke:#000000;stroke-miterlimit:10;"/><path d="M779.2,698.6c1.9-3.2,3.6-9.6,3.4-11.7  c-0.2-2.1-1.9-3.6-4.6-6.5s-7.8-1.2-13.4-2.3c-5.5-1.2-13.4-4.4-17-6.9c-1.9-1.3-4.8-3.7-7.2-5.8c-2.7,3.1-7.4,8.7-8.9,10.8  c-1.9,2.6-4.6,8.8-5.2,11.2c-0.6,2.4,0,5.9,1.4,6.7c1.4,0.8,3.1,0.9,5.5-0.7c2.5-1.6,4.6-4.2,7.3-4c1.9,0.2,6.1,1.5,8.3,2.3  c0.3,0.1,0.3,0.6-0.1,0.6c-1.4,0.1-3.4,0.4-4.7,0.7c-2.1,0.6-5.9,2.8-7.1,4.8c-1.2,2-2,4.8-4.8,7.3c-1.7,1.5-2.9,3-4,4.4  c1.5-0.5,2.8-0.9,3.9-1.3c2.2-0.9,3.6-0.9,6.5-2.1c3.5-1.4,4.1-1.4,7.2-3c3.1-1.5,4.9-2.7,8.3-3.9c2.7-1,2.9-0.7,4.9,0.8  c1.8,1.4,0.4,2.6-0.1,4.2c-0.7,2.2-1.4,4.4-3.5,8.5c-2.1,4.1-4.5,9.2-5.5,11.7c-1,2.5-3.5,5.5-5.4,7.9c-1.8,2.4-4.8,2.5-7.5,3.1  c-2.7,0.6-4.8-2.5-8-2.8c-3.2-0.3-3.4-1.6-6.2-2.4c-1.5-0.5-4.9-0.4-7-0.1c-3,0.3-3.9,0.2-7.1,2.8c-2.1,1.7-3.5,3.9-4.4,6.3  c-1.4,3.9-0.7,4.5,0,7.3c0.8,3.3,0.4,3.9,1,2.1c0.6-1.8,1-3.7,1.4-5.4c0.3-1,2.1-3.4,4.8-4.5c1.2-0.5,2.1,0,3.2,0.3  c1.5,0.4,2.3,1,4.4,1.7c2.1,0.7,2,0.8,1,1.3c-1,0.4-2,1.5-4.4,2.4c-2.4,0.8-2.4,2-4.5,4.2c-2.1,2.2-2.5,3.9-3.1,6.5  c-0.9,3.8-0.2,3.9-0.4,4.7c-0.2,1.4,1.4,3.9,2.5,5.7c0.8,1.4,1.1,2.2,1.1,2.3c0-0.2-0.1-1.1,0-3.2c0.1-2.1-0.5-4.4,1.4-7.3  c1.4-2.1,1.8-2,3.4-2.2c1.5-0.3,1.7,0.4,3-0.4c1.3-0.9,1.8-0.1,4.2-0.1c2.4,0,2.3,0.8,2.3,0.8s-0.6,1.8-2.1,3.1  c-1.6,1.3-2.8,6.3-2.2,9c0.6,2.7,0.4,4.4,3.1,7.3c2.7,3,3.4,3.1,5.9,3.5c2.4,0.4,4.4,0.8,4.6,0.8c-0.3-0.3-4.3-4.2-5.6-6.1  c-1.4-2-0.8-3,0-4.8c0.9-1.8,1.6-1.6,1.6-1.6c1.2-0.6-0.2-1.7,1.2-2.9c1.3-1.1,3,0.4,4.4-1.3c1-1.3,0.4-2.1,2.3-2.9  c1.9-0.8,1.9-0.2,3.9-1.7c1.9-1.5,2.5-4.8,4.9-8c2.5-3.2,2.5-1.9,5.3-2.5s2.7,2.7,4,2.7c1.3,0,3.6-0.3,5,2.1  c1.3,2.5,2.3,2.6,5.6,3.6c3.2,1,2.3-1.5,3.8,2.7c1.5,4.2,1.3,3.8,0.6,6.9c-0.8,3.1-2.7,5.9-2.7,5.9s5.6-5,7.1-8.4  c1.5-3.4,2.2-5.6,1-9.8c-1.1-3.5-1.8-5-3.2-6.7c-1.3-1.7-4.5-2.3-5.5-3.5c-1-1.1-3.8-5-6.1-6.1c-2.3-1.1-2.9-2.5-2.9-5.3  s3.2-5.7,5.7-9S777.3,701.9,779.2,698.6z M712.8,736.1l-6.4,3.9c0,0,0-2.3,0.9-3.3c0.9-1,2.3-2.8,3.1-3.3c0.9-0.5,2.4-0.7,2.4-0.7  V736.1z M711.6,755.5c-0.6,0.9-1.2,2.6-1.2,2.6l-1.2-0.4l2.2-6.3c0.1-0.3,0.5-0.3,0.7-0.1c0.3,0.5,0.7,1.2,0.9,1.7  C713.1,753.7,712.2,754.6,711.6,755.5z M725.9,773.2l-2.8-5.5c0,0,2.3-0.7,2.8-0.3s1,1.5,0.7,3.1c-0.3,1.6,0.4,2.8,0.4,2.8H725.9z   M773.8,752.2c0,0,1.6,2.9,1.9,4.1c0.2,1.2-0.9,4.1-0.9,4.1l-2.6-6L773.8,752.2z" style="fill:#69008B;stroke:#000000;stroke-miterlimit:10;"/><path d="M656.7,758.6c0,0-1.1-2-2-3.2c-1.4-1.9-2.9-2.8-5.3-3.4  c0,0-0.1-0.1-0.4-0.2c1.5-0.5,3.1-1,4.6-1.5c1.9,1.3,2,1.9,2.8,4.6C656.7,756.2,656.7,758.6,656.7,758.6z" style="fill:#5400E7;stroke:#000000;stroke-miterlimit:10;"/><path d="M859.1,591.2c-1.4-3-3.1-9.1-3.6-11.3  c-0.6-2.2-1.9-10.4-2.2-13.5c-0.1-0.7-0.2-1.6-0.5-2.6c-0.5-2.4-1.5-5.5-2.4-8.2c0-0.1-0.1-0.2-0.1-0.3c-0.5-1.6-1.1-3-1.5-4  c-1.6-3.6-3.4-5.6-5.5-7.8c-0.7-0.7-1.2-1.3-1.8-1.8c-2.6,0.8-4.8,1.2-8.7,0.7c-4.3-0.6-5.8-0.6-8.4-1.9c-2.3,0.9-4.8,2.4-6.9,3.7  c-2.4,1.5-4.6,3.8-5.7,5.7c-0.3,0.5-0.6,1.2-0.8,1.8c-0.3,0.9-0.5,1.8-0.7,3c-0.2,1-0.3,2.2-0.4,3.5c0,0-0.4,3.4,0,6.3  c0.1,0.5,0.2,1,0.3,1.4c0.9,3,2,5,4.5,8.1c2.4,2.9,3.7,3.9,6,5.8c2.3,1.9,5.5,4.3,8.4,5.5c2.9,1.2,7.5,3.3,10.1,4  c2.6,0.7,3.3,2.7,3.2,4.9c-0.1,2.2-1,1.9-2.7,3.3c-1.7,1.4-21.7,6.1-24.3,6.9c-2.6,0.9-3.9,0.7-6.6,0c-2.8-0.7-3-1.5-3.6-3.9  c-0.6-2.5-2.8-3.8-4.2-6.7c-1.4-2.9-4.1-8.5-5.9-9.6c-2.1-1.3-3.4-1.6-6.4-2.8c-2.1-0.8-5.8-0.3-8.2,1.3c-2,1.4-3.7,3.3-5,5  c-1.2,1.6-3.7,5.1-3.9,5.3c0.2-0.2,4.1-3.1,5.3-3.9c1.1-0.7,3-0.9,4.8-0.9c1.6,0,3.4,0.5,4.4,1.4c1.8,1.5,1.5,1.9,2.2,3.4  c0.7,1.4,2.5,4.3,2.5,4.3s-4.3-1.3-7.1-1.7c-2.1-0.3-4-0.9-7.6-0.2c-2.9,0.6-5.5,3-7.1,4.8c-1.8,2-2.8,3.8-3.6,6.5s0,5.8,0,5.8  s1.5-2,2.3-4c0.7-2,2.2-3.2,3.9-4.3c1.7-1.2,2.3-1.3,4.8-1c2.5,0.3,3.2,1.7,5.5,4.1c2.3,2.3,3.2,3,3.2,3s-6.2,1-8.2,2  c-2,1-4.3,3.6-5.2,5.5c-0.9,1.9-1.2,5.4-1.3,7.3c-0.1,1.9,1.2,4.8,2.3,6.4c1.1,1.6,2.7,3.3,2.7,3.3s-0.3-3.3-0.6-5.8  c-0.2-1.6,0.3-3.8,1.3-5.3c1-1.6,2-1.4,3.6-0.9c1.7,0.5,1.2-0.7,2.3-1.2c1.2-0.4,2.2,0.3,4.9,0.7c2.8,0.4,2.5-0.3,3.8,0.1  c1.3,0.4,3.2,1.5,5.1,1.5c1.9,0,3.8-0.9,5.9-2.2s3.3-1.3,4.9-1.5c1.6-0.1,2.6,1,3.6,2.9c1,1.9,2.2,3.3,2.6,4.8  c0.4,1.4,2.6,3.6,1.5,4.3c-1.1,0.7-0.5,3.7,0.5,5c1.2,1.5,1.3,1.7,2.6,2.4c1.3,0.7,0.1,2.3-0.4,3.8c-0.6,1.5-1.8,4.2-2.7,4.9  c-1.3,1-6.3,3.3-6.3,3.3s6.1-0.2,8.3-1.2c2.2-1,2.9-0.9,5.4-3.1c2.4-2.2,2.7-1.9,3.7-5.2c1-3.3,0.6-3.2,1-3.6c0.4-0.5,0.5-3,0.7-4.6  c0.1-1.6-1.6-3.8-1.9-4.7c-0.3-0.9,0-2.3,0-3.6c0-1.3-0.7-6.9,0.3-9.7c1-2.7,3.3-3,6.7-4c3.3-1,8.1-2,13.5-2.8  c5.3-0.9,7.9-1.9,10.8-3.5c2.9-1.6,3.8-3.8,4.3-6.4C861.6,596.5,860.8,594.9,859.1,591.2z M788.4,586.7c-0.6,0.1-1.2,0.6-2.3,0  c-1.1-0.6-1.1-0.6-2.1-0.9c-1-0.3-3.4-0.6-3.4-0.6s2.9-1.7,4-1.7s2.4-0.2,3.6,0c1.2,0.2,1.4,0.8,1.4,0.8S789,586.6,788.4,586.7z   M776.8,600.2c-0.3,0.6-1,1-1.5,0.8c-0.4-0.2-1.2-0.3-1.8-0.3c-0.6,0.1-2.3,0.7-2.3,0.7s1.5-2.3,2.3-2.9c0.9-0.6,3.3-0.5,3.3-0.5  S777.1,599.6,776.8,600.2z M773.6,624.8h-0.8l1.3-7.1l1,0.4l0.9,2.1L773.6,624.8z M822.5,644.2c-0.9,1-3.6,2.6-3.6,2.6l1.5-5.9  l3.4-0.8C823.7,640.2,823.3,643.2,822.5,644.2z" style="fill:#002C5C;stroke:#000000;stroke-width:0.7982;stroke-miterlimit:10;"/><path d="M852.2,332.9c0.1,4-1,6-1,6s-2.2-15.2-2.8-17.2  s-2.4-9.1-3.3-11.2s-4.2-7.3-6.3-9.8c-2-2.4-5.4-4.9-5.6-5c0.1,0.3,2.4,4.5,3.5,6.7c1.1,2.2,2.7,6.5,2.7,10.1c0,3.6-0.6,6.8-1.4,8.5  s-3.3,2.7-3.3,2.7s2.5-6.2,2.5-8.1c0-2-1.3-7.4-2.4-10.8c-1.1-3.4-2.9-7.1-5.9-9.6c-2.9-2.5-10.2-8.2-10.2-8.2s5.4,1,8.1,2  c2.7,1,7.4,3.9,9.9,5.6c2.5,1.7,6.2,6.7,7.7,8.7c1.5,2,3.6,8.9,4.6,11.9C849.9,318,852,328.9,852.2,332.9z" style="fill:#3600A2;stroke:#000000;stroke-miterlimit:10;"/><path d="M805.1,317c1.1,2.1,0.7,6.9,0.7,6.9s-2.4-5.5-3.3-6.9  c-0.7-1.1-5.5-5.5-6.8-7.1c-1.2-1.5-3.9-6.6-5.1-10c-0.8-2.6-2.2-10.3-2.9-13.8c-0.7-3.5-3.5-7.1-5.9-9.2c-2.4-2.1-8.4-4-8.4-4  s4.3-0.7,7.7,0c3.3,0.7,3.5,1.1,5.2,2.1c1.7,1,3.3,2.7,4.8,4.8c2.1,2.9,2.6,4.6,4.1,8.6c1.5,4,2.4,7,3.5,10c1.1,3,5.7,9.6,7.6,12.1  c1.7,2.4,5.4,5.8,5.8,6.2c-0.5-0.3-5.2-3.4-6.9-5.1c-1.8-1.8-5.7-6.6-6.8-8.5c-1.1-2-3.8-8.8-4.8-11.7c-1-2.9-3.4-7.1-3.4-7.1  l1.1,6.4c0.2,1.6,0.7,4,1.7,7.2c1,3.2,1.1,5.2,2.9,8.1c1.4,2.3,3.3,4.4,4.7,6C802.4,313.9,804,314.9,805.1,317z" style="fill:#3600A2;stroke:#000000;stroke-miterlimit:10;"/><path d="M777.2,321.6c0,0-1.5-0.9-2.6-2.3c-1.1-1.5-1.6-2.9-3.6-6.3  c-1.9-3.4-4.1-7.2-5.2-8.8c-1.1-1.5-4.5-3.6-6.1-4.6c-1.6-1-5.6-2.3-7.7-2.7c-2.1-0.4-5.2-0.5-6.3-0.5c-1.1,0-3.9,1.1-3.9,1.1  s4.7,1.1,5.9,1.9c1.2,0.8,5.3,2.7,6.2,3.6c0.9,1,4.6,4,5.3,4.9s3.3,4.3,3.8,5.5c0.5,1.2,3,6.8,3.2,7.6c0.2,0.8-1.5-1.4-2.5-3  c-1.1-1.6-2.8-4.6-3.8-6c-1-1.4-3-3.8-4.4-5c-1.4-1.2-5.7-4.3-6.8-4.8c-1.1-0.5-5.5-2.3-7-2.3c-1.5,0-5.8-0.5-7-0.3  c-1,0.1-5.3,0.4-7.1,0.5c-0.2,0-0.2-0.2-0.1-0.3c2.1-0.9,8.4-3.7,9.9-4.1c1.8-0.5,6.9-1.6,10.5-1.5c3.6,0.1,6.3,0.4,8.9,1.1  c2.6,0.7,5.9,2.5,7.2,4c1.3,1.5,5.8,6.7,6.7,9.2C772,310.9,777.2,321.6,777.2,321.6z" style="fill:#3600A2;stroke:#000000;stroke-miterlimit:10;"/><path d="M763.3,353c0,0-2.5,1.4-3.5,1.9c-1,0.5-2.7,0.6-4.4,0.5  c-1.7-0.2-5.3-0.6-6.7-1.5c-1.5-1-3.1-1.6-4.9-2.8c-1.8-1.2-5.1-2.8-7.4-4c-2.3-1.2-4.1-2.5-6.7-3.1c-2.6-0.6-5.2-0.5-8.5,0.3  c-3.3,0.8-6.1,2-8.3,3c-2.2,1-5.5,2.9-7.5,3.7c-2,0.8-4.6,2.7-6.8,3.5c-2.1,0.8-6.2,2.2-6.5,2.3c0.4-0.3,13.7-11.4,15.6-12.9  c1.9-1.5,8.3-6.7,9.6-7.1c1.3-0.5,4.8-1.9,6.3-2.3c1.5-0.3,4.4-0.6,5.8-0.3c1.5,0.3,4.9,1.5,5.6,1.9c0.7,0.4,7.3,3.6,8.8,4.5  c1.5,0.9,6,3,7.4,3.3s9.7-0.9,9.7-0.9s-1.8,1.5-3.6,1.9c-1.8,0.4-5.3,0.8-6.6,0.4c-1.4-0.4-3.6-0.4-5.8-1.6  c-2.3-1.2-6.1-2.8-7.5-3.7s-5.3-2.5-7.1-2.9c-1.8-0.4-4.7-0.5-6.6,0c-1.9,0.5-4.9,1.5-6.7,2.7c-1.7,1.2-6,4.6-6.3,4.8  c0.4-0.1,6.5-2.6,8.7-3c2.3-0.4,4.8-0.9,6.9-0.7c2.1,0.2,4.8,0.7,7.3,1.8c2.5,1.1,6.1,3.4,7.7,4.3c1.6,0.9,5.6,3.2,6.9,4.2  c1.3,1,4.9,1.7,6.6,2.1C756.7,353.8,763.3,353,763.3,353z" style="fill:#3600A2;stroke:#000000;stroke-miterlimit:10;"/><path d="M807.2,369.8c0,0-6.2,2-7.5,2.7c-1.2,0.7-2.8,1-5.1,2.6  c-2.3,1.6-7.9,5-9.9,5.6c-1.9,0.7-6.1,2.4-8.3,2.7c-2.3,0.3-6,0-8.1,0.1c-2.1,0.1-6.2-0.2-8.2-0.3c-2-0.1-4.8-0.6-7.5-0.3  c-2.8,0.2-3.7,0.2-6.2,0.8c-2.5,0.6-5.9,1.1-5.9,1.1s4.1-3.3,5.8-4.1c1.8-0.8,4.2-1.8,5.8-2c1.6-0.2,5.7-0.7,7.5-0.8  c1.8-0.1,6.3-0.3,8.8-0.6c2.4-0.2,7-0.4,8.7-0.9c1.7-0.5,6.6-1.9,7.5-2.4c0.9-0.5,7-4.8,7.3-5c-0.1,0.2-2,4.1-3.2,4.9  c-1.3,0.9-4.7,2.6-5.6,3c-0.9,0.4-5.8,1.7-7.9,1.9c-2,0.2-7.5,0.5-8.2,0.6c-0.6,0.1-4.4,0.6-4.4,0.6s4.9,0.6,6.1,0.7s5,0.1,6.4-0.1  c1.4-0.2,6.9-1.4,8-1.8c1-0.4,4.7-2.5,6.2-3.2c1.5-0.7,4.3-1.9,6.1-2.8c1.8-0.8,3.7-1.4,4.8-1.5  C801.1,370.9,807.2,369.8,807.2,369.8z" style="fill:#3600A2;stroke:#000000;stroke-miterlimit:10;"/><path d="M826.9,389.6c-0.1,0.1-0.6,1.1-1.1,1.6  c-0.5,0.5-2.5,2.7-3.8,3.6c-1.3,1-3.5,2-5.5,2.6c-2,0.6-3.1,1.2-5.3,1.3c-2.3,0.1-4.4,0.2-6.3-0.2c-1.9-0.4-2.6-0.8-4.1-1.1  c-2.3-0.4-3.8-0.5-5.7-0.2c-2.8,0.4-2.8,0.1-4.7,0.7c-1.9,0.6-3.6,2.1-4.1,2.5c-0.7,0.5-3.3,3.1-3.6,3.3c0.2-0.3,2.8-5.1,4-6.5  c1.2-1.4,3.4-3,5.2-3.5c1.8-0.5,4.8-1.2,6.2-1.2c1.7-0.1,4.5,0.1,6.4,0c1.9-0.1,4.5-0.7,5.8-0.9c1.8-0.2,3-0.7,5-1.5  c1.9-0.8,4.2-2.8,4.2-2.8s-0.3,2.4-1.2,3c-0.9,0.6-2.9,2.1-4.5,2.5c-1.5,0.4-3.7,1-4.7,1.3c-1.2,0.4-6,1.4-6,1.4s4,0.8,5,0.8  s4.1-0.1,5.6-0.4c1.5-0.3,4.5-1.2,5.8-1.9c1.2-0.7,2.1-1.2,3.5-1.9C823.9,391.6,826.7,389.8,826.9,389.6z" style="fill:#3600A2;stroke:#000000;stroke-miterlimit:10;"/><path d="M679,570.7c-0.9,0.4-1.8,0.8-2.3,0.9c-1.2,0.3-5.8,0.4-6.8,0.3  c-0.4,0-1.6-0.1-2.8-0.2c-0.6-1.8-1.1-3.6-1.7-5.4c2.1,0.2,5.1,0.4,6.7,0.3c1.5-0.1,3.5-0.4,5-0.7  C677.8,567.6,678.4,569.2,679,570.7z" style="fill:#300073;stroke:#000000;stroke-miterlimit:10;"/><path d="M694,633.7c-0.8,0.1-1.6,0.2-2.4,0.2c-2.7,0-2.9,0.2-6.7-0.6  s-2.8-0.2-6.9-1.4c-0.8-0.2-1.5-0.4-2.1-0.6c0.2-2,0.3-3.9,0.3-5.6c4.3,1.4,4.4,1.7,6.4,1.9c2.3,0.2,5.9,0.5,8.2,0.4  c0.8-0.1,1.9-0.1,2.9-0.2C694,629.8,694,631.8,694,633.7z" style="fill:#300073;stroke:#000000;stroke-miterlimit:10;"/><path d="M668.9,689.2c-2,1.7-4,3.1-6.2,4.4c-1.5-0.9-3.1-2-3.6-2.6  c-1-1.1-3.9-4.1-4.5-4.8c-0.4-0.5-2.7-4.4-4.2-7.3c2-1.4,3.7-2.7,4.8-3.7c1.4,2.3,3.2,5.1,3.9,5.9c1.3,1.4,4.5,5.4,5.9,6.2  C665.5,687.7,667.2,688.5,668.9,689.2z" style="fill:#300073;stroke:#000000;stroke-miterlimit:10;"/><path d="M608.1,692.4l-0.4,10.9c-1.8-0.5-3.6-1-5.3-1.5l0.3-9.5  c0.7,0.1,1.3,0.1,1.8,0.2C605.3,692.5,606.6,692.5,608.1,692.4z" style="fill:#300073;stroke:#000000;stroke-miterlimit:10;"/><path d="M904,503.7c-0.3,2.1-0.6,3.9-0.8,5l-6.1-1.2  c0.4-1.5,0.9-3.3,1.5-5.2L904,503.7z" style="fill:#300073;stroke:#000000;stroke-miterlimit:10;"/><path d="M880.3,549.4c-1.9,1.7-3.8,3.3-5.1,4.2c0,0,0,0-0.1,0l-4.8-7.9  c1.3-1,2.5-1.9,3.5-2.8c0.1-0.1,0.3-0.2,0.4-0.4L880.3,549.4z" style="fill:#300073;stroke:#000000;stroke-miterlimit:10;"/><path d="M535.4,386.2c-0.7,4.3-3.9,11.4-5.1,13.2  c-1.2,1.9-4.6,5.3-4.6,5.3l-0.8-0.9c0,0,1.4-2.7,1.7-4s0.9-3.6,0.9-3.6s-2.5,0.9-4,1.7c-1.5,0.8-4.2,1.4-4.2,1.4s4.8-8.5,5.6-9.6  c0.8-1,2.9-2.4,3.9-4.4c1-2,0.9-4.4,0.7-6.4c-0.2-2,0.1-4.3,0.3-5.8c0.1-1.5,2.5-3.1,2.9-3.7c0.4-0.6-0.5-0.7-1.2-0.2  c-0.7,0.5-2.4,1.7-4,2.6c-1.6,0.9-4.4,1.7-6.2,2.2c-1.8,0.4-4.6,2.1-6.6,3.3c-2,1.2-3.1,4.3-3.9,6.5c-0.8,2.2-0.6,5.9-0.6,5.9  s-7.3,1.2-9.6,1.7c-2.2,0.4-6.8,2.2-8.7,3.2c-2,1-4.3,4.9-5.4,6.4c-1.1,1.5-3.3,3.3-4,3.8c-0.7,0.4-2.7,0.5-4.3,0.1  c-1.7-0.4-7.9-0.9-9.1-1.1c-1.2-0.2-7.2,0.7-9.6,1.7c-2.4,1-7.3,4.5-8.5,5.6c-1.2,1.2-2.6,3.2-2.5,4.6c0.1,1.4,1.9,3.9,3.1,4.8  c1.3,0.9,3.3,0.7,4.6,0.4c1.3-0.3,3.6-1.4,3.6-1.4l2.8,14.5l-6.3-2.5l-0.9,0.2c0,0,1.1,2.5,1.5,3.8c0.4,1.3,0.4,4.7-0.1,6.4  c-0.4,1.7-2.9,4.8-2.9,4.8s-3-2.5-4.4-3c-1.4-0.6-3.2-0.2-3.2-0.2s1.4,3.5,1.3,5c-0.2,1.5-1.2,3.4-1.2,3.4s-2.2-1.6-3.3-2.4  c-1.1-0.8-1.7-1-3.8-1.4c-2.1-0.4-3.9,0.1-5.5,0.5c-1.6,0.4-4.6,1.7-7.5,2.5c-2.9,0.8-4.8,1.2-6.4,1.2c-1.7-0.1-2.4-0.6-4.2-1.7  c-1.8-1.1-1.7-1.5-3.3-3c-1.6-1.5-3.1-2.5-4.7-2.8c-1.6-0.4-3.3,1-4.5,1.7c-1.1,0.7-2.8,2.5-2.8,2.5s-0.6-3.1-0.6-4.4  c0.1-1.3,2.2-5.6,2.2-5.6l-6.4,2.1c0,0,0.5-2.6,0.8-3.5c0.3-0.9,3.2-3,3.2-3l-5.1,0.3l9-9.3c0,0,1.2,4.7,1.9,6.4  c0.7,1.7,2.6,2.8,4,2.9c1.4,0.1,4.2-0.6,4.2-0.6s2.3,3.3,3.2,4.3c0.9,0.9,3,2.5,4.2,2.9c1.2,0.4,4-0.2,5.6-0.7  c1.5-0.4,3.5-2.2,4.2-2.7c0.7-0.4,2-5.6,2-5.6s0.4-0.1,1.2,0.2c0.7,0.3,1.9,2.3,2.8,2.9c0.9,0.6,3.1,1.6,4.3,1.8  c1.2,0.2,3.7-0.5,5.4-1.2c1.7-0.7,4.3-4,5.1-5.7c0.7-1.7,0.4-4,0.2-5.1c-0.2-1.1-1.9-3.2-2.8-4.2c-0.9-1-1-0.8-3.1-1.9  c-2-1.1-7.7-2.7-10-3.4c-2.3-0.7-6-1.7-7.7-2c-1.7-0.4-3.6,0.1-5.2,0.4c-1.5,0.3-2.4,0.6-3.6,0.9c-1.1,0.3-1.2,0.5-1.1,0  c0.1-0.5,6.2-4,7.4-4.9c1.3-0.9,4.2-2.6,5.7-4.1c1.5-1.5,2.8-4.5,3-6.4c0.2-1.9-0.7-3.4-1.2-5c-0.6-1.6-2.8-4.8-3.2-6.3  c-0.4-1.5-0.6-5-0.6-5.8c0-0.9,0.2-3.5,0.7-4.1c0.5-0.6,4-2,4-2l0.3,1c0,0-1.2,1.2-2,2.2c-0.7,0.9-0.9,2.2-1.2,3.6  c-0.2,1.4,0,4.5,0,4.5c0.9,3.7,1.5,4.1,3.2,5.3c1.7,1.2,4.9,2.6,7.6,2.3c2.7-0.3,5.2-1.7,7.6-4.8c0.6-0.8,1.3-2.1,2-3.6  c0.3-0.2,0.6-0.5,0.8-0.7c1.7-1.7,1.2-3.3,2.6-3.3s0.9,2.1,1.5,4.1c0.6,2-0.3,3.2,2.3,3.5c0.3,0,0.5,0,0.8,0c0.5,1.3,1,2.3,1.3,2.4  c1.4,0.6,4.3,4.1,6.5,4.7s7.9,0.5,11.4-1.7s4.3-3.8,5.3-6.2c1.1-2.4,2.3-9.1,2.3-9.1s9.6,0.2,11.9-0.8c2.3-0.9,4.6-4.1,5.9-7.1  c1.4-3,0.6-6.9,0-9s-4.1-6.8-4.1-6.8s-1.5,2.7-2.7,4.6c-1.2,1.8-4,6.4-6.1,7c-2.2,0.6-4.2,0-4.2,0s3.4-2.4,4-3.4  c0.6-0.9,0-4.4,0-4.4s-3.2,2.4-4.3,3.2c-1.1,0.8-4.7,1.1-7.8,1.9c-3,0.8-5.5,1.5-7.9,2.8c-0.7,0.4-1.5,0.6-2.2,0.6  c-0.1-0.5,0-1.1-0.6-1.8c-1-1.2-2.3-1.4-3.9-0.8c-0.6-0.5-1.3-0.9-2.1-0.8c-2,0.4-4,0.2-6.5,0c-2.6-0.2-2.6-1.9-4.3-1.1  c-0.6,0.3-0.9,0.9-0.9,1.5c-0.5-0.2-0.9-0.4-1.3-0.4c-0.8-0.1-0.9,0.6-0.6,1.5c-3.6-2.2-10.4-6.4-10.6-7.5c-0.3-1.5,0-12,0-14  c0-2,4-3.3,4-3.3s-0.8,2.4-0.6,3.3c0.2,0.9,2.9,2.6,2.9,2.6s0.3-4.5,0.8-5.9c0.5-1.5,3.5-6.3,4.3-9c0.6-2.1-1-4.6-1.7-5.7  c-0.1-0.2,0-0.4,0.2-0.4c1,0.3,2.9,0.9,3.9,1.6c1.4,0.9,2.7,1.7,4.3,4.5c1.6,2.8,2.2,4.2,2.7,6.4c0.6,2.2,0.9,7,0.9,7l2-0.4l2.8-4.6  c0,0,2.7,4.1,3.7,5.3c1,1.2,3.7,2.7,5.2,2.7s3.9-0.8,6-2.5c2.1-1.7,4.1-3.5,4.1-3.5l-0.1,7.5l0.9,0.6c0,0,1.2-2,1.7-2.6  c0.5-0.7,2.4-1.9,4-2.5c1.7-0.6,4-0.9,5.3-1c1.4-0.1,4.3,0.9,6.2,1.9c1.9,1,3.8,2.5,6.4,3.5c2.5,1,6.4,1.7,6.4,1.7s0,1.5-0.3,2.5  c-0.3,1-1.2,2.2-2.5,3.5c-1.3,1.4-4.1,4.3-4.1,4.3s2,1.1,3.2,1.5c1.3,0.4,4.6-0.6,4.6-0.6s-2,5.3-2.8,6.6c-0.7,1.3-2.2,3.3-4.1,5.5  s-2.8,3.5-2.8,3.5s7.9-4.8,9.6-5.9c1.7-1,7-2.8,8.6-3.6c1.6-0.8,5.9-3,6.9-4c1.1-1.1,3.1-3,3.1-3s1.3,7,1.5,9.6  C536.2,375.6,536.1,381.8,535.4,386.2z" style="fill:#1400B9;stroke:#000000;stroke-miterlimit:10;"/><path d="M488.5,408.6c0,0,2.7-3.4,5.3-4s4.5-0.5,5.5,0.5  c2.1,2,3.5,4.4,3.2,6.2c-0.3,1.8-1.9,6.5-2.7,7s0.3-0.4,0-3.9c-0.3-3.5-0.5-5.1-3.1-5.3c-3.1-0.2-3.7,0.9-4.6,1.9  C491.1,412.3,488.5,408.6,488.5,408.6z" style="fill:#4D00A2;stroke:#000000;stroke-miterlimit:10;"/><path d="M880.3,469.9c-0.1,3.8-0.8,17.5-1.4,20.7  c-0.6,3.2-3.1,14.8-5.8,20.4c-2.7,5.5-3.5,8-6.7,12.1c-3.2,4.1-6.4,7.4-9.9,10.2s-6.8,5.7-11.5,7.1c-1.3,0.4-2.5,0.8-3.5,1.1  c-2.6,0.8-4.8,1.2-8.7,0.7c-4.3-0.6-5.8-0.6-8.4-1.9c-0.7-0.4-1.5-0.8-2.5-1.4c-4.5-2.8-6.2-4.6-8.8-6.9c0,0-5.2-6-7-9.1  c-1.8-3.1-6.1-12.6-7.1-15.5c-0.9-3-4-10.2-4.7-12.8c-0.7-2.6-3.9-8.8-4.8-10.7c-0.9-1.9-4.1-7.4-5.4-9.7  c-1.3-2.2-9.2-11.2-10.6-12.6c-1.4-1.4-8.7-6.6-10.7-7.7s-8.1-3.5-11.7-4c-3.5-0.5-9.7,0.5-14,0.9c-4.4,0.5-12.5,4.5-14.9,6.6  c-2.5,2.1-8,6.6-9.9,9.4c-1.9,2.8-6.6,12.7-7.7,15c-1.1,2.2-1.9,7.7-2.9,11.1c-1.1,3.4-1.1,7.5-1.1,11.7s-0.6,7-0.2,10.1  c0.4,3.2,1.7,10,2.2,12.1c0.6,2.1,3.3,11.9,3.9,14.5c0.6,2.6,6.8,16.4,7.8,18.7c0.9,2.4,4.5,7.5,4.9,8.7c0.5,1.2,0.7-0.2,1.8-2.6  c1.1-2.3,0.8-3.2,0.6-5.8c-0.2-2.6-0.8-4.1,0.1-5.9c0.2-0.4,0.5-0.7,0.8-1c1.3-1.2,3.3-1.9,3.3-1.9s-0.9,2.8-0.7,4.8  c0.2,2,2.4,6.7,3.5,8.5c1.2,1.8,4.8,6.5,6,8.6c1.2,2.1,1.9,2,2.8,5.1c1,3.1,1.2,9.7,1.3,12.2c0.1,2.6-0.6,10.1-0.8,13.1  c-0.2,3-0.7,9.3-0.6,12.5c0.1,3.2,0.6,6,1.3,8.6c0.7,2.6,1.2,3.8,3.4,3.9c2.2,0.1,2.2-0.5,3.2-2c0.9-1.5,0.5-3.5,0.7-6  c0.2-2.5,0.7-5.2,2-6.5c1.3-1.3,4.4-3.4,5.9-4c1.5-0.6,1.3,0.2,1.3,0.2s-1.9,0.6-2.5,2.7c-0.6,2.1-1.6,8-1.2,10.1s1.7,5.7,2,8.8  c0.4,3.2,0.9,5.8,0.7,8c-0.2,2.2-2,8.5-3.3,11.1c-1.3,2.6-7.2,10.4-9.1,12.5c-0.4,0.4-0.9,1-1.5,1.7c-2.7,3.1-7.4,8.7-8.9,10.8  c-1.9,2.6-4.6,8.8-5.2,11.2c-0.6,2.4,0,5.9,1.4,6.7c1.4,0.8,3.1,0.9,5.5-0.7c2.5-1.6,4.6-4.2,7.3-4c1.9,0.2,6.1,1.5,8.3,2.3  c0.3,0.1,0.3,0.6-0.1,0.6c-1.4,0.1-3.4,0.4-4.7,0.7c-2.1,0.6-5.9,2.8-7.1,4.8c-1.2,2-2,4.8-4.8,7.3c-1.7,1.5-2.9,3-4,4.4  c-0.8,1-1.6,1.9-2.5,2.5c-2.1,1.6-10,4.5-12.7,5.4c0,0-6.9,1.7-9.9,2.7s-8.1,3.5-9.8,4.8c-1.6,1.3-3.5,2.5-3.5,4.5s0.7,3.5,2.5,3.8  c1.8,0.2,3.9-0.4,6.1-1.9c2.2-1.5,3.9-2.7,6.5-3.2c2-0.4,5.2-0.4,6.6-0.4c0.2,0,0.2,0.2,0.1,0.3c-1.4,0.8-5.6,3.2-8,4.6  c-2.9,1.8-8.1,6.8-10.9,8.4c0,0-5.9,2.9-8.7,3.5c-2.8,0.6-6.1,1.1-9.3,1c-2-0.1-3.7-0.4-5.7-0.7c-1.2-0.2-2.5-0.3-3.9-0.4  c-3.9-0.2-2.6-0.7-6.8-0.8c-4.2-0.1-5-1.9-7.1-0.5c-2.1,1.4-2.5,3.3-2.8,3.5c-0.4,0.2,3.3,2,4.7,3c0.2,0.1,0.4,0.3,0.6,0.4  c-1.5,0.5-3.1,1-4.6,1.5c-1.2-0.5-5.2-1.8-9-1.4c-2.1,0.2-5.9,1.7-9.2,2.2c-3.3,0.6-5.9,1-10.4,1.2c-4.5,0.2-8.1,0.4-11.9-0.1  c-3.8-0.5-6-0.7-11.1-3.2c-5.1-2.5-8.7-5.2-11.3-7c-2.6-1.8-5.1-4.1-7.2-5.8c-2.2-1.8-3.7-2-4.4-1.4c-0.7,0.5-2.4,2.2-2.8,2.5  c-0.4,0.4,1.9,2,2.9,3.7c1,1.7,1.8,2.6,2.2,4.1c0.7,2.4,0.9,4.9,0.9,5.9c0,0.1,0,0.2,0,0.2c-0.1-0.3-0.4-1.5-1.7-2.7  c-1-1,0.8,0.6-2.7-2.1c-3.5-2.8-4.6-3.6-5.9-4.6c0,0-3.6-2.2-5.3-2.8c-1.7-0.6-4-1.3-5.5-1.9c-1.4-0.6-4.9-1.8-6.2-2.7  c-1.3-0.9-6.5-4.8-8.6-7.5c-2.1-2.8-3.2-4-5.1-7.7c-1.9-3.8-3.1-5.8-4.2-8.1c-1.1-2.3-3.1-7.2-4.2-9c-1.1-1.9-2.3-4.5-4-6.4  c-1.7-1.9-3-3.1-4-3.5c-1-0.4-2-0.4-2.1,0.3c-0.1,0.7,1.3,3.5,2.1,5.1c0.8,1.5,3.1,6.9,3.1,8.5c0,1.6-1.8,5.9-3,8.5  c0,0-1.7,2.3-2.6,2.9c-0.9,0.5,1.2-1,1.2-4.9c0-3.9-1.6-8.6-3.6-11.9c-1.9-3.4-6.4-9.7-7.9-11.2c-1.5-1.5-5.5-8-6.9-11.1  c-1.4-3-2.9-12.7-3.3-15.8c-0.3-3.2-0.9-10-0.6-14.6c0.2-4.7,0.4-14.9,1-19.2c0,0,1.5-12,2.3-15.5c0.8-3.5,5.2-13.2,6.7-16.4  c1.5-3.1,4.3-11.9,6.5-14.8c2.2-2.9,9.5-15.6,12.1-18.9c2.6-3.2,8.9-11.1,11.7-14.2c2.8-3.2,9.5-11,14.4-14.9  c4.9-3.9,13.7-10.8,16.6-13.7c2.9-2.8,11.9-9.8,16.9-13.7c0,0,9.5-7.9,13.7-10.7c4.1-2.8,19.2-16.6,22.9-21  c3.7-4.5,9.1-10.6,12.8-15.8c3.7-5.2,6.6-9.8,9.1-15.5c2.5-5.8,4.7-11.5,5.5-17.9c0.9-6.4,0.7-12.2,0.7-18.9  c0-6.7-0.1-10.3-1.3-16.5c-1.2-6.2-3.4-12.5-4.7-15.6c-1.3-3.1-6.5-13-7.9-15.5c-1.4-2.5-6.2-9.2-11-13.7c-4.8-4.4-8.1-7.7-11.7-10  c-2.7-1.7-6.7-4.8-9-6.5c0.3-0.3,0.6-0.6,0.8-0.9c1.4-1.5,2.8-3,4.1-4.3c5.8,1.3,17.4,4,23.7,6.4c8.5,3.3,13.3,4.4,19,12  c5.7,7.6,3.1,6.4,7.3,12.9l6,5.1l-7.8-0.9c0,0-1.9-0.3-3.3-1.9c-1.4-1.5-0.6-1.4-2.9-4.7c-2.3-3.3-1.6-4.3-3.8-5  c-2.2-0.7-2.2-0.8-4.2,0.1c-2,0.9-2,3.2-2.1,4.3c-0.1,1.2,2.6,4.3,4.1,6.1c1.5,1.8,2.8,2.2,4.8,4.2c2.3,2.3,4.3,3.5,7.3,7.2  c2.6,3.2,3.6,3.2,6,9.7c2.3,6.5,1.5,6.2,2,8.6c0.5,2.4,1.2,2.2,0.9,6.2c-0.2,4-0.1,3.7,0,6.9c0.2,3.1-0.3,4.9,0,7.7  c0.3,2.8,0.7,2,1.7,5.4s3.1,5.5,3.5,5.8c0.4,0.3-2,0.6-3,0c-1-0.6-1.7-0.2-3.3-2.5c-1.5-2.2-2.9-4.2-3.3-5.4  c-0.6-1.7,0.4-3.4-0.6-4.5c-0.9-1.2-1.9-2.1-2.4-0.5c-0.6,1.6-0.2,3.2,0.5,6c0.7,2.8,0.8,7.5,1.9,12.8c1.1,5.4,1.7,8.9,2.1,12.6  c0.4,4.4,0.3,5.9-0.4,9.1c-0.7,3.1-1.8,6.6-2.8,8.9c-1.4,3.1-2.3,3.6-3.7,5.7c-1.4,2.1-2.2,2.7-3.8,5.2c-1.6,2.6-3.6,5.5-4.8,8.2  c-1.2,2.7-1.8,4.2-1.9,5.2c-0.2,2,0.8,7.6,0.8,7.6s-0.8-0.1-2.3-2.7c-1.5-2.6-1.9-2-2.1-5.6c-0.2-3.6-0.6-4.7-0.2-6.8  c0.4-2.1,0.4-3.1-1.2-3.6c-1.6-0.5-2.2-0.1-3.4,1.5c-1.3,1.6-1.2,1.7-2.6,5c0,0-0.8,3.1-1.3,4.8c-0.5,1.6-1.4,4.3-2,5.7  c-0.6,1.4-2.7,5.1-3.6,6.4c-0.9,1.3-2.1,3.3-3.6,4.7c-1.5,1.4-4.3,4.7-5.8,5.5c-1.5,0.8-4.4,3.3-6.2,4.5c-1.8,1.3-4.4,3.7-6.3,5.8  c-1.9,2.1-3.1,3.3-3.7,5.4c-0.6,2.1-1.5,4-1.4,5.5c0.1,1.5,1.1,4.1,1.1,4.1s-1.2,0.3-2.3-0.7c-1.2-1-2.2-2.5-2.2-4.7  c0-2.2,1.2-6.5,0.6-7.7c-0.6-1.2-1.3-2.9-2.9-2.7c-1.6,0.2-2.6-0.2-4.1,1.3c-1.5,1.5-1.9,1.4-3.2,3.7c-1.3,2.3-1.5,2.7-2.5,5.8  c-0.9,3.1-0.7,4.8-1.6,8c-0.9,3.3-1.5,7-2.2,9.4c-0.7,2.4-0.8,4.3-2.9,7.1c-2.1,2.8-4.8,4.4-6.6,6.1c-1.9,1.6-4.2,2.8-6.2,4.4  c-2,1.6-3.6,1.5-6.5,3.9c-0.2,0.1-0.3,0.3-0.5,0.5c-2.6,2.8-3.6,10.3-3.6,10.3s-0.7-0.5-1.3-1.8c-0.5-0.9-1-2.1-1.2-3.8  c-0.1-0.9-0.2-1.7-0.3-2.3c-0.2-2.1,0-2.8,0.9-5.3c1.2-3.2,3.5-3,5.4-5.8c1.9-2.8,1.3-3,0.5-4.3c-1.3-2-3.4-2.1-5.2-0.7  c0,0-2.2,0.5-5.1,4c0,0-4.2,3.2-5.9,6.6c-1.7,3.4-3.9,9.7-4,14.6c-0.1,4.9,0,9.4-1.8,13.9c-1.8,4.5-5.8,12.8-9.3,15.9  c-3.5,3.1-4.2,4.9-5.8,7.1c-1.5,2.1-2.2,2.8-2.5,5.8c-0.2,3,1.1,10,1.1,10s-3.9-3.8-4.6-6c-0.7-2.2-0.9-5.2,0-8.2s3.4-5.4,3.3-7.3  c-0.1-1.9-1.4-1.5-2.9-0.7c-1.5,0.8-3.7,2.1-4.5,4.8c-0.8,2.7-1.8,8-2.2,11.8s-0.9,9.2-0.8,12.6c0.1,3.4,0.7,11.1,1.5,14.4  c0.8,3.3,2.7,9.3,3.8,12.5c1.8,5.1,5.5,12.4,6.4,14.5c0.8,2.1,3.1,4.7,5.6,8.5c0,0,3.4,6.1,5.7,8.7s7.4,8.7,9.4,10.8s8.6,8,10.5,9.4  c1.9,1.4,13.3,9.2,14.8,10.2c1.5,1.1,13.7,6.6,16.4,7.8c2.7,1.2,12.7,4.2,16.7,5.3c4,1.1,12.7,2.1,17.1,2.6c4.4,0.5,11.4,0,14.7,0  c3.3,0,13.9-1.4,16-2.1c2.1-0.7,11.5-2.8,13.8-3.5c2.2-0.7,12.4-5.1,14.2-5.9c1.9-0.8,11.1-6.4,12.8-7.9c1.8-1.5,6.6-4.7,8.7-6.5  c2.1-1.8,6.5-5.8,9.3-9c2.8-3.2,6.2-6.7,8.5-10.2c2.2-3.5,5.4-7.8,7.8-13.5c2.3-5.8,3.9-8.6,5.2-13c1.3-4.4,2.7-10.4,3.4-14.6  c0.7-4.2,1.8-7.5,2-11.2c0.2-3.7,0.5-10,0-13.2c-0.5-3.2-1.2-9.3-1.5-12c-0.3-2.7-2.2-8.6-3.1-11.3c-0.8-2.7-5.5-13.6-6.8-16.2  c-1.3-2.7-7.3-15.8-8.2-17.4c-0.9-1.6-8-12.7-10.1-16.7c-2.1-4-8-12.1-10-15.3c-2-3.2-4.8-8.7-6.1-10.8c-1.3-2.1-2.4-5.8-4.5-11.9  c-1.5-4.5-1.9-6.7-2-11.9c-0.1-6-0.1-5.8,0.8-10.5c0.5-2.4,1.9-5,2.6-9.1c0.6-3.6-1.1-6.4-2.7-9.1c-1.5-2.5-2.5-4-2.7-4.2  c0.2,0.1,1,0.6,3.7,2c3.2,1.5,3.2,1.5,5.4,3.5c2.4,2.1,1.6,4.8,1.8,6.6c0.1,1.8-0.3,3.1,0.8,4s1.8,0.9,2.8-0.5  c1.5-2,1.2-3.8,1.7-6.2c0,0,1.2-5.1,1.4-8c0.2-2.9,2-12.8,2.8-15c0.8-2.1,3.8-8.5,5.4-10.4c1.7-1.9,5.4-6.7,7.8-8.7  c2.4-2,7.4-4.4,9.3-4.8c1.9-0.5,7.9-0.5,9.1-0.9c1.2-0.5,4.8-2,6.6-3.1c0.5-0.3,1.2-1.1,1.8-2c1.5-2.2,3.1-5.2,3.1-5.2  s0.1,1.4,0.6,3.4c0.1,0.6,0.2,1.2,0.2,1.9c0,1.5-0.5,3.1-1.7,4.4c-1.8,1.9-3.5,4.2-6.2,5.5c0,0-4.5,0.7-6.5,1.7  c-2,0.9-2.5,1.6-2.7,3.1c-0.2,1.4-0.4,1.3,1.6,1.1c2-0.2,5.9-2.2,8.6-3.2c2.7-0.9,8.4-3.2,12.8-4.5c4.5-1.3,6.1-2.2,9.5-2.6  c2.8-0.3,5.3-0.5,7.9-0.1c0.2,0,0.4,0.1,0.7,0.1c2.8,0.6,4.6,0.7,8.2,2.4c0,0,3.2,1.1,4.3,2.2c1.2,1.2,3.8,4.2,5.1,5.5  c1.3,1.3,4.7,6,6.1,7.3c1.4,1.3,4.5,2.6,6.5,2.4c2-0.2,3.1,0.1,3.1,0.1s-3.1,1.8-4.2,2.2c-1.2,0.5-4.4,0.5-4.8,0.7  c-0.5,0.2-0.4,1.4,0.3,2.7c0.7,1.3,2.7,5.1,4.7,6.2c2,1.2,6.2,2.9,8.7,5.1c2.3,2,4.1,4.6,5.1,7.3c0.8,2.1,1.4,5.3,2.4,7.8  c1.1,2.7,3.4,8.1,4.5,10c1.1,1.9,3,2.9,5.3,4c2.4,1.1,6.2,1.9,6.2,1.9s-1.6,2-4.7,2s-6-0.5-8-1.8c-2-1.3-3.7-3.2-4.8-3.3  c-1.2-0.1-2.4,0.2-3.3,1.5c-0.9,1.3-1.7,2.9-1.3,4.8c0,0,0.8,2.6,1.8,5.3c0.9,2.7,4.5,3.8,6.6,5c2.1,1.2,5.8,2.6,7.3,2.8  c1.5,0.2,4.7,0.1,6.5-0.6c1.8-0.7,5.3-2.8,6.9-3.3c1.7-0.5,4.8-2.4,6.2-2.5c1.4-0.1,4.7-0.2,6.2,0.6c1.1,0.6,4.2,1.7,5.8,2.2  c0.2,0,0.1,0.3-0.1,0.3c-1.7,0-5.1,0.1-6.4,0.5c-1.8,0.5-4.9,1.3-5.8,2.8c-0.8,1.5-1.5,4.7-1.2,6.2c0.3,1.5,1.7,2.5,2.8,3.2  c1.4,0.8,1.5,1.3,4.5,0.5c2.3-0.7,3.1-0.8,4.7-1.7c1.6-0.8,1.9-1.4,3.3-4c1.3-2.6,1.2-3.9,1.3-6.2c0.1-2.3-0.5-6.8-0.8-11.2  c-0.4-4.4-1.6-7.2-1.6-10.6c0,0-0.4-2,0.6-5.5c0.9-3.5,2.2-5.3,3.3-7.4s2.4-4.2,2.6-7.4c0.2-3.2-1.3-7.9-1.9-8.7  c-0.6-0.8,1.2,0.6,2.9,2.2c1.8,1.7,3.7,4.2,4.1,6.2s0.6,5,0,6.8c-0.6,1.9-1.4,3.4-0.2,5c1.2,1.5,1.9,1.8,3.3,0.8  c1.4-0.9,2.6-3.4,2.8-5.9c0.2-2.5-0.6-10-2.7-14.5c-2.1-4.5-4.8-8-6.5-11.1c-1.7-3.1-3.7-7.8-4.8-11.4c-1.2-3.7-0.2-7.9,0.2-12.1  c0.5-4.2,1.4-6.5-0.2-9.8c-1-1.9-2-3.5-2.7-4.4c-0.3-0.3,0.1-0.8,0.5-0.7c0.8,0.3,1.8,0.7,2.7,1.2c0,0,2.3,1.9,3.2,2.7  c0.8,0.8,2.3,3.1,2.7,4.6c0.5,1.9,0,5.7,0.2,7.3c0.2,1.6,0.5,4.4,1.9,4.6c1.4,0.2,3.1-0.7,3.1-2.2c0-1.5-1.4-12-2.2-16.1  c0,0-0.3-3.4-1.5-7.2c-1.2-3.8-2.9-7.5-4.2-10.2c-1.2-2.6-3.5-7-3.6-7.3c0.1,0.1,0.9,0.8,1.9,1.7c1.7,1.5,4,3.8,4.8,4.9  c1.3,1.9,8.8,17.2,9.5,19.1c0.7,1.9,1.2,3.1,2.6,7.1c1.4,4,3.9,15.5,3.9,20.1C880.3,452.6,880.4,466.2,880.3,469.9z" style="fill:#5400E7;stroke:#000000;stroke-miterlimit:10;"/></svg>