<svg id="Layer_1" style="enable-background:new 0 0 1280 1024;" version="1.1" viewBox="0 0 1280 1024" x="0px" xml:space="preserve" xmlns="http://www.w3.org/2000/svg" xmlns:xlink="http://www.w3.org/1999/xlink" y="0px"><path d="M712.8,732.8v3.3l-6.4,3.9c0,0,0-2.3,0.9-3.3  c0.9-1,2.3-2.8,3.1-3.3C711.4,733,712.8,732.8,712.8,732.8z" style="fill:#FFA017;stroke:#000000;stroke-miterlimit:10;"/><path d="M711.6,755.5c-0.6,0.9-1.2,2.6-1.2,2.6l-1.2-0.4l2.2-6.3  c0.1-0.3,0.5-0.3,0.7-0.1c0.3,0.5,0.7,1.2,0.9,1.7C713.1,753.7,712.2,754.6,711.6,755.5z" style="fill:#FFA017;stroke:#000000;stroke-miterlimit:10;"/><path d="M726.9,773.2h-1l-2.8-5.5c0,0,2.3-0.7,2.8-0.3s1,1.5,0.7,3.1  C726.3,772,726.9,773.2,726.9,773.2z" style="fill:#FFA017;stroke:#000000;stroke-miterlimit:10;"/><path d="M774.7,760.4l-2.6-6l1.7-2.2c0,0,1.6,2.9,1.9,4.1  C775.8,757.5,774.7,760.4,774.7,760.4z" style="fill:#FFA017;stroke:#000000;stroke-miterlimit:10;"/><path d="M789.7,584.3c0,0-0.7,2.3-1.3,2.4  c-0.6,0.1-1.2,0.6-2.3,0c-1.1-0.6-1.1-0.6-2.1-0.9c-1-0.3-3.4-0.6-3.4-0.6s2.9-1.7,4-1.7s2.4-0.2,3.6,0  C789.5,583.7,789.7,584.3,789.7,584.3z" style="fill:#FFA017;stroke:#000000;stroke-width:0.7982;stroke-miterlimit:10;"/><path d="M776.8,600.2c-0.3,0.6-1,1-1.5,0.8  c-0.4-0.2-1.2-0.3-1.8-0.3c-0.6,0.1-2.3,0.7-2.3,0.7s1.5-2.3,2.3-2.9c0.9-0.6,3.3-0.5,3.3-0.5S777.1,599.6,776.8,600.2z" style="fill:#FFA017;stroke:#000000;stroke-width:0.7982;stroke-miterlimit:10;"/><polygon points="776,620.2 773.6,624.8   772.8,624.8 774.1,617.7 775.1,618.1 " style="fill:#FFA017;stroke:#000000;stroke-width:0.7982;stroke-miterlimit:10;"/><path d="M823.7,640.2c0,0-0.3,3-1.2,4.1  c-0.9,1-3.6,2.6-3.6,2.6l1.5-5.9L823.7,640.2z" style="fill:#FFA017;stroke:#000000;stroke-width:0.7982;stroke-miterlimit:10;"/><path d="M791.5,336.8c3.8-0.5,8.9-1.7,12.2-0.7c3.3,1,19.1,5.4,23.4,7.5  c4.4,2.1,17.3,8.7,21,11.5c3.7,2.8,9.4,6.6,9.4,6.6s-1.9-34.1-3.3-43c-1.4-8.9-7-17.8-10.5-21.9s-14-9.5-17.8-11  c-3.8-1.6-10.8-4.5-13.3-7c-2.4-2.5-5.1-5.4-5.8-7.2s-3-6.7-3-6.7s-1.2,7-0.2,9.6c1.1,2.6,2.4,7.9,6.5,10.7c4,2.8,9.3,7,12.2,10.5  s6.3,6.1,7.9,9.4c1.6,3.3,2.6,6.3,1.8,8.7c-0.9,2.4-1.8,4.9-4,4.9c-2.3,0-6.5-2.5-9.8-5.4c-3.3-3-10.3-9.1-12.4-11.2  c-2.1-2.1-4.2-5.4-5.6-10.3c-1.4-4.9-2.3-10.3-5.6-14.2c-3.3-3.9-8.2-6.2-10.8-7c-3.7-1-10.2-1.3-14-1.3c-3.9,0-6.1-0.3-8.7-0.7  c-2.6-0.3-11.3-4.4-11.8-4.6c0.2,0.3,3.1,4.6,7.9,6.8c4.9,2.3,7,2.3,11.2,3.2c4.2,0.9,8.6,3.3,11.7,6c3.1,2.6,3.1,5.6,4.4,9.3  c1.2,3.7,1.6,7.5,2.6,11.4c1.2,4.3,1.2,5.4,2.8,7.7c2.7,3.7,5.7,6,7,7.9c2,2.9,2.6,6.5,1.1,8.2c-1.6,1.8-1.6,2.8-5.1,0.7  c-3.5-2.1-5.8-1.9-8.2-4.9c-2.4-3-2.1-2.3-5.6-7.5c-3.5-5.2-6.7-10.1-11-14.7c-4.4-4.5-8.9-7.5-14.4-7.9c-5.4-0.3-8.4-1-13.8,0.7  s-8.4,3-14.2,4.7c-5.8,1.8-13.1,4.2-17.3,4.5c-4.2,0.3-8,0.3-9.8-0.9c-1.7-1.2-4.5-3-4.7-3.1c0.1,0.2,1.8,3.9,4,5.9  c2.3,2.1,8.4,5.6,13.8,6c5.4,0.3,5.9-0.2,12.1-1.6c6.1-1.4,9.3-2.5,13.3-2.5c4,0,5.4-0.1,9.3,2.2c3.8,2.3,6.7,5.4,9.1,8.9  c2.4,3.5,3.4,5.2,5.1,9.4c2.2,5.3,1.2,9.8,0.7,10.8c-0.5,1.1-2.4,1.4-5.4,1.9c-4.5,0.8-7.4,0.9-11.2-2.3c-3.8-3.2-6.5-5.4-10.5-6.3  c-5.8-1.3-8.4-0.3-12.1,0.7c-5,1.4-8.9,4.5-13.8,8.6c-4.8,3.9-6.9,6.5-10.7,8.9c-2.8,1.8-4.7,4.2-9.1,6.1c-4.4,1.9-7.9,2.8-11.8,3.1  c-3.8,0.3-16.2-3.9-16.6-4c0.2,0.2,4,4.1,7.3,5.9c3.9,2.1,11.9,3.6,16.1,3.9c4.6,0.3,6.7,0.7,11.2-1.6c4.5-2.3,10.1-5.8,13.5-7.3  c3.3-1.6,8.4-4.2,12.8-4.4c4.4-0.2,7.8,0.2,10.5,1.4c3.3,1.5,9.1,4.9,11.5,6.8c2.4,1.9,4.6,3.7,9.6,4.4c5.1,0.7,8.1,0.5,14.4-0.7  c4.3-0.8,6.5-2.1,11.5-2.3c5.1-0.2,8.8,1,9.3,3.1c0.5,2.1,0.7,5.6-1.4,6.8c-2.1,1.2-9.4,4.2-12.9,4.5c-3.5,0.4-19.8,0.9-21.7,1.4  c-1.9,0.5-11.7,3.8-15.1,6.8c-3.3,3-4.9,7.2-5.6,10c-0.7,2.8,0,12.6,0,12.6s0.5-6,2.6-8.6c2.1-2.7,4.1-4.8,7.3-6.3  c5-2.3,8.7-1.9,15.6-1.7c6.8,0.2,9.8,0.7,15.9,0.3c6.1-0.3,7.5-1,11.7-2.5c4.2-1.4,5.7-3.3,8.9-5.4c4-2.6,5.6-3.7,9.6-4.7  c4.4-1.1,7.5-0.8,9.3,0.7c3,2.5,3.7,4.4,2.5,7.4c-1.2,3-2.5,4.2-6,5.8c-3.5,1.6-7.7,1.8-11.5,1.8c-3.8,0-7,0-9.6,1.2  c-2.6,1.2-5.1,3.5-6.1,6c-1,2.5-2.1,3.5-3.8,6.1c-1.8,2.6-7.9,5.4-7.9,5.4s1.6,0.7,4.9,0.9c3.3,0.2,5.6-1,7.5-1.6  c1.9-0.5,4.2-4.7,7-6.3c3.2-1.9,5.6-2.3,8.4-2.8c2.8-0.5,6.1,1.2,10,1.6c4.1,0.4,7.9,1.3,9.8,0.6c1.9-0.7,4.5-2.7,8.4-5.5  s17.3-16.3,17.3-16.3s-10.3-9.3-14.5-12.4c-4.2-3.2-14-9.3-19.6-11.7c-5.6-2.4-16.1-5.2-18.9-7.3c-2.8-2.1-5.1-5.1-3.7-7.5  C787.7,338.3,787.7,337.3,791.5,336.8z M828.8,295.2c-2.9-2.5-10.2-8.2-10.2-8.2s5.4,1,8.1,2c2.7,1,7.4,3.9,9.9,5.6  c2.5,1.7,6.2,6.7,7.7,8.7c1.5,2,3.6,8.9,4.6,11.9c1,2.9,3.1,13.8,3.2,17.9s-1,6-1,6s-2.2-15.2-2.8-17.2s-2.4-9.1-3.3-11.2  s-4.2-7.3-6.3-9.8c-2-2.4-5.4-4.9-5.6-5c0.1,0.3,2.4,4.5,3.5,6.7c1.1,2.2,2.7,6.5,2.7,10.1c0,3.6-0.6,6.8-1.4,8.5s-3.3,2.7-3.3,2.7  s2.5-6.2,2.5-8.1c0-2-1.3-7.4-2.4-10.8C833.6,301.5,831.8,297.7,828.8,295.2z M795.7,309.9c-1.2-1.5-3.9-6.6-5.1-10  c-0.8-2.6-2.2-10.3-2.9-13.8c-0.7-3.5-3.5-7.1-5.9-9.2c-2.4-2.1-8.4-4-8.4-4s4.3-0.7,7.7,0c3.3,0.7,3.5,1.1,5.2,2.1  c1.7,1,3.3,2.7,4.8,4.8c2.1,2.9,2.6,4.6,4.1,8.6c1.5,4,2.4,7,3.5,10c1.1,3,5.7,9.6,7.6,12.1c1.7,2.4,5.4,5.8,5.8,6.2  c-0.5-0.3-5.2-3.4-6.9-5.1c-1.8-1.8-5.7-6.6-6.8-8.5c-1.1-2-3.8-8.8-4.8-11.7c-1-2.9-3.4-7.1-3.4-7.1l1.1,6.4c0.2,1.6,0.7,4,1.7,7.2  c1,3.2,1.1,5.2,2.9,8.1c1.4,2.3,3.3,4.4,4.7,6c1.7,2.1,3.3,3.1,4.4,5.2c1.1,2.1,0.7,6.9,0.7,6.9s-2.4-5.5-3.3-6.9  C801.7,315.8,797,311.4,795.7,309.9z M759.8,354.9c-1,0.5-2.7,0.6-4.4,0.5c-1.7-0.2-5.3-0.6-6.7-1.5c-1.5-1-3.1-1.6-4.9-2.8  c-1.8-1.2-5.1-2.8-7.4-4c-2.3-1.2-4.1-2.5-6.7-3.1c-2.6-0.6-5.2-0.5-8.5,0.3c-3.3,0.8-6.1,2-8.3,3c-2.2,1-5.5,2.9-7.5,3.7  c-2,0.8-4.6,2.7-6.8,3.5c-2.1,0.8-6.2,2.2-6.5,2.3c0.4-0.3,13.7-11.4,15.6-12.9c1.9-1.5,8.3-6.7,9.6-7.1c1.3-0.5,4.8-1.9,6.3-2.3  c1.5-0.3,4.4-0.6,5.8-0.3c1.5,0.3,4.9,1.5,5.6,1.9c0.7,0.4,7.3,3.6,8.8,4.5c1.5,0.9,6,3,7.4,3.3s9.7-0.9,9.7-0.9s-1.8,1.5-3.6,1.9  c-1.8,0.4-5.3,0.8-6.6,0.4c-1.4-0.4-3.6-0.4-5.8-1.6c-2.3-1.2-6.1-2.8-7.5-3.7s-5.3-2.5-7.1-2.9c-1.8-0.4-4.7-0.5-6.6,0  c-1.9,0.5-4.9,1.5-6.7,2.7c-1.7,1.2-6,4.6-6.3,4.8c0.4-0.1,6.5-2.6,8.7-3c2.3-0.4,4.8-0.9,6.9-0.7c2.1,0.2,4.8,0.7,7.3,1.8  c2.5,1.1,6.1,3.4,7.7,4.3c1.6,0.9,5.6,3.2,6.9,4.2c1.3,1,4.9,1.7,6.6,2.1c1.7,0.4,8.3-0.4,8.3-0.4S760.8,354.4,759.8,354.9z   M774.7,319.2c-1.1-1.5-1.6-2.9-3.6-6.3c-1.9-3.4-4.1-7.2-5.2-8.8c-1.1-1.5-4.5-3.6-6.1-4.6c-1.6-1-5.6-2.3-7.7-2.7  c-2.1-0.4-5.2-0.5-6.3-0.5c-1.1,0-3.9,1.1-3.9,1.1s4.7,1.1,5.9,1.9c1.2,0.8,5.3,2.7,6.2,3.6c0.9,1,4.6,4,5.3,4.9s3.3,4.3,3.8,5.5  c0.5,1.2,3,6.8,3.2,7.6c0.2,0.8-1.5-1.4-2.5-3c-1.1-1.6-2.8-4.6-3.8-6c-1-1.4-3-3.8-4.4-5c-1.4-1.2-5.7-4.3-6.8-4.8  c-1.1-0.5-5.5-2.3-7-2.3c-1.5,0-5.8-0.5-7-0.3c-1,0.1-5.3,0.4-7.1,0.5c-0.2,0-0.2-0.2-0.1-0.3c2.1-0.9,8.4-3.7,9.9-4.1  c1.8-0.5,6.9-1.6,10.5-1.5c3.6,0.1,6.3,0.4,8.9,1.1c2.6,0.7,5.9,2.5,7.2,4c1.3,1.5,5.8,6.7,6.7,9.2c1,2.5,6.2,13.2,6.2,13.2  S775.8,320.7,774.7,319.2z M819.4,387.4c0,0-0.3,2.4-1.2,3c-0.9,0.6-2.9,2.1-4.5,2.5c-1.5,0.4-3.7,1-4.7,1.3c-1.2,0.4-6,1.4-6,1.4  s4,0.8,5,0.8s4.1-0.1,5.6-0.4c1.5-0.3,4.5-1.2,5.8-1.9c1.2-0.7,2.1-1.2,3.5-1.9c1.1-0.5,3.8-2.4,4-2.6c-0.1,0.1-0.6,1.1-1.1,1.6  c-0.5,0.5-2.5,2.7-3.8,3.6c-1.3,1-3.5,2-5.5,2.6c-2,0.6-3.1,1.2-5.3,1.3c-2.3,0.1-4.4,0.2-6.3-0.2c-1.9-0.4-2.6-0.8-4.1-1.1  c-2.3-0.4-3.8-0.5-5.7-0.2c-2.8,0.4-2.8,0.1-4.7,0.7c-1.9,0.6-3.6,2.1-4.1,2.5c-0.7,0.5-3.3,3.1-3.6,3.3c0.2-0.3,2.8-5.1,4-6.5  c1.2-1.4,3.4-3,5.2-3.5c1.8-0.5,4.8-1.2,6.2-1.2c1.7-0.1,4.5,0.1,6.4,0c1.9-0.1,4.5-0.7,5.8-0.9c1.8-0.2,3-0.7,5-1.5  C817.1,389.4,819.4,387.4,819.4,387.4z M791.8,368.8c-0.1,0.2-2,4.1-3.2,4.9c-1.3,0.9-4.7,2.6-5.6,3c-0.9,0.4-5.8,1.7-7.9,1.9  c-2,0.2-7.5,0.5-8.2,0.6c-0.6,0.1-4.4,0.6-4.4,0.6s4.9,0.6,6.1,0.7s5,0.1,6.4-0.1c1.4-0.2,6.9-1.4,8-1.8c1-0.4,4.7-2.5,6.2-3.2  c1.5-0.7,4.3-1.9,6.1-2.8c1.8-0.8,3.7-1.4,4.8-1.5c1.1-0.2,7.2-1.3,7.2-1.3s-6.2,2-7.5,2.7c-1.2,0.7-2.8,1-5.1,2.6  c-2.3,1.6-7.9,5-9.9,5.6c-1.9,0.7-6.1,2.4-8.3,2.7c-2.3,0.3-6,0-8.1,0.1c-2.1,0.1-6.2-0.2-8.2-0.3c-2-0.1-4.8-0.6-7.5-0.3  c-2.8,0.2-3.7,0.2-6.2,0.8c-2.5,0.6-5.9,1.1-5.9,1.1s4.1-3.3,5.8-4.1c1.8-0.8,4.2-1.8,5.8-2c1.6-0.2,5.7-0.7,7.5-0.8  c1.8-0.1,6.3-0.3,8.8-0.6c2.4-0.2,7-0.4,8.7-0.9c1.7-0.5,6.6-1.9,7.5-2.4C785.4,373.4,791.5,369.1,791.8,368.8z" style="fill:#FF3200;stroke:#000000;stroke-miterlimit:10;"/><path d="M854.2,557.4c0.3,1.3,0.8,3.5,1.2,5.5c-0.8,0.3-1.8,0.5-2.7,0.8  c-0.6-2.5-1.5-5.7-2.5-8.5c1-0.1,2-0.2,3-0.4C853.7,555.7,854,556.6,854.2,557.4z" style="fill:#D06900;stroke:#000000;stroke-miterlimit:10;"/><path d="M870.2,545.8l4.8,7.9c-2.7,1.8-8.2,4.4-11.7,6  c-0.8-0.5-1.4-1-1.6-1.2c-0.5-0.5-2.5-3-4.1-5.2c0.3-0.1,0.5-0.1,0.8-0.2l0,0c0.8-0.2,1.4-0.5,1.9-0.8  C862.4,551,866.7,548.4,870.2,545.8z" style="fill:#D06900;stroke:#000000;stroke-miterlimit:10;"/><path d="M903.2,508.7c-0.1,0.3-0.1,0.6-0.2,0.8  c-0.8,2.9-3.3,10.9-4.8,14.9c-1.5,4-8.4,16.4-10.3,18.1c-1.2,1-4.5,4.2-7.7,7l-6.1-6.8c3.8-3.6,12.1-12.5,13.5-15.7  c1.5-3.4,8.1-14.6,8.9-17.4c0.1-0.5,0.3-1.1,0.5-1.9L903.2,508.7z" style="fill:#D06900;stroke:#000000;stroke-miterlimit:10;"/><path d="M906.3,484.1c0,2.1-1.3,12.7-2.3,19.6l-5.5-1.4  c0.8-3,1.7-6,2-7.6c0.6-3.1,4-25.9,4.3-27.8c0.2-1.6,0.1-5.3,0-6.3c0,0.7,0.2,2.8,0.4,5.5v0C905.7,472.6,906.3,482.2,906.3,484.1z" style="fill:#D06900;stroke:#000000;stroke-miterlimit:10;"/><path d="M766.2,435.2c-2.6-0.4-5.1-0.2-7.9,0.1  c-3.4,0.4-5.1,1.3-9.5,2.6c-4.5,1.3-10.1,3.5-12.8,4.5c-2.7,0.9-6.6,2.9-8.6,3.2c-2,0.2-1.9,0.4-1.6-1.1c0.2-1.4,0.7-2.1,2.7-3.1  c2-1,6.5-1.7,6.5-1.7c2.7-1.3,4.5-3.6,6.2-5.5c1.2-1.3,2.1-4.1,2.1-5.6c1.7,0.1,3.5,0.6,5,0.8c5.5,0.9,9.2,1.9,13.6,3.3  C762.9,433.1,764.5,434.1,766.2,435.2z" style="fill:#A24D00;stroke:#000000;stroke-miterlimit:10;"/><path d="M418.5,411.3l6.3-5c0,0-3.1-6-7.4-7.4c-4.3-1.5-9.9-2.6-13.7-2  s-8.8,2.2-10.7,4.2s-7.6,8.7-8.8,11.8c-1.2,3.1-2.6,9.9-2.5,13.9s2.3,13.7,3.1,17c0.8,3.3,6.4,16.9,7.6,20.3  c1.2,3.4,2.8,12.5,3,14.9s0.8,9.1,0.2,12.9c-0.7,3.8-2.6,10.7-5.1,13.9s-3.3,4.1-5.1,5.6s-7.8,5.4-7.8,5.4s6.1-0.6,9.1-2.8  c2.4-1.8,5.6-5.5,7.1-8.3c1.5-2.8,2.8-6.8,4.3-12.1c1.5-5.3,0.8-12.6,0.8-15.5c0-3-1.7-8.4-2.3-12.9c-0.7-4.5-3.8-12-4.8-16.5  c-0.7-3-3-7.6-3.5-14.4c-0.4-5.6,0.5-9.8,1.6-13c1-2.8,3.2-10.3,6.2-13c2.5-2.2,3.4-1.9,6.6-3c3.8-1.3,6.5-0.7,8.9,0.8  C415.5,408.6,418.5,411.3,418.5,411.3z" style="fill:#FF7A2E;stroke:#000000;stroke-miterlimit:10;"/><path d="M499.2,374c-2.1,2.7-4.4,3.6-7.6,3.2c-3.2-0.3-7.8-1.1-10.5-0.9  c-2.7,0.2-4.6,0.7-7.6,2.4c-3,1.7-5.3,6.8-6.8,8.4c-1.4,1.4-4.1,3.2-6.5,3.4c-0.3,0-0.5,0-0.8,0c-2.6-0.3-1.7-1.5-2.3-3.5  c-0.6-2-0.2-4.1-1.5-4.1s-0.9,1.7-2.6,3.3c-0.2,0.2-0.5,0.5-0.8,0.7c-1.8,1.3-4.3,2.1-5.5,1.6c-1.5-0.6-3-3-3-5.3  c0-2.3-2.1-6.4-2.9-7.5c-0.8-1.1-5.2-2.5-7.2-2.4c-2,0.1-3.5,1.8-6.4,2.3c-2.9,0.5-4.7-1.2-6.7-3.2c-2-2-2-7.3-1.4-9.7  c0.6-2.4,5.8-5.2,5.8-5.2s0,0,0,2.7s0.5,2.7,2.8,3.8c2.3,1.1,6.5,1.7,6.5,1.7l-1.7-6.2c0,0,2.9,2.4,5.3,3.5c2.4,1.1,6.2,3,8.1,4  c1.8,0.9,5,3.5,5,3.5s-1.1-1.9-1.5-3.3c-0.2-0.9-0.2-1.6,0.6-1.5c0.4,0,0.9,0.2,1.3,0.4c2.1,0.9,4.8,3.1,6.9,3.3  c2.6,0.3,4.6-2,6.4-2.7c0.2-0.1,0.4-0.2,0.6-0.2c1.6-0.5,2.9-0.4,3.9,0.8c0.5,0.7,0.5,1.3,0.6,1.8c0.1,0.5,0.2,0.8,0.9,1.1  c1.5,0.5,4.4-2,6.5-2.3c2.1-0.3,6.4,0,6.4,0s0.8,2.3,1.8,2.4c1.1,0.2,5.2,0.6,9.7-0.5c4.6-1.1,5.6-4.2,5.6-4.2  S501.3,371.3,499.2,374z" style="fill:#A24900;stroke:#000000;stroke-miterlimit:10;"/><path d="M483.9,406.5c2.8-2.4,7-7.3,8.5-8.5s6-3,8.1-3.4  c2-0.4,6.3-0.5,9.3-1.1s9.7-3.8,9.7-3.8s-1.6,6.9-3.6,9.2c-2,2.3-6.3,6.1-6.3,6.1l9.8,0.1c0,0-4.9,5.7-6.6,7.7c-1.8,2-7.6,5-7.6,5  l0.3,1.3l9,0.7l-14,10.4c0,0-1.6-4.7-0.8-6.1s3.4-5.8,4.3-8.4c0.9-2.6,2-5,1.1-8c-0.9-3-2.6-5.5-4.7-6.3c-2.1-0.8-4.2-1.2-6.6-0.5  s-8.2,6.6-8.2,6.6L483.9,406.5z" style="fill:#B98700;stroke:#000000;stroke-miterlimit:10;"/><path d="M441.5,387.3c0,1.3-1.4,2.2-2.5,2.2c-1,0-2.5-0.8-2.5-2  c0-2.1,0.8-3.1,2.8-3.1C440.3,384.3,441.5,386,441.5,387.3z" style="fill:#B98700;stroke:#000000;stroke-miterlimit:10;"/><path d="M478,387.5c0,2.7-0.9,3.7-3.8,4c-1.7,0.2-3.6-1.2-3.6-2.8  c0-3.6,2-5.1,3.6-5.1C475.9,383.5,478,385.8,478,387.5z" style="fill:#B98700;stroke:#000000;stroke-miterlimit:10;"/><path d="M604.8,408.6c-1-0.3-2.1-0.5-3.2-0.7c-3.8-0.5-5.7-0.8-9-0.3  c-0.1,0-0.1,0-0.2,0c-2.2,0.3-6.8,1.3-10.3,2.2c-0.1-2.1-0.1-3.9-0.2-5.7c1.6-0.7,3.7-1.5,5.9-2c1.7-0.3,2.9-0.6,4-0.8  c0.2,0,0.4-0.1,0.6-0.1c0.1,0,0.2,0,0.4,0c1.9-0.2,3.8-0.2,7.7,0.4c1.4,0.2,2.8,0.5,4,0.8C604.6,404.6,604.8,406.6,604.8,408.6z" style="fill:#D06900;stroke:#000000;stroke-miterlimit:10;"/><path d="M576.4,464.1c-1.7,1.6-3.8,3.4-5.9,5.2c-0.5-1-1.1-2-1.7-2.8  c-2.2-2.8-4-4.5-6.3-6.2c-1.3-0.9-2.7-1.9-4.4-3c-1.2-0.8-2.6-1.7-3.9-2.5c2-1.7,4.1-3.4,6.3-5.1c2.7,1.5,5.5,3.2,7.3,4.5  c0.5,0.3,0.9,0.6,1.2,0.9c0.1,0.1,0.2,0.1,0.2,0.2c0.1,0.1,0.2,0.2,0.2,0.2C570.7,456.8,573.8,460.8,576.4,464.1z" style="fill:#D06900;stroke:#000000;stroke-miterlimit:10;"/><path d="M525,509.2c-1.3,1.3-2.7,2.6-4,3.8c-0.9-1.4-2-2.8-3-3.6  c-1.2-1-2-1.7-3.1-2.7c-1-0.8-2.2-1.9-4.2-3.6c-0.9-0.7-2.3-1.5-3.7-2.1c1.7-1.9,3.2-3.7,4.8-5.5c2.1,1.1,4.3,2.3,5.5,3.1  c1.7,1.2,2.8,2.2,3.7,3.4c0.1,0.2,0.3,0.4,0.4,0.6c0.5,0.6,0.9,1.3,1.4,2.1C523.6,506.2,524.4,507.8,525,509.2z" style="fill:#D06900;stroke:#000000;stroke-miterlimit:10;"/><path d="M500.5,569.6c-1.3-3.5-5.5-7.8-8.4-9.8   c-0.4-0.3-0.8-0.5-1.2-0.7c-0.2-0.1-0.4-0.2-0.6-0.3c-0.7-0.3-1.5-0.6-2.4-0.9c-3.3-1.1-7.8-1.9-11.8-1.8c-0.6,0-1.2,0-1.7,0.1   c-2.8,0.2-5,0.9-10.6,5.6c-6.7,5.6-10.8,13.4-13.9,19.8c-0.7,1.4-2.1,7.1-6.2,12.2c-3.3,4.2-4.1,4.9-7.5,5.2   c-3,0.2-4.4-2.5-6.3-8.8c-1.9-6.2-4.4-16.1-4.6-21.9c-0.2-5.2-0.7-10,3.8-12.7c3.8-2.3,7.3-2.6,10.6-3.4c3.3-0.8,7.8-3,11.4-6.4   c2.1-2,3.2-5.3,3.8-8.3c0.4-1.8-0.3-4-1.8-7.1c-1.5-3.1-7.2-7.9-7.2-7.9s2,3.4,2.7,6.9c0.7,3.3,1,5.5-2.3,7.9   c-2.2,1.6-4.1,2.1-6.3,3.1c-3,1.5-3.3,0.4-3.3,0.4s0.2-0.6,1.6-3c1.2-2.1,2-2.9,3-7.4c0.6-2.7,0.5-4.5-0.6-8.4   c-0.7-2.6-1.6-4.4-6-7.3c-4.4-2.9-8.5-2.4-8.5-2.4s3.5,2.3,4.2,3c0.6,0.7,4.9,3.6,3.8,7.7c-1.3,4.5-1.4,4.2-3.8,5.8   c-3.3,2.3-5.7,3.3-5.7,3.3s0.8-4.2-0.6-7.5c-1.5-3.3-2.8-4.5-5.1-6.4c-2.2-1.7-5.4-3.3-10.6-2.7c-5.2,0.6-7.1,3.1-7.1,3.1   s4.6-2,8.5,0c2.9,1.5,3.6,1.7,4,4.2c0.4,2.4-0.2,3.5-0.4,6c-0.2,2.5-1.2,5.5-2.7,8c-1.5,2.5-0.5,5.8-0.7,11   c-0.2,5.2,0.2,7.5-2.5,8.5c-2.7,1-2.7,0.2-4.8,1.5c-2.1,1.2-4,1.2-6.9,0.8c-2.9-0.4-3.8,0-7.1,1.5c-3.3,1.5-5.2,0-7.9-3.8   c-2.7-3.8-2.7-8.5-2.7-8.5s-1.4,5.1-0.8,8.5c0.6,3.3,2.8,8.4,5.1,10.3c2.3,1.9,6.7,5.4,9,5.4c2.3,0,3.3-0.8,5.8-1.2   c2.5-0.4,2.3,1.4,4.4,1.6c2.1,0.2,4.8-1.7,7.9-0.4c2.9,1.2,4,1.7,5,5.4c1,3.8,1.9,14,2.1,18.3c0.2,4.4,0.6,13.6,1,17.5   c0.4,4,2.3,8.5,5,10.2c2.7,1.7,5.2,1.2,9.2,0s11-2.6,15.4-3.5c4.4-0.8,18.6-4,23.2-5.1c1.9-0.4,4.5-1.1,7.2-1.9   c4-1.2,8.1-2.7,10.1-3.8c2.6-1.5,7.6-4.7,10.6-9.7c2-3.3,4.4-12.7,4.8-17.1C503.8,577.9,501.9,573.5,500.5,569.6z M451.6,531.9   c0,0,1.2,2.4,1.4,3.3c0.2,1-0.1,3.5-0.4,4.2c-0.2,0.7-1.7,2.8-1.7,2.8l-2.1-2.7L451.6,531.9z M436.2,522c0-0.6,0.1-2.4,0.3-3.4   c0.1-0.2,0.4-0.3,0.5,0l3.1,7.2c0,0,0,0-1.4,0s-2.1-0.9-2.4-1.5C436.1,523.6,436.2,522.8,436.2,522z M383.2,564.6   c-1-1-2.5-4.2-2.5-4.2l6.3,3.1l0.5,3.1C387.5,566.6,384.4,565.9,383.2,564.6z M417.4,521.3c-1.1,0.1-2.3-0.5-3.1-1.7   c-0.8-1.1-3-2.8-3-2.8s3.2,0.4,4.6,1c1.4,0.7,3.2,2.4,3.2,2.4S418.5,521.2,417.4,521.3z" style="fill:#B96300;stroke:#000000;stroke-miterlimit:10;"/><path d="M712.8,732.8v3.3l-6.4,3.9c0,0,0-2.3,0.9-3.3  c0.9-1,2.3-2.8,3.1-3.3C711.4,733,712.8,732.8,712.8,732.8z" style="fill:#FFA017;stroke:#000000;stroke-miterlimit:10;"/><path d="M711.6,755.5c-0.6,0.9-1.2,2.6-1.2,2.6l-1.2-0.4l2.2-6.3  c0.1-0.3,0.5-0.3,0.7-0.1c0.3,0.5,0.7,1.2,0.9,1.7C713.1,753.7,712.2,754.6,711.6,755.5z" style="fill:#FFA017;stroke:#000000;stroke-miterlimit:10;"/><path d="M726.9,773.2h-1l-2.8-5.5c0,0,2.3-0.7,2.8-0.3s1,1.5,0.7,3.1  C726.3,772,726.9,773.2,726.9,773.2z" style="fill:#FFA017;stroke:#000000;stroke-miterlimit:10;"/><path d="M774.7,760.4l-2.6-6l1.7-2.2c0,0,1.6,2.9,1.9,4.1  C775.8,757.5,774.7,760.4,774.7,760.4z" style="fill:#FFA017;stroke:#000000;stroke-miterlimit:10;"/><path d="M789.7,584.3c0,0-0.7,2.3-1.3,2.4  c-0.6,0.1-1.2,0.6-2.3,0c-1.1-0.6-1.1-0.6-2.1-0.9c-1-0.3-3.4-0.6-3.4-0.6s2.9-1.7,4-1.7s2.4-0.2,3.6,0  C789.5,583.7,789.7,584.3,789.7,584.3z" style="fill:#FFA017;stroke:#000000;stroke-width:0.7982;stroke-miterlimit:10;"/><path d="M776.8,600.2c-0.3,0.6-1,1-1.5,0.8  c-0.4-0.2-1.2-0.3-1.8-0.3c-0.6,0.1-2.3,0.7-2.3,0.7s1.5-2.3,2.3-2.9c0.9-0.6,3.3-0.5,3.3-0.5S777.1,599.6,776.8,600.2z" style="fill:#FFA017;stroke:#000000;stroke-width:0.7982;stroke-miterlimit:10;"/><polygon points="776,620.2 773.6,624.8   772.8,624.8 774.1,617.7 775.1,618.1 " style="fill:#FFA017;stroke:#000000;stroke-width:0.7982;stroke-miterlimit:10;"/><path d="M823.7,640.2c0,0-0.3,3-1.2,4.1  c-0.9,1-3.6,2.6-3.6,2.6l1.5-5.9L823.7,640.2z" style="fill:#FFA017;stroke:#000000;stroke-width:0.7982;stroke-miterlimit:10;"/><path d="M791.5,336.8c3.8-0.5,8.9-1.7,12.2-0.7c3.3,1,19.1,5.4,23.4,7.5  c4.4,2.1,17.3,8.7,21,11.5c3.7,2.8,9.4,6.6,9.4,6.6s-1.9-34.1-3.3-43c-1.4-8.9-7-17.8-10.5-21.9s-14-9.5-17.8-11  c-3.8-1.6-10.8-4.5-13.3-7c-2.4-2.5-5.1-5.4-5.8-7.2s-3-6.7-3-6.7s-1.2,7-0.2,9.6c1.1,2.6,2.4,7.9,6.5,10.7c4,2.8,9.3,7,12.2,10.5  s6.3,6.1,7.9,9.4c1.6,3.3,2.6,6.3,1.8,8.7c-0.9,2.4-1.8,4.9-4,4.9c-2.3,0-6.5-2.5-9.8-5.4c-3.3-3-10.3-9.1-12.4-11.2  c-2.1-2.1-4.2-5.4-5.6-10.3c-1.4-4.9-2.3-10.3-5.6-14.2c-3.3-3.9-8.2-6.2-10.8-7c-3.7-1-10.2-1.3-14-1.3c-3.9,0-6.1-0.3-8.7-0.7  c-2.6-0.3-11.3-4.4-11.8-4.6c0.2,0.3,3.1,4.6,7.9,6.8c4.9,2.3,7,2.3,11.2,3.2c4.2,0.9,8.6,3.3,11.7,6c3.1,2.6,3.1,5.6,4.4,9.3  c1.2,3.7,1.6,7.5,2.6,11.4c1.2,4.3,1.2,5.4,2.8,7.7c2.7,3.7,5.7,6,7,7.9c2,2.9,2.6,6.5,1.1,8.2c-1.6,1.8-1.6,2.8-5.1,0.7  c-3.5-2.1-5.8-1.9-8.2-4.9c-2.4-3-2.1-2.3-5.6-7.5c-3.5-5.2-6.7-10.1-11-14.7c-4.4-4.5-8.9-7.5-14.4-7.9c-5.4-0.3-8.4-1-13.8,0.7  s-8.4,3-14.2,4.7c-5.8,1.8-13.1,4.2-17.3,4.5c-4.2,0.3-8,0.3-9.8-0.9c-1.7-1.2-4.5-3-4.7-3.1c0.1,0.2,1.8,3.9,4,5.9  c2.3,2.1,8.4,5.6,13.8,6c5.4,0.3,5.9-0.2,12.1-1.6c6.1-1.4,9.3-2.5,13.3-2.5c4,0,5.4-0.1,9.3,2.2c3.8,2.3,6.7,5.4,9.1,8.9  c2.4,3.5,3.4,5.2,5.1,9.4c2.2,5.3,1.2,9.8,0.7,10.8c-0.5,1.1-2.4,1.4-5.4,1.9c-4.5,0.8-7.4,0.9-11.2-2.3c-3.8-3.2-6.5-5.4-10.5-6.3  c-5.8-1.3-8.4-0.3-12.1,0.7c-5,1.4-8.9,4.5-13.8,8.6c-4.8,3.9-6.9,6.5-10.7,8.9c-2.8,1.8-4.7,4.2-9.1,6.1c-4.4,1.9-7.9,2.8-11.8,3.1  c-3.8,0.3-16.2-3.9-16.6-4c0.2,0.2,4,4.1,7.3,5.9c3.9,2.1,11.9,3.6,16.1,3.9c4.6,0.3,6.7,0.7,11.2-1.6c4.5-2.3,10.1-5.8,13.5-7.3  c3.3-1.6,8.4-4.2,12.8-4.4c4.4-0.2,7.8,0.2,10.5,1.4c3.3,1.5,9.1,4.9,11.5,6.8c2.4,1.9,4.6,3.7,9.6,4.4c5.1,0.7,8.1,0.5,14.4-0.7  c4.3-0.8,6.5-2.1,11.5-2.3c5.1-0.2,8.8,1,9.3,3.1c0.5,2.1,0.7,5.6-1.4,6.8c-2.1,1.2-9.4,4.2-12.9,4.5c-3.5,0.4-19.8,0.9-21.7,1.4  c-1.9,0.5-11.7,3.8-15.1,6.8c-3.3,3-4.9,7.2-5.6,10c-0.7,2.8,0,12.6,0,12.6s0.5-6,2.6-8.6c2.1-2.7,4.1-4.8,7.3-6.3  c5-2.3,8.7-1.9,15.6-1.7c6.8,0.2,9.8,0.7,15.9,0.3c6.1-0.3,7.5-1,11.7-2.5c4.2-1.4,5.7-3.3,8.9-5.4c4-2.6,5.6-3.7,9.6-4.7  c4.4-1.1,7.5-0.8,9.3,0.7c3,2.5,3.7,4.4,2.5,7.4c-1.2,3-2.5,4.2-6,5.8c-3.5,1.6-7.7,1.8-11.5,1.8c-3.8,0-7,0-9.6,1.2  c-2.6,1.2-5.1,3.5-6.1,6c-1,2.5-2.1,3.5-3.8,6.1c-1.8,2.6-7.9,5.4-7.9,5.4s1.6,0.7,4.9,0.9c3.3,0.2,5.6-1,7.5-1.6  c1.9-0.5,4.2-4.7,7-6.3c3.2-1.9,5.6-2.3,8.4-2.8c2.8-0.5,6.1,1.2,10,1.6c4.1,0.4,7.9,1.3,9.8,0.6c1.9-0.7,4.5-2.7,8.4-5.5  s17.3-16.3,17.3-16.3s-10.3-9.3-14.5-12.4c-4.2-3.2-14-9.3-19.6-11.7c-5.6-2.4-16.1-5.2-18.9-7.3c-2.8-2.1-5.1-5.1-3.7-7.5  C787.7,338.3,787.7,337.3,791.5,336.8z M828.8,295.2c-2.9-2.5-10.2-8.2-10.2-8.2s5.4,1,8.1,2c2.7,1,7.4,3.9,9.9,5.6  c2.5,1.7,6.2,6.7,7.7,8.7c1.5,2,3.6,8.9,4.6,11.9c1,2.9,3.1,13.8,3.2,17.9s-1,6-1,6s-2.2-15.2-2.8-17.2s-2.4-9.1-3.3-11.2  s-4.2-7.3-6.3-9.8c-2-2.4-5.4-4.9-5.6-5c0.1,0.3,2.4,4.5,3.5,6.7c1.1,2.2,2.7,6.5,2.7,10.1c0,3.6-0.6,6.8-1.4,8.5s-3.3,2.7-3.3,2.7  s2.5-6.2,2.5-8.1c0-2-1.3-7.4-2.4-10.8C833.6,301.5,831.8,297.7,828.8,295.2z M795.7,309.9c-1.2-1.5-3.9-6.6-5.1-10  c-0.8-2.6-2.2-10.3-2.9-13.8c-0.7-3.5-3.5-7.1-5.9-9.2c-2.4-2.1-8.4-4-8.4-4s4.3-0.7,7.7,0c3.3,0.7,3.5,1.1,5.2,2.1  c1.7,1,3.3,2.7,4.8,4.8c2.1,2.9,2.6,4.6,4.1,8.6c1.5,4,2.4,7,3.5,10c1.1,3,5.7,9.6,7.6,12.1c1.7,2.4,5.4,5.8,5.8,6.2  c-0.5-0.3-5.2-3.4-6.9-5.1c-1.8-1.8-5.7-6.6-6.8-8.5c-1.1-2-3.8-8.8-4.8-11.7c-1-2.9-3.4-7.1-3.4-7.1l1.1,6.4c0.2,1.6,0.7,4,1.7,7.2  c1,3.2,1.1,5.2,2.9,8.1c1.4,2.3,3.3,4.4,4.7,6c1.7,2.1,3.3,3.1,4.4,5.2c1.1,2.1,0.7,6.9,0.7,6.9s-2.4-5.5-3.3-6.9  C801.7,315.8,797,311.4,795.7,309.9z M759.8,354.9c-1,0.5-2.7,0.6-4.4,0.5c-1.7-0.2-5.3-0.6-6.7-1.5c-1.5-1-3.1-1.6-4.9-2.8  c-1.8-1.2-5.1-2.8-7.4-4c-2.3-1.2-4.1-2.5-6.7-3.1c-2.6-0.6-5.2-0.5-8.5,0.3c-3.3,0.8-6.1,2-8.3,3c-2.2,1-5.5,2.9-7.5,3.7  c-2,0.8-4.6,2.7-6.8,3.5c-2.1,0.8-6.2,2.2-6.5,2.3c0.4-0.3,13.7-11.4,15.6-12.9c1.9-1.5,8.3-6.7,9.6-7.1c1.3-0.5,4.8-1.9,6.3-2.3  c1.5-0.3,4.4-0.6,5.8-0.3c1.5,0.3,4.9,1.5,5.6,1.9c0.7,0.4,7.3,3.6,8.8,4.5c1.5,0.9,6,3,7.4,3.3s9.7-0.9,9.7-0.9s-1.8,1.5-3.6,1.9  c-1.8,0.4-5.3,0.8-6.6,0.4c-1.4-0.4-3.6-0.4-5.8-1.6c-2.3-1.2-6.1-2.8-7.5-3.7s-5.3-2.5-7.1-2.9c-1.8-0.4-4.7-0.5-6.6,0  c-1.9,0.5-4.9,1.5-6.7,2.7c-1.7,1.2-6,4.6-6.3,4.8c0.4-0.1,6.5-2.6,8.7-3c2.3-0.4,4.8-0.9,6.9-0.7c2.1,0.2,4.8,0.7,7.3,1.8  c2.5,1.1,6.1,3.4,7.7,4.3c1.6,0.9,5.6,3.2,6.9,4.2c1.3,1,4.9,1.7,6.6,2.1c1.7,0.4,8.3-0.4,8.3-0.4S760.8,354.4,759.8,354.9z   M774.7,319.2c-1.1-1.5-1.6-2.9-3.6-6.3c-1.9-3.4-4.1-7.2-5.2-8.8c-1.1-1.5-4.5-3.6-6.1-4.6c-1.6-1-5.6-2.3-7.7-2.7  c-2.1-0.4-5.2-0.5-6.3-0.5c-1.1,0-3.9,1.1-3.9,1.1s4.7,1.1,5.9,1.9c1.2,0.8,5.3,2.7,6.2,3.6c0.9,1,4.6,4,5.3,4.9s3.3,4.3,3.8,5.5  c0.5,1.2,3,6.8,3.2,7.6c0.2,0.8-1.5-1.4-2.5-3c-1.1-1.6-2.8-4.6-3.8-6c-1-1.4-3-3.8-4.4-5c-1.4-1.2-5.7-4.3-6.8-4.8  c-1.1-0.5-5.5-2.3-7-2.3c-1.5,0-5.8-0.5-7-0.3c-1,0.1-5.3,0.4-7.1,0.5c-0.2,0-0.2-0.2-0.1-0.3c2.1-0.9,8.4-3.7,9.9-4.1  c1.8-0.5,6.9-1.6,10.5-1.5c3.6,0.1,6.3,0.4,8.9,1.1c2.6,0.7,5.9,2.5,7.2,4c1.3,1.5,5.8,6.7,6.7,9.2c1,2.5,6.2,13.2,6.2,13.2  S775.8,320.7,774.7,319.2z M819.4,387.4c0,0-0.3,2.4-1.2,3c-0.9,0.6-2.9,2.1-4.5,2.5c-1.5,0.4-3.7,1-4.7,1.3c-1.2,0.4-6,1.4-6,1.4  s4,0.8,5,0.8s4.1-0.1,5.6-0.4c1.5-0.3,4.5-1.2,5.8-1.9c1.2-0.7,2.1-1.2,3.5-1.9c1.1-0.5,3.8-2.4,4-2.6c-0.1,0.1-0.6,1.1-1.1,1.6  c-0.5,0.5-2.5,2.7-3.8,3.6c-1.3,1-3.5,2-5.5,2.6c-2,0.6-3.1,1.2-5.3,1.3c-2.3,0.1-4.4,0.2-6.3-0.2c-1.9-0.4-2.6-0.8-4.1-1.1  c-2.3-0.4-3.8-0.5-5.7-0.2c-2.8,0.4-2.8,0.1-4.7,0.7c-1.9,0.6-3.6,2.1-4.1,2.5c-0.7,0.5-3.3,3.1-3.6,3.3c0.2-0.3,2.8-5.1,4-6.5  c1.2-1.4,3.4-3,5.2-3.5c1.8-0.5,4.8-1.2,6.2-1.2c1.7-0.1,4.5,0.1,6.4,0c1.9-0.1,4.5-0.7,5.8-0.9c1.8-0.2,3-0.7,5-1.5  C817.1,389.4,819.4,387.4,819.4,387.4z M791.8,368.8c-0.1,0.2-2,4.1-3.2,4.9c-1.3,0.9-4.7,2.6-5.6,3c-0.9,0.4-5.8,1.7-7.9,1.9  c-2,0.2-7.5,0.5-8.2,0.6c-0.6,0.1-4.4,0.6-4.4,0.6s4.9,0.6,6.1,0.7s5,0.1,6.4-0.1c1.4-0.2,6.9-1.4,8-1.8c1-0.4,4.7-2.5,6.2-3.2  c1.5-0.7,4.3-1.9,6.1-2.8c1.8-0.8,3.7-1.4,4.8-1.5c1.1-0.2,7.2-1.3,7.2-1.3s-6.2,2-7.5,2.7c-1.2,0.7-2.8,1-5.1,2.6  c-2.3,1.6-7.9,5-9.9,5.6c-1.9,0.7-6.1,2.4-8.3,2.7c-2.3,0.3-6,0-8.1,0.1c-2.1,0.1-6.2-0.2-8.2-0.3c-2-0.1-4.8-0.6-7.5-0.3  c-2.8,0.2-3.7,0.2-6.2,0.8c-2.5,0.6-5.9,1.1-5.9,1.1s4.1-3.3,5.8-4.1c1.8-0.8,4.2-1.8,5.8-2c1.6-0.2,5.7-0.7,7.5-0.8  c1.8-0.1,6.3-0.3,8.8-0.6c2.4-0.2,7-0.4,8.7-0.9c1.7-0.5,6.6-1.9,7.5-2.4C785.4,373.4,791.5,369.1,791.8,368.8z" style="fill:#FF3200;stroke:#000000;stroke-miterlimit:10;"/><path d="M854.2,557.4c0.3,1.3,0.8,3.5,1.2,5.5c-0.8,0.3-1.8,0.5-2.7,0.8  c-0.6-2.5-1.5-5.7-2.5-8.5c1-0.1,2-0.2,3-0.4C853.7,555.7,854,556.6,854.2,557.4z" style="fill:#D06900;stroke:#000000;stroke-miterlimit:10;"/><path d="M870.2,545.8l4.8,7.9c-2.7,1.8-8.2,4.4-11.7,6  c-0.8-0.5-1.4-1-1.6-1.2c-0.5-0.5-2.5-3-4.1-5.2c0.3-0.1,0.5-0.1,0.8-0.2l0,0c0.8-0.2,1.4-0.5,1.9-0.8  C862.4,551,866.7,548.4,870.2,545.8z" style="fill:#D06900;stroke:#000000;stroke-miterlimit:10;"/><path d="M903.2,508.7c-0.1,0.3-0.1,0.6-0.2,0.8  c-0.8,2.9-3.3,10.9-4.8,14.9c-1.5,4-8.4,16.4-10.3,18.1c-1.2,1-4.5,4.2-7.7,7l-6.1-6.8c3.8-3.6,12.1-12.5,13.5-15.7  c1.5-3.4,8.1-14.6,8.9-17.4c0.1-0.5,0.3-1.1,0.5-1.9L903.2,508.7z" style="fill:#D06900;stroke:#000000;stroke-miterlimit:10;"/><path d="M906.3,484.1c0,2.1-1.3,12.7-2.3,19.6l-5.5-1.4  c0.8-3,1.7-6,2-7.6c0.6-3.1,4-25.9,4.3-27.8c0.2-1.6,0.1-5.3,0-6.3c0,0.7,0.2,2.8,0.4,5.5v0C905.7,472.6,906.3,482.2,906.3,484.1z" style="fill:#D06900;stroke:#000000;stroke-miterlimit:10;"/><path d="M766.2,435.2c-2.6-0.4-5.1-0.2-7.9,0.1  c-3.4,0.4-5.1,1.3-9.5,2.6c-4.5,1.3-10.1,3.5-12.8,4.5c-2.7,0.9-6.6,2.9-8.6,3.2c-2,0.2-1.9,0.4-1.6-1.1c0.2-1.4,0.7-2.1,2.7-3.1  c2-1,6.5-1.7,6.5-1.7c2.7-1.3,4.5-3.6,6.2-5.5c1.2-1.3,2.1-4.1,2.1-5.6c1.7,0.1,3.5,0.6,5,0.8c5.5,0.9,9.2,1.9,13.6,3.3  C762.9,433.1,764.5,434.1,766.2,435.2z" style="fill:#A24D00;stroke:#000000;stroke-miterlimit:10;"/><path d="M418.5,411.3l6.3-5c0,0-3.1-6-7.4-7.4c-4.3-1.5-9.9-2.6-13.7-2  s-8.8,2.2-10.7,4.2s-7.6,8.7-8.8,11.8c-1.2,3.1-2.6,9.9-2.5,13.9s2.3,13.7,3.1,17c0.8,3.3,6.4,16.9,7.6,20.3  c1.2,3.4,2.8,12.5,3,14.9s0.8,9.1,0.2,12.9c-0.7,3.8-2.6,10.7-5.1,13.9s-3.3,4.1-5.1,5.6s-7.8,5.4-7.8,5.4s6.1-0.6,9.1-2.8  c2.4-1.8,5.6-5.5,7.1-8.3c1.5-2.8,2.8-6.8,4.3-12.1c1.5-5.3,0.8-12.6,0.8-15.5c0-3-1.7-8.4-2.3-12.9c-0.7-4.5-3.8-12-4.8-16.5  c-0.7-3-3-7.6-3.5-14.4c-0.4-5.6,0.5-9.8,1.6-13c1-2.8,3.2-10.3,6.2-13c2.5-2.2,3.4-1.9,6.6-3c3.8-1.3,6.5-0.7,8.9,0.8  C415.5,408.6,418.5,411.3,418.5,411.3z" style="fill:#FF7A2E;stroke:#000000;stroke-miterlimit:10;"/><path d="M499.2,374c-2.1,2.7-4.4,3.6-7.6,3.2c-3.2-0.3-7.8-1.1-10.5-0.9  c-2.7,0.2-4.6,0.7-7.6,2.4c-3,1.7-5.3,6.8-6.8,8.4c-1.4,1.4-4.1,3.2-6.5,3.4c-0.3,0-0.5,0-0.8,0c-2.6-0.3-1.7-1.5-2.3-3.5  c-0.6-2-0.2-4.1-1.5-4.1s-0.9,1.7-2.6,3.3c-0.2,0.2-0.5,0.5-0.8,0.7c-1.8,1.3-4.3,2.1-5.5,1.6c-1.5-0.6-3-3-3-5.3  c0-2.3-2.1-6.4-2.9-7.5c-0.8-1.1-5.2-2.5-7.2-2.4c-2,0.1-3.5,1.8-6.4,2.3c-2.9,0.5-4.7-1.2-6.7-3.2c-2-2-2-7.3-1.4-9.7  c0.6-2.4,5.8-5.2,5.8-5.2s0,0,0,2.7s0.5,2.7,2.8,3.8c2.3,1.1,6.5,1.7,6.5,1.7l-1.7-6.2c0,0,2.9,2.4,5.3,3.5c2.4,1.1,6.2,3,8.1,4  c1.8,0.9,5,3.5,5,3.5s-1.1-1.9-1.5-3.3c-0.2-0.9-0.2-1.6,0.6-1.5c0.4,0,0.9,0.2,1.3,0.4c2.1,0.9,4.8,3.1,6.9,3.3  c2.6,0.3,4.6-2,6.4-2.7c0.2-0.1,0.4-0.2,0.6-0.2c1.6-0.5,2.9-0.4,3.9,0.8c0.5,0.7,0.5,1.3,0.6,1.8c0.1,0.5,0.2,0.8,0.9,1.1  c1.5,0.5,4.4-2,6.5-2.3c2.1-0.3,6.4,0,6.4,0s0.8,2.3,1.8,2.4c1.1,0.2,5.2,0.6,9.7-0.5c4.6-1.1,5.6-4.2,5.6-4.2  S501.3,371.3,499.2,374z" style="fill:#A24900;stroke:#000000;stroke-miterlimit:10;"/><path d="M483.9,406.5c2.8-2.4,7-7.3,8.5-8.5s6-3,8.1-3.4  c2-0.4,6.3-0.5,9.3-1.1s9.7-3.8,9.7-3.8s-1.6,6.9-3.6,9.2c-2,2.3-6.3,6.1-6.3,6.1l9.8,0.1c0,0-4.9,5.7-6.6,7.7c-1.8,2-7.6,5-7.6,5  l0.3,1.3l9,0.7l-14,10.4c0,0-1.6-4.7-0.8-6.1s3.4-5.8,4.3-8.4c0.9-2.6,2-5,1.1-8c-0.9-3-2.6-5.5-4.7-6.3c-2.1-0.8-4.2-1.2-6.6-0.5  s-8.2,6.6-8.2,6.6L483.9,406.5z" style="fill:#B98700;stroke:#000000;stroke-miterlimit:10;"/><path d="M441.5,387.3c0,1.3-1.4,2.2-2.5,2.2c-1,0-2.5-0.8-2.5-2  c0-2.1,0.8-3.1,2.8-3.1C440.3,384.3,441.5,386,441.5,387.3z" style="fill:#B98700;stroke:#000000;stroke-miterlimit:10;"/><path d="M478,387.5c0,2.7-0.9,3.7-3.8,4c-1.7,0.2-3.6-1.2-3.6-2.8  c0-3.6,2-5.1,3.6-5.1C475.9,383.5,478,385.8,478,387.5z" style="fill:#B98700;stroke:#000000;stroke-miterlimit:10;"/><path d="M604.8,408.6c-1-0.3-2.1-0.5-3.2-0.7c-3.8-0.5-5.7-0.8-9-0.3  c-0.1,0-0.1,0-0.2,0c-2.2,0.3-6.8,1.3-10.3,2.2c-0.1-2.1-0.1-3.9-0.2-5.7c1.6-0.7,3.7-1.5,5.9-2c1.7-0.3,2.9-0.6,4-0.8  c0.2,0,0.4-0.1,0.6-0.1c0.1,0,0.2,0,0.4,0c1.9-0.2,3.8-0.2,7.7,0.4c1.4,0.2,2.8,0.5,4,0.8C604.6,404.6,604.8,406.6,604.8,408.6z" style="fill:#D06900;stroke:#000000;stroke-miterlimit:10;"/><path d="M576.4,464.1c-1.7,1.6-3.8,3.4-5.9,5.2c-0.5-1-1.1-2-1.7-2.8  c-2.2-2.8-4-4.5-6.3-6.2c-1.3-0.9-2.7-1.9-4.4-3c-1.2-0.8-2.6-1.7-3.9-2.5c2-1.7,4.1-3.4,6.3-5.1c2.7,1.5,5.5,3.2,7.3,4.5  c0.5,0.3,0.9,0.6,1.2,0.9c0.1,0.1,0.2,0.1,0.2,0.2c0.1,0.1,0.2,0.2,0.2,0.2C570.7,456.8,573.8,460.8,576.4,464.1z" style="fill:#D06900;stroke:#000000;stroke-miterlimit:10;"/><path d="M525,509.2c-1.3,1.3-2.7,2.6-4,3.8c-0.9-1.4-2-2.8-3-3.6  c-1.2-1-2-1.7-3.1-2.7c-1-0.8-2.2-1.9-4.2-3.6c-0.9-0.7-2.3-1.5-3.7-2.1c1.7-1.9,3.2-3.7,4.8-5.5c2.1,1.1,4.3,2.3,5.5,3.1  c1.7,1.2,2.8,2.2,3.7,3.4c0.1,0.2,0.3,0.4,0.4,0.6c0.5,0.6,0.9,1.3,1.4,2.1C523.6,506.2,524.4,507.8,525,509.2z" style="fill:#D06900;stroke:#000000;stroke-miterlimit:10;"/><path d="M500.5,569.6c-1.3-3.5-5.5-7.8-8.4-9.8   c-0.4-0.3-0.8-0.5-1.2-0.7c-0.2-0.1-0.4-0.2-0.6-0.3c-0.7-0.3-1.5-0.6-2.4-0.9c-3.3-1.1-7.8-1.9-11.8-1.8c-0.6,0-1.2,0-1.7,0.1   c-2.8,0.2-5,0.9-10.6,5.6c-6.7,5.6-10.8,13.4-13.9,19.8c-0.7,1.4-2.1,7.1-6.2,12.2c-3.3,4.2-4.1,4.9-7.5,5.2   c-3,0.2-4.4-2.5-6.3-8.8c-1.9-6.2-4.4-16.1-4.6-21.9c-0.2-5.2-0.7-10,3.8-12.7c3.8-2.3,7.3-2.6,10.6-3.4c3.3-0.8,7.8-3,11.4-6.4   c2.1-2,3.2-5.3,3.8-8.3c0.4-1.8-0.3-4-1.8-7.1c-1.5-3.1-7.2-7.9-7.2-7.9s2,3.4,2.7,6.9c0.7,3.3,1,5.5-2.3,7.9   c-2.2,1.6-4.1,2.1-6.3,3.1c-3,1.5-3.3,0.4-3.3,0.4s0.2-0.6,1.6-3c1.2-2.1,2-2.9,3-7.4c0.6-2.7,0.5-4.5-0.6-8.4   c-0.7-2.6-1.6-4.4-6-7.3c-4.4-2.9-8.5-2.4-8.5-2.4s3.5,2.3,4.2,3c0.6,0.7,4.9,3.6,3.8,7.7c-1.3,4.5-1.4,4.2-3.8,5.8   c-3.3,2.3-5.7,3.3-5.7,3.3s0.8-4.2-0.6-7.5c-1.5-3.3-2.8-4.5-5.1-6.4c-2.2-1.7-5.4-3.3-10.6-2.7c-5.2,0.6-7.1,3.1-7.1,3.1   s4.6-2,8.5,0c2.9,1.5,3.6,1.7,4,4.2c0.4,2.4-0.2,3.5-0.4,6c-0.2,2.5-1.2,5.5-2.7,8c-1.5,2.5-0.5,5.8-0.7,11   c-0.2,5.2,0.2,7.5-2.5,8.5c-2.7,1-2.7,0.2-4.8,1.5c-2.1,1.2-4,1.2-6.9,0.8c-2.9-0.4-3.8,0-7.1,1.5c-3.3,1.5-5.2,0-7.9-3.8   c-2.7-3.8-2.7-8.5-2.7-8.5s-1.4,5.1-0.8,8.5c0.6,3.3,2.8,8.4,5.1,10.3c2.3,1.9,6.7,5.4,9,5.4c2.3,0,3.3-0.8,5.8-1.2   c2.5-0.4,2.3,1.4,4.4,1.6c2.1,0.2,4.8-1.7,7.9-0.4c2.9,1.2,4,1.7,5,5.4c1,3.8,1.9,14,2.1,18.3c0.2,4.4,0.6,13.6,1,17.5   c0.4,4,2.3,8.5,5,10.2c2.7,1.7,5.2,1.2,9.2,0s11-2.6,15.4-3.5c4.4-0.8,18.6-4,23.2-5.1c1.9-0.4,4.5-1.1,7.2-1.9   c4-1.2,8.1-2.7,10.1-3.8c2.6-1.5,7.6-4.7,10.6-9.7c2-3.3,4.4-12.7,4.8-17.1C503.8,577.9,501.9,573.5,500.5,569.6z M451.6,531.9   c0,0,1.2,2.4,1.4,3.3c0.2,1-0.1,3.5-0.4,4.2c-0.2,0.7-1.7,2.8-1.7,2.8l-2.1-2.7L451.6,531.9z M436.2,522c0-0.6,0.1-2.4,0.3-3.4   c0.1-0.2,0.4-0.3,0.5,0l3.1,7.2c0,0,0,0-1.4,0s-2.1-0.9-2.4-1.5C436.1,523.6,436.2,522.8,436.2,522z M383.2,564.6   c-1-1-2.5-4.2-2.5-4.2l6.3,3.1l0.5,3.1C387.5,566.6,384.4,565.9,383.2,564.6z M417.4,521.3c-1.1,0.1-2.3-0.5-3.1-1.7   c-0.8-1.1-3-2.8-3-2.8s3.2,0.4,4.6,1c1.4,0.7,3.2,2.4,3.2,2.4S418.5,521.2,417.4,521.3z" style="fill:#B96300;stroke:#000000;stroke-miterlimit:10;"/></svg>