<svg id="Layer_1" style="enable-background:new 0 0 1280 1024;" version="1.1" viewBox="0 0 1280 1024" x="0px" xml:space="preserve" xmlns="http://www.w3.org/2000/svg" xmlns:xlink="http://www.w3.org/1999/xlink" y="0px"><path d="M810,558c0,0-0.4,3.4,0,6.3c-2.2-0.8-4.3-1.8-6.4-2.9  c-4.1-2.2-10.7-7.8-13.9-10.7c-3.1-2.8-6.4-7.1-9.1-11.8c-2.7-4.7-6.2-9.8-7.6-12.9c-1.3-3.1-7.4-17.6-9.3-21.3  c-1.9-3.7-5.5-9.3-7.4-12.1c-1.9-2.8-5.2-5.7-9.6-8.3c-3.8-2.2-6.5-3.2-10.3-3.4c-3.8-0.2-4.2,0.1-7.5,0.4c-1.5,0.1-2.8,0.6-3.8,1  c-1,0.4-1.7,0.8-2,1c0.9-0.6,6-4.1,9.5-5.7c3.8-1.8,11.4-2.2,14.2-1.5c2.8,0.7,8.9,2.7,12.3,4.9c3.4,2.2,9.5,7.9,11.5,11  c1.9,3.1,11.7,22.8,13.5,26.5c1.8,3.7,7.2,14.2,10.2,18.6c3,4.4,12.6,12.8,14.7,13.9c0.4,0.2,1.2,0.4,2.2,0.5  c-0.3,0.9-0.5,1.8-0.7,3C810.2,555.6,810.1,556.7,810,558z" style="fill:#64FF00;stroke:#000000;stroke-miterlimit:10;"/><path d="M900.3,618.3c-1-0.3-4-1.7-5.6-3.8c-1.6-2.1-2.3-8.1-2.9-10.5  c-0.6-2.4-2.5-5.9-5.3-9c-2.7-3.1-4.9-4-6.6-5.1c-1.7-1.1-6.6-3.1-7.1-3.9c-0.4-0.8-0.5-3.2,0.2-4.4c0.7-1.2,4.4-0.6,6-0.5  c1.6,0.2,6.4,1.5,7.8,1.5c1.5,0.1,3.7-1.5,3.7-1.5l-0.6-0.8c0,0-1.2,0.2-2,0c-0.8-0.2-3.3-1.3-4.1-1.7c-0.8-0.5-4.7-4.5-5.8-5.8  c-1.1-1.4-4.8-5.8-6.4-6.9c-1.3-0.8-6.1-3.8-8.7-5.6c-0.8-0.5-1.4-1-1.6-1.2c-0.5-0.5-2.5-3-4.1-5.2c0,0,0,0,0,0  c-1.2-1.6-2.2-3-2.5-3.4c-0.6-1-4.8-4.6-5.8-5.6c-0.1,0-0.1,0-0.1,0.1c0.5,1,2.2,4,2.8,5.3c0.5,1,1.2,2.7,1.9,4.4c0,0,0,0,0,0  c0.4,0.9,0.7,1.8,0.8,2.6c0.3,1.3,0.8,3.5,1.2,5.5c0.3,1.5,0.5,2.8,0.6,3.8c0.2,2.3,0.5,8.6,0.9,11.6c0.4,3,1.5,5.6,2.3,7.8  s2.6,4.9,3.5,8c0.8,3.1,0.5,7,0.1,8.4c-0.4,1.4-2.8,3.9-4.3,5.1c-1.5,1.2-5.5,1.9-8.6,2.7c-3.1,0.8-6.5,1.2-6.5,1.2s3.6,2.1,5.7,2.9  c2.1,0.8,3.9,2,6.8,2.8c2.9,0.8,6.1,0.8,8.9,0c2.8-0.8,5.2-2.9,6.6-4.4c1.4-1.5,3.6-2.2,5.3-2c1.6,0.2,3.5,1,5.4,2.9  c1.9,1.9,3.4,3.9,4.7,5.2c1.4,1.3,4.4,2.5,5.8,2.8c1.4,0.3,4.5-0.5,6.2-0.7c1.6-0.3,4.4-2.7,4.4-2.7S901.3,618.6,900.3,618.3z   M867.2,571.2c0,0,3.9-0.1,6,0.8c2.1,0.9,2.9,2.6,4.7,4c1.8,1.4,4.2,3,4.2,3l-0.5,0.9L867.2,571.2z M890.7,617.7  c-1.5-1-3.6-1.4-4.5-3.1c-0.9-1.7-1.6-2.6-2.6-4.3s-1.8-2.6-3.1-3.5c-1.3-0.8-3.5-1.4-5.3-1.2c-1.8,0.2-4.3,0.3-4.3,0.3  s1.4-1.6,2.4-1.7c1.1-0.1,2.6-0.7,4.3-0.2c1.7,0.5,3.6,1,4.6,1.7c1,0.7,3.3,2.7,3.3,2.7s-0.1-2.3-0.5-3.8c-0.4-1.5-1.2-2.6-2.2-4.6  c-1-2-1.8-3.7-3-4.6c-1.1-0.9-3.1-2.8-3.2-3c0.3,0.1,4.9,2.1,6,2.8c1.1,0.7,2.6,4,3.2,6c0.6,2,2.1,7.4,2.9,9.3  c0.8,1.9,1.7,3.8,2.8,5.1c1.1,1.3,3.1,2.1,3.1,2.1S892.3,618.7,890.7,617.7z" style="fill:#FFE500;stroke:#000000;stroke-miterlimit:10;"/><path d="M461.3,341.9l-2-10.6c0,0,0,0,0,0c0.3-0.5,5.3-10.2,6.4-10.2  c1,0,5.4,3.5,6.5,4.4c0.1,0.1,0.2,0,0.1-0.1l-3.3-6.9c0,0,0-0.1,0-0.1c0.3-0.4,3.8-4.7,6.4-6.7c2.7-2,7.6-5.1,8.1-5.4  c0,0,0.1,0,0.1,0l2.8,1.6c0.1,0,0.1,0,0.1-0.1v-3.3c0,0,0-0.1,0-0.1c0.5-0.3,6.2-3.8,8.9-5.3c2.7-1.4,8.7-5.4,9.2-5.8  c0,0,0.1,0,0.1,0l2.3,1.2c0.1,0,0.1,0,0.1-0.1v-3.6c0,0,0,0,0-0.1c0.4-0.4,6.3-5.7,7.1-8.2c0.8-2.6,3.1-12.4,3.6-13.7  c0.5-1.3,0.8-3.6,3.8-3s3.8,3.3,3.8,4.8s1.5,6.6,0,9.6c-1.4,2.8-11.1,16.8-12.4,18.6c0,0.1,0,0.1,0.1,0.1c1-0.4,4.7-1.9,6.9-4.2  c2.3-2.5,7.1-8.7,7.7-9.5c0,0,0.1,0,0.1,0l5.5,9.6c0,0.1,0.2,0,0.2-0.1l-1.4-10.8c0,0,0-0.1,0-0.1c0.6-0.2,5.4-2,7.4-3  c2.1-1,5.5-4.6,7.4-4.6c1.6,0,3.2,2,3.7,2.8c0.1,0.1,0.2,0,0.1-0.1l-1.1-5.4c0,0,0-0.1,0-0.1l14.5-16.3c0,0,0.1,0,0.1,0l4.4,1.9  c0.1,0,0.1,0,0.1-0.1l-2.2-4.9c0,0,0-0.1,0-0.1c0.9-0.5,11.6-6.8,13.5-7.4c2-0.7,6.6-2.1,8.6-2c2,0.2,4.8,1,5.1,3.1s-0.7,3-2.5,4.8  c-1.8,1.8-5,2.3-8.8,4c-3.8,1.7-7.9,4.1-10.7,7.7c-2.8,3.6-8.8,12.8-11.4,16c-2.6,3.1-9.8,10.9-12.7,13.3c-3,2.4-16.4,8.2-19,9.7  c-2.6,1.5-6.1,3.3-10.1,6c-3.8,2.5-13.9,12.1-14.8,13c0,0-0.1,0-0.1,0c-0.3-0.5-1.7-3.2,2.5-7.5c4.6-4.8,7.8-8.8,9.8-9.6  c1.7-0.7,1.7-1.7,1.7-1.9c0,0,0-0.1-0.1-0.1c-0.7-0.1-8.4-0.9-12-0.2c-3.8,0.8-8.3,1.7-10.6,3.6s-5,6.8-6.6,10.1  c-1.7,3.3-1.3,6.8-4.6,8.8c-3.3,2-7.6,4.5-10.1,5.1c-2.5,0.7-3.5,1-5.6,3.3c-1.7,1.9-2.2,2.9-2.3,3.2c0,0.1-0.1,0.1-0.1,0l-3.6-3.4  c0,0-0.1,0-0.1,0.1l-0.6,8.1C461.5,342,461.3,342,461.3,341.9z" style="fill:#FFD417;stroke:#000000;stroke-miterlimit:10;"/><path d="M604.3,348.4c-0.6,0.5-15.7,13-18.1,15.9  c-0.6,0.8-1.5,2-2.4,3.5c-2.1,3.2-4.6,7.4-6.2,10.4c-0.5,1.1-1,2-1.2,2.6c-0.3,0.8-0.8,2.6-1.4,4.8c-1.9,6.9-4.7,18.5-5.2,21.6  c-0.6,4.1-3.5,15.3-4.6,19.6s-7.8,18.5-9.1,21.3c-1.4,2.7-8.2,10.2-12.3,13.5c-4.1,3.3-11.4,5.2-16.2,6.2c-4.9,1.1-11.1,1.1-13.8,0  c-2.7-1.1-10-3.6-12.2-5.5c-2.2-1.8-4.9-6.5-7.2-10.7c-2.3-4.2-2.6-15.1-3.4-18.8c-0.8-3.6-2.9-8-3.9-10.5c-1.1-2.4-3.6-5-5.6-6.9  c-2-1.9-3.2-2.1-8.2-3c-5-0.9-5.6,0.2-9.3,1.7c-3.7,1.5-4.1,2.5-6.7,4c-1.6,0.9-3.3,2-4.7,0.3c-1-1.2-1.6-2.4-0.9-4.1  c0.8-1.7,3.6-3.2,5.8-4.6c2.3-1.4,8.3-3.2,12.9-3.3c4.5-0.2,8.9,0.4,12,2c3.1,1.6,8.9,5.5,11.8,11.1c2.9,5.6,3.8,14.3,4.4,18.9  c0.6,4.6,1.7,13,5.2,16.9s6.6,5.2,10.6,6.6c3.9,1.4,11.1,0.4,15.3-0.2c4.3-0.6,10.2-3.3,14.6-7.7c3.8-3.9,5.5-6.1,8.8-12.6  c3.3-6.5,7-16.9,8.4-21.3c1.4-4.4,5.2-16.4,7.1-24.4c1.3-5.2,2.3-9.1,3.5-12.6c0.7-1.9,1.5-3.8,2.4-5.7c0.3-0.6,0.6-1.2,0.8-1.8  c0.7-1.4,1.3-2.7,1.9-4c0.1-0.2,0.2-0.4,0.3-0.5c0.1-0.2,0.2-0.4,0.3-0.5c0.2-0.4,0.4-0.7,0.6-1.1c0.5-1,1.2-2,1.9-3.1  c0.8-1.2,1.8-2.5,3-4c5.3-6.8,5.6-4.7,10.6-8.7C599,350,604,348.5,604.3,348.4z" style="fill:#E7CA00;stroke:#000000;stroke-miterlimit:10;"/><path d="M810,558c0,0-0.4,3.4,0,6.3c-2.2-0.8-4.3-1.8-6.4-2.9  c-4.1-2.2-10.7-7.8-13.9-10.7c-3.1-2.8-6.4-7.1-9.1-11.8c-2.7-4.7-6.2-9.8-7.6-12.9c-1.3-3.1-7.4-17.6-9.3-21.3  c-1.9-3.7-5.5-9.3-7.4-12.1c-1.9-2.8-5.2-5.7-9.6-8.3c-3.8-2.2-6.5-3.2-10.3-3.4c-3.8-0.2-4.2,0.1-7.5,0.4c-1.5,0.1-2.8,0.6-3.8,1  c-1,0.4-1.7,0.8-2,1c0.9-0.6,6-4.1,9.5-5.7c3.8-1.8,11.4-2.2,14.2-1.5c2.8,0.7,8.9,2.7,12.3,4.9c3.4,2.2,9.5,7.9,11.5,11  c1.9,3.1,11.7,22.8,13.5,26.5c1.8,3.7,7.2,14.2,10.2,18.6c3,4.4,12.6,12.8,14.7,13.9c0.4,0.2,1.2,0.4,2.2,0.5  c-0.3,0.9-0.5,1.8-0.7,3C810.2,555.6,810.1,556.7,810,558z" style="fill:#64FF00;stroke:#000000;stroke-miterlimit:10;"/><path d="M900.3,618.3c-1-0.3-4-1.7-5.6-3.8c-1.6-2.1-2.3-8.1-2.9-10.5  c-0.6-2.4-2.5-5.9-5.3-9c-2.7-3.1-4.9-4-6.6-5.1c-1.7-1.1-6.6-3.1-7.1-3.9c-0.4-0.8-0.5-3.2,0.2-4.4c0.7-1.2,4.4-0.6,6-0.5  c1.6,0.2,6.4,1.5,7.8,1.5c1.5,0.1,3.7-1.5,3.7-1.5l-0.6-0.8c0,0-1.2,0.2-2,0c-0.8-0.2-3.3-1.3-4.1-1.7c-0.8-0.5-4.7-4.5-5.8-5.8  c-1.1-1.4-4.8-5.8-6.4-6.9c-1.3-0.8-6.1-3.8-8.7-5.6c-0.8-0.5-1.4-1-1.6-1.2c-0.5-0.5-2.5-3-4.1-5.2c0,0,0,0,0,0  c-1.2-1.6-2.2-3-2.5-3.4c-0.6-1-4.8-4.6-5.8-5.6c-0.1,0-0.1,0-0.1,0.1c0.5,1,2.2,4,2.8,5.3c0.5,1,1.2,2.7,1.9,4.4c0,0,0,0,0,0  c0.4,0.9,0.7,1.8,0.8,2.6c0.3,1.3,0.8,3.5,1.2,5.5c0.3,1.5,0.5,2.8,0.6,3.8c0.2,2.3,0.5,8.6,0.9,11.6c0.4,3,1.5,5.6,2.3,7.8  s2.6,4.9,3.5,8c0.8,3.1,0.5,7,0.1,8.4c-0.4,1.4-2.8,3.9-4.3,5.1c-1.5,1.2-5.5,1.9-8.6,2.7c-3.1,0.8-6.5,1.2-6.5,1.2s3.6,2.1,5.7,2.9  c2.1,0.8,3.9,2,6.8,2.8c2.9,0.8,6.1,0.8,8.9,0c2.8-0.8,5.2-2.9,6.6-4.4c1.4-1.5,3.6-2.2,5.3-2c1.6,0.2,3.5,1,5.4,2.9  c1.9,1.9,3.4,3.9,4.7,5.2c1.4,1.3,4.4,2.5,5.8,2.8c1.4,0.3,4.5-0.5,6.2-0.7c1.6-0.3,4.4-2.7,4.4-2.7S901.3,618.6,900.3,618.3z   M867.2,571.2c0,0,3.9-0.1,6,0.8c2.1,0.9,2.9,2.6,4.7,4c1.8,1.4,4.2,3,4.2,3l-0.5,0.9L867.2,571.2z M890.7,617.7  c-1.5-1-3.6-1.4-4.5-3.1c-0.9-1.7-1.6-2.6-2.6-4.3s-1.8-2.6-3.1-3.5c-1.3-0.8-3.5-1.4-5.3-1.2c-1.8,0.2-4.3,0.3-4.3,0.3  s1.4-1.6,2.4-1.7c1.1-0.1,2.6-0.7,4.3-0.2c1.7,0.5,3.6,1,4.6,1.7c1,0.7,3.3,2.7,3.3,2.7s-0.1-2.3-0.5-3.8c-0.4-1.5-1.2-2.6-2.2-4.6  c-1-2-1.8-3.7-3-4.6c-1.1-0.9-3.1-2.8-3.2-3c0.3,0.1,4.9,2.1,6,2.8c1.1,0.7,2.6,4,3.2,6c0.6,2,2.1,7.4,2.9,9.3  c0.8,1.9,1.7,3.8,2.8,5.1c1.1,1.3,3.1,2.1,3.1,2.1S892.3,618.7,890.7,617.7z" style="fill:#FFE500;stroke:#000000;stroke-miterlimit:10;"/><path d="M461.3,341.9l-2-10.6c0,0,0,0,0,0c0.3-0.5,5.3-10.2,6.4-10.2  c1,0,5.4,3.5,6.5,4.4c0.1,0.1,0.2,0,0.1-0.1l-3.3-6.9c0,0,0-0.1,0-0.1c0.3-0.4,3.8-4.7,6.4-6.7c2.7-2,7.6-5.1,8.1-5.4  c0,0,0.1,0,0.1,0l2.8,1.6c0.1,0,0.1,0,0.1-0.1v-3.3c0,0,0-0.1,0-0.1c0.5-0.3,6.2-3.8,8.9-5.3c2.7-1.4,8.7-5.4,9.2-5.8  c0,0,0.1,0,0.1,0l2.3,1.2c0.1,0,0.1,0,0.1-0.1v-3.6c0,0,0,0,0-0.1c0.4-0.4,6.3-5.7,7.1-8.2c0.8-2.6,3.1-12.4,3.6-13.7  c0.5-1.3,0.8-3.6,3.8-3s3.8,3.3,3.8,4.8s1.5,6.6,0,9.6c-1.4,2.8-11.1,16.8-12.4,18.6c0,0.1,0,0.1,0.1,0.1c1-0.4,4.7-1.9,6.9-4.2  c2.3-2.5,7.1-8.7,7.7-9.5c0,0,0.1,0,0.1,0l5.5,9.6c0,0.1,0.2,0,0.2-0.1l-1.4-10.8c0,0,0-0.1,0-0.1c0.6-0.2,5.4-2,7.4-3  c2.1-1,5.5-4.6,7.4-4.6c1.6,0,3.2,2,3.7,2.8c0.1,0.1,0.2,0,0.1-0.1l-1.1-5.4c0,0,0-0.1,0-0.1l14.5-16.3c0,0,0.1,0,0.1,0l4.4,1.9  c0.1,0,0.1,0,0.1-0.1l-2.2-4.9c0,0,0-0.1,0-0.1c0.9-0.5,11.6-6.8,13.5-7.4c2-0.7,6.6-2.1,8.6-2c2,0.2,4.8,1,5.1,3.1s-0.7,3-2.5,4.8  c-1.8,1.8-5,2.3-8.8,4c-3.8,1.7-7.9,4.1-10.7,7.7c-2.8,3.6-8.8,12.8-11.4,16c-2.6,3.1-9.8,10.9-12.7,13.3c-3,2.4-16.4,8.2-19,9.7  c-2.6,1.5-6.1,3.3-10.1,6c-3.8,2.5-13.9,12.1-14.8,13c0,0-0.1,0-0.1,0c-0.3-0.5-1.7-3.2,2.5-7.5c4.6-4.8,7.8-8.8,9.8-9.6  c1.7-0.7,1.7-1.7,1.7-1.9c0,0,0-0.1-0.1-0.1c-0.7-0.1-8.4-0.9-12-0.2c-3.8,0.8-8.3,1.7-10.6,3.6s-5,6.8-6.6,10.1  c-1.7,3.3-1.3,6.8-4.6,8.8c-3.3,2-7.6,4.5-10.1,5.1c-2.5,0.7-3.5,1-5.6,3.3c-1.7,1.9-2.2,2.9-2.3,3.2c0,0.1-0.1,0.1-0.1,0l-3.6-3.4  c0,0-0.1,0-0.1,0.1l-0.6,8.1C461.5,342,461.3,342,461.3,341.9z" style="fill:#FFD417;stroke:#000000;stroke-miterlimit:10;"/><path d="M604.3,348.4c-0.6,0.5-15.7,13-18.1,15.9  c-0.6,0.8-1.5,2-2.4,3.5c-2.1,3.2-4.6,7.4-6.2,10.4c-0.5,1.1-1,2-1.2,2.6c-0.3,0.8-0.8,2.6-1.4,4.8c-1.9,6.9-4.7,18.5-5.2,21.6  c-0.6,4.1-3.5,15.3-4.6,19.6s-7.8,18.5-9.1,21.3c-1.4,2.7-8.2,10.2-12.3,13.5c-4.1,3.3-11.4,5.2-16.2,6.2c-4.9,1.1-11.1,1.1-13.8,0  c-2.7-1.1-10-3.6-12.2-5.5c-2.2-1.8-4.9-6.5-7.2-10.7c-2.3-4.2-2.6-15.1-3.4-18.8c-0.8-3.6-2.9-8-3.9-10.5c-1.1-2.4-3.6-5-5.6-6.9  c-2-1.9-3.2-2.1-8.2-3c-5-0.9-5.6,0.2-9.3,1.7c-3.7,1.5-4.1,2.5-6.7,4c-1.6,0.9-3.3,2-4.7,0.3c-1-1.2-1.6-2.4-0.9-4.1  c0.8-1.7,3.6-3.2,5.8-4.6c2.3-1.4,8.3-3.2,12.9-3.3c4.5-0.2,8.9,0.4,12,2c3.1,1.6,8.9,5.5,11.8,11.1c2.9,5.6,3.8,14.3,4.4,18.9  c0.6,4.6,1.7,13,5.2,16.9s6.6,5.2,10.6,6.6c3.9,1.4,11.1,0.4,15.3-0.2c4.3-0.6,10.2-3.3,14.6-7.7c3.8-3.9,5.5-6.1,8.8-12.6  c3.3-6.5,7-16.9,8.4-21.3c1.4-4.4,5.2-16.4,7.1-24.4c1.3-5.2,2.3-9.1,3.5-12.6c0.7-1.9,1.5-3.8,2.4-5.7c0.3-0.6,0.6-1.2,0.8-1.8  c0.7-1.4,1.3-2.7,1.9-4c0.1-0.2,0.2-0.4,0.3-0.5c0.1-0.2,0.2-0.4,0.3-0.5c0.2-0.4,0.4-0.7,0.6-1.1c0.5-1,1.2-2,1.9-3.1  c0.8-1.2,1.8-2.5,3-4c5.3-6.8,5.6-4.7,10.6-8.7C599,350,604,348.5,604.3,348.4z" style="fill:#E7CA00;stroke:#000000;stroke-miterlimit:10;"/></svg>