<svg id="Layer_1" style="enable-background:new 0 0 841.89 595.276;" version="1.1" viewBox="0 0 841.89 595.276" x="0px" xml:space="preserve" xmlns="http://www.w3.org/2000/svg" xmlns:xlink="http://www.w3.org/1999/xlink" y="0px"><path d="M698.614,404.207c-0.125-0.88-0.494-1.829-1.186-2.845c-0.041-0.093-0.082-0.187-0.123-0.28  c-2.851-0.453-5.699-0.924-8.542-1.423c-1.885-0.331-3.767-0.674-5.646-1.034c-1.879-0.361-3.755-0.739-5.626-1.14  c-2.001-0.429-3.995-0.885-5.984-1.365c-1.989-0.48-3.972-0.984-5.953-1.496c-0.025-0.006-0.049-0.013-0.074-0.019  c1.317,2.157,2.483,3.947,3.521,5.435c2.473,3.163,4.945,6.326,7.418,9.489c1.8,2.791,3.19,4.659,4.285,5.874  c0.028-0.026,0.055-0.052,0.083-0.079c0.099-0.096,0.196-0.194,0.291-0.293c0.165-0.171,0.326-0.345,0.484-0.521  c0.17-0.19,0.336-0.383,0.502-0.575c0.43-0.496,0.866-0.988,1.333-1.455c0.283-0.282,0.577-0.555,0.882-0.817  c0.134-0.114,0.27-0.227,0.409-0.336c0.384-0.303,0.79-0.584,1.218-0.833c0.467-0.272,0.959-0.506,1.467-0.708  c0.394-0.157,0.796-0.294,1.205-0.415c0.329-0.097,0.662-0.184,0.995-0.27c0.422-0.109,0.843-0.216,1.263-0.332  c0.496-0.137,0.989-0.284,1.473-0.454c0.609-0.213,1.204-0.462,1.782-0.738c0.56-0.268,1.105-0.562,1.632-0.882  c0.374-0.228,0.739-0.469,1.089-0.727c0.29-0.214,0.569-0.44,0.833-0.679c0.272-0.247,0.529-0.51,0.756-0.792  c0.089-0.111,0.174-0.225,0.252-0.344" style="fill:none;stroke:red;stroke-width:0.0001px"/></svg>