<svg xmlns="http://www.w3.org/2000/svg" xmlns:xlink="http://www.w3.org/1999/xlink" version="1.1" id="Layer_1" x="0px" y="0px" viewBox="0 0 200 200" style="enable-background:new 0 0 200 200;" xml:space="preserve"><path style="fill:none;stroke:red;stroke-width:0.0001px" d="M107.1,21V0H94.5v20.8C82.8,21.6,71.4,25,61,30.8C47.4,38.5,36.4,50,29.3,64  c-7.1,13.9-9.9,29.6-8.1,45.2c0.5-1.6,1.1-3.3,1.7-4.9c0.7-1.9,1.3-3.8,2-5.7c0.6-1.8,1.3-3.5,2-5.3c0.6-1.6,1.3-3.2,2-4.9  c1.2-2.9,2.5-5.7,3.9-8.5c0.6-1.2,1.2-2.5,1.9-3.7c0.6-1.1,1.2-2.3,1.9-3.4c0.7-1.1,1.3-2.3,2.1-3.4c1.1-1.8,2.3-3.5,3.6-5.1  c1.1-1.4,2.3-2.8,3.5-4.1c1.1-1.1,2.2-2.2,3.4-3.2c1.1-0.9,2.2-1.7,3.3-2.4c1-0.7,2.1-1.3,3.2-1.8c1-0.5,2-0.9,3-1.3  c0.5-0.2,0.9-0.4,1.4-0.5c0.7-0.3,1.4-0.5,2.1-0.8c1.6-0.5,3.2-1,4.9-1.4c1.5-0.4,3-0.6,4.5-0.8c1.4-0.2,2.8-0.3,4.2-0.3  c0.7,0,1.4,0,2,0.1c0.7,0,1.3,0.1,2,0.2c1.3,0.2,2.6,0.4,3.9,0.7c1.3,0.3,2.6,0.7,3.8,1.1c0.6,0.2,1.3,0.4,1.9,0.7  c0.7,0.2,1.3,0.5,2,0.7c1.4,0.5,2.8,1.1,4.2,1.6c0.7,0.3,1.4,0.5,2.1,0.7c0.7,0.2,1.4,0.5,2.1,0.7c0.7,0.2,1.5,0.4,2.2,0.6  c0.8,0.2,1.6,0.3,2.4,0.4c0.8,0.1,1.7,0.2,2.5,0.3c0.9,0.1,1.8,0.1,2.7,0.1c1,0,1.9-0.1,2.9-0.2c1.1-0.1,2.1-0.3,3.1-0.4  c1.1-0.2,2.3-0.5,3.4-0.8c1.2-0.3,2.4-0.7,3.6-1.1c1.3-0.5,2.6-1,3.9-1.5c0.7-0.3,1.4-0.6,2.1-0.9c0.7-0.3,1.5-0.7,2.2-1  c1.5-0.8,3.1-1.6,4.5-2.4c1.6-0.9,3.2-1.9,4.7-3c1.7-1.1,3.3-2.4,4.9-3.6c1.2-1,2.4-2,3.5-3C136.7,28,122.2,22.3,107.1,21z"/></svg>