<svg xmlns="http://www.w3.org/2000/svg" xmlns:xlink="http://www.w3.org/1999/xlink" version="1.1" id="Layer_1" x="0px" y="0px" viewBox="0 0 200 200" style="enable-background:new 0 0 200 200;" xml:space="preserve"><path style="fill:none;stroke:red;stroke-width:0.0001px" d="M162.9,51.6c-3.5-4.6-7.5-8.7-11.9-12.4c-6.9,6.3-13.8,10.5-19.8,13.4c-21.4,10.2-32.6,4.3-41.6,0.8  c-9-3.4-15.9-4.4-28.1,0c-9.9,3.6-23.2,10.7-39.3,62.3c1.3,6.4,3.4,12.7,6.2,18.6c1-3.4,2-6.7,3.1-10.1c0.9-2.7,1.8-5.4,2.7-8  c0.9-2.6,1.9-5.2,3-7.8c1-2.5,2-5,3.2-7.4c1.1-2.3,2.2-4.6,3.4-6.9c0.4-0.7,0.8-1.5,1.2-2.2c0.9-1.6,1.8-3.2,2.8-4.8  c0.8-1.3,1.7-2.5,2.5-3.7c0.8-1.1,1.6-2.2,2.5-3.2c1-1.2,2-2.3,3.1-3.4c1.1-1.1,2.3-2.1,3.5-3.1c0.3-0.2,0.6-0.5,0.9-0.7  c0.5-0.3,0.9-0.7,1.4-1c0.9-0.6,1.9-1.2,2.9-1.7c0.5-0.3,1-0.5,1.5-0.7c0.3-0.1,0.5-0.2,0.8-0.3c0.2-0.1,0.5-0.2,0.7-0.3  c0.8-0.3,1.6-0.6,2.5-0.9c0.8-0.3,1.7-0.6,2.5-0.8c0.4-0.1,0.8-0.2,1.1-0.3c0.3-0.1,0.7-0.2,1-0.3c0.7-0.2,1.4-0.3,2.1-0.5  c0.8-0.2,1.7-0.3,2.5-0.4c1-0.1,2-0.2,3-0.3c1-0.1,2-0.1,3,0c1,0,2.1,0.1,3.1,0.3c1.1,0.1,2.1,0.3,3.2,0.6c0.8,0.2,1.6,0.4,2.4,0.6  c0.7,0.2,1.3,0.4,2,0.6c1.3,0.4,2.5,0.9,3.8,1.3c0.8,0.3,1.6,0.6,2.4,0.8c0.7,0.3,1.5,0.5,2.2,0.7c1.4,0.5,2.9,0.9,4.4,1.2  c0.7,0.2,1.5,0.3,2.2,0.4c0.4,0.1,0.9,0.1,1.3,0.2c0.5,0.1,0.9,0.1,1.4,0.2c0.9,0.1,1.8,0.2,2.7,0.2c0.9,0,1.8,0,2.7,0  c1.8-0.1,3.5-0.2,5.3-0.5c0.9-0.1,1.8-0.3,2.7-0.5c0.3-0.1,0.7-0.1,1-0.2c1-0.2,2-0.5,3-0.8c1-0.3,2-0.6,2.9-0.9  c0.6-0.2,1.3-0.4,1.9-0.6c0.8-0.3,1.5-0.6,2.3-0.8c1.5-0.6,3-1.2,4.4-1.9c0.7-0.3,1.4-0.7,2.1-1.1c0.2-0.1,0.4-0.2,0.6-0.3  c0.2-0.1,0.3-0.2,0.5-0.3c1.8-0.9,3.5-2,5.1-3.1c1.6-1.1,3.2-2.2,4.8-3.5c0.8-0.7,1.7-1.4,2.5-2.1c0.9-0.8,1.9-1.7,2.8-2.5  C161.6,52.9,162.3,52.3,162.9,51.6z"/><path style="fill:none;stroke:red;stroke-width:0.0001px" d="M157.3,154.9c4-4.2,7.6-8.9,10.6-13.9c-1.5-0.6-3-1.2-4.5-1.8c-2.9-1.1-5.9-2.3-9-3.6  c-0.1,0-0.2-0.1-0.4-0.1c-2.5-1-5-2-7.6-3c-1.6-0.6-3.3-1.3-5-1.9c-0.5-0.2-1-0.4-1.4-0.5c-3-1.1-6-2.2-9.3-3.3  c-0.3-0.1-0.6-0.2-0.9-0.3c-2.7-0.9-5.5-1.7-8.3-2.5c-2.3-0.6-4.6-1.1-7-1.4c-3.7-0.5-7.3-0.4-10.7,0.2c-1.2,0.2-2.4,0.5-3.6,0.8  c-1.4,0.4-2.8,0.8-4.1,1.4c-1.7,0.7-3.2,1.5-4.8,2.4c-2.1,1.3-4,2.8-5.8,4.5c-1.8,1.7-3.5,3.6-5.1,5.6c-0.7,0.9-1.4,1.9-2.1,2.9  c-6,8.8-10.2,19.9-13.3,31c3.4,1.7,6.9,3.1,10.5,4.2c0.2-0.5,0.3-0.9,0.5-1.4c0.8-2.2,1.6-4.4,2.5-6.5c0.8-2,1.8-3.9,2.8-5.8  c0.9-1.7,1.9-3.4,3-5.1c1-1.5,2.1-3,3.2-4.4c1.1-1.3,2.2-2.6,3.4-3.8c1.1-1.1,2.3-2.2,3.5-3.2c1.2-0.9,2.4-1.8,3.7-2.6  c1.2-0.8,2.5-1.4,3.7-2.1c1.2-0.6,2.5-1.1,3.8-1.6c1.2-0.4,2.5-0.8,3.8-1.1c1.2-0.3,2.5-0.5,3.8-0.7c2.4-0.3,4.9-0.4,7.3-0.3  c2.3,0.1,4.5,0.4,6.8,0.8c1.1,0.2,2.1,0.4,3.2,0.7c1,0.3,2,0.5,3.1,0.9c1,0.3,2,0.7,3,1.1c1,0.4,2,0.9,3,1.4c1,0.5,2,1.1,3,1.6  c1,0.6,2,1.3,3,1.9c1.1,0.7,2.1,1.5,3.2,2.3c1.1,0.9,2.2,1.7,3.3,2.6c1.2,1,2.4,2,3.6,3C156.2,153.9,156.8,154.4,157.3,154.9z"/></svg>