<svg height="18in" id="Layer_1" version="1.1" width="32in" x="0px" xml:space="preserve" xmlns="http://www.w3.org/2000/svg" xmlns:xlink="http://www.w3.org/1999/xlink" y="0px"><g transform="translate(94.59653282640573 217.90353282640575) rotate(-45 420.945 297.638)"><path d="M543.149,278.077c5.194-4.253,8.763-5.217,11.825-5.908c3.892-0.879,6.966-1.318,10.342-0.845  c3.376,0.473,7.055,1.859,11.076,3.615c4.022,1.756,8.386,3.882,11.647,5.349c3.26,1.467,5.417,2.276,6.732,2.829  c1.315,0.553,1.787,0.851,2.068,1.391s0.372,1.322-0.795,2.702c-1.167,1.381-3.591,3.36-5.64,5.329  c-2.049,1.969-3.724,3.927-4.768,5.494c-1.044,1.567-1.455,2.743-1.14,4.428c0.316,1.684,1.36,3.877,2.672,6.59  c1.312,2.713,2.891,5.946,4.259,9.123c1.367,3.177,2.523,6.299,2.598,8.781c0.075,2.481-0.929,4.322-2.55,5.983  c-1.621,1.66-3.859,3.141-6.08,3.684c-2.221,0.543-4.426,0.149-7.352-0.861s-6.575-2.637-9.404-4.241  c-2.829-1.604-4.838-3.186-6.666-5.299c-1.828-2.113-3.473-4.756-4.633-7.308c-1.16-2.552-1.834-5.012-2.215-6.848  c-0.381-1.836-0.468-3.048-1.234-5.211c-0.596-1.684-1.604-3.944-4.619-7.502c0.354-0.088,0.704-0.189,1.048-0.308  c0.244-0.084,0.484-0.178,0.72-0.282c0.258-0.114,0.511-0.24,0.756-0.381c0.267-0.152,0.524-0.321,0.77-0.505  c0.26-0.195,0.507-0.408,0.738-0.638c0.232-0.23,0.447-0.478,0.644-0.739c0.095-0.126,0.186-0.256,0.273-0.388  c0.067-0.103,0.132-0.207,0.194-0.313c0.073-0.126,0.143-0.254,0.209-0.383c0.121-0.24,0.229-0.486,0.324-0.738  c0.086-0.229,0.162-0.461,0.228-0.697c0.116-0.414,0.201-0.836,0.259-1.262c0.05-0.372,0.079-0.746,0.09-1.121  c0.01-0.337,0.005-0.674-0.013-1.011c-0.014-0.263-0.037-0.525-0.068-0.787c0.282,0.136,0.573,0.253,0.87,0.351  c0.308,0.101,0.623,0.182,0.941,0.241c0.311,0.058,0.626,0.095,0.941,0.112c0.307,0.016,0.615,0.014,0.921-0.008  c0.588-0.041,1.171-0.151,1.735-0.324c0.538-0.165,1.059-0.386,1.553-0.656c0.478-0.261,0.931-0.568,1.354-0.911  c0.388-0.315,0.751-0.66,1.088-1.028c0.32-0.35,0.618-0.72,0.89-1.109c0.277-0.397,0.528-0.812,0.744-1.245  c0.135-0.271,0.257-0.549,0.362-0.832c0.105-0.283,0.194-0.572,0.264-0.866c0.083-0.351,0.139-0.708,0.165-1.068  c0.029-0.412,0.018-0.827-0.035-1.237c-0.058-0.444-0.165-0.882-0.319-1.303c-0.155-0.42-0.357-0.823-0.601-1.198  c-0.224-0.344-0.482-0.664-0.77-0.957c-0.248-0.252-0.518-0.483-0.804-0.691c-0.242-0.176-0.495-0.335-0.758-0.479  c-0.163-0.089-0.329-0.172-0.498-0.25c-0.21-0.096-0.423-0.183-0.64-0.262c-0.193-0.07-0.389-0.134-0.586-0.192  c-0.193-0.057-0.386-0.11-0.581-0.158c-0.411-0.1-0.826-0.179-1.245-0.236c-0.464-0.063-0.931-0.099-1.399-0.104  c-0.259-0.003-0.518,0.004-0.776,0.022c-0.282,0.019-0.562,0.052-0.841,0.097c-0.309,0.05-0.616,0.117-0.918,0.203  c-0.339,0.097-0.671,0.218-0.993,0.361c-0.669,0.298-1.292,0.699-1.841,1.183c-0.261,0.23-0.506,0.479-0.731,0.745  c-0.218,0.256-0.417,0.526-0.598,0.809c-0.345,0.54-0.619,1.124-0.817,1.734c-0.192,0.591-0.311,1.205-0.354,1.825  c-0.012,0.17-0.018,0.339-0.018,0.509c-0.554-0.482-1.121-0.948-1.699-1.399c-0.348-0.271-0.7-0.537-1.058-0.796  c-0.359-0.259-0.723-0.512-1.094-0.754c-0.379-0.247-0.764-0.483-1.159-0.702c-0.211-0.117-0.425-0.228-0.642-0.333  c-0.229-0.11-0.461-0.213-0.696-0.308c-0.51-0.205-1.036-0.372-1.573-0.491C543.2,278.088,543.174,278.082,543.149,278.077z" style="fill:none;stroke:red;stroke-width:0.0001px"/><path d="M543.149,278.077c5.194-4.253,8.763-5.217,11.825-5.908c3.892-0.879,6.966-1.318,10.342-0.845  c3.376,0.473,7.055,1.859,11.076,3.615c4.022,1.756,8.386,3.882,11.647,5.349c3.26,1.467,5.417,2.276,6.732,2.829  c1.315,0.553,1.787,0.851,2.068,1.391s0.372,1.322-0.795,2.702c-1.167,1.381-3.591,3.36-5.64,5.329  c-2.049,1.969-3.724,3.927-4.768,5.494c-1.044,1.567-1.455,2.743-1.14,4.428c0.316,1.684,1.36,3.877,2.672,6.59  c1.312,2.713,2.891,5.946,4.259,9.123c1.367,3.177,2.523,6.299,2.598,8.781c0.075,2.481-0.929,4.322-2.55,5.983  c-1.621,1.66-3.859,3.141-6.08,3.684c-2.221,0.543-4.426,0.149-7.352-0.861s-6.575-2.637-9.404-4.241  c-2.829-1.604-4.838-3.186-6.666-5.299c-1.828-2.113-3.473-4.756-4.633-7.308c-1.16-2.552-1.834-5.012-2.215-6.848  c-0.381-1.836-0.468-3.048-1.234-5.211c-0.596-1.684-1.604-3.944-4.619-7.502c0.354-0.088,0.704-0.189,1.048-0.308  c0.244-0.084,0.484-0.178,0.72-0.282c0.258-0.114,0.511-0.24,0.756-0.381c0.267-0.152,0.524-0.321,0.77-0.505  c0.26-0.195,0.507-0.408,0.738-0.638c0.232-0.23,0.447-0.478,0.644-0.739c0.095-0.126,0.186-0.256,0.273-0.388  c0.067-0.103,0.132-0.207,0.194-0.313c0.073-0.126,0.143-0.254,0.209-0.383c0.121-0.24,0.229-0.486,0.324-0.738  c0.086-0.229,0.162-0.461,0.228-0.697c0.116-0.414,0.201-0.836,0.259-1.262c0.05-0.372,0.079-0.746,0.09-1.121  c0.01-0.337,0.005-0.674-0.013-1.011c-0.014-0.263-0.037-0.525-0.068-0.787c0.282,0.136,0.573,0.253,0.87,0.351  c0.308,0.101,0.623,0.182,0.941,0.241c0.311,0.058,0.626,0.095,0.941,0.112c0.307,0.016,0.615,0.014,0.921-0.008  c0.588-0.041,1.171-0.151,1.735-0.324c0.538-0.165,1.059-0.386,1.553-0.656c0.478-0.261,0.931-0.568,1.354-0.911  c0.388-0.315,0.751-0.66,1.088-1.028c0.32-0.35,0.618-0.72,0.89-1.109c0.277-0.397,0.528-0.812,0.744-1.245  c0.135-0.271,0.257-0.549,0.362-0.832c0.105-0.283,0.194-0.572,0.264-0.866c0.083-0.351,0.139-0.708,0.165-1.068  c0.029-0.412,0.018-0.827-0.035-1.237c-0.058-0.444-0.165-0.882-0.319-1.303c-0.155-0.42-0.357-0.823-0.601-1.198  c-0.224-0.344-0.482-0.664-0.77-0.957c-0.248-0.252-0.518-0.483-0.804-0.691c-0.242-0.176-0.495-0.335-0.758-0.479  c-0.163-0.089-0.329-0.172-0.498-0.25c-0.21-0.096-0.423-0.183-0.64-0.262c-0.193-0.07-0.389-0.134-0.586-0.192  c-0.193-0.057-0.386-0.11-0.581-0.158c-0.411-0.1-0.826-0.179-1.245-0.236c-0.464-0.063-0.931-0.099-1.399-0.104  c-0.259-0.003-0.518,0.004-0.776,0.022c-0.282,0.019-0.562,0.052-0.841,0.097c-0.309,0.05-0.616,0.117-0.918,0.203  c-0.339,0.097-0.671,0.218-0.993,0.361c-0.669,0.298-1.292,0.699-1.841,1.183c-0.261,0.23-0.506,0.479-0.731,0.745  c-0.218,0.256-0.417,0.526-0.598,0.809c-0.345,0.54-0.619,1.124-0.817,1.734c-0.192,0.591-0.311,1.205-0.354,1.825  c-0.012,0.17-0.018,0.339-0.018,0.509c-0.554-0.482-1.121-0.948-1.699-1.399c-0.348-0.271-0.7-0.537-1.058-0.796  c-0.359-0.259-0.723-0.512-1.094-0.754c-0.379-0.247-0.764-0.483-1.159-0.702c-0.211-0.117-0.425-0.228-0.642-0.333  c-0.229-0.11-0.461-0.213-0.696-0.308c-0.51-0.205-1.036-0.372-1.573-0.491C543.2,278.088,543.174,278.082,543.149,278.077z" style="fill:none;stroke:red;stroke-width:0.0001px"/><path d="M543.149,278.077c5.194-4.253,8.763-5.217,11.825-5.908c3.892-0.879,6.966-1.318,10.342-0.845  c3.376,0.473,7.055,1.859,11.076,3.615c4.022,1.756,8.386,3.882,11.647,5.349c3.26,1.467,5.417,2.276,6.732,2.829  c1.315,0.553,1.787,0.851,2.068,1.391s0.372,1.322-0.795,2.702c-1.167,1.381-3.591,3.36-5.64,5.329  c-2.049,1.969-3.724,3.927-4.768,5.494c-1.044,1.567-1.455,2.743-1.14,4.428c0.316,1.684,1.36,3.877,2.672,6.59  c1.312,2.713,2.891,5.946,4.259,9.123c1.367,3.177,2.523,6.299,2.598,8.781c0.075,2.481-0.929,4.322-2.55,5.983  c-1.621,1.66-3.859,3.141-6.08,3.684c-2.221,0.543-4.426,0.149-7.352-0.861s-6.575-2.637-9.404-4.241  c-2.829-1.604-4.838-3.186-6.666-5.299c-1.828-2.113-3.473-4.756-4.633-7.308c-1.16-2.552-1.834-5.012-2.215-6.848  c-0.381-1.836-0.468-3.048-1.234-5.211c-0.596-1.684-1.604-3.944-4.619-7.502c0.354-0.088,0.704-0.189,1.048-0.308  c0.244-0.084,0.484-0.178,0.72-0.282c0.258-0.114,0.511-0.24,0.756-0.381c0.267-0.152,0.524-0.321,0.77-0.505  c0.26-0.195,0.507-0.408,0.738-0.638c0.232-0.23,0.447-0.478,0.644-0.739c0.095-0.126,0.186-0.256,0.273-0.388  c0.067-0.103,0.132-0.207,0.194-0.313c0.073-0.126,0.143-0.254,0.209-0.383c0.121-0.24,0.229-0.486,0.324-0.738  c0.086-0.229,0.162-0.461,0.228-0.697c0.116-0.414,0.201-0.836,0.259-1.262c0.05-0.372,0.079-0.746,0.09-1.121  c0.01-0.337,0.005-0.674-0.013-1.011c-0.014-0.263-0.037-0.525-0.068-0.787c0.282,0.136,0.573,0.253,0.87,0.351  c0.308,0.101,0.623,0.182,0.941,0.241c0.311,0.058,0.626,0.095,0.941,0.112c0.307,0.016,0.615,0.014,0.921-0.008  c0.588-0.041,1.171-0.151,1.735-0.324c0.538-0.165,1.059-0.386,1.553-0.656c0.478-0.261,0.931-0.568,1.354-0.911  c0.388-0.315,0.751-0.66,1.088-1.028c0.32-0.35,0.618-0.72,0.89-1.109c0.277-0.397,0.528-0.812,0.744-1.245  c0.135-0.271,0.257-0.549,0.362-0.832c0.105-0.283,0.194-0.572,0.264-0.866c0.083-0.351,0.139-0.708,0.165-1.068  c0.029-0.412,0.018-0.827-0.035-1.237c-0.058-0.444-0.165-0.882-0.319-1.303c-0.155-0.42-0.357-0.823-0.601-1.198  c-0.224-0.344-0.482-0.664-0.77-0.957c-0.248-0.252-0.518-0.483-0.804-0.691c-0.242-0.176-0.495-0.335-0.758-0.479  c-0.163-0.089-0.329-0.172-0.498-0.25c-0.21-0.096-0.423-0.183-0.64-0.262c-0.193-0.07-0.389-0.134-0.586-0.192  c-0.193-0.057-0.386-0.11-0.581-0.158c-0.411-0.1-0.826-0.179-1.245-0.236c-0.464-0.063-0.931-0.099-1.399-0.104  c-0.259-0.003-0.518,0.004-0.776,0.022c-0.282,0.019-0.562,0.052-0.841,0.097c-0.309,0.05-0.616,0.117-0.918,0.203  c-0.339,0.097-0.671,0.218-0.993,0.361c-0.669,0.298-1.292,0.699-1.841,1.183c-0.261,0.23-0.506,0.479-0.731,0.745  c-0.218,0.256-0.417,0.526-0.598,0.809c-0.345,0.54-0.619,1.124-0.817,1.734c-0.192,0.591-0.311,1.205-0.354,1.825  c-0.012,0.17-0.018,0.339-0.018,0.509c-0.554-0.482-1.121-0.948-1.699-1.399c-0.348-0.271-0.7-0.537-1.058-0.796  c-0.359-0.259-0.723-0.512-1.094-0.754c-0.379-0.247-0.764-0.483-1.159-0.702c-0.211-0.117-0.425-0.228-0.642-0.333  c-0.229-0.11-0.461-0.213-0.696-0.308c-0.51-0.205-1.036-0.372-1.573-0.491C543.2,278.088,543.174,278.082,543.149,278.077z" style="fill:none;stroke:red;stroke-width:0.0001px"/><path d="M198.428,165.554c-1.049,0-1.786,0.51-2.211,0.964c-0.596,0.651-0.737,1.332-0.879,1.956h6.039   c-0.085-0.624-0.198-1.446-0.822-2.098C200.016,165.837,199.193,165.554,198.428,165.554z" style="fill:none;stroke:red;stroke-width:0.0001px"/><path d="M198.428,165.554c-1.049,0-1.786,0.51-2.211,0.964c-0.596,0.651-0.737,1.332-0.879,1.956h6.039   c-0.085-0.624-0.198-1.446-0.822-2.098C200.016,165.837,199.193,165.554,198.428,165.554z" style="fill:none;stroke:red;stroke-width:0.0001px"/><path d="M198.428,165.554c-1.049,0-1.786,0.51-2.211,0.964c-0.596,0.651-0.737,1.332-0.879,1.956h6.039   c-0.085-0.624-0.198-1.446-0.822-2.098C200.016,165.837,199.193,165.554,198.428,165.554z" style="fill:none;stroke:red;stroke-width:0.0001px"/><path d="M406.771,161.925h-2.013v11.766h1.531c2.665-0.057,6.351-0.199,6.351-5.954   c0-1.39-0.142-2.778-1.049-4.025C410.23,161.897,408.303,161.925,406.771,161.925z" style="fill:none;stroke:red;stroke-width:0.0001px"/><path d="M406.771,161.925h-2.013v11.766h1.531c2.665-0.057,6.351-0.199,6.351-5.954   c0-1.39-0.142-2.778-1.049-4.025C410.23,161.897,408.303,161.925,406.771,161.925z" style="fill:none;stroke:red;stroke-width:0.0001px"/><path d="M406.771,161.925h-2.013v11.766h1.531c2.665-0.057,6.351-0.199,6.351-5.954   c0-1.39-0.142-2.778-1.049-4.025C410.23,161.897,408.303,161.925,406.771,161.925z" style="fill:none;stroke:red;stroke-width:0.0001px"/><path d="M382.083,165.554c-1.049,0-1.786,0.51-2.211,0.964c-0.596,0.651-0.737,1.332-0.879,1.956h6.039   c-0.085-0.624-0.198-1.446-0.822-2.098C383.67,165.837,382.848,165.554,382.083,165.554z" style="fill:none;stroke:red;stroke-width:0.0001px"/><path d="M382.083,165.554c-1.049,0-1.786,0.51-2.211,0.964c-0.596,0.651-0.737,1.332-0.879,1.956h6.039   c-0.085-0.624-0.198-1.446-0.822-2.098C383.67,165.837,382.848,165.554,382.083,165.554z" style="fill:none;stroke:red;stroke-width:0.0001px"/><path d="M382.083,165.554c-1.049,0-1.786,0.51-2.211,0.964c-0.596,0.651-0.737,1.332-0.879,1.956h6.039   c-0.085-0.624-0.198-1.446-0.822-2.098C383.67,165.837,382.848,165.554,382.083,165.554z" style="fill:none;stroke:red;stroke-width:0.0001px"/><path d="M246.248,165.554c-1.049,0-1.786,0.51-2.211,0.964c-0.595,0.651-0.737,1.332-0.879,1.956h6.039   c-0.085-0.624-0.198-1.446-0.822-2.098C247.835,165.837,247.013,165.554,246.248,165.554z" style="fill:none;stroke:red;stroke-width:0.0001px"/><path d="M246.248,165.554c-1.049,0-1.786,0.51-2.211,0.964c-0.595,0.651-0.737,1.332-0.879,1.956h6.039   c-0.085-0.624-0.198-1.446-0.822-2.098C247.835,165.837,247.013,165.554,246.248,165.554z" style="fill:none;stroke:red;stroke-width:0.0001px"/><path d="M246.248,165.554c-1.049,0-1.786,0.51-2.211,0.964c-0.595,0.651-0.737,1.332-0.879,1.956h6.039   c-0.085-0.624-0.198-1.446-0.822-2.098C247.835,165.837,247.013,165.554,246.248,165.554z" style="fill:none;stroke:red;stroke-width:0.0001px"/><path d="M298.376,165.922c-1.248,0.085-1.984,0.511-2.58,1.446c-0.539,0.851-0.737,1.871-0.737,2.892   c0,2.353,1.134,4.423,3.572,4.423c2.353,0,3.515-1.899,3.515-4.225c0-1.645-0.397-2.92-1.219-3.714   C300.021,165.894,299,165.866,298.376,165.922z" style="fill:none;stroke:red;stroke-width:0.0001px"/><path d="M298.376,165.922c-1.248,0.085-1.984,0.511-2.58,1.446c-0.539,0.851-0.737,1.871-0.737,2.892   c0,2.353,1.134,4.423,3.572,4.423c2.353,0,3.515-1.899,3.515-4.225c0-1.645-0.397-2.92-1.219-3.714   C300.021,165.894,299,165.866,298.376,165.922z" style="fill:none;stroke:red;stroke-width:0.0001px"/><path d="M298.376,165.922c-1.248,0.085-1.984,0.511-2.58,1.446c-0.539,0.851-0.737,1.871-0.737,2.892   c0,2.353,1.134,4.423,3.572,4.423c2.353,0,3.515-1.899,3.515-4.225c0-1.645-0.397-2.92-1.219-3.714   C300.021,165.894,299,165.866,298.376,165.922z" style="fill:none;stroke:red;stroke-width:0.0001px"/><path d="M212.005,173.407c0,0.709,0.624,1.503,1.645,1.503c0.539,0,1.049-0.198,1.502-0.482   c1.446-0.907,1.502-2.268,1.531-3.799l-2.807,0.936C213.14,171.848,212.005,172.273,212.005,173.407z" style="fill:none;stroke:red;stroke-width:0.0001px"/><path d="M212.005,173.407c0,0.709,0.624,1.503,1.645,1.503c0.539,0,1.049-0.198,1.502-0.482   c1.446-0.907,1.502-2.268,1.531-3.799l-2.807,0.936C213.14,171.848,212.005,172.273,212.005,173.407z" style="fill:none;stroke:red;stroke-width:0.0001px"/><path d="M212.005,173.407c0,0.709,0.624,1.503,1.645,1.503c0.539,0,1.049-0.198,1.502-0.482   c1.446-0.907,1.502-2.268,1.531-3.799l-2.807,0.936C213.14,171.848,212.005,172.273,212.005,173.407z" style="fill:none;stroke:red;stroke-width:0.0001px"/><path d="M303.35,210.608c0,0.619,0.545,1.312,1.437,1.312c0.471,0,0.916-0.173,1.312-0.421   c1.263-0.792,1.312-1.98,1.337-3.318l-2.452,0.817C304.341,209.247,303.35,209.618,303.35,210.608z" style="fill:none;stroke:red;stroke-width:0.0001px"/><path d="M303.35,210.608c0,0.619,0.545,1.312,1.437,1.312c0.471,0,0.916-0.173,1.312-0.421   c1.263-0.792,1.312-1.98,1.337-3.318l-2.452,0.817C304.341,209.247,303.35,209.618,303.35,210.608z" style="fill:none;stroke:red;stroke-width:0.0001px"/><path d="M303.35,210.608c0,0.619,0.545,1.312,1.437,1.312c0.471,0,0.916-0.173,1.312-0.421   c1.263-0.792,1.312-1.98,1.337-3.318l-2.452,0.817C304.341,209.247,303.35,209.618,303.35,210.608z" style="fill:none;stroke:red;stroke-width:0.0001px"/><path d="M172.265,161.386h-3.175v6.067h3.005c1.871,0,4.139-0.057,4.139-3.147   C176.234,161.386,173.711,161.386,172.265,161.386z" style="fill:none;stroke:red;stroke-width:0.0001px"/><path d="M172.265,161.386h-3.175v6.067h3.005c1.871,0,4.139-0.057,4.139-3.147   C176.234,161.386,173.711,161.386,172.265,161.386z" style="fill:none;stroke:red;stroke-width:0.0001px"/><path d="M172.265,161.386h-3.175v6.067h3.005c1.871,0,4.139-0.057,4.139-3.147   C176.234,161.386,173.711,161.386,172.265,161.386z" style="fill:none;stroke:red;stroke-width:0.0001px"/><path d="M516.101,195.816v-33.043c0-37.577-30.745-68.322-68.322-68.322H180.061   c-37.577,0-68.322,30.745-68.322,68.322v33.043c0,37.577,30.745,68.322,68.322,68.322H440.46   c6.311,7.409,19.11,14.092,39.175,24.563c5.976,3.119,22.002,11.482,24.531,8.177c1.364-1.783-2.072-5.82-5.451-11.811   c-4.738-8.401-6.55-17.5-9.724-34.863C505.432,237.697,516.101,217.945,516.101,195.816z M330.748,162.435   c0.879,0,3.43,0.085,5.33,2.127c1.928,2.069,2.041,4.961,2.098,6.634h-10.575c-0.028,1.843,1.021,3.686,3.374,3.686   c2.382,0,3.204-1.56,3.742-2.608l3.289,1.673c-0.51,0.766-1.021,1.503-1.786,2.211c-1.276,1.191-3.204,2.099-5.585,2.099   c-4.395,0-7.485-2.807-7.485-7.655C323.15,167.028,324.908,162.435,330.748,162.435z M283.409,157.701h4.366v20.016h-4.366V157.701   z M180.544,167.454c-1.729,3.572-5.415,3.657-8.137,3.714h-3.317v6.549h-5.018v-20.016h8.052c3.289,0,6.209,0,7.966,2.523   c0.766,1.134,1.134,2.75,1.134,4.11C181.224,165.44,180.997,166.518,180.544,167.454z M187.968,177.716h-4.366v-20.016h4.366   V177.716z M198.683,174.881c2.381,0,3.204-1.56,3.743-2.608l3.289,1.673c-0.51,0.766-1.021,1.503-1.786,2.211   c-1.276,1.191-3.204,2.099-5.585,2.099c-4.394,0-7.484-2.807-7.484-7.655c0-3.572,1.758-8.165,7.598-8.165   c0.879,0,3.43,0.085,5.33,2.127c1.928,2.069,2.042,4.961,2.098,6.634H195.31C195.281,173.039,196.33,174.881,198.683,174.881z    M217.108,177.716v-1.361c-1.105,0.822-2.353,1.758-4.536,1.758c-3.402,0-4.848-2.438-4.848-4.508c0-2.381,1.899-3.742,3.119-4.252   c1.19-0.511,3.997-1.021,5.84-1.361v-0.794c-0.057-0.68-0.114-1.814-1.673-1.814c-1.928,0-2.183,1.191-2.296,1.729h-4.366   c0.085-1.021,0.227-2.239,1.56-3.288c1.361-1.077,3.118-1.305,4.848-1.305c1.814,0,6.209,0.426,6.209,4.253v8.618   c0,1.588,0.085,1.814,0.425,2.325H217.108z M230.119,178.084c-4.111,0-6.237-1.984-7.173-2.863l2.75-2.495   c1.191,1.163,2.665,2.042,4.309,2.042c1.049,0,2.637-0.341,2.637-1.446c0-0.51-0.312-0.709-0.567-0.851   c-0.652-0.34-1.673-0.425-2.523-0.566c-0.652-0.114-1.332-0.256-1.984-0.454c-0.907-0.255-1.814-0.624-2.466-1.275   c-0.652-0.652-1.106-1.673-1.106-2.778c0-2.438,2.098-4.962,6.237-4.962c3.487,0,5.585,1.503,6.605,2.212l-2.693,2.494   c-1.389-1.077-2.693-1.474-3.714-1.474c-1.701,0-2.098,0.68-2.098,1.105c0,0.851,0.936,1.021,2.353,1.275   c2.977,0.539,6.436,1.333,6.436,4.849C237.122,176.384,233.606,178.084,230.119,178.084z M246.503,174.881   c2.382,0,3.204-1.56,3.742-2.608l3.289,1.673c-0.51,0.766-1.021,1.503-1.786,2.211c-1.276,1.191-3.204,2.099-5.585,2.099   c-4.395,0-7.485-2.807-7.485-7.655c0-3.572,1.758-8.165,7.598-8.165c0.879,0,3.43,0.085,5.33,2.127   c1.928,2.069,2.041,4.961,2.098,6.634h-10.575C243.101,173.039,244.15,174.881,246.503,174.881z M263.084,167.68   c0-5.926,4.026-10.604,9.696-10.604c2.296,0,4.337,0.794,5.84,1.984c1.389,1.106,2.041,2.212,2.608,3.204l-3.969,1.984   c-0.284-0.652-0.624-1.332-1.503-2.069c-0.964-0.766-1.928-0.992-2.75-0.992c-3.232,0-4.933,3.005-4.933,6.351   c0,4.395,2.24,6.577,4.933,6.577c2.608,0,3.657-1.814,4.338-2.977l3.941,2.013c-0.737,1.162-1.446,2.297-3.034,3.402   c-0.851,0.595-2.807,1.758-5.585,1.758C267.365,178.312,263.084,174.456,263.084,167.68z M283.779,200.331h-4.532v14.042h-4.384   v-14.042h-4.557v-3.467h13.472V200.331z M296.858,214.373h-3.789v-6.761c0-1.04-0.025-1.535-0.173-1.981   c-0.372-1.164-1.387-1.288-1.783-1.288c-0.668,0-1.238,0.322-1.56,0.743c-0.495,0.669-0.495,1.733-0.495,2.849v6.438h-3.814   v-17.509h3.814v5.943c0.544-0.545,1.659-1.709,3.714-1.709c0.941,0,1.981,0.272,2.749,0.917c1.139,0.966,1.337,2.179,1.337,3.863   V214.373z M290.665,170.289c0-4.536,2.863-8.137,8.534-7.825c6.039,0.341,7.371,5.132,7.371,7.825c0,3.742-2.155,7.853-7.938,7.853   C294.464,178.141,290.665,175.76,290.665,170.289z M307.808,214.373v-1.188c-0.966,0.718-2.056,1.535-3.962,1.535   c-2.972,0-4.235-2.13-4.235-3.938c0-2.08,1.659-3.27,2.724-3.715c1.04-0.445,3.492-0.892,5.102-1.188v-0.693   c-0.05-0.595-0.099-1.585-1.461-1.585c-1.684,0-1.907,1.04-2.006,1.511h-3.814c0.075-0.892,0.198-1.957,1.362-2.873   c1.188-0.941,2.724-1.14,4.235-1.14c1.585,0,5.423,0.372,5.423,3.715v7.529c0,1.387,0.074,1.585,0.372,2.03H307.808z    M307.417,175.221l2.75-2.495c1.191,1.163,2.665,2.042,4.309,2.042c1.049,0,2.637-0.341,2.637-1.446   c0-0.51-0.312-0.709-0.567-0.851c-0.652-0.34-1.673-0.425-2.523-0.566c-0.652-0.114-1.333-0.256-1.984-0.454   c-0.907-0.255-1.814-0.624-2.466-1.275c-0.652-0.652-1.106-1.673-1.106-2.778c0-2.438,2.098-4.962,6.237-4.962   c3.487,0,5.585,1.503,6.606,2.212l-2.693,2.494c-1.39-1.077-2.693-1.474-3.714-1.474c-1.701,0-2.098,0.68-2.098,1.105   c0,0.851,0.936,1.021,2.353,1.275c2.977,0.539,6.436,1.333,6.436,4.849c0,3.487-3.516,5.188-7.002,5.188   C310.479,178.084,308.353,176.1,307.417,175.221z M326.187,214.373h-3.789v-7.281c0-1.164-0.025-1.585-0.173-1.932   c-0.297-0.693-0.966-0.99-1.709-0.99c-2.006,0-2.006,1.609-2.006,3.22v6.983h-3.814V201.47h3.839v1.139   c0.371-0.396,0.619-0.693,1.288-1.015c0.594-0.248,1.437-0.471,2.353-0.471c0.768,0,1.635,0.148,2.303,0.52   c1.362,0.719,1.709,1.883,1.709,3.889V214.373z M338.25,214.373l-3.319-5.572l-1.634,1.535v4.037h-3.715v-17.484h3.74v8.99   l4.185-4.434h4.582l-4.458,4.606l5.027,8.321H338.25z M348.581,214.695c-3.591,0-5.448-1.733-6.265-2.502l2.402-2.179   c1.04,1.015,2.328,1.783,3.765,1.783c0.916,0,2.303-0.298,2.303-1.264c0-0.445-0.272-0.619-0.495-0.742   c-0.57-0.298-1.461-0.372-2.204-0.496c-0.569-0.099-1.164-0.223-1.733-0.396c-0.792-0.224-1.585-0.545-2.155-1.115   c-0.569-0.569-0.966-1.461-0.966-2.427c0-2.13,1.833-4.334,5.448-4.334c3.046,0,4.879,1.312,5.771,1.932l-2.353,2.18   c-1.213-0.941-2.353-1.288-3.244-1.288c-1.486,0-1.833,0.595-1.833,0.966c0,0.743,0.817,0.892,2.056,1.114   c2.6,0.471,5.622,1.164,5.622,4.235C354.698,213.208,351.627,214.695,348.581,214.695z M356.118,165.922h-2.892v6.662   c-0.028,0.907-0.028,1.673,1.134,1.673l1.56-0.057v3.402c-0.936,0.142-1.502,0.227-2.296,0.227c-1.503,0-3.147-0.085-4.083-1.445   c-0.595-0.879-0.624-1.929-0.624-3.346v-7.145h-2.154v-2.665h2.154v-4.593h4.338v4.621h2.863V165.922z M361.461,214.373h-3.962   v-4.21h3.962V214.373z M361.461,201.941l-1.189,6.414h-1.659l-1.114-6.241v-5.226h3.962V201.941z M371.709,177.716h-4.338v-7.74   c0-1.19-0.028-1.757-0.198-2.268c-0.425-1.332-1.588-1.475-2.042-1.475c-0.766,0-1.417,0.369-1.786,0.851   c-0.567,0.766-0.567,1.984-0.567,3.261v7.371h-4.366v-20.044h4.366v6.804c0.624-0.623,1.899-1.956,4.252-1.956   c1.078,0,2.268,0.312,3.147,1.049c1.304,1.106,1.531,2.495,1.531,4.423V177.716z M382.337,174.881c2.381,0,3.204-1.56,3.743-2.608   l3.289,1.673c-0.51,0.766-1.021,1.503-1.786,2.211c-1.276,1.191-3.204,2.099-5.585,2.099c-4.394,0-7.484-2.807-7.484-7.655   c0-3.572,1.758-8.165,7.598-8.165c0.879,0,3.43,0.085,5.33,2.127c1.928,2.069,2.042,4.961,2.098,6.634h-10.575   C378.936,173.039,379.984,174.881,382.337,174.881z M417.12,171.394c-1.843,6.181-7.428,6.294-9.526,6.322h-7.881v-20.016h6.379   c2.438,0.028,6.123,0.085,8.675,2.354c2.069,1.871,2.863,4.678,2.863,7.484C417.63,169.268,417.375,170.543,417.12,171.394z    M427.352,178.141c-4.168,0-7.967-2.381-7.967-7.853c0-4.536,2.863-8.137,8.533-7.825c6.039,0.341,7.372,5.132,7.372,7.825   C435.29,174.031,433.135,178.141,427.352,178.141z M445.067,178.141c-4.168,0-7.967-2.381-7.967-7.853   c0-4.536,2.863-8.137,8.533-7.825c6.039,0.341,7.372,5.132,7.372,7.825C453.006,174.031,450.851,178.141,445.067,178.141z    M464.314,166.603l-1.445,0.227c-2.098,0.368-2.722,0.681-2.722,2.552v8.335h-4.366v-14.827h4.253v1.559   c0.964-0.822,2.013-1.474,4.28-1.7V166.603z M469.133,177.716h-4.479v-4.734h4.479V177.716z" style="fill:none;stroke:red;stroke-width:0.0001px"/><path d="M516.101,195.816v-33.043c0-37.577-30.745-68.322-68.322-68.322H180.061   c-37.577,0-68.322,30.745-68.322,68.322v33.043c0,37.577,30.745,68.322,68.322,68.322H440.46   c6.311,7.409,19.11,14.092,39.175,24.563c5.976,3.119,22.002,11.482,24.531,8.177c1.364-1.783-2.072-5.82-5.451-11.811   c-4.738-8.401-6.55-17.5-9.724-34.863C505.432,237.697,516.101,217.945,516.101,195.816z M330.748,162.435   c0.879,0,3.43,0.085,5.33,2.127c1.928,2.069,2.041,4.961,2.098,6.634h-10.575c-0.028,1.843,1.021,3.686,3.374,3.686   c2.382,0,3.204-1.56,3.742-2.608l3.289,1.673c-0.51,0.766-1.021,1.503-1.786,2.211c-1.276,1.191-3.204,2.099-5.585,2.099   c-4.395,0-7.485-2.807-7.485-7.655C323.15,167.028,324.908,162.435,330.748,162.435z M283.409,157.701h4.366v20.016h-4.366V157.701   z M180.544,167.454c-1.729,3.572-5.415,3.657-8.137,3.714h-3.317v6.549h-5.018v-20.016h8.052c3.289,0,6.209,0,7.966,2.523   c0.766,1.134,1.134,2.75,1.134,4.11C181.224,165.44,180.997,166.518,180.544,167.454z M187.968,177.716h-4.366v-20.016h4.366   V177.716z M198.683,174.881c2.381,0,3.204-1.56,3.743-2.608l3.289,1.673c-0.51,0.766-1.021,1.503-1.786,2.211   c-1.276,1.191-3.204,2.099-5.585,2.099c-4.394,0-7.484-2.807-7.484-7.655c0-3.572,1.758-8.165,7.598-8.165   c0.879,0,3.43,0.085,5.33,2.127c1.928,2.069,2.042,4.961,2.098,6.634H195.31C195.281,173.039,196.33,174.881,198.683,174.881z    M217.108,177.716v-1.361c-1.105,0.822-2.353,1.758-4.536,1.758c-3.402,0-4.848-2.438-4.848-4.508c0-2.381,1.899-3.742,3.119-4.252   c1.19-0.511,3.997-1.021,5.84-1.361v-0.794c-0.057-0.68-0.114-1.814-1.673-1.814c-1.928,0-2.183,1.191-2.296,1.729h-4.366   c0.085-1.021,0.227-2.239,1.56-3.288c1.361-1.077,3.118-1.305,4.848-1.305c1.814,0,6.209,0.426,6.209,4.253v8.618   c0,1.588,0.085,1.814,0.425,2.325H217.108z M230.119,178.084c-4.111,0-6.237-1.984-7.173-2.863l2.75-2.495   c1.191,1.163,2.665,2.042,4.309,2.042c1.049,0,2.637-0.341,2.637-1.446c0-0.51-0.312-0.709-0.567-0.851   c-0.652-0.34-1.673-0.425-2.523-0.566c-0.652-0.114-1.332-0.256-1.984-0.454c-0.907-0.255-1.814-0.624-2.466-1.275   c-0.652-0.652-1.106-1.673-1.106-2.778c0-2.438,2.098-4.962,6.237-4.962c3.487,0,5.585,1.503,6.605,2.212l-2.693,2.494   c-1.389-1.077-2.693-1.474-3.714-1.474c-1.701,0-2.098,0.68-2.098,1.105c0,0.851,0.936,1.021,2.353,1.275   c2.977,0.539,6.436,1.333,6.436,4.849C237.122,176.384,233.606,178.084,230.119,178.084z M246.503,174.881   c2.382,0,3.204-1.56,3.742-2.608l3.289,1.673c-0.51,0.766-1.021,1.503-1.786,2.211c-1.276,1.191-3.204,2.099-5.585,2.099   c-4.395,0-7.485-2.807-7.485-7.655c0-3.572,1.758-8.165,7.598-8.165c0.879,0,3.43,0.085,5.33,2.127   c1.928,2.069,2.041,4.961,2.098,6.634h-10.575C243.101,173.039,244.15,174.881,246.503,174.881z M263.084,167.68   c0-5.926,4.026-10.604,9.696-10.604c2.296,0,4.337,0.794,5.84,1.984c1.389,1.106,2.041,2.212,2.608,3.204l-3.969,1.984   c-0.284-0.652-0.624-1.332-1.503-2.069c-0.964-0.766-1.928-0.992-2.75-0.992c-3.232,0-4.933,3.005-4.933,6.351   c0,4.395,2.24,6.577,4.933,6.577c2.608,0,3.657-1.814,4.338-2.977l3.941,2.013c-0.737,1.162-1.446,2.297-3.034,3.402   c-0.851,0.595-2.807,1.758-5.585,1.758C267.365,178.312,263.084,174.456,263.084,167.68z M283.779,200.331h-4.532v14.042h-4.384   v-14.042h-4.557v-3.467h13.472V200.331z M296.858,214.373h-3.789v-6.761c0-1.04-0.025-1.535-0.173-1.981   c-0.372-1.164-1.387-1.288-1.783-1.288c-0.668,0-1.238,0.322-1.56,0.743c-0.495,0.669-0.495,1.733-0.495,2.849v6.438h-3.814   v-17.509h3.814v5.943c0.544-0.545,1.659-1.709,3.714-1.709c0.941,0,1.981,0.272,2.749,0.917c1.139,0.966,1.337,2.179,1.337,3.863   V214.373z M290.665,170.289c0-4.536,2.863-8.137,8.534-7.825c6.039,0.341,7.371,5.132,7.371,7.825c0,3.742-2.155,7.853-7.938,7.853   C294.464,178.141,290.665,175.76,290.665,170.289z M307.808,214.373v-1.188c-0.966,0.718-2.056,1.535-3.962,1.535   c-2.972,0-4.235-2.13-4.235-3.938c0-2.08,1.659-3.27,2.724-3.715c1.04-0.445,3.492-0.892,5.102-1.188v-0.693   c-0.05-0.595-0.099-1.585-1.461-1.585c-1.684,0-1.907,1.04-2.006,1.511h-3.814c0.075-0.892,0.198-1.957,1.362-2.873   c1.188-0.941,2.724-1.14,4.235-1.14c1.585,0,5.423,0.372,5.423,3.715v7.529c0,1.387,0.074,1.585,0.372,2.03H307.808z    M307.417,175.221l2.75-2.495c1.191,1.163,2.665,2.042,4.309,2.042c1.049,0,2.637-0.341,2.637-1.446   c0-0.51-0.312-0.709-0.567-0.851c-0.652-0.34-1.673-0.425-2.523-0.566c-0.652-0.114-1.333-0.256-1.984-0.454   c-0.907-0.255-1.814-0.624-2.466-1.275c-0.652-0.652-1.106-1.673-1.106-2.778c0-2.438,2.098-4.962,6.237-4.962   c3.487,0,5.585,1.503,6.606,2.212l-2.693,2.494c-1.39-1.077-2.693-1.474-3.714-1.474c-1.701,0-2.098,0.68-2.098,1.105   c0,0.851,0.936,1.021,2.353,1.275c2.977,0.539,6.436,1.333,6.436,4.849c0,3.487-3.516,5.188-7.002,5.188   C310.479,178.084,308.353,176.1,307.417,175.221z M326.187,214.373h-3.789v-7.281c0-1.164-0.025-1.585-0.173-1.932   c-0.297-0.693-0.966-0.99-1.709-0.99c-2.006,0-2.006,1.609-2.006,3.22v6.983h-3.814V201.47h3.839v1.139   c0.371-0.396,0.619-0.693,1.288-1.015c0.594-0.248,1.437-0.471,2.353-0.471c0.768,0,1.635,0.148,2.303,0.52   c1.362,0.719,1.709,1.883,1.709,3.889V214.373z M338.25,214.373l-3.319-5.572l-1.634,1.535v4.037h-3.715v-17.484h3.74v8.99   l4.185-4.434h4.582l-4.458,4.606l5.027,8.321H338.25z M348.581,214.695c-3.591,0-5.448-1.733-6.265-2.502l2.402-2.179   c1.04,1.015,2.328,1.783,3.765,1.783c0.916,0,2.303-0.298,2.303-1.264c0-0.445-0.272-0.619-0.495-0.742   c-0.57-0.298-1.461-0.372-2.204-0.496c-0.569-0.099-1.164-0.223-1.733-0.396c-0.792-0.224-1.585-0.545-2.155-1.115   c-0.569-0.569-0.966-1.461-0.966-2.427c0-2.13,1.833-4.334,5.448-4.334c3.046,0,4.879,1.312,5.771,1.932l-2.353,2.18   c-1.213-0.941-2.353-1.288-3.244-1.288c-1.486,0-1.833,0.595-1.833,0.966c0,0.743,0.817,0.892,2.056,1.114   c2.6,0.471,5.622,1.164,5.622,4.235C354.698,213.208,351.627,214.695,348.581,214.695z M356.118,165.922h-2.892v6.662   c-0.028,0.907-0.028,1.673,1.134,1.673l1.56-0.057v3.402c-0.936,0.142-1.502,0.227-2.296,0.227c-1.503,0-3.147-0.085-4.083-1.445   c-0.595-0.879-0.624-1.929-0.624-3.346v-7.145h-2.154v-2.665h2.154v-4.593h4.338v4.621h2.863V165.922z M361.461,214.373h-3.962   v-4.21h3.962V214.373z M361.461,201.941l-1.189,6.414h-1.659l-1.114-6.241v-5.226h3.962V201.941z M371.709,177.716h-4.338v-7.74   c0-1.19-0.028-1.757-0.198-2.268c-0.425-1.332-1.588-1.475-2.042-1.475c-0.766,0-1.417,0.369-1.786,0.851   c-0.567,0.766-0.567,1.984-0.567,3.261v7.371h-4.366v-20.044h4.366v6.804c0.624-0.623,1.899-1.956,4.252-1.956   c1.078,0,2.268,0.312,3.147,1.049c1.304,1.106,1.531,2.495,1.531,4.423V177.716z M382.337,174.881c2.381,0,3.204-1.56,3.743-2.608   l3.289,1.673c-0.51,0.766-1.021,1.503-1.786,2.211c-1.276,1.191-3.204,2.099-5.585,2.099c-4.394,0-7.484-2.807-7.484-7.655   c0-3.572,1.758-8.165,7.598-8.165c0.879,0,3.43,0.085,5.33,2.127c1.928,2.069,2.042,4.961,2.098,6.634h-10.575   C378.936,173.039,379.984,174.881,382.337,174.881z M417.12,171.394c-1.843,6.181-7.428,6.294-9.526,6.322h-7.881v-20.016h6.379   c2.438,0.028,6.123,0.085,8.675,2.354c2.069,1.871,2.863,4.678,2.863,7.484C417.63,169.268,417.375,170.543,417.12,171.394z    M427.352,178.141c-4.168,0-7.967-2.381-7.967-7.853c0-4.536,2.863-8.137,8.533-7.825c6.039,0.341,7.372,5.132,7.372,7.825   C435.29,174.031,433.135,178.141,427.352,178.141z M445.067,178.141c-4.168,0-7.967-2.381-7.967-7.853   c0-4.536,2.863-8.137,8.533-7.825c6.039,0.341,7.372,5.132,7.372,7.825C453.006,174.031,450.851,178.141,445.067,178.141z    M464.314,166.603l-1.445,0.227c-2.098,0.368-2.722,0.681-2.722,2.552v8.335h-4.366v-14.827h4.253v1.559   c0.964-0.822,2.013-1.474,4.28-1.7V166.603z M469.133,177.716h-4.479v-4.734h4.479V177.716z" style="fill:none;stroke:red;stroke-width:0.0001px"/><path d="M516.101,195.816v-33.043c0-37.577-30.745-68.322-68.322-68.322H180.061   c-37.577,0-68.322,30.745-68.322,68.322v33.043c0,37.577,30.745,68.322,68.322,68.322H440.46   c6.311,7.409,19.11,14.092,39.175,24.563c5.976,3.119,22.002,11.482,24.531,8.177c1.364-1.783-2.072-5.82-5.451-11.811   c-4.738-8.401-6.55-17.5-9.724-34.863C505.432,237.697,516.101,217.945,516.101,195.816z M330.748,162.435   c0.879,0,3.43,0.085,5.33,2.127c1.928,2.069,2.041,4.961,2.098,6.634h-10.575c-0.028,1.843,1.021,3.686,3.374,3.686   c2.382,0,3.204-1.56,3.742-2.608l3.289,1.673c-0.51,0.766-1.021,1.503-1.786,2.211c-1.276,1.191-3.204,2.099-5.585,2.099   c-4.395,0-7.485-2.807-7.485-7.655C323.15,167.028,324.908,162.435,330.748,162.435z M283.409,157.701h4.366v20.016h-4.366V157.701   z M180.544,167.454c-1.729,3.572-5.415,3.657-8.137,3.714h-3.317v6.549h-5.018v-20.016h8.052c3.289,0,6.209,0,7.966,2.523   c0.766,1.134,1.134,2.75,1.134,4.11C181.224,165.44,180.997,166.518,180.544,167.454z M187.968,177.716h-4.366v-20.016h4.366   V177.716z M198.683,174.881c2.381,0,3.204-1.56,3.743-2.608l3.289,1.673c-0.51,0.766-1.021,1.503-1.786,2.211   c-1.276,1.191-3.204,2.099-5.585,2.099c-4.394,0-7.484-2.807-7.484-7.655c0-3.572,1.758-8.165,7.598-8.165   c0.879,0,3.43,0.085,5.33,2.127c1.928,2.069,2.042,4.961,2.098,6.634H195.31C195.281,173.039,196.33,174.881,198.683,174.881z    M217.108,177.716v-1.361c-1.105,0.822-2.353,1.758-4.536,1.758c-3.402,0-4.848-2.438-4.848-4.508c0-2.381,1.899-3.742,3.119-4.252   c1.19-0.511,3.997-1.021,5.84-1.361v-0.794c-0.057-0.68-0.114-1.814-1.673-1.814c-1.928,0-2.183,1.191-2.296,1.729h-4.366   c0.085-1.021,0.227-2.239,1.56-3.288c1.361-1.077,3.118-1.305,4.848-1.305c1.814,0,6.209,0.426,6.209,4.253v8.618   c0,1.588,0.085,1.814,0.425,2.325H217.108z M230.119,178.084c-4.111,0-6.237-1.984-7.173-2.863l2.75-2.495   c1.191,1.163,2.665,2.042,4.309,2.042c1.049,0,2.637-0.341,2.637-1.446c0-0.51-0.312-0.709-0.567-0.851   c-0.652-0.34-1.673-0.425-2.523-0.566c-0.652-0.114-1.332-0.256-1.984-0.454c-0.907-0.255-1.814-0.624-2.466-1.275   c-0.652-0.652-1.106-1.673-1.106-2.778c0-2.438,2.098-4.962,6.237-4.962c3.487,0,5.585,1.503,6.605,2.212l-2.693,2.494   c-1.389-1.077-2.693-1.474-3.714-1.474c-1.701,0-2.098,0.68-2.098,1.105c0,0.851,0.936,1.021,2.353,1.275   c2.977,0.539,6.436,1.333,6.436,4.849C237.122,176.384,233.606,178.084,230.119,178.084z M246.503,174.881   c2.382,0,3.204-1.56,3.742-2.608l3.289,1.673c-0.51,0.766-1.021,1.503-1.786,2.211c-1.276,1.191-3.204,2.099-5.585,2.099   c-4.395,0-7.485-2.807-7.485-7.655c0-3.572,1.758-8.165,7.598-8.165c0.879,0,3.43,0.085,5.33,2.127   c1.928,2.069,2.041,4.961,2.098,6.634h-10.575C243.101,173.039,244.15,174.881,246.503,174.881z M263.084,167.68   c0-5.926,4.026-10.604,9.696-10.604c2.296,0,4.337,0.794,5.84,1.984c1.389,1.106,2.041,2.212,2.608,3.204l-3.969,1.984   c-0.284-0.652-0.624-1.332-1.503-2.069c-0.964-0.766-1.928-0.992-2.75-0.992c-3.232,0-4.933,3.005-4.933,6.351   c0,4.395,2.24,6.577,4.933,6.577c2.608,0,3.657-1.814,4.338-2.977l3.941,2.013c-0.737,1.162-1.446,2.297-3.034,3.402   c-0.851,0.595-2.807,1.758-5.585,1.758C267.365,178.312,263.084,174.456,263.084,167.68z M283.779,200.331h-4.532v14.042h-4.384   v-14.042h-4.557v-3.467h13.472V200.331z M296.858,214.373h-3.789v-6.761c0-1.04-0.025-1.535-0.173-1.981   c-0.372-1.164-1.387-1.288-1.783-1.288c-0.668,0-1.238,0.322-1.56,0.743c-0.495,0.669-0.495,1.733-0.495,2.849v6.438h-3.814   v-17.509h3.814v5.943c0.544-0.545,1.659-1.709,3.714-1.709c0.941,0,1.981,0.272,2.749,0.917c1.139,0.966,1.337,2.179,1.337,3.863   V214.373z M290.665,170.289c0-4.536,2.863-8.137,8.534-7.825c6.039,0.341,7.371,5.132,7.371,7.825c0,3.742-2.155,7.853-7.938,7.853   C294.464,178.141,290.665,175.76,290.665,170.289z M307.808,214.373v-1.188c-0.966,0.718-2.056,1.535-3.962,1.535   c-2.972,0-4.235-2.13-4.235-3.938c0-2.08,1.659-3.27,2.724-3.715c1.04-0.445,3.492-0.892,5.102-1.188v-0.693   c-0.05-0.595-0.099-1.585-1.461-1.585c-1.684,0-1.907,1.04-2.006,1.511h-3.814c0.075-0.892,0.198-1.957,1.362-2.873   c1.188-0.941,2.724-1.14,4.235-1.14c1.585,0,5.423,0.372,5.423,3.715v7.529c0,1.387,0.074,1.585,0.372,2.03H307.808z    M307.417,175.221l2.75-2.495c1.191,1.163,2.665,2.042,4.309,2.042c1.049,0,2.637-0.341,2.637-1.446   c0-0.51-0.312-0.709-0.567-0.851c-0.652-0.34-1.673-0.425-2.523-0.566c-0.652-0.114-1.333-0.256-1.984-0.454   c-0.907-0.255-1.814-0.624-2.466-1.275c-0.652-0.652-1.106-1.673-1.106-2.778c0-2.438,2.098-4.962,6.237-4.962   c3.487,0,5.585,1.503,6.606,2.212l-2.693,2.494c-1.39-1.077-2.693-1.474-3.714-1.474c-1.701,0-2.098,0.68-2.098,1.105   c0,0.851,0.936,1.021,2.353,1.275c2.977,0.539,6.436,1.333,6.436,4.849c0,3.487-3.516,5.188-7.002,5.188   C310.479,178.084,308.353,176.1,307.417,175.221z M326.187,214.373h-3.789v-7.281c0-1.164-0.025-1.585-0.173-1.932   c-0.297-0.693-0.966-0.99-1.709-0.99c-2.006,0-2.006,1.609-2.006,3.22v6.983h-3.814V201.47h3.839v1.139   c0.371-0.396,0.619-0.693,1.288-1.015c0.594-0.248,1.437-0.471,2.353-0.471c0.768,0,1.635,0.148,2.303,0.52   c1.362,0.719,1.709,1.883,1.709,3.889V214.373z M338.25,214.373l-3.319-5.572l-1.634,1.535v4.037h-3.715v-17.484h3.74v8.99   l4.185-4.434h4.582l-4.458,4.606l5.027,8.321H338.25z M348.581,214.695c-3.591,0-5.448-1.733-6.265-2.502l2.402-2.179   c1.04,1.015,2.328,1.783,3.765,1.783c0.916,0,2.303-0.298,2.303-1.264c0-0.445-0.272-0.619-0.495-0.742   c-0.57-0.298-1.461-0.372-2.204-0.496c-0.569-0.099-1.164-0.223-1.733-0.396c-0.792-0.224-1.585-0.545-2.155-1.115   c-0.569-0.569-0.966-1.461-0.966-2.427c0-2.13,1.833-4.334,5.448-4.334c3.046,0,4.879,1.312,5.771,1.932l-2.353,2.18   c-1.213-0.941-2.353-1.288-3.244-1.288c-1.486,0-1.833,0.595-1.833,0.966c0,0.743,0.817,0.892,2.056,1.114   c2.6,0.471,5.622,1.164,5.622,4.235C354.698,213.208,351.627,214.695,348.581,214.695z M356.118,165.922h-2.892v6.662   c-0.028,0.907-0.028,1.673,1.134,1.673l1.56-0.057v3.402c-0.936,0.142-1.502,0.227-2.296,0.227c-1.503,0-3.147-0.085-4.083-1.445   c-0.595-0.879-0.624-1.929-0.624-3.346v-7.145h-2.154v-2.665h2.154v-4.593h4.338v4.621h2.863V165.922z M361.461,214.373h-3.962   v-4.21h3.962V214.373z M361.461,201.941l-1.189,6.414h-1.659l-1.114-6.241v-5.226h3.962V201.941z M371.709,177.716h-4.338v-7.74   c0-1.19-0.028-1.757-0.198-2.268c-0.425-1.332-1.588-1.475-2.042-1.475c-0.766,0-1.417,0.369-1.786,0.851   c-0.567,0.766-0.567,1.984-0.567,3.261v7.371h-4.366v-20.044h4.366v6.804c0.624-0.623,1.899-1.956,4.252-1.956   c1.078,0,2.268,0.312,3.147,1.049c1.304,1.106,1.531,2.495,1.531,4.423V177.716z M382.337,174.881c2.381,0,3.204-1.56,3.743-2.608   l3.289,1.673c-0.51,0.766-1.021,1.503-1.786,2.211c-1.276,1.191-3.204,2.099-5.585,2.099c-4.394,0-7.484-2.807-7.484-7.655   c0-3.572,1.758-8.165,7.598-8.165c0.879,0,3.43,0.085,5.33,2.127c1.928,2.069,2.042,4.961,2.098,6.634h-10.575   C378.936,173.039,379.984,174.881,382.337,174.881z M417.12,171.394c-1.843,6.181-7.428,6.294-9.526,6.322h-7.881v-20.016h6.379   c2.438,0.028,6.123,0.085,8.675,2.354c2.069,1.871,2.863,4.678,2.863,7.484C417.63,169.268,417.375,170.543,417.12,171.394z    M427.352,178.141c-4.168,0-7.967-2.381-7.967-7.853c0-4.536,2.863-8.137,8.533-7.825c6.039,0.341,7.372,5.132,7.372,7.825   C435.29,174.031,433.135,178.141,427.352,178.141z M445.067,178.141c-4.168,0-7.967-2.381-7.967-7.853   c0-4.536,2.863-8.137,8.533-7.825c6.039,0.341,7.372,5.132,7.372,7.825C453.006,174.031,450.851,178.141,445.067,178.141z    M464.314,166.603l-1.445,0.227c-2.098,0.368-2.722,0.681-2.722,2.552v8.335h-4.366v-14.827h4.253v1.559   c0.964-0.822,2.013-1.474,4.28-1.7V166.603z M469.133,177.716h-4.479v-4.734h4.479V177.716z" style="fill:none;stroke:red;stroke-width:0.0001px"/><path d="M444.812,165.922c-1.247,0.085-1.984,0.511-2.579,1.446c-0.539,0.851-0.737,1.871-0.737,2.892   c0,2.353,1.134,4.423,3.572,4.423c2.353,0,3.516-1.899,3.516-4.225c0-1.645-0.397-2.92-1.22-3.714   C446.456,165.894,445.436,165.866,444.812,165.922z" style="fill:none;stroke:red;stroke-width:0.0001px"/><path d="M444.812,165.922c-1.247,0.085-1.984,0.511-2.579,1.446c-0.539,0.851-0.737,1.871-0.737,2.892   c0,2.353,1.134,4.423,3.572,4.423c2.353,0,3.516-1.899,3.516-4.225c0-1.645-0.397-2.92-1.22-3.714   C446.456,165.894,445.436,165.866,444.812,165.922z" style="fill:none;stroke:red;stroke-width:0.0001px"/><path d="M444.812,165.922c-1.247,0.085-1.984,0.511-2.579,1.446c-0.539,0.851-0.737,1.871-0.737,2.892   c0,2.353,1.134,4.423,3.572,4.423c2.353,0,3.516-1.899,3.516-4.225c0-1.645-0.397-2.92-1.22-3.714   C446.456,165.894,445.436,165.866,444.812,165.922z" style="fill:none;stroke:red;stroke-width:0.0001px"/><path d="M332.846,166.376c-0.539-0.539-1.361-0.822-2.126-0.822c-1.049,0-1.786,0.51-2.211,0.964   c-0.595,0.651-0.737,1.332-0.879,1.956h6.039C333.583,167.85,333.47,167.028,332.846,166.376z" style="fill:none;stroke:red;stroke-width:0.0001px"/><path d="M332.846,166.376c-0.539-0.539-1.361-0.822-2.126-0.822c-1.049,0-1.786,0.51-2.211,0.964   c-0.595,0.651-0.737,1.332-0.879,1.956h6.039C333.583,167.85,333.47,167.028,332.846,166.376z" style="fill:none;stroke:red;stroke-width:0.0001px"/><path d="M332.846,166.376c-0.539-0.539-1.361-0.822-2.126-0.822c-1.049,0-1.786,0.51-2.211,0.964   c-0.595,0.651-0.737,1.332-0.879,1.956h6.039C333.583,167.85,333.47,167.028,332.846,166.376z" style="fill:none;stroke:red;stroke-width:0.0001px"/><path d="M427.097,165.922c-1.248,0.085-1.985,0.511-2.58,1.446c-0.539,0.851-0.737,1.871-0.737,2.892   c0,2.353,1.134,4.423,3.572,4.423c2.353,0,3.516-1.899,3.516-4.225c0-1.645-0.397-2.92-1.22-3.714   C428.74,165.894,427.72,165.866,427.097,165.922z" style="fill:none;stroke:red;stroke-width:0.0001px"/><path d="M427.097,165.922c-1.248,0.085-1.985,0.511-2.58,1.446c-0.539,0.851-0.737,1.871-0.737,2.892   c0,2.353,1.134,4.423,3.572,4.423c2.353,0,3.516-1.899,3.516-4.225c0-1.645-0.397-2.92-1.22-3.714   C428.74,165.894,427.72,165.866,427.097,165.922z" style="fill:none;stroke:red;stroke-width:0.0001px"/><path d="M427.097,165.922c-1.248,0.085-1.985,0.511-2.58,1.446c-0.539,0.851-0.737,1.871-0.737,2.892   c0,2.353,1.134,4.423,3.572,4.423c2.353,0,3.516-1.899,3.516-4.225c0-1.645-0.397-2.92-1.22-3.714   C428.74,165.894,427.72,165.866,427.097,165.922z" style="fill:none;stroke:red;stroke-width:0.0001px"/><path d="M698.614,404.207c-0.125-0.88-0.494-1.829-1.186-2.845c-0.041-0.093-0.082-0.187-0.123-0.28  c-2.851-0.453-5.699-0.924-8.542-1.423c-1.885-0.331-3.767-0.674-5.646-1.034c-1.879-0.361-3.755-0.739-5.626-1.14  c-2.001-0.429-3.995-0.885-5.984-1.365c-1.989-0.48-3.972-0.984-5.953-1.496c-0.025-0.006-0.049-0.013-0.074-0.019  c1.317,2.157,2.483,3.947,3.521,5.435c2.473,3.163,4.945,6.326,7.418,9.489c1.8,2.791,3.19,4.659,4.285,5.874  c0.028-0.026,0.055-0.052,0.083-0.079c0.099-0.096,0.196-0.194,0.291-0.293c0.165-0.171,0.326-0.345,0.484-0.521  c0.17-0.19,0.336-0.383,0.502-0.575c0.43-0.496,0.866-0.988,1.333-1.455c0.283-0.282,0.577-0.555,0.882-0.817  c0.134-0.114,0.27-0.227,0.409-0.336c0.384-0.303,0.79-0.584,1.218-0.833c0.467-0.272,0.959-0.506,1.467-0.708  c0.394-0.157,0.796-0.294,1.205-0.415c0.329-0.097,0.662-0.184,0.995-0.27c0.422-0.109,0.843-0.216,1.263-0.332  c0.496-0.137,0.989-0.284,1.473-0.454c0.609-0.213,1.204-0.462,1.782-0.738c0.56-0.268,1.105-0.562,1.632-0.882  c0.374-0.228,0.739-0.469,1.089-0.727c0.29-0.214,0.569-0.44,0.833-0.679c0.272-0.247,0.529-0.51,0.756-0.792  c0.089-0.111,0.174-0.225,0.252-0.344" style="fill:none;stroke:red;stroke-width:0.0001px"/><path d="M698.614,404.207c-0.125-0.88-0.494-1.829-1.186-2.845c-0.041-0.093-0.082-0.187-0.123-0.28  c-2.851-0.453-5.699-0.924-8.542-1.423c-1.885-0.331-3.767-0.674-5.646-1.034c-1.879-0.361-3.755-0.739-5.626-1.14  c-2.001-0.429-3.995-0.885-5.984-1.365c-1.989-0.48-3.972-0.984-5.953-1.496c-0.025-0.006-0.049-0.013-0.074-0.019  c1.317,2.157,2.483,3.947,3.521,5.435c2.473,3.163,4.945,6.326,7.418,9.489c1.8,2.791,3.19,4.659,4.285,5.874  c0.028-0.026,0.055-0.052,0.083-0.079c0.099-0.096,0.196-0.194,0.291-0.293c0.165-0.171,0.326-0.345,0.484-0.521  c0.17-0.19,0.336-0.383,0.502-0.575c0.43-0.496,0.866-0.988,1.333-1.455c0.283-0.282,0.577-0.555,0.882-0.817  c0.134-0.114,0.27-0.227,0.409-0.336c0.384-0.303,0.79-0.584,1.218-0.833c0.467-0.272,0.959-0.506,1.467-0.708  c0.394-0.157,0.796-0.294,1.205-0.415c0.329-0.097,0.662-0.184,0.995-0.27c0.422-0.109,0.843-0.216,1.263-0.332  c0.496-0.137,0.989-0.284,1.473-0.454c0.609-0.213,1.204-0.462,1.782-0.738c0.56-0.268,1.105-0.562,1.632-0.882  c0.374-0.228,0.739-0.469,1.089-0.727c0.29-0.214,0.569-0.44,0.833-0.679c0.272-0.247,0.529-0.51,0.756-0.792  c0.089-0.111,0.174-0.225,0.252-0.344" style="fill:none;stroke:red;stroke-width:0.0001px"/><path d="M698.614,404.207c-0.125-0.88-0.494-1.829-1.186-2.845c-0.041-0.093-0.082-0.187-0.123-0.28  c-2.851-0.453-5.699-0.924-8.542-1.423c-1.885-0.331-3.767-0.674-5.646-1.034c-1.879-0.361-3.755-0.739-5.626-1.14  c-2.001-0.429-3.995-0.885-5.984-1.365c-1.989-0.48-3.972-0.984-5.953-1.496c-0.025-0.006-0.049-0.013-0.074-0.019  c1.317,2.157,2.483,3.947,3.521,5.435c2.473,3.163,4.945,6.326,7.418,9.489c1.8,2.791,3.19,4.659,4.285,5.874  c0.028-0.026,0.055-0.052,0.083-0.079c0.099-0.096,0.196-0.194,0.291-0.293c0.165-0.171,0.326-0.345,0.484-0.521  c0.17-0.19,0.336-0.383,0.502-0.575c0.43-0.496,0.866-0.988,1.333-1.455c0.283-0.282,0.577-0.555,0.882-0.817  c0.134-0.114,0.27-0.227,0.409-0.336c0.384-0.303,0.79-0.584,1.218-0.833c0.467-0.272,0.959-0.506,1.467-0.708  c0.394-0.157,0.796-0.294,1.205-0.415c0.329-0.097,0.662-0.184,0.995-0.27c0.422-0.109,0.843-0.216,1.263-0.332  c0.496-0.137,0.989-0.284,1.473-0.454c0.609-0.213,1.204-0.462,1.782-0.738c0.56-0.268,1.105-0.562,1.632-0.882  c0.374-0.228,0.739-0.469,1.089-0.727c0.29-0.214,0.569-0.44,0.833-0.679c0.272-0.247,0.529-0.51,0.756-0.792  c0.089-0.111,0.174-0.225,0.252-0.344" style="fill:none;stroke:red;stroke-width:0.0001px"/></g></svg>