<svg height="18in" id="Layer_1" version="1.1" width="32in" x="0px" xml:space="preserve" xmlns="http://www.w3.org/2000/svg" xmlns:xlink="http://www.w3.org/1999/xlink" y="0px"><g transform="translate(103.55339059327378 103.55339059327378) rotate(-45 250.0 250.0)"><polygon points="123.481,271.697 119.048,270.893 116.358,267.28 113.446,270.718 108.971,271.241    110.492,275.482 108.708,279.618 113.141,280.421 115.831,284.034 118.743,280.597 123.218,280.074 121.697,275.833  " style="fill:none;stroke:red;stroke-width:0.0001px"/><polygon points="123.481,271.697 119.048,270.893 116.358,267.28 113.446,270.718 108.971,271.241    110.492,275.482 108.708,279.618 113.141,280.421 115.831,284.034 118.743,280.597 123.218,280.074 121.697,275.833  " style="fill:none;stroke:red;stroke-width:0.0001px"/><polygon points="123.481,271.697 119.048,270.893 116.358,267.28 113.446,270.718 108.971,271.241    110.492,275.482 108.708,279.618 113.141,280.421 115.831,284.034 118.743,280.597 123.218,280.074 121.697,275.833  " style="fill:none;stroke:red;stroke-width:0.0001px"/><polygon points="123.481,271.697 119.048,270.893 116.358,267.28 113.446,270.718 108.971,271.241    110.492,275.482 108.708,279.618 113.141,280.421 115.831,284.034 118.743,280.597 123.218,280.074 121.697,275.833  " style="fill:none;stroke:red;stroke-width:0.0001px"/></g></svg>