<svg id="Layer_1" style="enable-background:new 0 0 200 200;" version="1.1" viewBox="0 0 200 200" x="0px" xml:space="preserve" xmlns="http://www.w3.org/2000/svg" xmlns:xlink="http://www.w3.org/1999/xlink" y="0px"><path d="M75.926,58.225c4.825,14.066,6.013,29.125,3.453,43.774c11.799,1.739,23.753,2.195,35.651,1.36   C108.695,83.612,94.569,67.308,75.926,58.225z" style="fill:#10009C;fill-opacity:0.9104831;"/><path d="M75.872,104.461c-18.919-3.148-37.16-9.509-53.933-18.808c-4.651,25.294,3.242,51.273,21.177,69.705   C59.851,142.946,71.551,124.875,75.872,104.461z" style="fill:#10009C;fill-opacity:0.9104831;"/><path d="M78.816,104.924c12.274,1.819,24.712,2.274,37.086,1.356c2.482,8.958,3.301,18.295,2.416,27.549   c-10.85,0.804-21.113,5.449-28.828,13.142c-7.716,7.694-12.381,17.949-12.931,28.865c-11.712-3.62-22.426-9.904-31.302-18.359   C62.473,144.633,74.406,125.945,78.816,104.924z" style="fill:#009D37;fill-opacity:0.9104831;"/><path d="M72.139,56.506c-10.84-4.567-22.592-6.556-34.332-5.812c-7.415,9.352-12.625,20.255-15.244,31.899   c16.722,9.395,34.952,15.806,53.874,18.945C79.09,86.414,77.605,70.855,72.139,56.506z" style="fill:#02A795;fill-opacity:0.9104831;"/><path d="M101.434,179.364c20.256-0.366,39.605-8.464,54.083-22.634c-7.354-12.09-20.421-19.533-34.57-19.693   C118.846,152.787,112.046,167.537,101.434,179.364z" style="fill:#00A533;fill-opacity:0.9104831;"/><path d="M79.503,176.684c5.845,1.562,11.849,2.452,17.896,2.65c11.126-11.555,18.313-26.333,20.534-42.22   c-10.179,0.635-19.757,5.041-26.863,12.357C83.963,156.788,79.839,166.49,79.503,176.684z" style="fill:#099376;fill-opacity:0.9104831;"/><path d="M118.919,106.029c20.779-1.918,41.019-7.687,59.687-17.013c3.34,23.89-4.366,48.003-20.941,65.529   c-7.907-12.514-21.579-20.21-36.379-20.48C122.18,124.653,121.379,115.158,118.919,106.029z" style="fill:#7E319F;fill-opacity:0.9104831;"/><path d="M58.182,32.546c-6.638,4.115-12.632,9.186-17.788,15.051c10.294-0.29,20.546,1.435,30.178,5.078   C67.398,45.423,63.228,38.648,58.182,32.546z" style="fill:#915C57;fill-opacity:0.9104831;"/><path d="M60.771,31.009c5.73,7.004,10.347,14.848,13.69,23.257c20.919,9.21,36.825,27.027,43.613,48.852   c20.923-1.858,41.3-7.69,60.038-17.184c-4.566-25.342-21.143-46.895-44.465-57.811C110.326,17.205,83.157,18.281,60.771,31.009z" style="fill:#007FFF;fill-opacity:0.9104831;"/></svg>